<?xml version="1.0" encoding="UTF-8" standalone="no"?>
<svg width="42px" height="42px" viewBox="0 0 42 42" version="1.1" xmlns="http://www.w3.org/2000/svg" xmlns:xlink="http://www.w3.org/1999/xlink" xmlns:sketch="http://www.bohemiancoding.com/sketch/ns">
    <!-- Generator: Sketch 3.4.4 (17249) - http://www.bohemiancoding.com/sketch -->
    <title>Oval 1251 + Shape</title>
    <desc>Created with Sketch.</desc>
    <defs></defs>
    <g id="Page-1" stroke="none" stroke-width="1" fill="none" fill-rule="evenodd" sketch:type="MSPage">
        <g id="10-News" sketch:type="MSArtboardGroup" transform="translate(-765.000000, -1429.000000)">
            <g id="More" sketch:type="MSLayerGroup" transform="translate(766.000000, 1430.000000)">
                <g id="Oval-1251-+-Shape" sketch:type="MSShapeGroup">
                    <circle id="Oval-1251" stroke="#126BEE" stroke-width="2" cx="20" cy="20" r="20"></circle>
                    <path d="M27.9808798,14.7292342 C26.1937918,11.8491272 23.0130999,10 19.4799685,10 C15.2178573,10 11.4666997,12.6910009 10.0583492,16.6411097 C9.87287643,17.1613195 10.1442344,17.7333883 10.6644443,17.9188611 C11.1846541,18.1043339 11.7567229,17.832976 11.9421957,17.3127661 C13.0687242,14.1531051 16.0700746,12 19.4799685,12 C22.409073,12 25.035623,13.5887246 26.4322124,16.0371207 L24.0187215,16.0371207 C23.4664368,16.0371207 23.0187215,16.484836 23.0187215,17.0371207 C23.0187215,17.5894055 23.4664368,18.0371207 24.0187215,18.0371207 L27.9575928,18.0371207 C27.9730571,18.0374831 27.9885625,18.037485 28.0040997,18.0371207 L28.9808798,18.0371207 C29.5331645,18.0371207 29.9808798,17.5894055 29.9808798,17.0371207 L29.9808798,12.0904545 C29.9808798,11.5381697 29.5331645,11.0904545 28.9808798,11.0904545 C28.428595,11.0904545 27.9808798,11.5381697 27.9808798,12.0904545 L27.9808798,14.7292342 Z M12,25.308159 C13.787088,28.188266 16.9677799,30.0373932 20.5009113,30.0373932 C24.7630225,30.0373932 28.5141801,27.3463923 29.9225306,23.3962836 C30.1080034,22.8760737 29.8366454,22.3040049 29.3164355,22.1185321 C28.7962257,21.9330593 28.2241569,22.2044173 28.0386841,22.7246271 C26.9121556,25.8842881 23.9108052,28.0373932 20.5009113,28.0373932 C17.5718068,28.0373932 14.9452568,26.4486686 13.5486674,24.0002725 L15.9621583,24.0002725 C16.514443,24.0002725 16.9621583,23.5525572 16.9621583,23.0002725 C16.9621583,22.4479877 16.514443,22.0002725 15.9621583,22.0002725 L12.023287,22.0002725 C12.0078227,21.9999101 11.9923173,21.9999083 11.9767801,22.0002725 L11,22.0002725 C10.4477153,22.0002725 10,22.4479877 10,23.0002725 L10,27.9469387 C10,28.4992235 10.4477153,28.9469387 11,28.9469387 C11.5522847,28.9469387 12,28.4992235 12,27.9469387 L12,25.308159 Z" id="Shape" fill="#126BEE"></path>
                </g>
            </g>
        </g>
    </g>
</svg>