<?xml version="1.0" encoding="UTF-8" standalone="no"?>
											<svg width="22px" height="26px" viewBox="0 0 22 26" version="1.1" xmlns="http://www.w3.org/2000/svg" xmlns:xlink="http://www.w3.org/1999/xlink" xmlns:sketch="http://www.bohemiancoding.com/sketch/ns">
											    <g id="Page-1" stroke="none" stroke-width="1" fill="none" fill-rule="evenodd" sketch:type="MSPage">
											        <path d="M21.2962679,22.4506264 C21.2194018,22.1287051 21.0281101,21.8488631 20.6982266,21.8488631 L20.6504764,21.8488631 L20.6504764,8.19486854 C20.6504764,7.91620358 20.4265749,7.69168261 20.1520116,7.69168261 L18.5279248,7.69168261 C18.2536527,7.69168261 18.0306247,7.91620358 18.0306247,8.19486854 L18.0361567,25.3964711 C18.0361567,25.728103 18.3040233,26 18.6330334,26 L21.4019587,26 C21.8515087,26 22,25.728103 22,25.3964711 L21.2962679,22.4506264 Z M0.703440974,22.4506264 C0.7805982,22.1287051 0.971598729,21.8488631 1.30177343,21.8488631 L1.34952356,21.8488631 L1.34952356,8.19486854 C1.34952356,7.91620358 1.57284277,7.69168261 1.84769719,7.69168261 L3.47178401,7.69168261 C3.7454738,7.69168261 3.96908417,7.91620358 3.96908417,8.19486854 L3.96355214,25.3964711 C3.96355214,25.728103 3.69597671,26 3.36696665,26 L0.598041292,26 C0.148491265,25.9997057 0,25.7278088 0,25.3961769 L0.703440974,22.4506264 Z M17.3659079,8.19486854 C17.3659079,7.91620358 17.143171,7.69168261 16.8686077,7.69168261 L5.05569084,7.69168261 C4.77996294,7.69168261 4.5575172,7.91620358 4.5575172,8.19486854 L4.55955532,21.1438143 L5.09907358,22.3794153 C5.25804659,22.6580803 5.49010058,22.882307 5.88403917,22.882307 L9.43676548,22.882307 C9.41492853,22.9332141 8.79621493,25.4962255 8.79621493,25.4962255 C8.79621493,25.7737135 8.88530969,25.9997057 9.29438857,25.9997057 L9.93057173,25.9997057 L11.9931445,25.9997057 L12.6293277,25.9997057 C13.0247221,25.9997057 13.1277925,25.7737135 13.1277925,25.4962255 C13.1277925,25.4962255 12.5105347,22.9332141 12.4889889,22.882307 L16.0420064,22.882307 C16.4362361,22.882307 16.6679989,22.6580803 16.8272631,22.3794153 L17.3664902,21.1438143 L17.3664902,8.19486854 L17.3659079,8.19486854 Z M14.2135257,12.0782281 C14.2135257,12.2235929 14.0970619,12.3415915 13.9526469,12.3415915 L7.97019587,12.3415915 C7.82636316,12.3415915 7.70960826,12.2238872 7.70960826,12.0782281 L7.70960826,11.8690087 C7.70960826,11.7236439 7.826072,11.6059395 7.97019587,11.6059395 L13.9526469,11.6059395 C14.0967708,11.6059395 14.2135257,11.7233496 14.2135257,11.8690087 L14.2135257,12.0782281 L14.2135257,12.0782281 Z M14.2135257,10.5154091 C14.2135257,10.6604796 14.0970619,10.7784782 13.9526469,10.7784782 L7.97019587,10.7784782 C7.82636316,10.7784782 7.70960826,10.6607739 7.70960826,10.5154091 L7.70960826,10.3061897 C7.70960826,10.1608248 7.826072,10.0428263 7.97019587,10.0428263 L13.9526469,10.0428263 C14.0967708,10.0428263 14.2135257,10.1605306 14.2135257,10.3061897 L14.2135257,10.5154091 L14.2135257,10.5154091 Z M14.2135257,8.9522958 C14.2135257,9.09736637 14.0970619,9.21536494 13.9526469,9.21536494 L7.97019587,9.21536494 C7.82636316,9.21536494 7.70960826,9.09766063 7.70960826,8.9522958 L7.70960826,8.74278212 C7.70960826,8.5974173 7.826072,8.47941872 7.97019587,8.47941872 L13.9526469,8.47941872 C14.0967708,8.47941872 14.2135257,8.59712303 14.2135257,8.74278212 L14.2135257,8.9522958 Z M10.961567,3.17124846 C10.5242456,3.17124846 10.170487,3.52965809 10.170487,3.97104927 C10.170487,4.41244044 10.5242456,4.77055581 10.961567,4.77055581 C11.398306,4.77055581 11.7529381,4.41244044 11.7529381,3.97104927 C11.7529381,3.52965809 11.398306,3.17124846 10.961567,3.17124846 Z M10.961567,0 C7.42456326,0 4.5575172,2.89788019 4.5575172,6.47256018 C4.5575172,6.64440848 4.5697459,6.81331417 4.58284807,6.98221986 L17.3402859,6.98221986 C17.3530969,6.81331417 17.3659079,6.64440848 17.3659079,6.47256018 C17.3659079,2.89788019 14.4976972,0 10.961567,0 L10.961567,0 Z M12.2217046,4.99654809 C12.2217046,5.13485066 12.1107729,5.24696402 11.9736368,5.24696402 L9.95095289,5.24696402 C9.81410799,5.24696402 9.70317628,5.13485066 9.70317628,4.99654809 L9.70317628,2.95202417 C9.70317628,2.81372161 9.81410799,2.70160825 9.95095289,2.70160825 L11.9736368,2.70160825 C12.1107729,2.70160825 12.2217046,2.81372161 12.2217046,2.95202417 L12.2217046,4.99654809 L12.2217046,4.99654809 Z M14.7466384,5.94759895 C14.3093171,5.94759895 13.9555585,5.58948357 13.9555585,5.1480924 C13.9555585,4.70670122 14.3093171,4.34829159 14.7466384,4.34829159 C15.1833774,4.34829159 15.5380095,4.70670122 15.5380095,5.1480924 C15.5380095,5.58948357 15.1833774,5.94759895 14.7466384,5.94759895 L14.7466384,5.94759895 Z" id="Robot" fill="#FFFFFF" sketch:type="MSShapeGroup"></path>
											    </g>
											</svg>
