<?xml version="1.0" encoding="UTF-8" standalone="no"?>
<svg width="30px" height="27px" viewBox="0 0 30 27" version="1.1" xmlns="http://www.w3.org/2000/svg" xmlns:xlink="http://www.w3.org/1999/xlink" xmlns:sketch="http://www.bohemiancoding.com/sketch/ns">
    <!-- Generator: Sketch 3.4.4 (17249) - http://www.bohemiancoding.com/sketch -->
    <title>Slice 1</title>
    <desc>Created with Sketch.</desc>
    <defs></defs>
    <g id="Page-1" stroke="none" stroke-width="1" fill="none" fill-rule="evenodd" sketch:type="MSPage">
        <path d="M23.4268632,0 L17.4275584,0 C13.3295096,0 11.4797692,2.91740823 11.4487393,5.83331016 L10.0795096,5.83331016 L10.0795096,7.01545699 C6.5755469,7.69931869 3.63042269,9.94250556 2,12.9966861 L22.6634687,12.9966861 C21.0336485,9.94250556 18.0879218,7.69931869 14.583959,7.01545699 L14.583959,5.83331016 L13.2192482,5.83331016 C13.2343113,5.18680478 13.4988181,1.7720152 17.4278597,1.7720152 L23.4271644,1.7720152 C25.8056174,1.7720152 27.3411429,3.62687709 27.3411429,6.49819244 L27.3411429,25.993071 L29.1134594,25.993071 L29.1134594,6.4984937 C29.1134594,2.61102614 26.8277948,0 23.4268632,0 Z M16.6508157,23.7513904 C16.6508157,24.9925844 17.6582314,26 18.9000278,26 C20.1439331,26 21.1507462,24.9925844 21.1507462,23.7513904 C21.1507462,22.5080877 18.9000278,18.9137468 18.9000278,18.9137468 C18.9000278,18.9137468 16.6508157,22.5080877 16.6508157,23.7513904 Z M11.4736976,18.5573554 C11.4736976,19.7988506 12.480812,20.8062662 13.7226085,20.8062662 C14.9665137,20.8062662 15.9730256,19.7988506 15.9730256,18.5573554 C15.9730256,17.3143539 13.7226085,13.7197117 13.7226085,13.7197117 C13.7226085,13.7197117 11.4736976,17.3143539 11.4736976,18.5573554 Z" id="Shape" fill="#FFFFFF" sketch:type="MSShapeGroup"></path>
        <path d="M5,26 C7.76142375,26 10,23.7614237 10,21 C10,18.2385763 7.76142375,16 5,16 C2.23857625,16 0,18.2385763 0,21 C0,23.7614237 2.23857625,26 5,26 Z M2.6,22.013027 L3.20195406,22.013027 L3.20195406,22.6149811 L2.6,22.6149811 L2.6,23.3355019 L3.20195406,23.3355019 L3.20195406,24.3843612 L4.05016205,24.3843612 L4.05016205,23.3355019 L7.11465543,23.3355019 L7.11465543,22.6149811 L4.05016205,22.6149811 L4.05016205,22.0039065 L4.89837004,22.0039065 C5.81042164,22.0039065 6.37589363,21.7850141 6.8136784,21.3472294 C7.17849904,20.9915293 7.37915039,20.4990214 7.37915039,19.9244289 C7.37915039,19.1947876 7.09641439,18.7296413 6.61302705,18.4013027 C6.20260382,18.1185667 5.70097544,18 4.92573158,18 L3.20195406,18 L3.20195406,21.2833858 L2.6,21.2833858 L2.6,22.013027 Z M6.49446034,19.9517904 C6.49446034,20.3257316 6.39413466,20.6267086 6.1296397,20.8912036 C5.8469037,21.1556985 5.45472151,21.2833858 4.76156229,21.2833858 L4.05016205,21.2833858 L4.05016205,18.7296413 L4.88924952,18.7296413 C5.42735996,18.7296413 5.74657802,18.8026054 6.02931402,18.9850157 C6.34853208,19.1947876 6.49446034,19.5048851 6.49446034,19.9517904 Z" id="Oval-41" fill="#FFFFFF" sketch:type="MSShapeGroup"></path>
    </g>
</svg>