<?xml version="1.0" encoding="UTF-8" standalone="no"?>
<svg width="26px" height="26px" viewBox="0 0 26 26" version="1.1" xmlns="http://www.w3.org/2000/svg" xmlns:xlink="http://www.w3.org/1999/xlink" xmlns:sketch="http://www.bohemiancoding.com/sketch/ns">
    <!-- Generator: Sketch 3.4.4 (17249) - http://www.bohemiancoding.com/sketch -->
    <title>Slice 1</title>
    <desc>Created with Sketch.</desc>
    <defs></defs>
    <g id="Page-1" stroke="none" stroke-width="1" fill="none" fill-rule="evenodd" sketch:type="MSPage">
        <path d="M13.560189,16.119403 L13.560189,13.7555222 C15.4789718,13.2620536 16.8953642,11.5211374 16.8963025,9.44776119 L15.7842647,9.44776119 L14.6722269,9.44776119 C14.6700028,10.6708955 13.675841,11.6605224 12.4481512,11.6716418 C11.2204615,11.6605224 10.2262997,10.6708955 10.2240756,9.44776119 C10.2262997,8.21350746 11.2204615,7.2238806 12.4481512,7.2238806 C13.675841,7.2238806 14.6700028,8.21350746 14.6722269,9.44776119 L16.8963025,9.44776119 C16.8951904,6.99037313 14.9057548,5 12.4481512,5 C9.99054768,5 8.00111204,6.99037313 8,9.44776119 C8.00093826,11.5211374 9.41733072,13.2620536 11.3361134,13.7555222 L11.3361134,20.5671642 L13.560189,20.5671642 L13.560189,18.3432836 L15.7842647,18.3432836 L15.7842647,16.119403 L13.560189,16.119403 Z M13,26 C20.1797017,26 26,20.1797017 26,13 C26,5.82029825 20.1797017,0 13,0 C5.82029825,0 0,5.82029825 0,13 C0,20.1797017 5.82029825,26 13,26 Z" id="Oval-225" fill="#FFFFFF" sketch:type="MSShapeGroup"></path>
    </g>
</svg>