<?xml version="1.0" encoding="UTF-8" standalone="no"?>
											<svg width="29px" height="22px" viewBox="0 0 29 22" version="1.1" xmlns="http://www.w3.org/2000/svg" xmlns:xlink="http://www.w3.org/1999/xlink" xmlns:sketch="http://www.bohemiancoding.com/sketch/ns">
											    <g id="Page-1" stroke="none" stroke-width="1" fill="none" fill-rule="evenodd" sketch:type="MSPage">
											        <path d="M28.3542865,4.72352941 C24.5850377,1.77941176 19.8493149,0 14.7270024,0 C9.37917934,0 4.48237747,1.90882353 0.616481269,5.07941176 C-0.124482171,5.69411765 -0.221129576,6.82647059 0.45540226,7.53823529 L0.809776079,7.92647059 C1.42187631,8.57352941 2.45278197,8.63823529 3.1293138,8.08823529 C6.28646237,5.5 10.3134376,3.94705882 14.6947866,3.94705882 C18.9150566,3.94705882 22.8131687,5.40294118 25.9058856,7.79705882 C26.6146333,8.34705882 27.6133231,8.25 28.1932075,7.57058824 L28.5475814,7.18235294 C29.2241132,6.47058824 29.1274658,5.33823529 28.3542865,4.72352941 Z M24.1662323,8.99411765 C21.4923208,7.08529412 18.2385248,5.95294118 14.7270024,5.95294118 C11.054401,5.95294118 7.63952604,7.18235294 4.9011829,9.25294118 C4.09578785,9.86764706 3.96692465,11.0323529 4.67567228,11.7764706 L5.0300461,12.1647059 C5.64214634,12.8117647 6.60862039,12.8764706 7.31736803,12.3588235 C9.37917934,10.8058824 11.9564435,9.86764706 14.7270024,9.86764706 C17.400914,9.86764706 19.8815307,10.7088235 21.8789104,12.1647059 C22.587658,12.65 23.5541321,12.5205882 24.1018007,11.8735294 L24.4239587,11.4852941 C25.1327064,10.7735294 24.9716274,9.60882353 24.1662323,8.99411765 Z M19.8170991,13.7176471 C18.3351722,12.8117647 16.5955189,12.2941176 14.7270024,12.2941176 C12.7618385,12.2941176 10.893322,12.8764706 9.34696353,13.8794118 C8.44492109,14.4617647 8.28384208,15.6911765 8.99258971,16.4676471 L9.34696353,16.8558824 C9.89463216,17.4382353 10.7966746,17.6 11.4732064,17.1470588 C12.4074647,16.5647059 13.5350178,16.2088235 14.7270024,16.2088235 C15.8223397,16.2088235 16.8532453,16.5 17.7552878,17.0176471 C18.4640354,17.4382353 19.3338621,17.3088235 19.8815307,16.6941176 L20.2359045,16.3058824 C20.9124363,15.5294118 20.7191415,14.2676471 19.8170991,13.7176471 Z M14.630355,22 C15.7156851,22 16.5955189,21.1164208 16.5955189,20.0264706 C16.5955189,18.9365204 15.7156851,18.0529412 14.630355,18.0529412 C13.545025,18.0529412 12.6651911,18.9365204 12.6651911,20.0264706 C12.6651911,21.1164208 13.545025,22 14.630355,22 Z" id="wifi" fill="#FFFFFF" sketch:type="MSShapeGroup"></path>
											    </g>
											</svg>
