<?xml version="1.0" encoding="UTF-8" standalone="no"?>
<svg width="28px" height="26px" viewBox="0 0 28 26" version="1.1" xmlns="http://www.w3.org/2000/svg" xmlns:xlink="http://www.w3.org/1999/xlink" xmlns:sketch="http://www.bohemiancoding.com/sketch/ns">
    <!-- Generator: Sketch 3.4.4 (17249) - http://www.bohemiancoding.com/sketch -->
    <title>Slice 1</title>
    <desc>Created with Sketch.</desc>
    <defs></defs>
    <g id="Page-1" stroke="none" stroke-width="1" fill="none" fill-rule="evenodd" sketch:type="MSPage">
        <path d="M21.4268632,0 L15.4275584,0 C11.3295096,0 9.47976919,2.91740823 9.44873934,5.83331016 L8.07950964,5.83331016 L8.07950964,7.01545699 C4.5755469,7.69931869 1.63042269,9.94250556 0,12.9966861 L20.6634687,12.9966861 C19.0336485,9.94250556 16.0879218,7.69931869 12.583959,7.01545699 L12.583959,5.83331016 L11.2192482,5.83331016 C11.2343113,5.18680478 11.4988181,1.7720152 15.4278597,1.7720152 L21.4271644,1.7720152 C23.8056174,1.7720152 25.3411429,3.62687709 25.3411429,6.49819244 L25.3411429,25.993071 L27.1134594,25.993071 L27.1134594,6.4984937 C27.1134594,2.61102614 24.8277948,0 21.4268632,0 Z M2.82793382,18.5573554 C2.82793382,19.7988506 3.83534946,20.8062662 5.07654338,20.8062662 C6.32044865,20.8062662 7.32756303,19.7988506 7.32756303,18.5573554 C7.32756303,17.3143539 5.07654338,13.7197117 5.07654338,13.7197117 C5.07654338,13.7197117 2.82793382,17.3143539 2.82793382,18.5573554 Z M7.65081572,23.7513904 C7.65081572,24.9925844 8.65823137,26 9.90002781,26 C11.1439331,26 12.1507462,24.9925844 12.1507462,23.7513904 C12.1507462,22.5080877 9.90002781,18.9137468 9.90002781,18.9137468 C9.90002781,18.9137468 7.65081572,22.5080877 7.65081572,23.7513904 Z M12.4736976,18.5573554 C12.4736976,19.7988506 13.480812,20.8062662 14.7226085,20.8062662 C15.9665137,20.8062662 16.9730256,19.7988506 16.9730256,18.5573554 C16.9730256,17.3143539 14.7226085,13.7197117 14.7226085,13.7197117 C14.7226085,13.7197117 12.4736976,17.3143539 12.4736976,18.5573554 Z" id="Shape" fill="#FFFFFF" sketch:type="MSShapeGroup"></path>
    </g>
</svg>