<?xml version="1.0" encoding="UTF-8" standalone="no"?>
											<svg width="32px" height="26px" viewBox="0 0 32 26" version="1.1" xmlns="http://www.w3.org/2000/svg" xmlns:xlink="http://www.w3.org/1999/xlink" xmlns:sketch="http://www.bohemiancoding.com/sketch/ns">
											    <g id="Page-1" stroke="none" stroke-width="1" fill="none" fill-rule="evenodd" sketch:type="MSPage">
											        <path d="M31.9750115,25.8491631 C31.2300403,25.1008794 30.4302866,21.8923688 29.8511049,18.9055035 C29.5548464,17.3879149 29.3086852,15.9241702 29.13785,14.8480284 L29.13785,8.34139007 C29.13785,8.14556028 28.9825125,7.98660993 28.790413,7.98660993 C28.5993948,7.98660993 28.4444177,8.14556028 28.4444177,8.34139007 L28.4444177,8.74374468 L25.1336752,10.4368794 C25.103761,10.4523688 25.08538,10.4829787 25.08538,10.5169078 C25.08538,10.5508369 25.103761,10.5803404 25.1336752,10.5958298 L28.4444177,12.2893333 L28.4444177,13.0361418 C25.4735435,12.8971064 22.5073547,10.9893333 20.2612685,9.07234043 C19.0938948,8.07733333 18.120783,7.08121986 17.4396047,6.33441135 C17.0990156,5.9604539 16.8319505,5.65029787 16.650303,5.43307801 L16.650303,0.35551773 C16.650303,0.15858156 16.4946051,0 16.3032264,0 C16.1122082,0 15.9565103,0.15858156 15.9565103,0.35551773 L15.9565103,0.808765957 L12.5881019,2.53251064 C12.5585481,2.54726241 12.5401671,2.57750355 12.5401671,2.61217021 C12.5401671,2.6453617 12.5585481,2.67560284 12.5881019,2.6910922 L15.9565103,4.41409929 L15.9565103,5.43234043 C15.7748628,5.64956028 15.5074372,5.96008511 15.1672085,6.33367376 C13.1770147,8.51988652 8.67655296,12.8259291 4.16311636,13.0346667 L4.16311636,8.34212766 C4.16311636,8.14556028 4.00705806,7.98660993 3.81603983,7.98660993 C3.62357994,7.98660993 3.46896329,8.14556028 3.46896329,8.34212766 L3.46896329,8.86913475 L0.0479347655,10.6198014 C0.0187414121,10.6352908 0,10.6647943 0,10.699461 C0,10.7326525 0.0187414121,10.7636312 0.0479347655,10.7791206 L3.46896329,12.5290496 L3.46896329,14.8472908 C3.2977677,15.922695 3.05160646,17.3879149 2.75498757,18.9055035 C2.17652668,21.8927376 1.37677296,25.1008794 0.632522657,25.8491631 C0.607293833,25.8735035 0.600085598,25.9125957 0.613420833,25.9457872 C0.627116481,25.9789787 0.659193128,26 0.693792658,26 L16.3035868,26 L16.3035868,18.1030071 C16.3035868,18.1030071 18.2025965,23.9236879 21.9952095,26 L31.913381,26 C31.9487014,26 31.9804176,25.9786099 31.9933925,25.9457872 C32.0067277,25.9125957 31.9995195,25.8735035 31.9750115,25.8491631 L31.9750115,25.8491631 Z" id="Tent" fill="#FFFFFF" sketch:type="MSShapeGroup"></path>
											    </g>
											</svg>
