<?xml version="1.0" encoding="UTF-8" standalone="no"?>
<svg width="17px" height="26px" viewBox="0 0 17 26" version="1.1" xmlns="http://www.w3.org/2000/svg" xmlns:xlink="http://www.w3.org/1999/xlink" xmlns:sketch="http://www.bohemiancoding.com/sketch/ns">
    <!-- Generator: Sketch 3.4.4 (17249) - http://www.bohemiancoding.com/sketch -->
    <title>Slice 1</title>
    <desc>Created with Sketch.</desc>
    <defs></defs>
    <g id="Page-1" stroke="none" stroke-width="1" fill="none" fill-rule="evenodd" sketch:type="MSPage">
        <path d="M13,14.625 L3.25,14.625 L3.25,17.875 L13,17.875 L13,14.625 L13,14.625 Z M13,9.75 L3.25,9.75 L3.25,13 L13,13 L13,9.75 L13,9.75 Z M11.375,1.625 L11.375,0 L4.875,0 L4.875,1.625 L0,1.625 L0,26 L16.25,26 L16.25,1.625 L11.375,1.625 L11.375,1.625 Z M14.625,24.375 L1.625,24.375 L1.625,3.25 L14.625,3.25 L14.625,24.375 L14.625,24.375 Z M13,19.5 L3.25,19.5 L3.25,22.75 L13,22.75 L13,19.5 L13,19.5 Z M13,4.875 L3.25,4.875 L3.25,8.125 L13,8.125 L13,4.875 L13,4.875 Z" id="Shape" fill="#FFFFFF" sketch:type="MSShapeGroup"></path>
    </g>
</svg>