<?xml version="1.0" encoding="UTF-8" standalone="no"?>
<svg width="28px" height="28px" viewBox="0 0 28 28" version="1.1" xmlns="http://www.w3.org/2000/svg" xmlns:xlink="http://www.w3.org/1999/xlink" xmlns:sketch="http://www.bohemiancoding.com/sketch/ns">
    <!-- Generator: Sketch 3.4.4 (17249) - http://www.bohemiancoding.com/sketch -->
    <title>Slice 1</title>
    <desc>Created with Sketch.</desc>
    <defs></defs>
    <g id="Page-1" stroke="none" stroke-width="1" fill="none" fill-rule="evenodd" sketch:type="MSPage">
        <path d="M25.9538526,16.7680597 C26.82013,15.9007463 27.2538248,14.7554478 27.2527127,13.6212687 C27.2538248,12.4870896 26.82013,11.341791 25.9538526,10.4744776 L16.7717564,1.30097015 C15.906591,0.433656716 14.76008,0 13.6258014,0 C12.4926349,0 11.3461239,0.433656716 10.4809585,1.30097015 L1.29886229,10.4744776 C0.432584841,11.341791 -0.00110990474,12.4870896 2.1330695e-06,13.6212687 C-0.00110990474,14.7554478 0.432584841,15.9007463 1.29886229,16.7680597 L10.4809585,25.9526866 C11.3461239,26.82 12.4926349,27.2536567 13.6258014,27.2536567 C14.76008,27.2536567 15.906591,26.82 16.7717564,25.9526866 L25.9538526,16.7680597 Z M10.0788574,8.01391602 L10.0788574,19.3413608 L12.9597807,19.3413608 L12.9597807,16.0208416 L14.8673129,16.0208416 C17.3871395,16.0208416 19.1219734,14.4430063 19.1219734,12.0330787 C19.1219734,9.59960128 17.4734887,8.01391602 15.0400113,8.01391602 L10.0788574,8.01391602 Z M12.9597807,10.2275954 L14.2785684,10.2275954 C15.4953071,10.2275954 16.2096505,10.8477397 16.2096505,12.0409286 C16.2096505,13.2184177 15.4874572,13.8464118 14.2628685,13.8464118 L12.9597807,13.8464118 L12.9597807,10.2275954 Z" id="Parking" fill="#FFFFFF" sketch:type="MSShapeGroup"></path>
    </g>
</svg>