<?xml version="1.0" encoding="UTF-8" standalone="no"?>
<svg width="18px" height="18px" viewBox="0 0 18 18" version="1.1" xmlns="http://www.w3.org/2000/svg" xmlns:xlink="http://www.w3.org/1999/xlink" xmlns:sketch="http://www.bohemiancoding.com/sketch/ns">
    <!-- Generator: Sketch 3.4.4 (17249) - http://www.bohemiancoding.com/sketch -->
    <title>Slice 1</title>
    <desc>Created with Sketch.</desc>
    <defs></defs>
    <g id="Page-1" stroke="none" stroke-width="1" fill="none" fill-rule="evenodd" sketch:type="MSPage">
        <path d="M9,17 L9,17 C13.418278,17 17,13.418278 17,9 C17,4.581722 13.418278,1 9,1 C4.581722,1 1,4.581722 1,9 C1,13.418278 4.581722,17 9,17 L9,17 Z M9,18 L9,18 C4.02943725,18 0,13.9705627 0,9 C0,4.02943725 4.02943725,0 9,0 C13.9705627,0 18,4.02943725 18,9 C18,13.9705627 13.9705627,18 9,18 L9,18 Z M8.85449219,6.2224903 C9.44926343,6.2224903 9.85449219,5.84340533 9.85449219,5.32706546 C9.85449219,4.81072559 9.44926343,4.43164062 8.85449219,4.43164062 C8.26625689,4.43164062 7.85449219,4.81072559 7.85449219,5.32706546 C7.85449219,5.84340533 8.26625689,6.2224903 8.85449219,6.2224903 Z M8.05057062,13.4486341 L9.6649497,13.4486341 L9.6649497,7.38588899 L8.05057062,7.38588899 L8.05057062,13.4486341 Z" id="Shape" fill="#5ECC6B" sketch:type="MSShapeGroup"></path>
    </g>
</svg>