<?xml version="1.0" encoding="UTF-8" standalone="no"?>
<svg width="62px" height="38px" viewBox="0 0 62 38" version="1.1" xmlns="http://www.w3.org/2000/svg" xmlns:xlink="http://www.w3.org/1999/xlink" xmlns:sketch="http://www.bohemiancoding.com/sketch/ns">
												    <g id="Page-1" stroke="none" stroke-width="1" fill="none" fill-rule="evenodd" sketch:type="MSPage">
												        <g id="MasterCard_logo" sketch:type="MSLayerGroup" transform="translate(1.000000, 1.000000)">
												            <path d="M35.1016374,12.3688856 C32.7377775,5.18571098 25.9744826,0 18,0 C8.0588745,0 0,8.0588745 0,18 C0,27.9411255 8.0588745,36 18,36 L18,36 C25.5800895,36 32.0658319,31.3145431 34.7190127,24.6818438" id="Oval-117" stroke="#FFFFFF" stroke-width="2" stroke-linecap="round" sketch:type="MSShapeGroup"></path>
												            <path d="M25.1762762,24.4138412 L25.1762762,24.4138412 C27.7603365,31.1879773 34.3182142,36 42,36 C51.9411255,36 60,27.9411255 60,18 C60,8.0588745 51.9411255,0 42,0 C33.9781958,0 27.1819966,5.24743897 24.8567457,12.4969737" id="Oval-117" stroke="#FFFFFF" stroke-width="2" stroke-linecap="round" sketch:type="MSShapeGroup"></path>
												            <path d="M21.7364706,17.1443934 L21.6517647,17.1383232 L21.5670588,17.1261827 L21.4884034,17.1140422 L21.4097479,17.1019016 L21.3371429,17.0897611 L21.1798319,17.0654801 L21.0951261,17.0533396 L21.0104202,17.0411991 L20.9136134,17.0351288 L20.8047059,17.0290585 L20.6897479,17.0229883 L20.5626891,17.0229883 L20.4235294,17.0290585 L20.2662185,17.0411991 L20.0907563,17.0533396 L19.9697479,17.0715504 L19.8547899,17.0897611 L19.7519328,17.1261827 L19.6611765,17.1626042 L19.5764706,17.205096 L19.4978151,17.2536581 L19.3828571,17.368993 L19.3465546,17.4357658 L19.3163025,17.5025386 L19.3042017,17.5753817 L19.3042017,17.6482248 L19.3223529,17.7271382 L19.3465546,17.8060515 L19.394958,17.8849649 L19.4554622,17.9638782 L19.5764706,18.0792131 L19.7216807,18.170267 L19.8910924,18.2491803 L20.072605,18.3159532 L20.2662185,18.3766557 L20.4658824,18.4434286 L20.6655462,18.5162717 L20.8591597,18.595185 L21.0406723,18.6983794 L21.210084,18.8258548 L21.3613445,18.9776112 L21.4884034,19.1657892 L21.5852101,19.396459 L21.6457143,19.6696206 L21.669916,19.9974145 L21.6457143,20.3798407 L21.6033613,20.6651429 L21.5307563,20.9140234 L21.4339496,21.1446932 L21.3129412,21.3450117 L21.1737815,21.5210492 L21.0164706,21.6728056 L20.8470588,21.8063513 L20.6594958,21.9216862 L20.4658824,22.0126557 L20.2662185,22.0916534 L20.0605042,22.152356 L19.8487395,22.2008337 L19.6430252,22.2373396 L19.4433613,22.2555504 L19.2436975,22.2676909 L19.0561345,22.2737611 L18.7959664,22.2737611 L18.5539496,22.2676909 L18.3421849,22.2676909 L18.142521,22.2615363 L17.9610084,22.2555504 L17.7976471,22.2434098 L17.652437,22.2312693 L17.5132773,22.2130585 L17.3862185,22.2008337 L17.2712605,22.176637 L17.1563025,22.1584262 L17.0534454,22.1280749 L16.9505882,22.1037939 L16.7569748,22.0309508 L16.6541176,21.9945293 L16.9263866,20.6530023 L16.9808403,20.6651429 L17.047395,20.6832693 L17.1321008,20.7076347 L17.234958,20.7319157 L17.3438655,20.7561967 L17.4648739,20.7804778 L17.5979832,20.8107447 L17.7431933,20.8351101 L17.8944538,20.8593911 L18.0517647,20.8836721 L18.2151261,20.9018829 L18.3845378,20.9200937 L18.56,20.9261639 L18.7354622,20.9322342 L18.9109244,20.9322342 L19.0863866,20.9261639 L19.2618487,20.8897424 L19.4010084,20.8411803 L19.509916,20.7744075 L19.5946218,20.6894239 L19.6551261,20.6044403 L19.7035294,20.5073162 L19.7337815,20.410192 L19.7579832,20.3191382 L19.770084,20.1431007 L19.7156303,19.9913443 L19.6127731,19.8699391 L19.4615126,19.7667447 L19.28,19.6756909 L19.0682353,19.584637 L18.8322689,19.4996534 L18.5963025,19.4025293 L18.3542857,19.2932646 L18.1243697,19.1657892 L17.912605,19.0079625 L17.7189916,18.8197845 L17.5677311,18.5891148 L17.4588235,18.3159532 L17.4043697,17.9881593 L17.4104202,17.5996628 L17.4406723,17.3629227 L17.4830252,17.1383232 L17.5435294,16.9319344 L17.6161345,16.7376862 L17.7129412,16.5555785 L17.8218487,16.3977518 L17.9489076,16.2459953 L18.1001681,16.1124496 L18.2756303,15.9971148 L18.4692437,15.8999906 L18.6870588,15.8089368 L18.9290756,15.7421639 L19.2013445,15.6875316 L19.4978151,15.6450398 L19.8245378,15.6207588 L20.1815126,15.6146885 L20.4053782,15.6146885 L20.6110924,15.6207588 L20.7986555,15.626829 L20.9680672,15.6328993 L21.1193277,15.6450398 L21.2584874,15.6571803 L21.3794958,15.6693208 L21.4884034,15.6814614 L21.5912605,15.6936019 L21.6759664,15.7118126 L21.7546218,15.7239532 L21.8272269,15.7360937 L21.8877311,15.7482342 L21.9422689,15.7543044 L21.9966387,15.766445 L22.045042,15.7725152 L21.7364706,17.1443934 Z M23.1704202,14.2731616 L24.8463866,14.2731616 L24.5983193,15.7421639 L25.6087395,15.7421639 L25.3909244,17.1140422 L24.3260504,17.0836909 L23.7452101,20.4708946 L23.7391597,20.5922998 L23.7694118,20.6954941 L23.83,20.7744075 L23.9085714,20.8411803 L24.017479,20.8836721 L24.1384874,20.9200937 L24.2715966,20.9443747 L24.4168067,20.9565152 L24.549916,20.950445 L24.6709244,20.9383044 L24.7798319,20.9200937 L24.8766387,20.8958126 L24.9552941,20.8715316 L25.0460504,20.8411803 L25.0581513,20.8351101 L24.8463866,21.964178 L24.8040336,21.9945293 L24.7616807,22.0188103 L24.7194118,22.0430913 L24.6769748,22.0673724 L24.6346218,22.0855831 L24.5863025,22.1037939 L24.5317647,22.1220047 L24.4773109,22.1402155 L24.4168067,22.1584262 L24.3563025,22.1705667 L24.2836975,22.1827073 L24.2111765,22.1948478 L24.132437,22.2069883 L24.0416807,22.2191288 L23.9448739,22.2312693 L23.8420168,22.2434098 L23.3821849,22.2434098 L23.1401681,22.2251991 L22.9284034,22.2008337 L22.7347899,22.1644965 L22.5715126,22.1220047 L22.4322689,22.0673724 L22.317395,22.0066698 L22.2144538,21.9338267 L22.1357983,21.8549133 L22.0753782,21.7699297 L22.0329412,21.6667354 L22.0026891,21.563541 L21.9845378,21.4482061 L21.9784874,21.3207307 L21.9784874,21.187185 L21.9966387,21.0475691 L22.0147899,20.8958126 L23.1704202,14.2731616 Z M26.9277311,19.5057237 L26.9216807,19.6149883 L26.9337815,19.7303232 L26.9579832,19.8456581 L27.0003361,19.960993 L27.0487395,20.0702576 L27.1152941,20.1855925 L27.1878992,20.2887869 L27.272605,20.3919813 L27.3633613,20.4830351 L27.4601681,20.574089 L27.5690756,20.6469321 L27.6779832,20.7137049 L27.7989916,20.7683372 L27.92,20.8107447 L28.0410084,20.8351101 L28.1983193,20.8593911 L28.3495798,20.8776019 L28.5068908,20.8958126 L28.6642017,20.9079532 L28.8215126,20.9140234 L28.9848739,20.9140234 L29.1421849,20.9079532 L29.3055462,20.8958126 L29.4689076,20.8715316 L29.6322689,20.8411803 L29.8016807,20.8047588 L29.965042,20.7501265 L30.1344538,20.6832693 L30.309916,20.6105105 L30.4793277,20.5133864 L30.6547899,20.410192 L30.4127731,21.9034754 L30.2191597,22.0005995 L30.1223529,22.0370211 L30.0315966,22.0733583 L29.9408403,22.1037939 L29.8440336,22.1341452 L29.7473109,22.1584262 L29.6443697,22.176637 L29.5354622,22.1948478 L29.4144538,22.2069883 L29.287395,22.2191288 L29.1482353,22.2312693 L28.9910084,22.2373396 L28.827563,22.2373396 L28.64,22.2434098 L28.4403361,22.2434098 L28.1438655,22.2373396 L27.8413445,22.2069883 L27.5388235,22.1644965 L27.2363025,22.0916534 L26.9398319,22.0005995 L26.6554622,21.8851803 L26.3831933,21.7335082 L26.1290756,21.5574707 L25.8931092,21.351082 L25.687395,21.1022014 L25.5119328,20.8229696 L25.3667227,20.5012459 L25.2638655,20.1431007 L25.1973109,19.7363934 L25.1791597,19.2871944 L25.2094958,18.7894333 L25.2336134,18.595185 L25.269916,18.3705855 L25.3183193,18.1338454 L25.3848739,17.8788946 L25.4756303,17.6178735 L25.5845378,17.3568525 L25.7237815,17.0897611 L25.8931092,16.8348103 L26.0867227,16.592 L26.3226891,16.3613302 L26.5889076,16.1549415 L26.8914286,15.9728337 L27.2423529,15.8210773 L27.6356303,15.7118126 L28.0712605,15.6389696 L28.5613445,15.6146885 L28.7973109,15.6207588 L29.0453782,15.6450398 L29.2934454,15.6875316 L29.5415126,15.7482342 L29.7835294,15.8392881 L30.0194958,15.9485527 L30.2373109,16.0942389 L30.4369748,16.2642061 L30.6184874,16.4705948 L30.7697479,16.7134052 L30.8907563,16.992637 L30.9754622,17.3143607 L31.0238655,17.6785761 L31.029916,18.0913536 L30.987563,18.5526932 L30.8968067,19.0625948 L30.8665546,19.4328806 L26.9458823,19.4025292 L27.2242017,18.2066884 L29.3842017,18.2370398 L29.3963025,18.0852834 L29.3902521,17.9395972 L29.3781513,17.8060515 L29.3539496,17.6846464 L29.3115966,17.5693115 L29.2692437,17.4661171 L29.2087395,17.3750632 L29.1482353,17.2900796 L29.0756303,17.2172365 L28.9969748,17.156534 L28.9062185,17.1019016 L28.8154622,17.0533396 L28.7186555,17.016918 L28.6218487,16.992637 L28.5189916,16.9744262 L28.410084,16.9622857 L28.2951261,16.968356 L28.1862185,16.9865667 L28.0833613,17.0108478 L27.9805042,17.0472693 L27.8776471,17.0958314 L27.7868908,17.1504637 L27.6961345,17.2172365 L27.617479,17.2900796 L27.5388235,17.3750632 L27.4662185,17.4661171 L27.3996639,17.5632412 L27.3452101,17.6664356 L27.2907563,17.7757002 L27.2484034,17.8971054 L27.2121008,18.0185105 L27.1878992,18.1459859 C27.1878992,18.1459859 27.1198193,18.4994543 27.0857794,18.6761885 C27.039147,18.9183021 26.9458824,19.4025293 26.9458824,19.4025293 L26.9277311,19.5057237 Z M41.3761345,16.1063794 L41.297479,16.0638876 L41.2188235,16.027466 L41.1341176,15.9849742 L41.0433613,15.9424824 L40.952605,15.9060609 L40.7468908,15.8332178 L40.6379832,15.7967963 L40.5230252,15.766445 L40.4080672,15.7421639 L40.2810084,15.7178829 L40.1539496,15.6996721 L40.0147899,15.6875316 L39.8756303,15.6753911 L39.4278992,15.6753911 L39.2705882,15.6875316 L39.1072269,15.7057424 L38.9378151,15.7360937 L38.7684034,15.7846557 L38.5989916,15.8514286 L38.4295798,15.9364122 L38.2601681,16.0456768 L38.0968067,16.1792225 L37.9394958,16.3370492 L37.7882353,16.5312974 L37.6430252,16.755897 L37.509916,17.0229883 L37.3828571,17.3265012 L37.2678992,17.6664356 L37.1710924,18.0549321 L37.1347899,18.2734614 L37.1105882,18.4859204 L37.0984874,18.6983794 L37.1045378,18.9047681 L37.1226891,19.1111569 L37.165042,19.3054052 L37.2194958,19.4875129 L37.2860504,19.6696206 L37.3768067,19.8335176 L37.4857143,19.9913443 L37.6127731,20.1309602 L37.7579832,20.2584356 L37.9213445,20.3676159 L38.1089076,20.4587541 L38.3146218,20.5376674 L38.5445378,20.5922998 L38.6231933,20.6105105 L38.7139496,20.6287213 L38.8228571,20.6408618 L38.9438655,20.6530023 L39.0769748,20.6651429 L39.367395,20.6651429 L39.5186555,20.6530023 L39.6759664,20.6347916 L39.8332773,20.6044403 L39.9845378,20.5619485 L40.1357983,20.5133864 L40.2870588,20.4466136 L40.4262185,20.3676159 L40.5532773,20.2705761 L40.6742857,20.1613115 L40.4020168,21.7820703 L40.3657143,21.8124215 L40.3294118,21.8488431 L40.2810084,21.8913349 L40.2265546,21.9277564 L40.16,21.9763185 L40.0752941,22.0188103 L39.9784874,22.0613021 L39.8695798,22.0977237 L39.7304202,22.1402155 L39.5731092,22.1705667 L39.3915966,22.1948478 L39.1798319,22.2191288 L38.9438655,22.2312693 L38.6715966,22.2373396 L38.3630252,22.2312693 L38.0242017,22.2130585 L37.7458824,22.1827073 L37.467563,22.1220047 L37.1892437,22.0309508 L36.9109244,21.9095457 L36.6447059,21.7638595 L36.3905882,21.5817518 L36.1485714,21.3692927 L35.9247059,21.1263981 L35.725042,20.8533208 L35.5556303,20.549808 L35.4104202,20.2098735 L35.3015126,19.8395878 L35.2289076,19.4328806 L35.2047059,19.0018923 L35.2168067,18.5284122 L35.2833613,18.0245808 L35.3317647,17.7757002 L35.3862185,17.5328899 L35.4467227,17.2961499 L35.5072269,17.0715504 L35.5737815,16.8590913 L35.652437,16.6466323 L35.7310924,16.4463138 L35.8157983,16.2581358 L35.9065546,16.0699578 L35.9973109,15.8939204 L36.1001681,15.7239532 L36.2090756,15.5661265 L36.3179832,15.41437 L36.4389916,15.2686838 L36.56,15.1351382 L36.6870588,15.0076628 L36.8262185,14.8862576 L36.9653782,14.7709227 L37.1105882,14.6677283 L37.2618487,14.5706042 L37.4252101,14.4795504 L37.5885714,14.400637 L37.7579832,14.3277939 L37.9334454,14.2610211 L38.1210084,14.2003185 L38.3085714,14.1517564 L38.5021849,14.1092646 L38.7078992,14.0728431 L38.9136134,14.0424075 L39.1314286,14.0182108 L39.3492437,14.0060703 L39.5791597,14 L39.7727731,14.0060703 L39.9603361,14.0182108 L40.1418487,14.0363372 L40.3233613,14.0607026 L40.4927731,14.0849836 L40.6561345,14.1214052 L40.8134454,14.1517564 L40.9586555,14.188178 L41.0978151,14.2245995 L41.2188235,14.2610211 L41.3337815,14.2974426 L41.4305882,14.3338642 L41.5152941,14.3642155 L41.5878992,14.3884965 L41.6423529,14.4127775 L41.6786555,14.424918 L41.3761345,16.1063794 Z M56.2722689,22.2434098 L54.5963025,22.2434098 L54.717395,21.5695269 L54.717395,21.5089087 L54.6205042,21.6302295 L54.5176471,21.7395785 L54.4147899,21.8367026 L54.3058824,21.9216862 L54.1969748,22.0005995 L54.0880672,22.0673724 L53.9791597,22.1220047 L53.8642017,22.176637 L53.7492437,22.2191288 L53.6342857,22.2494801 L53.5193277,22.2798314 L53.3983193,22.2980422 L53.2773109,22.3162529 L53.1623529,22.3283091 L53.0413445,22.3344637 L52.9203361,22.3344637 L52.6057143,22.3101827 L52.3152941,22.2434098 L52.0490756,22.1402155 L51.8070588,22.0005995 L51.5892437,21.8245621 L51.3956303,21.6181733 L51.2262185,21.3935738 L51.0810084,21.138623 L50.96,20.8654614 L50.8631933,20.5801593 L50.7966387,20.2827166 L50.7482353,19.9731335 L50.730084,19.6635504 L50.7361345,19.347897 L50.7663866,19.0383138 L50.8208403,18.7287307 L50.9115966,18.3705855 L51.0205042,18.0306511 L51.147563,17.7210679 L51.2988235,17.4296956 L51.4561345,17.156534 L51.6376471,16.9137237 L51.8252101,16.6951944 L52.0248739,16.4948759 L52.2366387,16.3188384 L52.4605042,16.167082 L52.6905042,16.0335363 L52.9203361,15.9303419 L53.1623529,15.8453583 L53.4043697,15.790726 L53.6463866,15.7543044 L53.8944538,15.7421639 L54.069916,15.7482342 L54.2393277,15.766445 L54.3966387,15.7967963 L54.5418487,15.8392881 L54.6810084,15.8878501 L54.8020168,15.9424824 L54.9230252,16.0092553 L55.0319328,16.0760281 L55.1287395,16.1488712 L55.2195798,16.2277845 L55.2981513,16.3066979 L55.3707563,16.3856112 L55.4312605,16.4645246 L55.4857143,16.5434379 L55.5341176,16.616281 L55.5704202,16.6891241 L55.9939496,14.3035129 L57.6396639,14.3035129 L56.2722689,22.2434098 Z M53.5314286,20.7744075 L53.7009244,20.762267 L53.8581513,20.7258454 L54.0033613,20.6832693 L54.142521,20.6165808 L54.2695798,20.5437377 L54.3905882,20.4526838 L54.5055462,20.3494895 L54.6084034,20.2402248 L54.6991597,20.1188197 L54.7838655,19.985274 L54.862521,19.8456581 L54.9290756,19.6999719 L54.9895798,19.5482155 L55.0379832,19.3903888 L55.0803361,19.2264918 L55.1105882,19.0625948 L55.1408403,18.8926276 L55.1589916,18.7165902 L55.1589916,18.5526932 L55.1529412,18.382726 L55.1347899,18.2248993 L55.1105882,18.0731429 L55.0682353,17.9274567 L55.0198319,17.7878407 L54.9594118,17.6664356 L54.8867227,17.5511007 L54.8080672,17.4539766 L54.717395,17.368993 L54.6144538,17.2961499 L54.5055462,17.2475878 L54.3905882,17.2172365 L54.2635294,17.205096 L54.1001681,17.2172365 L53.9489916,17.2415176 L53.8097479,17.2900796 L53.6705882,17.3507822 L53.5495798,17.4296956 L53.4285714,17.5268197 L53.3257143,17.6300141 L53.2228571,17.7453489 L53.1321008,17.8788946 L53.047395,18.0185105 L52.9687395,18.1641967 L52.9021849,18.3220234 L52.8416807,18.4859204 L52.7932773,18.6498173 L52.7448739,18.8258548 L52.7086555,19.0018923 L52.6783193,19.2689836 L52.6905042,19.560356 L52.7327731,19.8577986 L52.8114286,20.1431007 L52.932437,20.3919813 L53.0897479,20.5922998 L53.2894118,20.7258454 L53.5314286,20.7744075 Z M16.3757983,20.8958126 L16.1337815,22.2434098 L14.6090756,22.2434098 L14.6514286,21.9945293 L14.6816807,21.7699297 L14.7058824,21.5999625 L14.730084,21.5089087 L14.6453782,21.6060328 L14.5485714,21.7031569 L14.4336975,21.7942108 L14.3066387,21.8791944 L14.1613445,21.964178 L14.010084,22.0370211 L13.8527731,22.1098642 L13.6894118,22.1705667 L13.5139496,22.2251991 L13.3384874,22.2676909 L13.1630252,22.3041124 L12.9815126,22.3283091 L12.8060504,22.340534 L12.6305882,22.3466042 L12.4611765,22.3283091 L12.2978151,22.3041124 L12.0860504,22.2494801 L11.892437,22.1887775 L11.7231092,22.1098642 L11.5717647,22.0188103 L11.4386555,21.9216862 L11.3176471,21.8124215 L11.2209244,21.6970867 L11.1361345,21.5756815 L11.0635294,21.4482061 L11.0030252,21.3145761 L10.9546218,21.1811148 L10.9183193,21.0475691 L10.8941176,20.9079532 L10.8759664,20.7683372 L10.8638655,20.6347916 L10.8638655,20.5012459 L10.8820168,20.2645059 L10.9183193,20.0399063 L10.9788235,19.8274473 L11.057479,19.6210585 L11.1542857,19.4268103 L11.2631933,19.2507728 L11.3902521,19.0808056 L11.5355462,18.9290492 L11.6867227,18.7894333 L11.8562185,18.6619578 L12.0315966,18.546623 L12.2131092,18.4494988 L12.4067227,18.3645152 L12.6064706,18.2977424 L12.8121008,18.2431101 L13.0238655,18.2066885 L13.0359664,18.2066885 L13.0662185,18.2006183 L13.1086555,18.194548 L13.1752101,18.1884778 L13.2477311,18.1763372 L13.332437,18.170267 L13.4231933,18.1581265 L13.7317647,18.1217049 L13.8406723,18.1156347 L13.937479,18.1034941 L14.0342857,18.0974239 L14.125042,18.0913536 L14.2097479,18.0852834 L14.4154622,18.0852834 L14.5607563,18.0913536 L14.6937815,18.0974239 L14.8268908,18.0974239 L14.9357983,18.1034941 L15.0205042,18.1095644 L15.0810084,18.1156347 L15.0991597,18.1156347 L15.1112605,18.0731429 L15.147563,17.9638782 L15.1778151,17.8364028 L15.19,17.7210679 L15.1657143,17.5875222 L15.1112605,17.4661171 L15.0386555,17.3568525 L14.9418487,17.2657986 L14.8268908,17.1868852 L14.6998319,17.1322529 L14.5546218,17.0958314 L14.3973109,17.0836909 L14.2278992,17.0776206 L14.0463866,17.0715504 L13.8588235,17.0715504 L13.6652101,17.0776206 L13.4655462,17.0897611 L13.0783193,17.1261827 L12.8907563,17.1504637 L12.7092437,17.1747447 L12.5337815,17.205096 L12.3764706,17.2354473 L12.2313445,17.2657986 L12.0981513,17.3022201 L11.9892437,17.3386417 L11.9045378,17.3811335 L11.8379832,17.417555 L12.267563,15.954623 L12.4006723,15.8999906 L12.5337815,15.8514286 L12.6789916,15.8089368 L12.9694118,15.7482342 L13.1267227,15.7239532 L13.2840336,15.6996721 L13.447395,15.6875316 L13.6168908,15.6753911 L13.7922689,15.6693208 L13.9737815,15.6632506 L14.5546218,15.6632506 L14.7663866,15.6693208 L14.9781513,15.6753911 L15.147563,15.6875316 L15.3290756,15.7178829 L15.5166387,15.7603747 L15.7102521,15.815007 L15.8978151,15.8878501 L16.0793277,15.9728337 L16.2608403,16.0760281 L16.4302521,16.191363 L16.5815126,16.3249087 L16.7146218,16.4705948 L16.8356303,16.6344918 L16.9263866,16.8165995 L16.9868908,17.0108478 L17.0231933,17.2172365 L17.0231933,17.4479063 L16.9868908,17.6907166 L16.3757983,20.8958126 Z M14.9176471,19.3114754 L14.9115966,19.2811241 L14.887395,19.2507728 L14.8510924,19.2325621 L14.7905882,19.2204215 L14.7240336,19.208281 L14.6453782,19.2022108 L14.4638655,19.2022108 L14.3670588,19.208281 L14.2642017,19.2204215 L14.167395,19.2325621 L14.0705882,19.2447026 L13.9798319,19.2568431 L13.8951261,19.2750539 L13.822521,19.2932646 L13.7559664,19.3114754 L13.7136134,19.3236159 L13.6652101,19.3418267 L13.5986555,19.3661077 L13.5321008,19.396459 L13.4534454,19.4328806 L13.3747899,19.4753724 L13.290084,19.5178642 L13.2114286,19.5664262 L13.1267227,19.6271288 L13.0481513,19.6878314 L12.9754622,19.7606745 L12.9089076,19.8335176 L12.8484034,19.9124309 L12.8060504,19.9974145 L12.7697479,20.0945386 L12.7515966,20.1916628 L12.7455462,20.3980515 L12.7757983,20.5619485 L12.8363025,20.6832693 L12.914958,20.7744075 L13.0057143,20.8351101 L13.1086555,20.8715316 L13.2053782,20.8897424 L13.3022689,20.8958126 L13.4836975,20.8897424 L13.6470588,20.8715316 L13.8044538,20.8472506 L13.9435294,20.8107447 L14.0645378,20.7683372 L14.1794958,20.7137049 L14.2823529,20.6590726 L14.3731092,20.5922998 L14.4517647,20.5315972 L14.5243697,20.4587541 L14.5848739,20.3919813 L14.6332773,20.3191382 L14.6756303,20.2462951 L14.7119328,20.173452 L14.7421849,20.1066792 L14.7603361,20.0399063 L14.8087395,19.8638689 L14.8510924,19.6635504 L14.887395,19.4693021 L14.9176471,19.3114754 Z M3.64571429,22.2434098 L2,22.2434098 L3.37344538,14.2731616 L6.23529412,14.2731616 L6.50756303,19.0018923 L8.48605042,14.2731616 L11.475042,14.2731616 L10.0712605,22.2434098 L8.42554622,22.2434098 L9.46621849,16.2884871 L9.39966387,16.2884871 L6.93714286,22.2434098 L5.07966387,22.2434098 L5.06756303,21.9945293 L5.02521008,21.3328712 L4.9707563,20.3919813 L4.8497479,18.2248993 L4.79529412,17.2718689 L4.75294118,16.5798595 L4.74084034,16.2884871 L4.65008403,16.2884871 L3.64571429,22.2434098 Z M46.1560504,22.2434098 L44.637395,22.2434098 L44.6494958,21.9945293 L44.6555462,21.776 L44.6555462,21.612103 L44.667563,21.53926 L44.5889076,21.6302295 L44.4981513,21.7213677 L44.3893277,21.8063513 L44.2682353,21.8913349 L44.1412605,21.9702482 L43.9959664,22.0430913 L43.8447059,22.1159344 L43.6934454,22.176637 L43.530084,22.2251991 L43.3607563,22.2737611 L43.1912605,22.3041124 L43.0218487,22.3283091 L42.8463866,22.340534 L42.6769748,22.3466042 L42.5136134,22.3283091 L42.3502521,22.3041124 L42.132437,22.2494801 L41.9388235,22.1887775 L41.7694118,22.1098642 L41.6121008,22.0188103 L41.4789916,21.9216862 L41.3640336,21.8124215 L41.2672269,21.6970867 L41.182521,21.5756815 L41.109916,21.4482061 L41.0554622,21.3145761 L41.0070588,21.1811148 L40.9768067,21.0475691 L40.952605,20.9079532 L40.9344538,20.7683372 L40.9223529,20.6347916 L40.9223529,20.5012459 L40.9344538,20.2645059 L40.9707563,20.0399063 L41.0252101,19.8274473 L41.1038655,19.6210585 L41.1946218,19.4268103 L41.3095798,19.2507728 L41.4366387,19.0808056 L41.5757983,18.9290492 L41.7331092,18.7894333 L41.8964706,18.6619578 L42.0719328,18.546623 L42.2594958,18.4494988 L42.4470588,18.3645152 L42.6467227,18.2977424 L42.8463866,18.2431101 L43.0521008,18.2066885 L43.0944538,18.2006183 L43.1368067,18.194548 L43.1973109,18.1884778 L43.2759664,18.1763372 L43.3607563,18.170267 L43.4514286,18.1581265 L43.5482353,18.1459859 L43.6511765,18.1338454 L43.76,18.1217049 L43.8628571,18.1156347 L43.9657143,18.1034941 L44.062521,18.0974239 L44.1473109,18.0913536 L44.2319328,18.0852834 L44.4436975,18.0852834 L44.5889076,18.0913536 L44.7280672,18.0974239 L44.8611765,18.0974239 L44.9761345,18.1034941 L45.0729412,18.1095644 L45.127479,18.1156347 L45.1516807,18.1156347 L45.1636975,18.0731429 L45.1818487,17.9638782 L45.2,17.8364028 L45.2121008,17.7210679 L45.1878992,17.5875222 L45.1395798,17.4661171 L45.0608403,17.3568525 L44.970084,17.2657986 L44.8611765,17.1868852 L44.7341176,17.1322529 L44.6010084,17.0958314 L44.4557983,17.0836909 L44.2863866,17.0776206 L44.1048739,17.0715504 L43.9173109,17.0715504 L43.7236975,17.0776206 L43.5240336,17.0897611 L43.1368067,17.1261827 L42.9492437,17.1504637 L42.7677311,17.1747447 L42.5922689,17.205096 L42.434958,17.2354473 L42.2897479,17.2657986 L42.1566387,17.3022201 L42.0477311,17.3386417 L41.9630252,17.3811335 L41.8964706,17.417555 L42.32,15.954623 L42.4531092,15.8999906 L42.5922689,15.8514286 L42.7314286,15.8089368 L42.8766387,15.7785855 L43.0278992,15.7482342 L43.1791597,15.7239532 L43.3364706,15.6996721 L43.4998319,15.6875316 L43.6692437,15.6753911 L43.8447059,15.6693208 L44.0201681,15.6632506 L44.5889076,15.6632506 L44.7946218,15.6693208 L45.0003361,15.6753911 L45.1697479,15.6875316 L45.3512605,15.7178829 L45.5388235,15.7603747 L45.732437,15.815007 L45.92,15.8878501 L46.107563,15.9728337 L46.2890756,16.0760281 L46.4584874,16.191363 L46.6097479,16.3249087 L46.7489076,16.4705948 L46.869916,16.6344918 L46.9606723,16.8165995 L47.0272269,17.0108478 L47.0695798,17.2172365 L47.0695798,17.4479063 L47.0393277,17.6907166 L46.4041176,20.8958126 L46.1560504,22.2434098 Z M44.9398319,19.3114754 L44.9277311,19.2750539 L44.9036134,19.2447026 L44.8611765,19.2264918 L44.8006723,19.208281 L44.7341176,19.2022108 L44.6555462,19.1961405 L44.5647059,19.1961405 L44.4739496,19.2022108 L44.3772269,19.2143513 L44.2803361,19.2264918 L44.1835294,19.2386323 L44.0927731,19.2507728 L44.0020168,19.2689836 L43.9233613,19.2811241 L43.8447059,19.2993349 L43.7842017,19.3114754 L43.7418487,19.3175457 L43.6934454,19.3357564 L43.6330252,19.3539672 L43.5663866,19.3782482 L43.4877311,19.4146698 L43.3304202,19.4935831 L43.1731092,19.6028478 L43.0944538,19.6696206 L43.0278992,19.7363934 L42.9613445,19.8153068 L42.9068908,19.9002904 L42.8645378,19.9913443 L42.8282353,20.0884684 L42.810084,20.1916628 L42.8040336,20.3980515 L42.8342857,20.5619485 L42.8826891,20.6832693 L42.9552941,20.7744075 L43.0460504,20.8351101 L43.1489076,20.8715316 L43.2517647,20.8897424 L43.3546218,20.8958126 L43.5361345,20.8897424 L43.7055462,20.8715316 L43.8628571,20.8411803 L44.0020168,20.7986885 L44.1352101,20.7501265 L44.250084,20.6954941 L44.3589916,20.6347916 L44.4557983,20.5619485 L44.5405042,20.4950913 L44.6131092,20.4162623 L44.6796639,20.3434192 L44.7341176,20.2645059 L44.7764706,20.1916628 L44.8067227,20.1188197 L44.8309244,20.0459766 L44.8490756,19.9792037 L44.8733613,19.8092365 L44.9036134,19.6331991 L44.9277311,19.4632319 L44.9398319,19.3114754 Z M46.8578151,22.2434098 L48.5640336,22.2434098 L49.1752101,18.7894333 L49.1993277,18.6558876 L49.2719328,18.3887963 L49.3203361,18.2552506 L49.3808403,18.1217049 L49.4534454,17.9942295 L49.5321008,17.8728244 L49.6289076,17.7574895 L49.7378151,17.6542951 L49.8588235,17.557171 L49.9979832,17.4661171 L50.1552941,17.393274 L50.3307563,17.3325714 L50.5243697,17.2840094 L50.7361345,17.2475878 L50.9721008,17.2354473 L51.1233613,17.2354473 L51.3956303,15.6753911 L51.2262185,15.6875316 L51.0628571,15.7057424 L50.9115966,15.7360937 L50.7663866,15.7785855 L50.6332773,15.8271475 L50.5062185,15.8878501 L50.3852101,15.954623 L50.2702521,16.027466 L50.1613445,16.1124496 L50.0584874,16.1974333 L49.8648739,16.3916815 L49.7741176,16.4948759 L49.6834454,16.6102108 L49.592605,16.7194754 L49.5078992,16.8408806 L49.6894958,15.7421639 L47.9892437,15.7421639 L46.8578151,22.2434098 Z M30.8363025,22.2434098 L32.5727731,22.2434098 L33.1536134,18.7894333 L33.1778151,18.6558876 L33.2383193,18.4009368 L33.2806723,18.2795316 L33.3290756,18.1581265 L33.3895798,18.0427916 L33.4621849,17.9335269 L33.5468908,17.8303326 L33.6436975,17.7392787 L33.752605,17.6482248 L33.8857143,17.5753817 L34.0309244,17.5086089 L34.2003361,17.4539766 L34.3878992,17.4054145 L34.5936134,17.3750632 L34.8295798,17.3568525 L34.8477311,17.3568525 L34.8719328,17.3629227 L34.9021849,17.368993 L34.932437,17.368993 L34.9626891,17.3750632 L34.9868908,17.3811335 L35.005042,17.3872037 L35.0110924,17.3872037 L35.0352941,17.2900796 L35.0594958,17.180815 L35.0897479,17.0472693 L35.1321008,16.8894426 L35.1744538,16.7194754 L35.2833613,16.379541 L35.3317647,16.2642061 L35.4527731,16.0335363 L35.5132773,15.9303419 L35.5677311,15.8392881 L35.610084,15.766445 L35.6403361,15.7239532 L35.652437,15.7057424 L35.6463866,15.7057424 L35.6221849,15.6996721 L35.5919328,15.6936019 L35.5495798,15.6875316 L35.5072269,15.6875316 L35.4588235,15.6814614 L35.4164706,15.6753911 L35.3741176,15.6753911 L35.1865546,15.6875316 L35.0171429,15.7057424 L34.8598319,15.7360937 L34.7146218,15.7725152 L34.5754622,15.8210773 L34.4484034,15.8817799 L34.3334454,15.9424824 L34.2245378,16.0153255 L34.1216807,16.0942389 L34.0248739,16.1852927 L33.9341176,16.2763466 L33.752605,16.4827354 L33.6678992,16.5980703 L33.4863866,16.8408806 L33.7042017,15.7421639 L31.9677311,15.7421639 L30.8363025,22.2434098 Z" id="Fill-17" fill="#FFFFFF" sketch:type="MSShapeGroup"></path>
												        </g>
												    </g>
												</svg>
