<?xml version="1.0" encoding="UTF-8" standalone="no"?>
<svg width="59px" height="20px" viewBox="0 0 59 20" version="1.1" xmlns="http://www.w3.org/2000/svg" xmlns:xlink="http://www.w3.org/1999/xlink" xmlns:sketch="http://www.bohemiancoding.com/sketch/ns">
												    <g id="Page-1" stroke="none" stroke-width="1" fill="none" fill-rule="evenodd" sketch:type="MSPage">
												        <g id="Visa_Inc._logo" sketch:type="MSLayerGroup" transform="translate(1.000000, 0.000000)" fill="#FFFFFF">
												            <path d="M20.2440441,0.87804617 L23.1539509,19.222173 L27.8053323,19.222173 L24.8956916,0.87804617 L20.2440441,0.87804617 Z M41.7677238,18.7719207 C40.8480357,19.1400873 39.4015955,19.5418468 37.5997306,19.5418468 C33.0010244,19.5418468 29.7638927,17.0521842 29.7370231,13.4875508 C29.7077591,10.8510549 32.0470176,9.3802847 33.8105733,8.50389094 C35.6230797,7.60555348 36.2320372,7.03068252 36.2248542,6.22743446 C36.2123505,4.99885774 34.7781479,4.43590682 33.4407826,4.43590682 C31.5785274,4.43590682 30.5891378,4.71304772 29.0594282,5.39790813 L28.4611122,5.68994908 L27.8106531,1.58376664 C28.8952837,1.07283044 30.9059873,0.629350816 32.9927772,0.606052559 C37.880133,0.606052559 41.0558102,3.06537328 41.0930553,6.87192928 C41.1098156,8.96281244 39.8703518,10.5479067 37.1860439,11.8564018 C35.5605611,12.7067882 34.5629244,13.270281 34.574364,14.1312329 C34.5754281,14.8938444 35.4171675,15.7098253 37.2389852,15.7098253 C38.7604477,15.734749 39.8618386,15.3779605 40.7200722,15.0051884 L41.1377495,14.7952332 L41.7677238,18.7719207 Z M47.9613186,7.38178184 C48.3468054,8.43616345 49.8142625,12.509024 49.8142625,12.509024 C49.7871268,12.460802 50.197621,13.5718038 50.4325312,14.2593733 L50.7464543,12.677259 C50.7464543,12.677259 51.6390066,8.2988121 51.8228378,7.38178184 L47.9613186,7.38178184 Z M53.699725,19.2034803 L50.1050404,19.2034803 C48.9900816,19.2034803 48.1555252,18.8789301 47.6670822,17.6828626 L40.7594456,0.87154433 L45.6449391,0.87154433 C45.6449391,0.87154433 46.4419844,3.13310077 46.6228892,3.62940784 C47.1557602,3.62940784 51.9029147,3.61992599 52.5805096,3.61992599 C52.7199127,2.97976573 53.1469012,0.87154433 53.1469012,0.87154433 L57.4641409,0.87154433 L53.699725,19.2034803 Z M11.7891394,6.70044327 L11.3014946,9.24266244 C10.4531043,12.171741 8.02723473,14.0760679 5.07316589,15.6668512 L9.02315839,0.894029858 L13.945897,0.897009868 L21.2709449,19.2067312 L16.3418214,19.2067312 L11.7891394,6.70044327 Z" id="path14" sketch:type="MSShapeGroup" transform="translate(31.268653, 10.073950) scale(1, -1) translate(-31.268653, -10.073950) "></path>
												            <path d="M7.56288427,11.110844 L0.0619863229,11.110844 L-1.7187449e-07,10.7307573 C5.83683972,9.21122325 9.69862495,5.54337315 11.3014946,1.13431337 L9.67148923,9.5631353 C9.3902887,10.72561 8.5730247,11.0702075 7.56288427,11.110844" id="path30" sketch:type="MSShapeGroup" transform="translate(5.650747, 6.122579) scale(1, -1) translate(-5.650747, -6.122579) "></path>
												        </g>
												    </g>
												</svg>
