<?xml version="1.0" encoding="UTF-8" standalone="no"?>
<svg version="1.1" xmlns="http://www.w3.org/2000/svg" xmlns:xlink="http://www.w3.org/1999/xlink" xmlns:sketch="http://www.bohemiancoding.com/sketch/ns">
    <!-- Generator: Sketch 3.4.4 (17249) - http://www.bohemiancoding.com/sketch -->
    <title>Slice 1</title>
    <desc>Created with Sketch.</desc>
    <defs></defs>
    <g id="Page-1" stroke="none" stroke-width="1" fill="none" fill-rule="evenodd" sketch:type="MSPage">
        <path d="M131.181243,28.3022215 C131.181243,29.7880964 130.350901,30.768968 128.831729,30.768968 C128.22961,30.768968 127.732931,30.771049 126.953228,30.5567001 L126.953228,26.0463555 C127.295215,25.9908607 128.01318,25.8770962 128.831729,25.9069247 C130.377261,25.9672754 131.181243,26.6894022 131.181243,28.3022215 L131.181243,28.3022215 Z M134.297973,28.0767737 C134.297973,25.3138234 132.673361,23.4068814 129.268751,23.4068814 C128.436328,23.4068814 127.856407,23.48943 126.953228,23.6996167 L126.944904,19.7199417 C127.504015,19.6394742 128.471013,19.5763488 129.524721,19.5763488 C130.524322,19.5763488 131.795848,19.6262942 132.903664,19.7643376 L132.981357,17.45922 C131.721624,17.1761962 129.886825,17 128.464076,17 C127.058668,17 124.879108,17.3503113 123.839967,17.631254 L123.839967,32.3380851 C125.463191,32.929799 127.036471,33.1996428 128.661776,33.1996428 C132.369526,33.1996428 134.297973,31.2365121 134.297973,28.0767737 L134.297973,28.0767737 Z M98.6480759,27.2720982 C98.6480759,29.3295701 97.8350762,30.6468793 96.4886322,30.6468793 C95.921891,30.6468793 95.6229124,30.6205192 94.9833342,30.417963 L94.9833342,24.2524843 C95.6860378,23.915353 96.0654839,23.9195151 96.625982,23.9195151 C97.9765881,23.9195151 98.6480759,25.0314933 98.6480759,27.2720982 L98.6480759,27.2720982 Z M88.401644,27.3400794 C88.401644,25.1043303 89.0738255,23.9195151 90.4195758,23.9195151 C90.9883981,23.9195151 91.3629884,23.915353 92.063611,24.2524843 L92.063611,30.417963 C91.4281949,30.6205192 91.1285226,30.6468793 90.560394,30.6468793 C89.0280422,30.6468793 88.401644,29.3954702 88.401644,27.3400794 L88.401644,27.3400794 Z M94.9833342,36.5751175 L94.9833342,32.5670014 C95.3565371,32.7862061 96.0960061,33.1080762 97.3481088,33.1080762 C99.8301164,33.1080762 101.659366,31.0485233 101.659366,27.2720982 C101.659366,23.2105683 99.841909,21.476354 96.8521235,21.476354 C96.0953124,21.476354 95.5972461,21.5533531 94.9833342,21.8426201 L94.9833342,17.0513327 L92.063611,17.0513327 L92.063611,21.8426201 C91.4462307,21.5533531 90.9551012,21.476354 90.1955153,21.476354 C87.2036488,21.476354 85.3875796,23.2813242 85.3875796,27.3400794 C85.3875796,31.1158108 87.0302274,33.1080762 89.6967553,33.1080762 C90.9551012,33.1080762 91.6924891,32.7862061 92.063611,32.5670014 L92.063611,36.5751175 L94.9833342,36.5751175 Z M72.9511819,32.9214748 L72.9511819,22.1665713 C71.3404436,21.6865408 70.1015209,21.4812098 68.4880079,21.4812098 C66.8717202,21.4812098 65.6667881,21.6865408 64.0532751,22.1665713 L64.0532751,27.6723549 C64.0532751,29.1672476 64.0248339,29.6243865 63.8652862,30.1002549 C63.7064322,30.5275653 63.4900023,31.0388117 62.8955136,31.424501 L63.6960269,33.1434542 C66.0462342,32.4844528 66.9362329,31.4536358 66.9362329,28.2009434 L66.9362329,24.1518998 C67.713161,24.0395227 67.8671592,24.0103879 68.4880079,24.0103879 C69.1123251,24.0103879 69.244819,24.0395227 70.0168912,24.1518998 L70.0168912,32.9214748 L72.9511819,32.9214748 Z M108.972201,30.5608623 C108.327073,30.7904722 107.899069,30.8355618 107.390597,30.8355618 C106.341744,30.8355618 105.748643,30.4214314 105.748643,29.3455249 C105.748643,28.2293845 106.499211,27.8506321 107.949014,27.8506321 C108.306262,27.8506321 108.657267,27.9026586 108.822364,27.9630092 L108.822364,28.7586667 C108.822364,29.6271613 108.865373,30.1918214 108.972201,30.5608623 L108.972201,30.5608623 Z M112.639717,31.8518114 C111.866951,30.6732393 111.668557,29.9774726 111.668557,28.499922 L111.668557,25.4941817 C111.668557,23.8674887 111.481262,23.2695316 111.049789,22.679205 C110.448364,21.8412327 109.465411,21.4812098 107.632,21.4812098 C106.340357,21.4812098 105.068137,21.6227217 103.859043,21.9286371 L104.294678,24.0818376 C105.115308,23.9680731 105.978253,23.8674887 106.59494,23.8674887 C108.538647,23.8674887 108.762014,24.1518998 108.762014,25.6065588 L108.762014,26.1504084 C108.329154,26.0345629 107.842186,25.9513206 107.281688,25.9513206 C104.349479,25.9513206 102.80256,27.3789258 102.80256,29.740232 C102.80256,31.9600264 104.453532,33.1691206 106.471464,33.1691206 C107.226194,33.1691206 108.005896,33.0296897 108.626745,32.7792692 C109.004804,32.6183341 109.167126,32.5267676 109.656868,32.2069785 C109.939198,32.6349826 110.528831,33.0671488 110.76191,33.1434542 L112.639717,31.8518114 Z M141.524791,30.5608623 C140.876888,30.7904722 140.45374,30.8355618 139.946656,30.8355618 C138.894334,30.8355618 138.299846,30.4214314 138.299846,29.3455249 C138.299846,28.2293845 139.05735,27.8506321 140.504379,27.8506321 C140.857465,27.8506321 141.213326,27.9026586 141.368018,27.9630092 L141.368018,28.7586667 C141.368018,29.6271613 141.413801,30.1918214 141.524791,30.5608623 L141.524791,30.5608623 Z M145.254045,31.8518114 C144.472261,30.6732393 144.276642,29.9774726 144.276642,28.499922 L144.276642,25.4941817 C144.276642,23.8674887 144.087959,23.2695316 143.657181,22.679205 C143.05853,21.8412327 142.07419,21.4812098 140.233841,21.4812098 C138.949135,21.4812098 137.674141,21.6227217 136.467128,21.9286371 L136.90415,24.0818376 C137.720618,23.9680731 138.587032,23.8674887 139.212736,23.8674887 C141.144651,23.8674887 141.368018,24.1518998 141.368018,25.6065588 L141.368018,26.1504084 C140.938626,26.0345629 140.45374,25.9513206 139.891161,25.9513206 C136.961726,25.9513206 135.416194,27.3789258 135.416194,29.740232 C135.416194,31.9600264 137.068553,33.1691206 139.083711,33.1691206 C139.839134,33.1691206 140.614675,33.0296897 141.237605,32.7792692 C141.610808,32.6183341 141.775211,32.5267676 142.259404,32.2069785 C142.550752,32.6349826 143.134835,33.0671488 143.371382,33.1434542 L145.254045,31.8518114 Z M81.2275463,29.058339 C81.2275463,30.1585245 80.8390823,30.9160293 79.4246571,30.9160293 C78.9508697,30.9160293 78.7614935,30.9160293 78.1441132,30.7412205 L78.1441132,27.5211314 C78.9092486,27.3726827 78.972374,27.3484037 79.4246571,27.3484037 C80.7745695,27.3484037 81.2275463,28.0039367 81.2275463,29.058339 L81.2275463,29.058339 Z M75.2125973,21.6601807 L75.1994173,32.3332293 C76.5937256,32.9214748 78.1205279,33.1823006 79.4739087,33.1823006 C82.5913324,33.1823006 84.2561781,31.572256 84.2561781,28.9161334 C84.2561781,26.5194492 82.7848707,25.0405112 80.0260826,25.0405112 C79.3233789,25.0405112 78.9147981,25.1341588 78.1441132,25.3145171 L78.1441132,21.6601807 L75.2125973,21.6601807 Z M155.967327,32.9214748 L155.967327,21.7586841 L153.037893,21.7586841 L153.037893,25.9846175 L149.716525,25.9846175 L149.716525,21.7586841 L146.789172,21.7586841 L146.789172,32.9214748 L149.716525,32.9214748 L149.716525,28.3660406 L153.037893,28.3660406 L153.037893,32.9214748 L155.967327,32.9214748 Z M168,32.9214748 C168,32.9214748 166.407991,29.5078473 166.014671,28.7323067 C165.570713,27.8541005 165.162825,27.2492066 164.265196,27.0383261 L164.265196,26.985606 C164.869396,26.8690668 165.344571,26.5021071 165.864835,25.3880478 C166.372613,24.2996549 166.522449,24.0672702 166.81241,23.8126875 C167.102371,23.5428438 167.497078,23.6468966 167.497078,23.6468966 L167.644139,21.6171722 C167.221685,21.5616773 166.758996,21.5589026 166.276885,21.5831816 C165.481921,21.635208 165.068484,21.8558001 164.684876,22.2560567 C164.381042,22.5529542 164.169467,23.0121742 163.913497,23.5372943 C163.634636,24.1047292 163.420981,24.5500754 163.139344,25.1341588 C162.855627,25.7175485 162.721745,25.9776807 161.967709,25.9776807 L161.473111,25.9776807 L161.473111,21.7586841 L158.532577,21.7586841 L158.532577,32.9214748 L161.473111,32.9214748 L161.473111,28.3632659 L161.869899,28.354248 C162.707178,28.354248 162.850077,28.5630474 163.29473,29.446803 C163.818462,30.5032863 164.814595,32.9214748 164.814595,32.9214748 L168,32.9214748 Z M58.7063455,32.9214748 L62.084595,32.9214748 L56.979068,17.3232575 C56.4456237,17.1428993 55.7720549,17.0298285 55.0665765,17.0298285 C54.2903422,17.0298285 54.01703,17.1352687 53.4128297,17.3232575 L48,32.9214748 L51.2374313,32.9214748 C51.2374313,32.9214748 51.6668227,31.5542202 52.1967986,29.8574649 L57.7941488,29.8574649 C58.2963772,31.5535265 58.7063455,32.9214748 58.7063455,32.9214748 L58.7063455,32.9214748 Z M53.0229783,27.2422697 C53.0229783,27.2422697 53.9587604,24.1199903 54.0988849,23.6302482 C54.4700068,22.3587222 55.0381354,20.3525831 55.0381354,20.3525831 L55.1331703,20.3525831 C55.1331703,20.3525831 55.6527409,22.4294782 55.9926469,23.6101313 C56.1223662,24.0679639 57.0151397,27.2422697 57.0151397,27.2422697 L53.0229783,27.2422697 Z M117.757037,25.4650469 C116.719976,25.4650469 115.883391,26.305794 115.883391,27.3331426 C115.883391,28.3743648 116.719976,29.2074814 117.757037,29.2074814 C118.785079,29.2074814 119.627907,28.3743648 119.627907,27.3331426 C119.627907,26.305794 118.785079,25.4650469 117.757037,25.4650469 L117.757037,25.4650469 Z" id="Alfa-logo" fill="#FFFFFF" sketch:type="MSShapeGroup"></path>
        <path d="M0.50882837,44.121379 C0.229201969,44.121379 0,44.358603 0,44.6445325 L0,50.4685545 C0,50.760214 0.229201969,50.994 0.50882837,50.994 L32.5346464,50.994 C32.8159919,50.994 33.0451938,50.760214 33.0451938,50.4685545 L33.0451938,44.6445325 C33.0451938,44.358603 32.8159919,44.121379 32.5346464,44.121379 L0.50882837,44.121379 Z M16.4734557,0 C19.9762348,0 21.0775503,2.50804254 22.0000882,5.0183771 C22.3891585,6.08072823 31.4964988,31.0150374 31.7686761,31.7616628 C31.8425937,31.9708096 31.7938883,32.3174776 31.4701405,32.4389546 C31.1492578,32.5621507 26.4162371,34.3997775 26.1566659,34.4994803 C25.8953757,34.5986102 25.5997051,34.4496289 25.5034403,34.1912037 C25.4066025,33.9344975 23.4452066,28.4978268 23.2228807,27.8852845 L9.73319883,27.8852845 C9.51373795,28.4978268 7.52999491,33.9413735 7.44117915,34.1912037 C7.34777934,34.4387418 7.06528792,34.6060592 6.78795354,34.4994803 C6.51233817,34.3888904 1.76098136,32.5466796 1.47390589,32.4389546 C1.20573959,32.3352407 1.08311654,32.0281101 1.17766235,31.7616628 C1.51229722,30.8293838 10.4769592,6.29732409 10.9342171,5.0183771 C11.8263858,2.54242284 12.9643736,0 16.4734557,0 Z M16.5953685,8.0220689 L12.0331034,21.7197516 L21.2269673,21.7197516 L16.65095,8.0220689 L16.5953685,8.0220689 Z" id="Path" fill="#FFFFFF" sketch:type="MSShapeGroup"></path>
        <path d="M53.5922852,50 L54.684082,50 L54.684082,43.1572266 L49.0854492,43.1572266 L49.0854492,50 L50.1772461,50 L50.1772461,44.0712891 L53.5922852,44.0712891 L53.5922852,50 Z M61.0398995,43.0366211 C60.106794,43.0366211 59.2879463,43.5126953 58.8499581,44.2998047 L58.7483956,44.2998047 L58.7483956,43.1572266 L57.7073799,43.1572266 L57.7073799,52.2851562 L58.7991768,52.2851562 L58.7991768,48.9716797 L58.9007393,48.9716797 C59.275251,49.6953125 60.0623604,50.1206055 61.0398995,50.1206055 C62.7791573,50.1206055 63.9153877,48.7177734 63.9153877,46.5786133 C63.9153877,44.4267578 62.7855049,43.0366211 61.0398995,43.0366211 L61.0398995,43.0366211 Z M60.7796456,49.1367188 C59.5482002,49.1367188 58.7674385,48.1464844 58.7674385,46.5786133 C58.7674385,45.0043945 59.5482002,44.0205078 60.7859932,44.0205078 C62.0364815,44.0205078 62.7855049,44.9790039 62.7855049,46.5786133 C62.7855049,48.1782227 62.0364815,49.1367188 60.7796456,49.1367188 L60.7796456,49.1367188 Z M69.3380997,44.0014648 C70.4235489,44.0014648 71.1471817,44.8012695 71.1725724,46.0136719 L67.4020646,46.0136719 C67.4845841,44.8012695 68.2463028,44.0014648 69.3380997,44.0014648 L69.3380997,44.0014648 Z M71.1408341,48.2290039 C70.8551896,48.8320312 70.2585099,49.1557617 69.3761857,49.1557617 C68.2145646,49.1557617 67.4591935,48.2988281 67.4020646,46.9467773 L67.4020646,46.8959961 L72.3214982,46.8959961 L72.3214982,46.4770508 C72.3214982,44.3505859 71.197963,43.0366211 69.350795,43.0366211 C67.4718888,43.0366211 66.2658341,44.4331055 66.2658341,46.5849609 C66.2658341,48.7495117 67.4528458,50.1206055 69.350795,50.1206055 C70.8488419,50.1206055 71.9025528,49.4033203 72.232631,48.2290039 L71.1408341,48.2290039 Z M79.3628625,49.0859375 L75.9859093,49.0859375 L75.9859093,48.984375 C76.3096398,48.559082 76.4873742,47.8291016 76.5508507,46.9975586 L76.7666711,44.0712891 L79.3628625,44.0712891 L79.3628625,49.0859375 Z M75.1670617,51.809082 L75.1670617,50 L80.5181359,50 L80.5181359,51.809082 L81.5464562,51.809082 L81.5464562,49.0859375 L80.4546593,49.0859375 L80.4546593,43.1572266 L75.789132,43.1572266 L75.5225304,46.972168 C75.4590539,47.8925781 75.2114953,48.7558594 74.7100304,49.0859375 L74.1387414,49.0859375 L74.1387414,51.809082 L75.1670617,51.809082 Z M89.501883,45.2519531 C89.3114533,44.0332031 88.2958283,43.0366211 86.6327424,43.0366211 C84.7157502,43.0366211 83.4970002,44.4204102 83.4970002,46.5532227 C83.4970002,48.7304688 84.7220979,50.1206055 86.6390901,50.1206055 C88.283133,50.1206055 89.3051057,49.1938477 89.501883,47.9370117 L88.3973908,47.9370117 C88.1942658,48.7114258 87.5531526,49.1367188 86.6327424,49.1367188 C85.4139924,49.1367188 84.626883,48.1337891 84.626883,46.5532227 C84.626883,45.0043945 85.4012971,44.0205078 86.6327424,44.0205078 C87.6166291,44.0205078 88.2196565,44.5727539 88.3973908,45.2519531 L89.501883,45.2519531 Z M96.7273294,43.1572266 L91.1921731,43.1572266 L91.1921731,44.0712891 L93.4138528,44.0712891 L93.4138528,50 L94.5056497,50 L94.5056497,44.0712891 L96.7273294,44.0712891 L96.7273294,43.1572266 Z M101.223284,49.1621094 C100.429826,49.1621094 99.8394945,48.7558594 99.8394945,48.0576172 C99.8394945,47.3720703 100.296526,47.0102539 101.337541,46.9404297 L103.178362,46.8198242 L103.178362,47.4482422 C103.178362,48.4257812 102.346819,49.1621094 101.223284,49.1621094 L101.223284,49.1621094 Z M101.020159,50.1206055 C101.934221,50.1206055 102.683244,49.7207031 103.12758,48.9907227 L103.229143,48.9907227 L103.229143,50 L104.270159,50 L104.270159,45.3154297 C104.270159,43.8935547 103.337053,43.0366211 101.667619,43.0366211 C100.207659,43.0366211 99.128557,43.7602539 98.9825609,44.8583984 L100.087053,44.8583984 C100.239397,44.3188477 100.810686,44.0078125 101.629534,44.0078125 C102.651506,44.0078125 103.178362,44.4711914 103.178362,45.3154297 L103.178362,45.9375 L101.204241,46.0581055 C99.6109788,46.1533203 98.7096117,46.8579102 98.7096117,48.0830078 C98.7096117,49.3334961 99.6934984,50.1206055 101.020159,50.1206055 L101.020159,50.1206055 Z M110.143554,44.0712891 C110.91162,44.0712891 111.254394,44.4521484 111.254394,45.0234375 C111.254394,45.6645508 110.854492,46.0009766 109.96582,46.0009766 L108.442382,46.0009766 L108.442382,44.0712891 L110.143554,44.0712891 Z M110.061035,46.9150391 C111.044921,46.9150391 111.552734,47.2514648 111.552734,48.0131836 C111.552734,48.7050781 111.108398,49.0859375 110.270507,49.0859375 L108.442382,49.0859375 L108.442382,46.9150391 L110.061035,46.9150391 Z M107.350585,50 L110.295898,50 C111.768554,50 112.638183,49.2255859 112.638183,48.0322266 C112.638183,47.2070312 112.085937,46.5722656 111.216308,46.4516602 L111.216308,46.3500977 C111.857421,46.2167969 112.333495,45.5820312 112.333495,44.9091797 C112.333495,43.8491211 111.578124,43.1572266 110.283203,43.1572266 L107.350585,43.1572266 L107.350585,50 Z M117.007184,46.9975586 L117.223004,44.0712891 L119.616071,44.0712891 L119.616071,50 L120.707868,50 L120.707868,43.1572266 L116.23277,43.1572266 L115.966168,46.972168 C115.877301,48.2416992 115.617047,49.0351562 114.937848,49.0351562 C114.779157,49.0351562 114.652204,49.003418 114.595075,48.984375 L114.595075,49.9873047 C114.671247,50.019043 114.7982,50.0571289 114.994977,50.0571289 C116.416852,50.0571289 116.867536,48.8764648 117.007184,46.9975586 L117.007184,46.9975586 Z M126.086146,46.6357422 C125.191126,46.6357422 124.607142,46.121582 124.607142,45.3979492 C124.607142,44.5664062 125.184779,44.0712891 126.086146,44.0712891 L127.37472,44.0712891 L127.37472,46.6357422 L126.086146,46.6357422 Z M127.37472,50 L128.466517,50 L128.466517,43.1572266 L126.086146,43.1572266 C124.518275,43.1572266 123.515345,44.0141602 123.515345,45.4233398 C123.515345,46.362793 124.09933,47.0737305 125.064173,47.3466797 L123.153529,50 L124.454798,50 L126.200404,47.5498047 L127.37472,47.5498047 L127.37472,50 Z M134.225655,44.0014648 C135.311104,44.0014648 136.034737,44.8012695 136.060127,46.0136719 L132.28962,46.0136719 C132.372139,44.8012695 133.133858,44.0014648 134.225655,44.0014648 L134.225655,44.0014648 Z M136.028389,48.2290039 C135.742745,48.8320312 135.146065,49.1557617 134.263741,49.1557617 C133.10212,49.1557617 132.346749,48.2988281 132.28962,46.9467773 L132.28962,46.8959961 L137.209053,46.8959961 L137.209053,46.4770508 C137.209053,44.3505859 136.085518,43.0366211 134.23835,43.0366211 C132.359444,43.0366211 131.153389,44.4331055 131.153389,46.5849609 C131.153389,48.7495117 132.340401,50.1206055 134.23835,50.1206055 C135.736397,50.1206055 136.790108,49.4033203 137.120186,48.2290039 L136.028389,48.2290039 Z M144.599539,43.1572266 L139.064382,43.1572266 L139.064382,44.0712891 L141.286062,44.0712891 L141.286062,50 L142.377859,50 L142.377859,44.0712891 L144.599539,44.0712891 L144.599539,43.1572266 Z" id="представляет" fill="#FFFFFF" sketch:type="MSShapeGroup"></path>
    </g>
</svg>
