<?xml version="1.0" encoding="UTF-8" standalone="no"?>
<svg version="1.1" xmlns="http://www.w3.org/2000/svg" xmlns:xlink="http://www.w3.org/1999/xlink" xmlns:sketch="http://www.bohemiancoding.com/sketch/ns">
    <!-- Generator: Sketch 3.4.4 (17249) - http://www.bohemiancoding.com/sketch -->
    <title>Slice 1</title>
    <desc>Created with Sketch.</desc>
    <defs></defs>
    <g id="Page-1" stroke="none" stroke-width="1" fill="none" fill-rule="evenodd" sketch:type="MSPage">
        <g id="Afp-logo" sketch:type="MSLayerGroup" fill="#FEFEFE">
            <path d="M76.2501194,11.2032808 L123.495519,11.2032808 L123.495519,8.8817842e-15 L76.2501194,8.8817842e-15 L76.2501194,11.2032808 Z M176.779728,5.10573899 C174.44836,2.7730977 169.903873,0.000282162973 162.139891,0.000282162973 L128.755136,0.000282162973 L128.755136,11.2032808 L161.695404,11.2032808 C163.69376,11.2032808 165.909984,11.3121957 167.573916,12.7571523 C168.236554,13.4193888 169.5734,14.8570092 169.5734,17.7449472 C169.5734,21.1799992 167.794043,22.8430678 167.354072,23.2880388 C165.574714,24.7310202 162.80394,24.9502609 161.139725,24.9502609 L128.755136,24.9502609 L128.755136,50.190021 L140.511595,50.190021 L140.511595,36.2618923 L163.136388,36.2618923 C166.464534,36.2618923 172.120944,35.816357 176.665431,31.1569998 C178.996799,28.7205225 181.548575,24.5126261 181.548575,17.8541443 C181.548575,11.3121957 179.106298,7.31592156 176.779728,5.10573899 L176.779728,5.10573899 Z M76.2501194,50.190021 L87.8953865,50.190021 L87.8953865,36.2618923 L114.773422,36.2618923 L114.773422,24.9502609 L76.2501194,24.9502609 L76.2501194,50.190021 Z M9,50.190021 L22.8149262,50.190021 L32.5284404,36.2618923 L59.0494751,36.2618923 L59.0494751,50.190021 L70.8056522,50.190021 L70.8056522,24.9502609 L26.4187955,24.9502609 L9,50.190021 Z M35.3675105,11.2032808 L70.8056522,11.2032808 L70.8056522,0.000282162973 L42.9203964,0.000282162973 L35.3675105,11.2032808 Z M32.8149155,18.7891195 L35.2902121,18.7891195 L35.2902121,14.8252941 L32.8149155,18.7891195 Z M33.9347396,13.7674651 L37.1412519,13.7674651 L37.1412519,22.4885582 L35.2902121,22.4885582 L35.2902121,20.6584492 L31.594059,20.6584492 L30.397755,22.4885582 L28.110695,22.4885582 L33.9347396,13.7674651 Z M54.667458,18.7891195 L57.1419079,18.7891195 L57.1419079,14.8252941 L54.667458,18.7891195 Z M55.7850243,13.7674651 L58.9935121,13.7674651 L58.9935121,22.4885582 L57.1419079,22.4885582 L57.1419079,20.6584492 L53.4463192,20.6584492 L52.2443709,22.4885582 L49.960133,22.4885582 L55.7850243,13.7674651 Z M38.702684,13.7673522 L40.6976529,13.7673522 L40.6976529,20.6191157 L44.2510059,20.6191157 L44.2510059,22.4887275 L38.702684,22.4887275 L38.702684,13.7673522 Z M45.4946935,13.7673522 L50.5412393,13.7673522 L50.5412393,15.6369641 L47.4882513,15.6369641 L47.4882513,17.4803348 L50.1664595,17.4803348 L50.1664595,19.3499466 L47.4882513,19.3499466 L47.4882513,22.4887275 L45.4946935,22.4887275 L45.4946935,13.7673522 Z M65.1082651,13.7673522 L70.1500133,13.7673522 L70.1500133,15.6369641 L67.0987185,15.6369641 L67.0987185,17.4803348 L69.7766446,17.4803348 L69.7766446,19.3499466 L67.0987185,19.3499466 L67.0987185,22.4887275 L65.1082651,22.4887275 L65.1082651,13.7673522 Z M79.0089561,18.891065 C79.0089561,21.5532726 77.3145449,22.6364963 75.4423391,22.6364963 C73.2021265,22.6364963 71.6454356,21.3543477 71.6454356,18.8016193 L71.6454356,13.7672676 L73.6370179,13.7672676 L73.6370179,18.3828895 C73.6370179,19.7367074 74.0482033,20.7745028 75.4423391,20.7745028 C76.654447,20.7745028 77.0165272,19.8842786 77.0165272,18.4926509 L77.0165272,13.7672676 L79.0089561,13.7672676 L79.0089561,18.891065 Z M80.1298244,13.7673522 L87.3553423,13.7673522 L87.3553423,15.6369641 L84.7395033,15.6369641 L84.7395033,22.4887275 L82.7442523,22.4887275 L82.7442523,15.6369641 L80.1298244,15.6369641 L80.1298244,13.7673522 Z M95.8389691,18.891065 C95.8389691,21.5532726 94.1428646,22.6364963 92.2771497,22.6364963 C90.0318573,22.6364963 88.4762952,21.3543477 88.4762952,18.8016193 L88.4762952,13.7672676 L90.4690064,13.7672676 L90.4690064,18.3828895 C90.4690064,19.7367074 90.8782163,20.7745028 92.2771497,20.7745028 C93.4833311,20.7745028 93.846258,19.8842786 93.846258,18.4926509 L93.846258,13.7672676 L95.8389691,13.7672676 L95.8389691,18.891065 Z M99.9498071,15.6371051 L99.9498071,17.5710502 L100.672556,17.5710502 C101.430865,17.5710502 102.028876,17.293684 102.028876,16.5645748 C102.028876,16.0758686 101.781092,15.6114283 100.819872,15.6114283 C100.522419,15.6114283 100.35817,15.6232792 99.9498071,15.6371051 Z M97.9573782,22.4885864 L97.9573782,13.7674933 C98.4393992,13.7674933 100.672556,13.7485884 100.921187,13.7485884 C103.302224,13.7485884 104.149994,14.9283118 104.149994,16.5329726 C104.149994,18.1573848 103.154344,18.8148245 102.679096,19.0535344 L105.218737,22.4885864 L102.803552,22.4885864 L100.684409,19.440662 L99.9498071,19.440662 L99.9498071,22.4885864 L97.9573782,22.4885864 Z M106.336558,13.7673522 L111.512075,13.7673522 L111.512075,15.6369641 L108.332373,15.6369641 L108.332373,17.170802 L111.136166,17.170802 L111.136166,19.0401317 L108.332373,19.0401317 L108.332373,20.6191157 L111.637942,20.6191157 L111.637942,22.4887275 L106.336558,22.4887275 L106.336558,13.7673522 Z M119.562532,15.6371051 L119.562532,17.6353833 C119.851237,17.6743218 120.184249,17.6940732 120.469285,17.6940732 C120.994484,17.6940732 121.642165,17.4672142 121.642165,16.6232647 C121.642165,15.8504203 121.143776,15.6114283 120.431186,15.6114283 C120.171267,15.6114283 119.971178,15.6232792 119.562532,15.6371051 Z M117.566999,22.4885864 L117.566999,13.7674933 C118.053817,13.7674933 119.562532,13.7485884 120.23533,13.7485884 C122.889267,13.7485884 123.761308,15.1289296 123.761308,16.6362442 C123.761308,18.1887049 122.551458,19.5631207 120.533629,19.5631207 C120.344829,19.5631207 119.872121,19.5631207 119.562532,19.5295434 L119.562532,22.4885864 L117.566999,22.4885864 Z M125.376615,13.7673522 L130.544512,13.7673522 L130.544512,15.6369641 L127.371866,15.6369641 L127.371866,17.170802 L130.173119,17.170802 L130.173119,19.0401317 L127.371866,19.0401317 L127.371866,20.6191157 L130.674048,20.6191157 L130.674048,22.4887275 L125.376615,22.4887275 L125.376615,13.7673522 Z M136.554366,20.7744464 C138.209832,20.7744464 139.070584,19.5958517 139.070584,18.1314258 C139.070584,16.5329726 137.961766,15.4889696 136.554366,15.4889696 C135.105481,15.4889696 134.03448,16.5329726 134.03448,18.1314258 C134.03448,19.6274539 135.158255,20.7744464 136.554366,20.7744464 Z M136.554366,13.6193577 C139.206329,13.6193577 141.188034,15.3535314 141.188034,18.1314258 C141.188034,20.7744464 139.206329,22.6364398 136.554366,22.6364398 C133.899582,22.6364398 131.919853,20.9090381 131.919853,18.1314258 C131.919853,15.5978845 133.773432,13.6193577 136.554366,13.6193577 Z M144.7967,15.6371051 L144.7967,17.6353833 C145.084558,17.6743218 145.424062,17.6940732 145.70938,17.6940732 C146.229782,17.6940732 146.881695,17.4672142 146.881695,16.6232647 C146.881695,15.8504203 146.38387,15.6114283 145.672692,15.6114283 C145.409104,15.6114283 145.21099,15.6232792 144.7967,15.6371051 Z M142.808223,22.4885864 L142.808223,13.7674933 C143.293348,13.7674933 144.7967,13.7485884 145.473449,13.7485884 C148.125694,13.7485884 148.997734,15.1289296 148.997734,16.6362442 C148.997734,18.1887049 147.789295,19.5631207 145.772031,19.5631207 C145.584923,19.5631207 145.113344,19.5631207 144.7967,19.5295434 L144.7967,22.4885864 L142.808223,22.4885864 Z M150.618741,13.7673522 L152.609477,13.7673522 L152.609477,20.6191157 L156.163112,20.6191157 L156.163112,22.4887275 L150.618741,22.4887275 L150.618741,13.7673522 Z M157.407872,13.7673522 L162.579157,13.7673522 L162.579157,15.6369641 L159.400301,15.6369641 L159.400301,17.170802 L162.202683,17.170802 L162.202683,19.0401317 L159.400301,19.0401317 L159.400301,20.6191157 L162.700226,20.6191157 L162.700226,22.4887275 L157.407872,22.4887275 L157.407872,13.7673522 Z" id="Fill-76" sketch:type="MSShapeGroup"></path>
        </g>
    </g>
</svg>
