<?xml version="1.0" encoding="UTF-8" standalone="no"?>
<svg width="142px" height="50px" viewBox="0 0 142 50" version="1.1" xmlns="http://www.w3.org/2000/svg" xmlns:xlink="http://www.w3.org/1999/xlink" xmlns:sketch="http://www.bohemiancoding.com/sketch/ns">
    <!-- Generator: Sketch 3.4.4 (17249) - http://www.bohemiancoding.com/sketch -->
    <title>appstore copy</title>
    <desc>Created with Sketch.</desc>
    <defs></defs>
    <g id="Page-1" stroke="none" stroke-width="1" fill="none" fill-rule="evenodd" sketch:type="MSPage">
        <g id="16-contacts" sketch:type="MSArtboardGroup" transform="translate(-310.000000, -1563.000000)">
            <g id="Footer" sketch:type="MSLayerGroup" transform="translate(250.000000, 1440.000000)">
                <g id="appstore-copy" transform="translate(60.000000, 123.000000)">
                    <rect id="Rectangle-20" stroke="#FFFFFF" sketch:type="MSShapeGroup" x="0" y="0" width="142" height="50" rx="4"></rect>
                    <path d="M31.48,9 C25.532,9 25.96,15.498 25.96,15.498 C25.96,15.498 31.48,14.069 31.48,9 L31.48,9 Z M33.32,24.204 C33.32,19.899 37,18.634 37,18.634 C37,18.634 33.94,16.316 31.48,16.316 C29.02,16.316 28.419,17.747 26.469,17.747 C24.518,17.747 24.285,16.316 22.25,16.316 C19.368,16.316 14,18.089 14,25.53 C14,33.683 20.225,38.132 22.28,38.132 C24.335,38.132 23.861,37.202 26.404,37.202 C28.946,37.202 28.265,38.132 31.48,38.132 C34.336,38.132 36.837,33.15 37.92,30.702 C36.52,30.702 33.32,28.508 33.32,24.204 L33.32,24.204 Z" id="Fill-1" fill="#FFFFFF" sketch:type="MSShapeGroup"></path>
                    <text id="App-Store" sketch:type="MSTextLayer" font-family="SF UI Display" font-size="17" font-weight="260" fill="#FFFFFF">
                        <tspan x="48" y="36">App Store</tspan>
                    </text>
                    <text id="Скачать-в" sketch:type="MSTextLayer" font-family="SF UI Display" font-size="11" font-weight="260" letter-spacing="0.660000026" fill="#FFFFFF">
                        <tspan x="48" y="20">Скачать в</tspan>
                    </text>
                </g>
            </g>
        </g>
    </g>
</svg>