<?xml version="1.0" encoding="UTF-8" standalone="no"?>
<svg version="1.1" xmlns="http://www.w3.org/2000/svg" xmlns:xlink="http://www.w3.org/1999/xlink" xmlns:sketch="http://www.bohemiancoding.com/sketch/ns">
    <!-- Generator: Sketch 3.4.4 (17249) - http://www.bohemiancoding.com/sketch -->
    <title>gplay copy</title>
    <desc>Created with Sketch.</desc>
    <defs></defs>
    <g id="Page-1" stroke="none" stroke-width="1" fill="none" fill-rule="evenodd" sketch:type="MSPage">
        <g id="16-contacts" sketch:type="MSArtboardGroup" transform="translate(-462.000000, -1563.000000)">
            <g id="Footer" sketch:type="MSLayerGroup" transform="translate(250.000000, 1440.000000)">
                <g id="gplay-copy" transform="translate(212.000000, 123.000000)">
                    <rect id="Rectangle-20" stroke="#FFFFFF" sketch:type="MSShapeGroup" x="0" y="0" width="142" height="50" rx="4"></rect>
                    <path d="M33.997,19.734 L18.755,11.212 C18.755,11.212 18.5,11.086 18.193,11.086 C18.132,11.086 18.074,11.091 18.017,11.101 L30.175,23.511 L33.997,19.734 Z M17.226,11.666 C17.226,11.666 17.044,12.033 17,12.209 L17,36.413 C17,36.414 17.184,36.951 17.184,36.951 L29.439,24.165 L17.226,11.666 Z M18.006,37.47 C18.456,37.507 18.919,37.261 19.736,36.801 L34.037,28.789 L30.178,24.877 L18.006,37.47 Z M39.721,22.934 L34.748,20.155 L30.876,24.165 L31.872,25.243 L34.881,28.316 L40.185,25.344 C40.201,25.336 40.987,24.991 40.987,24.378 C40.987,23.8 40.644,23.409 39.721,22.934 L39.721,22.934 Z" id="Fill-1" fill="#FFFFFF" sketch:type="MSShapeGroup"></path>
                    <text id="Google-play" sketch:type="MSTextLayer" font-family="SF UI Display" font-size="14" font-weight="206" letter-spacing="0.839999974" fill="#FFFFFF">
                        <tspan x="104" y="36">play</tspan>
                    </text>
                    <text id="Google-play" sketch:type="MSTextLayer" font-family="Futura" font-size="14" font-weight="420" fill="#FFFFFF">
                        <tspan x="52" y="36">Google</tspan>
                    </text>
                    <text id="Скачать-в" sketch:type="MSTextLayer" font-family="SF UI Display" font-size="11" font-weight="260" letter-spacing="0.660000026" fill="#FFFFFF">
                        <tspan x="52" y="21">Скачать в</tspan>
                    </text>
                </g>
            </g>
        </g>
    </g>
</svg>
