<?xml version="1.0" encoding="UTF-8" standalone="no"?>
<svg version="1.1" xmlns="http://www.w3.org/2000/svg" xmlns:xlink="http://www.w3.org/1999/xlink" xmlns:sketch="http://www.bohemiancoding.com/sketch/ns">
    <!-- Generator: Sketch 3.4.4 (17249) - http://www.bohemiancoding.com/sketch -->
    <title>Shape</title>
    <desc>Created with Sketch.</desc>
    <defs></defs>
    <g id="Page-1" stroke="none" stroke-width="1" fill="none" fill-rule="evenodd" sketch:type="MSPage">
        <g id="16-contacts" sketch:type="MSArtboardGroup" transform="translate(-859.000000, -1575.000000)" fill="#126BEE">
            <g id="Footer" sketch:type="MSLayerGroup" transform="translate(250.000000, 1440.000000)">
                <g id="Social" transform="translate(459.000000, 68.000000)" sketch:type="MSShapeGroup">
                    <path d="M159.229509,77.2761779 L158.385434,76.6207116 C158.128376,76.4075208 157.776802,76.126092 157.776802,75.6109162 C157.776802,75.0936212 158.128376,74.7647225 158.43354,74.4601945 C159.416845,73.6862653 160.399303,72.862535 160.399303,71.1267042 C160.399303,69.3417081 159.276131,68.4026937 158.737856,67.9572394 L160.189291,67.9572394 L161.712779,67 L157.097389,67 C155.830959,67 154.00591,67.2996539 152.669759,68.4026937 C151.662719,69.2715628 151.17149,70.4695425 151.17149,71.5479997 C151.17149,73.3787704 152.57715,75.2345476 155.059361,75.2345476 C155.293744,75.2345476 155.550166,75.2114484 155.808284,75.1875015 C155.692364,75.469566 155.575172,75.7043726 155.575172,76.1029928 C155.575172,76.8300878 155.948786,77.275966 156.278109,77.6983211 C155.223386,77.7707975 153.254444,77.887565 151.803009,78.7797452 C150.42066,79.6017801 150,80.7982764 150,81.6427747 C150,83.3809367 151.638348,85 155.035626,85 C159.064212,85 161.196967,82.7708211 161.196967,80.5641056 C161.197179,78.9427112 160.260496,78.1446231 159.229509,77.2761779 L159.229509,77.2761779 Z M156.161129,74.5767501 C154.145777,74.5767501 153.232829,71.9714144 153.232829,70.3993972 C153.232829,69.7873743 153.348748,69.155431 153.747369,68.661871 C154.123102,68.191834 154.777508,67.8868822 155.388472,67.8868822 C157.331348,67.8868822 158.339024,70.515529 158.339024,72.206221 C158.339024,72.6292119 158.292402,73.3787704 157.753703,73.920648 C157.37691,74.2965928 156.74645,74.5767501 156.161129,74.5767501 L156.161129,74.5767501 Z M156.184228,84.0162707 C153.678071,84.0162707 152.061975,82.8174433 152.061975,81.1504862 C152.061975,79.483953 153.560456,78.9202477 154.076055,78.7335468 C155.059361,78.4027408 156.324731,78.3565424 156.535803,78.3565424 C156.769973,78.3565424 156.887165,78.3565424 157.073654,78.3800655 C158.855259,79.6479785 159.628553,80.2799218 159.628553,81.4802326 C159.628553,82.933787 158.43354,84.0162707 156.184228,84.0162707 Z M165.145023,74.5409357 L165.145023,72.1939297 L163.985825,72.1939297 L163.985825,74.5409357 L161.642633,74.5409357 L161.642633,75.7130613 L163.985825,75.7130613 L163.985825,78.0744779 L165.145023,78.0744779 L165.145023,75.7130613 L167.500082,75.7130613 L167.500082,74.5409357 L165.145023,74.5409357 Z" id="Shape"></path>
                </g>
            </g>
        </g>
    </g>
</svg>
