<?xml version="1.0" encoding="UTF-8" standalone="no"?>
<svg width="162px" height="52px" viewBox="0 0 162 52" version="1.1" xmlns="http://www.w3.org/2000/svg" xmlns:xlink="http://www.w3.org/1999/xlink" xmlns:sketch="http://www.bohemiancoding.com/sketch/ns">
										    <g id="Page-1" stroke="none" stroke-width="1" fill="none" fill-rule="evenodd" sketch:type="MSPage">
										        <g id="gplay" sketch:type="MSLayerGroup" transform="translate(1.000000, 1.000000)">
										            <rect id="Rectangle-20" stroke="#FFFFFF" sketch:type="MSShapeGroup" x="0" y="0" width="160" height="50" rx="4"></rect>
										            <path d="M133.689,18.436 L133.689,15.44 C133.689,15.049 133.739,14.71 133.838,14.423 C133.939,14.135 134.072,13.899 134.238,13.711 C134.404,13.525 134.593,13.385 134.806,13.293 C135.018,13.203 135.237,13.157 135.461,13.157 C135.769,13.157 136.025,13.207 136.228,13.306 C136.432,13.406 136.594,13.545 136.715,13.724 C136.835,13.903 136.921,14.117 136.971,14.367 C137.021,14.617 137.046,14.895 137.046,15.203 L137.046,18.436 L137.895,18.436 L137.895,14.854 C137.895,14.129 137.71,13.547 137.339,13.106 C136.969,12.665 136.414,12.445 135.673,12.445 C135.257,12.445 134.862,12.551 134.488,12.763 C134.113,12.975 133.842,13.251 133.676,13.593 L133.652,13.593 C133.652,13.468 133.647,13.31 133.639,13.119 C133.63,12.927 133.618,12.753 133.601,12.594 L132.791,12.594 C132.807,12.794 132.82,13.019 132.828,13.268 C132.836,13.518 132.84,13.722 132.84,13.88 L132.84,18.436 L133.689,18.436 Z M125.845,14.598 C125.949,14.31 126.097,14.061 126.289,13.849 C126.48,13.636 126.71,13.468 126.981,13.344 C127.252,13.219 127.557,13.157 127.898,13.157 C128.24,13.157 128.547,13.219 128.822,13.344 C129.096,13.468 129.33,13.636 129.521,13.849 C129.712,14.061 129.86,14.31 129.963,14.598 C130.068,14.885 130.12,15.191 130.12,15.515 C130.12,15.839 130.068,16.145 129.963,16.432 C129.86,16.719 129.712,16.968 129.521,17.181 C129.33,17.393 129.096,17.56 128.822,17.68 C128.547,17.801 128.24,17.861 127.898,17.861 C127.557,17.861 127.252,17.801 126.981,17.68 C126.71,17.56 126.48,17.393 126.289,17.181 C126.097,16.968 125.949,16.719 125.845,16.432 C125.742,16.145 125.689,15.839 125.689,15.515 C125.689,15.191 125.742,14.885 125.845,14.598 L125.845,14.598 Z M125.665,17.711 C125.939,17.986 126.267,18.201 126.65,18.354 C127.033,18.508 127.449,18.585 127.898,18.585 C128.356,18.585 128.776,18.508 129.159,18.354 C129.542,18.201 129.87,17.986 130.145,17.711 C130.419,17.437 130.633,17.112 130.788,16.739 C130.941,16.364 131.018,15.956 131.018,15.515 C131.018,15.074 130.941,14.666 130.788,14.292 C130.633,13.917 130.419,13.593 130.145,13.319 C129.87,13.044 129.542,12.83 129.159,12.676 C128.776,12.522 128.356,12.445 127.898,12.445 C127.449,12.445 127.033,12.522 126.65,12.676 C126.267,12.83 125.939,13.044 125.665,13.319 C125.39,13.593 125.175,13.917 125.022,14.292 C124.868,14.666 124.791,15.074 124.791,15.515 C124.791,15.956 124.868,16.364 125.022,16.739 C125.175,17.112 125.39,17.437 125.665,17.711 L125.665,17.711 Z M119.225,16.432 C119.125,16.719 118.981,16.968 118.794,17.181 C118.607,17.393 118.376,17.56 118.101,17.68 C117.827,17.801 117.515,17.861 117.166,17.861 C116.841,17.861 116.542,17.801 116.267,17.68 C115.993,17.56 115.755,17.395 115.555,17.187 C115.356,16.98 115.2,16.732 115.087,16.445 C114.975,16.158 114.919,15.848 114.919,15.515 C114.919,15.182 114.975,14.873 115.087,14.585 C115.2,14.297 115.356,14.049 115.555,13.836 C115.755,13.624 115.993,13.457 116.267,13.337 C116.542,13.216 116.841,13.157 117.166,13.157 C117.515,13.157 117.827,13.219 118.101,13.344 C118.376,13.468 118.607,13.636 118.794,13.849 C118.981,14.061 119.125,14.31 119.225,14.598 C119.325,14.885 119.375,15.191 119.375,15.515 C119.375,15.839 119.325,16.145 119.225,16.432 L119.225,16.432 Z M119.443,13.331 C119.181,13.056 118.865,12.84 118.495,12.682 C118.125,12.524 117.71,12.445 117.253,12.445 C116.836,12.445 116.427,12.542 116.024,12.738 C115.62,12.934 115.297,13.223 115.056,13.605 L115.019,13.605 L115.019,12.594 L114.17,12.594 L114.17,21.43 L115.019,21.43 L115.019,17.45 L115.056,17.45 C115.297,17.816 115.62,18.096 116.024,18.291 C116.427,18.487 116.836,18.585 117.253,18.585 C117.71,18.585 118.125,18.505 118.495,18.348 C118.865,18.19 119.181,17.974 119.443,17.699 C119.706,17.424 119.909,17.1 120.054,16.726 C120.2,16.351 120.273,15.948 120.273,15.515 C120.273,15.082 120.2,14.679 120.054,14.304 C119.909,13.93 119.706,13.605 119.443,13.331 L119.443,13.331 Z M111.3,16.432 C111.201,16.719 111.056,16.968 110.87,17.181 C110.682,17.393 110.452,17.56 110.177,17.68 C109.902,17.801 109.59,17.861 109.241,17.861 C108.917,17.861 108.617,17.801 108.342,17.68 C108.068,17.56 107.831,17.395 107.63,17.187 C107.431,16.98 107.275,16.732 107.163,16.445 C107.05,16.158 106.995,15.848 106.995,15.515 C106.995,15.182 107.05,14.873 107.163,14.585 C107.275,14.297 107.431,14.049 107.63,13.836 C107.831,13.624 108.068,13.457 108.342,13.337 C108.617,13.216 108.917,13.157 109.241,13.157 C109.59,13.157 109.902,13.219 110.177,13.344 C110.452,13.468 110.682,13.636 110.87,13.849 C111.056,14.061 111.201,14.31 111.3,14.598 C111.4,14.885 111.45,15.191 111.45,15.515 C111.45,15.839 111.4,16.145 111.3,16.432 L111.3,16.432 Z M112.13,16.726 C112.275,16.351 112.348,15.948 112.348,15.515 C112.348,15.082 112.275,14.679 112.13,14.304 C111.984,13.93 111.781,13.605 111.518,13.331 C111.256,13.056 110.94,12.84 110.57,12.682 C110.2,12.524 109.786,12.445 109.328,12.445 C108.912,12.445 108.502,12.542 108.099,12.738 C107.695,12.934 107.373,13.223 107.131,13.605 L107.094,13.605 L107.094,12.594 L106.246,12.594 L106.246,21.43 L107.094,21.43 L107.094,17.45 L107.131,17.45 C107.373,17.816 107.695,18.096 108.099,18.291 C108.502,18.487 108.912,18.585 109.328,18.585 C109.786,18.585 110.2,18.505 110.57,18.348 C110.94,18.19 111.256,17.974 111.518,17.699 C111.781,17.424 111.984,17.1 112.13,16.726 L112.13,16.726 Z M100.293,16.115 C100.476,15.948 100.71,15.821 100.998,15.733 C101.285,15.646 101.605,15.588 101.959,15.559 C102.312,15.53 102.664,15.515 103.013,15.515 L103.263,15.515 L103.263,15.952 C103.263,16.209 103.221,16.456 103.138,16.688 C103.055,16.921 102.934,17.127 102.776,17.306 C102.618,17.485 102.422,17.626 102.19,17.73 C101.957,17.834 101.691,17.886 101.391,17.886 C101.224,17.886 101.06,17.868 100.898,17.83 C100.736,17.792 100.587,17.73 100.455,17.643 C100.322,17.555 100.215,17.441 100.136,17.299 C100.057,17.159 100.018,16.984 100.018,16.776 C100.018,16.5 100.11,16.28 100.293,16.115 L100.293,16.115 Z M99.825,18.185 C100.02,18.327 100.237,18.428 100.474,18.492 C100.71,18.553 100.942,18.585 101.167,18.585 C101.64,18.585 102.046,18.499 102.383,18.33 C102.72,18.16 103.021,17.877 103.288,17.487 L103.313,17.487 C103.313,17.645 103.321,17.807 103.337,17.974 C103.354,18.14 103.376,18.294 103.4,18.436 L104.162,18.436 C104.128,18.269 104.103,18.065 104.086,17.824 C104.07,17.582 104.062,17.349 104.062,17.124 L104.062,14.567 C104.062,14.208 104.003,13.897 103.887,13.63 C103.77,13.365 103.608,13.144 103.4,12.969 C103.192,12.794 102.951,12.664 102.676,12.576 C102.402,12.489 102.106,12.445 101.791,12.445 C101.291,12.445 100.843,12.524 100.449,12.682 C100.053,12.84 99.735,13.04 99.494,13.281 L99.968,13.843 C100.176,13.634 100.43,13.468 100.73,13.344 C101.029,13.219 101.353,13.157 101.703,13.157 C102.21,13.157 102.597,13.281 102.864,13.528 C103.129,13.776 103.263,14.152 103.263,14.655 L103.263,14.841 C102.73,14.841 102.216,14.86 101.722,14.898 C101.226,14.935 100.788,15.018 100.405,15.148 C100.022,15.277 99.716,15.473 99.488,15.737 C99.259,15.999 99.144,16.356 99.144,16.807 C99.144,17.132 99.209,17.408 99.338,17.633 C99.466,17.859 99.629,18.042 99.825,18.185 L99.825,18.185 Z M89.135,14.598 C89.236,14.31 89.379,14.061 89.566,13.849 C89.753,13.636 89.984,13.468 90.259,13.344 C90.534,13.219 90.845,13.157 91.195,13.157 C91.519,13.157 91.819,13.216 92.093,13.337 C92.368,13.457 92.605,13.624 92.804,13.836 C93.004,14.049 93.161,14.297 93.273,14.585 C93.385,14.873 93.441,15.182 93.441,15.515 C93.441,15.848 93.385,16.158 93.273,16.445 C93.161,16.732 93.004,16.98 92.804,17.187 C92.605,17.395 92.368,17.56 92.093,17.68 C91.819,17.801 91.519,17.861 91.195,17.861 C90.845,17.861 90.534,17.801 90.259,17.68 C89.984,17.56 89.753,17.393 89.566,17.181 C89.379,16.968 89.236,16.719 89.135,16.432 C89.036,16.145 88.986,15.839 88.986,15.515 C88.986,15.191 89.036,14.885 89.135,14.598 L89.135,14.598 Z M88.918,17.699 C89.179,17.974 89.496,18.19 89.866,18.348 C90.236,18.505 90.65,18.585 91.107,18.585 C91.532,18.585 91.944,18.49 92.343,18.298 C92.743,18.107 93.067,17.824 93.316,17.45 L93.341,17.45 L93.341,18.436 L94.19,18.436 L94.19,9 L93.341,9 L93.341,13.605 L93.316,13.605 C93.067,13.223 92.743,12.934 92.343,12.738 C91.944,12.542 91.532,12.445 91.107,12.445 C90.65,12.445 90.236,12.524 89.866,12.682 C89.496,12.84 89.179,13.056 88.918,13.331 C88.655,13.605 88.451,13.93 88.306,14.304 C88.16,14.679 88.087,15.082 88.087,15.515 C88.087,15.948 88.16,16.351 88.306,16.726 C88.451,17.1 88.655,17.424 88.918,17.699 L88.918,17.699 Z M85.404,18.436 L86.253,18.436 L86.253,12.594 L85.404,12.594 L85.404,18.436 Z M85.829,10.947 C85.978,10.947 86.116,10.891 86.24,10.779 C86.365,10.666 86.427,10.523 86.427,10.348 C86.427,10.173 86.365,10.03 86.24,9.917 C86.116,9.805 85.978,9.749 85.829,9.749 C85.679,9.749 85.542,9.805 85.417,9.917 C85.292,10.03 85.229,10.173 85.229,10.348 C85.229,10.523 85.292,10.666 85.417,10.779 C85.542,10.891 85.679,10.947 85.829,10.947 L85.829,10.947 Z M78.397,14.598 C78.501,14.31 78.648,14.061 78.839,13.849 C79.031,13.636 79.262,13.468 79.533,13.344 C79.802,13.219 80.109,13.157 80.45,13.157 C80.791,13.157 81.099,13.219 81.374,13.344 C81.648,13.468 81.88,13.636 82.072,13.849 C82.263,14.061 82.411,14.31 82.515,14.598 C82.619,14.885 82.671,15.191 82.671,15.515 C82.671,15.839 82.619,16.145 82.515,16.432 C82.411,16.719 82.263,16.968 82.072,17.181 C81.88,17.393 81.648,17.56 81.374,17.68 C81.099,17.801 80.791,17.861 80.45,17.861 C80.109,17.861 79.802,17.801 79.533,17.68 C79.262,17.56 79.031,17.393 78.839,17.181 C78.648,16.968 78.501,16.719 78.397,16.432 C78.293,16.145 78.241,15.839 78.241,15.515 C78.241,15.191 78.293,14.885 78.397,14.598 L78.397,14.598 Z M78.215,17.711 C78.49,17.986 78.819,18.201 79.202,18.354 C79.585,18.508 80.001,18.585 80.45,18.585 C80.907,18.585 81.328,18.508 81.71,18.354 C82.092,18.201 82.421,17.986 82.696,17.711 C82.97,17.437 83.185,17.112 83.338,16.739 C83.493,16.364 83.57,15.956 83.57,15.515 C83.57,15.074 83.493,14.666 83.338,14.292 C83.185,13.917 82.97,13.593 82.696,13.319 C82.421,13.044 82.092,12.83 81.71,12.676 C81.328,12.522 80.907,12.445 80.45,12.445 C80.001,12.445 79.585,12.522 79.202,12.676 C78.819,12.83 78.49,13.044 78.215,13.319 C77.941,13.593 77.727,13.917 77.573,14.292 C77.419,14.666 77.342,15.074 77.342,15.515 C77.342,15.956 77.419,16.364 77.573,16.739 C77.727,17.112 77.941,17.437 78.215,17.711 L78.215,17.711 Z M74.347,18.436 L74.347,15.448 C74.347,15.057 74.395,14.723 74.491,14.445 C74.586,14.167 74.71,13.939 74.865,13.76 C75.019,13.582 75.2,13.452 75.408,13.369 C75.616,13.285 75.833,13.244 76.057,13.244 C76.173,13.244 76.29,13.251 76.406,13.268 C76.523,13.286 76.606,13.302 76.656,13.319 L76.768,12.507 C76.676,12.483 76.587,12.465 76.5,12.457 C76.413,12.45 76.314,12.445 76.207,12.445 C75.791,12.445 75.416,12.551 75.084,12.763 C74.751,12.975 74.501,13.251 74.335,13.593 L74.309,13.593 C74.309,13.468 74.305,13.31 74.297,13.119 C74.289,12.927 74.276,12.753 74.259,12.594 L73.449,12.594 C73.465,12.794 73.478,13.019 73.486,13.268 C73.494,13.518 73.499,13.722 73.499,13.88 L73.499,18.436 L74.347,18.436 Z M66.172,14.598 C66.273,14.31 66.416,14.061 66.603,13.849 C66.791,13.636 67.021,13.468 67.296,13.344 C67.571,13.219 67.882,13.157 68.232,13.157 C68.556,13.157 68.856,13.216 69.13,13.337 C69.405,13.457 69.642,13.624 69.841,13.836 C70.042,14.049 70.198,14.297 70.31,14.585 C70.422,14.873 70.478,15.182 70.478,15.515 C70.478,15.848 70.422,16.158 70.31,16.445 C70.198,16.732 70.042,16.98 69.841,17.187 C69.642,17.395 69.405,17.56 69.13,17.68 C68.856,17.801 68.556,17.861 68.232,17.861 C67.882,17.861 67.571,17.801 67.296,17.68 C67.021,17.56 66.791,17.393 66.603,17.181 C66.416,16.968 66.273,16.719 66.172,16.432 C66.073,16.145 66.023,15.839 66.023,15.515 C66.023,15.191 66.073,14.885 66.172,14.598 L66.172,14.598 Z M65.955,17.699 C66.216,17.974 66.533,18.19 66.903,18.348 C67.273,18.505 67.687,18.585 68.144,18.585 C68.569,18.585 68.981,18.49 69.38,18.298 C69.78,18.107 70.104,17.824 70.353,17.45 L70.378,17.45 L70.378,18.436 L71.227,18.436 L71.227,9 L70.378,9 L70.378,13.605 L70.353,13.605 C70.104,13.223 69.78,12.934 69.38,12.738 C68.981,12.542 68.569,12.445 68.144,12.445 C67.687,12.445 67.273,12.524 66.903,12.682 C66.533,12.84 66.216,13.056 65.955,13.331 C65.692,13.605 65.488,13.93 65.343,14.304 C65.197,14.679 65.125,15.082 65.125,15.515 C65.125,15.948 65.197,16.351 65.343,16.726 C65.488,17.1 65.692,17.424 65.955,17.699 L65.955,17.699 Z M63.352,18.436 L63.352,14.854 C63.352,14.129 63.168,13.547 62.796,13.106 C62.426,12.665 61.872,12.445 61.13,12.445 C60.714,12.445 60.32,12.551 59.945,12.763 C59.571,12.975 59.3,13.251 59.134,13.593 L59.109,13.593 C59.109,13.468 59.105,13.31 59.096,13.119 C59.088,12.927 59.076,12.753 59.059,12.594 L58.248,12.594 C58.265,12.794 58.277,13.019 58.286,13.268 C58.293,13.518 58.298,13.722 58.298,13.88 L58.298,18.436 L59.146,18.436 L59.146,15.44 C59.146,15.049 59.197,14.71 59.296,14.423 C59.396,14.135 59.529,13.899 59.696,13.711 C59.862,13.525 60.051,13.385 60.263,13.293 C60.476,13.203 60.694,13.157 60.918,13.157 C61.226,13.157 61.482,13.207 61.686,13.306 C61.89,13.406 62.052,13.545 62.173,13.724 C62.293,13.903 62.378,14.117 62.429,14.367 C62.479,14.617 62.503,14.895 62.503,15.203 L62.503,18.436 L63.352,18.436 Z M52.794,10.597 L54.741,15.29 L50.847,15.29 L52.794,10.597 Z M50.51,16.115 L55.078,16.115 L56.051,18.436 L57.05,18.436 L53.256,9.6 L52.382,9.6 L48.564,18.436 L49.549,18.436 L50.51,16.115 Z M33.997,19.734 L18.755,11.212 C18.755,11.212 18.5,11.086 18.193,11.086 C18.132,11.086 18.074,11.091 18.017,11.101 L30.175,23.511 L33.997,19.734 Z M17.226,11.666 C17.226,11.666 17.044,12.033 17,12.209 L17,36.413 C17,36.414 17.184,36.951 17.184,36.951 L29.439,24.165 L17.226,11.666 Z M18.006,37.47 C18.456,37.507 18.919,37.261 19.736,36.801 L34.037,28.789 L30.178,24.877 L18.006,37.47 Z M39.721,22.934 L34.748,20.155 L30.876,24.165 L31.872,25.243 L34.881,28.316 L40.185,25.344 C40.201,25.336 40.987,24.991 40.987,24.378 C40.987,23.8 40.644,23.409 39.721,22.934 L39.721,22.934 Z M141.138,28.202 L137.575,36.185 L134.012,28.143 L132.99,28.156 L137.064,37.235 C137.064,37.235 136.374,38.824 135.902,39.54 C135.429,40.254 134.122,40.081 133.954,40.081 L133.954,40.827 L135.164,40.827 C135.164,40.827 136.205,40.874 136.885,39.521 L142.055,28.202 L141.138,28.202 Z M130.758,34.395 C130.758,34.395 130.113,35.64 128.343,36.273 C126.576,36.906 125.201,36.136 125.122,34.93 C125.043,33.723 126.714,32.957 127.716,32.957 L130.758,32.957 L130.758,34.395 Z M131.599,35.915 L131.599,30.576 C131.599,30.576 131.391,27.726 128.247,27.726 C124.815,27.726 124.474,30.498 124.474,30.498 L125.418,30.498 C125.418,30.498 125.756,28.62 128.062,28.569 C130.368,28.518 130.758,30.32 130.758,30.78 L130.758,32.136 L127.619,32.136 C127.619,32.136 125.156,32.071 124.291,33.961 C123.426,35.853 125.127,37.762 127.538,37.43 C129.949,37.097 130.758,35.762 130.758,35.762 L130.758,36.707 C130.758,36.707 130.919,37.383 131.26,37.383 L132.204,37.383 C132.204,37.383 131.599,37.04 131.599,35.915 L131.599,35.915 Z M115.729,27.766 C114.72,27.801 112.866,28.187 111.857,29.344 L111.857,30.915 C112.193,30.336 113.234,28.898 115.074,28.816 C117.379,28.714 118.416,31.266 118.285,33.08 C118.154,34.894 117.089,36.657 115.255,36.657 C113.67,36.657 112.362,35.416 111.857,34.551 L111.857,35.983 C112.362,36.537 113.672,37.608 115.366,37.55 C117.645,37.474 119.584,35.353 119.322,32.032 C119.144,29.772 117.989,27.685 115.729,27.766 L115.729,27.766 Z M121.174,37.383 L122.351,37.383 L122.351,24.429 L121.174,24.429 L121.174,37.383 Z M111.698,34.178 C111.737,34.29 111.857,34.415 111.857,34.551 L111.857,30.915 C111.857,31.061 111.75,31.154 111.75,31.154 L111.713,29.529 C111.764,29.464 111.857,29.404 111.857,29.344 L111.857,28.202 L110.848,28.202 L110.848,40.664 L111.857,40.664 L111.857,35.983 C111.689,35.79 111.584,35.661 111.584,35.661 L111.698,34.178 Z M100.501,29.426 C101.812,27.79 104.117,28.66 104.458,30.244 L100.058,32.364 C99.845,31.232 99.953,30.111 100.501,29.426 L100.501,29.426 Z M102.519,36.018 C101.271,35.528 100.354,33.935 100.058,32.365 C100.071,32.366 101.01,32.437 102.65,31.878 C104.3,31.317 106.422,30.32 106.422,30.32 C106.422,30.32 105.244,27.536 102.074,28.046 C98.903,28.557 97.461,31.853 98.746,34.765 C100.03,37.678 104.431,38.369 106.58,35.635 C106.58,35.635 104.667,36.861 102.519,36.018 L102.519,36.018 Z M96.456,35.993 L96.456,23.831 L97.41,23.282 L94.607,23.282 L93.349,23.774 L94.774,23.774 L94.774,36.401 L93.905,37.056 L97.751,37.056 L98.537,36.564 L97.122,36.564 C97.122,36.564 96.456,36.478 96.456,35.993 L96.456,35.993 Z M90.021,33.872 C89.052,34.561 87.689,34.459 86.825,32.875 C85.96,31.291 86.17,29.298 87.873,28.864 C88.736,28.644 89.934,29.226 90.572,30.882 C91.279,32.722 90.5,33.532 90.021,33.872 L90.021,33.872 Z M91.724,39.365 C92.353,40.437 91.593,42.022 89.367,42.277 C87.139,42.533 85.542,41.434 85.41,40.081 C85.279,38.726 86.668,37.269 89.655,37.499 C89.655,37.499 91.095,38.291 91.724,39.365 L91.724,39.365 Z M88.79,28.202 C85.489,28.202 83.74,31.046 84.879,33.192 C86.019,35.338 88.632,34.907 88.632,34.907 C87.532,35.846 88.947,36.985 88.947,36.985 C83.956,36.948 82.542,40.429 84.427,42.001 C86.314,43.573 91.266,43.494 92.68,40.964 C94.095,38.434 92.249,37.207 91.226,36.479 C90.205,35.751 89.812,34.983 90.519,34.486 C91.226,33.987 92.563,32.991 92.563,31.496 C92.563,30.001 91.187,28.928 91.187,28.928 C92.876,29.006 93.664,28.202 93.664,28.202 L88.79,28.202 Z M79.789,36.556 C78.158,36.99 76.336,35.545 75.719,33.332 C75.102,31.119 75.922,28.975 77.552,28.542 C79.182,28.11 81.003,29.554 81.622,31.766 C82.239,33.979 81.418,36.124 79.789,36.556 L79.789,36.556 Z M78.67,27.817 C75.837,27.817 73.542,29.936 73.542,32.549 C73.542,35.164 75.837,37.283 78.67,37.283 C81.502,37.283 83.798,35.164 83.798,32.549 C83.798,29.936 81.502,27.817 78.67,27.817 L78.67,27.817 Z M68.941,36.556 C67.311,36.99 65.49,35.545 64.873,33.332 C64.254,31.119 65.076,28.975 66.706,28.542 C68.335,28.11 70.157,29.554 70.774,31.766 C71.392,33.979 70.571,36.124 68.941,36.556 L68.941,36.556 Z M67.824,27.817 C64.991,27.817 62.695,29.936 62.695,32.549 C62.695,35.164 64.991,37.283 67.824,37.283 C70.656,37.283 72.952,35.164 72.952,32.549 C72.952,29.936 70.656,27.817 67.824,27.817 L67.824,27.817 Z M56.878,33.449 L59.798,33.449 L59.798,36.325 C54.418,38.355 50.973,34.024 50.541,30.805 C50.109,27.585 52.419,24.632 55.406,24.632 C58.393,24.632 59.69,26.394 59.69,26.394 L59.308,27.309 L61.537,25.498 C53.854,20.727 47.634,27.088 48.539,31.802 C49.443,36.515 53.84,37.512 56.473,37.512 C59.106,37.512 61.648,36.401 61.648,36.401 L61.648,33.296 L62.223,32.628 L58.214,32.628 L56.878,33.449 Z" id="Fill-1" fill="#FFFFFF" sketch:type="MSShapeGroup"></path>
										        </g>
										    </g>
										</svg>
