<?xml version="1.0" encoding="UTF-8" standalone="no"?>
<svg width="36px" height="36px" viewBox="0 0 36 36" version="1.1" xmlns="http://www.w3.org/2000/svg" xmlns:xlink="http://www.w3.org/1999/xlink" xmlns:sketch="http://www.bohemiancoding.com/sketch/ns">
    <!-- Generator: Sketch 3.4.4 (17249) - http://www.bohemiancoding.com/sketch -->
    <title>Slice 1</title>
    <desc>Created with Sketch.</desc>
    <defs></defs>
    <g id="Page-1" stroke="none" stroke-width="1" fill="none" fill-rule="evenodd" sketch:type="MSPage">
        <circle id="Oval-81" fill="#2B5B83" sketch:type="MSShapeGroup" cx="18" cy="18" r="18"></circle>
        <path d="M13.4579905,16.9508197 L11.704918,16.9508197 L11.704918,23.5091173 C11.704918,23.9408529 12.0575256,24.295082 12.4924892,24.295082 L23.5075108,24.295082 C23.9452085,24.295082 24.295082,23.9431936 24.295082,23.5091173 L24.295082,16.9508197 L22.8043045,16.9508197 C22.9211326,17.3679734 22.9836066,17.8078385 22.9836066,18.2622951 C22.9836066,20.9422342 20.8110867,23.1147541 18.1311475,23.1147541 C15.4512084,23.1147541 13.2786885,20.9422342 13.2786885,18.2622951 C13.2786885,17.8078385 13.3411624,17.3679734 13.4579905,16.9508197 Z M21.7084142,14.9836066 L23.7753296,14.9836066 C24.0687186,14.9836066 24.295082,14.7509055 24.295082,14.4638542 L24.295082,12.355818 C24.295082,12.062429 24.0623809,11.8360656 23.7753296,11.8360656 L21.6672934,11.8360656 C21.3739044,11.8360656 21.147541,12.0687666 21.147541,12.355818 L21.147541,14.4610356 C21.3479913,14.6203109 21.5355548,14.795107 21.7084142,14.9836066 Z M10,11.8354034 C10,10.8217381 10.8154392,10 11.8354034,10 L24.1645966,10 C25.1782619,10 26,10.8154392 26,11.8354034 L26,24.1645966 C26,25.1782619 25.1845608,26 24.1645966,26 L11.8354034,26 C10.8217381,26 10,25.1845608 10,24.1645966 L10,11.8354034 Z M18.1311475,21.5409836 C19.9419172,21.5409836 21.4098361,20.0730648 21.4098361,18.2622951 C21.4098361,16.4515254 19.9419172,14.9836066 18.1311475,14.9836066 C16.3203779,14.9836066 14.852459,16.4515254 14.852459,18.2622951 C14.852459,20.0730648 16.3203779,21.5409836 18.1311475,21.5409836 Z" id="Rectangle-521" fill="#FFFFFF" sketch:type="MSShapeGroup"></path>
    </g>
</svg>