<?xml version="1.0" encoding="UTF-8" standalone="no"?>
<svg width="14px" height="14px" viewBox="0 0 14 14" version="1.1" xmlns="http://www.w3.org/2000/svg" xmlns:xlink="http://www.w3.org/1999/xlink" xmlns:sketch="http://www.bohemiancoding.com/sketch/ns">
    <!-- Generator: Sketch 3.4.4 (17249) - http://www.bohemiancoding.com/sketch -->
    <title>Fill 6</title>
    <desc>Created with Sketch.</desc>
    <defs></defs>
    <g id="Page-1" stroke="none" stroke-width="1" fill="none" fill-rule="evenodd" sketch:type="MSPage">
        <g id="16-contacts" sketch:type="MSArtboardGroup" transform="translate(-712.000000, -1638.000000)" fill="#126BEE">
            <g id="Footer" sketch:type="MSLayerGroup" transform="translate(250.000000, 1440.000000)">
                <g id="Social" transform="translate(459.000000, 68.000000)" sketch:type="MSShapeGroup">
                    <path d="M9.743,134.14 C8.322,134.14 7.171,135.291 7.171,136.712 C7.171,138.134 8.322,139.284 9.743,139.284 C11.164,139.284 12.315,138.134 12.315,136.712 C12.315,135.291 11.164,134.14 9.743,134.14 M13.897,133.392 C13.422,133.392 13.036,133.006 13.036,132.53 C13.036,132.055 13.422,131.668 13.897,131.668 C14.373,131.668 14.759,132.055 14.759,132.53 C14.759,133.006 14.373,133.392 13.897,133.392 M9.743,140.874 C7.428,140.874 5.55,138.997 5.55,136.68 C5.55,134.366 7.428,132.487 9.743,132.487 C12.059,132.487 13.936,134.366 13.936,136.68 C13.936,138.997 12.059,140.874 9.743,140.874 M14.281,130 L5.183,130 C3.977,130 3,130.977 3,132.184 L3,141.27 C3,142.477 3.977,143.454 5.183,143.454 L14.281,143.454 C15.488,143.454 16.466,142.477 16.466,141.27 L16.466,132.184 C16.466,130.977 15.488,130 14.281,130" id="Fill-6"></path>
                </g>
            </g>
        </g>
    </g>
</svg>