<?xml version="1.0" encoding="UTF-8" standalone="no"?>
<svg width="36px" height="36px" viewBox="0 0 36 36" version="1.1" xmlns="http://www.w3.org/2000/svg" xmlns:xlink="http://www.w3.org/1999/xlink" xmlns:sketch="http://www.bohemiancoding.com/sketch/ns">
    <!-- Generator: Sketch 3.4.4 (17249) - http://www.bohemiancoding.com/sketch -->
    <title>Slice 1</title>
    <desc>Created with Sketch.</desc>
    <defs></defs>
    <g id="Page-1" stroke="none" stroke-width="1" fill="none" fill-rule="evenodd" sketch:type="MSPage">
        <circle id="Oval-81" fill="#2B5B83" sketch:type="MSShapeGroup" cx="18" cy="18" r="18"></circle>
        <g id="instagram-glyph" sketch:type="MSLayerGroup" transform="translate(10.000000, 10.000000)" fill="#F3F2F2">
            <g id="Layer_1" sketch:type="MSShapeGroup">
                <path d="M14.9325614,7.14059649 L13.4631053,7.14059649 C13.5701754,7.55620175 13.6334035,7.99044737 13.6334035,8.43945614 C13.6334035,11.3082807 11.3082807,13.6334035 8.43990351,13.6334035 C5.57167544,13.6334035 3.24640351,11.3082807 3.24640351,8.43945614 C3.24640351,7.99044737 3.30992982,7.55620175 3.417,7.14059649 L1.94739474,7.14059649 L1.94739474,14.2825351 C1.94739474,14.6405789 2.23818421,14.9312193 2.59727193,14.9312193 L14.2826842,14.9312193 C14.6417719,14.9312193 14.9325614,14.6407281 14.9325614,14.2825351 L14.9325614,7.14059649 L14.9325614,7.14059649 Z M14.9325614,2.59637719 C14.9325614,2.23803509 14.6417719,1.94724561 14.2826842,1.94724561 L12.3354386,1.94724561 C11.9767982,1.94724561 11.6861579,2.23803509 11.6861579,2.59637719 L11.6861579,4.54436842 C11.6861579,4.90271053 11.9766491,5.1935 12.3354386,5.1935 L14.2826842,5.1935 C14.6417719,5.1935 14.9325614,4.90271053 14.9325614,4.54436842 L14.9325614,2.59637719 L14.9325614,2.59637719 Z M8.43975439,5.1935 C6.64685088,5.1935 5.19364912,6.64655263 5.19364912,8.43945614 C5.19364912,10.2320614 6.64685088,11.6858596 8.43975439,11.6858596 C10.2326579,11.6858596 11.6861579,10.2320614 11.6861579,8.43945614 C11.6861579,6.64655263 10.2326579,5.1935 8.43975439,5.1935 L8.43975439,5.1935 Z M14.9325614,16.8795088 L1.94724561,16.8795088 C0.871921053,16.8795088 0,16.0072895 0,14.9310702 L0,1.94724561 C0,0.87177193 0.871921053,0 1.94724561,0 L14.9325614,0 C16.0080351,0 16.879807,0.87177193 16.879807,1.94724561 L16.879807,14.9310702 C16.8796579,16.0072895 16.0080351,16.8795088 14.9325614,16.8795088 L14.9325614,16.8795088 Z" id="Shape"></path>
            </g>
        </g>
    </g>
</svg>