<?xml version="1.0" encoding="UTF-8" standalone="no"?>
<svg width="36px" height="36px" viewBox="0 0 36 36" version="1.1" xmlns="http://www.w3.org/2000/svg" xmlns:xlink="http://www.w3.org/1999/xlink" xmlns:sketch="http://www.bohemiancoding.com/sketch/ns">
    <g id="Page-1" stroke="none" stroke-width="1" fill="none" fill-rule="evenodd" sketch:type="MSPage">
        <g id="Oval-81-+-Fill-6" sketch:type="MSLayerGroup">
            <circle id="Oval-81" fill="#2B5B83" sketch:type="MSShapeGroup" cx="18" cy="18" r="18"></circle>
            <path d="M17.743,15.14 C16.322,15.14 15.171,16.291 15.171,17.712 C15.171,19.134 16.322,20.284 17.743,20.284 C19.164,20.284 20.315,19.134 20.315,17.712 C20.315,16.291 19.164,15.14 17.743,15.14 M21.897,14.392 C21.422,14.392 21.036,14.006 21.036,13.53 C21.036,13.055 21.422,12.668 21.897,12.668 C22.373,12.668 22.759,13.055 22.759,13.53 C22.759,14.006 22.373,14.392 21.897,14.392 M17.743,21.874 C15.428,21.874 13.55,19.997 13.55,17.68 C13.55,15.366 15.428,13.487 17.743,13.487 C20.059,13.487 21.936,15.366 21.936,17.68 C21.936,19.997 20.059,21.874 17.743,21.874 M22.281,11 L13.183,11 C11.977,11 11,11.977 11,13.184 L11,22.27 C11,23.477 11.977,24.454 13.183,24.454 L22.281,24.454 C23.488,24.454 24.466,23.477 24.466,22.27 L24.466,13.184 C24.466,11.977 23.488,11 22.281,11" id="Fill-6" fill="#FFFFFF" sketch:type="MSShapeGroup"></path>
        </g>
    </g>
</svg>
