<?xml version="1.0" encoding="UTF-8" standalone="no"?>
<svg width="44px" height="30px" viewBox="0 0 44 30" version="1.1" xmlns="http://www.w3.org/2000/svg" xmlns:xlink="http://www.w3.org/1999/xlink" xmlns:sketch="http://www.bohemiancoding.com/sketch/ns">
										    <g id="Page-1" stroke="none" stroke-width="1" fill="none" fill-rule="evenodd" sketch:type="MSPage">
										        <path d="M4.3873586,16.3476849 C4.3873586,16.3476849 6.1451705,7.5451645 9.57037248,3.53690273 C12.9955745,-0.471359049 15.6605308,-0.0653387401 16.3354756,0.0916557802 C17.0104203,0.248650301 20.1416782,1.2630427 19.7612628,5.2171684 C19.3808474,9.17129411 13.5675144,14.2684208 8.55963795,17.5366294 C7.56075483,19.2362096 7.31011959,24.2080929 8.87874797,24.2080918 C10.4473763,24.2080906 11.5856964,21.1065356 12.3548671,19.744502 C13.1240378,18.3824684 15.216469,14.7436486 18.1695169,14.7436486 C21.1225648,14.7436485 22.2430345,17.2336133 22.0667266,18.586576 C23.2258232,18.7415226 24.8500507,16.7118589 26.2074022,15.727754 C27.5647537,14.7436491 30.8846099,13.1330276 32.6075992,17.7354696 C34.2524569,17.234346 34.5288434,16.2953051 35.1784759,15.4332253 C35.8281084,14.5711454 36.647611,14.2145779 37.7873941,15.1057748 C38.9271773,15.9969716 39.9752218,16.7841378 39.288133,17.8406691 C38.6010442,18.8972003 36.2200826,21.6060497 36.5545555,23.2929 C36.8890285,24.9797504 38.3090022,23.8591332 38.9826301,22.8014326 C40.4602514,23.2929006 40.9975151,24.3552833 40.9975151,24.3552833 C40.9975151,24.3552833 39.3713854,29.206311 35.8506407,29.2063115 C32.3298959,29.2063121 32.0883321,24.2872469 32.9782116,20.9119384 C32.3879824,20.911939 32.2756135,21.139895 32.2756135,21.139895 C32.2756135,21.139895 30.5941774,29.1467613 25.6500936,29.1467619 C20.7060099,29.1467624 21.566773,23.2779755 22.2610311,21.4259382 C21.566773,21.4259387 21.3866609,21.5939062 21.3866609,21.5939062 C21.3866609,21.5939062 19.5812971,29.0829495 15.1485795,29.0829691 C11.4127537,29.0829857 11.4127537,26.0090662 11.4127537,26.0090662 C11.4127537,26.0090662 10.2660938,29.1927038 7.95741107,29.0067397 C5.64872837,28.8207757 2.89949534,26.5093119 3.72294843,20.6264805 C2.46113972,21.1398956 1.5171242,22.4353553 0.323058706,20.8150788 C-0.871006791,19.1948023 1.62934676,18.0646752 1.62934676,18.0646752 L4.3873586,16.3476849 Z M14.6921298,7.80489924 C13.5407482,9.40187194 11.6967887,11.6287572 10.0646199,12.2966995 C10.244732,11.1103887 11.9974229,6.60290475 13.6757865,5.2590141 C14.4288544,4.65602147 15.0206213,4.61197655 15.4083046,4.80566451 C16.3157232,5.25901409 15.2863048,6.98077504 14.6921298,7.80489924 Z M17.2396938,19.0107392 C17.2396938,19.0107392 14.7939658,23.1171774 15.9332594,24.2227231 C17.072553,25.3282689 18.507355,21.5640582 18.507355,21.5640582 C18.507355,21.5640582 17.072553,20.7742573 17.2396938,19.0107392 Z M27.4278042,19.0107392 C27.4278042,19.0107392 24.9820762,23.1171774 26.1213698,24.2227231 C27.2606634,25.3282689 28.6954654,21.5640582 28.6954654,21.5640582 C28.6954654,21.5640582 27.2606634,20.7742573 27.4278042,19.0107392 Z M38.9497096,14.0201277 C38.9497096,14.0201277 37.6555656,13.3402083 38.7830584,11.2795272 C39.9105512,9.21884607 40.903289,8.22771757 41.9500168,8.84823365 C42.9967446,9.46874974 44.4974832,10.3366821 43.8381941,11.7651421 C43.178905,13.1936021 41.3183809,15.3318293 40.3535888,14.8029056 C39.3887967,14.2739819 38.9497096,14.0201277 38.9497096,14.0201277 Z" id="Path-6" fill-opacity="1" fill="#FFFFFF" sketch:type="MSShapeGroup"></path>
										    </g>
										</svg>
