<?xml version="1.0" encoding="UTF-8" standalone="no"?>
<svg width="14px" height="14px" viewBox="0 0 14 14" version="1.1" xmlns="http://www.w3.org/2000/svg" xmlns:xlink="http://www.w3.org/1999/xlink" xmlns:sketch="http://www.bohemiancoding.com/sketch/ns">
    <!-- Generator: Sketch 3.4.4 (17249) - http://www.bohemiancoding.com/sketch -->
    <title>Fill 10</title>
    <desc>Created with Sketch.</desc>
    <defs></defs>
    <g id="Page-1" stroke="none" stroke-width="1" fill="none" fill-rule="evenodd" sketch:type="MSPage">
        <g id="16-contacts" sketch:type="MSArtboardGroup" transform="translate(-860.000000, -1607.000000)" fill="#126BEE">
            <g id="Footer" sketch:type="MSLayerGroup" transform="translate(250.000000, 1440.000000)">
                <g id="Social" transform="translate(459.000000, 68.000000)" sketch:type="MSShapeGroup">
                    <path d="M160.136352,107.542388 C158.421352,107.167388 157.705352,106.278388 157.705352,106.278388 C156.965352,105.538388 156.686352,104.711388 156.462352,103.910388 C156.239352,103.110388 155.569352,103.089388 155.186352,103.153388 C154.803352,103.218388 154.147352,103.542388 154.350352,104.653388 C154.553352,105.765388 155.176352,106.690388 155.176352,106.690388 L152.167352,106.753388 C152.167352,106.753388 151.023352,106.790388 151.000352,107.878388 C150.978352,108.966388 151.994352,109.001388 151.994352,109.001388 L155.066352,108.959388 L155.004352,111.925388 C155.004352,111.925388 154.982352,113.027388 156.083352,113.005388 C157.186352,112.981388 157.230352,111.858388 157.230352,111.858388 L157.314352,108.828388 C157.802352,109.114388 158.711352,109.533388 159.455352,109.716388 C160.199352,109.897388 160.657352,109.331388 160.827352,108.925388 C160.998352,108.519388 160.852352,107.710388 160.136352,107.542388 M162.370352,103.858388 C161.707352,104.522388 160.668352,104.557388 160.049352,103.937388 C159.429352,103.317388 159.464352,102.278388 160.126352,101.616388 C160.789352,100.953388 161.828352,100.919388 162.448352,101.538388 C163.068352,102.157388 163.032352,103.196388 162.370352,103.858388 M163.977352,100.007388 C162.568352,98.5973879 160.201352,98.6773879 158.694352,100.185388 C157.187352,101.692388 157.108352,104.058388 158.518352,105.468388 C159.927352,106.878388 162.293352,106.798388 163.801352,105.291388 C165.308352,103.783388 165.387352,101.417388 163.977352,100.007388" id="Fill-10"></path>
                </g>
            </g>
        </g>
    </g>
</svg>