<?xml version="1.0" encoding="UTF-8" standalone="no"?>
<svg width="16px" height="12px" viewBox="0 0 16 12" version="1.1" xmlns="http://www.w3.org/2000/svg" xmlns:xlink="http://www.w3.org/1999/xlink" xmlns:sketch="http://www.bohemiancoding.com/sketch/ns">
    <!-- Generator: Sketch 3.4.4 (17249) - http://www.bohemiancoding.com/sketch -->
    <title>Slice 1</title>
    <desc>Created with Sketch.</desc>
    <defs></defs>
    <g id="Page-1" stroke="none" stroke-width="1" fill="none" fill-rule="evenodd" sketch:type="MSPage">
        <path d="M15,2 L12,2 C11.85072,2.21708108 11.34992,1.87945946 11,1 L11,1 C10.70608,0.339405405 10.20528,0 10,0 L6,0 C5.79488,0 5.29408,0.339405405 5,1 L5,1 C4.65008,1.87767568 4.14928,2.21610811 4,2 L1,2 C0.36,2.23410811 0,2.60091892 0,3 L0,11 C0,11.6281622 0.36,12 1,12 L15,12 C15.64,12 16,11.6281622 16,11 L16,3 C16,2.60091892 15.64,2.23443243 15,2 L15,2 Z M5.0402832,7 C5.0402832,4.91404764 6.34342264,4 8,4 C9.65687314,4 11.0402832,4.91508304 11.0402832,7 C11.0402832,8.22925324 10.2412109,10 8,10 C5.75878906,10 5.0402832,8.22806993 5.0402832,7 Z" id="Shape" fill="#FFFFFF" sketch:type="MSShapeGroup"></path>
    </g>
</svg>