<?xml version="1.0" encoding="UTF-8" standalone="no"?>
<svg width="718px" height="256px" viewBox="0 0 718 256" version="1.1" xmlns="http://www.w3.org/2000/svg" xmlns:xlink="http://www.w3.org/1999/xlink" xmlns:sketch="http://www.bohemiancoding.com/sketch/ns">
    <!-- Generator: Sketch 3.4.4 (17249) - http://www.bohemiancoding.com/sketch -->
    <title>Slice 1</title>
    <desc>Created with Sketch.</desc>
    <defs></defs>
    <g id="Page-1" stroke="none" stroke-width="1" fill="none" fill-rule="evenodd" sketch:type="MSPage">
        <g id="Icon" sketch:type="MSLayerGroup" transform="translate(0.000000, 1.000000)">
            <text id="Скалодром" opacity="0.5" sketch:type="MSTextLayer" font-family="SF UI Display" font-size="14" font-weight="normal" sketch:alignment="middle" fill="#FFFFFF">
                <tspan x="644.202148" y="236">Скалодром</tspan>
            </text>
            <g id="Mountain" transform="translate(662.000000, 149.000000)" stroke="#126BEE" sketch:type="MSShapeGroup" stroke-linejoin="round">
                <path d="M12.9794237,25.1143479 L5.82763692,45.0817857 C5.82763692,45.0817857 5.76124618,46.2033901 7.05751109,46.9325045 C8.353776,47.6627245 9.79907246,46.9325051 9.79907246,46.9325051 L16.3309184,32.3529791 C16.8510827,32.5016765 17.4204443,32.5685626 18.0063892,32.5685626 C18.5342924,32.5685626 19.0566678,32.4701681 19.5226598,32.2943846 L26.1875068,29.1816905 L28.7800295,36.8365617 C28.7800295,36.8365617 29.3084926,37.1638079 30.6169186,36.8365632 C31.9264502,36.5098713 32.0988772,35.3779283 32.0988772,35.3779283 L30.0973071,24.656648 C29.7706151,23.3476692 28.1747444,22.3294518 26.9398379,22.9264522 L22.2528314,25.1077151 L22.2567009,16.4932194 L30.6169188,1.9724121 C30.6169188,1.9724121 30.8888855,0.932512638 29.9132319,0.316164928 C28.9392367,-0.300735559 28.2009279,0.316164934 28.2009279,0.316164934 L20.0494575,12.2312993 L15.793618,12.2484355 C15.5222039,12.2451188 15.245262,12.2948688 14.9788229,12.4032134 L7.62521432,15.2809767 L3.17065426,9.54700791 C3.17065426,9.54700791 2.30362186,8.92292131 1.33349609,9.54700791 C0.363370327,10.1710945 0.651123045,11.3374027 0.651123045,11.3374027 L5.05479562,18.964138 C5.58601548,19.801597 6.6512191,20.1636667 7.60199763,19.7750636 L12.9805297,17.6700842 L12.9794241,25.1137956 L22.2533842,25.1137956 L12.9794237,25.1143479 Z" id="Shape" stroke-width="2"></path>
                <path d="M22.2533842,49.199448 L22.2533842,31.5669043" id="Path" stroke-linecap="round"></path>
                <path d="M22.2792969,24.7021484 C32.4338327,19.6630222 37.8981132,0 37.8981132,0" id="Path" stroke-linecap="round"></path>
                <path d="M13.0224812,6.6087867 C12.8010281,4.61570884 14.2404243,3 16.2469932,3 L16.9960166,3 C18.9983185,3 20.4427249,4.60901964 20.2205286,6.6087867 L19.8434373,10.0026083 C19.7208674,11.1057373 18.7232443,12 17.6235918,12 L15.619418,12 C14.5160011,12 13.5219652,11.1041422 13.3995725,10.0026083 L13.0224812,6.6087867 Z" id="Rectangle-681" stroke-width="2" transform="translate(16.621543, 7.500000) rotate(-9.000000) translate(-16.621543, -7.500000) "></path>
            </g>
            <text id="Лазертаг" opacity="0.5" sketch:type="MSTextLayer" font-family="SF UI Display" font-size="14" font-weight="normal" sketch:alignment="middle" fill="#FFFFFF">
                <tspan x="546.061035" y="236">Лазертаг</tspan>
            </text>
            <g id="Lasertag" transform="translate(551.000000, 148.000000)" stroke="#126BEE" sketch:type="MSShapeGroup" stroke-linecap="round" stroke-linejoin="round">
                <path d="M24.0595703,0.750976562 L24.0595703,49.1808382" id="Path-7786" stroke-width="2"></path>
                <path d="M48.4298617,25 L0,25" id="Path-7786" stroke-width="2"></path>
                <circle id="Oval-284" stroke-width="2" cx="24" cy="25" r="19"></circle>
                <circle id="Oval-284" cx="24" cy="25" r="6"></circle>
                <path d="M11.5,21 L11.5,29" id="Path-7788"></path>
                <path d="M35.5,21 L35.5,29" id="Path-7788"></path>
                <path d="M28,13 L20,13" id="Path-7788"></path>
                <path d="M28,37 L20,37" id="Path-7788"></path>
            </g>
            <text id="Йога" opacity="0.5" sketch:type="MSTextLayer" font-family="SF UI Display" font-size="14" font-weight="normal" sketch:alignment="middle" fill="#FFFFFF">
                <tspan x="450.030273" y="236">Йога</tspan>
            </text>
            <g id="Yoga" transform="translate(445.000000, 152.000000)" stroke="#126BEE" stroke-width="2" sketch:type="MSShapeGroup" stroke-linejoin="round">
                <path d="M27.0023585,23.0544434 C27.0023585,23.0544434 28.2405664,27.9226081 32.2028302,29.1817634 L39.5668927,31.134278 C39.5668927,31.134278 40.5764142,30.6547858 40.925047,29.8977058 C41.2736798,29.1406257 40.5092755,28.1447751 40.5092755,28.1447751 C40.5092755,28.1447751 32.8200684,25.6201169 32.2028302,23.0544431 C31.7739708,21.2718032 31.1273166,18.9076904 30.9658211,18.0388186 C30.7059649,16.6407497 29.0556642,12.2941176 25.0023585,12.2941176 L16.620283,12.2941176 C12.8510744,12.2941176 11.0327501,16.2719486 10.7043456,18.0388186 C10.5508158,18.8648338 9.80936307,21.5238544 9.41981136,23.0544431 C8.73388672,25.7495114 0.518310547,28.1447751 0.518310547,28.1447751 C0.518310547,28.1447751 0.00854492655,28.6982429 0.263427735,29.8977058 C0.518310543,31.0971686 1.82421871,31.134278 1.82421871,31.134278 C1.82421871,31.134278 8.35707733,29.1978376 8.4257814,29.1817634 C14.0017091,27.7998054 14.620283,23.0544434 14.620283,23.0544434 L14.620283,29.6470588 L7.19103774,36.0705882 C6.44811321,36.8117647 5.95283019,37.5529412 5.95283019,38.5411765 C5.95283019,40.5176471 7.43867925,42 9.41981132,42 L13.3820755,42 L13.3820755,38.3058824 C13.3820755,36.8235294 14.620283,35.5882353 16.1061321,35.5882353 L28.240566,36.5647059 L15.858491,38.5411765 L15.8584906,42 L32.2028302,42 C34.1839623,42 35.6698113,40.5176471 35.6698113,38.5411765 C35.6698113,37.5529412 35.1745283,36.5647059 34.4316038,36.0705882 L27.0023585,29.6470588 L27.0023585,23.0544434 Z" id="Shape"></path>
                <path d="M17.0224812,3.6087867 C16.8010281,1.61570884 18.2404243,0 20.2469932,0 L20.9960166,0 C22.9983185,0 24.4427249,1.60901964 24.2205286,3.6087867 L23.8434373,7.0026083 C23.7208674,8.10573727 22.7232443,9 21.6235918,9 L19.619418,9 C18.5160011,9 17.5219652,8.10414219 17.3995725,7.0026083 L17.0224812,3.6087867 Z" id="Rectangle-681"></path>
            </g>
            <text id="Фрисби" opacity="0.5" sketch:type="MSTextLayer" font-family="SF UI Display" font-size="14" font-weight="normal" sketch:alignment="middle" fill="#FFFFFF">
                <tspan x="332.364258" y="236">Фрисби</tspan>
            </text>
            <g id="Friesb" transform="translate(333.000000, 148.000000)" stroke="#126BEE" sketch:type="MSShapeGroup" stroke-linejoin="round">
                <path d="M32.3261719,49.4360352 L33.0068359,46.0317383 C33.0068359,46.0317383 25.5722656,38.7177734 24.7387695,33.2758789 C23.9052734,27.8339844 26.9384766,28.2045898 26.9384766,28.2045898" id="Path-7782" stroke-width="2"></path>
                <path d="M28.8193359,32.8554688 L24.215332,17.9365234 C24.215332,17.9365234 23.5070801,16.1391602 25.012207,15.4584961 C26.517334,14.777832 27.2397461,16.690918 27.2397461,16.690918 L31.8115234,30.0024414" id="Path-7783" stroke-width="2"></path>
                <path d="M28.625,19.6640625 C28.625,19.6640625 31.1586914,17.3388672 32.4599609,20.5947266 C33.7612305,23.8505859 35.4936523,29.1030273 35.4936523,29.1030273" id="Path-7784" stroke-width="2"></path>
                <path d="M32.9643555,21.4790039 C32.9643555,21.4790039 36.1918945,18.5698242 37.3271484,22.3168945 C38.4624023,26.0639648 39.8842773,30.144043 39.8842773,30.144043" id="Path-7785" stroke-width="2"></path>
                <path d="M37.253418,21.8994141 C37.253418,21.8994141 40.2548828,19.699707 41.1533203,22.612793 C42.0517578,25.5258789 43.0102539,28.2490234 43.0102539,28.2490234 C43.0102539,28.2490234 45.0205078,32.5336917 45.0205078,34.5483398 C45.0205078,36.562988 44.612793,40.2226556 43.8115234,42.8945312 L46.7436523,49.6054687" id="Path-7786" stroke-width="2"></path>
                <path d="M25.1918945,21.8432617 C25.1918945,21.8432617 17.9807252,24.7810354 10.9710295,25.4656919 C-0.233398548,26.5600595 -5.2456058,21.8432626 7.74440242,12.4289718 C14.8776076,7.25930095 20.871582,5.08154297 20.871582,5.08154297 C20.871582,5.08154297 43.7543934,-3.35742188 47.7275391,3.38183594 C51.7006848,10.1210937 32.0805664,19.1391602 32.0805664,19.1391602" id="Path-7787" stroke-width="2"></path>
                <path d="M1.97509766,24.1323242 C1.97509766,24.1323242 6.77929688,15.4892578 22.6655273,9.85742187 C38.5517578,4.22558594 44.0776367,4.68896484 47.9404297,6.48583984" id="Path-7788"></path>
            </g>
            <text id="Танцы" opacity="0.5" sketch:type="MSTextLayer" font-family="SF UI Display" font-size="14" font-weight="normal" sketch:alignment="middle" fill="#FFFFFF">
                <tspan x="228.206543" y="236">Танцы</tspan>
            </text>
            <g id="Dance" transform="translate(238.000000, 148.000000)" stroke="#126BEE" stroke-width="2" sketch:type="MSShapeGroup" stroke-linejoin="round">
                <ellipse id="Oval" cx="8.4375" cy="9.6875" rx="3.4375" ry="3.4375"></ellipse>
                <path d="M20.625,34.5183333 L17.118957,13.9722222 C17.118957,13.9722222 18.1613697,5.58055556 18.1485004,4.38944444 C18.1367502,3.19777778 17.3595568,2.41555556 16.2645479,2.04944444 C15.1695389,1.68277778 7.45411817,0 7.45411817,0 L7.24932856,2.73 L13.8938004,5.30055556 L13.0304387,11.1266667 C13.0304387,11.1266667 10.0106312,12.3261111 8.11157117,14.9822222 C7.1525291,16.3244444 5.60933303,19.1805556 5.60933303,19.1805556 L1.20803491,15.4111111 L0,17.0388889 C0,17.0388889 3.92737243,22.7183333 4.57363474,23.5511111 C5.22045658,24.3833333 6.16327216,24.7233333 6.98970457,23.5511111 C7.59400179,22.6938889 8.71530886,20.895 8.71530886,20.895 L9.40521486,25.4361111 L4.14111459,29.8916667 L7.16148165,31.0911111 C7.16148165,31.0911111 5.60821397,33.49 5.00447628,34.69 C4.52495524,35.6427778 4.61336168,36.8538889 4.76107878,37.7866667 C4.90935542,38.72 5.92658908,48.1244444 5.92658908,48.1244444 L8.80203671,47.9711111 L8.88820501,37.5177778 L12.1676365,32.5483333 C12.1676365,32.5483333 11.7362355,34.8616667 11.3904432,36.5755556 C11.0776634,38.1272222 11.2634288,39.1327778 11.436325,39.8944444 C11.6086616,40.655 13.5586392,50 13.5586392,50 L16.5694942,49.7694444 L15.5332363,39.0594444 L17.2599597,33.6611111 L20.625,34.5183333 L20.625,34.5183333 Z" id="Shape"></path>
            </g>
            <text id="Фитнес" opacity="0.5" sketch:type="MSTextLayer" font-family="SF UI Display" font-size="14" font-weight="normal" sketch:alignment="middle" fill="#FFFFFF">
                <tspan x="125.410156" y="236">Фитнес</tspan>
            </text>
            <g id="Fitness" transform="translate(131.000000, 146.000000)" stroke="#126BEE" sketch:type="MSShapeGroup" stroke-linejoin="round">
                <path d="M0.333255971,21.3565644 C0.333255971,23.2142796 1.78684615,24.6885774 3.61997634,24.8008356 L13.7579015,24.8242705 L13.7579015,36.8677191 L6.04829085,44.5430256 L13.3998351,51.8636882 C15.2152819,50.0563482 15.0245939,47.3190443 13.2109459,45.5134591 L11.948081,44.2563977 L19.0775651,38.1561373 L19.6948071,38.1561373 L14.2793676,44.5430256 L21.6307214,51.8636882 C23.4463215,50.0563482 23.2556313,47.3190443 21.444012,45.5134591 L20.1791205,44.2563977 L23.8723265,40.5813946 L23.8723265,24.8242704 C23.8723265,24.8242704 29.3306118,24.8396672 32.2507326,24.8242704 C35.9672854,24.8046743 35.5592626,21.3585459 35.5592626,21.3585459 L0.333255971,21.3565644 Z" id="Shape" stroke-width="2"></path>
                <path d="M15.4009763,15.6087867 C15.1795232,13.6157088 16.6189194,12 18.6254883,12 L19.3745117,12 C21.3768136,12 22.82122,13.6090196 22.5990237,15.6087867 L22.2219324,19.0026083 C22.0993625,20.1057373 21.1017394,21 20.0020869,21 L17.9979131,21 C16.8944962,21 15.9004602,20.1041422 15.7780676,19.0026083 L15.4009763,15.6087867 Z" id="Rectangle-681" stroke-width="2"></path>
                <path d="M35.5164323,17.4057945 C35.5164324,7.80684789 27.6725505,0 18.0329361,0 C8.39117383,0 0.547446317,7.80684789 0.547446317,17.4057939" id="Shape" stroke-linecap="round"></path>
            </g>
            <text id="Батут" opacity="0.5" sketch:type="MSTextLayer" font-family="SF UI Display" font-size="14" font-weight="normal" sketch:alignment="middle" fill="#FFFFFF">
                <tspan x="29.9907227" y="236">Батут</tspan>
            </text>
            <path d="M63.7106149,171.35456 C63.0109081,168.69297 60.0277633,163.931758 58.7495588,161.52611 C58.406968,160.880496 58.892305,157.570788 59.3661222,155.611409 C59.8409411,153.647522 60.723964,151.799334 61.5508901,149.955655 C61.9856399,148.97897 59.1848099,147.952641 58.7495592,148.924316 C57.1297656,152.536546 55.0687106,154.321184 54.861353,158.217904 C54.6930628,158.337611 54.5152561,158.466833 54.3289348,158.601566 C55.8265176,154.732894 51.4825257,151.047037 47.9158745,153.13614 C44.4303632,155.178162 45.3674794,160.643588 49.3578614,161.378856 C48.4888627,161.884728 48.3967037,162.154193 48.0380853,162.412138 C46.9457013,163.223036 44.9282218,165.141845 43.6680485,165.655732 C43.507772,165.721345 43.3189464,165.743383 43.1155957,165.757407 C40.6778915,165.926699 33.3773005,164.904937 33.3773005,164.904937 C31.7965743,164.765196 31.5088231,167.805609 33.0915527,167.943848 C33.0915527,167.943848 41.5308626,169.426735 44.3632474,169.639102 C44.401814,169.642107 44.4433856,169.620069 44.4819522,169.622072 C44.986322,169.643609 45.4836798,169.507374 45.9655108,169.094162 C46.8795872,168.309308 49.8066354,166.18264 49.8066354,166.18264 C49.8066354,166.18264 53.5485889,172.913248 54.1245823,175.389018 C54.4511455,176.79294 54.2332698,181.151957 54.2332698,181.151957 C54.1901955,181.398883 54.1125616,181.621768 53.9738223,181.796569 L49.7580516,187.116745 L40.8527832,184.494629 C39.3792419,183.901606 38.374052,186.528731 39.8500977,187.116745 C43.43478,188.549716 46.7658912,190.280701 50.3480692,191.721186 C50.4928188,191.779286 50.6485875,191.76426 50.8153751,191.738716 C51.087845,191.697144 51.33427,191.663085 51.4775171,191.481773 C53.1904713,189.316538 58.3378487,182.826846 58.3378487,182.826846 C58.6619076,182.741198 58.9013205,182.591941 59.1412343,182.571906 C59.39968,182.549868 59.8840153,182.912995 59.8995421,183.236052 C59.9816838,184.979058 58.4585569,191.200788 58.4585569,191.200788 L49.7580509,195.226562 C48.2419361,195.708393 49.157015,198.440775 50.6726289,197.958443 C50.6726289,197.958443 59.2779701,195.998563 61.6400439,194.337698 C61.8689386,194.177422 61.9886451,193.898441 62.1439129,193.587404 C62.1834811,193.507767 62.2265554,193.431635 62.2410805,193.349494 C62.750459,190.525624 64.2385254,182.043996 64.2385254,182.043996 C64.3812715,178.531438 64.6041559,174.754925 63.7106149,171.35456 Z" id="Jump" stroke="#126BEE" stroke-width="2" stroke-linejoin="round" sketch:type="MSShapeGroup"></path>
            <text id="Волейбол" opacity="0.5" sketch:type="MSTextLayer" font-family="SF UI Display" font-size="14" font-weight="normal" sketch:alignment="middle" fill="#FFFFFF">
                <tspan x="650.133301" y="89">Волейбол</tspan>
            </text>
            <g id="voleyball" transform="translate(660.000000, 8.000000)" stroke="#126BEE" sketch:type="MSShapeGroup" stroke-linejoin="round">
                <circle id="Oval-277" stroke-width="2" cx="20" cy="21" r="20"></circle>
                <path d="M17.4101562,0.845703125 C17.4101562,0.845703125 13.9599609,7.98876953 19.9023437,21.109375 C13.9599609,28.4174805 13.9550776,30.0161133 4.61767578,34.0405273" id="Path-7959"></path>
                <path d="M19.9350586,20.9506836 C19.9350586,20.9506836 27.4658203,20.3442383 38.434082,28.824707" id="Path-7960"></path>
                <path d="M16.6088867,8.39355469 C16.6088867,8.39355469 29.0224609,7.09667969 39.3696289,15.9663086" id="Path-7961"></path>
                <path d="M17.9057617,15.4794922 C17.9057617,15.4794922 28.6235352,12.409668 39.800293,22.890625" id="Path-7962"></path>
                <path d="M26.1416016,21.996582 C26.1416016,21.996582 22.4921875,34.5756836 9.64794922,37.65625" id="Path-7963"></path>
                <path d="M32.8393555,24.7666016 C32.8393555,24.7666016 29.2587891,35.4711914 17.2998047,40.3251953" id="Path-7964"></path>
                <path d="M14.9145508,27.3515625 C14.9145508,27.3515625 6.41113281,18.5498047 10.2504883,3.41455078" id="Path-7965"></path>
                <path d="M10.1757813,31.4243164 C10.1757813,31.4243164 2.36669922,23.8842773 3.69140625,9.86376953" id="Path-7966"></path>
            </g>
            <text id="Workout" opacity="0.5" sketch:type="MSTextLayer" font-family="SF UI Display" font-size="14" font-weight="normal" sketch:alignment="middle" fill="#FFFFFF">
                <tspan x="550.125" y="89">Workout</tspan>
            </text>
            <g id="Workout" transform="translate(557.000000, 1.000000)" stroke="#126BEE" stroke-width="2" sketch:type="MSShapeGroup" stroke-linejoin="round">
                <path d="M27.5951989,16.9017178 C26.9923487,20.6386847 24.4100747,20.9942902 24.4100747,20.9942902 C24.4100747,20.9942902 24.2544277,21.0338647 23.9668191,21.0920958 L23.9668191,34.7215662 L23.1761774,41.0851516 L26.4972108,48.3640396 C26.4972108,48.3640396 27.0955495,50.7515148 25.0619875,51.5316985 C23.0301174,52.3124476 22.1419143,50.7803477 22.1419143,50.7803477 L18.0934004,41.9071713 L18.9658131,34.7215662 L17.6969517,34.7215662 L16.750663,42.3323149 L20.0728243,49.6112028 C20.0728243,49.6112028 20.6700351,51.9981127 18.637037,52.7777311 C16.6051669,53.5596109 15.7175278,52.027511 15.7175278,52.027511 L11.6684499,43.1543345 L12.6959457,34.7215662 L12.6062795,21.1181019 L12.6062795,20.7822837 C12.5910532,20.7783263 10.0087791,20.4210247 9.40536504,16.6857539 C8.92545344,13.7204904 9.47472946,1.3766271 9.47472946,1.3766271 C9.47472946,1.3766271 9.68677031,0.345427753 11.273693,0.0378770695 C12.8611797,-0.262889407 13.1978509,1.32631091 13.1978509,1.32631091 L13.1961591,1.67682823 L13.1961592,14.4150391 C13.1961592,14.4150391 16.8684389,13.9106445 18.6370369,13.9106445 C20.403769,13.9106445 23.8021494,14.4150391 23.8021494,14.4150391 L23.8021491,1.67682823 C23.8015851,1.54397086 24.1393842,-0.0457948075 25.725743,0.25553702 C27.3132297,0.562522353 27.5247066,1.5937217 27.5247066,1.5937217 C27.5247066,1.5937217 28.0863893,13.8680469 27.5951989,16.9017178 Z" id="Path"></path>
                <path d="M0.170410156,2.23779297 L36.9889224,2.23779297" id="Path-7959"></path>
                <path d="M22.7058528,8.85056099 C22.7058528,11.1792398 20.8222984,13.0663798 18.5,13.0663798 C16.1782655,13.0663798 14.2952751,11.1792398 14.2952751,8.85056099 C14.2952751,6.52075149 16.1777016,4.6341768 18.5,4.6341768 C20.8222984,4.63361145 22.7058528,6.52188219 22.7058528,8.85056099 L22.7058528,8.85056099 Z" id="Path"></path>
            </g>
            <text id="Баскетбол" opacity="0.5" sketch:type="MSTextLayer" font-family="SF UI Display" font-size="14" font-weight="normal" sketch:alignment="middle" fill="#FFFFFF">
                <tspan x="432.27832" y="89">Баскетбол</tspan>
            </text>
            <g id="Basketball" transform="translate(466.000000, 29.000000) rotate(-315.000000) translate(-466.000000, -29.000000) translate(446.000000, 9.000000)" stroke="#126BEE" sketch:type="MSShapeGroup">
                <circle id="Oval-239" stroke-width="2" cx="20" cy="20" r="20"></circle>
                <path d="M20,1.13686838e-13 L20,39.8309622" id="Path-7973"></path>
                <path d="M39.9154811,19.9154811 L0.0845188935,19.9154811" id="Path-7973"></path>
                <path d="M34.5821478,5.91548111 C34.5821478,5.91548111 28.102214,11.9154811 20,11.9154811 C11.897786,11.9154811 5.41785223,5.91548111 5.41785223,5.91548111" id="Path-7973"></path>
                <path d="M34.5821478,27.9154811 C34.5821478,27.9154811 28.102214,33.9154811 20,33.9154811 C11.897786,33.9154811 5.41785223,27.9154811 5.41785223,27.9154811" id="Path-7973" transform="translate(20.000000, 30.915481) scale(1, -1) translate(-20.000000, -30.915481) "></path>
            </g>
            <text id="Pole-dance" opacity="0.5" sketch:type="MSTextLayer" font-family="SF UI Display" font-size="14" font-weight="normal" sketch:alignment="middle" fill="#FFFFFF">
                <tspan x="323.555176" y="89">Pole dance</tspan>
            </text>
            <g id="Pole-Dance" transform="translate(348.000000, 8.000000)" stroke="#126BEE" stroke-width="2" sketch:type="MSShapeGroup">
                <path d="M13.7603013,11.675076 L17.8219679,6.26193576 C17.8219679,6.26193576 18.5561762,4.0749783 16.9153725,4.79790582 L7.87234423,15.7107205 C7.87234423,15.7107205 4.77979707,16.5782345 3.8026391,19.7094727 C2.82548114,22.8407108 2.8847299,25.3860145 2.8847299,27.0893012 C2.8847299,28.792588 3.57933975,30.7508681 3.57933975,30.7508681 L0.775593083,35.8151584 C0.775593083,35.8151584 -1.29989996,38.8693587 2.47296589,38.8693576 C6.24583175,38.8693566 7.94323985,38.8693576 7.94323985,38.8693576 L13.1514386,49.1550022 C13.1514386,49.1550022 13.7552404,50.2016883 14.7252525,49.8749457 C15.6952646,49.5482032 15.4130148,48.733725 15.1672363,48.2705349 C14.9214579,47.8073449 11.5552946,38.8513173 11.5552946,38.8513173 C11.5552946,38.8513173 14.5516742,38.8513173 16.4068888,38.8513184 C17.5693416,38.8513173 17.8392367,37.2435177 15.8817943,37.0968967 C13.9243519,36.9502757 10.739061,36.5782325 10.739061,36.5782325 L9.27883214,32.1969933 C9.27883214,32.1969933 10.5193362,30.6008582 9.80760528,28.8450792 C9.09587437,27.0893002 8.04577483,25.6529416 8.5708246,24.56977 C9.09587437,23.4865984 9.48530988,23.0908203 11.7078825,21.8454319 C11.7078825,21.8454319 12.7468202,24.4822862 13.590296,26.7023373 C14.4337718,28.9223884 16.2514291,31.8511285 16.2514291,31.8511285 C16.2514291,31.8511285 18.0729566,33.0733246 17.4941644,31.0534668 C16.9153722,29.033609 15.5723014,25.4119195 15.5723014,25.4119195 C15.5723014,25.4119195 14.8710426,21.8038856 14.5702825,20.002984 C14.3914938,18.9324274 12.3685511,18.534885 12.3685511,18.534885 L10.7390613,17.023112 L11.0891947,16.779107 C11.0891947,16.779107 13.7920103,18.3397081 15.5331495,16.5474447 C17.2742887,14.7551812 15.5331493,12.0263672 13.7603013,11.675076 Z M6.47709544,36.11301 L6.16782584,35.6328668 L5.78791921,36.11301 L6.47709544,36.11301 Z" id="Path-7968" stroke-linejoin="round"></path>
                <path d="M17.7380073,0.421006944 L17.7380073,49.1555102" id="Path-7969" stroke-linecap="round"></path>
            </g>
            <text id="Доджбол" opacity="0.5" sketch:type="MSTextLayer" font-family="SF UI Display" font-size="14" font-weight="normal" sketch:alignment="middle" fill="#FFFFFF">
                <tspan x="217.367188" y="89">Доджбол</tspan>
            </text>
            <g id="Dodje-ball" transform="translate(233.000000, 8.000000)" stroke="#126BEE" stroke-width="2" sketch:type="MSShapeGroup" stroke-linejoin="round">
                <path d="M4.6628906,9.19005302 C4.6628906,9.19005302 6.21400903,11.9285442 8.41294215,13.233554 C10.6118753,14.5385638 14.8157164,15.651114 14.8157164,15.651114 C14.8157164,15.651114 12.3899962,22.7691763 11.0875188,25.5443621 C9.78504129,28.319548 8.41294211,32.8762054 8.41294211,32.8762054 C8.41294211,32.8762054 7.94063872,36.0551875 11.898437,34.8596319 C11.898437,34.8596319 14.2343989,29.4254674 14.965407,27.6545033 C16.6388753,26.9063863 17.0765516,28.4223713 17.0765516,28.4223713 L11.0875188,44.0020164 C11.0875188,44.0020164 10.5204907,46.5422056 13.7047935,45.4667965 C13.7047935,45.4667965 16.2616335,41.0385419 17.9192042,37.3849083 C19.5767749,33.7312747 25.7138709,19.3033407 25.7138709,19.3033407 C25.7138709,19.3033407 27.3291246,21.2718661 26.8834292,22.8275796 C26.4377337,24.3832931 25.3224818,26.7202092 25.3224818,26.7202092 C25.3224818,26.7202092 25.0548944,28.9462885 27.7425731,28.310666 C27.7425731,28.310666 30.7901643,24.5030848 30.493034,21.0075831 C30.1959036,17.5120813 29.4566999,14.978913 25.3224805,13.2335538 C21.1882611,11.4881946 20.0965324,11.1069336 20.0965324,11.1069336 C20.0965324,11.1069336 17.8380888,10.1771352 15.3455425,10.3956216 C12.8529962,10.6141081 9.62128204,9.91644274 7.980031,7.95723975" id="Path-7976"></path>
                <path d="M22.3214631,5.28960338 C22.8190311,3.3880855 24.6685003,2.46946527 26.4523643,3.23780599 L27.3564538,3.62721279 C29.1403196,4.39555426 29.7706031,6.389087 28.7714698,8.06773154 L27.0894603,10.8936771 C26.3288562,12.1715686 24.6105088,12.7329591 23.2575852,12.1502318 L23.2575852,12.1502318 C21.9019031,11.5663164 21.1093349,9.92190165 21.4865311,8.48039967 L22.3214631,5.28960338 L22.3214631,5.28960338 Z" id="Rectangle-636"></path>
                <ellipse id="Oval-path" cx="4.54320988" cy="4.61002179" rx="4.54320988" ry="4.61002179"></ellipse>
            </g>
            <text id="Футбол" opacity="0.5" sketch:type="MSTextLayer" font-family="SF UI Display" font-size="14" font-weight="normal" sketch:alignment="middle" fill="#FFFFFF">
                <tspan x="125.48877" y="89">Футбол</tspan>
            </text>
            <g id="Football" transform="translate(129.000000, 8.000000)" stroke="#126BEE" sketch:type="MSShapeGroup">
                <circle id="Oval-238" stroke-width="2" cx="20" cy="20" r="20"></circle>
                <path d="M23.6666667,26.6666667 L16.3333333,26.6666667 L12.6666667,20 L16.3333333,13.3333333 L23.6666667,13.3333333 L27.3333333,20 L23.6666667,26.6666667 L23.6666667,26.6666667 Z" id="Path"></path>
                <path d="M5.33333333,34 L12.3283253,34 L14.6666667,39.3333333" id="Path-7978"></path>
                <path d="M12,34 L16.6666667,26.6666667" id="Path-7979"></path>
                <path d="M24.6666667,34 L30.9949919,34 L34,39.3333333" id="Path-7978" transform="translate(29.333333, 36.666667) scale(-1, 1) translate(-29.333333, -36.666667) "></path>
                <path d="M23.3333333,34 L28,26.6666667" id="Path-7979" transform="translate(25.666667, 30.333333) scale(-1, 1) translate(-25.666667, -30.333333) "></path>
                <path d="M5.33333333,0.666666667 L12.3283253,0.666666667 L14.6666667,6" id="Path-7978" transform="translate(10.000000, 3.333333) scale(1, -1) translate(-10.000000, -3.333333) "></path>
                <path d="M12,13.3333333 L16.6666667,6" id="Path-7979" transform="translate(14.333333, 9.666667) scale(1, -1) translate(-14.333333, -9.666667) "></path>
                <path d="M24.6666667,0.666666667 L30.9949919,0.666666667 L34,6" id="Path-7978" transform="translate(29.333333, 3.333333) scale(-1, -1) translate(-29.333333, -3.333333) "></path>
                <path d="M23.3333333,13.3333333 L28,6" id="Path-7979" transform="translate(25.666667, 9.666667) scale(-1, -1) translate(-25.666667, -9.666667) "></path>
                <path d="M0.666666667,14.6666667 L4,19.5317334 L0.748458693,25.3333333" id="Path-7986"></path>
                <path d="M4,19.6666667 L12.6666667,19.6666667" id="Path-7987"></path>
                <path d="M36,14.6666667 L39.3333333,19.5317334 L36.081792,25.3333333" id="Path-7986" transform="translate(37.666667, 20.000000) scale(-1, 1) translate(-37.666667, -20.000000) "></path>
                <path d="M27.3333333,19.6666667 L36,19.6666667" id="Path-7987" transform="translate(31.666667, 19.666667) scale(-1, 1) translate(-31.666667, -19.666667) "></path>
            </g>
            <text id="Американский" opacity="0.5" sketch:type="MSTextLayer" font-family="SF UI Display" font-size="14" font-weight="normal" sketch:alignment="middle" fill="#FFFFFF">
                <tspan x="0.198730469" y="89">Американский</tspan>
                <tspan x="24.1518555" y="105">футбол</tspan>
            </text>
            <g id="American-Football" transform="translate(23.000000, 8.000000)" stroke="#126BEE" sketch:type="MSShapeGroup">
                <path d="M48.2394737,12.2434211 C45.4868421,5.46315789 39.0736842,2.77105263 38.4414474,2.51907895 C35.1111842,1.00986842 31.8539474,0.245394737 28.7611842,0.245394737 C25.8861842,0.245394737 16.0519737,1.175 10.2677632,13.1427632 C9.41776316,14.9019737 9.29539474,16.6605263 9.93289474,17.9664474 C10.3802632,18.8828947 11.1605263,19.5032895 12.1296053,19.7118421 C12.8559211,19.8690789 13.7335526,20.0921053 14.7388158,20.3776316 C18.6539474,21.4881579 19.1947368,24.9552632 19.1960526,28.5348684 C19.1973684,32.9861842 20.4065789,35.8388158 22.8914474,37.2572368 C24.0381579,37.9111842 25.3328947,38.2427632 26.7421053,38.2427632 C28.6657895,38.2427632 30.725,37.6197368 32.8618421,36.3901316 C36.1605263,34.4914474 40.3730263,33.3164474 42.3842105,33.3164474 C44.8914474,33.3164474 46.2927632,31.0625 46.7532895,29.6625 C49.7697368,23.1059211 50.2697368,17.2460526 48.2394737,12.2434211 L48.2394737,12.2434211 Z" id="Shape" stroke-width="2"></path>
                <path d="M30.1203947,22.0223684 C28.0394737,22.0223684 26.3467105,23.7151316 26.3467105,25.7953947 C26.3467105,27.8763158 28.0394737,29.5690789 30.1203947,29.5690789 C32.2006579,29.5690789 33.8940789,27.8763158 33.8940789,25.7953947 C33.8947368,23.7151316 32.2006579,22.0223684 30.1203947,22.0223684 L30.1203947,22.0223684 Z" id="Shape"></path>
                <path d="M13.9674137,24.3893272 C13.9674137,24.3893272 17.1396356,42.6571495 2.95474404,43.139006" id="Path-7976" stroke-width="2" stroke-linecap="round"></path>
                <path d="M0.367817126,31.5538908 L16.5511282,30.4199219" id="Path-7977" stroke-width="2" stroke-linecap="round"></path>
                <path d="M0.367817126,36.159154 L16.5511282,35.025185" id="Path-7977" stroke-width="2" stroke-linecap="round"></path>
                <path d="M2.32704564,27.592388 L4.67946906,42.8100586" id="Path-7979" stroke-width="2" stroke-linecap="round"></path>
            </g>
        </g>
    </g>
</svg>