<?xml version="1.0" encoding="UTF-8" standalone="no"?>
<svg width="637px" height="325px" viewBox="0 0 637 325" version="1.1" xmlns="http://www.w3.org/2000/svg" xmlns:xlink="http://www.w3.org/1999/xlink" xmlns:sketch="http://www.bohemiancoding.com/sketch/ns">
    <!-- Generator: Sketch 3.4.4 (17249) - http://www.bohemiancoding.com/sketch -->
    <title>Slice 1</title>
    <desc>Created with Sketch.</desc>
    <defs></defs>
    <g id="Page-1" stroke="none" stroke-width="1" fill="none" fill-rule="evenodd" sketch:type="MSPage">
        <g id="Group" sketch:type="MSLayerGroup" transform="translate(0.000000, 12.000000)" fill="#FFFFFF">
            <path d="M75.324,18.61 C71.14,8.304 61.392,4.212 60.431,3.829 C55.369,1.535 50.418,0.373 45.717,0.373 C41.347,0.373 26.399,1.786 17.607,19.977 C16.315,22.651 16.129,25.324 17.098,27.309 C17.778,28.702 18.964,29.645 20.437,29.962 C21.541,30.201 22.875,30.54 24.403,30.974 C30.354,32.662 31.176,37.932 31.178,43.373 C31.18,50.139 33.018,54.475 36.795,56.631 C38.538,57.625 40.506,58.129 42.648,58.129 C45.572,58.129 48.702,57.182 51.95,55.313 C56.964,52.427 63.367,50.641 66.424,50.641 C70.235,50.641 72.365,47.215 73.065,45.087 C77.65,35.121 78.41,26.214 75.324,18.61 L75.324,18.61 Z M69.383,43.521 C69.35,43.595 69.315,43.683 69.29,43.761 C69.281,43.79 68.316,46.64 66.427,46.64 C62.827,46.64 55.832,48.463 49.959,51.843 C45.615,54.343 41.658,54.797 38.78,53.155 C36.359,51.774 35.182,48.573 35.18,43.37 C35.179,39.679 35.176,29.871 25.497,27.125 C23.886,26.668 22.468,26.307 21.282,26.051 C21.103,26.013 20.875,25.921 20.695,25.553 C20.37,24.887 20.335,23.529 21.211,21.716 C28.99,5.621 41.938,4.371 45.721,4.371 C49.862,4.371 54.272,5.421 58.827,7.492 C58.863,7.509 58.9,7.524 58.937,7.538 C59.027,7.573 67.956,11.087 71.62,20.114 C74.284,26.679 73.532,34.555 69.383,43.521 L69.383,43.521 Z" id="Shape" sketch:type="MSShapeGroup"></path>
            <path d="M47.783,33.474 C44.62,33.474 42.047,36.047 42.047,39.209 C42.047,42.372 44.62,44.945 47.783,44.945 C50.945,44.945 53.519,42.372 53.519,39.209 C53.52,36.047 50.945,33.474 47.783,33.474 L47.783,33.474 Z M47.783,40.945 C46.826,40.945 46.047,40.166 46.047,39.209 C46.047,38.252 46.826,37.475 47.783,37.475 C48.74,37.475 49.519,38.252 49.519,39.209 C49.519,40.166 48.74,40.945 47.783,40.945 L47.783,40.945 Z" id="Shape" sketch:type="MSShapeGroup"></path>
            <path d="M27.493,46.221 C28.594,46.145 29.425,45.188 29.348,44.086 C29.271,42.984 28.32,42.156 27.213,42.231 L25.504,42.35 C25.547,40.1 25.442,37.707 25.172,35.159 C25.055,34.061 24.067,33.263 22.972,33.382 C21.873,33.498 21.077,34.482 21.194,35.581 C21.462,38.104 21.567,40.454 21.509,42.63 L8.054,43.57 L7.559,40.038 C7.406,38.944 6.397,38.179 5.301,38.335 C4.207,38.489 3.445,39.499 3.598,40.593 L4.055,43.85 L2.677,43.947 C1.576,44.025 0.745,44.98 0.822,46.083 C0.896,47.137 1.774,47.943 2.815,47.943 C2.862,47.943 2.909,47.941 2.957,47.937 L4.611,47.822 L5.023,50.757 L3.557,50.861 C2.455,50.939 1.625,51.896 1.703,52.998 C1.778,54.051 2.655,54.855 3.696,54.855 C3.743,54.855 3.791,54.853 3.84,54.851 L5.58,54.728 L6.548,61.638 C5.576,61.715 4.768,62.493 4.707,63.502 C4.64,64.605 5.48,65.552 6.583,65.618 C6.621,65.621 6.768,65.629 7.008,65.629 C8.654,65.629 14.645,65.263 19.425,60.26 C21.211,58.391 22.598,56.112 23.601,53.448 L27.394,53.178 C28.496,53.1 29.326,52.143 29.248,51.041 C29.17,49.939 28.216,49.111 27.111,49.187 L24.769,49.353 C24.965,48.398 25.126,47.409 25.245,46.377 L27.493,46.221 L27.493,46.221 Z M16.579,57.445 C14.6,59.539 12.354,60.582 10.513,61.106 L9.578,54.442 L19.114,53.765 C18.418,55.162 17.576,56.393 16.579,57.445 L16.579,57.445 Z M20.608,49.649 L9.021,50.471 L8.61,47.539 L21.181,46.661 C21.037,47.709 20.847,48.705 20.608,49.649 L20.608,49.649 Z" id="Shape" sketch:type="MSShapeGroup"></path>
        </g>
        <path d="M155,19 C140.663,19 129,30.664 129,45 C129,59.337 140.663,71 155,71 C169.337,71 181,59.337 181,45 C181,30.664 169.337,19 155,19 L155,19 Z M179,45 C179,46.455 178.862,47.877 178.613,49.26 L176.154,45 L178.613,40.74 C178.862,42.124 179,43.546 179,45 L179,45 Z M177.933,37.918 L174.423,44 L165.577,44 L161.154,36.34 L163.365,32.51 L165.577,28.68 L172.575,28.68 C175,31.289 176.854,34.434 177.933,37.918 L177.933,37.918 Z M159.423,52.66 L150.577,52.66 L146.154,45 L150.577,37.34 L159.423,37.34 L163.846,45 L159.423,52.66 L159.423,52.66 Z M163.114,22.416 C165.83,23.395 168.316,24.85 170.479,26.68 L165.577,26.68 L163.114,22.416 L163.114,22.416 Z M160.338,21.605 L163.846,27.679 L161.635,31.509 L159.423,35.339 L150.577,35.339 L148.365,31.509 L146.154,27.679 L149.662,21.606 C151.38,21.215 153.165,21 155,21 C156.835,21 158.62,21.215 160.338,21.605 L160.338,21.605 Z M144.423,26.68 L139.521,26.68 C141.683,24.85 144.17,23.395 146.885,22.416 L144.423,26.68 L144.423,26.68 Z M137.425,28.68 L144.423,28.68 L146.635,32.51 L148.846,36.34 L144.423,44 L135.577,44 L132.067,37.92 C133.146,34.436 135,31.289 137.425,28.68 L137.425,28.68 Z M131,45 C131,43.547 131.137,42.125 131.386,40.742 L133.846,45 L131.386,49.26 C131.137,47.877 131,46.455 131,45 L131,45 Z M132.067,52.08 L135.577,46 L144.423,46 L148.846,53.66 L146.635,57.49 L144.423,61.32 L137.425,61.32 C135,58.711 133.146,55.566 132.067,52.08 L132.067,52.08 Z M146.884,67.585 C144.17,66.606 141.683,65.15 139.521,63.32 L144.423,63.32 L146.884,67.585 L146.884,67.585 Z M149.661,68.395 L146.154,62.321 L148.365,58.491 L150.577,54.661 L159.423,54.661 L161.635,58.491 L163.846,62.321 L160.339,68.395 C158.62,68.787 156.835,69 155,69 C153.164,69 151.379,68.787 149.661,68.395 L149.661,68.395 Z M165.577,63.32 L170.479,63.32 C168.317,65.15 165.83,66.607 163.115,67.586 L165.577,63.32 L165.577,63.32 Z M172.575,61.32 L165.577,61.32 L163.365,57.49 L161.154,53.66 L165.577,46 L174.423,46 L177.933,52.082 C176.854,55.566 175,58.711 172.575,61.32 L172.575,61.32 Z" id="Shape" fill="#FFFFFF" sketch:type="MSShapeGroup"></path>
        <path d="M261.133192,8.039 L260.950192,8.039 L260.950192,1.072 C260.950192,0.48 260.542192,0 259.950192,0 C259.358192,0 258.950192,0.48 258.950192,1.072 L258.950192,9.425 C257.950192,10.943 251.882192,19.135 251.820192,19.214 C251.820192,19.214 244.707192,28.423 244.650192,28.651 L241.883192,30.456 C240.344192,31.458 239.142192,32.897 238.427192,34.588 C236.772192,38.501 234.908192,49.392 236.794192,53.224 L237.826192,55.349 C237.826192,55.349 232.200192,66.412 232.141192,66.612 C231.571192,68.579 232.844192,70.039 233.869192,70.039 L244.863192,70.039 L253.513192,88.749 C253.951192,89.683 255.064192,90.221 255.998192,89.783 C256.893192,89.363 257.306192,88.115 256.940192,87.197 L250.192192,70.039 L257.779192,70.039 C258.242192,70.039 258.950192,70.111 258.950192,69.868 L258.950192,88.475 C258.950192,89.067 259.358192,89.547 259.950192,89.547 C260.542192,89.547 260.950192,89.067 260.950192,88.475 L260.950192,57.887 C261.950192,57.513 260.950192,56.307 260.950192,56.044 L260.950192,11.406 C261.950192,11.061 261.776192,8.039 261.133192,8.039 L261.133192,8.039 Z M239.221192,65.731 L241.494192,62.901 L242.977192,65.956 L239.221192,65.731 L239.221192,65.731 Z M258.950192,67.185 C258.950192,66.946 258.293192,66.792 257.872192,66.767 L248.500192,66.246 C248.490192,66.189 248.493192,66.152 248.480192,66.095 L246.250192,56.946 C247.688192,56.235 248.447192,53.325 247.861192,51.753 L246.211192,47.319 C245.383192,45.093 246.169192,42.59 248.121192,41.236 L251.494192,38.897 L254.037192,46.328 C254.020192,46.548 258.626192,57.612 258.626192,57.612 C258.707192,57.802 258.950192,57.964 258.950192,58.097 L258.950192,67.185 L258.950192,67.185 Z M258.950192,26.386 L258.950192,50.023 C257.950192,47.715 257.425192,45.668 257.416192,45.606 L255.777192,34.575 C255.633192,33.611 254.729192,32.954 253.769192,33.119 L252.192192,33.39 L249.717192,30.719 L249.962192,30.239 C250.904192,31.117 252.157192,31.664 253.547192,31.664 C256.461192,31.664 258.824192,29.301 258.824192,26.387 C258.824192,23.834 257.010192,21.705 254.601192,21.216 L254.730192,21.09 C254.790192,20.975 256.951192,17.515 258.951192,14.65 L258.951192,26.386 L258.950192,26.386 Z" id="Shape" fill="#FFFFFF" sketch:type="MSShapeGroup"></path>
        <path d="M376.94925,28.856 C372.52825,24.435 366.64925,22 360.39725,22 C354.14525,22 348.26725,24.435 343.84525,28.856 C334.71825,37.983 334.71825,52.833 343.84525,61.96 C348.26625,66.381 354.14525,68.816 360.39725,68.816 C366.64925,68.816 372.52825,66.381 376.94925,61.96 C386.07625,52.833 386.07625,37.983 376.94925,28.856 L376.94925,28.856 Z M381.46125,44.708 C376.13025,44.939 371.10825,47 367.17025,50.567 L361.99925,45.396 L376.08425,31.312 C379.51325,35.123 381.30325,39.893 381.46125,44.708 L381.46125,44.708 Z M360.91925,24.33 C365.98025,24.452 370.74125,26.343 374.48925,29.717 L360.40525,43.801 L355.06525,38.461 C358.59925,34.56 360.65525,29.599 360.91925,24.33 L360.91925,24.33 Z M353.46625,36.862 L346.31425,29.71 C349.75825,26.613 354.05725,24.767 358.65725,24.393 C358.38525,29.037 356.56425,33.404 353.46625,36.862 L353.46625,36.862 Z M365.57425,52.161 C361.99625,56.103 359.92825,61.136 359.69425,66.482 C354.69925,66.319 350.00525,64.431 346.30125,61.095 L360.40525,46.992 L365.57425,52.161 L365.57425,52.161 Z M367.17325,53.759 L374.50225,61.087 C371.00925,64.236 366.63325,66.095 361.95625,66.435 C362.19425,61.71 364.02625,57.263 367.17325,53.759 L367.17325,53.759 Z M344.71725,31.304 L351.87225,38.459 C348.41425,41.565 344.04325,43.392 339.39325,43.671 C339.75825,39.209 341.53025,34.843 344.71725,31.304 L344.71725,31.304 Z M339.32925,45.932 C344.60625,45.662 349.57025,43.599 353.47125,40.058 L358.81025,45.397 L344.70625,59.499 C341.23825,55.642 339.44925,50.804 339.32925,45.932 L339.32925,45.932 Z M376.09525,59.491 L368.76925,52.165 C372.26925,49.03 376.70325,47.206 381.41425,46.968 C381.08325,51.483 379.31325,55.91 376.09525,59.491 L376.09525,59.491 Z" id="Shape" fill="#FFFFFF" sketch:type="MSShapeGroup"></path>
        <path d="M473.910928,22.357387 C473.910928,25.6087499 471.263771,28.2436247 468,28.2436247 C464.737022,28.2436247 462.090657,25.6087499 462.090657,22.357387 C462.090657,19.1044455 464.736229,16.4703601 468,16.4703601 C471.263771,16.4695707 473.910928,19.1060242 473.910928,22.357387 L473.910928,22.357387 Z M494,13.0453386 C494,13.4337024 493.683768,13.748656 493.293035,13.748656 L480.76659,13.748656 C480.976619,17.8967288 481.472763,29.3629333 480.782442,33.5986248 C479.935193,38.8162767 476.306051,39.3127825 476.306051,39.3127825 C476.306051,39.3127825 476.087304,39.3680375 475.683097,39.4493413 L475.683097,58.4791679 L474.571925,67.364174 L479.239323,77.5271496 C479.239323,77.5271496 480.080232,80.8606056 477.222253,81.9499187 C474.366651,83.0400212 473.118366,80.9008628 473.118366,80.9008628 L467.428563,68.5118995 L467.399238,68.5087421 L467.404786,68.4613807 L467.399238,68.4487509 L467.407164,68.4455935 L468.654656,58.4791679 L466.871392,58.4791679 L465.541472,69.1054962 L470.210456,79.2684719 C470.210456,79.2684719 471.049779,82.6011385 468.192593,83.6896623 C465.336991,84.7813435 464.089499,82.6421851 464.089499,82.6421851 L458.398903,70.2532218 L458.369578,70.2500644 L458.375126,70.2019136 L458.369578,70.1900732 L458.377503,70.1853371 L459.842951,58.4791679 L459.716933,39.4856518 L459.716933,39.0167735 C459.712971,39.0159841 459.695534,39.011248 459.695534,39.011248 C459.695534,39.011248 456.066392,38.5123742 455.218351,33.2970903 C454.543881,29.1569111 455.001981,18.1209062 455.219143,13.748656 L442.706173,13.748656 C442.316232,13.748656 442,13.4337024 442,13.0453386 C442,12.6561854 442.316232,12.3412319 442.706173,12.3412319 L455.292059,12.3412319 C455.307118,12.0712717 455.315836,11.9220831 455.315836,11.9220831 C455.315836,11.9220831 455.613839,10.4822954 457.844109,10.052885 C460.075171,9.63294687 460.548331,11.8518303 460.548331,11.8518303 L460.545953,12.3412319 L475.451669,12.3412319 L475.450876,12.1557329 C475.450876,12.1557329 475.925621,9.93606008 478.155098,10.3567875 C480.386161,10.7854086 480.683371,12.2251963 480.683371,12.2251963 C480.683371,12.2251963 480.685749,12.2725578 480.690504,12.3412319 L493.292242,12.3412319 C493.682975,12.3420212 494,12.6569748 494,13.0453386 L494,13.0453386 Z M473.52178,29.6502594 L473.948179,29.6984102 C474.465722,29.7520865 474.996738,29.8144457 475.533303,29.8815411 L475.458009,13.7494453 L460.540405,13.7494453 L460.466697,29.7031464 L460.710014,29.7039357 C463.382533,29.3771418 467.81454,29.0913944 473.52178,29.6502594 L473.52178,29.6502594 Z" id="Shape" fill="#FFFFFF" sketch:type="MSShapeGroup"></path>
        <g id="Group" sketch:type="MSLayerGroup" transform="translate(576.000000, 22.000000)">
            <ellipse id="Oval" fill="#FFFFFF" sketch:type="MSShapeGroup" cx="25" cy="6.23529412" rx="6.25" ry="6.23529412"></ellipse>
            <path d="M0,37.4117647 L8.75,35.2294118 C10.9375,34.6058824 12.8125,33.0470588 13.4375,30.8647059 L15.625,22.4470588 C16.5625,20.2647059 18.75,18.7058824 21.25,18.7058824 L28.75,18.7058824 C31.25,18.7058824 33.4375,20.2647059 34.375,22.4470588 L36.5625,30.8647059 C37.1875,33.0470588 38.75,34.9176471 41.25,35.2294118 L50,37.4117647" id="Shape" stroke="#FFFFFF" stroke-width="6.25" sketch:type="MSShapeGroup"></path>
            <path d="M32.8125,37.4117647 L32.8125,21.8235294 L25,18.7058824 L17.1875,21.8235294 L17.1875,37.4117647 L7.8125,45.5176471 C6.875,46.4529412 6.25,47.3882353 6.25,48.6352941 L6.25,48.6352941 C6.25,51.1294118 8.125,53 10.625,53 L15.625,53 L15.625,47.0764706 C15.625,45.2058824 17.1875,43.6470588 19.0625,43.6470588 L20.625,43.6470588 C24.0625,43.3352941 27.8125,43.9588235 31.25,45.2058824 L34.375,46.1411765 L18.75,46.7647059 L18.75,53 L39.375,53 C41.875,53 43.75,51.1294118 43.75,48.6352941 L43.75,48.6352941 C43.75,47.3882353 43.125,46.1411765 42.1875,45.5176471 L32.8125,37.4117647 L32.8125,37.4117647 Z" id="Shape" fill="#FFFFFF" sketch:type="MSShapeGroup"></path>
        </g>
        <g id="Group" sketch:type="MSLayerGroup" transform="translate(16.000000, 132.000000)" fill="#FFFFFF">
            <path d="M30.999,61.482 C14.191,61.482 0.517,47.808 0.517,31 C0.517,14.192 14.191,0.518 30.999,0.518 C47.807,0.518 61.48,14.192 61.48,31 C61.48,47.808 47.807,61.482 30.999,61.482 L30.999,61.482 Z M30.999,2.518 C15.294,2.518 2.517,15.295 2.517,31 C2.517,46.705 15.294,59.482 30.999,59.482 C46.704,59.482 59.48,46.705 59.48,31 C59.48,15.295 46.704,2.518 30.999,2.518 L30.999,2.518 Z" id="Shape" sketch:type="MSShapeGroup"></path>
            <path d="M57.81,42.771 C40.164,30.699 30.937,32.493 30.847,32.515 L30.046,32.687 L29.714,31.936 C29.374,31.152 21.445,12.613 25.536,1.523 L27.412,2.215 C24.019,11.414 29.869,26.979 31.262,30.444 C34.017,30.207 43.32,30.434 58.939,41.12 L57.81,42.771 L57.81,42.771 Z" id="Shape" sketch:type="MSShapeGroup"></path>
            <path d="M9.189,51.537 L8.693,49.6 L8.941,50.569 L8.691,49.601 C8.802,49.572 19.896,46.537 29.5,31.422 L31.188,32.494 C21.126,48.329 9.671,51.413 9.189,51.537 L9.189,51.537 Z" id="Shape" sketch:type="MSShapeGroup"></path>
            <path d="M58.967,32.884 C45.428,20.339 27.71,22.966 27.534,22.993 L27.222,21.017 C27.986,20.896 46.084,18.219 60.326,31.417 L58.967,32.884 L58.967,32.884 Z" id="Shape" sketch:type="MSShapeGroup"></path>
            <path d="M58.275,22.308 C45.306,11.182 25.722,12.4 25.529,12.415 L25.39,10.42 C26.224,10.363 45.992,9.137 59.578,20.791 L58.275,22.308 L58.275,22.308 Z" id="Shape" sketch:type="MSShapeGroup"></path>
            <path d="M16.09,57.329 L15.786,55.352 C15.953,55.326 32.53,52.517 39.409,32.435 L41.302,33.083 C34.016,54.353 16.269,57.302 16.09,57.329 L16.09,57.329 Z" id="Shape" sketch:type="MSShapeGroup"></path>
            <path d="M28.907,61.338 L28.301,59.432 C28.436,59.389 41.847,54.912 49.926,36.889 L51.75,37.707 C43.285,56.595 29.49,61.153 28.907,61.338 L28.907,61.338 Z" id="Shape" sketch:type="MSShapeGroup"></path>
            <path d="M22.416,41.806 C22.282,41.662 9.07,27.211 14.728,5.546 L16.664,6.052 C11.292,26.618 23.751,40.305 23.877,40.441 L22.416,41.806 L22.416,41.806 Z" id="Shape" sketch:type="MSShapeGroup"></path>
            <path d="M14.64,48.08 C14.141,47.456 2.436,32.616 4.828,16.084 L6.807,16.37 C4.541,32.03 16.084,46.684 16.201,46.83 L14.64,48.08 L14.64,48.08 Z" id="Shape" sketch:type="MSShapeGroup"></path>
        </g>
        <g id="Shape-+-Shape-+-Shape" sketch:type="MSLayerGroup" transform="translate(232.000000, 124.000000)" fill="#FFFFFF">
            <path d="M20.7565874,20.3081476 C20.7565874,23.3835822 23.2599527,25.8705402 26.3438136,25.8705402 C29.4305146,25.8705402 31.9338799,23.3835822 31.9338799,20.3081476 C31.9338799,17.2379408 29.4305146,14.742926 26.3438136,14.742926 C23.2599527,14.7429261 20.7565874,17.2379409 20.7565874,20.3081476 L20.7565874,20.3081476 Z" id="Shape" sketch:type="MSShapeGroup"></path>
            <path d="M44.8710859,27.1019643 L38.9842629,27.1019643 L18.1876331,27.0991902 L5.06796687,27.0991902 L0.466558359,27.0991902 C0.466558359,29.6999915 2.50158461,31.7640084 5.06796687,31.9211698 L5.06796687,31.9539787 L19.2610621,31.9539787 L19.2610621,48.8148067 L8.46760719,59.5602358 L11.4560842,62.5407164 L14.1611456,65.2340224 L18.7597691,69.8091634 C21.3013946,67.2788874 21.0344314,63.4466621 18.4953242,60.9188428 L16.7273134,59.1589567 L24.0120291,51.9093916 L25.3085911,50.6185922 L28.97273,50.6185922 L26.6981214,52.8803203 L19.9911147,59.5602358 L22.9821116,62.5407164 L25.6846547,65.2340224 L30.28301,69.8091634 C32.8248501,67.2788874 32.5578838,63.4466621 30.0216168,60.9188428 L28.2507687,59.1589567 L32.4650198,54.9659992 L33.4212571,54.0139525 L33.4212571,48.1612981 L33.4212571,46.1895159 L33.4212571,31.9539786 L40.3517187,31.9539786 L44.8710859,31.9539786 L49.7829676,31.9539786 C49.7829676,29.2498432 47.5845098,27.1019643 44.8710859,27.1019643 L44.8710859,27.1019643 Z" id="Shape" sketch:type="MSShapeGroup"></path>
            <path d="M25.2461105,3.5420133 C36.7773891,3.5420133 46.1651802,12.8877642 46.1651802,24.3681123 L49.7230052,24.3681123 C49.7230053,10.929587 38.7415707,0 25.2461105,0 C11.7476434,0 0.766424844,10.929587 0.766424844,24.3681115 L4.3267682,24.3681115 C4.3267682,12.8877642 13.7117773,3.5420133 25.2461105,3.5420133 L25.2461105,3.5420133 Z" id="Shape" sketch:type="MSShapeGroup"></path>
        </g>
        <path d="M175.309715,170.903222 C175.514766,165.857533 175.834933,160.432681 174.551387,155.548155 C173.546279,151.724857 169.261077,144.885513 167.424973,141.429868 C166.932851,140.502463 167.630024,135.748162 168.310648,132.93357 C168.992712,130.112503 170.261149,127.457635 171.449005,124.809242 C172.07351,123.406262 166.75514,121.028393 166.129915,122.424177 C163.803128,127.613041 162.13754,131.080199 161.839677,136.677726 C161.597933,136.849681 161.342519,137.035305 161.074873,137.228845 C163.226108,131.671608 156.986088,126.376981 151.862696,129.377917 C146.85586,132.311223 148.202,140.16215 153.934069,141.218342 C152.685778,141.945013 152.553394,142.332091 152.038249,142.702622 L152.038249,142.702622 C150.46907,143.867454 147.571019,146.623769 145.760816,147.361951 C145.530584,147.456203 145.259341,147.48786 144.967234,147.508005 C141.465542,147.751188 130.978453,146.283456 130.978453,146.283456 C128.707785,146.082722 128.198395,151.889617 130.471941,152.088192 C130.471941,152.088192 142.69081,152.77889 146.75945,153.083948 C146.814849,153.088265 146.874566,153.056608 146.929966,153.059486 C147.654479,153.090423 148.368919,152.894726 149.061055,152.301157 C150.3741,151.173738 154.57872,148.118841 154.57872,148.118841 C154.57872,148.118841 159.953929,157.787166 160.781327,161.343538 C161.250426,163.36023 160.937453,169.621834 160.937453,169.621834 C160.875578,169.976536 160.764059,170.296703 160.564764,170.547801 L154.508931,178.19008 L142.069902,173.218497 C139.953202,172.366637 137.786859,177.785014 139.907156,178.62968 C145.056449,180.688102 150.210778,182.735013 155.356474,184.804227 C155.564403,184.887686 155.78816,184.866102 156.027746,184.829409 C156.419141,184.769692 156.773123,184.720768 156.978894,184.460317 C159.439503,181.35002 166.833563,172.027764 166.833563,172.027764 C167.299064,171.904733 167.642974,171.690329 167.987603,171.66155 C168.358853,171.629893 169.054587,172.151514 169.076891,172.615576 C169.194885,175.119354 167.006957,184.056691 167.006957,184.056691 L154.044149,188.211668 C151.866294,188.903804 153.645559,194.456723 155.822695,193.763868 C155.822695,193.763868 168.18402,190.948556 171.577072,188.562772 C171.905872,188.33254 172.077827,187.931791 172.300865,187.484996 C172.357703,187.3706 172.419578,187.261239 172.440443,187.143245 C173.172151,183.086837 175.309715,170.903222 175.309715,170.903222 L175.309715,170.903222 Z" id="Shape" fill="#FFFFFF" sketch:type="MSShapeGroup"></path>
        <g id="Group" sketch:type="MSLayerGroup" transform="translate(344.000000, 119.000000)" fill="#FFFFFF">
            <circle id="Oval" sketch:type="MSShapeGroup" cx="13.5" cy="15.5" r="5.5"></circle>
            <path d="M33,55.2293333 L27.3903312,22.3555556 C27.3903312,22.3555556 29.0581916,8.92888889 29.0376007,7.02311111 C29.0188004,5.11644444 27.775291,3.86488889 26.0232766,3.27911111 C24.2712623,2.69244444 11.9265891,0 11.9265891,0 L11.5989257,4.368 L22.2300806,8.48088889 L20.8487019,17.8026667 C20.8487019,17.8026667 16.0170098,19.7217778 12.9785139,23.9715556 C11.4440466,26.1191111 8.97493286,30.6888889 8.97493286,30.6888889 L1.93285586,24.6577778 L0,27.2622222 C0,27.2622222 6.28379588,36.3493333 7.31781558,37.6817778 C8.35273053,39.0133333 9.86123545,39.5573333 11.1835273,37.6817778 C12.1504029,36.3102222 13.9444942,33.432 13.9444942,33.432 L15.0483438,40.6977778 L6.62578335,47.8266667 L11.4583706,49.7457778 C11.4583706,49.7457778 8.97314235,53.584 8.00716204,55.504 C7.23992838,57.0284444 7.38137869,58.9662222 7.61772605,60.4586667 C7.85496867,61.952 9.48254252,76.9991111 9.48254252,76.9991111 L14.0832587,76.7537778 L14.221128,60.0284444 L19.4682184,52.0773333 C19.4682184,52.0773333 18.7779767,55.7786667 18.224709,58.5208889 C17.7242614,61.0035556 18.0214861,62.6124444 18.29812,63.8311111 C18.5738585,65.048 21.6938227,80 21.6938227,80 L26.5111907,79.6311111 L24.8531782,62.4951111 L27.6159355,53.8577778 L33,55.2293333 L33,55.2293333 Z" id="Shape" sketch:type="MSShapeGroup"></path>
        </g>
        <path d="M494.016008,178.84248 C497.53867,166.102683 493.717138,159.746955 492.878921,158.556549 L489.868717,149.31673 C489.327832,147.615384 487.260333,146.742879 485.25814,147.373319 C484.759512,147.531887 484.303141,147.773951 483.907466,148.076532 C483.224446,146.589673 481.296009,145.86348 479.422891,146.452554 C478.827457,146.640231 478.299634,146.953536 477.857861,147.344976 L477.529028,146.400465 C477.522113,146.38208 477.513662,146.363695 477.506747,146.344545 C490.548663,139.955878 502.323651,130.587366 499.606169,123.781215 C498.216311,120.29809 493.20084,118.62432 485.474801,119.070914 C478.187462,119.492229 469.182201,121.702983 460.117781,125.297183 C451.053361,128.892914 442.985428,133.45384 437.399108,138.140394 C431.480883,143.10425 428.986208,147.757099 430.375297,151.240224 C431.626092,154.375573 435.67043,156.023298 442.094967,156.023298 C442.357726,156.023298 442.624326,156.021765 442.894768,156.014105 C449.217121,155.885413 457.255858,154.224666 465.52816,151.337509 C465.703332,151.276993 466.001433,151.140641 466.001433,151.140641 L468.098128,157.896234 C467.984419,157.923045 467.873016,157.962112 467.766222,158.023394 C465.910774,159.112685 464.841298,160.699893 464.586222,162.745186 C463.676553,170.037764 474.175392,181.253934 476.610139,183.745054 L475.765008,187.294058 C475.611347,187.939052 476.011632,188.587877 476.65931,188.739551 C476.753043,188.761766 476.846008,188.77249 476.938204,188.77249 C477.48293,188.77249 477.978484,188.401733 478.109095,187.849427 L479.107119,183.652365 C479.204693,183.244072 479.080996,182.815863 478.781359,182.51941 C475.256392,179.043945 466.261119,168.766925 466.977176,163.03934 C467.128531,161.822889 467.733953,160.89523 468.813416,160.205806 L470.333117,165.098421 C470.492923,165.613191 470.967734,165.944881 471.484032,165.944881 C471.600046,165.944881 471.721437,165.927262 471.840524,165.891259 C472.475141,165.693624 472.830865,165.021818 472.634948,164.387548 L466.138959,143.452792 C466.07058,143.238305 466.195814,143.008496 466.276485,142.890528 C466.473939,142.60097 466.817369,142.362735 467.215349,142.236341 C468.002858,141.98968 468.234117,142.345117 468.362424,142.750345 L474.508066,160.852333 L474.621007,161.183256 C474.833058,161.811399 475.516078,162.148451 476.147622,161.935495 C476.777629,161.723305 477.11645,161.042307 476.902862,160.412633 L476.865215,160.303091 C476.863679,160.298495 476.863679,160.295431 476.861374,160.290835 L476.817581,160.163674 L472.576557,147.673602 C472.608057,147.562528 472.661838,147.464476 472.705631,147.40013 C472.903085,147.110572 473.247284,146.871571 473.646032,146.745943 C474.406651,146.507708 475.110415,146.748241 475.241026,147.156533 L479.546587,159.514849 C479.598832,159.668821 479.682576,159.805174 479.785529,159.918546 L479.853139,160.128437 C480.018324,160.635547 480.49083,160.95881 480.998677,160.95881 C481.122373,160.95881 481.247606,160.941192 481.370535,160.900592 C482.002847,160.693765 482.349351,160.018129 482.144214,159.386157 L479.074082,149.960193 C479.004935,149.743407 479.130168,149.515131 479.210839,149.396397 C479.409061,149.107604 479.752492,148.868604 480.149704,148.742976 C480.91109,148.503975 481.615623,148.743742 481.738551,149.130585 L484.811757,158.563444 C484.852477,158.68754 484.914709,158.79555 484.987698,158.894367 L485.689157,161.048436 C485.894293,161.679642 486.573472,162.023588 487.206552,161.820591 C487.839633,161.615296 488.186136,160.938128 487.981,160.306155 L484.912404,150.877893 C484.86016,150.716261 484.920855,150.545437 484.979246,150.430533 C485.154419,150.094247 485.531655,149.806987 485.987258,149.662974 C486.749413,149.422442 487.45164,149.664506 487.5738,150.049818 L490.647006,159.483442 C490.693872,159.622859 490.763788,159.753084 490.855984,159.867988 C490.901314,159.923142 495.305217,165.565698 491.587407,178.582031 C491.51365,178.837884 491.528248,179.109824 491.627358,179.358782 L495.196887,188.246229 C495.385889,188.715804 495.83765,189 496.315534,189 C496.464584,189 496.616708,188.971657 496.762685,188.914971 C497.380399,188.66831 497.680805,187.969693 497.434181,187.353042 L494.016008,178.84248 L494.016008,178.84248 Z M461.008242,127.529386 C480.08824,119.963336 495.483463,119.948781 497.36657,124.669041 C497.555572,125.140913 497.612426,125.680962 497.542511,126.276932 C490.611664,123.889225 476.721543,125.978181 462.590943,131.581669 C448.338184,137.235716 437.012653,145.101283 433.567589,151.601789 C433.122743,151.230266 432.797751,150.814313 432.613359,150.353165 C430.731789,145.632905 441.929782,135.0985 461.008242,127.529386 L461.008242,127.529386 Z M472.919219,144.457054 C472.472836,144.598769 472.058722,144.807128 471.692242,145.066811 L470.651962,142.004235 C470.081114,140.201007 468.369338,139.354547 466.488536,139.946686 C465.570416,140.23701 464.788285,140.802338 464.285048,141.53849 C463.729566,142.352777 463.567454,143.315673 463.840201,144.172092 L465.298437,148.874732 C465.298437,148.874732 464.938104,148.999595 464.732968,149.070835 C451.319962,153.751261 440.748903,154.477455 435.690406,152.729381 C438.766685,146.820247 449.872482,139.212066 463.481405,133.813873 C477.156401,128.3904 490.408832,126.312935 496.77421,128.55433 C494.554587,132.834124 487.665996,138.783857 475.910217,144.450925 C475.854131,144.478502 475.804191,144.512974 475.753483,144.546679 C474.922949,144.201967 473.913401,144.143749 472.919219,144.457054 L472.919219,144.457054 Z" id="Shape" fill="#FFFFFF" sketch:type="MSShapeGroup"></path>
        <path d="M633.925611,152.525611 L629.825611,152.525611 C629.525611,152.525611 629.225611,152.225611 629.225611,151.925611 C627.925611,138.125611 616.925611,127.125611 603.125611,125.825611 C602.825611,125.825611 602.525611,125.525611 602.525611,125.225611 L602.525611,121.125611 C602.525611,120.125611 601.825611,119.225611 600.825611,119.025611 C599.525611,118.825611 598.525611,119.825611 598.525611,121.025611 L598.525611,125.225611 C598.525611,125.525611 598.225611,125.825611 597.925611,125.825611 C584.125611,127.125611 573.125611,138.125611 571.825611,151.925611 C571.825611,152.225611 571.525611,152.525611 571.225611,152.525611 L567.125611,152.525611 C566.125611,152.525611 565.225611,153.225611 565.025611,154.225611 C564.825611,155.525611 565.825611,156.525611 567.025611,156.525611 L571.225611,156.525611 C571.525611,156.525611 571.825611,156.825611 571.825611,157.125611 C573.025611,170.925611 584.125611,181.925611 597.925611,183.225611 C598.225611,183.225611 598.525611,183.525611 598.525611,183.825611 L598.525611,187.925611 C598.525611,188.925611 599.225611,189.825611 600.225611,190.025611 C601.525611,190.225611 602.525611,189.225611 602.525611,188.025611 L602.525611,183.825611 C602.525611,183.525611 602.825611,183.225611 603.125611,183.225611 C616.925611,182.025611 627.925611,170.925611 629.225611,157.125611 C629.225611,156.825611 629.525611,156.525611 629.825611,156.525611 L634.025611,156.525611 C635.225611,156.525611 636.225611,155.425611 636.025611,154.225611 C635.825611,153.225611 634.925611,152.525611 633.925611,152.525611 L633.925611,152.525611 Z M624.525611,152.525611 L619.425611,152.525611 C619.025611,152.525611 618.825611,152.225611 618.825611,151.925611 L618.825611,149.125611 C618.825611,148.125611 618.125611,147.225611 617.125611,147.025611 C615.825611,146.825611 614.825611,147.825611 614.825611,149.025611 L614.825611,151.925611 C614.825611,152.325611 614.525611,152.525611 614.225611,152.525611 L606.525611,152.525611 C606.225611,152.525611 606.025611,152.325611 605.925611,152.125611 C605.325611,150.825611 604.225611,149.725611 602.925611,149.125611 C602.725611,149.025611 602.525611,148.825611 602.525611,148.525611 L602.525611,140.825611 C602.525611,140.425611 602.825611,140.225611 603.125611,140.225611 L605.925611,140.225611 C606.925611,140.225611 607.825611,139.525611 608.025611,138.525611 C608.225611,137.225611 607.225611,136.225611 606.025611,136.225611 L603.125611,136.225611 C602.725611,136.225611 602.525611,135.925611 602.525611,135.625611 L602.525611,130.525611 C602.525611,130.125611 602.825611,129.825611 603.225611,129.825611 C614.725611,131.125611 623.925611,140.225611 625.125611,151.725611 C625.225611,152.225611 624.925611,152.525611 624.525611,152.525611 L624.525611,152.525611 Z M598.525611,130.525611 L598.525611,135.625611 C598.525611,136.025611 598.225611,136.225611 597.925611,136.225611 L595.125611,136.225611 C594.125611,136.225611 593.225611,136.925611 593.025611,137.925611 C592.825611,139.225611 593.825611,140.225611 595.025611,140.225611 L597.925611,140.225611 C598.325611,140.225611 598.525611,140.525611 598.525611,140.825611 L598.525611,148.525611 C598.525611,148.825611 598.325611,149.025611 598.125611,149.125611 C596.825611,149.725611 595.725611,150.825611 595.125611,152.125611 C595.025611,152.325611 594.825611,152.525611 594.525611,152.525611 L586.825611,152.525611 C586.425611,152.525611 586.225611,152.225611 586.225611,151.925611 L586.225611,149.125611 C586.225611,148.125611 585.525611,147.225611 584.525611,147.025611 C583.225611,146.825611 582.225611,147.825611 582.225611,149.025611 L582.225611,151.925611 C582.225611,152.325611 581.925611,152.525611 581.625611,152.525611 L576.525611,152.525611 C576.125611,152.525611 575.825611,152.225611 575.825611,151.825611 C577.125611,140.325611 586.225611,131.125611 597.725611,129.925611 C598.225611,129.825611 598.525611,130.125611 598.525611,130.525611 L598.525611,130.525611 Z M576.525611,156.525611 L581.625611,156.525611 C582.025611,156.525611 582.225611,156.825611 582.225611,157.125611 L582.225611,159.925611 C582.225611,160.925611 582.925611,161.825611 583.925611,162.025611 C585.225611,162.225611 586.225611,161.225611 586.225611,160.025611 L586.225611,157.125611 C586.225611,156.725611 586.525611,156.525611 586.825611,156.525611 L594.525611,156.525611 C594.825611,156.525611 595.025611,156.725611 595.125611,156.925611 C595.725611,158.225611 596.825611,159.325611 598.125611,159.925611 C598.325611,160.025611 598.525611,160.225611 598.525611,160.525611 L598.525611,168.225611 C598.525611,168.625611 598.225611,168.825611 597.925611,168.825611 L595.125611,168.825611 C594.125611,168.825611 593.225611,169.525611 593.025611,170.525611 C592.825611,171.825611 593.825611,172.825611 595.025611,172.825611 L597.925611,172.825611 C598.325611,172.825611 598.525611,173.125611 598.525611,173.425611 L598.525611,178.525611 C598.525611,178.925611 598.225611,179.225611 597.825611,179.225611 C586.325611,177.925611 577.125611,168.825611 575.925611,157.325611 C575.825611,156.825611 576.125611,156.525611 576.525611,156.525611 L576.525611,156.525611 Z M602.525611,178.525611 L602.525611,173.425611 C602.525611,173.025611 602.825611,172.825611 603.125611,172.825611 L605.925611,172.825611 C606.925611,172.825611 607.825611,172.125611 608.025611,171.125611 C608.225611,169.825611 607.225611,168.825611 606.025611,168.825611 L603.125611,168.825611 C602.725611,168.825611 602.525611,168.525611 602.525611,168.225611 L602.525611,160.525611 C602.525611,160.225611 602.725611,160.025611 602.925611,159.925611 C604.225611,159.325611 605.325611,158.225611 605.925611,156.925611 C606.025611,156.725611 606.225611,156.525611 606.525611,156.525611 L614.225611,156.525611 C614.625611,156.525611 614.825611,156.825611 614.825611,157.125611 L614.825611,159.925611 C614.825611,160.925611 615.525611,161.825611 616.525611,162.025611 C617.825611,162.225611 618.825611,161.225611 618.825611,160.025611 L618.825611,157.125611 C618.825611,156.725611 619.125611,156.525611 619.425611,156.525611 L624.525611,156.525611 C624.925611,156.525611 625.225611,156.825611 625.225611,157.225611 C623.925611,168.725611 614.825611,177.925611 603.325611,179.125611 C602.825611,179.225611 602.525611,178.925611 602.525611,178.525611 L602.525611,178.525611 Z" id="Shape" fill="#FFFFFF" sketch:type="MSShapeGroup"></path>
        <path d="M46.2894709,287.199529 C60.4904522,280.152379 66,256.013803 66,254 L64.041084,254 C63.3136413,259.037213 57.2150271,279.177559 46.2894709,285.021066 L46.2894709,287.199529 L46.2894709,287.199529 Z M36.7538637,271.464811 C39.6056557,271.464811 41.920176,269.151836 41.920176,266.297725 C41.920176,263.445933 39.6064288,261.132186 36.7538637,261.132186 C33.9012986,261.132186 31.5883244,263.44516 31.5883244,266.297725 C31.5890974,269.151063 33.9012986,271.464811 36.7538637,271.464811 L36.7538637,271.464811 Z M44.1210576,324.204024 L44.1210576,300.942863 L41.9425946,301.957881 L41.9425946,324.203251 L44.1210576,324.203251 L44.1210576,324.204024 Z M44.1210576,290.520564 L44.1210576,292.690523 L31.1530956,292.690523 L20.9743084,316.014302 C20.208986,317.766039 21.057025,320.013304 22.869834,321.032961 C24.682643,322.054164 26.7722049,321.461232 27.5375273,319.709494 L35.8385691,300.643691 C36.5660118,300.851643 37.3622563,300.945182 38.1816923,300.945182 C38.9199578,300.945182 39.6504928,300.807578 40.3021764,300.561748 L49.6228749,296.208687 L51.6768763,304.425466 C52.1329775,306.256828 53.9875314,307.37157 55.8173475,306.913923 C57.6487098,306.457049 58.762679,304.603268 58.3065778,302.772679 L55.0906778,289.880476 C54.6338036,288.049887 52.4019999,286.625924 50.6749998,287.460821 L44.1202845,290.511287 L44.1256959,278.464031 L55.7408153,259.870564 C56.6027693,258.506898 56.1976896,256.702593 54.8332512,255.840639 C53.4711321,254.977912 51.6660536,255.382992 50.9069157,256.708004 L41.0388957,272.503794 L35.0871617,272.527758 C34.7075927,272.52312 34.3202932,272.592695 33.9476817,272.744213 L23.6637593,276.768726 L18.3783968,268.749849 C17.5048471,267.393914 15.6974495,267.001976 14.3407417,267.874753 C12.9840339,268.74753 12.5920961,270.5557 13.4648728,271.911635 L20.0690635,281.919578 C20.8119673,283.090753 22.3016402,283.597102 23.6312911,283.053646 L31.1530956,280.109861 L31.1515495,290.519791 L44.1210576,290.519791 L44.1210576,290.520564 Z" id="Shape" fill="#FFFFFF" sketch:type="MSShapeGroup"></path>
        <g id="Group" sketch:type="MSLayerGroup" transform="translate(128.000000, 243.000000)" fill="#FFFFFF">
            <path d="M19.9,51.6 L0,55.1 C0,56.8 1.3,58.1 3,58.1 L21.9,58.1 C23.1,58.1 23.9,58.1 24.9,56.6 L31.4,48.8 C28.6,47.7 26,46.1 24,44 L19.9,51.6 L19.9,51.6 Z" id="Shape" sketch:type="MSShapeGroup"></path>
            <path d="M41.5,26 L39,31 L51.1,28.4 C52.2,28.2 53,27.1 53,26 L53,25 L41.5,26 L41.5,26 Z" id="Shape" sketch:type="MSShapeGroup"></path>
            <path d="M44.9,51.4 C44.9,51.4 35.7,37.2 35.3,36.8 L38.5,22.8 C39.2,19.6 37.2,16.5 33.9,16 C33.9,16 27.9,15 27.3,15 C26.3,15 25.3,15.5 24.8,16 L15.9,24 C15.3,24.5 15,24.9 15,25.4 C15,26.1 15.4,26.5 15.9,27.2 L21.2,34.9 C21.8,35.8 23.2,36.4 24.3,36.2 L25.3,36 L20.8,26.2 L29.3,20 L29.3,21 L27.1,22.9 C27.1,22.9 25.3,39.3 25.3,39.5 C25.3,41.6 26.3,43 27.8,44.5 L38.3,55 L41.8,75 C42.1,76.6 43.7,78 45.3,78 L46.3,78 L45.3,54 C45.4,52.9 45.4,52.4 44.9,51.4 L44.9,51.4 Z" id="Shape" sketch:type="MSShapeGroup"></path>
            <path d="M32.320275,9.6 C32.520275,11.7 35.620275,9.6 36.320275,13.5 L36.720275,13.5 C38.720275,13.5 40.520275,11.8 40.720275,9.6 L41.220275,4.1 C41.420275,2.4 40.120275,0.8 38.420275,0.5 L35.020275,0 L35.020275,1.7 C33.120275,2.3 31.820275,4.2 32.020275,6.5 L32.320275,9.6 L32.320275,9.6 Z" id="Shape" sketch:type="MSShapeGroup"></path>
        </g>
    </g>
</svg>