<svg id="Layer_1" data-name="Layer 1" xmlns="http://www.w3.org/2000/svg" viewBox="0 0 191 120"><defs><style>.cls-1{fill:#fff;}</style></defs><title>ticket</title><path class="cls-1" d="M190.28,75.18c-8.17,0-14.27-6.62-14.27-14.79s5.85-14.79,14-14.79a1.56,1.56,0,0,1,1,.18V0H0V45.27c9,0,14.79,6.62,14.79,14.79S9,74.85,0,74.85V120H191V75.07A1.26,1.26,0,0,1,190.28,75.18ZM19,101V87.6c8-5.93,14.79-16.06,14.79-27.53S27,38.45,19,32.53V19h98v82H19ZM174,31.77A33,33,0,0,0,174,89v12H136V19h38V31.77Z"/></svg>