<svg id="Layer_1" width="191" height="120" data-name="Layer 1" xmlns="http://www.w3.org/2000/svg" viewBox="0 0 191 120"><defs><style>.cls-1{fill:#5ecc6b;}</style></defs><title>ticket</title><path class="cls-1" d="M190.58,75.18c-8.17,0-14.12-6.62-14.12-14.79s5.62-14.79,13.79-14.79c0.6,0,.75.11,0.75,0.18V0H0V45.27c10,0,14.79,6.62,14.79,14.79S10,74.85,0,74.85V120H191V75.07C191,75.13,191,75.18,190.58,75.18ZM20,101V87.6c7-5.93,14.79-16.06,14.79-27.53S27,38.45,20,32.53V19h97v82H20ZM175,31.77c-11,5.72-16.54,16.41-16.54,28.62S164,83.29,175,89v12H137V19h38V31.77Z"/></svg>
