<?xml version="1.0" encoding="UTF-8" standalone="no"?>
<svg width="17px" height="12px" viewBox="0 0 17 12" version="1.1" xmlns="http://www.w3.org/2000/svg" xmlns:xlink="http://www.w3.org/1999/xlink" xmlns:sketch="http://www.bohemiancoding.com/sketch/ns">
    <!-- Generator: Sketch 3.4.4 (17249) - http://www.bohemiancoding.com/sketch -->
    <title>Fill 8</title>
    <desc>Created with Sketch.</desc>
    <defs></defs>
    <g id="Page-1" stroke="none" stroke-width="1" fill="none" fill-rule="evenodd" sketch:type="MSPage">
        <g id="16-contacts" sketch:type="MSArtboardGroup" transform="translate(-859.000000, -1550.000000)" fill="#126BEE">
            <g id="Footer" sketch:type="MSLayerGroup" transform="translate(250.000000, 1440.000000)">
                <g id="Social" transform="translate(459.000000, 68.000000)" sketch:type="MSShapeGroup">
                    <path d="M164.2,42.9201253 C164.2,42.9201253 165.864,42.6041253 166.422,42.1741253 C166.265,42.6431253 165.443,43.6301253 164.972,43.8321253 C164.503,44.0321253 166.661,43.5371253 166.808,43.4161253 C166.956,43.2971253 165.683,44.7431253 165.069,44.9101253 C165.414,46.2421253 164.596,49.1931253 162.338,51.3111253 C159.883,53.6111253 155.409,54.8621253 150,52.5371253 C153.525,52.6581253 155.023,51.2111253 155.023,51.2111253 C155.023,51.2111253 152.646,51.0571253 151.836,49.2211253 C152.453,49.2461253 153.238,49.2191253 153.381,49.0551253 C153.048,49.0141253 150.876,48.5801253 150.677,46.1531253 C151.096,46.4651253 152.125,46.5671253 152.125,46.5671253 C152.125,46.5671253 149.651,44.9221253 151.159,42.5041253 C151.953,43.5001253 154.231,45.4591253 158.307,45.6541253 C158.05,44.6061253 158.328,43.1181253 160.047,42.3381253 C161.764,41.5591253 163.533,42.2851253 164.2,42.9201253" id="Fill-8"></path>
                </g>
            </g>
        </g>
    </g>
</svg>