<?xml version="1.0" encoding="UTF-8" standalone="no"?>
<svg width="36px" height="36px" viewBox="0 0 36 36" version="1.1" xmlns="http://www.w3.org/2000/svg" xmlns:xlink="http://www.w3.org/1999/xlink" xmlns:sketch="http://www.bohemiancoding.com/sketch/ns">
    <!-- Generator: Sketch 3.4.4 (17249) - http://www.bohemiancoding.com/sketch -->
    <title>Slice 1</title>
    <desc>Created with Sketch.</desc>
    <defs></defs>
    <g id="Page-1" stroke="none" stroke-width="1" fill="none" fill-rule="evenodd" sketch:type="MSPage">
        <circle id="Oval-81" fill="#01ABF0" sketch:type="MSShapeGroup" cx="18" cy="18" r="18"></circle>
        <path d="M24.2,13.9201253 C24.2,13.9201253 25.864,13.6041253 26.422,13.1741253 C26.265,13.6431253 25.443,14.6301253 24.972,14.8321253 C24.503,15.0321253 26.661,14.5371253 26.808,14.4161253 C26.956,14.2971253 25.683,15.7431253 25.069,15.9101253 C25.414,17.2421253 24.596,20.1931253 22.338,22.3111253 C19.883,24.6111253 15.409,25.8621253 10,23.5371253 C13.525,23.6581253 15.023,22.2111253 15.023,22.2111253 C15.023,22.2111253 12.646,22.0571253 11.836,20.2211253 C12.453,20.2461253 13.238,20.2191253 13.381,20.0551253 C13.048,20.0141253 10.876,19.5801253 10.677,17.1531253 C11.096,17.4651253 12.125,17.5671253 12.125,17.5671253 C12.125,17.5671253 9.651,15.9221253 11.159,13.5041253 C11.953,14.5001253 14.231,16.4591253 18.307,16.6541253 C18.05,15.6061253 18.328,14.1181253 20.047,13.3381253 C21.764,12.5591253 23.533,13.2851253 24.2,13.9201253" id="Fill-8" fill="#FFFFFF" sketch:type="MSShapeGroup"></path>
    </g>
</svg>