<?xml version="1.0" encoding="UTF-8" standalone="no"?>
<svg width="19px" height="11px" viewBox="0 0 19 11" version="1.1" xmlns="http://www.w3.org/2000/svg" xmlns:xlink="http://www.w3.org/1999/xlink" xmlns:sketch="http://www.bohemiancoding.com/sketch/ns">
    <!-- Generator: Sketch 3.4.4 (17249) - http://www.bohemiancoding.com/sketch -->
    <title>Fill 1</title>
    <desc>Created with Sketch.</desc>
    <defs></defs>
    <g id="Page-1" stroke="none" stroke-width="1" fill="none" fill-rule="evenodd" sketch:type="MSPage">
        <g id="16-contacts" sketch:type="MSArtboardGroup" transform="translate(-709.000000, -1549.000000)" fill="#126BEE">
            <g id="Footer" sketch:type="MSLayerGroup" transform="translate(250.000000, 1440.000000)">
                <g id="Social" transform="translate(459.000000, 68.000000)" sketch:type="MSShapeGroup">
                    <path d="M0.835453353,41.41 C1.47645335,41.41 2.96445335,41.408 3.18645335,41.408 C3.40845335,41.408 3.75845335,41.434 4.06545335,42.117 C4.26745335,42.564 4.92845335,44.18 5.68445335,45.215 C6.08445335,45.764 6.55645335,46.341 6.91145335,46.113 C7.26745335,45.884 7.26345335,43.128 7.10245335,42.446 C6.74545335,41.459 5.70945335,42.195 6.12545335,41.46 C6.28445335,41.178 7.04145335,41.009 7.58945335,41.009 C8.13745335,41.009 9.77545335,41 10.1244534,41 C10.6894534,41 10.8324534,41.742 10.8894534,42.043 C10.9464534,42.345 10.8104534,45.067 10.8904534,45.421 C10.9704534,45.776 10.9904534,46.08 11.4874534,46.105 C11.9204534,46.127 13.7114534,42.74 13.9634534,41.958 C14.1814534,41.469 14.4724534,41.416 14.8894534,41.416 C15.3054534,41.416 17.0564534,41.414 17.8744534,41.414 C18.6934534,41.414 18.5604534,42.287 18.3434534,42.66 C18.1254534,43.035 17.6264534,43.846 16.7764534,44.985 C16.2734534,45.66 15.4394534,46.441 15.4394534,46.968 C15.4394534,47.494 16.5124534,48.587 17.2744534,49.258 C17.9994534,49.895 18.3994534,50.741 18.3994534,50.741 C18.5954534,51.311 18.3274534,51.93 17.7544534,51.93 C17.1804534,51.93 15.9984534,51.946 15.3734534,51.946 C14.7484534,51.946 14.3214534,51.789 13.9074534,51.489 C12.8404534,50.721 12.0394534,49.128 11.4634534,49.441 C10.7044534,49.93 11.1274534,50.814 10.7764534,51.539 C10.5804534,51.946 10.3814534,51.942 9.92445335,51.942 C6.27045335,51.942 4.66445335,50.069 2.97645335,47.686 C2.08245335,46.425 0.475453353,43.184 0.126453353,42.368 C-0.222546647,41.553 0.195453353,41.41 0.835453353,41.41" id="Fill-1"></path>
                </g>
            </g>
        </g>
    </g>
</svg>