<?xml version="1.0" encoding="UTF-8" standalone="no"?>
<svg version="1.1" xmlns="http://www.w3.org/2000/svg" xmlns:xlink="http://www.w3.org/1999/xlink" xmlns:sketch="http://www.bohemiancoding.com/sketch/ns">

    <g id="Page-1" stroke="none" stroke-width="1" fill="none" fill-rule="evenodd" sketch:type="MSPage">
        <g id="Oval-81-+-Fill-1" sketch:type="MSLayerGroup">
            <circle id="Oval-81" fill="#42658B" sketch:type="MSShapeGroup" cx="18" cy="18" r="18"></circle>
            <path d="M8.83545335,13.41 C9.47645335,13.41 10.9644534,13.408 11.1864534,13.408 C11.4084534,13.408 11.7584534,13.434 12.0654534,14.117 C12.2674534,14.564 12.9284534,16.18 13.6844534,17.215 C14.0844534,17.764 14.5564534,18.341 14.9114534,18.113 C15.2674534,17.884 15.2634534,15.128 15.1024534,14.446 C14.7454534,13.459 13.7094534,14.195 14.1254534,13.46 C14.2844534,13.178 15.0414534,13.009 15.5894534,13.009 C16.1374534,13.009 17.7754534,13 18.1244534,13 C18.6894534,13 18.8324534,13.742 18.8894534,14.043 C18.9464534,14.345 18.8104534,17.067 18.8904534,17.421 C18.9704534,17.776 18.9904534,18.08 19.4874534,18.105 C19.9204534,18.127 21.7114534,14.74 21.9634534,13.958 C22.1814534,13.469 22.4724534,13.416 22.8894534,13.416 C23.3054534,13.416 25.0564534,13.414 25.8744534,13.414 C26.6934534,13.414 26.5604534,14.287 26.3434534,14.66 C26.1254534,15.035 25.6264534,15.846 24.7764534,16.985 C24.2734534,17.66 23.4394534,18.441 23.4394534,18.968 C23.4394534,19.494 24.5124534,20.587 25.2744534,21.258 C25.9994534,21.895 26.3994534,22.741 26.3994534,22.741 C26.5954534,23.311 26.3274534,23.93 25.7544534,23.93 C25.1804534,23.93 23.9984534,23.946 23.3734534,23.946 C22.7484534,23.946 22.3214534,23.789 21.9074534,23.489 C20.8404534,22.721 20.0394534,21.128 19.4634534,21.441 C18.7044534,21.93 19.1274534,22.814 18.7764534,23.539 C18.5804534,23.946 18.3814534,23.942 17.9244534,23.942 C14.2704534,23.942 12.6644534,22.069 10.9764534,19.686 C10.0824534,18.425 8.47545335,15.184 8.12645335,14.368 C7.77745335,13.553 8.19545335,13.41 8.83545335,13.41" id="Fill-1" fill="#FFFFFF" sketch:type="MSShapeGroup"></path>
        </g>
    </g>
</svg>
