<?xml version="1.0" encoding="UTF-8" standalone="no"?>
<svg width="14px" height="11px" viewBox="0 0 14 11" version="1.1" xmlns="http://www.w3.org/2000/svg" xmlns:xlink="http://www.w3.org/1999/xlink" xmlns:sketch="http://www.bohemiancoding.com/sketch/ns">
    <!-- Generator: Sketch 3.4.4 (17249) - http://www.bohemiancoding.com/sketch -->
    <title>Fill 12</title>
    <desc>Created with Sketch.</desc>
    <defs></defs>
    <g id="Page-1" stroke="none" stroke-width="1" fill="none" fill-rule="evenodd" sketch:type="MSPage">
        <g id="16-contacts" sketch:type="MSArtboardGroup" transform="translate(-712.000000, -1610.000000)" fill="#126BEE">
            <g id="Footer" sketch:type="MSLayerGroup" transform="translate(250.000000, 1440.000000)">
                <g id="Social" transform="translate(459.000000, 68.000000)" sketch:type="MSShapeGroup">
                    <path d="M11.781,107.671 C11.781,107.671 10.315,108.968 9.715,109.267 C9.114,109.566 8.669,109.518 8.669,108.845 L8.669,105.176 C8.669,104.802 8.739,104.256 9.715,104.829 C10.815,105.501 11.581,106.528 11.781,106.629 C11.981,106.729 12.177,106.909 12.177,107.133 C12.177,107.357 11.781,107.671 11.781,107.671 M15.748,102.796 C15.112,102.238 14.215,102 12.187,102 L7.178,102 C5.191,102 4.26,102.123 3.718,102.794 C3.176,103.463 3,104.482 3,106.024 L3,107.833 C3,109.411 3.171,110.763 3.713,111.285 C4.255,111.807 5.186,112.084 7.197,112.084 L12.187,112.084 C14.225,112.084 15.091,111.888 15.688,111.349 C16.287,110.808 16.464,109.392 16.464,107.87 L16.464,106.042 C16.464,104.476 16.384,103.356 15.748,102.796" id="Fill-12"></path>
                </g>
            </g>
        </g>
    </g>
</svg>