<?xml version="1.0" encoding="UTF-8" standalone="no"?>
<svg width="57px" height="72px" viewBox="0 0 57 72" version="1.1" xmlns="http://www.w3.org/2000/svg" xmlns:xlink="http://www.w3.org/1999/xlink" xmlns:sketch="http://www.bohemiancoding.com/sketch/ns">
    <!-- Generator: Sketch 3.4.4 (17249) - http://www.bohemiancoding.com/sketch -->
    <title>Slice 1</title>
    <desc>Created with Sketch.</desc>
    <defs></defs>
    <g id="Page-1" stroke="none" stroke-width="1" fill="none" fill-rule="evenodd" sketch:type="MSPage">
        <g id="Ticket" sketch:type="MSLayerGroup" transform="translate(2.000000, 1.000000)" stroke="#126BEE" stroke-width="2" stroke-linecap="round" stroke-linejoin="round">
            <path d="M0,68.9475306 L15.2561443,53 L32,62.2036172 L27.2641591,69 L0,68.9475306 Z" id="Path-321" sketch:type="MSShapeGroup"></path>
            <path d="M17,54 C17,54 20.2364381,52.0557292 20.2364381,48.0263099 C20.2364381,43.9968907 18.4219038,41.63519 19.0671443,35.7635561 C19.7123849,29.8919223 20.8775844,25.6683961 22.2257932,23.0329446 C23.574002,20.3974931 25.5432958,19.4069476 27,20.348266" id="Path-322" sketch:type="MSShapeGroup"></path>
            <path d="M48,28.6201172 L48,20.6201172 L48,0 L43.4713204,0 C43.4713204,0 42.8423947,6.04266871 37.4713867,6.04266873 C32.1003788,6.04266875 31.0082686,0 31.0082686,0 L27,0 L27,48 L31.2791715,48 C31.2791715,48 32.1019778,42.3633436 37.347465,42.3633436 C42.5929522,42.3633436 43.351673,48 43.351673,48 L47,48" id="Path-323" sketch:type="MSShapeGroup"></path>
            <rect id="Rectangle-38" sketch:type="MSShapeGroup" x="32" y="16" width="11" height="20" rx="1"></rect>
            <path d="M27,11.05 L48,11.05" id="Path-324" sketch:type="MSShapeGroup"></path>
            <path d="M48.1421228,21 C48.1421228,21 54.6660729,22.0160676 48,28" id="Path-325" sketch:type="MSShapeGroup"></path>
            <path d="M30,61 C30,61 35.2290794,59.8088456 39.0250591,56.5475117 C42.8210389,53.2861777 49,46 49,46" id="Path-326" sketch:type="MSShapeGroup"></path>
            <path d="M49.888725,34.3993367 C50.7264623,33.7587849 51.9362977,33.9043107 52.5912895,34.7247806 L52.5912895,34.7247806 C53.2461374,35.5450702 53.09849,36.7288468 52.2601389,37.3698679 L44.111275,43.6006633 C43.2735377,44.2412151 42.0637023,44.0956893 41.4087105,43.2752194 L41.4087105,43.2752194 C40.7538626,42.4549298 40.90151,41.2711532 41.7398611,40.6301321 L49.888725,34.3993367 L49.888725,34.3993367 Z" id="Rectangle-39" sketch:type="MSShapeGroup"></path>
            <path d="M47.9768914,29.3789306 C48.7915295,28.7715971 49.9674806,28.9089348 50.6037641,29.6860646 L50.6037641,29.6860646 C51.2399078,30.4630235 51.0942309,31.5859438 50.2805714,32.1925477 L47.0231086,34.6210694 C46.2084705,35.2284029 45.0325194,35.0910652 44.3962359,34.3139354 L44.3962359,34.3139354 C43.7600922,33.5369765 43.9057691,32.4140562 44.7194286,31.8074523 L47.9768914,29.3789306 L47.9768914,29.3789306 Z" id="Rectangle-39-Copy" sketch:type="MSShapeGroup"></path>
            <path d="M49.9768914,40.3789306 C50.7915295,39.7715971 51.9674806,39.9089348 52.6037641,40.6860646 L52.6037641,40.6860646 C53.2399078,41.4630235 53.0942309,42.5859438 52.2805714,43.1925477 L49.0231086,45.6210694 C48.2084705,46.2284029 47.0325194,46.0910652 46.3962359,45.3139354 L46.3962359,45.3139354 C45.7600922,44.5369765 45.9057691,43.4140562 46.7194286,42.8074523 L49.9768914,40.3789306 L49.9768914,40.3789306 Z" id="Rectangle-39-Copy-2" sketch:type="MSShapeGroup"></path>
        </g>
    </g>
</svg>