<?xml version="1.0" encoding="UTF-8" standalone="no"?>
<svg width="88px" height="61px" viewBox="0 0 88 61" version="1.1" xmlns="http://www.w3.org/2000/svg" xmlns:xlink="http://www.w3.org/1999/xlink" xmlns:sketch="http://www.bohemiancoding.com/sketch/ns">
    <!-- Generator: Sketch 3.4.4 (17249) - http://www.bohemiancoding.com/sketch -->
    <title>Slice 1</title>
    <desc>Created with Sketch.</desc>
    <defs></defs>
    <g id="Page-1" stroke="none" stroke-width="1" fill="none" fill-rule="evenodd" sketch:type="MSPage">
        <g id="Money" sketch:type="MSLayerGroup" transform="translate(1.000000, 1.000000)" stroke="#126BEE" stroke-width="2" stroke-linecap="round" stroke-linejoin="round">
            <path d="M16,4.13114754 C16,4.13114754 20.7544779,5.85245902 31.964415,5.85245902 C44.5702172,5.85245902 57.5985137,9.00090895e-16 69.8481803,0 C82.0978468,-8.87545756e-16 86,2.40983607 86,2.40983607 L86,38.557377 C86,38.557377 81.2735328,36.147541 69.8481803,36.147541 C58.4228277,36.147541 44.6144563,42 31.964415,42 C21.2933498,42 16,38.557377 16,38.557377 L16,4.13114754 Z" id="Rectangle-36" sketch:type="MSShapeGroup"></path>
            <path d="M78,37.5410569 L78,46.5454545 C78,46.5454545 73.2735328,44.1272727 61.8481803,44.1272727 C50.4228277,44.1272727 36.6144563,50 23.964415,50 C13.2933498,50 8,46.5454545 8,46.5454545 L8,12 C8,12 9.55441066,12.9267654 15.324943,13.4225948" id="Rectangle-36" sketch:type="MSShapeGroup"></path>
            <path d="M70,45.1702417 L70,54.5454545 C70,54.5454545 65.2735328,52.1272727 53.8481803,52.1272727 C42.4228277,52.1272727 28.6144563,58 15.964415,58 C5.29334985,58 0,54.5454545 0,54.5454545 L0,20 C0,20 1.5304128,20.9180471 7.24353835,21.4155531" id="Rectangle-36" sketch:type="MSShapeGroup"></path>
            <path d="M27.9636118,31 L27.9636118,16.0002974 L33.4781605,16.0002974 C33.4781605,16.0002974 37,15.887603 37,20.0494974 C37,24.2113918 34.0525522,24.6794707 34.0525522,24.6794707 L25,24.6794707" id="Path-318" sketch:type="MSShapeGroup"></path>
            <path d="M25,28 L35,28" id="Path-319" sketch:type="MSShapeGroup"></path>
        </g>
    </g>
</svg>