<?xml version="1.0" encoding="UTF-8" standalone="no"?>
<svg version="1.1" xmlns="http://www.w3.org/2000/svg" xmlns:xlink="http://www.w3.org/1999/xlink" xmlns:sketch="http://www.bohemiancoding.com/sketch/ns">
    <!-- Generator: Sketch 3.4.4 (17249) - http://www.bohemiancoding.com/sketch -->
    <title>rain</title>
    <desc>Created with Sketch.</desc>
    <defs></defs>
    <g id="Page-1" stroke="none" stroke-width="1" fill="none" fill-rule="evenodd" sketch:type="MSPage">
        <g id="05-About" sketch:type="MSArtboardGroup" transform="translate(-750.000000, -5739.000000)" stroke-linecap="round" stroke="#126BEE" stroke-width="2">
            <g id="Content" sketch:type="MSLayerGroup" transform="translate(481.000000, 5640.000000)">
                <g id="rain" transform="translate(303.158965, 130.011851) rotate(-330.000000) translate(-303.158965, -130.011851) translate(265.158965, 96.511851)" sketch:type="MSShapeGroup">
                    <path d="M37.0621778,32.873067 L37.0621778,61.7063138 C37.0621778,61.7063138 36.887037,66.873067 31.5868506,66.873067 C26.2866642,66.873067 27.108181,61.3062993 27.108181,61.3062993" id="Path-4798"></path>
                    <path d="M75.3349365,34.4821313 C70.8641536,18.1403244 55.6273611,5.58012702 37.8044207,5.58012702 C19.7483283,5.58012702 4.58363343,17.9111839 0.334936491,34.580127" id="Oval-94"></path>
                    <path d="M49.2578979,34.9544827 C49.3168102,34.1329476 49.3467875,33.303152 49.3467875,32.4661661 C49.3467875,21.5429978 44.2410968,11.8444427 36.3467875,5.74997404 L36.3467875,0.954482672" id="Oval-94"></path>
                    <path d="M35.451565,34.6064065 C35.5104773,33.7906243 35.5404546,32.9666394 35.5404546,32.1355147 C35.5404546,21.2888374 30.4347639,11.6581978 22.5404546,5.60640646" id="Oval-94" transform="translate(28.914937, 20.033939) scale(-1, 1) translate(-28.914937, -20.033939) "></path>
                    <path d="M1.00961894,32.7487113 L74.0096189,32.7487113" id="Path-4797"></path>
                </g>
            </g>
        </g>
    </g>
</svg>
