<?xml version="1.0" encoding="UTF-8" standalone="no"?>
<svg width="66px" height="68px" viewBox="0 0 66 68" version="1.1" xmlns="http://www.w3.org/2000/svg" xmlns:xlink="http://www.w3.org/1999/xlink" xmlns:sketch="http://www.bohemiancoding.com/sketch/ns">
    <!-- Generator: Sketch 3.4.4 (17249) - http://www.bohemiancoding.com/sketch -->
    <title>Mosquito</title>
    <desc>Created with Sketch.</desc>
    <defs></defs>
    <g id="Page-1" stroke="none" stroke-width="1" fill="none" fill-rule="evenodd" sketch:type="MSPage">
        <g id="05-About" sketch:type="MSArtboardGroup" transform="translate(-481.000000, -5731.000000)" stroke-linecap="round" stroke="#126BEE" stroke-width="2">
            <g id="Content" sketch:type="MSLayerGroup" transform="translate(481.000000, 5640.000000)">
                <g id="Mosquito" transform="translate(0.000000, 92.000000)" sketch:type="MSShapeGroup">
                    <path d="M29,22 L37,22 L40,29 L37,40 C37,40 37.6606708,44.3432514 38,50 C37.6606708,55.1595958 35.6266567,60 33,60 C30.651677,60 28.254125,55.6026009 28,50 C28.254125,43.9265634 29,40 29,40 L26,29 L29,22 Z" id="Path-4796"></path>
                    <path d="M29,22 L37,22 C37.5192528,20.9385175 38,19.5373153 38,18 C38,14.6868921 35.7614237,12 33,12 C30.2385763,12 28,14.6868921 28,18 C28,19.466899 28.4376782,20.8097589 29,22 Z" id="Oval-93"></path>
                    <path d="M12.487793,0.704589844 L15.4477539,3.63671875 L19.8339844,17.1337891 L28.8842773,22.2006836" id="Path-4797"></path>
                    <path d="M27.9165039,24.5859375 C27.9165039,24.5859375 16.4580078,19.6484375 8.44970703,19.6484375 C0.44140625,19.6484375 0.997558594,26.0771484 0.997558594,26.0771484 C0.997558594,26.0771484 1.78564404,33.1542969 9.39501953,33.1542969 C17.004395,33.1542969 26.1240234,29.6015625 26.1240234,29.6015625" id="Path-4798"></path>
                    <path d="M26.8652344,32.7880859 L18.3662109,36.034668 C18.3662109,36.034668 17.4628906,52.75 9.43164062,53.5751953" id="Path-4799"></path>
                    <path d="M27.8945312,35.5859375 C27.8945312,35.5859375 23.8828125,38.7045898 21.034668,47.0595703 C18.1865234,55.4145508 19.128418,57.4335938 17.0336914,60.7597656 C14.9389648,64.0859375 13.7456055,64.7192383 11.6015625,65.4370117" id="Path-4800"></path>
                    <path d="M33,6.08105469 L33,11.5328788" id="Path-4801"></path>
                    <path d="M37.487793,0.704589844 L40.4477539,3.63671875 L44.8339844,17.1337891 L53.8842773,22.2006836" id="Path-4797" transform="translate(45.686035, 11.452637) scale(-1, 1) translate(-45.686035, -11.452637) "></path>
                    <path d="M64.9165039,24.5859375 C64.9165039,24.5859375 53.4580078,19.6484375 45.449707,19.6484375 C37.4414063,19.6484375 37.9975586,26.0771484 37.9975586,26.0771484 C37.9975586,26.0771484 38.785644,33.1542969 46.3950195,33.1542969 C54.004395,33.1542969 63.1240234,29.6015625 63.1240234,29.6015625" id="Path-4798" transform="translate(51.452895, 26.401367) scale(-1, 1) translate(-51.452895, -26.401367) "></path>
                    <path d="M56.8652344,32.7880859 L48.3662109,36.034668 C48.3662109,36.034668 47.4628906,52.75 39.4316406,53.5751953" id="Path-4799" transform="translate(48.148438, 43.181641) scale(-1, 1) translate(-48.148438, -43.181641) "></path>
                    <path d="M54.8945312,35.5859375 C54.8945312,35.5859375 50.8828125,38.7045898 48.034668,47.0595703 C45.1865234,55.4145508 46.128418,57.4335938 44.0336914,60.7597656 C41.9389648,64.0859375 40.7456055,64.7192383 38.6015625,65.4370117" id="Path-4800" transform="translate(46.748047, 50.511475) scale(-1, 1) translate(-46.748047, -50.511475) "></path>
                </g>
            </g>
        </g>
    </g>
</svg>