<?xml version="1.0" encoding="UTF-8" standalone="no"?>
<svg width="65px" height="70px" viewBox="0 0 65 70" version="1.1" xmlns="http://www.w3.org/2000/svg" xmlns:xlink="http://www.w3.org/1999/xlink" xmlns:sketch="http://www.bohemiancoding.com/sketch/ns">
    <!-- Generator: Sketch 3.4.4 (17249) - http://www.bohemiancoding.com/sketch -->
    <title>Slice 1</title>
    <desc>Created with Sketch.</desc>
    <defs></defs>
    <g id="Page-1" stroke="none" stroke-width="1" fill="none" fill-rule="evenodd" sketch:type="MSPage">
        <g id="Map" sketch:type="MSLayerGroup" transform="translate(1.000000, 1.000000)" stroke="#126BEE" stroke-width="2" stroke-linecap="round">
            <path d="M6.10198144,47.0212051 L13.0385908,59.7833333 L20.4791643,46.6875549 C23.8627267,44.3331036 26.0771817,40.416721 26.0771817,35.9833333 C26.0771817,28.7852221 20.2396057,22.95 13.0385908,22.95 C5.83757596,22.95 0,28.7852221 0,35.9833333 C0,40.6332308 2.43602756,44.714393 6.10198144,47.0212051 Z M13.0385908,41.0833333 C15.8563793,41.0833333 18.1406481,38.7999856 18.1406481,35.9833333 C18.1406481,33.1666811 15.8563793,30.8833333 13.0385908,30.8833333 C10.2208024,30.8833333 7.93653355,33.1666811 7.93653355,35.9833333 C7.93653355,38.7999856 10.2208024,41.0833333 13.0385908,41.0833333 Z" id="Oval-21" stroke-linejoin="round" sketch:type="MSShapeGroup"></path>
            <path d="M42.9501729,24.0712051 L49.8867823,36.8333333 L57.3273558,23.7375549 C60.7109181,21.3831036 62.9253731,17.466721 62.9253731,13.0333333 C62.9253731,5.83522209 57.0877972,0 49.8867823,0 C42.6857674,0 36.8481915,5.83522209 36.8481915,13.0333333 C36.8481915,17.6832308 39.284219,21.764393 42.9501729,24.0712051 Z M49.8867823,18.1333333 C52.7045707,18.1333333 54.9888396,15.8499856 54.9888396,13.0333333 C54.9888396,10.2166811 52.7045707,7.93333333 49.8867823,7.93333333 C47.0689939,7.93333333 44.784725,10.2166811 44.784725,13.0333333 C44.784725,15.8499856 47.0689939,18.1333333 49.8867823,18.1333333 Z" id="Oval-21-Copy" stroke-linejoin="round" sketch:type="MSShapeGroup"></path>
            <path d="M18.5641587,67.8284505 C18.5641587,67.8284505 21.2812096,62.4140956 27.0332034,60.5917975 C32.7851972,58.7694993 35.4384759,60.3037106 38.7832025,57.4501949 C42.127929,54.5966793 40.8938856,48.8320637 43.7783196,46.5449219 C46.6627537,44.2577802 50.6020447,44.4296549 50.6020447,44.4296549" id="Path-330" sketch:type="MSShapeGroup"></path>
        </g>
    </g>
</svg>