<?xml version="1.0" encoding="UTF-8" standalone="no"?>
<svg width="79px" height="63px" viewBox="0 0 79 63" version="1.1" xmlns="http://www.w3.org/2000/svg" xmlns:xlink="http://www.w3.org/1999/xlink" xmlns:sketch="http://www.bohemiancoding.com/sketch/ns">
    <!-- Generator: Sketch 3.4.4 (17249) - http://www.bohemiancoding.com/sketch -->
    <title>Slice 1</title>
    <desc>Created with Sketch.</desc>
    <defs></defs>
    <g id="Page-1" stroke="none" stroke-width="1" fill="none" fill-rule="evenodd" sketch:type="MSPage">
        <g id="Plan" sketch:type="MSLayerGroup" transform="translate(1.000000, 2.000000)" stroke="#126BEE" stroke-width="2" stroke-linecap="round" stroke-linejoin="round">
            <path d="M1,7.10542736e-15 L1,53.5980114 L19.75,59 L38.5,53.5980114 L57.25,59 L76,53.5980114 L75.9404232,7.10542736e-15 L57.2053174,4.99007227 L38.4702116,7.10542736e-15 L19.7351058,4.99007227 L1,7.10542736e-15 Z" id="Path-310" sketch:type="MSShapeGroup"></path>
            <path d="M47,31 C47,31 45.0747428,31.006175 42,31.1068924 M35,31 C31.3226755,31.2119661 27.165076,31.5282237 23,32 M15,34 C9.18365202,34.916304 4.01338791,36.2004424 1,38" id="Path-311" sketch:type="MSShapeGroup"></path>
            <path d="M57,59 L57,40" id="Path-314" sketch:type="MSShapeGroup"></path>
            <path d="M61.9753764,37.4660134 L51,26" id="Path-314-Copy-2" sketch:type="MSShapeGroup"></path>
            <path d="M61.9753764,37.4660134 L51,26" id="Path-314-Copy-2" sketch:type="MSShapeGroup" transform="translate(56.500000, 32.000000) scale(-1, 1) translate(-56.500000, -32.000000) "></path>
            <path d="M57,25 L57,6" id="Path-314" sketch:type="MSShapeGroup"></path>
            <path d="M38,54 L38,38" id="Path-314-Copy" sketch:type="MSShapeGroup"></path>
            <path d="M38,16 L38,1" id="Path-314-Copy" sketch:type="MSShapeGroup"></path>
            <path d="M19,59 L19,40" id="Path-314" sketch:type="MSShapeGroup"></path>
            <path d="M19,25 L19,6" id="Path-314" sketch:type="MSShapeGroup"></path>
        </g>
    </g>
</svg>