<?xml version="1.0" encoding="UTF-8" standalone="no"?>
<svg width="28px" height="28px" viewBox="0 0 28 28" version="1.1" xmlns="http://www.w3.org/2000/svg" xmlns:xlink="http://www.w3.org/1999/xlink" xmlns:sketch="http://www.bohemiancoding.com/sketch/ns">
    <!-- Generator: Sketch 3.4.4 (17249) - http://www.bohemiancoding.com/sketch -->
    <title>Slice 1</title>
    <desc>Created with Sketch.</desc>
    <defs></defs>
    <g id="Page-1" stroke="none" stroke-width="1" fill="none" fill-rule="evenodd" sketch:type="MSPage">
        <path d="M15.9855456,25.163209 L15.1993349,24.3737313 C14.7667522,24.8073881 14.202949,25.0186567 13.6258014,25.0297761 C13.0497658,25.0186567 12.4859627,24.8073881 12.0533799,24.3737313 L2.87128376,15.2002239 C2.43981309,14.7665672 2.22518979,14.1994776 2.22407775,13.6212687 C2.22518979,13.0430597 2.43981309,12.4870896 2.87128376,12.0534328 L12.0533799,2.86880597 C12.4859627,2.43514925 13.0497658,2.2238806 13.6258014,2.2238806 C14.202949,2.2238806 14.7667522,2.43514925 15.1993349,2.86880597 L24.3814311,12.0534328 C24.8129018,12.4870896 25.0275251,13.0430597 25.0286371,13.6212687 C25.0275251,14.1994776 24.8129018,14.7665672 24.3814311,15.2002239 L15.1993349,24.3737313 L16.7717564,25.9526866 L25.9538526,16.7680597 C26.82013,15.9007463 27.2538248,14.7554478 27.2527127,13.6212687 C27.2538248,12.4870896 26.82013,11.341791 25.9538526,10.4744776 L16.7717564,1.30097015 C15.906591,0.433656716 14.76008,0 13.6258014,0 C12.4926349,0 11.3461239,0.433656716 10.4809585,1.30097015 L1.29886229,10.4744776 C0.432584841,11.341791 -0.00110990474,12.4870896 2.1330695e-06,13.6212687 C-0.00110990474,14.7554478 0.432584841,15.9007463 1.29886229,16.7680597 L10.4809585,25.9526866 C11.3461239,26.82 12.4926349,27.2536567 13.6258014,27.2536567 C14.76008,27.2536567 15.906591,26.82 16.7717564,25.9526866 L15.9855456,25.163209" id="Fill-471" fill="#126BEE" sketch:type="MSShapeGroup"></path>
        <path d="M10.9859279,8.93899422 L10.9859279,18.3413608 L13.3772436,18.3413608 L13.3772436,15.5851577 L14.9605943,15.5851577 C17.052181,15.5851577 18.4921831,14.2754725 18.4921831,12.2751076 C18.4921831,10.2551952 17.1238553,8.93899422 15.1039429,8.93899422 L10.9859279,8.93899422 Z M13.3772436,10.7764629 L14.4719058,10.7764629 C15.481862,10.7764629 16.0748041,11.2912148 16.0748041,12.2816235 C16.0748041,13.2590005 15.4753462,13.7802682 14.4588741,13.7802682 L13.3772436,13.7802682 L13.3772436,10.7764629 Z" id="P" fill="#126BEE" sketch:type="MSShapeGroup"></path>
    </g>
</svg>