<?xml version="1.0" encoding="UTF-8" standalone="no"?>
<svg version="1.1" xmlns="http://www.w3.org/2000/svg" xmlns:xlink="http://www.w3.org/1999/xlink" xmlns:sketch="http://www.bohemiancoding.com/sketch/ns">

    <!-- Generator: Sketch 3.4.4 (17249) - http://www.bohemiancoding.com/sketch -->
    <title>Fill 471 + P</title>
    <desc>Created with Sketch.</desc>
    <defs></defs>
    <g id="Page-1" stroke="none" stroke-width="1" fill="none" fill-rule="evenodd" sketch:type="MSPage">
        <g id="05-About" sketch:type="MSArtboardGroup" transform="translate(-634.000000, -4666.000000)" fill="#126BEE">
            <g id="Parking" sketch:type="MSLayerGroup" transform="translate(485.000000, 4662.000000)">
                <g id="Fill-471-+-P" transform="translate(149.000000, 4.000000)">
                    <path d="M16.0422574,25.7779104 L15.2560467,24.9884328 C14.823464,25.4220896 14.2596608,25.6333582 13.6825132,25.6444776 C13.1064776,25.6333582 12.5426745,25.4220896 12.1100917,24.9884328 L2.92799555,15.8149254 C2.49652488,15.3812687 2.28190158,14.8141791 2.28078955,14.2359701 C2.28190158,13.6577612 2.49652488,13.101791 2.92799555,12.6681343 L12.1100917,3.48350746 C12.5426745,3.04985075 13.1064776,2.83858209 13.6825132,2.83858209 C14.2596608,2.83858209 14.823464,3.04985075 15.2560467,3.48350746 L24.4381429,12.6681343 C24.8696136,13.101791 25.0842369,13.6577612 25.0853489,14.2359701 C25.0842369,14.8141791 24.8696136,15.3812687 24.4381429,15.8149254 L15.2560467,24.9884328 L16.8284682,26.5673881 L26.0105644,17.3827612 C26.8768418,16.5154478 27.3105366,15.3701493 27.3094245,14.2359701 C27.3105366,13.101791 26.8768418,11.9564925 26.0105644,11.0891791 L16.8284682,1.91567164 C15.9633028,1.04835821 14.8167918,0.614701493 13.6825132,0.614701493 C12.5493467,0.614701493 11.4028357,1.04835821 10.5376703,1.91567164 L1.35557409,11.0891791 C0.489296636,11.9564925 0.0556018905,13.101791 0.0567139283,14.2359701 C0.0556018905,15.3701493 0.489296636,16.5154478 1.35557409,17.3827612 L10.5376703,26.5673881 C11.4028357,27.4347015 12.5493467,27.8683582 13.6825132,27.8683582 C14.8167918,27.8683582 15.9633028,27.4347015 16.8284682,26.5673881 L16.0422574,25.7779104" id="Fill-471" sketch:type="MSShapeGroup"></path>
                    <text id="P" sketch:type="MSTextLayer" font-family="SF UI Text" font-size="13.3444537" font-weight="633">
                        <tspan x="9.93494579" y="19.9560623">P</tspan>
                    </text>
                </g>
            </g>
        </g>
    </g>
</svg>
