<?xml version="1.0" encoding="UTF-8" standalone="no"?>
<svg width="50px" height="50px" viewBox="0 0 50 50" version="1.1" xmlns="http://www.w3.org/2000/svg" xmlns:xlink="http://www.w3.org/1999/xlink" xmlns:sketch="http://www.bohemiancoding.com/sketch/ns">
    <!-- Generator: Sketch 3.4.4 (17249) - http://www.bohemiancoding.com/sketch -->
    <title>Untitled</title>
    <desc>Created with Sketch.</desc>
    <defs></defs>
    <g id="Page-1" stroke="none" stroke-width="1" fill="none" fill-rule="evenodd" sketch:type="MSPage">
        <g id="Ok" sketch:type="MSLayerGroup">
            <ellipse id="Oval-276-Copy-2" fill="#F68735" sketch:type="MSShapeGroup" cx="25.3233831" cy="25" rx="24.6766169" ry="25"></ellipse>
            <path d="M27.1237623,28.921875 C27.7690558,28.756875 28.8745683,28.355625 29.6463294,27.895 C30.4187076,27.435 30.3267872,26.5975 30.1306081,26.125625 C29.9344289,25.653125 29.1398419,25.110625 28.402011,25.559375 C26.6629265,26.656875 25.3266877,26.515 25.3266877,26.515 C24.0940906,26.515 23.1730359,26.06625 22.3204588,25.594375 C21.4678817,25.121875 20.8922996,25.653125 20.627026,26.019375 C20.3617523,26.385 20.0853742,27.186875 21.1797822,27.930625 C22.2735732,28.67375 23.5641603,28.921875 23.5641603,28.921875 L21.1100707,31.435 C21.1100707,31.435 20.1883991,32.4025 21.0755235,33.31125 C21.9626479,34.219375 22.8374339,33.4175 22.8374339,33.4175 L25.360618,30.86875 L27.7795434,33.346875 C27.7795434,33.346875 28.6777722,34.2675 29.576618,33.346875 C30.4748469,32.42625 29.576618,31.470625 29.576618,31.470625 L27.1237623,28.921875 Z M25.3279215,25.18625 C27.6765185,25.18625 29.5803195,23.185625 29.5803195,20.718125 C29.5803195,18.25 27.6765185,16.25 25.3279215,16.25 C22.9793245,16.25 21.0761404,18.25 21.0761404,20.718125 C21.0761404,23.185625 22.9793245,25.18625 25.3279215,25.18625 Z M25.3291553,18.75375 C26.3606379,18.75375 27.1971752,19.6325 27.1971752,20.7175 C27.1971752,21.80125 26.3606379,22.68125 25.3291553,22.68125 C24.2970558,22.68125 23.4605185,21.801875 23.4605185,20.7175 C23.4605185,19.6325 24.2970558,18.75375 25.3291553,18.75375 Z" fill="#FFFFFF" sketch:type="MSShapeGroup"></path>
        </g>
    </g>
</svg>