<?xml version="1.0" encoding="UTF-8" standalone="no"?>
<svg width="50px" height="50px" viewBox="0 0 50 50" version="1.1" xmlns="http://www.w3.org/2000/svg" xmlns:xlink="http://www.w3.org/1999/xlink" xmlns:sketch="http://www.bohemiancoding.com/sketch/ns">
    <!-- Generator: Sketch 3.4.4 (17249) - http://www.bohemiancoding.com/sketch -->
    <title>Untitled</title>
    <desc>Created with Sketch.</desc>
    <defs></defs>
    <g id="Page-1" stroke="none" stroke-width="1" fill="none" fill-rule="evenodd" sketch:type="MSPage">
        <g id="Facebook" sketch:type="MSLayerGroup">
            <ellipse id="Oval-276" fill="#3E5F94" sketch:type="MSShapeGroup" cx="24.6766169" cy="25" rx="24.6766169" ry="25"></ellipse>
            <path d="M26.7722786,17.5 C25.981393,17.5 25.3206766,17.620625 24.7919801,17.863125 C24.2626667,18.105625 23.8413134,18.4325 23.5291542,18.844375 C23.2163781,19.256875 22.9967562,19.735 22.8690547,20.2775 C22.7413532,20.82125 22.6778109,21.39375 22.6778109,21.995625 L22.6778109,22.7625 L20.9751244,22.7625 L20.9751244,25.21375 L22.6778109,25.21375 L22.6778109,31.88375 L25.7568358,31.88375 L25.7568358,25.21375 L28.0863085,25.21375 L28.0863085,22.7625 L25.7568358,22.7625 L25.7568358,21.956875 C25.7568358,21.735 25.7759602,21.511875 25.814209,21.289375 C25.8524577,21.0675 25.9221692,20.8675 26.0245771,20.690625 C26.1263682,20.51375 26.2670249,20.373125 26.4453134,20.268125 C26.6242189,20.16375 26.8598806,20.11125 27.1529154,20.11125 C27.3059104,20.11125 27.6001791,20.124375 27.7531741,20.15 C27.9061692,20.176875 28.0400398,20.209375 28.1547861,20.248125 L28.3651542,17.695625 C28.148,17.630625 27.8265871,17.58125 27.5656318,17.54875 C27.3046766,17.516875 27.0400199,17.5 26.7722786,17.5 L26.7722786,17.5 Z" fill="#FFFFFF" sketch:type="MSShapeGroup"></path>
        </g>
    </g>
</svg>