<?xml version="1.0" encoding="utf-8"?>
<!-- Generator: Adobe Illustrator 19.2.1, SVG Export Plug-In . SVG Version: 6.00 Build 0)  -->
<svg version="1.0" id="Layer_1" xmlns="http://www.w3.org/2000/svg" xmlns:xlink="http://www.w3.org/1999/xlink" x="0px" y="0px"
	 width="187.794px" height="214.869px" viewBox="0 0 187.794 214.869" enable-background="new 0 0 187.794 214.869"
	 xml:space="preserve">
<g>
	<path fill="#FFFFFF" d="M21.05,32.02c0.109-2.156,1.51-5.931,6.361-5.931c3.719,0,5.392,2.049,6.093,5.931H21.05z M41.156,36.873
		c0.542-8.574-4.042-16.554-13.528-16.554c-8.465,0-14.232,6.363-14.232,14.721c0,8.628,5.445,14.667,14.232,14.667
		c6.307,0,10.891-2.804,13.044-9.383h-6.737c-0.486,1.726-2.966,3.614-6.038,3.614c-4.259,0-6.632-2.211-6.847-7.065H41.156z"/>
	<path fill="#FFFFFF" d="M49.428,48.952h7.651V26.197h5.285v-5.123h-5.285v-1.672c0-2.318,0.865-3.181,2.913-3.181
		c0.97,0,1.888,0.054,2.802,0.162v-5.716c-1.292-0.054-2.693-0.216-4.041-0.216c-6.254,0-9.325,3.559-9.325,8.466v2.157h-4.584
		v5.123h4.584V48.952z"/>
	<path fill="#FFFFFF" d="M66.197,48.952h7.656V26.197h5.285v-5.123h-5.285v-1.672c0-2.318,0.864-3.181,2.91-3.181
		c0.97,0,1.887,0.054,2.805,0.162v-5.716c-1.293-0.054-2.697-0.216-4.042-0.216c-6.255,0-9.329,3.559-9.329,8.466v2.157h-4.58v5.123
		h4.58V48.952z"/>
	<path fill="#FFFFFF" d="M90.843,32.02c0.106-2.156,1.507-5.931,6.359-5.931c3.72,0,5.391,2.049,6.094,5.931H90.843z
		 M110.948,36.873c0.54-8.574-4.044-16.554-13.529-16.554c-8.464,0-14.231,6.363-14.231,14.721c0,8.628,5.442,14.667,14.231,14.667
		c6.306,0,10.889-2.804,13.043-9.383h-6.737c-0.485,1.726-2.965,3.614-6.039,3.614c-4.255,0-6.63-2.211-6.843-7.065H110.948z"/>
	<path fill="#FFFFFF" d="M144.015,30.888c-0.484-7.118-6.522-10.569-13.098-10.569c-9.061,0-14.234,6.417-14.234,15.099
		c0,8.357,5.662,14.289,14.073,14.289c7.328,0,12.45-4.044,13.422-11.431h-7.389c-0.484,3.396-2.531,5.662-6.09,5.662
		c-4.798,0-6.36-4.8-6.36-8.79c0-4.098,1.615-9.059,6.522-9.059c3.179,0,5.176,1.671,5.662,4.799H144.015z"/>
	<path fill="#FFFFFF" d="M160.263,12.716h-7.656v8.358h-4.636v5.123h4.636v16.446c0,5.554,4.099,6.633,8.787,6.633
		c1.51,0,3.18-0.054,4.472-0.27v-5.985c-0.808,0.161-1.561,0.215-2.369,0.215c-2.589,0-3.233-0.647-3.233-3.235V26.197h5.602v-5.123
		h-5.602V12.716z"/>
	<path fill="#FFFFFF" d="M174.765,13.707h1.277c0.69,0,1.567,0.128,1.567,0.949c0,0.931-0.64,1.058-1.496,1.058h-1.349V13.707z
		 M173.251,20.167h1.514v-3.266h0.946l1.86,3.266h1.588l-2.044-3.339c1.132-0.091,2.009-0.639,2.009-2.044
		c0-1.66-1.076-2.263-2.992-2.263h-2.881V20.167z M170.824,16.354c0-3.102,2.281-5.347,5.145-5.347c2.827,0,5.146,2.245,5.146,5.347
		c0,3.119-2.318,5.382-5.146,5.382C173.105,21.736,170.824,19.473,170.824,16.354 M168.962,16.354c0,4.159,3.303,6.841,7.006,6.841
		c3.704,0,7.005-2.682,7.005-6.841c0-4.142-3.301-6.806-7.005-6.806C172.265,9.548,168.962,12.212,168.962,16.354"/>
	<path fill="#FFFFFF" d="M13.609,71.705c0-6.766,5.483-12.25,12.248-12.25c6.764,0,12.247,5.484,12.247,12.25
		c0,6.765-5.483,12.249-12.247,12.249C19.092,83.954,13.609,78.47,13.609,71.705"/>
	<path fill="#FFFFFF" d="M47.902,71.705c0-6.766,5.483-12.25,12.247-12.25c6.765,0,12.248,5.484,12.248,12.25
		c0,6.765-5.483,12.249-12.248,12.249C53.385,83.954,47.902,78.47,47.902,71.705"/>
	<path fill="#FFFFFF" d="M82.195,71.705c0-6.766,5.483-12.25,12.247-12.25c6.764,0,12.248,5.484,12.248,12.25
		c0,6.765-5.484,12.249-12.248,12.249C87.678,83.954,82.195,78.47,82.195,71.705"/>
	<path fill="#FFFFFF" d="M116.488,71.705c0-6.766,5.483-12.25,12.247-12.25c6.764,0,12.248,5.484,12.248,12.25
		c0,6.765-5.484,12.249-12.248,12.249C121.971,83.954,116.488,78.47,116.488,71.705"/>
	<path fill="#FFFFFF" d="M150.78,71.705c0-6.766,5.483-12.25,12.248-12.25c6.765,0,12.247,5.484,12.247,12.25
		c0,6.765-5.482,12.249-12.247,12.249C156.263,83.954,150.78,78.47,150.78,71.705"/>
	<path fill="#FFFFFF" d="M13.609,106.006c0-6.765,5.483-12.249,12.248-12.249c6.764,0,12.247,5.484,12.247,12.249
		c0,6.766-5.483,12.25-12.247,12.25C19.092,118.256,13.609,112.771,13.609,106.006"/>
	<path fill="#FFFFFF" d="M47.902,106.006c0-6.765,5.483-12.249,12.247-12.249c6.765,0,12.248,5.484,12.248,12.249
		c0,6.766-5.483,12.25-12.248,12.25C53.385,118.256,47.902,112.771,47.902,106.006"/>
	<path fill="#FFFFFF" d="M82.195,106.006c0-6.765,5.483-12.249,12.247-12.249c6.764,0,12.248,5.484,12.248,12.249
		c0,6.766-5.484,12.25-12.248,12.25C87.678,118.256,82.195,112.771,82.195,106.006"/>
	<path fill="#FFFFFF" d="M116.488,106.006c0-6.765,5.483-12.249,12.247-12.249c6.764,0,12.248,5.484,12.248,12.249
		c0,6.766-5.484,12.25-12.248,12.25C121.971,118.256,116.488,112.771,116.488,106.006"/>
	<path fill="#FFFFFF" d="M150.78,106.006c0-6.765,5.483-12.249,12.248-12.249c6.765,0,12.247,5.484,12.247,12.249
		c0,6.766-5.482,12.25-12.247,12.25C156.263,118.256,150.78,112.771,150.78,106.006"/>
	<path fill="#FFFFFF" d="M13.609,140.308c0-6.766,5.483-12.25,12.248-12.25c6.764,0,12.247,5.484,12.247,12.25
		c0,6.766-5.483,12.25-12.247,12.25C19.092,152.558,13.609,147.073,13.609,140.308"/>
	<path fill="#FFFFFF" d="M47.902,140.308c0-6.766,5.483-12.25,12.247-12.25c6.765,0,12.248,5.484,12.248,12.25
		c0,6.766-5.483,12.25-12.248,12.25C53.385,152.558,47.902,147.073,47.902,140.308"/>
	<path fill="#FFFFFF" d="M82.195,140.308c0-6.766,5.483-12.25,12.247-12.25c6.764,0,12.248,5.484,12.248,12.25
		c0,6.766-5.484,12.25-12.248,12.25C87.678,152.558,82.195,147.073,82.195,140.308"/>
	<path fill="#FFFFFF" d="M116.488,140.308c0-6.766,5.483-12.25,12.247-12.25c6.764,0,12.248,5.484,12.248,12.25
		c0,6.766-5.484,12.25-12.248,12.25C121.971,152.558,116.488,147.073,116.488,140.308"/>
	<path fill="#FFFFFF" d="M150.78,140.308c0-6.766,5.483-12.25,12.248-12.25c6.765,0,12.247,5.484,12.247,12.25
		c0,6.766-5.482,12.25-12.247,12.25C156.263,152.558,150.78,147.073,150.78,140.308"/>
	<polygon fill="#FFFFFF" points="39.535,200.214 48.069,200.214 48.069,198.136 42.007,198.136 42.007,195.38 47.455,195.38
		47.455,193.459 42.007,193.459 42.007,191.05 47.943,191.05 47.943,188.971 39.535,188.971 	"/>
	<polygon fill="#FFFFFF" points="51.138,200.214 53.453,200.214 53.453,192.686 53.484,192.686 58.161,200.214 60.633,200.214
		60.633,188.971 58.319,188.971 58.319,196.514 58.287,196.514 53.595,188.971 51.138,188.971 	"/>
	<polygon fill="#FFFFFF" points="64.219,200.214 72.754,200.214 72.754,198.136 66.692,198.136 66.692,195.38 72.14,195.38
		72.14,193.459 66.692,193.459 66.692,191.05 72.628,191.05 72.628,188.971 64.219,188.971 	"/>
	<path fill="#FFFFFF" d="M78.295,190.892h2.708c0.557,0,0.979,0.123,1.268,0.37c0.289,0.247,0.433,0.644,0.433,1.19
		c0,0.566-0.144,0.976-0.433,1.227c-0.289,0.252-0.711,0.378-1.268,0.378h-2.708V190.892z M75.823,200.214h2.472v-4.394h2.472
		c0.619,0,1.066,0.137,1.339,0.409c0.273,0.273,0.451,0.704,0.535,1.291c0.032,0.222,0.055,0.454,0.071,0.701
		c0.016,0.247,0.037,0.488,0.063,0.724c0.026,0.236,0.058,0.464,0.094,0.679c0.037,0.215,0.092,0.411,0.166,0.59h2.472
		c-0.116-0.157-0.202-0.352-0.26-0.583c-0.058-0.231-0.1-0.47-0.126-0.716c-0.026-0.247-0.045-0.491-0.055-0.732
		c-0.01-0.242-0.021-0.452-0.031-0.63c-0.022-0.283-0.061-0.564-0.119-0.843c-0.057-0.278-0.149-0.538-0.275-0.779
		c-0.126-0.242-0.289-0.449-0.488-0.622c-0.2-0.173-0.452-0.302-0.756-0.386v-0.031c0.63-0.252,1.084-0.62,1.362-1.103
		c0.278-0.482,0.417-1.055,0.417-1.716c0-0.421-0.076-0.819-0.228-1.197c-0.152-0.377-0.373-0.708-0.661-0.992
		c-0.289-0.283-0.636-0.506-1.04-0.669c-0.404-0.163-0.858-0.244-1.362-0.244h-6.062V200.214z"/>
	<path fill="#FFFFFF" d="M96.97,200.214h1.575v-6.078h-4.724v1.842h2.488c-0.074,0.787-0.337,1.39-0.788,1.804
		c-0.451,0.414-1.081,0.621-1.889,0.621c-0.557,0-1.029-0.107-1.418-0.322c-0.388-0.215-0.703-0.501-0.945-0.858
		c-0.241-0.355-0.417-0.758-0.527-1.204c-0.11-0.447-0.165-0.905-0.165-1.378c0-0.493,0.055-0.971,0.165-1.433
		c0.11-0.462,0.286-0.874,0.527-1.237c0.242-0.361,0.557-0.65,0.945-0.865c0.389-0.216,0.861-0.322,1.418-0.322
		c0.587,0,1.094,0.157,1.519,0.472c0.425,0.314,0.711,0.788,0.858,1.418h2.362c-0.063-0.641-0.238-1.208-0.527-1.701
		c-0.289-0.494-0.648-0.908-1.079-1.244c-0.431-0.336-0.916-0.591-1.457-0.763c-0.54-0.174-1.099-0.26-1.676-0.26
		c-0.872,0-1.649,0.151-2.331,0.456c-0.682,0.305-1.26,0.724-1.733,1.26c-0.473,0.535-0.835,1.165-1.087,1.89
		c-0.251,0.724-0.377,1.5-0.377,2.33c0,0.809,0.126,1.569,0.377,2.283c0.252,0.713,0.614,1.333,1.087,1.858
		c0.472,0.524,1.05,0.939,1.733,1.243c0.683,0.305,1.459,0.456,2.331,0.456c0.545,0,1.086-0.114,1.621-0.346
		c0.536-0.23,1.024-0.629,1.465-1.196L96.97,200.214z"/>
	<polygon fill="#FFFFFF" points="104.859,200.214 107.331,200.214 107.331,195.899 111.504,188.971 108.748,188.971
		106.134,193.412 103.505,188.971 100.717,188.971 104.859,195.836 	"/>
	<path fill="#FFFFFF" d="M122.143,191.05h1.764c0.608,0,1.12,0.086,1.535,0.259c0.414,0.174,0.748,0.423,1,0.749
		c0.252,0.325,0.433,0.716,0.543,1.173c0.11,0.456,0.165,0.969,0.165,1.535c0,0.619-0.079,1.145-0.236,1.575
		c-0.158,0.43-0.367,0.779-0.63,1.047c-0.262,0.268-0.562,0.459-0.897,0.574c-0.337,0.116-0.683,0.174-1.039,0.174h-2.205V191.05z
		 M119.67,200.214h4.85c0.861,0,1.61-0.145,2.245-0.433c0.635-0.288,1.164-0.686,1.59-1.189c0.425-0.504,0.742-1.102,0.953-1.795
		c0.21-0.693,0.315-1.449,0.315-2.267c0-0.936-0.129-1.748-0.386-2.441c-0.258-0.693-0.615-1.271-1.071-1.732
		c-0.457-0.462-0.997-0.808-1.622-1.04c-0.624-0.23-1.299-0.346-2.024-0.346h-4.85V200.214z"/>
	<path fill="#FFFFFF" d="M135.224,190.892h2.708c0.556,0,0.979,0.123,1.268,0.37c0.288,0.247,0.433,0.644,0.433,1.19
		c0,0.566-0.145,0.976-0.433,1.227c-0.289,0.252-0.712,0.378-1.268,0.378h-2.708V190.892z M132.752,200.214h2.472v-4.394h2.472
		c0.619,0,1.065,0.137,1.339,0.409c0.273,0.273,0.451,0.704,0.535,1.291c0.031,0.222,0.055,0.454,0.071,0.701
		c0.016,0.247,0.036,0.488,0.062,0.724c0.027,0.236,0.058,0.464,0.095,0.679c0.037,0.215,0.092,0.411,0.166,0.59h2.471
		c-0.115-0.157-0.202-0.352-0.259-0.583c-0.058-0.231-0.1-0.47-0.126-0.716c-0.026-0.247-0.045-0.491-0.055-0.732
		c-0.01-0.242-0.021-0.452-0.032-0.63c-0.021-0.283-0.06-0.564-0.118-0.843c-0.058-0.278-0.149-0.538-0.276-0.779
		c-0.125-0.242-0.288-0.449-0.488-0.622c-0.199-0.173-0.451-0.302-0.756-0.386v-0.031c0.63-0.252,1.085-0.62,1.363-1.103
		c0.278-0.482,0.417-1.055,0.417-1.716c0-0.421-0.076-0.819-0.228-1.197c-0.152-0.377-0.373-0.708-0.661-0.992
		c-0.289-0.283-0.636-0.506-1.04-0.669c-0.404-0.163-0.858-0.244-1.362-0.244h-6.062V200.214z"/>
	<rect x="145.522" y="188.972" fill="#FFFFFF" width="2.472" height="11.242"/>
	<polygon fill="#FFFFFF" points="151.565,200.214 153.88,200.214 153.88,192.686 153.911,192.686 158.588,200.214 161.06,200.214
		161.06,188.971 158.747,188.971 158.747,196.514 158.714,196.514 154.022,188.971 151.565,188.971 	"/>
	<polygon fill="#FFFFFF" points="164.646,200.214 167.118,200.214 167.118,196.593 168.536,195.159 171.921,200.214
		175.023,200.214 170.204,193.412 174.598,188.971 171.511,188.971 167.118,193.632 167.118,188.971 164.646,188.971 	"/>
	<polygon fill="#FFFFFF" points="47.388,182.991 49.861,182.991 49.861,178.142 54.411,178.142 54.411,182.991 56.883,182.991
		56.883,171.748 54.411,171.748 54.411,176.063 49.861,176.063 49.861,171.748 47.388,171.748 	"/>
	<rect x="60.469" y="171.748" fill="#FFFFFF" width="2.472" height="11.243"/>
	<path fill="#FFFFFF" d="M74.89,182.991h1.575v-6.078h-4.724v1.843h2.488c-0.074,0.787-0.336,1.388-0.787,1.803
		c-0.452,0.414-1.082,0.622-1.89,0.622c-0.556,0-1.029-0.107-1.417-0.323c-0.389-0.215-0.704-0.502-0.945-0.857
		c-0.242-0.357-0.417-0.759-0.527-1.205c-0.111-0.446-0.166-0.905-0.166-1.377c0-0.494,0.055-0.973,0.166-1.434
		c0.11-0.463,0.285-0.874,0.527-1.236c0.241-0.362,0.556-0.651,0.945-0.866c0.388-0.215,0.861-0.323,1.417-0.323
		c0.588,0,1.094,0.158,1.519,0.473c0.426,0.315,0.712,0.787,0.859,1.418h2.362c-0.063-0.641-0.239-1.207-0.528-1.7
		c-0.289-0.494-0.648-0.909-1.079-1.245c-0.43-0.335-0.916-0.59-1.456-0.763c-0.541-0.175-1.1-0.261-1.677-0.261
		c-0.871,0-1.648,0.152-2.331,0.456c-0.682,0.306-1.259,0.726-1.731,1.26c-0.473,0.536-0.835,1.165-1.087,1.891
		c-0.252,0.724-0.378,1.501-0.378,2.331c0,0.808,0.126,1.567,0.378,2.283c0.252,0.713,0.614,1.332,1.087,1.857
		c0.472,0.524,1.049,0.939,1.731,1.243c0.683,0.305,1.46,0.457,2.331,0.457c0.546,0,1.087-0.116,1.622-0.346
		c0.535-0.231,1.023-0.63,1.464-1.197L74.89,182.991z"/>
	<polygon fill="#FFFFFF" points="79.866,182.991 82.338,182.991 82.338,178.142 86.889,178.142 86.889,182.991 89.361,182.991
		89.361,171.748 86.889,171.748 86.889,176.063 82.338,176.063 82.338,171.748 79.866,171.748 	"/>
	<path fill="#FFFFFF" d="M103.733,180.062l1.056,0.96c-0.084,0.084-0.226,0.133-0.426,0.143c-0.199,0.01-0.388,0.016-0.567,0.016
		c-0.556,0-1.028-0.107-1.417-0.323c-0.388-0.215-0.703-0.502-0.945-0.857c-0.241-0.357-0.417-0.759-0.527-1.205
		c-0.11-0.446-0.165-0.905-0.165-1.377c0-0.494,0.055-0.973,0.165-1.434c0.11-0.463,0.286-0.874,0.527-1.236
		c0.242-0.362,0.557-0.651,0.945-0.866c0.389-0.215,0.861-0.323,1.417-0.323c0.557,0,1.029,0.108,1.417,0.323
		c0.389,0.215,0.704,0.504,0.946,0.866c0.241,0.362,0.417,0.773,0.527,1.236c0.11,0.461,0.165,0.939,0.165,1.434
		c0,0.587-0.063,1.094-0.189,1.518s-0.294,0.779-0.503,1.064l-1.276-1.166L103.733,180.062z M109.26,182.834l-1.401-1.275
		c0.472-0.536,0.834-1.155,1.086-1.857c0.253-0.704,0.378-1.466,0.378-2.283c0-0.83-0.125-1.607-0.378-2.331
		c-0.252-0.726-0.614-1.355-1.086-1.891c-0.472-0.534-1.05-0.954-1.732-1.26c-0.683-0.304-1.459-0.456-2.331-0.456
		c-0.871,0-1.647,0.152-2.33,0.456c-0.682,0.306-1.26,0.726-1.732,1.26c-0.473,0.536-0.835,1.165-1.087,1.891
		c-0.251,0.724-0.377,1.501-0.377,2.331c0,0.808,0.126,1.567,0.377,2.283c0.252,0.713,0.614,1.332,1.087,1.857
		c0.472,0.524,1.05,0.939,1.732,1.243c0.683,0.305,1.459,0.457,2.33,0.457c0.536,0,1.032-0.058,1.489-0.173
		c0.456-0.115,0.868-0.278,1.235-0.488l1.591,1.449L109.26,182.834z"/>
	<path fill="#FFFFFF" d="M121.964,171.748h-2.472v6.992c0,0.84-0.168,1.456-0.504,1.85c-0.336,0.394-0.945,0.591-1.827,0.591
		c-0.504,0-0.905-0.069-1.204-0.205c-0.3-0.137-0.533-0.319-0.701-0.551c-0.168-0.231-0.278-0.494-0.331-0.788
		c-0.052-0.294-0.078-0.593-0.078-0.896v-6.992h-2.473v6.992c0,1.532,0.417,2.669,1.252,3.408c0.835,0.74,2.013,1.11,3.535,1.11
		c1.502,0,2.677-0.372,3.528-1.118c0.85-0.745,1.275-1.879,1.275-3.4V171.748z"/>
	<path fill="#FFFFFF" d="M129.801,174.52h0.032l1.417,4.125h-2.913L129.801,174.52z M124.306,182.991h2.504l0.882-2.504h4.204
		l0.851,2.504h2.565l-4.204-11.243h-2.534L124.306,182.991z"/>
	<polygon fill="#FFFFFF" points="137.69,182.991 145.641,182.991 145.641,180.913 140.161,180.913 140.161,171.748 137.69,171.748
		"/>
	<rect x="148.438" y="171.748" fill="#FFFFFF" width="2.472" height="11.243"/>
	<polygon fill="#FFFFFF" points="156.969,182.991 159.441,182.991 159.441,173.827 162.811,173.827 162.811,171.748
		153.599,171.748 153.599,173.827 156.969,173.827 	"/>
	<polygon fill="#FFFFFF" points="168.415,182.991 170.887,182.991 170.887,178.677 175.06,171.748 172.305,171.748 169.69,176.188
		167.061,171.748 164.274,171.748 168.415,178.614 	"/>
</g>
</svg>
