<?xml version="1.0" encoding="UTF-8" standalone="no"?>
<svg width="100px" height="73px" viewBox="0 0 100 73" version="1.1" xmlns="http://www.w3.org/2000/svg" xmlns:xlink="http://www.w3.org/1999/xlink" xmlns:sketch="http://www.bohemiancoding.com/sketch/ns">
    <!-- Generator: Sketch 3.4.4 (17249) - http://www.bohemiancoding.com/sketch -->
    <title>logo</title>
    <desc>Created with Sketch.</desc>
    <defs></defs>
    <g id="Page-1" stroke="none" stroke-width="1" fill="none" fill-rule="evenodd" sketch:type="MSPage">
        <g id="12-Partners" sketch:type="MSArtboardGroup" transform="translate(-485.000000, -1307.000000)">
            <g id="Beeline" sketch:type="MSLayerGroup" transform="translate(485.000000, 1294.000000)">
                <g id="logo" sketch:type="MSShapeGroup">
                    <g id="Beeline" transform="translate(0.000000, 14.000000)">
                        <path d="M67.0281443,22.75416 C67.0281443,34.8347314 57.2126804,44.6287886 45.1054639,44.6287886 C32.9941237,44.6287886 23.1786598,34.8347314 23.1786598,22.75416 C23.1786598,10.67256 32.9941237,0.877474286 45.1054639,0.877474286 C57.2126804,0.877474286 67.0281443,10.67256 67.0281443,22.75416" id="Fill-1" stroke="#FFFFFF" stroke-width="2.06185567"></path>
                        <path d="M28.4874227,37.0255886 C32.5080412,41.6798743 38.4626804,44.6287886 45.1059794,44.6287886 C51.7441237,44.6287886 57.6925773,41.68296 61.7131959,37.0358743 C60.3224742,37.2282171 55.8936082,37.6879886 45.1173196,37.6879886 C34.0379381,37.6879886 29.754433,37.21176 28.4874227,37.0255886" id="Fill-3" fill="#FFFFFF"></path>
                        <path d="M66.4827835,27.6287657 C66.8425773,26.0622514 67.0281443,24.4299086 67.0281443,22.7543657 C67.0281443,20.84328 66.7848454,18.9918514 66.3250515,17.2247657 C64.1508247,17.1753943 57.3250515,17.0375657 45.2075258,17.0375657 C32.9621649,17.0375657 26.0157732,17.1753943 23.8858763,17.2299086 C23.4229897,18.9918514 23.1786598,20.84328 23.1786598,22.7543657 C23.1786598,24.4515086 23.3745361,26.1033943 23.7405155,27.69048 C26.3425773,27.7326514 36.5869072,27.8889943 45.3961856,27.8889943 C54.333299,27.8889943 64.1941237,27.6791657 66.4827835,27.6287657" id="Fill-5" fill="#FFFFFF"></path>
                        <path d="M61.5274227,8.26272 C57.5109278,3.73494857 51.6439175,0.877577143 45.1057732,0.877577143 C38.5614433,0.877577143 32.6861856,3.74112 28.6707216,8.27403429 C30.1490722,8.07346286 34.565567,7.63940571 45.0676289,7.63940571 C55.4964948,7.63940571 59.9593814,8.05700571 61.5274227,8.26272" id="Fill-7" fill="#FFFFFF"></path>
                        <path d="M93.9534021,57.0817029 C93.9286598,57.0817029 93.9049485,57.1033029 93.9049485,57.1331314 L93.9049485,57.5723314 C93.9049485,57.6011314 93.9286598,57.6227314 93.9534021,57.6227314 L94.7781443,57.6227314 L94.7781443,60.4369029 C94.7781443,60.4626171 94.7997938,60.4852457 94.8296907,60.4852457 L95.2925773,60.4852457 C95.3204124,60.4852457 95.3410309,60.4626171 95.3410309,60.4369029 L95.3410309,57.6227314 L96.1657732,57.6227314 C96.1936082,57.6227314 96.2162887,57.6011314 96.2162887,57.5723314 L96.2162887,57.1331314 C96.2162887,57.1033029 96.1936082,57.0817029 96.1657732,57.0817029 L93.9534021,57.0817029 Z" id="Fill-11" fill="#FFFFFF"></path>
                        <path d="M99.228866,57.0817029 C99.2092784,57.0817029 99.1896907,57.0961029 99.1835052,57.11256 C99.1835052,57.11256 98.343299,59.0750743 98.257732,59.2715314 C98.1752577,59.0750743 97.3329897,57.11256 97.3329897,57.11256 C97.3247423,57.0961029 97.3082474,57.0817029 97.2876289,57.0817029 L96.7278351,57.0817029 C96.7,57.0817029 96.6762887,57.1033029 96.6762887,57.1331314 L96.6762887,60.4369029 C96.6762887,60.4626171 96.7,60.4852457 96.7278351,60.4852457 L97.1804124,60.4852457 C97.1938144,60.4852457 97.2051546,60.4790743 97.2164948,60.4708457 C97.2257732,60.4626171 97.2319588,60.4471886 97.2319588,60.4369029 C97.2319588,60.4369029 97.214433,58.5175886 97.2113402,58.1143886 C97.3670103,58.4743886 98.0360825,60.01416 98.0360825,60.01416 C98.0443299,60.0337029 98.0608247,60.0450171 98.0814433,60.0450171 L98.4340206,60.0450171 C98.4536082,60.0450171 98.4731959,60.0337029 98.4783505,60.01416 C98.4783505,60.01416 99.1494845,58.4743886 99.3061856,58.1143886 C99.3,58.5175886 99.2865979,60.4369029 99.2865979,60.4369029 C99.2865979,60.4471886 99.2896907,60.4626171 99.3,60.4708457 C99.3092784,60.4790743 99.3206186,60.4852457 99.3350515,60.4852457 L99.7896907,60.4852457 C99.8175258,60.4852457 99.8412371,60.4626171 99.8412371,60.4369029 L99.8412371,57.1331314 C99.8412371,57.1033029 99.8175258,57.0817029 99.7896907,57.0817029 L99.228866,57.0817029 Z" id="Fill-13" fill="#FFFFFF"></path>
                        <path d="M33.5363918,66.60504 C33.3487629,68.5788686 32.8281443,69.0612686 31.1487629,69.2453829 C30.89,69.2854971 30.6281443,69.5457257 30.6281443,69.8409257 L30.6281443,71.3302971 C30.6281443,71.6285829 30.89,71.88984 31.1487629,71.88984 C34.4312371,71.88984 36.0724742,70.3264114 36.4075258,66.4569257 L36.7425773,62.99784 C36.9673196,60.57864 37.4508247,59.8360114 39.6508247,59.8360114 L42.075567,59.8360114 L42.075567,71.2161257 C42.075567,71.5174971 42.3374227,71.7756686 42.632268,71.7756686 L44.4240206,71.7756686 C44.6848454,71.7756686 44.9838144,71.5174971 44.9838144,71.2161257 L44.9838144,57.6400114 C44.9838144,57.3427543 44.6848454,57.0814971 44.4240206,57.0814971 L39.5034021,57.0814971 C35.4384536,57.0814971 34.2446392,59.42664 33.9085567,62.7365829 L33.5363918,66.60504 Z M72.5683505,71.44344 C72.6425773,71.6285829 72.8291753,71.7756686 73.0518557,71.7756686 L74.3601031,71.7756686 C74.6178351,71.7756686 74.8796907,71.5545257 74.8796907,71.25624 L74.8796907,57.6400114 C74.8796907,57.3427543 74.6549485,57.0814971 74.3229897,57.0814971 L72.5312371,57.0814971 C72.1961856,57.0814971 71.9714433,57.3427543 71.9714433,57.6400114 L71.9714433,67.2005829 C71.0023711,68.2414971 69.2518557,69.1353257 67.946701,69.1353257 C66.1178351,69.1353257 65.2229897,68.1304114 65.2229897,65.5641257 L65.2229897,57.6400114 C65.2229897,57.3427543 64.961134,57.0814971 64.6621649,57.0814971 L62.8745361,57.0814971 C62.5765979,57.0814971 62.3147423,57.3427543 62.3147423,57.6400114 L62.3147423,66.4949829 C62.3147423,69.7308686 64.0662887,71.9998971 67.4601031,71.9998971 C69.546701,71.9998971 71.3745361,70.8849257 72.2693814,70.1021829 L72.5683505,71.44344 Z M26.6054639,71.44344 C26.6807216,71.6285829 26.8673196,71.7756686 27.0889691,71.7756686 L28.3941237,71.7756686 C28.6559794,71.7756686 28.9178351,71.5545257 28.9178351,71.25624 L28.9178351,57.6400114 C28.9178351,57.3427543 28.6951546,57.0814971 28.3601031,57.0814971 L26.5683505,57.0814971 C26.233299,57.0814971 26.0085567,57.3427543 26.0085567,57.6400114 L26.0085567,67.2005829 C25.0394845,68.2414971 23.2889691,69.1353257 21.9838144,69.1353257 C20.1559794,69.1353257 19.2601031,68.1304114 19.2601031,65.5641257 L19.2601031,57.6400114 C19.2601031,57.3427543 18.9982474,57.0814971 18.7003093,57.0814971 L16.9126804,57.0814971 C16.6147423,57.0814971 16.3528866,57.3427543 16.3528866,57.6400114 L16.3528866,66.4949829 C16.3528866,69.7308686 18.1064948,71.9998971 21.4972165,71.9998971 C23.5879381,71.9998971 25.4116495,70.8849257 26.3075258,70.1021829 L26.6054639,71.44344 Z M50.6889691,67.0164686 C50.6889691,65.9734971 50.8735052,64.8955543 53.0363918,64.7073257 L56.2807216,64.4131543 L56.3178351,68.31864 C55.2735052,68.9501829 54.4518557,69.2854971 53.1848454,69.2854971 C51.9539175,69.2854971 50.6889691,68.80104 50.6889691,67.0164686 L50.6889691,67.0164686 Z M49.1590722,57.3427543 C48.9724742,57.4188686 48.8240206,57.6400114 48.8240206,57.8272114 L48.8240206,59.5006971 C48.8240206,59.6477829 48.9353608,59.8360114 49.0456701,59.90904 C49.1961856,59.9830971 49.3446392,60.0232114 49.4941237,59.9830971 C50.5013402,59.6477829 51.6549485,59.3134971 53.5570103,59.3134971 C55.9075258,59.3134971 56.3178351,60.0232114 56.3178351,61.6966971 L56.3178351,61.9939543 L53.0735052,62.2171543 C47.8549485,62.5894971 47.5930928,65.9734971 47.5930928,67.0164686 C47.5930928,70.1021829 49.233299,71.9998971 53.146701,71.9998971 C54.3786598,71.9998971 55.7570103,71.6285829 56.9508247,70.8849257 L57.2126804,71.44344 C57.2858763,71.6285829 57.4745361,71.7756686 57.6961856,71.7756686 L58.7786598,71.7756686 C59.0374227,71.7756686 59.2992784,71.5545257 59.2992784,71.25624 L59.2992784,61.7326971 C59.2992784,58.2355543 57.4374227,56.5620686 53.5570103,56.5620686 C51.9168041,56.5620686 50.3126804,56.8603543 49.1590722,57.3427543 L49.1590722,57.3427543 Z M6.85804124,61.1001257 C9.58175258,61.1001257 11.1106186,62.5894971 11.1106186,65.1197829 C11.1106186,67.64904 9.58175258,69.0252686 6.85804124,69.0252686 L5.89206186,69.0252686 C3.83948454,69.0252686 3.01989691,68.1684686 3.01989691,65.8624114 L3.01989691,61.1001257 L6.85804124,61.1001257 Z M0.559072165,51.0211543 C0.260103093,51.0211543 0.000309278351,51.2793257 0.000309278351,51.5765829 L0.000309278351,65.5641257 C0.000309278351,69.3225257 1.19206186,71.8116686 5.89206186,71.8116686 L6.44979381,71.8116686 C13.1601031,71.8116686 14.1662887,67.3888114 14.1662887,65.1197829 C14.1662887,63.1089257 13.4219588,58.34664 6.74773196,58.34664 L3.01989691,58.34664 L3.01989691,53.8096114 L11.6343299,53.8096114 C11.9291753,53.8096114 12.1910309,53.55144 12.1910309,53.2531543 L12.1910309,51.5765829 C12.1910309,51.2793257 11.9291753,51.0211543 11.6343299,51.0211543 L0.559072165,51.0211543 Z M74.2456701,51.0211543 C74.5807216,51.0211543 74.8425773,51.2793257 74.8425773,51.5765829 L74.8425773,53.2531543 C74.8425773,53.55144 74.5807216,53.8096114 74.2456701,53.8096114 L62.8745361,53.8096114 C62.5765979,53.8096114 62.3147423,53.55144 62.3147423,53.2531543 L62.3147423,51.5765829 C62.3147423,51.2793257 62.5765979,51.0211543 62.8745361,51.0211543 L74.2456701,51.0211543 Z M88.4126804,57.0814971 C88.1147423,57.0814971 87.8559794,57.3427543 87.8559794,57.6400114 L87.8559794,62.9237829 L81.1817526,62.9237829 L81.1817526,57.6400114 C81.1817526,57.3427543 80.9198969,57.0814971 80.6219588,57.0814971 L78.7930928,57.0814971 C78.4951546,57.0814971 78.2714433,57.3427543 78.2714433,57.6400114 L78.2714433,71.2161257 C78.2714433,71.5174971 78.4951546,71.7756686 78.7930928,71.7756686 L80.6219588,71.7756686 C80.9198969,71.7756686 81.1817526,71.5174971 81.1817526,71.2161257 L81.1817526,65.5641257 L87.8559794,65.5641257 L87.8559794,71.2161257 C87.8559794,71.5174971 88.1147423,71.7756686 88.4126804,71.7756686 L90.2415464,71.7756686 C90.5023711,71.7756686 90.7642268,71.5174971 90.7642268,71.2161257 L90.7642268,57.6400114 C90.7642268,57.3427543 90.5023711,57.0814971 90.2415464,57.0814971 L88.4126804,57.0814971 Z" id="Fill-15" fill="#FFFFFF"></path>
                    </g>
                </g>
            </g>
        </g>
    </g>
</svg>