<?xml version="1.0" encoding="UTF-8" standalone="no"?>
<svg width="100px" height="48px" viewBox="0 0 100 48" version="1.1" xmlns="http://www.w3.org/2000/svg" xmlns:xlink="http://www.w3.org/1999/xlink" xmlns:sketch="http://www.bohemiancoding.com/sketch/ns">
    <!-- Generator: Sketch 3.4.4 (17249) - http://www.bohemiancoding.com/sketch -->
    <title>Logo</title>
    <desc>Created with Sketch.</desc>
    <defs></defs>
    <g id="Page-1" stroke="none" stroke-width="1" fill="none" fill-rule="evenodd" sketch:type="MSPage">
        <g id="12-Partners" sketch:type="MSArtboardGroup" transform="translate(-485.000000, -1934.000000)" fill="#FFFFFF">
            <g id="Europa-Plus" sketch:type="MSLayerGroup" transform="translate(485.000000, 1908.000000)">
                <g id="Logo" sketch:type="MSShapeGroup">
                    <path d="M86.68611,48.3007452 L100,37.9083237 L85.8099034,39.8541172 L84.7039359,26 L82.5593159,29.7838321 L76.2144674,41.354223 L64.3514643,43.1008674 L71.6086804,48.4395289 C59.4007578,61.8897064 43.3781377,67.5725065 30.5615993,72.6855034 C46.9903342,69.3902353 65.0513169,62.9554077 79.2892572,53.8656355 L88.4618888,60.7044028 L86.68611,48.3007452 Z M20.7814645,27.1288874 C18.212371,27.0843187 13.8764,27.0961661 10.2119092,27.8854282 C7.72737669,28.4202534 5.6061222,29.6027362 4.7199018,31.1671564 C4.33492721,31.846407 3.95440319,32.8963118 4.12241233,33.884723 C4.30266055,34.9481677 4.8945868,35.2968195 5.42976823,35.9106274 C3.80809059,36.8431866 2.23258765,37.2747702 0.847903036,39.6594814 C-0.48393102,41.9527985 -0.219678231,44.2754519 1.44984307,45.7659669 C4.81392016,48.7684352 10.5757436,46.7391458 15.0329927,46.2172963 L16.1562062,42.1338944 C13.2232784,42.6117393 5.24729473,43.9871653 5.4264303,41.4890576 C5.67510609,38.010437 11.7061892,37.7317411 14.8238158,37.7131238 L15.9397971,34.0573564 L10.8299826,34.4077008 C10.097307,34.3687737 9.1220751,34.2677887 9.00969812,33.5281728 C8.55184539,30.505959 17.6738517,30.7603959 19.6571384,30.7383935 L20.7814645,27.1288874 Z M34.0458418,31.3544581 L29.3588318,31.6720811 L26.124934,41.5556287 C25.3260561,41.6171223 23.2481947,42.2202111 22.6551558,41.256623 C22.2696249,40.6298394 23.1180154,38.7946217 23.3349809,38.118756 L25.3527596,31.9750358 L20.4287565,32.3219953 L18.5661916,37.9421734 C18.0476998,39.5212618 16.8532772,42.2145695 17.7561873,43.8805388 C18.6813502,45.5876919 21.2081632,45.5312757 23.457928,45.2288851 C24.6228655,45.0726123 29.1468733,44.6511836 29.8667535,44.3380739 L34.0458418,31.3544581 Z M18.499433,52.9556428 C20.8526736,52.5517031 22.9316477,52.6227874 21.375616,55.32625 C20.6546231,56.5798171 18.8749501,57.1366446 17.0079346,57.3735925 L18.499433,52.9556428 Z M15.1103215,63.9048918 L16.0638568,60.8674455 C18.802072,60.4127312 21.4952252,59.9032933 23.7511095,58.1476223 C25.4595733,56.8184575 27.0662303,53.4774923 26.109357,51.3838885 C25.1196608,49.2163795 21.6192849,49.3500858 18.6646605,49.773207 C17.6944356,49.9119908 15.241057,50.1179098 14.5601193,50.432712 L9.89925646,65.0495757 L15.1103215,63.9048918 Z M4.10961693,74 C25.0729298,72.3165417 54.9540788,63.1923556 67.9269436,50.820291 C53.418631,58.5109424 24.2061806,69.591641 4.10961693,74 Z M49.2095013,45.3033544 L44.7216545,45.9701935 L41.8827451,54.876049 C40.4034858,55.6861851 39.1556563,55.7753226 38.9626127,54.7541901 C38.8602495,54.2097741 39.1934862,53.3398369 39.6496699,52.1144778 C40.0123916,51.1401707 41.4977705,47.1442138 41.6869198,46.4192661 L37.0705627,47.0815919 L34.7596025,54.3914341 C34.2984119,55.8503561 33.3771432,59.8023084 39.2463367,58.4906326 L45.2284635,57.1541337 L49.2095013,45.3033544 Z M49.2706967,32.8066101 C52.1096062,31.7984533 50.6114319,38.6992783 47.6134145,39.4157636 C45.3475164,39.9573588 46.1680908,37.054183 46.6281688,35.8976517 C47.1060491,34.6976799 48.1363568,33.2094215 49.2706967,32.8066101 Z M54.9329386,34.0968477 C55.4492051,29.3680449 50.5863974,29.1869491 47.2634882,30.8833831 C42.7912183,33.1654169 39.278047,40.8036012 44.3383489,42.2608307 C47.4337226,43.1516419 54.2603457,40.2591853 54.9329386,34.0968477 Z M71.7210573,36.4877647 C67.2882863,36.684093 69.8968786,30.9742131 73.3900223,30.9567241 L71.7210573,36.4877647 Z M77.7449083,28.1940246 L73.5585878,28.467643 C69.2810305,28.7474671 67.3333484,30.820197 66.4638176,33.1490562 C65.0863652,36.8364166 67.1063692,39.5195694 70.6985381,39.0558285 L74.2512083,38.5215674 L77.7449083,28.1940246 Z M60.3409414,31.7600903 C62.1500995,31.6737735 63.0402141,32.0218613 62.2641454,33.9236501 C61.7172812,35.2629698 60.8043574,35.4423732 59.1376177,35.4502715 L60.3409414,31.7600903 Z M58.2002157,38.13963 C60.347061,38.1520416 61.74621,37.8135446 63.188752,36.7636398 C65.54088,35.0514092 67.7622724,29.9609788 63.2327014,29.4092287 C61.8374467,29.2388519 58.8466615,29.4611316 57.40857,29.6687431 L53.6183505,41.2718554 L57.3495999,40.8036012 L58.2002157,38.13963 Z M59.4185601,43.8466891 L54.6820375,44.5338379 C52.6475692,44.8288945 51.7079419,44.9829106 50.5496802,46.1597518 C49.8509402,46.8700313 48.5513728,48.7802826 49.558315,50.0761618 C50.5557998,51.3596295 52.766622,51.2293082 53.2561851,51.87076 C53.7457482,52.5122117 52.3204521,52.9533861 51.7613488,53.0476011 L47.4515249,53.776498 L46.5602976,56.8489222 L53.5643873,55.2388049 C55.9476693,54.6904398 58.3732317,51.741567 56.7448782,50.0067699 C55.5526809,48.7362779 53.4241942,49.1249853 53.0575783,48.2251475 C52.9068151,47.8550575 53.7029114,47.326438 55.3646442,47.0381514 L58.8778155,46.4282927 L59.4185601,43.8466891 Z M44.0640823,30.6391011 C39.5656653,30.7925531 37.4177074,30.8811264 34.9381818,34.628288 C33.8850649,36.2203521 32.1387712,41.9776216 31.3949691,44.1451306 L36.1448434,43.5764557 L38.1414819,37.6143955 C38.5275691,36.4623775 39.1523183,33.7245011 42.9080459,33.8655415 L44.0640823,30.6391011 Z M31.2853737,54.8280952 L33.5924397,47.5814391 L29.0567492,48.2539197 L26.2178397,56.998425 C25.6654123,58.7591735 26.4086581,60.3089255 27.6915358,60.6919913 C28.9744136,61.075057 31.9768816,60.139677 32.6127572,59.8784702 L33.6119109,56.9228274 C31.6425322,57.2759926 30.2823258,57.978938 31.2853737,54.8280952 Z" id="europa-plus"></path>
                </g>
            </g>
        </g>
    </g>
</svg>