<?xml version="1.0" encoding="UTF-8" standalone="no"?>
<svg width="100px" height="26px" viewBox="0 0 100 26" version="1.1" xmlns="http://www.w3.org/2000/svg" xmlns:xlink="http://www.w3.org/1999/xlink" xmlns:sketch="http://www.bohemiancoding.com/sketch/ns">
    <!-- Generator: Sketch 3.4.4 (17249) - http://www.bohemiancoding.com/sketch -->
    <title>logo</title>
    <desc>Created with Sketch.</desc>
    <defs></defs>
    <g id="Page-1" stroke="none" stroke-width="1" fill="none" fill-rule="evenodd" sketch:type="MSPage">
        <g id="12-Partners" sketch:type="MSArtboardGroup" transform="translate(-485.000000, -4094.000000)" fill="#FFFFFF">
            <g id="MTV" sketch:type="MSLayerGroup" transform="translate(485.000000, 4057.000000)">
                <g id="logo">
                    <g id="Gopro-" transform="translate(0.000000, 37.000000)">
                        <path d="M21.2952432,10.1186301 L21.2952432,8.85657595 L21.2952432,7.43953265 C21.2952432,7.00113488 20.9306417,6.6424458 20.4850176,6.6424458 L13.9071857,6.6424458 C13.2877006,6.6424458 12.7856233,7.13804193 12.7856233,7.74951087 C12.7856233,8.36097982 13.2877006,8.85657595 13.9071857,8.85657595 L18.2006314,8.85657595 L18.2006314,9.97471167 C18.2006314,10.8515072 17.059376,11.5688854 15.6643625,11.5688854 L5.58230467,11.5688854 C4.18729116,11.5688854 3.04603582,10.8515072 3.04603582,9.97471167 L3.04603582,3.64229945 C3.04603582,2.76550391 4.18729116,2.04812574 5.58230467,2.04812574 L10.4303424,2.04812574 C10.9971252,2.04812574 11.4566282,1.59459808 11.4566282,1.0351612 C11.4566282,0.475724314 10.9971252,0.0221966547 10.4303424,0.0221966547 L5.27096796,0.0221966547 C2.37197309,0.0221966547 0,1.51673451 0,3.34339188 L0,10.1186301 C0,11.9452875 2.37197309,13.4398254 5.27096796,13.4398254 L16.0240877,13.4398254 C18.9232701,13.4398254 21.2952432,11.9452875 21.2952432,10.1186301 Z M27.3513048,10.0355634 L27.3513048,6.3601073 C27.3513048,5.48331176 28.6819879,4.7659336 30.3086285,4.7659336 L37.1347795,4.7659336 C38.7612325,4.7659336 40.0921032,5.48331176 40.0921032,6.3601073 L40.0921032,10.0355634 C40.0921032,10.9123589 38.7612325,11.6297371 37.1347795,11.6297371 L30.3086285,11.6297371 C28.6819879,11.6297371 27.3513048,10.9123589 27.3513048,10.0355634 Z M24.4294286,6.337966 L24.4294286,10.0577047 C24.4294286,11.9574283 27.1474356,13.5117477 30.4693607,13.5117477 L36.9740473,13.5117477 C40.2959724,13.5117477 43.0139794,11.9574283 43.0139794,10.0577047 L43.0139794,6.337966 C43.0139794,4.43824233 40.2959724,2.88392297 36.9740473,2.88392297 L30.4693607,2.88392297 C27.1474356,2.88392297 24.4294286,4.43824233 24.4294286,6.337966 Z M49.2311859,6.64239045 L49.2311859,1.88201063 L56.0909088,1.88201063 L61.9826747,1.88201063 C63.4480203,1.88201063 64.646479,2.54864831 64.646479,3.36344821 L64.646479,5.16095287 C64.646479,5.97575276 63.4480203,6.64239045 61.9826747,6.64239045 L56.0909088,6.64239045 L49.2311859,6.64239045 Z M46.0803084,2.10342364 L46.0803084,12.6316125 C46.0803084,13.1430766 46.5056768,13.5615472 47.0255716,13.5615472 L48.2859226,13.5615472 C48.8056299,13.5615472 49.2311859,13.1430766 49.2311859,12.6316125 L49.2311859,8.74581409 L51.9880162,8.74581409 L56.0909088,8.74581409 L61.4957891,8.74581409 C64.9116779,8.74581409 67.7065813,7.19167923 67.7065813,5.29177106 L67.7065813,3.45404303 C67.7065813,1.55431936 64.9116779,0 61.4957891,0 L51.9880162,0 L47.0255716,0 C46.5054893,0 46.0803084,0.418470598 46.0803084,0.929934662 L46.0803084,2.10342364 Z M70.342159,6.337966 L70.342159,8.9118923 L70.342159,10.0577047 L70.342159,12.5764622 C70.342159,13.0877418 70.7677151,13.5062124 71.2874223,13.5062124 L72.318772,13.5062124 C72.8388544,13.5062124 73.2640353,13.0877418 73.2640353,12.5764622 L73.2640353,10.0355634 L73.2640353,8.9118923 L73.2640353,6.3601073 C73.2640353,5.48331176 74.5949059,4.7659336 76.2213589,4.7659336 L78.386837,4.76574909 C78.9162969,4.76574909 79.3454164,4.34451082 79.3454164,3.82474377 C79.3454164,3.30516123 78.9162969,2.88392297 78.386837,2.88392297 L76.3822787,2.88392297 C73.060166,2.88392297 70.342159,4.43824233 70.342159,6.337966 Z M84.3371379,10.0355634 L84.3371379,6.3601073 C84.3371379,5.48331176 85.6680085,4.7659336 87.2944615,4.7659336 L94.1206126,4.7659336 C95.7472531,4.7659336 97.0779362,5.48331176 97.0779362,6.3601073 L97.0779362,10.0355634 C97.0779362,10.9123589 95.7472531,11.6297371 94.1206126,11.6297371 L87.2944615,11.6297371 C85.6680085,11.6297371 84.3371379,10.9123589 84.3371379,10.0355634 Z M81.4152617,6.337966 L81.4152617,10.0577047 C81.4152617,11.9574283 84.1332686,13.5117477 87.4553813,13.5117477 L93.9598803,13.5117477 C97.281993,13.5117477 100,11.9574283 100,10.0577047 L100,6.337966 C100,4.43824233 97.281993,2.88392297 93.9598803,2.88392297 L87.4553813,2.88392297 C84.1332686,2.88392297 81.4152617,4.43824233 81.4152617,6.337966 M87.5791095,25.9758428 L99.8450256,25.9758428 L99.8450256,17.1193222 L87.5791095,17.1193222 L87.5791095,25.9758428 Z M72.455085,25.9758428 L84.7208135,25.9758428 L84.7208135,17.1193222 L72.455085,17.1193222 L72.455085,25.9758428 Z M57.6009481,25.9758428 L69.8668642,25.9758428 L69.8668642,17.1193222 L57.6009481,17.1193222 L57.6009481,25.9758428 Z M54.7424645,17.1193222 L42.4765485,17.1193222 L42.4765485,25.9758428 L54.7424645,25.9758428 L54.7424645,17.1193222 Z" id="Gopro" sketch:type="MSShapeGroup"></path>
                        <text id="Be-a-HERO." sketch:type="MSTextLayer" font-family="Helvetica" font-size="6.42857143" font-weight="bold" line-spacing="10.7142857" letter-spacing="0.0857142785">
                            <tspan x="0" y="20.7567568">Be a </tspan>
                            <tspan x="15.793736" y="20.7567568" font-style="italic">HERO.</tspan>
                        </text>
                    </g>
                </g>
            </g>
        </g>
    </g>
</svg>