<?xml version="1.0" encoding="UTF-8" standalone="no"?>
<svg width="99px" height="50px" viewBox="0 0 99 50" version="1.1" xmlns="http://www.w3.org/2000/svg" xmlns:xlink="http://www.w3.org/1999/xlink" xmlns:sketch="http://www.bohemiancoding.com/sketch/ns">
    <!-- Generator: Sketch 3.4.4 (17249) - http://www.bohemiancoding.com/sketch -->
    <title>Logo</title>
    <desc>Created with Sketch.</desc>
    <defs></defs>
    <g id="Page-1" stroke="none" stroke-width="1" fill="none" fill-rule="evenodd" sketch:type="MSPage">
        <g id="12-Partners" sketch:type="MSArtboardGroup" transform="translate(-485.000000, -1012.000000)" fill="#FFFFFF">
            <g id="UCS" sketch:type="MSLayerGroup" transform="translate(485.000000, 987.000000)">
                <g id="Logo">
                    <g id="UCS" transform="translate(0.000000, 24.000000)">
                        <g id="Page-1" transform="translate(0.000000, 3.400000)" sketch:type="MSShapeGroup">
                            <path d="M35.7471788,14.9046276 C35.7441145,14.905345 35.7410482,14.9060631 35.7379799,14.906782 C35.7205366,14.5175505 35.6986309,14.2538516 35.6984957,13.9900182 C35.6972787,10.1833184 35.6991718,6.37648408 35.6999831,2.5697842 C35.7001184,0.732224586 34.5176203,-0.195963437 32.7154093,0.278614019 C27.0853932,1.76094615 21.4586223,3.2569874 15.8342854,4.76136165 C13.9336344,5.2698087 12.6831207,6.91100533 12.666083,8.87114059 C12.6552654,10.1026765 12.6606742,11.3344812 12.6658125,12.5660171 C12.6664886,12.7535094 12.7055672,12.9408674 12.7353156,13.2017439 C15.2840756,12.5242177 17.7495402,11.8687336 20.2922154,11.1928203 C20.3391367,11.4588041 20.3742939,11.5655202 20.3745643,11.6725051 C20.3773969,13.9731459 20.3693309,16.2739205 20.3827126,18.574562 L28.0388517,16.767437 L28.0388516,25.3434189 L34.9714483,23.5858618 C34.9746368,23.5848934 35.0011859,23.5722256 35.0446392,23.5414444 C35.1306678,23.4805038 35.2204884,23.3878005 35.3078107,23.2552736 C35.5786985,22.8441541 35.7471788,22.1794023 35.7471788,21.2010725 L35.7471788,14.9046276 Z M36.2880585,14.7798803 C36.653833,14.6961644 36.9972662,14.6174471 37.3383076,14.5296468 C38.2310294,14.2998175 39.1138802,14.0269791 40.0130926,13.8268528 C42.162413,13.3487809 43.5500397,14.4644613 43.5515272,16.6548291 C43.5558542,23.260743 43.5582881,29.8666569 43.5526089,36.4725708 C43.5507158,38.6622666 41.9894668,40.6865122 39.8824701,41.2503333 C36.1683849,42.2442445 32.4522714,43.2302258 28.7364283,44.21782 C28.565916,44.2631139 28.3905357,44.2903977 28.1034639,44.3495351 L28.1034639,35.2695284 C25.4586977,35.9713815 22.9542897,36.636005 20.3565801,37.3254931 L20.3565801,28.1594683 C17.727905,28.8537949 15.2086229,29.5190904 12.5765674,30.2143578 C12.5765674,29.6095437 12.5737278,29.1231388 12.5771083,28.6367339 C12.587385,27.0920387 12.5531743,25.545193 12.6238944,24.0031859 C12.7034037,22.2770465 13.8662949,20.8547926 15.5418048,20.3648932 C16.353176,20.1278087 17.1691154,19.9059612 17.9868942,19.690791 L17.9873089,19.6925269 L27.4979719,17.4523538 L27.4979721,25.7031994 L27.4979721,26.0514631 L27.8369227,25.9632371 L35.1189902,24.1029717 C35.1867681,24.0826157 35.2659999,24.0448105 35.3585505,23.97925 C35.4991952,23.8796208 35.6360479,23.7383759 35.7602873,23.5498208 C36.0938616,23.0435635 36.2880585,22.2773452 36.2880585,21.2010725 L36.2880585,14.7798801 Z M12.712574,47.2770451 L12.712574,43.9962646 C12.712574,42.9675431 12.7075709,41.9386871 12.713791,40.9099655 C12.7189294,40.0426621 13.1604224,39.3546525 13.9772858,39.1306025 C16.0341159,38.5666469 18.1050088,38.0524206 20.1710338,37.5215282 C20.2078136,37.5119856 20.2548701,37.5426295 20.3823825,37.5785151 C20.3823825,37.7927537 20.3825177,38.0305129 20.3823825,38.2684064 C20.382112,40.0575809 20.3921183,41.8468898 20.3779202,43.6359298 C20.3683196,44.844214 19.9429178,45.3927132 18.7731303,45.7124582 C16.9767339,46.2037017 15.1750638,46.6755911 13.3746107,47.1517813 C13.1869255,47.2015105 12.9920736,47.2248966 12.712574,47.2770451 Z M12.5611548,30.3963992 C12.5611548,31.2766053 12.5616957,32.1187753 12.5610196,32.9610798 C12.5599379,34.145709 12.5676454,35.3304726 12.5531769,36.5149674 C12.5433058,37.3309288 12.1625265,37.9157168 11.3920435,38.1364067 C9.32209713,38.7293933 7.23862878,39.2766829 5.15948746,39.838488 C5.09890894,39.8548852 5.02764805,39.831499 4.87228037,39.8200748 C4.87228037,39.1374413 4.87255081,38.4529261 4.87228037,37.768411 C4.87187471,36.4942693 4.86200366,35.2201276 4.87336213,33.9462547 C4.88323318,32.8729113 5.33824818,32.2629899 6.35496667,31.9858506 C8.23898566,31.4721619 10.1284135,30.9783648 12.0166243,30.4802668 C12.1648253,30.4411555 12.3214099,30.4322849 12.5611548,30.3963992 Z M6.10242515,21.439909 C6.10242515,19.6906522 6.04901329,17.9931407 6.12865782,16.3019461 C6.16016406,15.63114 6.66683305,15.1132848 7.35794201,14.9225667 C8.99856516,14.469897 10.647572,14.0473335 12.3560755,13.5960078 C12.3948836,13.8189826 12.4481603,13.9856425 12.4489716,14.1525712 C12.4558678,15.585443 12.4624936,17.0184492 12.4500533,18.4511865 C12.4423458,19.3178179 11.9794881,19.9853983 11.1582976,20.2202005 C9.64640375,20.6525754 8.12112318,21.0389844 6.5992231,21.4350705 C6.45859439,21.4716281 6.29998144,21.439909 6.10242515,21.439909 Z M0.0194252715,47.5698937 C0.0194252715,46.1726387 -0.043722426,44.9197328 0.0576925057,43.6802671 C0.0882522052,43.3054168 0.505811284,42.7739868 0.864820142,42.6475134 C2.10397539,42.2111065 3.39546074,41.9218709 4.7583422,41.5518591 C4.7583422,42.9522053 4.80512829,44.2614262 4.72453722,45.5629861 C4.70506556,45.8800431 4.32374541,46.3399706 4.01044088,46.4449395 C2.74194292,46.8700566 1.4350425,47.1822751 0.0194252715,47.5698937 Z M0.154626145,29.2054531 C0.154626145,27.8792974 0.0928306466,26.6923833 0.189783321,25.518372 C0.22169522,25.1334414 0.590710351,24.576206 0.93484502,24.4524207 C2.12829594,24.0228683 3.37880965,23.7490892 4.63960008,23.4074364 C4.70910312,23.6215406 4.79686084,23.7656207 4.79604952,23.9091633 C4.79131682,24.9364064 4.78577281,25.9640528 4.74507161,26.9902207 C4.71829807,27.6686877 4.34914772,28.0951488 3.6711551,28.2685288 C2.52557203,28.5613933 1.3856682,28.8761654 0.154626145,29.2054531 Z" id="Fill-4"></path>
                            <path d="M51.5214444,16.5359241 C51.5214444,14.8792711 51.5138721,13.2226181 51.5242841,11.5659651 C51.5307746,10.4985354 52.0424468,10.0001686 53.0974325,9.99425489 C54.3452418,9.98726593 54.8671907,10.4352316 54.8719234,11.5737605 C54.8838227,14.4392352 54.8709768,17.3049788 54.8859862,20.1704536 C54.8889611,20.7489246 54.9216843,21.3357287 55.0247218,21.9037163 C55.403608,23.993013 56.8741245,25.0990164 59.0219576,24.9521138 C61.4999976,24.7823626 62.6948007,23.3669632 62.6954768,20.5931514 C62.6961529,17.682786 62.6877693,14.7724206 62.6979108,11.8621896 C62.699263,11.4870705 62.7230617,11.0885652 62.8507093,10.7426115 C63.0781492,10.1267764 63.8073902,9.8745017 64.7767817,9.99734616 C65.4488246,10.0825577 65.9180377,10.3938354 66.0084998,11.1134298 C66.0362199,11.3353293 66.0773268,11.5580353 66.0770563,11.7802037 C66.0716475,14.8470143 66.1347952,17.9167819 66.0128269,20.9791572 C65.964959,22.1774955 65.6400256,23.4154828 65.1896081,24.535464 C64.5035022,26.2419806 63.0498882,27.2131776 61.3009539,27.6819758 C59.5756831,28.1444569 57.8222865,28.1198612 56.0962044,27.6514662 C53.4542778,26.9344255 51.7204882,24.6755121 51.5639035,21.6384046 C51.4765514,19.9418338 51.548218,18.2370645 51.548218,16.5359241 L51.5214444,16.5359241 Z M90.9408779,28.0116507 C89.0572646,27.9596367 87.1037426,27.6080381 85.5332986,26.1821553 C85.1490036,25.8332447 84.8324538,25.3590705 84.6234038,24.882477 C84.251549,24.0341244 84.8603091,22.8520489 85.7649303,22.6400952 C85.9877727,22.5879467 86.3628727,22.7645525 86.5304102,22.9554049 C88.2271496,24.8861059 90.3344166,25.4899791 92.8061014,24.9163466 C93.8731217,24.6686416 94.510954,23.9319781 94.5842432,22.9751622 C94.6509066,22.1057083 94.2156337,21.3992854 93.1482077,21.0189246 C92.0108731,20.6135647 90.8144473,20.3743272 89.653314,20.0314648 C89.0088559,19.8411499 88.3618286,19.6339003 87.7538799,19.3531322 C86.0997348,18.5891848 85.0995131,17.3567081 84.9811957,15.4738546 C84.8481393,13.3604998 85.6420154,11.6611066 87.5039935,10.7200159 C90.4082467,9.25219926 93.3673992,9.37033962 96.1989041,11.0459435 C96.5741393,11.2679774 96.8997489,11.6141999 97.1696478,11.9631104 C97.9633887,12.9896815 97.4824115,14.4726857 96.2333852,14.8361117 C96.0504326,14.8893354 95.7169803,14.7433736 95.5770277,14.5828963 C94.1270647,12.9201951 92.3184984,12.3456217 90.1791842,12.8019204 C89.3043114,12.9886063 88.5868345,13.4190995 88.3295111,14.3651632 C88.0705649,15.3171406 88.3618286,16.109447 89.2853806,16.4549975 C90.3100771,16.8383152 91.4054935,17.0310493 92.4439824,17.3830511 C93.5652259,17.7631431 94.7325794,18.100495 95.7461878,18.6854174 C99.0170222,20.5727062 98.5234696,25.3991226 95.3967796,27.073248 C94.0448509,27.7970089 92.6008375,28.0135323 90.9408779,28.0116507 Z M76.684595,28.1284318 C71.2149497,28.1312543 67.3875502,24.1369276 67.6199932,18.7110732 C67.7291156,16.1641339 68.4889163,13.9300851 70.3768567,12.1489748 C72.2173349,10.4124863 74.4705042,9.78643652 76.9446229,9.83535926 C78.627029,9.86855684 80.2780641,10.1223099 81.7360051,11.025499 C82.279454,11.36191 82.7953179,11.7954945 83.2032764,12.2840499 C84.0513756,13.3001376 83.2819744,14.572532 82.2126553,14.9585378 C82.0282154,15.0250674 81.6345902,14.7843514 81.4631314,14.5809994 C79.765175,12.5695222 74.6580542,11.8858134 72.392039,14.7933564 C70.367797,17.3904281 70.411473,23.2072612 74.8794092,24.7195652 C77.1254119,25.4797493 79.814395,24.7950998 81.3375121,23.0013556 C81.6908417,22.5851091 82.0111777,22.5590349 82.4379317,22.8465232 C83.456408,23.5325168 83.6661341,24.6316656 82.9199907,25.6429147 C81.9251778,26.9916501 80.4573657,27.5506328 78.8939531,27.8839525 C78.1730958,28.0377097 77.4219492,28.0512844 76.684595,28.1284318 Z" id="Fill-6"></path>
                        </g>
                        <text id="UNITED-CARD" sketch:type="MSTextLayer" font-family="SF UI Display" font-size="7.31600254" font-weight="526" line-spacing="7.31600254" letter-spacing="0.0975467043">
                            <tspan x="50.7242843" y="41">UNITED CARD</tspan>
                            <tspan x="50.7242843" y="48.3160025">SERVICE</tspan>
                            <tspan x="80.5675256" y="48.3160025">S</tspan>
                        </text>
                        <text id="globalpayments" sketch:type="MSTextLayer" font-family="SF UI Display" font-size="6.34053553" font-weight="526" line-spacing="7.31600254" letter-spacing="0.195093409">
                            <tspan x="50.7242843" y="6">global</tspan>
                            <tspan x="69.6068583" y="6.21052559" font-weight="260">payment</tspan>
                            <tspan x="94.5513786" y="6.21052559" font-weight="260">s</tspan>
                        </text>
                    </g>
                </g>
            </g>
        </g>
    </g>
</svg>