<?xml version="1.0" encoding="UTF-8" standalone="no"?>
<svg width="90px" height="53px" viewBox="0 0 90 53" version="1.1" xmlns="http://www.w3.org/2000/svg" xmlns:xlink="http://www.w3.org/1999/xlink" xmlns:sketch="http://www.bohemiancoding.com/sketch/ns">
    <!-- Generator: Sketch 3.4.4 (17249) - http://www.bohemiancoding.com/sketch -->
    <title>logo</title>
    <desc>Created with Sketch.</desc>
    <defs></defs>
    <g id="Page-1" stroke="none" stroke-width="1" fill="none" fill-rule="evenodd" sketch:type="MSPage">
        <g id="12-Partners" sketch:type="MSArtboardGroup" transform="translate(-490.000000, -1625.000000)" fill="#FFFFFF">
            <g id="MTV" sketch:type="MSLayerGroup" transform="translate(485.000000, 1601.000000)">
                <g id="logo" sketch:type="MSShapeGroup">
                    <path d="M41.0107222,76.7727597 L41.0107222,69.6208119 L37.123502,66.3699265 L37.123502,76.7727597 L41.0107222,76.7727597 Z M47.4894226,69.8374834 L51.4846752,66.3699265 L51.4846752,68.9706348 L50.8368051,69.8374834 L47.4894226,69.8374834 Z M37.123502,24 L44.3851533,31.3686193 L46.9495849,28.4428225 L46.3017149,27.6843909 L37.123502,24 Z M85.8219491,24 L90.4649097,26.8173798 L90.4649097,37.6537185 L85.8219491,43.3968951 L85.8219491,24 Z M90.4649097,47.5147915 L90.4649097,76.7727597 L85.8219491,76.7727597 L85.8219491,55.1000823 L90.4649097,47.5147915 Z M91.8307817,76.875 L91.8307817,75.2146103 L91.2397623,75.2146103 L91.2397623,74.8763557 L92.8225088,74.8763557 L92.8225088,75.2146103 L92.2327851,75.2146103 L92.2327851,76.875 L91.8307817,76.875 Z M93.0764739,76.875 L93.0764739,74.8763557 L93.6781832,74.8763557 L94.0395327,76.2396145 L94.396833,74.8763557 L95,74.8763557 L95,76.875 L94.626341,76.875 L94.626341,75.3018966 L94.2311402,76.875 L93.8438759,76.875 L93.4501329,75.3018966 L93.4501329,76.875 L93.0764739,76.875 Z M53.6443499,76.7727597 L53.6443499,61.9269415 L44.4661371,69.3498506 L35.1798919,61.9269415 L35.1798919,76.7727597 L5,76.7727597 L5,24 L34.2080869,24 L44.2500724,34.6195046 L54.5081227,24 L83.7703067,24 L83.7703067,46.6477804 L77.183574,59.8681558 C76.7516066,60.7350044 75.6717692,60.8434215 75.4558666,59.8681558 C75.2399639,58.8928902 74.3761911,49.3569057 73.0804511,48.8151457 C71.784711,48.2732231 69.2578559,47.3906077 68.1133935,49.1402342 C66.9525723,50.9145674 66.495338,50.6631114 67.4655234,54.2332337 C68.4373285,57.8092076 74.2681588,71.8964316 74.2681588,71.8964316 C74.2681588,71.8964316 74.3374809,72.540432 75.6163764,72.7493014 C77.278001,73.0205878 79.0193137,73.0883687 79.5591514,71.8964316 C80.0989891,70.704332 83.7703067,59.8681558 83.7703067,59.8681558 L83.7703067,76.7727597 L65.413881,76.7727597 L64.4420759,47.9481345 C64.4420759,47.9481345 73.5122564,43.0718065 73.8361915,41.6631979 C74.1601265,40.2544267 72.3247107,37.87039 70.8129059,38.7374011 C69.3011012,39.6042497 62.6064981,43.6137291 62.6064981,43.6137291 C62.6064981,43.6137291 61.8507577,43.7219836 61.0948554,43.6137291 C60.338953,43.5053121 57.7476348,43.0718065 57.5315702,44.6972492 C57.3155055,46.3226919 57.3155055,47.189703 57.3155055,47.189703 C57.3155055,47.189703 53.3204149,50.0070828 50.5128701,51.5241084 C47.7054873,53.0412966 44.9520396,53.7997282 44.3851533,54.4499052 C43.8182671,55.1000823 43.3323645,56.5088535 44.3851533,57.7007906 C45.4379421,58.8928902 46.3017149,59.6513218 48.0294223,58.6760562 C49.7569678,57.7007906 55.7189918,52.9967595 56.3437005,52.8244626 C57.0362735,52.6336356 58.2873106,51.6325255 58.6112456,53.7997282 C58.9351806,55.9670934 58.3953429,76.7727597 58.3953429,76.7727597 L53.6443499,76.7727597 Z" id="MTV"></path>
                </g>
            </g>
        </g>
    </g>
</svg>