<?xml version="1.0" encoding="utf-8"?>
<!-- Generator: Adobe Illustrator 19.1.1, SVG Export Plug-In . SVG Version: 6.00 Build 0)  -->
<svg version="1.1" id="Layer_1" xmlns="http://www.w3.org/2000/svg" xmlns:xlink="http://www.w3.org/1999/xlink" x="0px" y="0px"
	 viewBox="0 0 437.1 391.7" style="enable-background:new 0 0 437.1 391.7;" xml:space="preserve">
<style type="text/css">
	.st0{fill:#FFF;}
</style>
<path class="st0" d="M428.9,92.1h-230v-85c0-5.9,0-7.1-5.3-7.1l-91.5,6.4c-7.6,0.6-8.8,2.3-8.8,9.4v76.2H11.1
	c-10.6,0-11.1,0-11.1,8.2v58.1c0,10.5,0,11.1,7,11.1h86.3v121.4c0,58.1,23.4,100.9,97.9,100.9c27,0,95-13.5,95-27.5
	c0-1.8-0.6-4.1-1.2-7.1L271,297.3c-1.2-4.7-3-5.9-5.9-5.9c-1.8,0-3.5,0.6-5.3,1.2c-19.9,8.8-35.7,12.9-45.7,12.9
	c-8.2,0-15.2-4.1-15.2-17V169.3h132.7v204.8c0,7.6,1.8,7.6,8.8,7.6h90.9c5.9,0,5.9-0.6,5.9-7.6V100.9
	C437.2,93.3,436.5,92.1,428.9,92.1z"/>
</svg>
