<?xml version="1.0" encoding="UTF-8" standalone="no"?>
<svg width="90px" height="90px" viewBox="0 0 90 90" version="1.1" xmlns="http://www.w3.org/2000/svg" xmlns:xlink="http://www.w3.org/1999/xlink" xmlns:sketch="http://www.bohemiancoding.com/sketch/ns">
    <!-- Generator: Sketch 3.4.4 (17249) - http://www.bohemiancoding.com/sketch -->
    <title>logo</title>
    <desc>Created with Sketch.</desc>
    <defs></defs>
    <g id="Page-1" stroke="none" stroke-width="1" fill="none" fill-rule="evenodd" sketch:type="MSPage">
        <g id="12-Partners" sketch:type="MSArtboardGroup" transform="translate(-490.000000, -2834.000000)" fill="#FFFFFF">
            <g id="MF-Group" sketch:type="MSLayerGroup" transform="translate(485.000000, 2829.000000)">
                <g id="logo" sketch:type="MSShapeGroup">
                    <path d="M26.4007764,5 C28.8061119,5.75541974 31.2067839,6.52664008 33.6176855,7.26385149 C54.0104595,13.5010302 74.4051892,19.7318887 94.7988659,25.9662083 C94.8695712,25.9878777 94.933206,26.0331728 95,26.0674827 L95,26.3684467 C94.4492505,28.0719032 93.8807495,29.7697918 93.3515125,31.479719 C92.1911928,35.2289785 91.051182,38.9845582 89.9018441,42.7371283 C89.8589696,42.877528 89.8076706,43.0152191 89.7383192,43.2179184 C88.7224189,42.9076244 87.7317919,42.6050051 86.7034053,42.2910996 C88.146396,37.5644594 89.5672725,32.910803 91.0156789,28.1664059 C70.0711023,21.7609882 49.1912136,15.3751333 28.2045148,8.95662373 C26.9587469,13.0197887 25.7251643,17.0433769 24.4721754,21.1303181 C23.4425853,20.817165 22.4715152,20.5217688 21.4199613,20.2019945 C21.9344555,18.5199065 22.4327025,16.8793515 22.9375687,15.2410538 C23.9900252,11.8267673 25.0456409,8.4136846 26.0999026,5 L26.4007764,5 Z M73.9359013,95 C50.9171009,87.9603007 27.9927749,80.9493434 5,73.9174691 C6.93401671,67.5887973 8.84576875,61.3332598 10.7794846,55.0056414 C11.8086234,55.3178916 12.7768352,55.611482 13.8362118,55.9329116 C12.2229266,61.2181411 10.6266407,66.4479932 8.99485172,71.793265 C29.9255881,78.1946196 50.8296971,84.5879986 71.8100776,91.0044014 C74.1463626,83.3657837 76.4620377,75.7944314 78.8038888,68.1370033 C79.8312223,68.4477487 80.7994342,68.7405867 81.86197,69.0620163 C79.2168381,77.7174411 76.588856,86.3180904 73.9359013,95 Z M31.4077976,56.0674877 C32.2487399,53.524492 33.0514711,51.2102291 33.7660464,48.8690298 C33.9852329,48.1509296 34.3268751,47.9422111 35.032725,47.9891614 C35.925568,48.0486018 36.8256319,48.0036077 37.7687208,48.0036077 L37.7687208,59.9014686 L35.3235196,59.9014686 L35.3235196,52.0634621 C35.2681588,52.0508216 35.212798,52.0380307 35.1575877,52.0252397 C34.8451302,52.9090206 34.5296641,53.7917481 34.2209676,54.6768833 C33.6778904,56.2343722 33.116159,57.7859923 32.6123459,59.3561217 C32.4617585,59.8251742 32.2467842,59.9738504 31.7685453,59.9709912 C30.3248024,59.9622633 30.3251033,59.9813745 29.8528819,58.650361 C29.0951313,56.5145698 28.3366285,54.3789289 27.4341575,52.2580354 L27.4341575,59.8972551 L24.9232153,59.8972551 L24.9232153,48.0085736 C26.0878978,48.0085736 27.2337756,47.9855499 28.3764942,48.0347575 C28.5383643,48.0418302 28.751383,48.3774051 28.828858,48.599968 C29.5858564,50.7711225 30.3183337,52.9507041 31.0598371,55.1271255 C31.1460375,55.3805373 31.2451754,55.629284 31.4077976,56.0674877 Z M58.7586691,55.4468998 L56.1482882,55.4468998 L56.1482882,53.5077885 L61.1295546,53.5077885 L61.1295546,59.952181 C60.664855,59.952181 60.1324588,60.0906245 59.7544109,59.9083907 C59.4518823,59.7627241 59.3372494,59.2271586 59.1108419,58.8130321 C58.068916,59.9645205 56.7273198,60.3440362 55.19858,60.2289174 C53.3084909,60.0865614 51.8609871,59.2301683 50.9117303,57.592021 C49.3381604,54.876573 49.8327969,51.1553031 52.0073622,49.1432081 C54.6151858,46.7303794 59.2554118,47.4579599 60.6373251,50.5079295 C60.8291321,50.9312354 60.9245091,51.3981811 61.0851757,51.9104219 C60.1545731,51.9104219 59.3357451,51.9104219 58.5166162,51.9113248 C57.7794754,50.3679812 56.963957,49.8467115 55.512241,49.9919266 C54.1757596,50.1255547 53.198672,51.0636596 52.8677108,52.5842804 C52.5672883,53.9649529 52.600234,55.3301258 53.2914915,56.6036551 C53.873231,57.675388 55.0695052,58.2567001 56.2617176,58.1044123 C57.5456965,57.9405374 58.4295132,57.1879768 58.7145911,56.0054891 C58.7485899,55.8646379 58.7391123,55.7134035 58.7586691,55.4468998 Z M73.7523984,55.6941418 C73.6463404,55.1307371 73.6102356,54.6764319 73.4712319,54.2561356 C73.1816408,53.3798788 72.4745874,52.8721525 71.6289817,52.859813 C70.8045875,52.8477744 70.0949767,53.3706994 69.7944037,54.257189 C69.444638,55.2890442 69.4631417,56.3233071 69.9210716,57.3196486 C70.2569972,58.0502388 70.8713815,58.3918329 71.6655378,58.3819011 C72.4318634,58.3724208 73.0376727,58.0266131 73.3251576,57.3167894 C73.5453973,56.7730979 73.630695,56.1747814 73.7523984,55.6941418 Z M67.5871936,53.2352656 C69.3870206,50.9559145 72.0350108,50.3800198 74.1333046,51.6518938 C76.0110579,52.7899893 76.7145009,55.650201 75.6655044,57.880495 C74.7478394,59.8314944 72.3771043,60.7363428 70.0719598,60.0155339 C67.6132192,59.2467213 66.7807015,57.102202 67.5003916,53.3914659 C65.6760433,52.989077 64.5330238,53.8120632 64.4663803,55.6471914 C64.4158335,57.0442665 64.4564514,58.4445016 64.4564514,59.9014686 L62.0661596,59.9014686 L62.0661596,51.2994649 L64.2873604,51.2994649 L64.2873604,52.691875 C65.1543282,51.4785385 66.1615032,50.9118232 67.5871936,51.1109109 L67.5871936,53.2352656 Z M15.9947706,48.0717309 C15.1187766,48.0715805 14.2409773,48.1016769 13.367992,48.050513 C13.1466994,48.0375715 12.8176939,47.8089893 12.7468381,47.6064405 C12.1699126,45.9573081 11.6244284,44.296438 11.1216683,42.6232285 C11.0544231,42.3987093 11.1958337,41.9752529 11.3838799,41.8316931 C12.7754211,40.7691395 14.1941915,39.7414978 15.6310142,38.7406419 C15.8077776,38.6175476 16.2147094,38.6107759 16.3887649,38.7317635 C17.8258885,39.7308136 19.2249516,40.7843382 20.6553056,41.7933201 C21.0137967,42.0462804 21.046592,42.2887069 20.9160128,42.6754457 C20.3727851,44.2837976 19.8349732,45.8950085 19.3457525,47.5202143 C19.2072001,47.9809903 18.9803412,48.092046 18.5475343,48.079255 C17.6971145,48.054275 16.8456417,48.0718814 15.9947706,48.0717309 Z M91.7629591,55.6399984 C91.6796171,55.2144352 91.6405035,54.7599795 91.4981902,54.3404356 C91.1949094,53.4452181 90.5143329,52.9841412 89.6302153,53.0014466 C88.7695658,53.0184511 88.0076029,53.5228668 87.8466354,54.4323802 C87.70703,55.2209059 87.7076317,56.0769981 87.857166,56.8628152 C88.0339294,57.7911388 88.8292892,58.2853218 89.7352202,58.2726813 C90.5931618,58.2607932 91.2693756,57.7446399 91.5385072,56.8452088 C91.6516358,56.466897 91.6863867,56.0649596 91.7629591,55.6399984 Z M85.3943636,51.2952815 L87.5427529,51.2952815 C87.5779551,51.5374071 87.6124052,51.7748677 87.6324133,51.9127092 C88.3525547,51.6311574 89.0722448,51.1720367 89.8342077,51.085961 C91.9559696,50.8466946 93.4443923,51.9664313 93.9546742,54.0552722 C94.2569019,55.2916325 94.2540436,56.5406332 93.8064939,57.7496058 C92.9004124,60.1973463 90.1836726,60.9702219 88.1077939,59.3853453 C88.0339294,59.3289146 87.9629232,59.2685713 87.7939825,59.1319336 L87.7939825,63.0030835 L85.3943636,63.0030835 L85.3943636,51.2952815 Z M38.9537423,48.0394074 L47.406641,48.0394074 C47.406641,48.6670679 47.4511703,49.2662873 47.376704,49.8504585 C47.3569968,50.0053045 46.9742853,50.2209452 46.7538953,50.2262121 C45.3276031,50.260221 43.9002578,50.243668 42.4733639,50.2438185 L41.6313686,50.2438185 L41.6313686,52.9440678 L46.6042106,52.9440678 L46.6042106,55.0687235 L41.6122631,55.0687235 L41.6122631,59.9189094 L38.9537423,59.9189094 L38.9537423,48.0394074 Z M84.5449368,59.9347552 L82.3432928,59.9347552 C82.2963565,59.6450773 82.2512254,59.367137 82.1904489,58.9919853 C81.094817,60.1655946 79.8219705,60.4608403 78.3804842,60.0721453 C77.3254702,59.7875838 76.6041253,59.0563916 76.5552333,58.0147551 C76.451131,55.7951453 76.5234911,53.5674095 76.5234911,51.2961844 L78.9006949,51.2961844 C78.9006949,52.9854955 78.8996419,54.6340261 78.9009958,56.2827071 C78.9021993,57.6012305 79.218869,58.0794624 80.1290122,58.1462764 C81.2833145,58.2308473 81.9938279,57.7161988 82.0968772,56.4860083 C82.2134658,55.0919428 82.1596094,53.6834311 82.1781131,52.2812397 C82.1821749,51.9634217 82.1787149,51.6456036 82.1787149,51.2900146 L84.5449368,51.2900146 L84.5449368,59.9347552 Z M13.4674609,36.5829254 C13.0152476,37.9705201 12.6123776,39.2816699 12.1448197,40.5693445 C12.0658404,40.7864901 11.7121632,41.0329796 11.4768799,41.0420086 C10.2526245,41.0892599 9.02475857,41.0856483 7.79990138,41.0439648 C7.57996264,41.0364407 7.24764754,40.8116206 7.1740839,40.611329 C6.74458657,39.440278 6.35089322,38.2538777 6.01105628,37.0540846 C5.94817365,36.8324246 6.10673414,36.4253707 6.297789,36.2748887 C7.25968249,35.5175127 8.25632692,34.8022716 9.26681153,34.1103553 C9.43785828,33.9932803 9.80943741,33.9555093 9.96408653,34.0617496 C11.1367421,34.8677313 12.2785581,35.7187071 13.4674609,36.5829254 Z M22.3062151,41.0959865 C21.5601986,41.0630309 20.6249324,41.2899578 20.121721,40.9233836 C19.6240758,40.5608724 19.5479547,39.6039572 19.3143262,38.8987985 C19.0639992,38.1433788 18.5090375,37.2699811 18.7082159,36.6465341 C18.9067926,36.0244415 19.8635713,35.6319844 20.5093969,35.1691017 C21.1326569,34.7221701 21.7802878,33.9890217 22.423255,33.9825509 C23.0311705,33.9762307 23.6581915,34.7361649 24.256479,35.1864071 C24.8872609,35.6610274 25.8101913,36.0623629 26.0202012,36.6913778 C26.2196805,37.2884904 25.6744972,38.1427768 25.4337982,38.8763767 C25.200621,39.5862004 25.133827,40.5703528 24.63558,40.9139032 C24.1030334,41.2809289 23.1513696,41.0400071 22.3824866,41.0643852 C22.3575141,41.0651376 22.3325416,41.0643852 22.3075691,41.0643852 C22.3071178,41.074919 22.3066664,41.0854527 22.3062151,41.0959865 Z M19.9552024,26.3148751 C21.1377868,27.1753313 22.2805055,27.985677 23.3911811,28.8378566 C23.5503433,28.960048 23.669038,29.316239 23.6135268,29.508254 C23.2583453,30.7316728 22.8702181,31.9469656 22.4368094,33.144652 C22.3662545,33.3393757 22.0205505,33.5473419 21.7957978,33.554565 C20.570038,33.5945932 19.3418712,33.5563708 18.1153592,33.5836081 C17.7124892,33.5924865 17.538885,33.4344804 17.4271104,33.0760322 C17.0562835,31.8834622 16.6478473,30.7023288 16.2991346,29.5034386 C16.2439242,29.3132293 16.3514866,28.9608004 16.5056844,28.8426721 C17.6169618,27.9922982 18.7596804,27.1830059 19.9552024,26.3148751 Z M12.8685115,28.7689509 C13.6190411,29.312492 14.3432443,29.8056215 15.0236704,30.3530751 C15.1801248,30.4788781 15.2937046,30.8179141 15.2455648,31.0141426 C14.5977836,33.6541992 14.5260252,33.7088241 11.7975512,33.5550315 C11.5789664,33.542692 11.2696682,33.3115516 11.1837687,33.1062941 C10.9051596,32.4399598 10.6748407,31.7469901 10.5055992,31.0449914 C10.4536984,30.8304041 10.5848794,30.4644318 10.758634,30.3217749 C11.4146893,29.7836512 12.1227958,29.3087299 12.8685115,28.7689509 Z" id="MF-Group"></path>
                </g>
            </g>
        </g>
    </g>
</svg>