<?xml version="1.0" encoding="UTF-8" standalone="no"?>
<svg width="100px" height="22px" viewBox="0 0 100 22" version="1.1" xmlns="http://www.w3.org/2000/svg" xmlns:xlink="http://www.w3.org/1999/xlink" xmlns:sketch="http://www.bohemiancoding.com/sketch/ns">
    <!-- Generator: Sketch 3.4.4 (17249) - http://www.bohemiancoding.com/sketch -->
    <title>Logo</title>
    <desc>Created with Sketch.</desc>
    <defs></defs>
    <g id="Page-1" stroke="none" stroke-width="1" fill="none" fill-rule="evenodd" sketch:type="MSPage">
        <g id="12-Partners" sketch:type="MSArtboardGroup" transform="translate(-485.000000, -3482.000000)" fill="#FFFFFF">
            <g id="K_player" sketch:type="MSLayerGroup" transform="translate(485.000000, 3442.000000)">
                <g id="Logo" sketch:type="MSShapeGroup">
                    <path d="M64.1232921,42.1646795 L64.1232921,59.8357534 C64.1232921,61.0310338 65.1047955,62 66.3155414,62 C67.5262873,62 68.5077907,61.0310338 68.5077907,59.8357534 L68.5077907,42.1646795 C68.5077907,40.9693991 67.5262873,40.0004328 66.3155414,40.0004328 C65.1047955,40.0004328 64.1232921,40.9693991 64.1232921,42.1646795 Z M32.2893082,61.0629183 L46.128978,52.531458 C47.5304579,51.6675162 47.4968768,49.6416409 46.0675135,48.8234322 L32.2278436,40.9012074 C31.1804358,40.301641 29.8390107,40.6538424 29.2316867,41.6878712 C28.6243627,42.7219 28.9811211,44.0461904 30.028529,44.6457568 L43.8681988,52.5679816 L43.8067343,48.8599558 L29.9670644,57.3914161 C28.940089,58.0244948 28.627413,59.3596002 29.2686829,60.3734575 C29.9099528,61.3873148 31.2623328,61.6959969 32.2893082,61.0629183 Z M54.7266539,42.1642466 L54.7266539,59.8353205 C54.7266539,61.0306009 55.7081574,61.9995672 56.9189032,61.9995672 C58.1296491,61.9995672 59.1111525,61.0306009 59.1111525,59.8353205 L59.1111525,42.1642466 C59.1111525,40.9689662 58.1296491,40 56.9189032,40 C55.7081574,40 54.7266539,40.9689662 54.7266539,42.1642466 Z M79.4677851,61.0628775 L93.3063588,52.5314172 C94.7077503,51.6674614 94.6741698,49.6416933 93.2448933,48.8234695 L79.4063196,40.9012447 C78.3589326,40.3016428 77.0174952,40.6537987 76.4101352,41.6878068 C75.8027752,42.721815 76.1594876,44.0461176 77.2068745,44.6457195 L91.0454482,52.5679443 L90.9839827,48.8599966 L77.145409,57.3914569 C76.1184564,58.0245716 75.8058285,59.359688 76.4471349,60.3735228 C77.0884414,61.3873576 78.4408325,61.6959922 79.4677851,61.0628775 Z M95.6155014,42.1642466 L95.6155014,59.8353205 C95.6155014,61.0306009 96.5970048,61.9995672 97.8077507,61.9995672 C99.0184966,61.9995672 100,61.0306009 100,59.8353205 L100,42.1642466 C100,40.9689662 99.0184966,40 97.8077507,40 C96.5970048,40 95.6155014,40.9689662 95.6155014,42.1642466 Z M22.854591,57.3914569 L9.01601731,48.8599966 L8.95455178,52.5679443 L22.7931255,44.6457195 C23.8405124,44.0461176 24.1972248,42.721815 23.5898648,41.6878068 C22.9825048,40.6537987 21.6410674,40.3016428 20.5936804,40.9012447 L6.75510673,48.8234695 C5.32583021,49.6416933 5.29224967,51.6674614 6.6936412,52.5314172 L20.5322149,61.0628775 C21.5591675,61.6959922 22.9115586,61.3873576 23.5528651,60.3735228 C24.1941715,59.359688 23.8815436,58.0245716 22.854591,57.3914569 Z M0,42.1642466 L0,59.8353205 C0,61.0306009 0.981503445,61.9995672 2.1922493,61.9995672 C3.40299516,61.9995672 4.38449861,61.0306009 4.38449861,59.8353205 L4.38449861,42.1642466 C4.38449861,40.9689662 3.40299516,40 2.1922493,40 C0.981503445,40 0,40.9689662 0,42.1642466 L0,42.1642466 Z" id="k_player"></path>
                </g>
            </g>
        </g>
    </g>
</svg>