<?xml version="1.0" encoding="UTF-8" standalone="no"?>
<svg width="100px" height="30px" viewBox="0 0 100 30" version="1.1" xmlns="http://www.w3.org/2000/svg" xmlns:xlink="http://www.w3.org/1999/xlink" xmlns:sketch="http://www.bohemiancoding.com/sketch/ns">
    <!-- Generator: Sketch 3.4.4 (17249) - http://www.bohemiancoding.com/sketch -->
    <title>logo</title>
    <desc>Created with Sketch.</desc>
    <defs></defs>
    <g id="Page-1" stroke="none" stroke-width="1" fill="none" fill-rule="evenodd" sketch:type="MSPage">
        <g id="12-Partners" sketch:type="MSArtboardGroup" transform="translate(-485.000000, -2557.000000)" fill="#FFFFFF">
            <g id="Pepsi" sketch:type="MSLayerGroup" transform="translate(485.000000, 2522.000000)">
                <g id="logo" sketch:type="MSShapeGroup">
                    <g id="pepsi-max" transform="translate(0.000000, 35.000000)">
                        <path d="M29.7230769,15.1825532 C29.7230769,23.3451064 23.0769231,29.9610638 14.8801282,29.9610638 C6.68397436,29.9610638 0.0391025641,23.3451064 0.0391025641,15.1825532 C0.0391025641,7.0206383 6.68397436,0.404042553 14.8801282,0.404042553 C23.0769231,0.404042553 29.7230769,7.0206383 29.7230769,15.1825532 Z M23.300641,4.02957447 L23.3326923,3.8987234 C20.975,2.14531915 18.049359,1.10744681 14.8801282,1.10744681 C7.07371795,1.10744681 0.745512821,7.4087234 0.745512821,15.1825532 C0.745512821,18.3765957 1.81602564,21.3217021 3.61602564,23.6840426 L3.91794872,23.5697872 C13.5512821,20.2040426 20.3557692,14.0438298 23.300641,4.02957447 Z M27.2339744,8.34765957 C27.2339744,8.34765957 27.2217949,8.3412766 27.2051282,8.35085106 C27.1884615,8.35978723 27.1852564,8.46574468 27.1814103,8.47851064 C27.2467949,9.08234043 27.2788462,9.6587234 27.2788462,10.2070213 C27.2653846,21.6102128 13.5608974,21.3695745 4.4474359,24.1729787 L4.09935897,24.2795745 C6.69102564,27.3242553 10.5576923,29.2570213 14.8801282,29.2570213 C22.6878205,29.2570213 29.0160256,22.9557447 29.0160256,15.1825532 C29.0160256,12.6938298 28.3711538,10.3755319 27.2339744,8.34765957 Z" id="Fill-1"></path>
                        <path d="M98.0897436,6.55212766 C98.9448718,6.55212766 99.6384615,5.87489362 99.6384615,5.0393617 C99.6384615,4.20446809 98.9448718,3.52723404 98.0897436,3.52723404 C97.2339744,3.52723404 96.5410256,4.20446809 96.5410256,5.0393617 C96.5410256,5.87489362 97.2339744,6.55212766 98.0897436,6.55212766 L98.0897436,6.55212766 Z M99.2448718,7.66021277 L96.9346154,7.66021277 C96.8628205,7.66021277 96.8064103,7.71702128 96.8064103,7.78659574 L96.8064103,21.9925532 C96.8064103,22.0634043 96.8628205,22.1189362 96.9346154,22.1189362 L99.2448718,22.1189362 C99.3153846,22.1189362 99.3724359,22.0634043 99.3724359,21.9925532 L99.3724359,7.78659574 C99.3724359,7.71702128 99.3153846,7.66021277 99.2448718,7.66021277 L99.2448718,7.66021277 Z M93.1474359,15.0102128 C92.7884615,14.7006383 92.3788462,14.4382979 91.9160256,14.2193617 C91.4519231,14.0023404 90.9820513,13.8044681 90.5076923,13.6282979 C90.0326923,13.4521277 89.5666667,13.2817021 89.1076923,13.1151064 C88.65,12.9510638 88.2416667,12.7634043 87.8846154,12.5553191 C87.5269231,12.3485106 87.2378205,12.1078723 87.0128205,11.832766 C86.7903846,11.5582979 86.6782051,11.2187234 86.6782051,10.8153191 C86.6782051,10.5248936 86.7378205,10.2555319 86.8538462,10.0065957 C86.9711538,9.75702128 87.1442308,9.54319149 87.3737179,9.3612766 C87.6019231,9.1806383 87.8955128,9.04021277 88.2532051,8.94191489 C88.6102564,8.84297872 89.024359,8.79382979 89.4935897,8.79382979 C90.0192308,8.79382979 90.4852564,8.8506383 90.8929487,8.96361702 C91.300641,9.07914894 91.6551282,9.20106383 91.9576923,9.33 C92.2589744,9.45957447 92.5044872,9.58148936 92.6948718,9.69574468 C92.8839744,9.81 93.0294872,9.86617021 93.1307692,9.86617021 C93.1974359,9.86617021 93.2589744,9.84829787 93.3147436,9.81319149 C93.3698718,9.77553191 93.874359,8.31574468 93.8576923,8.20085106 C93.8410256,8.08723404 93.2897436,7.80446809 93.1724359,7.72148936 C93.0544872,7.63787234 92.8814103,7.54148936 92.6519231,7.43361702 C92.4237179,7.32510638 92.1467949,7.22361702 91.8224359,7.13042553 C91.4987179,7.03659574 91.1365385,6.96 90.7339744,6.89680851 C90.3320513,6.83489362 89.9288462,6.80425532 89.5269231,6.80425532 C88.6102564,6.80425532 87.8096154,6.91787234 87.1217949,7.14638298 C86.4352564,7.37361702 85.8621795,7.67680851 85.4044872,8.05468085 C84.9461538,8.43382979 84.6025641,8.87425532 84.374359,9.37595745 C84.1455128,9.87893617 84.0294872,10.4055319 84.0294872,10.9538298 C84.0294872,11.5768085 84.1397436,12.1097872 84.3583333,12.5553191 C84.575,13.0008511 84.8628205,13.3857447 85.2198718,13.7061702 C85.5782051,14.0278723 85.9833333,14.3010638 86.4352564,14.5225532 C86.8884615,14.7459574 87.3512821,14.9444681 87.8262821,15.1206383 C88.300641,15.2974468 88.7628205,15.4653191 89.2089744,15.6255319 C89.6551282,15.7870213 90.0576923,15.9702128 90.4160256,16.1789362 C90.7730769,16.386383 91.0608974,16.6231915 91.2788462,16.8925532 C91.4961538,17.1631915 91.6051282,17.4944681 91.6051282,17.8876596 C91.6051282,18.2725532 91.5294872,18.6031915 91.3788462,18.882766 C91.2275641,19.1623404 91.0121795,19.3934043 90.7339744,19.5740426 C90.4538462,19.7559574 90.125,19.8931915 89.7455128,19.986383 C89.3647436,20.0802128 88.9410256,20.1268085 88.4724359,20.1268085 C87.8455128,20.1268085 87.2929487,20.0565957 86.8115385,19.9155319 C86.3320513,19.7770213 85.9153846,19.6238298 85.5641026,19.457234 C85.2128205,19.2938298 84.9160256,19.1393617 84.6762821,18.9995745 C84.4358974,18.8591489 84.2538462,18.7895745 84.1314103,18.7895745 C84.0532051,18.7895745 83.9826923,18.8080851 83.9217949,18.8431915 C83.8602564,18.8795745 83.8121795,18.9395745 83.7794872,19.0219149 C83.7461538,19.1068085 83.6897436,20.4217021 83.7461538,20.6080851 C83.8012821,20.7951064 83.8903846,20.9380851 84.0134615,21.042766 C84.1371795,21.1461702 84.3320513,21.2642553 84.6,21.3931915 C84.8692308,21.5234043 85.1955128,21.647234 85.5807692,21.7665957 C85.9660256,21.8859574 86.4019231,21.983617 86.8884615,22.0614894 C87.3737179,22.1406383 87.8846154,22.1795745 88.4217949,22.1795745 C89.2923077,22.1795745 90.0910256,22.08 90.8185897,21.8834043 C91.5442308,21.6868085 92.1685897,21.3970213 92.6948718,21.012766 C93.2192308,20.6285106 93.625,20.1574468 93.9089744,19.5976596 C94.1942308,19.0385106 94.3371795,18.4008511 94.3371795,17.6865957 C94.3371795,17.0846809 94.2275641,16.5670213 94.0102564,16.1304255 C93.7916667,15.6951064 93.5038462,15.3223404 93.1474359,15.0102128 L93.1474359,15.0102128 Z M53.000641,12.8802128 C53.6057692,10.8051064 55.4666667,9.23617021 57.7570513,9.11106383 C60.2435897,8.97638298 62.4141026,10.5874468 63.0826923,12.8693617 C59.7384615,13.1840426 56.3262821,12.2521277 53.000641,12.8802128 L53.000641,12.8802128 Z M65.6884615,13.8785106 L65.6961538,13.8785106 C65.6852564,13.6914894 65.6647436,13.5089362 65.6403846,13.3270213 C65.6403846,13.3244681 65.6397436,13.3212766 65.6397436,13.3180851 C65.6262821,13.2287234 65.6153846,13.1387234 65.6,13.0493617 C65.5852564,12.9638298 65.5705128,12.8885106 65.5557692,12.8189362 C64.8147436,9.16212766 61.475641,6.50361702 57.624359,6.71297872 C53.3967949,6.94340426 50.1564103,10.5434043 50.3865385,14.7548936 C50.6179487,18.9631915 54.2333333,22.1897872 58.4615385,21.9606383 C61.7839744,21.78 64.4891026,19.5178723 65.3878205,16.5159574 L62.7455128,16.6595745 C61.9314103,18.2917021 60.2891026,19.4553191 58.3307692,19.5619149 C55.6814103,19.7068085 53.3903846,17.8685106 52.8935897,15.3497872 C57.1179487,14.4951064 61.4891026,16.277234 65.6871795,14.9138298 C65.6871795,14.9138298 65.7160256,14.5097872 65.6961538,14.0093617 C65.6948718,13.9640426 65.6910256,13.9231915 65.6884615,13.8785106 L65.6884615,13.8785106 Z M74.9935897,19.5689362 C72.1634615,19.5689362 69.8615385,17.3393617 69.75,14.5493617 L69.75,14.4574468 L69.7448718,14.4574468 C69.7435897,14.4165957 69.7391026,14.3770213 69.7391026,14.3368085 C69.7391026,11.4465957 72.0910256,9.10340426 74.9935897,9.10340426 C77.8974359,9.10340426 80.2487179,11.4465957 80.2487179,14.3368085 C80.2487179,17.2270213 77.8974359,19.5689362 74.9935897,19.5689362 L74.9935897,19.5689362 Z M74.9935897,6.70212766 C70.7602564,6.70212766 67.3262821,10.1195745 67.3262821,14.3368085 C67.3262821,14.3770213 67.3288462,14.4178723 67.3294872,14.4574468 L67.3262821,14.4574468 L67.3262821,28.3819149 L69.75,28.3819149 L69.75,19.9040426 C71.1211538,21.1857447 72.9653846,21.9708511 74.9935897,21.9708511 C79.2294872,21.9708511 82.6615385,18.552766 82.6615385,14.3368085 C82.6615385,10.1195745 79.2294872,6.70212766 74.9935897,6.70212766 L74.9935897,6.70212766 Z M41.0929487,19.5689362 C38.2628205,19.5689362 35.9615385,17.3393617 35.8480769,14.5493617 L35.8480769,14.4574468 L35.8435897,14.4574468 C35.8429487,14.4165957 35.8378205,14.3770213 35.8378205,14.3368085 C35.8378205,11.4465957 38.1903846,9.10340426 41.0929487,9.10340426 C43.9955128,9.10340426 46.3487179,11.4465957 46.3487179,14.3368085 C46.3487179,17.2270213 43.9955128,19.5689362 41.0929487,19.5689362 L41.0929487,19.5689362 Z M41.0929487,6.70212766 C36.8583333,6.70212766 33.425,10.1195745 33.425,14.3368085 C33.425,14.3770213 33.4275641,14.4178723 33.4275641,14.4574468 L33.425,14.4574468 L33.425,28.3819149 L35.8480769,28.3819149 L35.8480769,19.9040426 C37.2198718,21.1857447 39.0641026,21.9708511 41.0929487,21.9708511 C45.3275641,21.9708511 48.7602564,18.552766 48.7602564,14.3368085 C48.7602564,10.1195745 45.3275641,6.70212766 41.0929487,6.70212766 L41.0929487,6.70212766 Z" id="Fill-6"></path>
                    </g>
                </g>
            </g>
        </g>
    </g>
</svg>