<?xml version="1.0" encoding="UTF-8" standalone="no"?>
<svg width="100px" height="44px" viewBox="0 0 100 44" version="1.1" xmlns="http://www.w3.org/2000/svg" xmlns:xlink="http://www.w3.org/1999/xlink" xmlns:sketch="http://www.bohemiancoding.com/sketch/ns">
    <!-- Generator: Sketch 3.4.4 (17249) - http://www.bohemiancoding.com/sketch -->
    <title>Logo</title>
    <desc>Created with Sketch.</desc>
    <defs></defs>
    <g id="Page-1" stroke="none" stroke-width="1" fill="none" fill-rule="evenodd" sketch:type="MSPage">
        <g id="12-Partners" sketch:type="MSArtboardGroup" transform="translate(-485.000000, -2243.000000)" fill="#FFFFFF">
            <g id="Mini" sketch:type="MSLayerGroup" transform="translate(485.000000, 2215.000000)">
                <g id="Logo" sketch:type="MSShapeGroup">
                    <g id="Mini" transform="translate(0.000000, 28.000000)">
                        <path d="M50,40.7072368 C39.6447674,40.7072368 31.25,32.3478158 31.25,22.0361842 C31.25,11.7245526 39.6447674,3.36513158 50,3.36513158 C60.3552326,3.36513158 68.75,11.7245526 68.75,22.0361842 C68.75,32.3478158 60.3552326,40.7072368 50,40.7072368 L50,40.7072368 Z M99.9726744,10.2783421 L68.4494186,10.2783421 C64.5526163,4.18115789 57.7107558,0.132578947 49.9151163,0.132578947 C42.1197674,0.132578947 35.277907,4.18115789 31.380814,10.2783421 L0.0273255814,10.2783421 L3.21715116,13.4611053 L29.693314,13.4611053 C29.2043605,14.6082895 28.8165698,15.8075789 28.5284884,17.0447895 L6.80872093,17.0447895 L9.99854651,20.2275526 L28.0334302,20.2275526 C27.9863372,20.8128684 27.9555233,21.4028158 27.9555233,22 C27.9555233,22.6105 27.9872093,23.2134737 28.0363372,23.8112368 L13.5901163,23.8112368 L16.7802326,26.994 L28.5375,26.994 C28.8281977,28.2317895 29.2194767,29.4307895 29.7110465,30.5776842 L20.3715116,30.5776842 L23.5616279,33.7604474 L31.4061047,33.7604474 C35.3072674,39.8359211 42.1363372,43.8674211 49.9151163,43.8674211 C57.694186,43.8674211 64.5232558,39.8359211 68.4244186,33.7604474 L76.4383721,33.7604474 L79.6284884,30.5776842 L70.1194767,30.5776842 C70.6110465,29.4307895 71.0023256,28.2317895 71.2927326,26.994 L83.2197674,26.994 L86.4098837,23.8112368 L71.7938953,23.8112368 C71.843314,23.2134737 71.875,22.6105 71.875,22 C71.875,21.4028158 71.844186,20.8128684 71.797093,20.2275526 L90.0014535,20.2275526 L93.1912791,17.0447895 L71.3017442,17.0447895 C71.0136628,15.8075789 70.6261628,14.6082895 70.1369186,13.4611053 L96.7828488,13.4611053 L99.9726744,10.2783421 Z" id="Fill-1"></path>
                        <path d="M40.3592733,24.7502895 L37.8127616,17.083 L34.9272965,17.083 L34.9272965,26.9326316 L37.0342733,26.9326316 L37.0342733,19.6289211 L39.2560756,26.9326316 L41.4395058,26.9326316 L43.669157,19.6289211 L43.669157,26.9326316 L45.775843,26.9326316 L45.775843,17.083 L42.8831105,17.083 L40.3592733,24.7502895 Z M48.0741279,26.9248158 L50.0802326,26.9248158 L50.0802326,17.0751842 L48.0741279,17.0751842 L48.0741279,26.9248158 Z M62.9813953,26.9248158 L64.9872093,26.9248158 L64.9872093,17.0751842 L62.9813953,17.0751842 L62.9813953,26.9248158 Z M58.7141279,24.2968579 L54.7493023,17.0828842 L52.4190698,17.0828842 L52.4190698,26.9325158 L54.3763372,26.9325158 L54.3763372,20.0288579 L58.3391279,26.9909895 L60.6961047,26.9325158 L60.6961047,17.0828842 L58.7391279,17.0828842 L58.7141279,24.2968579 Z" id="Fill-3"></path>
                    </g>
                </g>
            </g>
        </g>
    </g>
</svg>