<?xml version="1.0" encoding="UTF-8" standalone="no"?>
<svg width="100px" height="36px" viewBox="0 0 100 36" version="1.1" xmlns="http://www.w3.org/2000/svg" xmlns:xlink="http://www.w3.org/1999/xlink" xmlns:sketch="http://www.bohemiancoding.com/sketch/ns">
    <!-- Generator: Sketch 3.4.4 (17249) - http://www.bohemiancoding.com/sketch -->
    <title>Logo</title>
    <desc>Created with Sketch.</desc>
    <defs></defs>
    <g id="Page-1" stroke="none" stroke-width="1" fill="none" fill-rule="evenodd" sketch:type="MSPage">
        <g id="12-Partners" sketch:type="MSArtboardGroup" transform="translate(-485.000000, -4396.000000)" fill="#FFFFFF">
            <g id="Privet" sketch:type="MSLayerGroup" transform="translate(485.000000, 4364.000000)">
                <g id="Logo" sketch:type="MSShapeGroup">
                    <path d="M100,44.2167667 L100,39.6422986 L96.3957083,39.6422986 L96.3957083,32 L90.9165303,33.2656847 L90.9165303,53.0620113 C90.9165303,57.507365 94.595381,61.123477 99.1189307,61.123477 L99.1189307,56.1634843 C97.3786143,56.1634843 96.3957083,54.771413 96.3957083,53.0620113 L96.4048009,44.2167667 L100,44.2167667 Z M77.0992366,61.169679 C81.2959081,61.169679 84.9470828,58.8341298 86.8238765,55.3919157 C84.9470823,55.1588809 81.3296718,54.4658756 81.3296718,54.4658756 C81.3296718,54.4658756 79.9393542,56.1338271 77.0992366,56.1989013 C72.9265752,56.2945076 71.4291172,52.39127 71.4291172,52.39127 C71.4291172,52.39127 86.0271425,52.39127 87.930702,52.3912707 C88.0861769,51.6523021 88.1679389,50.8861877 88.1679389,50.1009767 C88.1679389,43.9879012 83.2123121,39.0322744 77.0992366,39.0322744 C70.9861612,39.0322744 66.0305344,43.9879012 66.0305344,50.1009767 C66.0305344,56.2140522 70.9861612,61.169679 77.0992366,61.169679 Z M82.7572592,47.7987307 C81.8483063,45.5671409 79.6574724,43.9941065 77.0992366,43.9941065 C74.542387,43.9941065 72.3525412,45.5654367 71.4426927,47.7951038 C74.5398603,47.7951036 80.0406651,47.7951036 82.7572592,47.7987307 Z M61.6912166,39.6586652 L56.387525,52.248227 L51.0838334,39.6586652 L45.3391526,39.6586652 L54.2962357,60.5861066 L58.4797236,60.5861066 L67.4368067,39.6586652 L61.6912166,39.6586652 Z M38.1960356,60.5851973 L43.644299,60.5851973 L43.644299,39.6586652 L38.1960356,39.6586652 L38.1960356,60.5851973 Z M23.6633933,51.5026368 L23.6633933,60.5851973 L29.1116567,60.5851973 L29.1116567,51.5026368 C29.1116567,47.9347154 31.5320967,44.8568831 35.4464448,44.8568831 L35.4464448,39.6550282 C28.7143117,39.6550282 23.6633933,44.9705401 23.6633933,51.5026368 L23.6633933,51.5026368 Z M10.7483179,55.722495 C9.86815785,55.722495 8.96253864,55.7288598 8.19785416,55.32515 C7.10856519,56.5117294 5.36461175,56.4599018 5.22458629,56.4599018 C6.46572104,54.9459902 5.23731588,52.4537189 5.23731588,50.4642662 C5.23731588,47.3946172 7.70594654,44.9723586 10.7528642,44.9723586 C13.800691,44.9723586 16.270231,47.3946172 16.270231,50.4642662 C16.270231,53.5339153 13.6570286,55.722495 10.7483179,55.722495 L10.7483179,55.722495 Z M10.7483179,39.778687 C4.81269322,39.778687 0,44.5440989 0,50.5006365 L0,67.1818512 L5.22549554,65.7306783 L5.23186034,59.6868522 C5.43189671,59.8750682 7.09128933,61.2216767 10.7483179,61.2216767 C16.6848518,61.2216767 21.497545,56.4562648 21.497545,50.5006365 C21.497545,44.5440989 16.6848518,39.778687 10.7483179,39.778687 L10.7483179,39.778687 Z" id="Logo---refresh"></path>
                </g>
            </g>
        </g>
    </g>
</svg>