<?xml version="1.0" encoding="utf-8"?>
<!-- Generator: Adobe Illustrator 19.0.0, SVG Export Plug-In . SVG Version: 6.00 Build 0)  -->
<svg version="1.2" baseProfile="tiny" id="Layer_1" xmlns="http://www.w3.org/2000/svg" xmlns:xlink="http://www.w3.org/1999/xlink"
	 x="0px" y="0px" viewBox="0 0 355.5 155.8" xml:space="preserve">
<g id="XMLID_393_">
	<path id="XMLID_414_" fill="#FFFFFF" d="M355.5,38.2l-50.3,8.4L300.3,0l-28.6,52.2l-48.8,8.5l33.1,15.9
		c-34.1,32.6-74.6,51.5-159.6,77.3c89.4-13.9,148.5-37.2,186.6-59.5l33.4,15.1l-7.1-34.2C336.3,54.4,355.5,38.2,355.5,38.2z"/>
	<path id="XMLID_395_" fill="#FFFFFF" d="M176.7,67.6l-22.6,42.2l-0.3,0.1c-1.9,0.4-22.5,5.3-27.5,6.5c-0.8,0.2-1.7,0.3-2.6,0.3l0,0
		c-3.7,0.1-6.6-1.2-7.8-3.6c-1.3-2.5-0.8-6.1,1.7-10.7c5.1-9.6,14.2-26.9,14.3-27.1l0.2-0.4l17.2-2.9l-0.5,0.9
		c-0.1,0.2-10,18.7-13.3,24.8c-1.4,2.6-1.9,4.2-1.5,5c0.2,0.3,0.6,0.5,1.3,0.5c0.4,0,0.9-0.1,1.5-0.2c1.8-0.4,5.3-1.3,6.4-1.6
		l16.6-31.2L176.7,67.6z M205.4,62.9c-4.2,0.7-8.7,1.5-10.1,1.7c-7.3,1.1-15.4,3.5-20.5,12.7c-1,1.8-1.9,4.6-1.2,6.9
		c0.6,1.9,2,3.2,4.2,3.8c1.6,0.5,2.8,0.8,3.9,1.1c1.2,0.3,2.2,0.6,3.2,0.9c0.5,0.1,0.8,0.4,0.8,0.6c0,0.2,0,0.3-0.1,0.5
		c-0.5,1-2.6,1.9-6.2,2.7l-14.5,3.1l-6.4,11.8l1.1-0.3c5-1.2,9.5-2.2,13.2-3.1c3.4-0.8,6.1-1.4,8-1.9c9.9-2.4,15.9-6,19.2-11.9
		c1.1-1.9,1.7-4.9,0.9-7.5c-0.8-2.4-2.8-3.9-5.9-4.5c-3.8-0.8-5.2-1.1-5.2-1.1c-1-0.3-1.3-0.6-1.4-0.8c0-0.1-0.1-0.2,0.2-0.7
		c0.5-0.9,1.9-1.7,3.6-2c1.2-0.2,3-0.6,5.1-1c3.4-0.7,7.6-1.5,11.5-2.2l0.4-0.1l5.6-10.7l-1,0.2C212.6,61.7,209.1,62.3,205.4,62.9z
		 M87.3,101.4c-5.8,11.1-13,18-34,22.7c-1.3,0.3-2.8,0.6-4,0.8c-0.8,0.2-1.6,0.3-2.2,0.4L41.3,136l-19.8,4.7l27.3-52.2l0.6-0.1
		c2.5-0.4,6.8-1.1,10.9-1.8c2.6-0.4,5.1-0.8,6.9-1.1c2.6-0.4,5.1-0.7,7.3-0.7c7-0.2,11.8,1.6,13.7,5.2
		C89.8,92.9,89.5,96.9,87.3,101.4z M71.2,98.3c-0.5-0.9-1.7-1.4-3.7-1.3c-0.8,0-1.8,0.1-2.8,0.3c-0.6,0.1-1,0.2-1.4,0.3
		c-0.4,0.1-0.9,0.2-1.7,0.3l-7.7,14.6c0.8-0.1,1.9-0.3,2.8-0.5c8.7-1.8,11.8-5.7,13.7-9.4C71.4,100.7,71.7,99.2,71.2,98.3z
		 M106.5,110.3c-0.7,0.1-1.2,0.2-1.7,0.2c-0.8,0-1.3-0.2-1.5-0.6c-0.4-0.8,0.1-2.5,1.5-5.2c3.5-6.6,14.4-27,14.4-27l0.5-0.9
		L102,79.9l-0.2,0.4c-0.1,0.2-10.1,19.1-15.5,29.3c-2.7,5.1-3.4,9.1-2.1,11.7c1.5,2.8,4.9,3.1,6.8,3.1l0,0c0.9,0,1.9-0.2,2.9-0.4
		c0.9-0.2,2.3-0.5,4-1c2.5-0.6,5.7-1.3,8.2-1.9l0.3-0.1l6.4-12.1l-2.3,0.5C109.3,109.7,107.5,110.1,106.5,110.3z M159.9,34.3
		c2.4-2.8,5.2-5.3,8.3-7.6c3-2.2,6.3-4,9.7-5.4c3.4-1.4,6.9-2.3,10.4-2.6c0.7-0.1,1.4-0.1,2.1-0.1c2.5-0.1,4.6,0.2,6.4,0.9
		c2.1,0.8,3.6,2.2,4.5,4c0.8,1.7,1,3.9,0.5,6.5c-0.5,2.5-1.5,5.3-3.1,8.3c-1.6,3-3.6,5.9-5.9,8.6c-2.3,2.7-4.9,5.2-7.7,7.4
		c-2.8,2.1-5.9,4-9.2,5.5c-3.4,1.5-6.9,2.6-10.4,3.1c-1.4,0.2-2.7,0.3-3.9,0.4c-1.9,0-3.6-0.1-5.1-0.6c-2.4-0.7-4.1-2-5.1-3.7
		c-1-1.8-1.3-4-0.9-6.7c0.4-2.7,1.5-5.6,3.2-8.8C155.3,40.2,157.4,37.1,159.9,34.3z M166.8,49.9c0.1,1.3,0.8,1.8,2.3,1.8
		c0.3,0,0.5,0,0.8-0.1c2.2-0.3,4.3-1.5,6.4-3.5c2.1-2,4.3-4.9,6.3-8.6c3.1-5.6,3.2-7.9,2.7-8.9c-0.3-0.6-1-1-2.2-0.9
		c-0.2,0-0.4,0-0.6,0c-4.4,0.5-8.7,4.5-12.9,12C167.7,45.5,166.7,48.3,166.8,49.9z M287,10.1l-19.5,36.6l-0.4,0.1
		c-0.6,0.1-2.4,0.4-4.8,0.8c-3.7,0.6-8.3,1.4-10.7,1.7c-0.7,0.1-1.4,0.2-2.1,0.2h0c-4.3,0.1-7.6-1.6-9.2-4.7
		c-1.9-3.7-1.3-8.9,1.7-14.5c2.1-3.9,10.1-16.8,25.1-18.2C275.7,11.2,287,10.1,287,10.1z M268.4,21.4c-0.7,0.1-1.6,0.1-2.8,0.3
		c-4.4,0.5-8.9,5.5-10.7,8.9c-1.7,3.2-2.2,5.7-1.4,7.1c0.7,1.3,2.1,1.3,2.6,1.3c0.1,0,0.2,0,0.4,0c1.4-0.2,2.5-0.3,3.1-0.4
		L268.4,21.4z M241.2,19.2c1.3,2.5,0.8,6.2-1.7,10.8c-4.9,9.5-13.3,15.1-24.9,16.7c0,0-4,0.6-4.4,0.6l-4.5,8.6L191,58.2l21.7-41.1
		l0.4,0c1.2-0.1,3.7-0.4,6.4-0.6c3.4-0.3,7.1-0.7,8.8-0.8c0.9-0.1,1.8-0.1,2.6-0.2C236.4,15.3,239.8,16.6,241.2,19.2z M228.1,26.5
		c-0.4-0.8-1.4-1.1-3.1-1.1c-0.3,0-0.7,0-1,0.1c-0.5,0-0.8,0.1-1.1,0.1c-0.3,0-0.7,0-1.1,0.1l-6,11.3c0.2,0,0.4,0,0.5-0.1
		c0.4,0,0.7-0.1,1.3-0.2c6-0.8,8.4-3.8,9.8-6.4C227.9,29.1,228.6,27.5,228.1,26.5z M50.6,79l8.1-15.1l-1,0.1
		c-0.2,0-15.8,2.3-22.7,3.2c-2.2,0.3-4.1,0.5-5.7,0.5c-4.2,0.1-6.8-0.6-7.6-2.2c-0.6-1.1-0.4-2.7,0.6-4.9c2.2-4.5,8.8-8,17.3-9
		c4.5-0.6,15.9-1.9,16-1.9l0.4,0l7.3-13.8l-0.9,0.1c-0.1,0-8.9,0.9-17.6,1.8c-0.4,0-0.8,0.1-1.1,0.1c-2,0.1-3.4-0.5-4-1.5
		c-0.4-0.7-0.3-1.6,0.2-2.7c2-4,7.3-6.1,17.2-7.1c8.5-0.8,20.6-1.7,20.7-1.7l0.4,0l7.3-13.8l-0.9,0.1c-0.1,0-6.2,0.4-25.3,1.8
		c-18.4,1.3-31.5,7.9-37,18.5c-3.2,6.2-1.2,10.2,1.7,12.1C14,47.6,6.3,54,2.4,61.8c-2.8,5.6-3.2,10.6-1.1,14.4
		c2.8,5.1,9.5,7.7,19,7.5c0,0,0,0,0,0c2.8-0.1,5.8-0.4,9-1c9.7-1.6,20.8-3.7,20.9-3.7L50.6,79z M97.8,28.7l0.5-0.9l-18.6,1.7
		L64,59.5c-2.6,5-3.2,9-1.7,11.9c2.1,3.9,7.3,4.2,9.4,4.2c0.7,0,1.4-0.1,2.1-0.2c6.5-1,28.7-4.3,31-4.7l0.4-0.1l24-45.7L111,26.6
		L93.1,60.7c-1.1,0.2-4.6,0.7-6.8,1c-0.5,0.1-1,0.1-1.4,0.1c-1.4,0-2.2-0.3-2.6-0.9c-0.5-0.9,0-2.7,1.4-5.3
		C87.1,49,97.7,28.9,97.8,28.7z M109.5,70l18-2.7l11.9-22.6c4.4-8.3,8.5-9.6,17.6-10.7l0.4,0l6.5-12.3l-0.9,0.1
		c-1.2,0.1-2.4,0.2-3.7,0.3c-1.5,0.1-3.1,0.3-5.1,0.4c-13.3,1.3-24.8,9.4-31.6,22.4L109.5,70z"/>
	<path id="XMLID_394_" fill="#FFFFFF" d="M10.5,155.8c75.8-3.5,144.9-28,191.3-49.5C201.8,106.3,122.6,128.9,10.5,155.8z"/>
</g>
</svg>
