<?xml version="1.0" encoding="UTF-8" standalone="no"?>
<svg width="100px" height="18px" viewBox="0 0 100 18" version="1.1" xmlns="http://www.w3.org/2000/svg" xmlns:xlink="http://www.w3.org/1999/xlink" xmlns:sketch="http://www.bohemiancoding.com/sketch/ns">
    <!-- Generator: Sketch 3.4.4 (17249) - http://www.bohemiancoding.com/sketch -->
    <title>logo</title>
    <desc>Created with Sketch.</desc>
    <defs></defs>
    <g id="Page-1" stroke="none" stroke-width="1" fill="none" fill-rule="evenodd" sketch:type="MSPage">
        <g id="12-Partners" sketch:type="MSArtboardGroup" transform="translate(-485.000000, -3791.000000)" fill="#FFFFFF">
            <g id="Beeline" sketch:type="MSLayerGroup" transform="translate(485.000000, 3750.000000)">
                <g id="logo" sketch:type="MSShapeGroup">
                    <path d="M0.00855217092,46.9459459 L6.9951413,46.9459459 L6.99781385,48.3567568 C6.99781385,48.3567568 8.19565229,46.5572973 10.9964883,46.5572973 C14.3580259,46.5572973 14.7824274,48.3681081 15.1159621,48.5902703 C15.4569799,48.2232432 16.1817764,46.4902703 19.5983687,46.4902703 C23.6959276,46.4902703 23.5200735,49.5567568 23.5200735,50.1897297 C23.5200735,50.5789189 23.5200735,54.2448649 23.517401,55.3227027 C23.5200735,56.2443243 24.0241171,56.3891892 24.4100338,56.3891892 L25.5827503,56.3891892 L25.5827503,58.6772973 L17.5084319,58.6772973 L17.5111045,56.367027 C17.5111045,56.367027 18.763463,56.2891892 18.7607904,55.3227027 C18.7581179,54.5113514 18.7746877,50.2897297 18.7746877,50.2897297 C18.7746877,50.2897297 18.8046203,48.9691892 17.1267913,48.9789189 C15.2479862,48.9902703 15.1929316,50.9005405 15.1929316,50.9005405 C15.1929316,50.9005405 15.188121,54.2562162 15.1902591,55.3227027 C15.1929316,56.4886486 16.3437331,56.3891892 16.3437331,56.3891892 L16.3464057,58.7108108 L9.28017446,58.6772973 L9.28284702,56.3891892 C9.28284702,56.3891892 10.4363211,56.4 10.4363211,55.2891892 L10.4363211,50.1897297 C10.4363211,50.1897297 10.3374366,48.9902703 8.84347924,48.9902703 C7.20627302,48.9902703 6.97322636,50.6232432 6.97322636,50.6232432 C6.97322636,50.6232432 6.97589891,54.2562162 6.97589891,55.3227027 C6.97589891,56.3891892 8.14059769,56.4113514 8.14059769,56.4113514 L8.1512879,58.7108108 L0,58.6772973 L0,56.3891892 L0.978154548,56.3891892 C0.978154548,56.3891892 2.16423375,56.467027 2.16423375,55.3005405 L2.16423375,50.1897297 C2.16423375,49.3891892 1.15347405,49.2956757 1.15347405,49.2956757 L0,49.2843243 L0.00855217092,46.9459459 Z M32.5725465,46.4681081 C38.6579506,46.4681081 38.8546505,51.6567568 38.8322011,53.4891892 L30.6595327,53.4891892 C30.6376178,55.3227027 31.2758235,56.5113514 32.9675499,56.5113514 C34.8570451,56.5113514 35.2953439,54.6227027 35.2953439,54.6227027 L38.5911367,54.6227027 C38.5911367,54.6227027 37.4055921,59 32.2865832,59 C26.3107538,59 25.6746861,54.4448649 25.6736171,52.9335135 C25.6720136,51.4232432 26.4860733,46.4681081 32.5725465,46.4681081 Z M34.2626692,50.6232432 L34.2845842,51.4232432 L30.5937879,51.4232432 L30.6595327,50.6232432 C30.6595327,50.6232432 30.9684799,48.9345946 32.5281821,48.9345946 C34.0884188,48.9345946 34.2626692,50.6232432 34.2626692,50.6232432 Z M39.2320151,46.9124324 L46.2191387,46.9124324 L46.2212767,48.3237838 C46.2212767,48.3237838 47.1470492,46.5140541 50.2204857,46.5237838 C54.4853464,46.5140541 54.5072613,48.7362162 54.5072613,49.2691892 C54.5072613,49.8918919 54.5045888,54.2681081 54.5072613,55.3351351 C54.5099339,56.5010811 56.7265497,56.3891892 56.7265497,56.3891892 L56.7265497,58.6772973 L48.509517,58.6772973 L48.5068444,56.3556757 C48.5068444,56.3556757 49.8057054,56.4459459 49.8057054,55.3351351 C49.8057054,54.2237838 49.8046363,50.28 49.8046363,50.28 C49.8046363,50.28 49.7175111,48.9556757 48.0674766,48.9567568 C46.4660826,48.9578378 46.0267148,50.3578378 45.9604355,50.78 L45.9604355,55.3351351 C45.9604355,56.4021622 47.4768423,56.3891892 47.4768423,56.3891892 L47.4779113,58.6789189 L39.2154452,58.6772973 L39.2239974,56.3556757 L40.2016174,56.3556757 C40.2016174,56.3556757 41.3882311,56.4335135 41.3882311,55.267027 L41.3882311,50.1567568 C41.3882311,49.3562162 40.3774714,49.2621622 40.3774714,49.2621622 L39.2239974,49.2513514 L39.2320151,46.9124324 Z M59.6733071,42.2913514 L62.8044706,42.2913514 L62.8044706,46.8864865 L66.099729,46.8875676 L66.099729,49.1524324 L62.8044706,49.1540541 L62.8044706,55.0059459 C62.8044706,55.4378378 62.9193904,56.3891892 63.8355418,56.3891892 C64.5603382,56.3891892 64.7565037,55.6 64.7800221,55.3227027 C64.8035406,55.0443243 64.7896433,52.6897297 64.7896433,52.6897297 L67.1703539,52.6897297 C67.1703539,52.6897297 67.173561,52.8005405 67.1751645,55.3227027 C67.1751645,57.5772973 65.3086532,58.8859459 62.8044706,58.8875676 C60.2997536,58.8886486 58.0361009,57.7762162 58.0361009,55.3227027 L58.0361009,49.2443243 L55.6858574,49.2443243 L55.6858574,46.9459459 C57.2236446,46.8459459 59.4204835,45.7572973 59.6733071,42.2913514 Z M75.0859226,46.2448649 C81.3696302,46.2459459 82.33656,50.5340541 82.33656,52.3562162 C82.33656,54.1783784 81.5690027,58.6772973 75.0859226,58.6772973 C68.6028425,58.6772973 67.7695404,54.3335135 67.7914553,52.3562162 C67.8139048,50.3789189 68.802215,46.2432432 75.0859226,46.2448649 Z M75.0859226,48.4886486 C77.3928707,48.4902703 77.1924292,51.6897297 77.1934982,52.6897297 C77.1945672,53.6897297 77.2405352,56.3891892 75.0859226,56.3891892 C72.93131,56.3891892 72.9521559,54.1562162 72.93131,52.6897297 C72.9109986,51.2232432 72.7789745,48.4875676 75.0859226,48.4886486 Z M89.1253802,46.0908108 C91.6739271,46.0908108 93.1897994,47.0016216 93.1897994,47.0016216 L93.4100178,46.4351351 L95.6287716,46.4210811 L95.6287716,50.5313514 L93.3656534,50.5340541 C93.3656534,50.5340541 92.8605408,48.4010811 89.7625169,48.4010811 C89.7625169,48.4010811 88.0488757,48.4010811 88.0488757,49.2010811 C88.0488757,50.8010811 96.1563337,50.0897297 96.1563337,54.4448649 C96.1563337,57.0221622 93.869697,58.6772973 90.5739041,58.6772973 C87.2781113,58.6772973 85.9610769,57.3443243 85.9610769,57.3443243 L85.5660735,58.3664865 L83.2810404,58.3540541 L83.2810404,53.9324324 L85.5660735,53.9340541 C87.2797148,57.1113514 91.4766927,56.6221622 91.4766927,55.5113514 C91.4766927,53.8448649 83.1051864,54.5113514 83.1041173,50.1897297 C83.1030483,47.1010811 86.5768332,46.0908108 89.1253802,46.0908108 Z M96.2637703,42.8594595 C96.2637703,41.7891892 97.1221945,41 98.1366958,41 C99.1415758,41 100,41.7891892 100,42.8594595 C100,43.94 99.1415758,44.7291892 98.1366958,44.7291892 C97.1221945,44.7291892 96.2637703,43.94 96.2637703,42.8594595 Z M98.1366958,44.4183784 C98.9710669,44.4183784 99.6295841,43.7572973 99.6295841,42.8594595 C99.6295841,41.9762162 98.9710669,41.3102703 98.1366958,41.3102703 C97.2927034,41.3102703 96.6341862,41.9762162 96.6341862,42.8594595 C96.6341862,43.7572973 97.2927034,44.4183784 98.1366958,44.4183784 L98.1366958,44.4183784 Z M97.746503,43.94 L97.424193,43.94 L97.424193,41.7891892 L98.2345112,41.7891892 C98.7369513,41.7891892 98.9854987,41.9762162 98.9854987,42.4005405 C98.9854987,42.7854054 98.7465725,42.952973 98.4338837,42.9924324 L99.0389498,43.94 L98.6781551,43.94 L98.1169189,43.0075676 L97.746503,43.0075676 L97.746503,43.94 L97.746503,43.94 Z M98.1313507,42.7308108 C98.4050201,42.7308108 98.648757,42.7113514 98.648757,42.3810811 C98.648757,42.1145946 98.4098307,42.0648649 98.1858707,42.0648649 L97.746503,42.0648649 L97.746503,42.7308108 L98.1313507,42.7308108 L98.1313507,42.7308108 Z" id="Mentos"></path>
                </g>
            </g>
        </g>
    </g>
</svg>