<?xml version="1.0" encoding="UTF-8" standalone="no"?>
<svg width="100px" height="21px" viewBox="0 0 100 21" version="1.1" xmlns="http://www.w3.org/2000/svg" xmlns:xlink="http://www.w3.org/1999/xlink" xmlns:sketch="http://www.bohemiancoding.com/sketch/ns">
    <!-- Generator: Sketch 3.4.4 (17249) - http://www.bohemiancoding.com/sketch -->
    <title>Logo</title>
    <desc>Created with Sketch.</desc>
    <defs></defs>
    <g id="Page-1" stroke="none" stroke-width="1" fill="none" fill-rule="evenodd" sketch:type="MSPage">
        <g id="12-Partners" sketch:type="MSArtboardGroup" transform="translate(-485.000000, -4624.000000)" fill="#FFFFFF">
            <g id="AXE" sketch:type="MSLayerGroup" transform="translate(485.000000, 4584.000000)">
                <g id="Logo" sketch:type="MSShapeGroup">
                    <path d="M90.2867362,49.2841395 C90.1650831,51.3338845 88.3402878,51.6956042 88.3402878,51.6956042 L68.6327417,51.6956042 L68.6327417,55.9759543 C68.9977008,58.0256993 71.0658021,58.1855794 71.0658021,58.1855794 L91.7465724,58.1855794 L91.803506,60.9194571 L68.5952726,60.9194571 C68.5952726,60.9194571 64.9203781,60.9194571 64.394837,57.7524804 L64.394837,43.1672179 C64.9203781,40 68.5952726,40 68.5952726,40 L91.803506,40 L91.7465724,42.7341188 L71.0658021,42.7341188 C71.0658021,42.7341188 68.9977008,42.8937578 68.6327417,44.9435028 L68.6327417,49.2238528 L90.2867362,49.2841395 Z M24.5739103,40 L2.91967251,40 C0,40.4022323 0,43.2154472 0,43.2154472 L0,60.9797437 L4.35907106,61 L4.29824455,54.2276423 L23.6006861,54.2276423 L23.6006861,60.9797437 L27.6558679,60.9797437 L27.6558679,43.8583437 C27.4935828,40.2411465 24.5739103,40 24.5739103,40 Z M23.438401,44.0194295 L23.438401,51.4144274 L4.21722363,51.4144274 L4.21722363,44.0194295 C4.21722363,44.0194295 4.0549385,42.6526113 6.24469289,42.6526113 L21.4109317,42.6526113 C23.6006861,42.6526113 23.438401,44.0194295 23.438401,44.0194295 Z M60.4211628,60.9194571 L48.9103539,49.8616853 L59.2046325,40 L54.6426443,40 L46.6439581,47.6843737 L38.645272,40 L34.0832837,40 L44.377319,49.8616853 L32.8667534,60.9194571 L37.3679152,60.9194571 L46.6439581,52.0332093 L55.920001,60.9194571 L60.4211628,60.9194571 Z M97.2666999,55.1319416 C97.7348207,55.1319416 98.1844503,55.2484153 98.6153453,55.4801571 C99.0457537,55.7126223 99.384679,56.0461279 99.6306614,56.4794681 C99.8766438,56.9137729 100,57.3676106 100,57.8412223 C100,58.3131459 99.8790769,58.762643 99.6382039,59.190678 C99.3963577,59.6179895 99.0593788,59.9522185 98.6279972,60.191677 C98.1963723,60.430412 97.7421199,60.5502618 97.2666999,60.5502618 C96.7903067,60.5502618 96.3367842,60.430412 95.9051593,60.191677 C95.4737777,59.9522185 95.1367988,59.6179895 94.8951959,59.190678 C94.6540796,58.762643 94.5331565,58.3131459 94.5331565,57.8412223 C94.5331565,57.3676106 94.6565127,56.9137729 94.9024951,56.4794681 C95.1487208,56.0461279 95.4869162,55.7126223 95.9180545,55.4801571 C96.3482196,55.2484153 96.7978492,55.1319416 97.2666999,55.1319416 Z M97.2649968,55.6701805 C96.8898189,55.6701805 96.5299692,55.7627808 96.1859345,55.9484636 C95.842143,56.1339052 95.5715867,56.4003721 95.373049,56.7483464 C95.1749979,57.0953562 95.0762156,57.458764 95.0762156,57.8395342 C95.0762156,58.2174108 95.1723215,58.5774425 95.3659931,58.9205939 C95.5594214,59.2630219 95.8294911,59.5306945 96.1759589,59.7233705 C96.5224267,59.9162877 96.8849527,60.012264 97.2649968,60.012264 C97.6462573,60.012264 98.0107298,59.9162877 98.3559811,59.7233705 C98.7012323,59.5306945 98.9705721,59.2630219 99.1654603,58.9205939 C99.3593752,58.5774425 99.4571842,58.2174108 99.4571842,57.8395342 C99.4571842,57.458764 99.3581587,57.0953562 99.1601075,56.7483464 C98.9615698,56.4003721 98.6902836,56.1339052 98.3450323,55.9484636 C97.999781,55.7627808 97.6401747,55.6701805 97.2649968,55.6701805 L97.2649968,55.6701805 Z M96.0380044,59.2760438 L96.0380044,56.4254513 L96.6224255,56.4254513 C97.1703507,56.4254513 97.4769163,56.4278628 97.542609,56.4324445 C97.7362806,56.4488425 97.886887,56.4867025 97.994185,56.5462657 C98.1017263,56.6058289 98.1915062,56.6972234 98.2630382,56.8199669 C98.3357867,56.9427105 98.3715527,57.0789582 98.3715527,57.2284691 C98.3715527,57.4339259 98.3039136,57.6099628 98.169122,57.7560976 C98.0343305,57.9019912 97.8450384,57.9929034 97.6012457,58.0273874 C97.6893225,58.0606656 97.7572049,58.0961141 97.8046496,58.1351798 C97.8523376,58.173281 97.9177869,58.2465895 98.0009976,58.3538997 C98.0224085,58.3816315 98.0941838,58.4978641 98.2155935,58.7009095 L98.5428401,59.2760438 L97.8095157,59.2760438 L97.5764285,58.8132837 C97.4190095,58.5024459 97.2873809,58.3073584 97.1822727,58.2265743 C97.075948,58.1455491 96.9421297,58.10576 96.7798445,58.10576 L96.6285082,58.10576 L96.6285082,59.2760438 L96.0380044,59.2760438 L96.0380044,59.2760438 Z M96.6285082,57.6524046 L96.8623253,57.6524046 C97.1954112,57.6524046 97.4024647,57.6393827 97.4825124,57.6138211 C97.5630467,57.5887419 97.6263062,57.5438887 97.6727777,57.4799848 C97.7197358,57.416081 97.7430931,57.3430136 97.7430931,57.2619884 C97.7430931,57.1826512 97.7202224,57.1124776 97.6747242,57.0509853 C97.6292259,56.9894929 97.5649931,56.9456042 97.4810525,56.9183547 C97.397112,56.8918286 97.1910317,56.8783244 96.8623253,56.8783244 L96.6285082,56.8783244 L96.6285082,57.6524046 L96.6285082,57.6524046 Z" id="AXE"></path>
                </g>
            </g>
        </g>
    </g>
</svg>