<?xml version="1.0" encoding="UTF-8" standalone="no"?>
<svg width="100px" height="21px" viewBox="0 0 100 21" version="1.1" xmlns="http://www.w3.org/2000/svg" xmlns:xlink="http://www.w3.org/1999/xlink" xmlns:sketch="http://www.bohemiancoding.com/sketch/ns">
    <!-- Generator: Sketch 3.4.4 (17249) - http://www.bohemiancoding.com/sketch -->
    <title>Logo</title>
    <desc>Created with Sketch.</desc>
    <defs></defs>
    <g id="Page-1" stroke="none" stroke-width="1" fill="none" fill-rule="evenodd" sketch:type="MSPage">
        <g id="12-Partners" sketch:type="MSArtboardGroup" transform="translate(-485.000000, -3176.000000)" fill="#FFFFFF">
            <g id="Alfa-insurance" sketch:type="MSLayerGroup" transform="translate(485.000000, 3136.000000)">
                <g id="Logo" sketch:type="MSShapeGroup">
                    <path d="M0,50.3461963 C0,44.6321499 4.6290807,40 10.3421462,40 C16.0539558,40 20.6842924,44.6345363 20.6842924,50.3461963 L20.6842924,50.6538037 C20.6842924,56.3678501 16.0552117,61 10.3421462,61 C4.63033657,61 0,56.3654637 0,50.6538037 L0,50.3461963 Z M13.6808398,54.8450263 C13.3390047,55.1327105 12.9484914,55.4357895 12.586283,55.7703684 C9.83674961,58.3100263 5.23527216,57.4655263 3.55121306,54.0973158 C2.46808709,51.9310789 2.38760498,49.7066579 3.2911042,47.4636053 C4.4103888,44.6849737 7.49351477,43.1320789 10.2321617,43.9554211 C11.5103888,44.3397368 12.3718196,45.2422632 13.0203421,46.3845526 C13.0709642,46.4737632 13.122986,46.5621842 13.2374495,46.7599474 C13.3246967,46.3908684 13.3938258,46.1233947 13.450591,45.8532368 C13.5586781,45.3388947 13.6447589,44.8191842 13.7741524,44.3106842 C13.806423,44.1836579 13.9667652,43.9988421 14.0715863,43.9965526 C15.0815397,43.9743684 16.0921928,43.9851842 17.1026905,43.9891316 C17.1374495,43.9892895 17.1721306,44.0168421 17.2574339,44.0531579 C17.1381493,44.5009474 17.0236858,44.9531579 16.8970918,45.4018158 C16.2662208,47.6383947 15.6311509,49.8737105 14.9997356,52.1101316 C14.8477916,52.6485526 15.3839502,53.6758947 15.9096112,53.8651316 C16.3308398,54.0167105 16.6475583,53.8712895 16.7783515,53.4051053 C16.8515241,53.1444211 16.9790513,53.0704474 17.2183204,53.0804737 C17.5030016,53.0922368 17.7908709,53.0645263 18.0720529,53.0986316 C18.1720529,53.1107895 18.3413375,53.2608684 18.3352722,53.3361842 C18.2715863,54.1313421 18.2551011,54.9426842 18.0728305,55.7122632 C17.8858942,56.5015 17.2875272,56.9581316 16.4803733,57.0797105 C15.650902,57.2046842 14.9490358,56.9266316 14.4606221,56.2552632 C14.1200311,55.7871842 13.8917263,55.2348684 13.6808398,54.8450263 Z M6.33052877,50.4737895 C6.3907154,51.1138947 6.42524106,51.7580263 6.51995334,52.3928421 C6.58534992,52.8315526 6.70432348,53.2682895 6.85237947,53.6865526 C7.06062208,54.2747895 7.37438569,54.8085526 7.90432348,55.1632632 C9.02026439,55.9102632 10.4529238,55.5868947 11.1342613,54.3115 C11.5844946,53.4688158 11.848647,52.5175789 12.1425816,51.5972895 C12.3004355,51.1031579 12.4881493,50.5491842 12.4128771,50.0618421 C12.2284292,48.8665789 11.8638103,47.7055 11.1737636,46.6892895 C10.0732193,45.0685 8.10945568,45.1493421 7.14273717,46.8520789 C6.50650078,47.9725789 6.37648523,49.2081053 6.33052877,50.4737895 Z M100,58.3991737 C99.781804,58.3851211 99.5637636,58.3594632 99.3455677,58.3587526 C97.8829705,58.3544895 96.420451,58.3587526 94.9579316,58.3529895 C94.4322706,58.3508579 94.3206843,58.2356737 94.3193624,57.7000158 C94.3153966,55.9786474 94.3151633,54.2572789 94.3191291,52.5358316 C94.320451,51.9978053 94.4563764,51.8618579 94.9915241,51.8594105 C96.661042,51.8517526 98.3304821,51.8503316 100,51.8465421 L100,52.1623316 C99.9524106,52.2818579 99.8919129,52.3979105 99.8593313,52.5214632 C99.7037325,53.1111211 99.6096423,53.1890421 98.9939347,53.1905421 C98.2427683,53.1923579 97.4914463,53.1843053 96.7403577,53.1917263 C95.6506998,53.2023053 95.8543546,53.0504895 95.816563,54.1339632 C95.8049767,54.4669632 95.948367,54.5307526 96.2323484,54.5266474 C97.061042,54.5148053 97.8901244,54.5223842 98.7190513,54.5223842 C99.5486781,54.5223842 99.5383359,54.5223053 99.5324261,55.3622263 C99.5304821,55.6347526 99.4485226,55.7303579 99.1766719,55.7257789 C98.3479782,55.7118053 97.518818,55.7124368 96.6900467,55.7218316 C95.6961897,55.7330421 95.8448678,55.5577 95.8175739,56.6344632 C95.809098,56.9666737 95.9261275,57.0625947 96.2440124,57.0569895 C97.2151633,57.0397 98.1868585,57.0577 99.1580871,57.0472 C99.5100311,57.0434895 99.7182737,57.1874105 99.8078538,57.5338316 C99.8562986,57.7211737 99.9349922,57.9004632 100,58.0833842 L100,58.3991737 Z M52.2429782,47.7278974 C53.6792924,47.9648974 54.4467885,47.3063184 54.4411897,45.89695 C54.4410342,45.8575553 54.4393235,45.8180816 54.4380793,45.7786868 C54.4004432,44.5600553 53.6758709,43.9167132 52.483647,44.0610289 C52.3960886,44.0716079 52.2543313,44.2032921 52.2532426,44.2802658 C52.2383126,45.4220816 52.2429782,46.5642921 52.2429782,47.7278974 Z M50.7020762,45.9368184 C50.7020762,45.4111079 50.7109409,44.8850816 50.6943779,44.3599237 C50.691112,44.2580026 50.6081415,44.0936342 50.5287481,44.0693184 C49.6978771,43.8141605 48.73979,44.3590553 48.5789813,45.2332395 C48.2766485,46.8758974 48.8328694,47.86345 50.4107076,47.7807921 C50.6240824,47.7695816 50.7103188,47.6949763 50.7061975,47.4743974 C50.696633,46.9620289 50.7031649,46.4493447 50.7020762,45.9368184 M52.2846579,49.1604763 C52.1677838,49.8953184 52.0965552,49.9552395 51.4142068,49.9561079 C51.3235381,49.9561868 51.2313919,49.9450553 51.1425894,49.9576868 C50.8129627,50.0044237 50.6477216,49.8890026 50.7023095,49.5292395 C50.7481104,49.22695 50.6029316,49.1462658 50.3222939,49.1599237 C49.3946112,49.2049237 48.5494323,48.9822132 47.8640513,48.3039763 C47.0009876,47.4500816 46.7053421,45.8110553 47.1900233,44.5892658 C47.6752488,43.3660553 48.6753266,42.6967395 50.0443779,42.6791342 C50.1609409,42.6776342 50.2778927,42.6695026 50.3939114,42.6765289 C50.5970218,42.6888447 50.6932893,42.6191342 50.713507,42.3923974 C50.7436781,42.0537132 50.9452333,41.8865026 51.2940669,41.90245 C51.5889347,41.91595 51.8849689,41.9052921 52.211874,41.9052921 C52.232014,42.1676342 52.2496656,42.3960289 52.270972,42.67195 C53.4494323,42.6226079 54.5472551,42.7995289 55.3156065,43.8085553 C55.8286703,44.4823711 56.0124184,45.2740553 55.9663064,46.1093974 C55.9137403,47.0622921 55.6019207,47.9106605 54.8313919,48.5210026 C54.0848911,49.1123184 53.2044868,49.2126605 52.2846579,49.1604763 Z M68.1414308,53.1659026 L68.1414308,53.1629026 C67.9602488,53.1629026 67.7789891,53.1589553 67.5979627,53.1636132 C66.4760342,53.1925079 66.6478849,52.9382974 66.6321773,54.2157447 C66.6291446,54.4625342 66.7416641,54.53185 66.9639813,54.5297184 C67.7404199,54.5222974 68.517014,54.5316921 69.293297,54.5219816 C69.7146034,54.5166132 69.9852877,54.2305079 69.9759565,53.83285 C69.9667807,53.4452184 69.7083048,53.1794816 69.3060498,53.1682711 C68.9181026,53.1573763 68.5296112,53.1659026 68.1414308,53.1659026 Z M68.1781337,57.0605342 C68.5798445,57.0605342 68.981633,57.0637711 69.3833437,57.0596658 C69.8566719,57.05485 70.0719907,56.8526658 70.0824883,56.4131658 C70.0931415,55.9670342 69.8522395,55.7207974 69.3800778,55.7155079 C68.7840435,55.7087184 68.1878538,55.7136921 67.5917418,55.7136921 C66.5551166,55.7136132 66.5607154,55.7132974 66.6287558,56.7672447 C66.6429082,56.9869553 66.7206687,57.0687447 66.9341213,57.0637711 C67.3485848,57.0541395 67.763437,57.0609289 68.1781337,57.0605342 M65.1535614,55.1065868 C65.1536392,54.2394289 65.1496734,53.3722711 65.1552722,52.5051921 C65.1583048,52.0282711 65.3148367,51.8643763 65.7868429,51.8616921 C66.9902644,51.8548237 68.1941524,51.8411658 69.3971851,51.8642184 C70.6366096,51.8879816 71.4978849,52.7230868 71.4430638,53.8544026 C71.428056,54.1663237 71.2845101,54.4825079 71.1516174,54.7739816 C71.068647,54.9559553 71.0463297,55.0564553 71.1995956,55.2126132 C71.7663142,55.7902711 71.7720684,56.4941658 71.5055054,57.1905605 C71.2411975,57.8808763 70.6961742,58.3052974 69.9604821,58.3255079 C68.5252566,58.3650605 67.0884759,58.34935 65.6523173,58.3501395 C65.2632037,58.3503763 65.1512286,58.0967184 65.1524728,57.7473763 C65.1555832,56.8671132 65.1534059,55.98685 65.1535614,55.1065868 Z M88.5213686,51.8580605 L88.5213686,56.0425079 C88.5555054,56.0553763 88.5897978,56.0682447 88.6240124,56.0811132 C88.8763453,55.7286921 89.1326439,55.3791921 89.3802333,55.0232974 C89.9476516,54.2076132 90.5279005,53.4004553 91.0692691,52.5672447 C91.4033281,52.0532184 91.8279005,51.8027974 92.4333437,51.8542711 C92.6509176,51.8727447 92.8713686,51.8571921 93.1277449,51.8571921 L93.1277449,58.3461132 C92.7028616,58.3461132 92.2685692,58.3652974 91.8390202,58.3278763 C91.7646034,58.3214026 91.6572162,58.0761132 91.6551944,57.9397711 C91.6386314,56.8224289 91.6439969,55.7046921 91.6409642,54.5871132 C91.6405754,54.4585868 91.6290669,54.3300605 91.6168585,54.0805079 C91.4674028,54.2684026 91.3789891,54.3677974 91.3034059,54.4762711 C90.5334215,55.5809816 89.7560498,56.6806395 89.0022395,57.7967184 C88.7415086,58.1826132 88.4163919,58.3552711 87.9628149,58.3594553 C86.9908087,58.3682184 86.9916641,58.3772974 86.9921306,57.4096395 C86.9928305,55.7134553 87.0005288,54.0172711 86.9860653,52.3212447 C86.9831104,51.9696132 87.068958,51.8156658 87.4408087,51.8514289 C87.7716796,51.8831658 88.1078383,51.8580605 88.5213686,51.8580605 Z M60.9099378,53.0187211 C59.7035614,53.0021421 58.9850544,53.7564053 58.9604821,55.0652737 C58.9355988,56.3855895 59.6346656,57.2046684 60.8027061,57.2238526 C62.0545723,57.2443789 62.7744012,56.4898 62.7947745,55.1355368 C62.8143701,53.8377211 62.0996734,53.0350632 60.9099378,53.0187211 Z M60.9661586,51.7351158 C62.0360653,51.6772474 63.0409642,51.9959579 63.7378538,52.9526421 C64.5590824,54.0797737 64.6512286,55.3348789 64.1275117,56.6128 C63.6440747,57.7922737 62.7023173,58.3738 61.4761897,58.4996421 C60.5884759,58.5907474 59.7060498,58.5547474 58.9140591,58.0813 C57.6866096,57.3475632 57.2506065,56.1901947 57.3395645,54.8046684 C57.4506065,53.0746158 58.6766563,51.6214316 60.9661586,51.7351158 Z M29.9757621,46.3535263 C29.8305832,45.6966842 29.7184526,45.1069474 29.5658087,44.5283421 C29.4675194,44.1561053 29.2002566,43.9228947 28.8101322,43.8955 C28.4827605,43.8725263 28.1375816,43.9603947 28.027084,44.2859737 C27.8032893,44.9453421 27.6529005,45.6303684 27.4591991,46.3535263 L29.9757621,46.3535263 Z M32.1027449,49.1559211 C31.7154977,49.1559211 31.3284059,49.2174211 30.9759176,49.1318421 C30.7787947,49.0839211 30.5562442,48.8192895 30.4882037,48.6054211 C30.2048445,47.7145789 30.2248289,47.7081842 29.2942691,47.7082632 C28.7112208,47.7082632 28.1279393,47.7155263 27.5451244,47.7034474 C27.2996345,47.6983947 27.1703966,47.7677105 27.1229627,48.0369211 C26.8920918,49.3485526 26.6980016,49.1516579 25.6419362,49.1635 C25.555,49.1645263 25.4678305,49.1430526 25.3427916,49.1271842 C25.456633,48.5938947 25.562776,48.0817632 25.675451,47.5710526 C25.9244401,46.4427368 26.16021,45.3111053 26.4327605,44.1887105 C26.6677527,43.2208158 27.3629316,42.6352632 28.3376594,42.5464474 C29.1908476,42.4687632 30.0536003,42.5185 30.5896034,43.2900526 C30.8971462,43.7327105 31.0529782,44.3081579 31.1856376,44.8470526 C31.5149533,46.1850526 31.792325,47.5361579 32.0880482,48.8826053 C32.1043779,48.9569737 32.0969907,49.0366316 32.1027449,49.1559211 Z M58.246944,46.3389921 L60.746633,46.3389921 C60.6030871,45.7011763 60.4868351,45.1124658 60.3344246,44.5336237 C60.2312364,44.1415711 59.9534759,43.91215 59.5447667,43.8936763 C59.1936781,43.8778868 58.8680171,44.0101237 58.7594635,44.3525184 C58.556353,44.9928605 58.419339,45.6548342 58.246944,46.3389921 Z M62.8720607,49.1589921 C62.4754821,49.1589921 62.1269596,49.1762026 61.7808476,49.1540974 C61.4422006,49.1324658 61.3061198,48.8724921 61.2267263,48.5770711 C60.9934448,47.7085711 60.9943002,47.7083342 60.109619,47.7082553 C59.513507,47.7082553 58.9173173,47.7150447 58.3214386,47.7046237 C58.0813142,47.7005184 57.9471773,47.7572026 57.8954666,48.0317816 C57.6475661,49.3508342 57.4965552,49.1525974 56.4179393,49.1649132 C56.3297589,49.1659395 56.2413453,49.1511763 56.1058865,49.1398079 C56.2864463,48.3122816 56.459619,47.5083605 56.637846,46.7055447 C56.8312364,45.8341237 57.0086081,44.9583605 57.2318585,44.0948342 C57.4275039,43.3382816 57.9275816,42.8552026 58.671283,42.6309132 C59.8775816,42.2670447 61.1782037,42.6863342 61.6130404,43.6637026 C61.8441446,44.1830184 61.9415008,44.7673079 62.0695723,45.3291763 C62.3352022,46.4939658 62.5815474,47.6633342 62.8337247,48.8312026 C62.8526205,48.9187553 62.8551866,49.0099395 62.8720607,49.1589921 Z M76.7736081,55.5569895 C76.597014,54.8577526 76.4595334,54.1849632 76.2495023,53.5364105 C76.1468585,53.2197526 75.834028,53.0917 75.491182,53.0990421 C75.1466252,53.1063053 74.8553344,53.2540158 74.756112,53.5757263 C74.5614774,54.2062 74.4279627,54.8560947 74.2545568,55.5569895 L76.7736081,55.5569895 Z M72.1173095,58.3259105 C72.4206532,56.9406211 72.7113997,55.6080684 73.0051011,54.2762263 C73.0815397,53.9300421 73.1472473,53.5794368 73.2531571,53.2422526 C73.4718196,52.5454632 73.9209642,52.0270158 74.6244635,51.8654105 C75.1186314,51.7519632 75.6576672,51.7282 76.1607776,51.7924632 C77.0108554,51.9010158 77.5779627,52.4373842 77.7828616,53.2839368 C78.1162986,54.6612526 78.4071229,56.0493053 78.7157543,57.4328579 C78.7783515,57.7136737 78.8400156,57.9947263 78.9129549,58.3248053 C78.4758631,58.3248053 78.0596112,58.3752526 77.6664541,58.3004895 C77.5037014,58.2695421 77.3264075,57.9906211 77.2653655,57.7900158 C76.9979471,56.9107789 77.0124883,56.9062 76.1030793,56.9060421 C75.5069673,56.9059632 74.9104666,56.9177263 74.3148212,56.9008316 C74.0544012,56.8934105 73.9316174,56.9973053 73.8960809,57.2456737 C73.7180871,58.4909895 73.4990358,58.3515684 72.4508243,58.3563842 C72.3630327,58.3567789 72.2751633,58.3409105 72.1173095,58.3259105 Z M48.4149456,55.5926421 C48.2576361,54.9189842 48.1380404,54.3295632 47.9791757,53.7514316 C47.8539036,53.2959842 47.5494712,53.0884316 47.1223328,53.0983789 C46.7226439,53.1076158 46.4214774,53.3319842 46.3077138,53.7616158 C46.1734992,54.2688526 46.0626128,54.7834316 45.9700778,55.3001421 C45.95507,55.3836684 46.0854743,55.5778789 46.1525816,55.5798526 C46.873577,55.6004579 47.5953499,55.5926421 48.4149456,55.5926421 Z M43.7469829,58.3283263 C43.8905288,57.6852211 44.0265319,57.0870368 44.1574806,56.4877474 C44.3730327,55.5010632 44.5727216,54.5106684 44.8021928,53.5273789 C45.0642457,52.4045895 45.7802644,51.8142211 46.9203888,51.7422211 C48.2115241,51.6606684 48.9894401,52.1024579 49.3841524,53.1414842 C49.3981493,53.1781947 49.4185226,53.2133263 49.4269984,53.2512211 C49.7994712,54.9264842 50.1708554,56.6019053 50.551804,58.3196421 C50.1071695,58.3196421 49.6909176,58.3751421 49.3023484,58.2941421 C49.1318196,58.2586158 48.9506376,57.9648526 48.8895179,57.7539053 C48.6454277,56.9110632 48.662224,56.9060105 47.7828305,56.9060105 C47.1743546,56.9060105 46.5655677,56.9170632 45.9574806,56.9008 C45.7035925,56.8940105 45.5798756,56.9787211 45.5328305,57.2353789 C45.3179782,58.4073526 45.2988491,58.3629842 44.0966719,58.3532737 C44.0077138,58.3525632 43.9188336,58.3409579 43.7469829,58.3283263 Z M40.4340902,53.2837789 L40.4340902,53.2792 C40.1235148,53.2792 39.8124728,53.2893053 39.5024417,53.2760421 C39.2434992,53.2649895 39.1215708,53.3525421 39.1317574,53.6346211 C39.147776,54.0808316 39.1483981,54.5282263 39.1361897,54.9745947 C39.1293468,55.2226474 39.241944,55.2964632 39.4617729,55.2945684 C40.095832,55.2891211 40.730591,55.3067263 41.3639502,55.2845421 C41.9410109,55.2644105 42.2928771,54.8675421 42.293888,54.2888579 C42.2949767,53.7139632 41.938056,53.3192263 41.365661,53.2869368 C41.0560964,53.2694105 40.7446656,53.2837789 40.4340902,53.2837789 Z M37.6295023,55.2185421 C37.6295023,54.2982526 37.6357232,53.3778842 37.6263142,52.4576737 C37.6227372,52.1081737 37.7678383,51.8710158 38.1072628,51.8711737 C39.3748367,51.8717263 40.6476205,51.8358842 41.9081182,51.9408842 C42.9928771,52.0312 43.8460653,53.1727 43.8152722,54.2820684 C43.7780249,55.6259895 43.0602955,56.5342789 41.8461431,56.6600421 C41.0766252,56.7397789 40.2954432,56.7168053 39.519549,56.7135684 C39.2349456,56.7123842 39.1186936,56.7946474 39.1371229,57.0919632 C39.1557854,57.3930684 39.1267807,57.6970947 39.1424883,57.9985947 C39.1570295,58.2781474 39.0393002,58.3538579 38.7772473,58.3599368 C37.6270918,58.3865421 37.6272473,58.3936474 37.6272473,57.2299632 L37.6272473,55.2185421 L37.6295023,55.2185421 Z M43.0342068,45.7615395 L43.0342068,45.7598026 C42.6855288,45.7598026 42.3366174,45.76525 41.9880949,45.7576711 C41.7913608,45.7533289 41.7060575,45.8358289 41.7083904,46.0354079 C41.7141446,46.5205395 41.6996034,47.0064605 41.7261975,47.4901711 C41.7312519,47.5838026 41.8842068,47.7435921 41.9723095,47.7459605 C42.6690435,47.7648289 43.3681882,47.7810921 44.063367,47.7410658 C44.574409,47.7116184 44.9155443,47.2204868 44.8752644,46.6804868 C44.8327294,46.1099342 44.5047356,45.7755921 43.9641446,45.7628816 C43.6543468,45.7555395 43.3441602,45.7615395 43.0342068,45.7615395 Z M40.2104121,45.8070921 C40.2099456,44.9124605 40.2218429,44.0175132 40.2037247,43.1231974 C40.1969596,42.7926447 40.2723872,42.6163553 40.631874,42.6754868 C40.7202877,42.6900132 40.8129782,42.6779342 40.9037247,42.6780132 C41.7125117,42.6788816 41.7118896,42.6788816 41.7118896,43.5198289 C41.7118118,44.45125 41.6171773,44.3276184 42.522465,44.3367763 C43.092605,44.3425395 43.6636003,44.3254868 44.2326516,44.3523289 C45.5504588,44.4145395 46.3654666,45.3379079 46.3765086,46.7540658 C46.3865397,48.0361711 45.4517807,49.1120658 44.2257309,49.1528816 C43.0607232,49.1915658 41.8933826,49.1669342 40.7271306,49.1591974 C40.3550467,49.1566711 40.2151555,48.9790395 40.2124339,48.5306184 C40.2069129,47.6228026 40.2107232,46.7149868 40.2104121,45.8070921 Z M32.5824106,47.8152132 C33.3738569,47.7157395 33.4690358,47.1936605 33.4481182,46.5471605 C33.4178694,45.6143184 33.4359098,44.6796605 33.4422862,43.7458711 C33.4471073,43.0345553 33.7956299,42.6826868 34.5016952,42.6799237 C35.9136703,42.6743184 37.3258009,42.6804763 38.737776,42.6747132 C38.9600156,42.6737658 39.1021617,42.6955553 39.1006065,42.9847395 C39.0902644,44.9707395 39.0936081,46.9567395 39.0912753,48.9428184 C39.0911975,48.9935816 39.0761897,49.0443447 39.0626594,49.1293711 L37.6011509,49.1293711 C37.593297,48.9841079 37.5782115,48.8315816 37.5779782,48.6790553 C37.5759565,47.2981079 37.5649922,45.9169237 37.5839658,44.5361342 C37.5891757,44.1655553 37.4647589,44.0530553 37.1142924,44.0664763 C36.5321773,44.0888184 35.948196,44.0870026 35.3658476,44.0678974 C35.0521617,44.0576342 34.9698134,44.1785026 34.9768896,44.4833974 C34.9957854,45.29845 35.0044168,46.1148447 34.9778227,46.9294237 C34.95014,47.7735289 34.7586159,48.5536868 33.9243235,48.9807921 C33.8552722,49.0161605 33.7836547,49.0482921 33.7102488,49.0726868 C33.0272784,49.2995026 32.8891757,49.2232395 32.7320995,48.5307921 C32.6830327,48.3144763 32.6409642,48.0965026 32.5824106,47.8152132 Z M79.6950156,58.3545684 C79.6950156,57.2414105 79.6950933,56.2040421 79.6950156,55.1667526 C79.6949378,54.1807 79.7028694,53.1946474 79.6896501,52.2088316 C79.6859176,51.9316474 79.7767418,51.8331211 80.0468818,51.8536474 C80.3044246,51.8732263 80.5661664,51.8759105 80.8231649,51.8525421 C81.1442379,51.8233316 81.22021,51.9730158 81.2132115,52.2668579 C81.1985925,52.8843053 81.2171773,53.5026211 81.2055132,54.1203053 C81.2003033,54.3925158 81.3005365,54.4908842 81.5695101,54.4865421 C82.3722317,54.4738316 83.1752644,54.4723316 83.9779082,54.4847263 C84.2717652,54.4893053 84.3600233,54.3680421 84.353647,54.0848579 C84.3394168,53.4541474 84.3561353,52.8227263 84.3442379,52.1919368 C84.3394946,51.9351211 84.4317185,51.8385684 84.6849844,51.8538842 C84.9688103,51.8710158 85.2552022,51.8704632 85.5391058,51.8541211 C85.7842846,51.8400684 85.8502255,51.9502789 85.8497589,52.1794632 C85.8454821,54.1251211 85.8451711,56.0708579 85.8525583,58.0165158 C85.8534914,58.2764105 85.7510031,58.3510947 85.5073795,58.3610421 C84.3454044,58.4083316 84.3453266,58.4140947 84.3456376,57.2310684 C84.3457154,56.9024105 84.3352177,56.5730421 84.353647,56.2453316 C84.3713764,55.9315158 84.2706765,55.7947 83.9384837,55.8023579 C83.1490591,55.8207526 82.3587792,55.8175158 81.5691213,55.8039368 C81.2985925,55.7993579 81.1990591,55.8976474 81.203958,56.1681211 C81.2151555,56.7726211 81.2004588,57.3776737 81.2129782,57.9821737 C81.2184215,58.2445947 81.140972,58.3704368 80.8621229,58.3585158 C80.4901944,58.3425684 80.1170995,58.3545684 79.6950156,58.3545684 Z M50.7234603,58.3507158 C51.272605,57.5377158 51.7603188,56.8130579 52.2506765,56.0903737 C52.883958,55.1568211 52.8847356,55.1575316 52.2565863,54.2339263 C51.8009098,53.5639789 51.3445334,52.8946632 50.8917341,52.2227421 C50.8296034,52.1305316 50.7864463,52.0251368 50.7186392,51.8956632 C51.2735381,51.8956632 51.7896345,51.8531105 52.2928227,51.9165053 C52.4939891,51.9419263 52.7088414,52.1697684 52.8438336,52.3594 C53.1689502,52.8166632 53.4533981,53.3040842 53.7491991,53.7825053 C54.0541757,54.2757684 54.1468663,54.2755316 54.4623406,53.7712158 C54.7674728,53.2832421 55.0775816,52.7984263 55.3788258,52.3080053 C55.5676283,52.0007421 55.8347356,51.8559526 56.1879238,51.8582421 C56.5962442,51.8609263 57.0046423,51.8588737 57.5009876,51.8588737 C57.0138958,52.5810053 56.5785925,53.2261632 56.1434448,53.8714 C55.9316252,54.1856895 55.7343468,54.5115053 55.5033981,54.8105579 C55.3443779,55.0164526 55.3711275,55.1692947 55.5089191,55.3688737 C56.0958554,56.2185053 56.6701166,57.0771368 57.2481104,57.9330842 C57.3198834,58.0393474 57.3866019,58.1491632 57.532014,58.3766105 C56.8813142,58.3460579 56.3249378,58.3433737 55.7757154,58.2783211 C55.6326361,58.2614263 55.4833359,58.0701368 55.3861353,57.9249526 C55.0735381,57.4581368 54.7820918,56.9766368 54.4860575,56.4985316 C54.1535537,55.9616105 54.0533981,55.9608211 53.7285925,56.4870842 C53.4333359,56.9656632 53.1241602,57.4356368 52.8335692,57.9171368 C52.6625739,58.2004 52.4324028,58.3527684 52.1033204,58.3511895 C51.6797589,58.3492158 51.2561198,58.3507158 50.7234603,58.3507158 Z M30.8729705,51.8732895 C30.7897667,52.2273684 30.7314463,52.5472632 30.6372006,52.8557895 C30.5511975,53.1373947 30.3333126,53.2698684 30.0431882,53.2719211 C29.6031415,53.2750789 29.1629393,53.2723158 28.7229705,53.2787105 C28.0636392,53.2882632 27.4774028,53.4710263 27.1812131,54.1284211 C26.8425661,54.8802368 26.8530638,55.6436579 27.3205599,56.3413158 C27.6164386,56.7827895 28.0783359,56.9608947 28.6011975,56.9630263 C29.2354121,56.9655526 29.8697823,56.9646053 30.5040747,56.9656316 C31.2153499,56.9667368 31.3005754,57.0334474 31.4799689,57.7517105 C31.5235925,57.9265 31.5504977,58.1056316 31.593577,58.3258158 C31.4133281,58.3374211 31.2753033,58.3536053 31.1371229,58.354 C30.2827683,58.3560526 29.4282582,58.3660789 28.5741369,58.3518684 C26.7074184,58.3207632 25.5030638,57.1101053 25.4387558,55.2163947 C25.3762364,53.3745526 26.5194712,52.0325263 28.345832,51.8845789 C29.1660498,51.8181053 29.9959098,51.8732895 30.8729705,51.8732895 Z M31.2126361,51.8818079 L37.1690902,51.8818079 C37.075,52.2601237 37.032465,52.6299132 36.8830093,52.9478342 C36.8090591,53.1050974 36.5473173,53.2280974 36.3542379,53.2581763 C36.025311,53.3093342 35.6823872,53.2913342 35.3471617,53.2715184 C35.0499611,53.2539132 34.9758554,53.3759658 34.9781882,53.6623079 C34.9903966,55.1338868 34.9842535,56.6056237 34.9837869,58.0772816 C34.9837092,58.1425711 34.9761664,58.2077816 34.9696345,58.3148342 L33.4407854,58.3148342 L33.4407854,57.8836237 C33.4407854,56.5302289 33.4407076,55.1767553 33.4406299,53.8233605 C33.4405521,53.2791763 33.4404743,53.2790184 32.8865086,53.2767289 C32.6147356,53.2755447 32.3428849,53.2711237 32.0711897,53.27515 C31.6872862,53.2809921 31.4669907,53.0858342 31.3865863,52.7142289 C31.3289658,52.4478605 31.275,52.1807026 31.2126361,51.8818079 Z" id="Alfastrahovanie"></path>
                </g>
            </g>
        </g>
    </g>
</svg>