<?xml version="1.0" encoding="UTF-8" standalone="no"?>
<svg width="100px" height="27px" viewBox="0 0 100 27" version="1.1" xmlns="http://www.w3.org/2000/svg" xmlns:xlink="http://www.w3.org/1999/xlink" xmlns:sketch="http://www.bohemiancoding.com/sketch/ns">
    <!-- Generator: Sketch 3.4.4 (17249) - http://www.bohemiancoding.com/sketch -->
    <title>logo</title>
    <desc>Created with Sketch.</desc>
    <defs></defs>
    <g id="Page-1" stroke="none" stroke-width="1" fill="none" fill-rule="evenodd" sketch:type="MSPage">
        <g id="12-Partners" sketch:type="MSArtboardGroup" transform="translate(-485.000000, -4928.000000)" fill="#FFFFFF">
            <g id="Twize" sketch:type="MSLayerGroup" transform="translate(485.000000, 4891.000000)">
                <g id="logo" sketch:type="MSShapeGroup">
                    <path d="M0,45 L15.1515152,45 L15.1515152,49 L10.1010101,49 L10.1010101,64 L6.06060606,64 L6.06060606,49 L0,49 L0,45 Z M20.2020202,45 L20.2020202,64 L24.2424242,64 L33.3333333,52 L33.3333333,64 L37.3737374,64 L50.5050505,45 L44.4444444,45 L37.3737374,56 L37.3737374,45 L31.3131313,45 L25.2525253,56 L25.2525253,45 L20.2020202,45 Z M46.4646465,64 L58.5858586,45 L64.6464646,45 L52.5252525,64 L46.4646465,64 Z M59.5959596,37 L64.6464646,44 L69.6969697,37 L59.5959596,37 Z M67.6767677,45 L67.6767677,49 L74.7474747,49 L64.6464646,64 L81.8181818,64 L81.8181818,60 L72.7272727,60 L81.8181818,45 L67.6767677,45 Z M87.8787879,45 L87.8787879,64 L100,64 L100,60 L91.9191919,60 L91.9191919,56 L96.969697,56 L96.969697,52 L91.9191919,52 L91.9191919,49 L100,49 L100,45 L87.8787879,45 Z" id="Twize"></path>
                </g>
            </g>
        </g>
    </g>
</svg>