<?xml version="1.0" encoding="utf-8"?>
<!-- Generator: Adobe Illustrator 19.2.1, SVG Export Plug-In . SVG Version: 6.00 Build 0)  -->
<svg version="1.0" id="Layer_1" xmlns="http://www.w3.org/2000/svg" xmlns:xlink="http://www.w3.org/1999/xlink" x="0px" y="0px"
	 width="595.276px" height="841.89px" viewBox="0 0 595.276 841.89" enable-background="new 0 0 595.276 841.89"
	 xml:space="preserve">
<g id="Group_3_">
	<path fill-rule="evenodd" clip-rule="evenodd" fill="none" stroke="#FFFFFF" d="M456.855,459.2c0,0,5.245,1.157,10.115,1.103
		c10.433,0.024,17.918-3.832,19.152-13.774c0.34-3.88-0.83-6.782-2.732-9.063l1.314-0.004l-0.072-18.443l-14.254,0.055
		c-2.266-0.585-4.888-1.108-7.637-1.361c-0.966-0.112-1.966-0.173-2.961-0.152c-6.539,0.025-13.449,2.405-16.61,7.951
		c-4.195-4.552-10.407-7.369-17.138-7.342c-5.075,0.02-9.815,1.635-13.624,4.409l-0.012-3.194l-4.847,0.018l-0.038-10.011
		l-12.615,0.048c-3.77,4.799-7.733,8.414-13.051,11.504c-2.33-1.58-5.202-2.499-8.401-2.512l-1.108,0.005
		c-2.564,0.035-5.109,0.431-7.273,1.067l-25.836,0.101l0.016,4.017c-3.593-3.196-8.537-5.112-14.945-5.086
		c-7.648,0.03-13.752,3.421-17.636,8.301c-3.266-6.063-11.028-8.057-15.451-8.082c-4.704,0.018-8.249,0.708-11.443,2.301
		c-3.023-1.586-6.463-2.197-9.705-2.201c-0.871-0.005-1.745,0.031-2.58,0.116c-1.785,0.162-3.744,0.584-5.073,0.976l-25.762,0.1
		l0.055,13.873l1.975-0.007l0.048,12.152l-1.976,0.008l0.056,13.906l73.376-0.287l-0.015-3.54c3.79,2.96,8.635,4.735,13.899,4.705
		c7.045-0.028,11.774-1.98,15.318-5.289l0.015,4.028l50.756-0.205l-0.004-1.211c2.51,1.494,5.731,2.382,9.649,2.374
		c0.23,0.008,0.454,0.016,0.694,0.014l0.686-0.004c3.652-0.046,7.091-0.882,11.295-3.757l-0.002-0.739
		c3.831,2.759,8.589,4.386,13.692,4.366c6.145-0.024,11.839-2.45,15.958-6.386l0.008,5.155H456.855z"/>
	<path fill-rule="evenodd" clip-rule="evenodd" fill="#FFFFFF" d="M258.766,425.985c1.5-0.978,4.447-2.66,9.058-3.089
		c0.678-0.046,1.339-0.065,2.001-0.058c3.893-0.007,7.171,0.729,9.825,2.975c3.259-2.128,6.396-3.103,11.695-3.125
		c5.383,0.037,12.769,3.137,12.815,10.48c-0.084,0.001,0.015,16.696,0.015,16.696l1.934-0.014l0.024,5.862l-19.932,0.078
		l-0.023-5.854l1.96-0.008l-0.055-13.856c-0.01-2.207-1.561-3.486-3.148-3.529c-1.711-0.051-3.468,1.29-3.456,4.387l0.051,13.023
		l1.977-0.008l0.024,5.854l-20.025,0.078l-0.023-5.854l1.967-0.006l-0.054-13.858c-0.008-2.205-1.552-3.451-3.139-3.478
		c-1.703-0.043-3.458,1.306-3.446,4.336l0.058,13.025l1.96-0.008l0.013,5.87l-19.99,0.06l-0.022-5.852l1.975-0.008l-0.07-20.213
		l-1.986,0.017l-0.021-5.838L258.759,424L258.766,425.985z M361.435,425.674c2.786-2.011,6.339-3.152,10.653-3.227
		c0.19-0.01,0.382-0.019,0.586-0.012c0.2,0,0.398,0.008,0.604,0.015c6.391-0.017,10.701,4.634,10.723,10.415l0.066,16.69
		l2.042-0.008l0.014,5.852l-20.04,0.08l-0.022-5.856l1.984-0.014l-0.054-13.848c-0.008-2.192-1.552-3.429-3.14-3.463
		c-1.696-0.043-3.45,1.297-3.438,4.319l0.05,12.999l1.96-0.008l-0.003,5.894l-19.965,0.08l-0.023-5.87l1.959-0.008l-0.072-20.228
		l-1.992,0.022l-0.022-5.869l18.121-0.071L361.435,425.674z M403.536,423.452l4.844-0.019l0.022,5.781l-4.845,0.018l0.066,16.993
		c0.024,1.564,1.034,2.229,2.522,2.287h0.422c0.562-0.018,1.18-0.12,1.842-0.263l0.024,6.505c-1.194,0.845-3.214,1.699-8.739,1.679
		c-8.549,0.032-12.031-4.671-12.053-10.352l-0.064-16.788l-1.978,0.008c0,0-0.064-5.705-0.024-5.812
		c6.369-3.64,11.315-10.007,11.315-10.007l6.605-0.026L403.536,423.452z M426.106,430.074c-3.066,0.012-3.986,3.729-3.964,9.221
		c0.022,5.468,0.906,9.326,4.038,9.312c3.116-0.012,3.988-3.876,3.966-9.342C430.122,433.771,429.296,430.062,426.106,430.074z
		 M426.076,422.219c-10.177,0.04-18.4,7.713-18.36,17.132c0.036,9.412,8.317,17.019,18.494,16.979
		c10.161-0.04,18.372-7.711,18.338-17.123C444.512,429.789,436.237,422.181,426.076,422.219z M451.699,443.462
		c2.548,2.699,7.751,4.842,11.969,5.575c0.686,0.096,1.374,0.185,1.984,0.181c0.844-0.01,1.522-0.195,1.782-0.715
		c0.378-0.675-0.104-1.498-1.594-2.175c-3.46-1.41-9.511-2.863-12.575-4.364c-4.517-2.205-8.015-4.669-7.757-10.368
		c0.556-8.188,8.991-9.718,14.239-9.721c1.02-0.004,1.912,0.051,2.616,0.13c5.194,0.482,9.943,2.01,12.513,2.973
		c-0.066-0.034-0.012-1.968-0.012-1.968l5.791-0.024l0.044,11.19l-0.686,0.002c-0.258,0.002-0.564,0.003-0.886,0.012
		c-0.162,0.002-0.338-0.006-0.502,0.002c-0.176,0.001-0.346,0.002-0.514,0.01c-0.122,0-0.24,0.001-0.34,0.01l-1.446,0.006
		c-0.076-0.008-0.14-0.008-0.19-0.008c-0.176-0.008-0.264-0.014-0.264-0.014c-2.472-2.445-8.593-4.957-12.283-5.56
		c-0.554-0.104-1.018-0.16-1.416-0.159c-1.214-0.02-1.808,0.402-1.97,1.086c-0.136,0.981,0.914,1.488,2.008,1.903
		c3.128,1.223,7.921,2.125,11.665,4.056c5.383,2.58,8.735,5.259,8.277,10.505c-0.864,7.027-5.799,10.085-15.06,10.187
		c-7.763-0.078-11.755-2.112-14.53-3.153l0.008,2.024l-6.359,0.026l-0.044-11.627L451.699,443.462z M324.993,430.452
		c-3.225,0.013-3.715,3.415-3.728,6.148l7.695-0.028C329.032,433.911,328.365,430.439,324.993,430.452z M321.227,441.755
		c-0.06,4.034,1.525,7.422,5.586,7.406c2.835-0.012,4.649-1.08,5.997-3.342l8.864,0.038c-2.187,5.281-7.521,10.942-17.603,10.979
		c-10.052,0.08-18.011-7.874-18.048-16.776c-0.033-8.645,7.05-17.441,18.311-17.484c10.725-0.041,19.28,8.092,18.422,19.111
		L321.227,441.755z"/>
</g>
<path fill-rule="evenodd" clip-rule="evenodd" fill="#FFFFFF" d="M489.755,413.886l-1.132,0.005l0.002,0.945l0.762-0.003
	c0.49,0.006,1.042,0.013,1.04-0.439C490.427,413.982,490.119,413.892,489.755,413.886z M489.661,413.335l-1.594,0.006l0.012,3.788
	l0.556-0.002l-0.008-1.746l0.704-0.002l0.974,1.741l0.628-0.003l-0.966-1.741c0.504-0.018,1.016-0.292,1.014-1.042
	C490.977,413.535,490.357,413.332,489.661,413.335z M489.367,412.388c-1.544,0.006-2.826,1.238-2.822,2.827
	c0.006,1.59,1.3,2.819,2.846,2.814c1.546-0.007,2.84-1.247,2.832-2.836C492.219,413.605,490.915,412.382,489.367,412.388z
	 M489.365,411.837c-1.892,0.008-3.38,1.505-3.374,3.381c0.008,1.877,1.508,3.361,3.403,3.354c1.892-0.008,3.384-1.505,3.376-3.381
	C492.761,413.314,491.259,411.831,489.365,411.837z"/>
<path fill-rule="evenodd" clip-rule="evenodd" fill="#FFFFFF" d="M489.755,413.886l-1.132,0.005l0.002,0.945l0.762-0.003
	c0.49,0.006,1.042,0.013,1.04-0.439C490.427,413.982,490.119,413.892,489.755,413.886z M489.661,413.335l-1.594,0.006l0.012,3.788
	l0.556-0.002l-0.008-1.746l0.704-0.002l0.974,1.741l0.628-0.003l-0.966-1.741c0.504-0.018,1.016-0.292,1.014-1.042
	C490.977,413.535,490.357,413.332,489.661,413.335z M489.367,412.388c-1.544,0.006-2.826,1.238-2.822,2.827
	c0.006,1.59,1.3,2.819,2.846,2.814c1.546-0.007,2.84-1.247,2.832-2.836C492.219,413.605,490.915,412.382,489.367,412.388z
	 M489.365,411.837c-1.892,0.008-3.38,1.505-3.374,3.381c0.008,1.877,1.508,3.361,3.403,3.354c1.892-0.008,3.384-1.505,3.376-3.381
	C492.761,413.314,491.259,411.831,489.365,411.837z"/>
</svg>
