<?xml version="1.0" encoding="utf-8"?>
<!-- Generator: Adobe Illustrator 19.2.1, SVG Export Plug-In . SVG Version: 6.00 Build 0)  -->
<svg version="1.0" id="Calque_1" xmlns="http://www.w3.org/2000/svg" xmlns:xlink="http://www.w3.org/1999/xlink" x="0px" y="0px"
	 width="708.66px" height="708.66px" viewBox="0 0 708.66 708.66" enable-background="new 0 0 708.66 708.66" xml:space="preserve">
<g>
	<g>
		<g>
			<g>
				<path fill="#FFFFFF" d="M230.148,214.779c-0.016-0.628-0.118-1.327-0.307-2.092c-0.189-0.765-0.454-1.483-0.795-2.152
					c-0.342-0.668-0.74-1.209-1.196-1.625c-0.456-0.417-0.956-0.575-1.49-0.474c-0.44,0.083-0.918,0.362-1.431,0.832
					c-0.517,0.473-1.047,1.065-1.584,1.771c-0.538,0.707-1.069,1.472-1.593,2.295c-0.521,0.82-1.011,1.638-1.46,2.445
					c-0.448,0.806-0.853,1.553-1.211,2.231c-0.357,0.677-0.667,1.221-0.89,1.529c-0.1,0.139-0.306,0.227-0.507,0.255
					c-0.201,0.028-0.345,0.06-0.51-0.034c-0.165-0.095-0.284-0.239-0.353-0.423c-0.069-0.187,0.009-0.419,0.202-0.689
					c0.278-0.389,0.614-0.958,1.017-1.658c0.404-0.701,0.86-1.464,1.36-2.282c0.5-0.819,1.043-1.655,1.63-2.503
					c0.587-0.849,1.195-1.636,1.822-2.363c0.621-0.72,1.246-1.335,1.86-1.824c0.617-0.491,1.235-0.794,1.841-0.908
					c0.744-0.14,1.4-0.025,1.966,0.342c0.568,0.368,1.054,0.86,1.448,1.474c0.393,0.611,0.733,1.305,1.005,2.069
					c0.274,0.767,0.49,1.48,0.649,2.137c2.258-3.438,3.41-5.153,5.756-8.573c0.275-0.333,0.64-0.56,1.086-0.678
					c0.448-0.119,0.868-0.126,1.262-0.022c0.395,0.104,0.713,0.316,0.958,0.631c0.245,0.315,0.322,0.739,0.229,1.269
					c-3.183,4.78-4.732,7.179-7.746,11.991c0.276,0.723,0.634,1.624,1.068,2.704c0.434,1.078,0.924,2.106,1.467,3.08
					c0.544,0.976,1.127,1.809,1.749,2.496c0.624,0.691,1.27,1.016,1.937,0.985c0.629-0.029,1.349-0.359,2.151-0.998
					c0.796-0.636,1.619-1.442,2.466-2.413c0.849-0.973,1.674-2.03,2.477-3.173c0.803-1.144,1.524-2.231,2.158-3.259
					c0.634-1.028,1.139-1.925,1.509-2.695c0.369-0.769,0.508-1.324,0.539-1.494c0.064-0.355,0.49-0.619,0.912-0.57
					c0.424,0.049,0.782,0.409,0.785,0.818c0.005,0.507-0.417,1.398-0.904,2.339c-0.488,0.943-1.079,1.957-1.771,3.035
					c-0.69,1.075-1.457,2.172-2.299,3.278c-0.844,1.107-1.692,2.125-2.547,3.054c-0.854,0.928-1.705,1.716-2.549,2.361
					c-0.846,0.648-1.601,1.045-2.277,1.193c-0.736,0.161-1.431,0.074-2.084-0.252c-0.652-0.326-1.247-0.797-1.788-1.416
					c-0.539-0.617-1.034-1.321-1.484-2.114c-0.446-0.789-0.85-1.564-1.206-2.311c-0.357-0.749-0.652-1.435-0.888-2.049
					c-0.237-0.615-0.423-1.042-0.546-1.276c-3.296,4.769-4.9,7.163-8.021,11.966c-0.58,0.377-1.11,0.586-1.593,0.626
					c-0.483,0.04-0.898-0.041-1.241-0.243c-0.345-0.202-0.591-0.498-0.732-0.887c-0.141-0.388-0.139-0.814,0.008-1.276
					C224.209,223.441,226.146,220.544,230.148,214.779z"/>
				<path fill="#FFFFFF" d="M255.115,226.084c-1.168,0.178-2.116,0.084-2.846-0.285c-0.729-0.368-1.316-0.947-1.751-1.73
					c-0.435-0.783-0.738-1.736-0.89-2.849c-0.152-1.111-0.218-2.325-0.178-3.604c0.042-1.367,0.175-2.811,0.376-4.31
					c0.201-1.498,0.427-2.942,0.677-4.334c0.249-1.391,0.492-2.685,0.717-3.888c0.224-1.2,0.398-2.208,0.516-3.023
					c-2.064,0.278-3.096,0.421-5.159,0.715c-0.337,0.053-0.603,0.012-0.791-0.129c-0.185-0.139-0.275-0.32-0.268-0.534
					c0.007-0.213,0.104-0.451,0.296-0.71c0.192-0.26,0.518-0.468,0.976-0.625c2.043-0.323,3.065-0.481,5.11-0.789
					c0.774-4.365,1.177-6.547,2.017-10.913c0.148-0.534,0.481-0.914,0.991-1.143c0.51-0.229,1.039-0.322,1.584-0.271
					c0.544,0.051,1.024,0.227,1.437,0.525c0.41,0.297,0.571,0.692,0.481,1.187c-0.853,3.983-1.266,5.975-2.062,9.959
					c2.271-0.327,3.406-0.486,5.678-0.795c0.231-0.061,0.442-0.02,0.625,0.127c0.182,0.146,0.296,0.337,0.337,0.572
					c0.041,0.232-0.013,0.469-0.163,0.703c-0.15,0.233-0.454,0.42-0.917,0.569c-2.297,0.348-3.446,0.527-5.741,0.894
					c-0.217,1.255-0.464,2.577-0.749,3.968c-0.284,1.39-0.554,2.785-0.814,4.172c-0.26,1.388-0.502,2.755-0.726,4.098
					c-0.224,1.343-0.394,2.62-0.534,3.794c-0.134,1.123-0.21,2.165-0.203,3.105c0.007,0.937,0.085,1.723,0.233,2.354
					c0.146,0.631,0.4,1.105,0.749,1.419c0.35,0.316,0.816,0.396,1.386,0.258c1.072-0.26,2.082-0.677,2.986-1.28
					c0.903-0.602,1.724-1.298,2.464-2.086c0.739-0.785,1.396-1.631,1.969-2.536c0.571-0.902,1.095-1.8,1.531-2.68
					c0.595-1.202,1.066-2.315,1.417-3.296c0.351-0.982,0.578-1.716,0.725-2.098c0.1-0.26,0.303-0.471,0.535-0.601
					c0.232-0.13,0.475-0.168,0.72-0.115c0.249,0.053,0.449,0.212,0.597,0.475c0.146,0.261,0.259,0.753,0.148,1.171
					c-0.064,0.24-0.366,0.885-0.724,1.837c-0.359,0.954-0.876,2.056-1.522,3.306c-0.501,0.97-1.106,1.972-1.808,2.99
					c-0.702,1.018-1.517,1.963-2.438,2.832c-0.921,0.87-1.963,1.632-3.121,2.285C257.83,225.429,256.541,225.865,255.115,226.084z"
					/>
				<path fill="#FFFFFF" d="M268.329,200.852c0.619-0.648,1.218-1.013,1.793-1.099c0.575-0.086,1.077-0.041,1.504,0.132
					c0.428,0.175,0.751,0.419,0.976,0.732c0.222,0.31,0.293,0.543,0.214,0.694c-0.429,1.851-0.641,2.777-1.057,4.629
					c0.098-0.04,0.389-0.303,0.877-0.787c0.488-0.484,1.101-1.043,1.844-1.669c0.742-0.624,1.592-1.261,2.544-1.909
					c0.95-0.646,1.936-1.161,2.948-1.543c1.012-0.382,2.031-0.557,3.055-0.525c1.021,0.032,2.004,0.397,2.859,1.097
					c0.386,0.316,0.692,0.74,0.913,1.241c0.222,0.498,0.362,1.028,0.418,1.584c0.057,0.56,0.006,1.124-0.156,1.69
					c-0.162,0.566-0.435,1.068-0.768,1.495c-0.231,0.297-0.517,0.507-0.86,0.6c-0.342,0.092-0.657,0.089-0.944-0.007
					c-0.283-0.096-0.503-0.269-0.658-0.522c-0.155-0.252-0.153-0.585-0.012-0.993c0.316-0.92,0.503-1.757,0.575-2.455
					c0.073-0.697-0.258-1.248-1-1.65c-0.523-0.283-1.172-0.311-1.945-0.085c-0.777,0.227-1.666,0.671-2.665,1.335
					c-0.998,0.664-2.134,1.544-3.401,2.642c-1.264,1.097-2.649,2.377-4.144,3.84c-0.96,5.538-1.415,8.307-2.275,13.845
					c-0.309,0.497-0.695,0.818-1.148,0.963c-0.458,0.146-0.889,0.205-1.293,0.175c-0.404-0.03-0.756-0.126-1.051-0.283
					c-0.291-0.155-0.42-0.295-0.375-0.414C266.263,214.506,266.909,209.955,268.329,200.852z"/>
				<path fill="#FFFFFF" d="M291.113,221.147c-1.188-0.096-2.288-0.664-3.011-1.363c-0.724-0.7-1.242-1.552-1.547-2.549
					c-0.305-0.997-0.42-2.101-0.339-3.31c0.082-1.207,0.34-2.418,0.737-3.61c0.674-2.023,1.531-3.854,2.604-5.427
					c1.071-1.57,2.209-2.914,3.407-4.026c1.197-1.111,2.383-1.969,3.548-2.562c1.167-0.595,2.257-0.885,3.026-1.038
					c0.531-0.105,1.099-0.154,1.6,0.017c0.495,0.169,0.919,0.447,1.267,0.826c0.347,0.379,0.623,0.816,0.827,1.305
					c0.204,0.491,0.226,1.46,0.226,1.46c0.025,0.012,0.66-0.903,0.87-1.522c0.21-0.619,0.498-1.202,0.803-1.729
					c0.146-0.253,0.351-0.432,0.617-0.508c0.266-0.077,0.553-0.069,0.851,0.021c0.298,0.09,0.581,0.254,0.841,0.488
					c0.26,0.234,0.588,0.632,0.594,0.885c0.064,2.717-2.245,7.034-3.032,9.527c-0.788,2.494-1.355,4.466-1.715,5.916
					c-0.36,1.451-0.513,2.464-0.469,3.035c0.044,0.571,0.376,0.921,0.81,0.882c0.755-0.068,1.724-0.586,2.649-1.218
					c0.923-0.63,1.843-1.37,2.758-2.21c0.915-0.839,1.786-1.736,2.616-2.692c0.827-0.953,1.572-1.863,2.237-2.719
					c0.389-0.502,0.73-0.96,1.014-1.371c0.283-0.411,0.565-1.004,0.738-1.099c0.263-0.145,0.916,0.12,1.037,0.378
					c0.121,0.259,0.127,0.622-0.035,0.867c-0.167,0.253-0.52,0.584-0.824,0.954c-0.303,0.37-0.623,0.776-0.955,1.177
					c-0.759,0.919-1.67,1.934-2.632,3.038c-0.962,1.105-2.011,2.155-3.136,3.149c-1.126,0.996-2.299,1.863-3.521,2.605
					c-1.225,0.744-2.607,1.128-3.774,1.404c-0.654,0.154-1.258,0.139-1.682-0.26c-0.423-0.399-0.735-0.936-0.928-1.608
					c-0.192-0.671-0.284-1.4-0.274-2.172c0.01-0.773,0.272-1.945,0.272-1.945c-0.007-0.004-0.752,0.985-1.288,1.761
					c-0.537,0.778-1.171,1.556-1.886,2.325c-0.716,0.77-1.493,1.448-2.323,2.034C292.863,220.849,291.926,221.213,291.113,221.147z
					 M300.303,199.564c-0.343-0.141-1.04,0.132-1.844,0.704c-0.807,0.574-1.668,1.368-2.57,2.377
					c-0.902,1.009-1.8,2.179-2.686,3.501c-0.886,1.322-1.602,2.691-2.172,4.055c-0.428,1.025-0.75,2.048-0.937,3.053
					c-0.187,1.006-0.248,1.921-0.187,2.749c0.061,0.824,0.234,1.512,0.523,2.062c0.288,0.55,0.696,0.879,1.202,1
					c0.407,0.097,1.026-0.234,1.854-1.003c0.828-0.769,1.716-1.79,2.66-3.06c0.945-1.269,1.856-2.688,2.731-4.256
					c0.874-1.566,1.578-3.09,2.091-4.567c0.513-1.476,0.762-2.813,0.737-4.008C301.682,200.98,301.141,199.908,300.303,199.564z"/>
				<path fill="#FFFFFF" d="M319.446,218.88c-1.868-0.279-3.394-1.04-4.51-2.19c-1.116-1.15-1.873-2.505-2.258-4.066
					c-0.385-1.561-0.418-3.213-0.085-4.948c0.333-1.735,0.997-3.346,1.989-4.826c0.994-1.481,2.304-2.721,3.931-3.712
					c1.624-0.99,3.98-1.861,5.707-1.563c0.058,0.01,0.139,0.041,0.207,0.052c0.069,0.011,0.183,0.099,0.21,0.096
					c0.505-0.045,2.473-1.814,4.22-2.083c1.311-0.202,2.504-0.052,3.442,0.347c0.938,0.4,1.679,0.994,2.221,1.772
					c0.543,0.78,0.906,1.716,1.087,2.804c0.18,1.084,0.2,2.243,0.068,3.467c-0.133,1.224-0.403,2.48-0.812,3.77
					c-0.409,1.29-1.522,3.735-1.522,3.735c0.068,0.099,1.95-0.436,2.981-1.028c1.035-0.594,1.998-1.247,2.885-1.959
					c0.889-0.712,1.654-1.41,2.299-2.099c0.644-0.689,1.031-1.277,1.205-1.5c0.151-0.194,0.452-0.312,0.671-0.33
					c0.216-0.018,0.399,0.019,0.553,0.114c0.154,0.094,0.24,0.241,0.263,0.435c0.023,0.197-0.051,0.423-0.208,0.679
					c-0.513,0.841-1.211,1.7-2.098,2.548c-0.889,0.849-1.862,1.623-2.93,2.328c-1.064,0.702-2.164,1.29-3.297,1.761
					c-1.135,0.473-2.648,0.512-3.179,0.765c-0.696,0.331-1.751,1.823-2.725,2.593c-0.974,0.77-2.01,1.412-3.105,1.926
					c-1.097,0.514-2.242,0.873-3.436,1.076C322.024,219.046,320.744,219.074,319.446,218.88z M329.085,212.587
					c-0.195-0.503-2.413-1.668-3.347-2.816c-0.934-1.146-1.647-2.37-2.134-3.662c-0.488-1.293-0.725-2.596-0.711-3.9
					c0.014-1.304,0.989-3.523,0.989-3.523c-0.024-0.025-1.96,1.419-2.832,2.502c-0.873,1.085-1.63,2.286-2.271,3.6
					c-0.64,1.314-1.122,2.677-1.446,4.085c-0.323,1.41-0.444,2.719-0.364,3.92c0.079,1.201,0.395,2.246,0.942,3.124
					c0.547,0.879,1.399,1.448,2.522,1.728c0.8,0.2,1.668,0.139,2.593-0.203c0.927-0.343,1.813-0.802,2.665-1.377
					c0.849-0.574,1.594-1.191,2.229-1.849C328.553,213.56,329.138,212.723,329.085,212.587z M328.928,196.941
					c-1.012,0.184-1.822,0.582-2.432,1.2c-0.608,0.616-1.03,1.363-1.262,2.225c-0.233,0.866-0.295,1.803-0.182,2.808
					c0.111,1.005,0.378,1.995,0.788,2.972c0.41,0.977,0.976,1.891,1.691,2.741c0.716,0.851,2.223,2.168,2.507,2.101
					c0.256-0.06,0.87-1.544,1.234-2.553c0.365-1.01,0.638-2.058,0.819-3.144c0.181-1.086,0.271-2.164,0.27-3.229
					c-0.001-1.066-0.111-2.004-0.336-2.806c-0.226-0.803-0.596-1.43-1.109-1.871C330.401,196.944,329.735,196.796,328.928,196.941z"
					/>
				<path fill="#FFFFFF" d="M346.116,195.19c0.701-0.571,1.345-0.869,1.922-0.891c0.579-0.022,1.072,0.075,1.463,0.293
					c0.392,0.219,0.679,0.498,0.852,0.831c0.175,0.336,0.21,0.574,0.11,0.715c-0.688,1.79-1.03,2.685-1.706,4.476
					c0.102-0.03,0.426-0.257,0.974-0.685c0.55-0.428,1.236-0.913,2.058-1.452c0.821-0.54,1.746-1.081,2.778-1.619
					c1.032-0.539,2.073-0.942,3.127-1.21c1.053-0.267,2.086-0.331,3.086-0.187c0.997,0.143,1.916,0.613,2.659,1.4
					c0.336,0.355,0.576,0.812,0.721,1.331c0.145,0.519,0.207,1.062,0.183,1.619c-0.024,0.557-0.157,1.117-0.397,1.656
					c-0.241,0.542-0.581,1.011-0.973,1.401c-0.273,0.271-0.583,0.444-0.937,0.499c-0.35,0.054-0.66,0.019-0.928-0.109
					c-0.266-0.128-0.457-0.325-0.572-0.589c-0.117-0.267-0.069-0.599,0.128-0.99c0.447-0.887,0.752-1.683,0.927-2.37
					c0.175-0.686-0.072-1.267-0.748-1.747c-0.474-0.337-1.108-0.436-1.903-0.298c-0.796,0.139-1.737,0.486-2.818,1.035
					c-1.078,0.548-2.322,1.3-3.728,2.25c-1.406,0.952-2.952,2.07-4.633,3.356c-1.744,5.39-2.592,8.088-4.236,13.488
					c-0.377,0.459-0.803,0.737-1.27,0.832c-0.469,0.096-0.9,0.105-1.295,0.031c-0.394-0.073-0.722-0.208-0.992-0.396
					c-0.267-0.186-0.371-0.338-0.312-0.452C342.113,208.511,343.404,204.066,346.116,195.19z"/>
				<path fill="#FFFFFF" d="M374.185,212.519c-0.041-0.007-1.035,1.73-1.77,2.484c-0.738,0.756-1.555,1.4-2.453,1.937
					c-0.898,0.536-1.834,0.942-2.798,1.218c-0.963,0.275-1.882,0.364-2.744,0.263c-0.869-0.102-1.652-0.4-2.358-0.898
					c-0.704-0.496-1.313-1.29-1.567-2.239c-0.268-0.999-0.186-2.302,0.081-3.642c0.267-1.335,0.695-2.724,1.307-4.1
					c0.529-1.189,1.196-2.37,1.954-3.528c0.756-1.156,1.599-2.222,2.524-3.199c0.922-0.974,1.892-1.832,2.899-2.566
					c1.012-0.735,2.038-1.275,3.078-1.613c1.041-0.339,2.06-0.442,3.046-0.313c0.986,0.129,1.913,0.542,2.767,1.235
					c2.19-6.473,3.317-9.706,5.634-16.161c0.21-0.447,0.506-0.77,0.888-0.966c0.381-0.195,0.776-0.27,1.178-0.226
					c0.401,0.044,0.755,0.204,1.051,0.486c0.296,0.283,0.542,0.755,0.493,1.136c-0.519,3.994-3.018,9.097-4.329,13.104
					c-1.312,4.007-2.354,7.585-3.217,10.601c-0.247,0.864-0.485,1.798-0.673,2.777c-0.188,0.981-0.32,1.944-0.391,2.883
					c-0.071,0.937-0.087,1.829-0.047,2.668c0.04,0.84,0.171,1.548,0.389,2.121c0.219,0.573,0.546,0.977,0.987,1.212
					c0.441,0.236,1.009,0.214,1.689-0.028c0.734-0.261,1.48-0.697,2.2-1.327c0.718-0.628,1.423-1.348,2.118-2.16
					c0.693-0.81,1.356-1.656,1.989-2.535c0.631-0.875,1.213-1.706,1.734-2.486c0.521-0.779,0.973-1.462,1.345-2.043
					c0.374-0.583,0.688-1.076,0.862-1.168c0.26-0.137,0.686-0.02,0.85,0.178c0.164,0.197,0.2,0.676-0.016,1.051
					c-0.401,0.696-1.375,1.735-2.183,2.958c-0.809,1.225-1.702,2.457-2.662,3.698c-0.96,1.24-1.986,2.357-3.084,3.348
					c-1.097,0.992-2.332,1.756-3.445,1.915c-2.138,0.305-4.12-0.376-5.26-1.497C375.113,215.972,374.185,212.519,374.185,212.519z
					 M373.088,198.245c-0.817,0.451-1.624,1.132-2.361,1.845c-0.734,0.711-1.421,1.491-2.048,2.33
					c-0.629,0.841-1.186,1.725-1.672,2.646c-0.485,0.921-0.908,1.842-1.228,2.74c-0.369,1.035-0.616,2.064-0.76,3.049
					c-0.143,0.984-0.143,1.876,0.001,2.67c0.144,0.793,0.439,1.46,0.882,1.996c0.443,0.534,1.095,0.923,1.847,1.024
					c0.524,0.07,1.193-0.244,1.91-0.861c0.717-0.617,1.452-1.447,2.196-2.48c0.743-1.033,1.466-2.201,2.152-3.5
					c0.685-1.297,1.266-2.609,1.745-3.932c0.447-1.236,0.788-2.41,1.023-3.518c0.235-1.108,0.345-2.156,0.18-2.925
					c-0.073-0.342-0.313-0.656-0.617-0.876c-0.307-0.221-0.65-0.372-1.023-0.451c-0.373-0.079-0.763-0.096-1.17-0.049
					C373.744,198,373.367,198.091,373.088,198.245z"/>
				<path fill="#FFFFFF" d="M392.393,219.306c-1.14-0.147-2.145-0.595-2.771-1.016c-0.624-0.421-1.001-0.991-1.12-1.711
					c-0.119-0.72-0.024-1.623,0.284-2.701c0.309-1.079,0.78-2.427,1.408-4.041c0.628-1.613,1.391-3.521,2.288-5.72
					c0.899-2.202,1.76-5.067,2.938-7.725c0.221-0.499,0.628-0.804,1.057-0.851c0.431-0.047,0.826,0.031,1.184,0.233
					c0.357,0.202,0.646,0.507,0.852,0.911c0.206,0.403,0.213,0.804,0.061,1.181c-0.885,2.192-1.775,4.472-2.753,6.65
					c-0.978,2.179-1.788,4.138-2.435,5.873c-0.647,1.736-0.999,3.172-1.057,4.306c-0.057,1.132,0.574,1.951,1.419,1.944
					c0.617-0.005,1.556-0.445,2.477-0.942c0.918-0.495,1.867-1.084,2.841-1.755c0.975-0.672,1.935-1.385,2.877-2.141
					c0.94-0.755,1.788-1.474,2.548-2.154c0.759-0.68,1.411-1.275,1.942-1.786c0.53-0.51,0.871-0.881,1.019-1.004
					c0.346-0.289,0.828-0.342,1.199-0.188c0.366,0.152,0.566,0.691,0.372,1.057c-0.187,0.354-0.964,0.958-1.764,1.688
					c-0.798,0.728-1.724,1.534-2.761,2.405c-1.037,0.872-2.14,1.749-3.299,2.631c-1.159,0.883-2.291,1.694-3.395,2.431
					c-1.101,0.735-2.129,1.336-3.073,1.79C393.789,219.124,392.955,219.378,392.393,219.306z M397.85,188.519
					c0.281-0.506,0.675-0.826,1.185-0.924c0.507-0.097,0.98-0.051,1.413,0.143c0.433,0.194,0.763,0.53,0.984,1.006
					c0.221,0.477,0.17,1.043-0.059,1.659c-0.195,0.525-0.536,0.874-1.059,0.97c-0.525,0.096-1.026,0.041-1.51-0.169
					c-0.482-0.211-0.85-0.555-1.106-1.031C397.444,189.698,397.504,189.143,397.85,188.519z"/>
				<path fill="#FFFFFF" d="M425.663,220.621c-1.751,0.585-2.98,0.746-3.699,0.468c-0.719-0.279-1.094-0.85-1.136-1.711
					c-0.042-0.861,0.17-1.935,0.641-3.218c0.471-1.28,1.014-2.638,1.627-4.074c0.613-1.435,1.222-2.853,1.821-4.245
					c0.6-1.394,0.991-2.64,1.169-3.736c0.177-1.095,0.053-1.961-0.376-2.594c-0.429-0.633-1.337-0.891-2.71-0.761
					c-0.893,0.085-1.851,0.326-2.865,0.717c-1.009,0.388-2.049,0.935-3.108,1.634c-1.058,0.699-2.104,1.538-3.132,2.511
					c-1.029,0.974-2.078,2.097-2.832,3.303c-0.171,0.274-0.457,0.887-0.878,1.77c-0.421,0.882-0.866,1.836-1.328,2.852
					c-0.463,1.02-0.895,1.978-1.29,2.859c-0.396,0.884-0.669,1.512-0.834,1.776c-0.341,0.546-0.92,0.911-1.521,1.053
					c-0.6,0.141-1.137,0.127-1.613-0.045c-0.474-0.173-0.833-0.462-1.074-0.872c-0.24-0.407-0.136-0.909,0.1-1.426
					c0.297-0.65,0.736-1.857,1.429-3.341c0.692-1.483,1.644-3.535,2.896-6.063c0.684-1.38,1.457-2.941,2.284-4.666
					c0.827-1.726,1.888-3.697,2.792-5.764c0.146-0.334,0.465-0.619,0.978-0.789c0.515-0.172,1.033-0.238,1.561-0.196
					c0.525,0.041,0.981,0.198,1.359,0.466c0.381,0.27,0.546,0.643,0.493,1.117c-1.219,2.298-1.822,3.449-3.019,5.752
					c-0.024-0.087,0.277-0.394,0.91-0.921c0.631-0.526,1.46-1.079,2.493-1.655c1.03-0.574,2.179-1.1,3.442-1.566
					c1.262-0.466,2.519-0.696,3.747-0.697c1.775-0.002,3.044,0.329,3.794,0.995c0.747,0.665,1.149,1.541,1.206,2.615
					c0.057,1.075-0.136,2.301-0.573,3.664c-0.438,1.365-0.959,2.742-1.56,4.117c-0.602,1.378-1.195,2.71-1.777,3.994
					c-0.581,1.282-0.986,2.371-1.217,3.266c-0.231,0.895-0.208,1.539,0.052,1.928c0.259,0.386,1.009,0.433,2.041,0.03
					c1.155-0.451,2.424-1.173,3.703-1.929c1.279-0.756,2.553-1.552,3.823-2.385c1.273-0.836,2.496-1.688,3.667-2.557
					c1.172-0.87,2.289-1.855,3.259-2.485c0.413-0.268,0.561-0.475,0.884-0.283c0.32,0.191-0.115,0.584-0.596,1.001
					c-0.516,0.447-0.863,1.357-2.095,2.274c-1.231,0.915-2.588,1.881-4.068,2.887c-1.481,1.008-3.003,1.972-4.568,2.894
					C428.398,219.506,426.966,220.186,425.663,220.621z"/>
				<path fill="#FFFFFF" d="M438.662,224.102c-1.163-0.171-2.2-0.81-2.861-1.556c-0.659-0.745-1.098-1.625-1.322-2.639
					c-0.223-1.014-0.249-2.122-0.074-3.322c0.174-1.197,0.518-2.389,1-3.553c0.817-1.974,1.796-3.744,2.966-5.245
					c1.168-1.499,2.386-2.767,3.647-3.799c1.262-1.032,2.495-1.811,3.691-2.329c1.195-0.518,2.296-0.739,3.072-0.842
					c0.534-0.071,1.103-0.083,1.589,0.12c0.483,0.201,0.885,0.505,1.205,0.904c0.322,0.403,0.569,0.855,0.739,1.358
					c0.169,0.501,0.127,1.471,0.127,1.471c0.024,0.013,0.716-0.86,0.965-1.463c0.25-0.606,0.58-1.17,0.916-1.674
					c0.16-0.241,0.378-0.41,0.646-0.469c0.269-0.059,0.554-0.033,0.845,0.077c0.291,0.11,0.564,0.29,0.808,0.539
					c0.243,0.249,0.546,0.67,0.535,0.922c-0.117,2.722-2.715,6.88-3.682,9.313c-0.968,2.435-1.686,4.37-2.158,5.793
					c-0.471,1.419-0.704,2.425-0.706,2.995c-0.001,0.577,0.304,0.945,0.738,0.934c0.754-0.019,1.758-0.473,2.732-1.046
					c0.971-0.571,1.949-1.246,2.925-2.025c0.974-0.777,1.914-1.617,2.816-2.517c0.902-0.9,1.716-1.756,2.442-2.568
					c0.427-0.476,0.798-0.913,1.112-1.304c0.314-0.39,0.642-0.964,0.823-1.048c0.275-0.128,0.905,0.18,1.008,0.446
					c0.104,0.268,0.084,0.627-0.097,0.861c-0.188,0.244-0.564,0.55-0.894,0.899c-0.333,0.352-0.68,0.735-1.041,1.113
					c-0.83,0.868-1.817,1.826-2.863,2.863c-1.049,1.04-2.179,2.018-3.38,2.938c-1.2,0.919-2.44,1.712-3.719,2.373
					c-1.279,0.661-2.687,0.953-3.866,1.153c-0.665,0.112-1.262,0.059-1.649-0.366c-0.387-0.426-0.654-0.982-0.791-1.664
					c-0.137-0.683-0.171-1.413-0.1-2.185c0.071-0.77,0.426-1.922,0.426-1.922c-0.007-0.004-0.825,0.931-1.42,1.672
					c-0.596,0.742-1.282,1.476-2.058,2.199c-0.77,0.719-1.593,1.347-2.464,1.877C440.419,223.915,439.464,224.22,438.662,224.102z
					 M449.389,203.163c-0.331-0.163-1.041,0.062-1.882,0.585c-0.838,0.522-1.75,1.257-2.711,2.205
					c-0.96,0.947-1.934,2.057-2.905,3.32c-0.971,1.262-1.781,2.582-2.446,3.905c-0.5,0.995-0.896,1.994-1.157,2.986
					s-0.392,1.904-0.397,2.728c-0.006,0.824,0.111,1.525,0.352,2.09c0.241,0.565,0.611,0.923,1.105,1.077
					c0.397,0.123,1.034-0.166,1.919-0.882c0.884-0.715,1.842-1.673,2.88-2.879c1.039-1.204,2.048-2.561,3.036-4.067
					c0.988-1.509,1.794-2.985,2.411-4.427c0.616-1.44,0.957-2.758,1.014-3.949C450.665,204.664,450.199,203.561,449.389,203.163z"/>
				<path fill="#FFFFFF" d="M462.331,226.802c-1.132-0.196-2.113-0.688-2.712-1.132c-0.604-0.448-0.947-1.036-1.027-1.758
					c-0.08-0.725,0.06-1.621,0.43-2.688c0.369-1.063,0.909-2.393,1.625-3.976c0.715-1.583,1.579-3.459,2.591-5.619
					c1.013-2.162,2.015-4.986,3.323-7.597c0.246-0.491,0.672-0.776,1.102-0.804c0.431-0.029,0.824,0.064,1.175,0.283
					c0.348,0.217,0.619,0.537,0.805,0.949c0.185,0.41,0.176,0.811,0.003,1.183c-0.995,2.136-1.994,4.393-3.086,6.529
					c-1.092,2.137-2.007,4.06-2.747,5.766c-0.739,1.705-1.168,3.125-1.287,4.253c-0.12,1.131,0.466,1.976,1.313,2.005
					c0.615,0.021,1.582-0.381,2.528-0.837c0.95-0.458,1.936-1.003,2.948-1.631c1.012-0.629,2.016-1.301,2.998-2.015
					c0.982-0.714,1.877-1.395,2.672-2.042c0.794-0.647,1.479-1.214,2.039-1.703c0.556-0.486,0.923-0.844,1.076-0.961
					c0.359-0.273,0.847-0.306,1.211-0.136c0.362,0.169,0.533,0.719,0.322,1.076c-0.204,0.344-1.021,0.914-1.862,1.609
					c-0.841,0.695-1.807,1.457-2.895,2.285c-1.088,0.827-2.241,1.655-3.45,2.487c-1.211,0.833-2.393,1.592-3.54,2.281
					c-1.145,0.688-2.202,1.243-3.174,1.656C463.737,226.68,462.891,226.899,462.331,226.802z M469.37,196.266
					c0.304-0.493,0.713-0.798,1.226-0.874c0.516-0.076,0.985-0.01,1.409,0.202c0.429,0.214,0.743,0.564,0.942,1.047
					c0.199,0.484,0.12,1.05-0.138,1.659c-0.219,0.518-0.581,0.852-1.106,0.925c-0.527,0.073-1.032-0.006-1.501-0.234
					c-0.472-0.229-0.828-0.592-1.062-1.078C468.905,197.428,468.995,196.874,469.37,196.266z"/>
				<path fill="#FFFFFF" d="M482.732,206.678c0.768-0.499,1.443-0.732,2.02-0.698c0.581,0.035,1.053,0.179,1.422,0.436
					c0.367,0.257,0.623,0.564,0.756,0.91c0.133,0.346,0.141,0.59,0.024,0.722c-0.899,1.713-1.347,2.571-2.238,4.287
					c0.106-0.02,0.455-0.215,1.054-0.586c0.598-0.37,1.342-0.788,2.226-1.245c0.883-0.456,1.872-0.902,2.966-1.336
					c1.092-0.433,2.182-0.731,3.266-0.894c1.083-0.163,2.118-0.126,3.101,0.116c0.985,0.242,1.851,0.799,2.498,1.657
					c0.291,0.386,0.48,0.866,0.564,1.395c0.084,0.53,0.08,1.078-0.01,1.628c-0.091,0.556-0.293,1.094-0.599,1.611
					c-0.307,0.519-0.702,0.949-1.142,1.297c-0.304,0.241-0.637,0.387-0.994,0.406c-0.361,0.02-0.667-0.049-0.918-0.202
					c-0.249-0.152-0.418-0.366-0.502-0.642c-0.084-0.277,0.004-0.602,0.248-0.969c0.555-0.838,0.957-1.602,1.213-2.269
					c0.256-0.664,0.071-1.268-0.543-1.812c-0.431-0.381-1.053-0.545-1.866-0.485c-0.814,0.06-1.792,0.311-2.938,0.753
					c-1.143,0.44-2.478,1.065-3.992,1.872c-1.513,0.806-3.194,1.767-5.027,2.882c-2.397,5.189-3.58,7.788-5.914,12.992
					c-0.434,0.419-0.893,0.65-1.37,0.699c-0.48,0.049-0.912,0.017-1.292-0.094c-0.38-0.112-0.691-0.281-0.933-0.493
					c-0.239-0.21-0.325-0.371-0.251-0.477C477.154,219.537,478.988,215.244,482.732,206.678z"/>
				<path fill="#FFFFFF" d="M499.569,233.577c-1.57-0.188-2.868-0.674-3.757-1.28c-0.885-0.602-1.489-1.329-1.8-2.168
					c-0.311-0.838-0.384-1.76-0.222-2.758c0.162-0.999,0.49-2.01,0.987-3.025c0.5-1.02,1.114-2.013,1.846-2.982
					c0.73-0.967,1.596-1.858,2.332-2.663c0.542-0.592,1.224-1.355,2.061-2.087c0.835-0.731,1.745-1.434,2.718-2.108
					c0.972-0.674,1.987-1.278,3.034-1.8c1.049-0.523,2.074-0.898,3.06-1.127c0.988-0.229,1.899-0.259,2.722-0.093
					c0.822,0.166,1.533,0.594,2.041,1.268c0.444,0.588,0.547,1.265,0.322,1.961c-0.224,0.697-0.675,1.418-1.349,2.169
					c-0.673,0.748-1.536,1.501-2.577,2.257c-1.044,0.759-2.166,1.487-3.363,2.191c-1.196,0.703-2.435,1.371-3.715,2.002
					c-1.28,0.631-2.998,1.12-3.646,1.687c-0.911,0.797-1.386,2.742-1.474,3.719c-0.087,0.979,0.086,1.753,0.519,2.324
					c0.43,0.567,1.071,0.952,1.924,1.139c0.851,0.186,1.792,0.251,2.824,0.19c1.026-0.061,2.092-0.235,3.189-0.524
					c1.097-0.287,2.155-0.606,3.019-1.013c1.954-0.92,3.591-1.994,4.768-2.87c1.173-0.873,2.093-1.658,2.748-2.349
					c0.652-0.688,1.132-1.267,1.433-1.727c0.301-0.459,0.662-0.798,0.908-1.022c0.203-0.185,0.401-0.37,0.596-0.419
					c0.193-0.047,0.363-0.028,0.502,0.057c0.141,0.087,0.249,0.213,0.328,0.377c0.079,0.164,0.104,0.393,0.025,0.535
					c-0.96,1.709-3.182,3.46-4.768,4.826c-1.583,1.364-3.245,2.472-4.991,3.321c-1.743,0.849-3.615,1.444-5.625,1.79
					C504.18,233.72,501.887,233.854,499.569,233.577z M512.688,213.999c-0.183-0.369-0.721-0.532-1.368-0.414
					c-0.649,0.119-1.377,0.41-2.182,0.868c-0.805,0.458-1.647,1.044-2.524,1.749c-0.88,0.707-1.701,1.439-2.456,2.187
					c-0.758,0.75-1.423,1.487-1.991,2.212c-0.566,0.722-1.127,1.825-1.127,1.825c0.049,0.056,1.353-0.4,2.198-0.76
					c0.847-0.361,1.731-0.781,2.644-1.26c0.914-0.48,1.816-1.007,2.697-1.585c0.882-0.579,1.648-1.152,2.297-1.722
					c0.647-0.568,1.149-1.122,1.504-1.648C512.735,214.92,512.867,214.361,512.688,213.999z"/>
			</g>
		</g>
		<path fill="#FFFFFF" d="M488.16,231.181c-0.232,1.681-0.254,3.307,0.568,4.834c0.898,1.676,2.338,2.988,3.795,4.176
			c1.621,1.32,3.357,2.484,5.133,3.584c0.998,0.617,2.012,1.211,3.027,1.799c0.926,0.537,1.857,1.064,2.785,1.594
			c2.129,1.209,9.162,5.232,10.187,6.223c2.658,2.563,0.713,4.895-2.336,4.949c-4.123,0.072-7.996-1.27-11.969-2.379
			c0,0-18.027-5.554-36.857-9.905c-12.941-2.991-20.473-4.503-27.531-5.213l5.234-1.192c0,0,4.441,2,20.107,5.168
			c11.979,2.424,25.387,5.748,39.207,9.925c0,0,10.818,3.643,11.74,0.216c0.131-0.478,0.02-1.27-0.57-1.892
			c-1.529-1.608-2.588-2.271-4.211-3.322c-4.756-3.075-9.965-5.497-14.416-9.033c-2.027-1.607-4.303-3.695-5.062-6.255
			c-0.168-0.58-0.27-1.218-0.07-1.804c0.1-0.296,0.283-0.662,0.504-0.88C487.717,231.487,488.012,231.316,488.16,231.181z"/>
		<path fill="#FFFFFF" d="M227.561,182.595c0,0,8.758-1.859,8.743-8.959c-0.004-1.086-0.193-2.361-0.788-3.688
			c0,0-2.012-6.676-12.226-3.947c0,0-20.001,5.227-28.503,23.504c-0.319,0.69-0.423,1.416-0.638,2.104c0,0-3.048,9.979,4.004,15.012
			c0,0,3.993,3.082,8.092,1.025c0,0-17.733,15.678-18.588,33.896c0,0-0.259,12.948,13.076,16.587
			c5.197,1.421,11.152-0.545,15.534-3.179c5.136-3.082,17.578-7.782,20.109-8.795c12.453-4.981,25.65-7.784,38.828-10.062
			c3.866-0.667,7.743-1.29,11.616-1.915c10.234-1.652,20.677-2.377,31.027-2.671c15.963-0.454,31.919-0.064,47.825,1.38
			c11.168,1.016,16.934,1.612,27.965,3.612c-0.346-0.171-1.262-1.381-3.039-2.271c-0.719-0.359-2.158-0.672-2.158-0.672
			s-42.855-9.51-106.021-1.967c-1.385,0.207-2.769,0.406-4.152,0.651c-11.067,1.96-22.09,4.261-32.93,7.249
			c-2.98,0.824-5.938,1.713-8.867,2.702c-5.477,1.852-10.818,4.057-16.129,6.345c-5.156,2.223-10.539,3.77-16.061,1.736
			c-1.982-0.73-3.713-1.859-5.23-3.33c-5.038-4.879-4.104-13.459-1.82-19.371c4.032-10.436,10.655-19.198,19.599-25.833l6.504-4.808
			c0,0,0.484-0.611,0.033-1.127l-0.324-0.243c0,0-6.045,4.241-9.94,5.316c0,0-5.264,2.159-8.663-0.638
			c-4.711-3.869-2.943-11.027,0.05-15.357c5.032-7.292,12.839-13.822,21.319-16.551c0,0,5.686-1.832,8.558,2.479
			c0,0,0.382,0.812,0.507,1.26c0.572,2.047,0.48,7.943-6.893,9.856C227.978,181.926,227.116,182.212,227.561,182.595z"/>
	</g>
	<g>
		<path fill="#FFFFFF" d="M392.115,257.479c-0.012-1.758-0.258-2.244-1.902-2.24c-17.68,0.177-25.002,15.668-25.002,15.668
			c-0.033-3.18-0.074-10.428-0.082-11.953c-0.021-1.801-0.105-2.415-1.812-2.361c-10.011,0.256-15.414,0.287-26.097,0.891
			c-1.584,0.109-1.893,0.378-1.887,2.016c0,2.178,0.035,6.533,0.058,8.477c0,1.735,0.177,2.062,1.69,2.494
			c1.443,0.446,6.113,1.421,6.168,10.389c0.043,8.025,0.494,65.443,0.518,68.66c0.089,13.789-4.828,12.933-8.297,14.82
			c-1.132,0.604-1.237,0.781-1.25,2.531c0.062,2.472,0.065,6.172,0.127,8.762c-0.023,1.38,0.726,1.638,1.647,1.529
			c12.05-1.143,27.387-1.209,40.655-0.344c1.35,0.078,1.566-0.585,1.545-2.024l-0.084-8.684c-0.027-1.309-0.213-1.639-1.164-2.198
			c-5.23-2.791-10.978-1.039-11.102-14.08c-0.027-2.585-0.52-62.001-0.531-64.35c-0.02-1.424,0.332-2.129,1.691-2.153
			c15.172-0.156,14.383,23.977,14.408,26.241c0.029,1.831,0.871,2.182,2.445,1.455l7.346-4.566c1.676-0.867,1.281-1.652,1.26-3.311
			C392.463,303.147,392.15,261.056,392.115,257.479"/>
		<path fill="#FFFFFF" d="M328.214,257.171c-0.029-1.541-0.349-1.965-2.135-1.965c-15.108,0.236-24.997,19.031-24.997,19.031
			s-0.052-8.834-0.076-11.139c0.012-1.971-0.344-2.444-1.877-2.133c-10.128,1.962-19.061,4.158-27.304,6.432
			c-1.513,0.424-1.671,0.354-1.654,2.344l0.012,8.787c0,1.567,0.345,1.674,1.732,1.946c7.563,1.28,7.222,10.278,7.121,12.601
			c-0.091,2.334,0.342,63.383,0.396,66.254c0.078,12.395-4.45,15.805-7.237,17.002c-1.46,0.65-1.485,1.034-1.472,2.472l0.08,9.101
			c0.009,1.697,0.718,2.014,1.981,1.607c14.44-4.675,24.9-7.477,39.44-10.369c1.414-0.258,1.652-0.807,1.617-2.352l-0.06-8.527
			c0-1.603-0.134-2.011-1.587-2.184c-6.094-0.795-10.571,0.346-10.685-11.073c-0.028-5.478-0.398-63.095-0.392-66.29
			c-0.02-1.678,0.415-2.18,2.001-2.183c15.018-0.272,14.2,22.603,14.2,25.189c0.02,1.684,0.909,2.278,2.159,1.504l7.855-4.92
			c1.296-0.738,1.155-0.68,1.143-2.59C328.478,305.716,328.214,259.785,328.214,257.171"/>
		<path fill="#FFFFFF" d="M414.678,251.338c6.316,0.229,11.082-5.876,10.684-13.615c-0.387-7.732-5.848-14.191-12.092-14.437
			c-6.316-0.214-11.096,5.885-10.709,13.668C402.939,244.665,408.404,251.142,414.678,251.338"/>
		<path fill="#FFFFFF" d="M436.076,375.157c-2.912-1.703-7.576-2.42-7.709-15.299c-0.135-6.531-1.004-93.014-1.004-93.014
			c0.023-1.625-0.195-2.027-1.479-2.31c-11.848-2.528-16.75-3.508-26.478-4.959c-1.398-0.201-1.822,0.469-1.807,1.811
			c0,1.398,0.027,6.336,0.049,8.76c0.012,1.961,0.486,1.996,1.713,2.434c1.178,0.444,6.088,2.11,6.189,10.593
			c0,0,0.5,52.28,0.654,68.45c0.227,16.215-4.852,14.487-8.205,15.113c-1.227,0.264-1.535,0.59-1.535,2.148l0.076,8.607
			c0.016,1.329,0.578,1.807,1.904,2.068c13.664,2.156,22.451,4.5,37.266,8.693c1.848,0.529,1.891-0.703,1.854-1.943
			c-0.006-1.29-0.127-7.426-0.117-8.709C437.418,376.29,437.404,375.954,436.076,375.157"/>
		<path fill="#FFFFFF" d="M467.242,345.245c2.475,0.971,27.744,10.879,30.393,11.91c1.596,0.645,1.854-0.258,1.891-1.992
			c0.121-10.416,0.135-24.301-0.492-36.518c-1.279-23.331-8.938-37.133-25.785-42.333c-19.357-5.944-29.449,4.368-31.193,31.249
			c-0.537,8.42-0.342,38.639,0.25,49.852c2.039,34.632,17.588,44.184,29.174,47.792c19.99,6.222,28.711-8.066,28.295-33.971
			c0-1.347-0.09-1.809-1.297-2.289L481.42,362.4c-1.164-0.484-1.881,0.046-1.881,1.446l0.152,9.994
			c0.045,4.418,0.355,14.488-7.67,11.785c-7.184-2.401-7.342-11.85-7.422-17.928c0,0-0.186-19.448-0.199-19.688
			C464.371,345.401,464.781,344.281,467.242,345.245 M463.896,310.456c-0.098-7.707-0.197-17.926,7.021-15.085
			c6.748,2.67,6.807,9.746,6.918,20.358c0,1.303,0.164,12.573,0.164,13.975c0,1.082-0.342,1.96-1.766,1.357l-10.959-4.302
			c-0.875-0.392-1.199-0.935-1.23-2.331C464.045,322.792,463.908,312.073,463.896,310.456"/>
		<path fill="#FFFFFF" d="M230.634,350.829l32.789-13.477c1.273-0.5,1.289-0.708,1.33-2.274c0.286-10.806,0.553-21.607-0.175-33.606
			c-1.052-18.322-7.914-32.832-28.848-25.379c-24.383,8.771-28.622,31.316-29.296,55.72c-0.155,5.906-0.123,36.556,0.644,47.343
			c1.451,20.593,9.078,38.809,31.908,29.26c21.939-9.055,26.199-20.875,26-57.955c-0.012-1.656-0.658-2.053-2.066-1.467
			l-17.175,7.225c-1.02,0.445-1.138,0.705-1.138,2.051l0.055,14.008c0.063,4.955,0.132,14.167-7.093,17.098
			c-7.94,3.298-8.008-6.895-8.008-11.87c-0.05-2.159-0.149-21.672-0.159-23.947C229.389,351.99,229.512,351.269,230.634,350.829
			 M229.291,313.099c-0.049-9.139,1.314-14.939,6.48-16.779c6.318-2.248,7.774,3.545,7.79,11.621
			c-0.004,4.349,0.066,12.834,0.057,17.641c0.035,1.362-0.329,2.024-1.099,2.28l-11.457,4.565c-0.905,0.349-1.738-0.022-1.743-1.383
			C229.288,324.408,229.291,318.321,229.291,313.099"/>
		<path fill="#FFFFFF" d="M192.79,403.005c-0.895-0.148-1.092-0.156-1.169-1.452c-0.105-1.288-0.311-91.471-0.311-91.471
			c-0.024-12.229,4.41-11.645,6.936-11.645c1.386,0,2.345-0.406,2.137-3.367c-0.326-6.012-2.98-13.964-7.732-18.605
			c-1.159-1.129-2.278-0.448-2.881,1.505c-2.057,6.795-5.533,7.68-8.266,5.401c-3.207-2.565-2.875-8.366,1.271-12.903
			c1.356-1.438,0.78-3.008-0.603-3.838c-10.025-5.994-28.899-0.262-39.157,14.372c-0.785,1.087-0.691,2.746-0.152,3.248
			c4.622,4.235,4.508,10.16,1.203,13.547c-3.323,3.444-7.225,0.881-7.809-5.497c-0.151-1.713-1.698-1.586-2.687-0.271
			c-4.687,5.862-10.204,14.698-13.706,22.561c-0.599,1.416-0.459,2.078,0.027,3.062c0.593,1.245,2.734,5.366,3.757,6.838
			c0.641,0.902,1.75,1.397,2.649,0.334c4.386-5.275,7.443-3.261,7.464,0.105l0.534,173.129c-0.105,11.439-7.293,10.527-8.863,4.36
			c-0.597-2.366-1.734-2.16-2.952,0.065c-5.848,10.577-0.41,25.898,10.872,25.074c0.842-0.06,0.891,0.071,0.927,0.745
			c0.186,17.322-5.38,18.185-7.534,18.128c-2.753-0.144-2.291,2.184-1.33,4.044c6.225,12.077,27.397,12.893,30.669-14.623
			c0.166-1.058,0.745-1.025,1.6-0.872c14.498,2.945,19.087-17.621,14.857-25.554c-1.467-2.75-2.509-2.414-3.19-0.315
			c-2.559,8.089-12.955,12.73-13.218-3.595l-0.261-50.364c-0.025-1.178,0.89-1.772,1.846-0.552
			c10.406,13.562,31.386,0.665,33.612-24.885c0.509-5.434,5.526-3.815,5.435,7.216c-0.009,1.166,0.653,2.209,2.476,0.544
			C207.43,430.093,209.453,405.583,192.79,403.005 M155.685,420.54c-0.052-8.668-0.269-105.383-0.269-105.383
			c-0.019-13.41,14.204-14.85,14.213-0.369c0.029,6.682,0.267,99.276,0.29,105.314C169.991,434.303,155.737,434.749,155.685,420.54"
			/>
		<path fill="#FFFFFF" d="M536.318,344.453c-0.025-1.544,0.482-1.87,1.723-1.749c12.967,1.267,13.775,33.043,13.805,35.096
			c0.037,1.432,0.791,1.728,1.758,1.111l8.314-5.2c1.057-0.747,1.508-0.917,1.473-2.54c-0.051-4.255-0.723-42.912-0.723-42.912
			c-0.105-1.514,0.016-2.101-1.303-2.753c-13.332-7.107-25.305,2.122-25.305,2.122l-0.184-16.339c0-1.63,0.014-2.12-1.393-2.952
			c-4.379-2.502-22.658-12.358-26.076-14.349c-1.102-0.622-1.602-0.04-1.572,1.323l0.147,10.457
			c0.025,1.271,0.049,1.472,0.824,2.195c2.129,1.98,6.254,5.58,6.428,16.38c0,0,0.977,64.85,1.049,71.46
			c0.275,13.672-3.793,13.574-7.846,12.797c-1.408-0.284-1.699,0.281-1.691,1.772c0.049,1.496,0.139,6.978,0.168,9.074
			c0.051,1.55,0.1,1.711,1.482,2.529c10.07,5.84,26.359,16.418,37.203,23.929c1.506,1.053,2.109,0.181,2.082-1.344l-0.229-12.275
			c-0.023-1.478-0.023-1.468-1.231-2.646c-6.478-6.287-7.6-11.567-7.791-21.073C537.367,406.036,536.318,344.453,536.318,344.453"/>
	</g>
	<g>
		<g>
			<path fill="#FFFFFF" d="M200.76,459.172c0.175-0.878,0.265-1.317,0.448-2.196c0.41,0.231,0.871,0.316,1.383,0.258
				c0.51-0.058,1.001-0.244,1.467-0.561c0.564-0.384,0.933-0.799,1.112-1.247c0.178-0.446,0.139-0.86-0.117-1.243
				c-0.303-0.452-1.16-0.538-2.563-0.23c-0.452,0.099-0.816,0.178-1.087,0.23c-1.288,0.248-2.272,0.312-2.94,0.171
				c-0.669-0.141-1.203-0.493-1.601-1.058c-0.543-0.774-0.615-1.677-0.208-2.702c0.407-1.023,1.223-1.956,2.44-2.78
				c0.707-0.479,1.386-0.788,2.036-0.928c0.649-0.14,1.314-0.123,1.992,0.05c-0.286,0.852-0.427,1.278-0.705,2.131
				c-0.36-0.161-0.731-0.214-1.111-0.157c-0.377,0.057-0.773,0.222-1.18,0.497c-0.492,0.333-0.82,0.706-0.983,1.11
				c-0.161,0.402-0.133,0.767,0.086,1.086c0.344,0.501,1.249,0.547,2.712,0.164c0.291-0.077,0.514-0.133,0.672-0.171
				c1.214-0.289,2.219-0.344,2.996-0.186c0.776,0.158,1.359,0.539,1.752,1.138c0.591,0.901,0.697,1.859,0.328,2.872
				c-0.369,1.01-1.153,1.921-2.361,2.743c-0.856,0.582-1.672,0.959-2.453,1.132C202.094,459.468,201.387,459.428,200.76,459.172z"/>
			<path fill="#FFFFFF" d="M211.111,453.963c-2.486-3.861-3.729-5.792-6.214-9.654c1.161-0.747,1.743-1.117,2.91-1.85
				c1.557-0.977,2.866-1.439,3.909-1.401c1.043,0.038,1.874,0.576,2.494,1.606c0.575,0.955,0.651,1.927,0.243,2.916
				c-0.408,0.989-1.257,1.88-2.55,2.689c-0.272,0.17-0.408,0.255-0.68,0.427c0.934,1.484,1.401,2.226,2.334,3.71
				C212.576,453.023,212.087,453.334,211.111,453.963z M210.204,447.076c0.143-0.09,0.214-0.135,0.357-0.224
				c0.681-0.427,1.101-0.853,1.264-1.279c0.163-0.426,0.085-0.9-0.236-1.421c-0.296-0.48-0.668-0.734-1.114-0.76
				c-0.447-0.027-1.017,0.172-1.706,0.604c-0.144,0.091-0.217,0.136-0.361,0.227C209.127,445.364,209.486,445.934,210.204,447.076z"
				/>
			<path fill="#FFFFFF" d="M217.839,449.762c-0.627-4.988-0.901-7.495-1.371-12.533c1.179-0.685,1.77-1.023,2.956-1.693
				c4.128,2.942,6.159,4.443,10.154,7.503c-1.141,0.618-1.71,0.93-2.846,1.562c-0.852-0.642-1.28-0.961-2.138-1.598
				c-1.822,1.023-2.73,1.543-4.538,2.602c0.167,1.032,0.253,1.547,0.426,2.577C219.422,448.808,218.893,449.124,217.839,449.762z
				 M223.058,441.653c-1.259-0.993-1.891-1.487-3.162-2.47c-0.094-0.075-0.236-0.21-0.428-0.407
				c-0.191-0.196-0.673-0.743-0.673-0.743c-0.007,0.004,0.21,0.693,0.293,0.987c0.082,0.289,0.129,0.491,0.145,0.596
				c0.215,1.567,0.326,2.349,0.556,3.911C221.092,442.768,221.746,442.394,223.058,441.653z"/>
			<path fill="#FFFFFF" d="M239.378,437.981c-1.176,0.578-1.763,0.871-2.934,1.463c-2.216-1.283-3.334-1.915-5.591-3.157
				c0.992,1.902,1.488,2.854,2.48,4.756c-1.01,0.527-1.515,0.794-2.521,1.332c-2.164-4.05-3.247-6.076-5.411-10.126
				c1.498-0.801,2.25-1.196,3.756-1.974c1.497-0.773,2.745-1.096,3.734-0.986c0.989,0.111,1.723,0.657,2.205,1.632
				c0.35,0.707,0.393,1.439,0.14,2.188c-0.253,0.753-0.754,1.367-1.504,1.853C236.012,436.149,237.141,436.753,239.378,437.981z
				 M230.288,435.203c0.154-0.081,0.232-0.121,0.386-0.201c1.046-0.544,1.692-0.995,1.93-1.358c0.239-0.365,0.235-0.789-0.008-1.27
				c-0.255-0.503-0.618-0.769-1.09-0.794c-0.474-0.026-1.217,0.221-2.223,0.744c-0.156,0.081-0.234,0.122-0.391,0.203
				C229.451,433.597,229.73,434.133,230.288,435.203z"/>
			<path fill="#FFFFFF" d="M240.86,437.258c-2.001-4.134-3.001-6.201-5.001-10.335c1.062-0.514,1.594-0.768,2.659-1.271
				c0.887,1.881,1.331,2.822,2.218,4.703c0.747-2.652,1.137-3.978,1.952-6.631c1.241-0.562,1.863-0.839,3.109-1.386
				c-0.963,2.708-1.425,4.064-2.313,6.774c2.867,1.434,4.284,2.168,7.083,3.671c-1.247,0.546-1.869,0.823-3.111,1.386
				c-2.611-1.455-3.932-2.169-6.602-3.565c1.025,2.173,1.537,3.26,2.562,5.433C242.391,436.519,241.88,436.764,240.86,437.258z"/>
			<path fill="#FFFFFF" d="M251.764,432.261c-1.823-4.215-2.734-6.323-4.557-10.538c1.08-0.467,1.62-0.698,2.703-1.153
				c1.457,3.465,2.186,5.197,3.643,8.661c1.673-0.704,2.512-1.049,4.194-1.725c0.311,0.774,0.467,1.161,0.778,1.935
				C255.809,430.532,254.457,431.097,251.764,432.261z"/>
			<path fill="#FFFFFF" d="M260.221,428.765c-1.685-4.272-2.527-6.408-4.212-10.681c1.091-0.43,1.637-0.643,2.731-1.061
				c1.642,4.289,2.463,6.434,4.105,10.722C261.794,428.148,261.269,428.352,260.221,428.765z"/>
			<path fill="#FFFFFF" d="M265.653,426.687c-1.596-4.306-2.395-6.459-3.991-10.766c1.138-0.422,1.707-0.63,2.848-1.039
				c3.181,1.698,4.749,2.569,7.838,4.351c0.221,0.124,0.483,0.318,0.783,0.577c0.302,0.261,0.981,0.951,0.981,0.951
				c0.002-0.001-0.323-0.606-0.456-0.913c-0.134-0.309-0.281-0.701-0.439-1.178c-0.81-2.439-1.215-3.658-2.024-6.097
				c1.058-0.351,1.587-0.524,2.647-0.865c1.405,4.372,2.108,6.558,3.514,10.931c-1.046,0.336-1.569,0.507-2.612,0.854
				c-3.122-1.832-4.707-2.727-7.925-4.472c-0.224-0.119-0.491-0.306-0.796-0.56c-0.306-0.254-1.022-0.937-1.022-0.937
				c-0.002,0.002,0.333,0.585,0.478,0.891c0.144,0.307,0.3,0.701,0.473,1.183c0.888,2.468,1.332,3.701,2.22,6.169
				C267.162,426.131,266.659,426.315,265.653,426.687z"/>
			<path fill="#FFFFFF" d="M284.699,414.091c2.341-0.667,3.514-0.987,5.865-1.604c0.027,0.062,0.054,0.131,0.076,0.206
				c0.022,0.075,0.055,0.192,0.096,0.348c0.436,1.664,0.239,3.155-0.569,4.476c-0.808,1.321-2.055,2.215-3.758,2.7
				c-1.951,0.556-3.711,0.485-5.307-0.217c-1.595-0.702-2.665-1.879-3.187-3.55c-0.517-1.658-0.3-3.232,0.681-4.717
				c0.979-1.484,2.488-2.526,4.51-3.102c1.066-0.304,2.1-0.388,3.091-0.253c0.992,0.135,1.937,0.488,2.831,1.056
				c-0.626,0.672-0.937,1.009-1.556,1.685c-0.601-0.368-1.191-0.588-1.765-0.664c-0.574-0.076-1.203-0.02-1.88,0.172
				c-1.285,0.365-2.21,1.004-2.775,1.907c-0.564,0.904-0.669,1.923-0.329,3.055c0.334,1.111,0.981,1.895,1.937,2.356
				c0.956,0.46,2.033,0.517,3.245,0.172c0.886-0.252,1.556-0.638,2.009-1.155c0.452-0.516,0.603-1.073,0.442-1.662
				c-0.013-0.049-0.02-0.073-0.033-0.122c-1.229,0.335-1.843,0.506-3.069,0.856C285.032,415.258,284.921,414.869,284.699,414.091z"
				/>
			<path fill="#FFFFFF" d="M299.708,416.462c-1.041-4.473-1.562-6.709-2.603-11.182c1.173-0.273,1.759-0.406,2.934-0.666
				c2.923,2.09,4.36,3.153,7.183,5.314c0.202,0.151,0.436,0.377,0.699,0.672c0.266,0.298,0.848,1.068,0.848,1.068
				c0.002-0.001-0.243-0.642-0.335-0.963c-0.093-0.323-0.191-0.731-0.288-1.223c-0.497-2.521-0.745-3.782-1.241-6.303
				c1.086-0.214,1.629-0.318,2.717-0.521c0.845,4.514,1.267,6.771,2.113,11.285c-1.072,0.2-1.608,0.303-2.679,0.514
				c-2.849-2.214-4.301-3.303-7.255-5.444c-0.206-0.147-0.444-0.366-0.714-0.657c-0.27-0.292-0.893-1.059-0.893-1.059
				c-0.002,0.001,0.258,0.622,0.362,0.944c0.105,0.323,0.211,0.732,0.323,1.233c0.57,2.56,0.856,3.84,1.426,6.399
				C301.264,416.103,300.745,416.221,299.708,416.462z"/>
			<path fill="#FFFFFF" d="M313.06,413.697c1.122-4.872,1.724-7.307,3.01-12.172c1.305-0.214,1.957-0.317,3.264-0.516
				c2.756,4.226,4.096,6.354,6.695,10.639c-1.251,0.168-1.876,0.255-3.126,0.437c-0.559-0.904-0.84-1.355-1.405-2.257
				c-2.007,0.3-3.009,0.459-5.012,0.795c-0.198,1.022-0.296,1.533-0.488,2.555C314.822,413.379,314.234,413.483,313.06,413.697z
				 M320.562,408.018c-0.807-1.378-1.214-2.066-2.035-3.439c-0.061-0.103-0.144-0.28-0.252-0.533
				c-0.108-0.253-0.362-0.935-0.362-0.935c-0.007,0.001-0.044,0.72-0.069,1.026c-0.026,0.301-0.048,0.504-0.069,0.607
				c-0.338,1.538-0.502,2.307-0.825,3.845C318.393,408.351,319.116,408.237,320.562,408.018z"/>
			<path fill="#FFFFFF" d="M330.127,401.668c0.432,3.733,0.648,5.6,1.079,9.333c-1.106,0.128-1.658,0.194-2.763,0.333
				c-0.469-3.729-0.703-5.593-1.172-9.322c-1.301,0.163-1.951,0.248-3.25,0.426c-0.113-0.827-0.17-1.24-0.283-2.067
				c3.766-0.515,5.652-0.743,9.429-1.136c0.087,0.83,0.13,1.245,0.216,2.075C332.081,401.447,331.429,401.518,330.127,401.668z"/>
			<path fill="#FFFFFF" d="M346.614,398.148c0.165,2.853,0.248,4.28,0.413,7.133c0.09,1.556-0.31,2.744-1.188,3.567
				c-0.878,0.824-2.244,1.302-4.102,1.446c-1.886,0.147-3.323-0.113-4.32-0.791c-0.996-0.678-1.576-1.789-1.728-3.341
				c-0.279-2.844-0.418-4.267-0.696-7.111c1.142-0.112,1.712-0.165,2.855-0.265c0.237,2.694,0.356,4.04,0.593,6.734
				c0.083,0.943,0.384,1.633,0.898,2.069c0.515,0.436,1.245,0.614,2.186,0.541c0.947-0.074,1.646-0.365,2.1-0.878
				c0.454-0.517,0.651-1.241,0.587-2.18c-0.183-2.698-0.274-4.047-0.457-6.745C344.899,398.25,345.471,398.215,346.614,398.148z"/>
			<path fill="#FFFFFF" d="M359.509,409.169c-1.279,0.018-1.918,0.031-3.197,0.064c-1.416-2.11-2.137-3.16-3.604-5.252
				c0.081,2.144,0.122,3.216,0.203,5.36c-1.108,0.042-1.662,0.066-2.769,0.118c-0.219-4.587-0.328-6.881-0.547-11.468
				c1.649-0.079,2.474-0.112,4.123-0.167c1.638-0.055,2.875,0.188,3.699,0.712c0.825,0.525,1.244,1.332,1.262,2.42
				c0.013,0.789-0.252,1.467-0.788,2.037c-0.536,0.571-1.233,0.912-2.097,1.029C357.306,406.071,358.049,407.1,359.509,409.169z
				 M352.661,402.759c0.17-0.006,0.254-0.01,0.424-0.016c1.148-0.042,1.903-0.172,2.263-0.398c0.364-0.228,0.537-0.612,0.523-1.151
				c-0.015-0.563-0.225-0.96-0.63-1.185c-0.407-0.227-1.163-0.323-2.266-0.283c-0.171,0.006-0.257,0.009-0.428,0.016
				C352.593,400.95,352.616,401.553,352.661,402.759z"/>
			<path fill="#FFFFFF" d="M359.58,409.168c1.906-4.62,2.899-6.922,4.965-11.508c1.318,0.004,1.977,0.01,3.296,0.029
				c2.015,4.622,2.982,6.942,4.834,11.597c-1.26-0.041-1.89-0.057-3.15-0.084c-0.401-0.984-0.603-1.475-1.011-2.457
				c-2.023-0.035-3.035-0.044-5.059-0.043c-0.364,0.975-0.545,1.463-0.902,2.439C361.363,409.146,360.769,409.151,359.58,409.168z
				 M367.891,404.805c-0.568-1.492-0.855-2.238-1.438-3.727c-0.04-0.112-0.092-0.3-0.158-0.567c-0.066-0.267-0.2-0.981-0.2-0.981
				c-0.007,0-0.161,0.703-0.236,1c-0.075,0.292-0.131,0.489-0.17,0.588c-0.586,1.461-0.875,2.192-1.445,3.656
				C365.703,404.776,366.432,404.783,367.891,404.805z"/>
			<path fill="#FFFFFF" d="M374.035,409.333c0.171-4.589,0.256-6.884,0.427-11.473c1.151,0.043,1.727,0.067,2.878,0.121
				c-0.177,3.754-0.265,5.631-0.441,9.386c1.781,0.084,2.672,0.132,4.452,0.244c-0.052,0.832-0.078,1.249-0.131,2.081
				C378.348,409.512,376.911,409.44,374.035,409.333z"/>
			<path fill="#FFFFFF" d="M387.393,410.146c1.175-4.509,1.778-6.761,3.017-11.259c1.203,0.11,1.805,0.169,3.007,0.291
				c0.76,2.796,1.128,4.195,1.839,6.994c0.038,0.147,0.075,0.359,0.107,0.637c0.032,0.277,0.069,0.946,0.069,0.946
				c0.004,0,0.179-0.659,0.269-0.928c0.09-0.271,0.171-0.47,0.237-0.594c1.333-2.564,2.011-3.842,3.392-6.391
				c1.182,0.145,1.773,0.22,2.953,0.377c0.214,4.661,0.304,6.991,0.453,11.649c-1.043-0.146-1.564-0.217-2.608-0.353
				c-0.017-2.795-0.03-4.193-0.066-6.989c-0.007-0.518-0.009-0.909,0-1.17c0.009-0.26,0.03-0.506,0.058-0.729
				c0.015-0.119,0.028-0.208,0.038-0.267c0.011-0.059,0.032-0.158,0.032-0.158c0,0-0.282,0.812-0.403,1.123
				c-0.121,0.312-0.227,0.549-0.313,0.707c-1.483,2.774-2.21,4.165-3.638,6.956c-0.62-0.071-0.93-0.106-1.55-0.174
				c-0.755-3.036-1.146-4.553-1.958-7.585c-0.018-0.07-0.05-0.263-0.102-0.577c-0.052-0.315-0.119-0.773-0.209-1.377
				c-0.013,0.135-0.02,0.202-0.033,0.337c-0.052,0.531-0.171,1.176-0.351,1.935c-0.006,0.012-0.009,0.019-0.014,0.031
				c-0.652,2.719-0.974,4.079-1.608,6.801C388.964,410.282,388.441,410.235,387.393,410.146z"/>
			<path fill="#FFFFFF" d="M404.572,412.133c0.668-4.543,1.003-6.815,1.671-11.359c1.143,0.168,1.714,0.254,2.855,0.434
				c-0.713,4.537-1.07,6.805-1.783,11.342C406.219,412.377,405.67,412.294,404.572,412.133z"/>
			<path fill="#FFFFFF" d="M410.24,413.024c0.761-4.529,1.141-6.793,1.902-11.323c1.184,0.199,1.776,0.301,2.958,0.512
				c1.889,3.052,2.805,4.585,4.58,7.665c0.127,0.216,0.26,0.517,0.388,0.889c0.127,0.373,0.369,1.311,0.369,1.311
				c0.003,0,0.023-0.685,0.061-1.018c0.038-0.335,0.106-0.748,0.206-1.24c0.512-2.518,0.768-3.777,1.28-6.296
				c1.083,0.22,1.625,0.333,2.707,0.563c-0.957,4.492-1.436,6.738-2.393,11.229c-1.068-0.227-1.602-0.338-2.671-0.555
				c-1.778-3.139-2.697-4.702-4.595-7.812c-0.134-0.215-0.272-0.509-0.408-0.881c-0.136-0.374-0.414-1.321-0.414-1.321
				c-0.002,0,0,0.674-0.029,1.011c-0.029,0.337-0.086,0.757-0.176,1.262c-0.459,2.582-0.688,3.873-1.147,6.455
				C411.812,413.29,411.288,413.2,410.24,413.024z"/>
			<path fill="#FFFFFF" d="M425.131,415.936c1.004-4.481,1.505-6.722,2.509-11.204c3.116,0.697,4.67,1.067,7.77,1.85
				c-0.203,0.803-0.304,1.204-0.507,2.007c-1.959-0.495-2.941-0.733-4.906-1.194c-0.215,0.92-0.323,1.38-0.539,2.299
				c1.95,0.456,2.923,0.693,4.866,1.184c-0.204,0.809-0.307,1.213-0.511,2.022c-1.929-0.487-2.896-0.722-4.831-1.175
				c-0.263,1.121-0.394,1.681-0.657,2.802c1.916,0.449,2.873,0.681,4.783,1.164c-0.204,0.809-0.307,1.213-0.511,2.022
				C429.618,416.961,428.125,416.605,425.131,415.936z"/>
			<path fill="#FFFFFF" d="M444.345,420.951c-1.235-0.37-1.854-0.551-3.093-0.906c-0.73-2.441-1.109-3.661-1.893-6.1
				c-0.566,2.069-0.85,3.104-1.416,5.173c-1.077-0.295-1.617-0.439-2.696-0.723c1.168-4.441,1.753-6.662,2.921-11.103
				c1.608,0.423,2.411,0.64,4.015,1.086c1.593,0.443,2.711,1.051,3.346,1.798c0.638,0.751,0.797,1.648,0.488,2.691
				c-0.224,0.757-0.683,1.323-1.371,1.704c-0.687,0.381-1.463,0.495-2.332,0.345C443.154,417.329,443.56,418.536,444.345,420.951z
				 M439.682,412.766c0.166,0.045,0.249,0.068,0.414,0.114c1.116,0.307,1.88,0.411,2.294,0.304c0.418-0.107,0.703-0.42,0.851-0.939
				c0.155-0.542,0.07-0.983-0.252-1.322c-0.322-0.337-1.017-0.659-2.092-0.954c-0.167-0.046-0.251-0.069-0.419-0.115
				C440.16,411.019,440.001,411.601,439.682,412.766z"/>
			<path fill="#FFFFFF" d="M444.413,420.972c3.225-3.828,4.875-5.723,8.246-9.468c1.27,0.405,1.904,0.611,3.17,1.03
				c0.554,5.022,0.79,7.529,1.178,12.534c-1.205-0.424-1.808-0.632-3.017-1.041c-0.09-1.06-0.137-1.59-0.235-2.651
				c-1.943-0.65-2.917-0.966-4.868-1.58c-0.644,0.819-0.965,1.23-1.603,2.053C446.138,421.491,445.563,421.316,444.413,420.972z
				 M453.737,419.335c-0.098-1.596-0.151-2.394-0.264-3.992c-0.005-0.119-0.002-0.316,0.016-0.59
				c0.018-0.273,0.104-0.996,0.104-0.996c-0.007-0.002-0.369,0.621-0.53,0.881c-0.16,0.256-0.273,0.427-0.339,0.509
				c-1.005,1.215-1.504,1.825-2.495,3.047C451.634,418.642,452.336,418.87,453.737,419.335z"/>
			<path fill="#FFFFFF" d="M458.308,425.529c1.544-4.325,2.317-6.487,3.861-10.813c1.101,0.393,1.65,0.592,2.748,0.997
				c-1.299,3.527-1.948,5.29-3.248,8.817c1.697,0.625,2.544,0.945,4.233,1.598c-0.301,0.778-0.451,1.167-0.752,1.945
				C462.424,427.018,461.055,426.51,458.308,425.529z"/>
			<path fill="#FFFFFF" d="M485.23,424.075c-0.291,2.605-0.445,3.906-0.769,6.502c-0.051,0.415-0.122,0.853-0.213,1.311
				c-0.091,0.458-0.365,1.516-0.365,1.516c0.002,0.001,0.451-0.833,0.709-1.22c0.259-0.389,0.554-0.769,0.881-1.135
				c1.693-1.957,2.545-2.932,4.264-4.872c1.051,0.501,1.575,0.755,2.622,1.267c-3.315,3.491-4.949,5.253-8.168,8.809
				c-0.985-0.467-1.479-0.698-2.468-1.155c0.368-3.057,0.541-4.589,0.862-7.66c0.03-0.353,0.085-0.699,0.162-1.035
				c0.077-0.338,0.309-1.024,0.309-1.024c-0.001,0-0.385,0.654-0.584,0.941c-0.199,0.287-0.412,0.549-0.633,0.782
				c-2.091,2.273-3.126,3.417-5.174,5.718c-0.996-0.437-1.494-0.652-2.493-1.079c0.532-4.766,0.771-7.157,1.195-11.95
				c1.085,0.448,1.627,0.674,2.708,1.133c-0.329,2.631-0.502,3.945-0.861,6.568c-0.054,0.374-0.141,0.769-0.254,1.186
				c-0.112,0.413-0.425,1.331-0.425,1.331c0.004,0.002,0.901-1.251,1.593-2.061c0.043-0.053,0.065-0.079,0.108-0.132
				c1.726-1.982,2.597-2.968,4.352-4.931C483.647,423.356,484.175,423.594,485.23,424.075z"/>
			<path fill="#FFFFFF" d="M487.258,437.731c3.831-3.238,5.781-4.831,9.747-7.961c1.205,0.616,1.806,0.928,3.006,1.56
				c-0.242,5.062-0.404,7.583-0.807,12.602c-1.138-0.626-1.709-0.935-2.853-1.547c0.077-1.064,0.114-1.597,0.184-2.664
				c-1.839-0.975-2.762-1.453-4.615-2.392c-0.774,0.701-1.16,1.052-1.929,1.757C488.9,438.538,488.353,438.267,487.258,437.731z
				 M496.841,437.7c0.154-1.596,0.228-2.394,0.367-3.994c0.014-0.118,0.05-0.312,0.112-0.579c0.062-0.268,0.258-0.97,0.258-0.97
				c-0.007-0.004-0.463,0.553-0.668,0.782c-0.201,0.226-0.343,0.375-0.419,0.446c-1.198,1.031-1.793,1.548-2.979,2.588
				C494.847,436.655,495.513,437,496.841,437.7z"/>
			<path fill="#FFFFFF" d="M508.567,438.419c-1.872,3.259-2.808,4.888-4.679,8.146c-0.995-0.572-1.494-0.855-2.493-1.416
				c1.839-3.277,2.758-4.916,4.596-8.194c-1.178-0.661-1.768-0.988-2.952-1.635c0.4-0.732,0.6-1.099,0.999-1.831
				c3.43,1.874,5.133,2.841,8.514,4.838c-0.424,0.719-0.636,1.078-1.06,1.797C510.326,439.434,509.741,439.093,508.567,438.419z"/>
			<path fill="#FFFFFF" d="M508.335,449.176c2.36-3.939,3.54-5.909,5.9-9.849c2.821,1.691,4.223,2.559,7.007,4.336
				c-0.445,0.698-0.668,1.047-1.113,1.745c-1.761-1.124-2.646-1.678-4.422-2.767c-0.494,0.805-0.74,1.208-1.234,2.013
				c1.762,1.081,2.639,1.63,4.386,2.745c-0.449,0.703-0.673,1.055-1.122,1.759c-1.734-1.107-2.605-1.652-4.355-2.725
				c-0.602,0.981-0.902,1.472-1.504,2.454c1.732,1.062,2.594,1.602,4.311,2.698c-0.449,0.703-0.673,1.055-1.121,1.758
				C512.393,451.635,511.046,450.801,508.335,449.176z"/>
			<path fill="#FFFFFF" d="M525.549,460.365c-1.095-0.77-1.644-1.151-2.746-1.906c0.037-2.575,0.043-3.867,0.027-6.456
				c-1.19,1.785-1.785,2.677-2.975,4.462c-0.961-0.641-1.443-0.959-2.409-1.589c2.509-3.847,3.763-5.77,6.271-9.616
				c1.439,0.939,2.156,1.415,3.585,2.377c1.419,0.955,2.325,1.91,2.718,2.84c0.392,0.931,0.273,1.841-0.35,2.733
				c-0.452,0.647-1.073,1.034-1.865,1.165c-0.792,0.132-1.583-0.02-2.382-0.452C525.5,456.507,525.525,457.795,525.549,460.365z
				 M523.508,450.986c0.148,0.099,0.222,0.148,0.37,0.247c0.994,0.665,1.713,1.024,2.151,1.061c0.439,0.037,0.812-0.168,1.117-0.613
				c0.318-0.465,0.373-0.917,0.166-1.342c-0.211-0.433-0.798-0.974-1.755-1.615c-0.15-0.1-0.224-0.15-0.374-0.25
				C524.513,449.479,524.178,449.982,523.508,450.986z"/>
			<path fill="#FFFFFF" d="M260.68,440.202c-0.677-0.203-1.323-0.286-1.935-0.253c-0.614,0.033-1.227,0.179-1.836,0.438
				c-1.252,0.533-2.1,1.305-2.542,2.298c-0.442,0.994-0.407,2.055,0.096,3.182c0.491,1.103,1.22,1.827,2.172,2.18
				c0.954,0.354,2.005,0.281,3.16-0.213c0.66-0.282,1.228-0.641,1.709-1.083c0.482-0.443,0.881-0.97,1.199-1.579
				c0.376,0.934,0.564,1.401,0.94,2.334c-0.401,0.497-0.855,0.935-1.361,1.311c-0.507,0.377-1.07,0.698-1.692,0.964
				c-1.801,0.77-3.497,0.899-5.117,0.382c-1.62-0.518-2.806-1.563-3.534-3.155c-0.727-1.588-0.738-3.171-0.008-4.743
				c0.73-1.571,2.059-2.782,3.969-3.598c0.64-0.273,1.286-0.475,1.933-0.604c0.651-0.13,1.317-0.188,2.004-0.176
				C260.173,438.813,260.342,439.276,260.68,440.202z"/>
			<path fill="#FFFFFF" d="M264.816,447.688c0.003-4.958,0.044-7.445,0.208-12.431c1.168-0.45,1.752-0.672,2.924-1.108
				c3.452,3.615,5.142,5.446,8.448,9.151c-1.122,0.395-1.682,0.596-2.801,1.004c-0.707-0.78-1.063-1.169-1.777-1.944
				c-1.796,0.663-2.691,1.003-4.477,1.7c0.033,1.034,0.051,1.55,0.09,2.583C266.383,447.054,265.86,447.263,264.816,447.688z
				 M270.566,440.765c-1.04-1.196-1.564-1.793-2.617-2.981c-0.075-0.09-0.191-0.246-0.344-0.473
				c-0.154-0.228-0.533-0.847-0.533-0.847c-0.006,0.002,0.111,0.713,0.152,1.013c0.04,0.299,0.063,0.503,0.065,0.606
				c0.012,1.564,0.022,2.345,0.049,3.906C268.626,441.491,269.272,441.246,270.566,440.765z"/>
			<path fill="#FFFFFF" d="M277.609,442.875c-1.504-4.339-2.256-6.509-3.761-10.849c1.186-0.411,1.78-0.613,2.969-1.01
				c1.585-0.529,2.85-0.633,3.782-0.327c0.929,0.305,1.574,1.038,1.935,2.185c0.334,1.063,0.218,2.014-0.337,2.854
				c-0.555,0.841-1.488,1.474-2.803,1.911c-0.277,0.092-0.415,0.138-0.692,0.231c0.558,1.663,0.837,2.494,1.394,4.156
				C279.1,442.361,278.603,442.531,277.609,442.875z M278.094,436.058c0.146-0.049,0.22-0.074,0.366-0.123
				c0.689-0.23,1.149-0.527,1.377-0.893c0.228-0.367,0.249-0.842,0.06-1.424c-0.174-0.536-0.462-0.876-0.859-1.017
				c-0.397-0.141-0.948-0.098-1.646,0.135c-0.148,0.049-0.222,0.074-0.371,0.124C277.45,434.139,277.665,434.778,278.094,436.058z"
				/>
			<path fill="#FFFFFF" d="M288.4,429.603c1.039,3.612,1.559,5.418,2.598,9.029c-1.004,0.289-1.505,0.436-2.506,0.734
				c-1.075-3.601-1.613-5.402-2.688-9.003c-1.182,0.353-1.773,0.533-2.952,0.899c-0.248-0.797-0.372-1.195-0.62-1.992
				c3.42-1.063,5.137-1.566,8.582-2.514c0.222,0.804,0.333,1.207,0.554,2.011C290.18,429.095,289.586,429.262,288.4,429.603z"/>
			<path fill="#FFFFFF" d="M303.115,423.675c0.631,2.788,0.946,4.182,1.577,6.969c0.344,1.52,0.172,2.749-0.504,3.695
				c-0.675,0.944-1.854,1.616-3.549,2.035c-1.724,0.426-3.097,0.385-4.136-0.135c-1.039-0.521-1.767-1.528-2.171-3.033
				c-0.742-2.76-1.113-4.141-1.855-6.901c1.042-0.28,1.564-0.417,2.609-0.687c0.676,2.618,1.014,3.928,1.69,6.546
				c0.237,0.916,0.632,1.55,1.184,1.903c0.551,0.353,1.256,0.421,2.116,0.208c0.865-0.214,1.463-0.606,1.796-1.181
				c0.333-0.574,0.395-1.318,0.178-2.234c-0.623-2.632-0.934-3.948-1.557-6.579C301.541,424.034,302.066,423.912,303.115,423.675z"
				/>
			<path fill="#FFFFFF" d="M316.871,432.594c-1.176,0.212-1.763,0.322-2.937,0.548c-1.657-1.866-2.497-2.793-4.203-4.633
				c0.431,2.102,0.647,3.152,1.078,5.254c-1.016,0.208-1.523,0.315-2.538,0.533c-0.968-4.49-1.452-6.734-2.419-11.224
				c1.515-0.326,2.273-0.484,3.791-0.788c1.507-0.302,2.692-0.251,3.541,0.14c0.85,0.391,1.371,1.125,1.568,2.195
				c0.142,0.775,0.011,1.487-0.392,2.13c-0.404,0.644-0.992,1.087-1.771,1.333C314.327,429.873,315.183,430.776,316.871,432.594z
				 M309.485,427.308c0.156-0.032,0.234-0.048,0.39-0.08c1.052-0.214,1.73-0.455,2.027-0.734c0.297-0.279,0.396-0.684,0.293-1.213
				c-0.107-0.553-0.369-0.91-0.78-1.072c-0.412-0.162-1.128-0.145-2.142,0.062c-0.158,0.032-0.237,0.048-0.395,0.081
				C309.121,425.534,309.242,426.125,309.485,427.308z"/>
			<path fill="#FFFFFF" d="M318.353,432.331c-0.791-4.524-1.187-6.786-1.978-11.31c2.931-0.512,4.4-0.748,7.342-1.18
				c0.121,0.82,0.181,1.23,0.302,2.05c-1.859,0.273-2.788,0.418-4.644,0.723c0.154,0.932,0.23,1.398,0.384,2.33
				c1.839-0.303,2.76-0.446,4.603-0.716c0.121,0.825,0.182,1.238,0.303,2.063c-1.829,0.269-2.743,0.411-4.568,0.711
				c0.187,1.135,0.281,1.703,0.468,2.839c1.806-0.297,2.709-0.438,4.519-0.703c0.121,0.825,0.182,1.238,0.303,2.064
				C322.568,431.614,321.161,431.84,318.353,432.331z"/>
			<path fill="#FFFFFF" d="M327.897,430.844c-0.624-4.55-0.936-6.825-1.561-11.375c1.364-0.187,2.046-0.276,3.411-0.445
				c1.345-0.167,2.417-0.202,3.212-0.117c0.795,0.084,1.506,0.297,2.135,0.636c0.81,0.436,1.447,1.028,1.911,1.773
				c0.462,0.743,0.742,1.617,0.838,2.617c0.098,1.015-0.012,1.933-0.322,2.754c-0.309,0.818-0.809,1.524-1.498,2.111
				c-0.507,0.432-1.092,0.768-1.743,1.006c-0.65,0.238-1.621,0.43-2.913,0.59c-0.363,0.045-0.545,0.068-0.908,0.114
				C329.433,430.636,328.921,430.704,327.897,430.844z M330.197,428.452c0.574-0.073,0.862-0.109,1.437-0.178
				c1.356-0.165,2.31-0.567,2.867-1.215c0.558-0.65,0.774-1.606,0.639-2.869c-0.134-1.259-0.55-2.147-1.248-2.661
				c-0.699-0.515-1.749-0.695-3.142-0.526c-0.591,0.072-0.886,0.108-1.476,0.183C329.643,424.092,329.828,425.546,330.197,428.452z"
				/>
			<path fill="#FFFFFF" d="M344.284,429.121c1.495-4.715,2.283-7.067,3.939-11.76c1.23-0.069,1.846-0.1,3.077-0.155
				c2.149,4.501,3.183,6.762,5.17,11.303c-1.173,0.032-1.76,0.051-2.933,0.096c-0.43-0.959-0.647-1.438-1.084-2.396
				c-1.885,0.079-2.827,0.127-4.711,0.239c-0.281,0.994-0.42,1.49-0.695,2.485C345.942,429.002,345.389,429.04,344.284,429.121z
				 M351.763,424.307c-0.615-1.458-0.926-2.186-1.556-3.641c-0.046-0.108-0.107-0.293-0.182-0.556
				c-0.075-0.264-0.246-0.969-0.246-0.969c-0.006,0-0.108,0.712-0.161,1.011c-0.053,0.298-0.093,0.498-0.122,0.597
				c-0.461,1.492-0.687,2.238-1.133,3.731C349.723,424.401,350.403,424.367,351.763,424.307z"/>
			<path fill="#FFFFFF" d="M361.244,419.027c0.032,3.758,0.048,5.637,0.08,9.395c-1.035,0.009-1.553,0.016-2.588,0.035
				c-0.069-3.757-0.104-5.636-0.173-9.394c-1.223,0.022-1.834,0.037-3.057,0.073c-0.025-0.834-0.037-1.251-0.062-2.085
				c3.543-0.105,5.316-0.129,8.861-0.119c-0.002,0.834-0.003,1.252-0.005,2.086C363.077,419.015,362.466,419.017,361.244,419.027z"
				/>
			<path fill="#FFFFFF" d="M376.089,419.305c-0.173,3.754-0.26,5.631-0.433,9.385c-1.035-0.048-1.552-0.069-2.587-0.106
				c0.136-3.756,0.204-5.634,0.34-9.389c-1.222-0.044-1.834-0.063-3.057-0.093c0.021-0.834,0.031-1.251,0.052-2.085
				c3.544,0.088,5.316,0.161,8.856,0.364c-0.048,0.833-0.072,1.249-0.12,2.082C377.92,419.393,377.31,419.361,376.089,419.305z"/>
			<path fill="#FFFFFF" d="M380.29,428.944c0.293-4.583,0.439-6.875,0.732-11.458c1.076,0.069,1.613,0.105,2.688,0.184
				c-0.135,1.837-0.203,2.755-0.339,4.592c2.143,0.158,3.214,0.247,5.355,0.448c0.172-1.834,0.258-2.751,0.43-4.584
				c1.074,0.1,1.61,0.153,2.683,0.264c-0.474,4.568-0.711,6.852-1.185,11.42c-1.028-0.106-1.542-0.157-2.571-0.253
				c0.179-1.911,0.269-2.867,0.448-4.779c-2.124-0.199-3.187-0.288-5.314-0.444c-0.141,1.915-0.212,2.872-0.353,4.787
				C381.835,429.045,381.32,429.01,380.29,428.944z"/>
			<path fill="#FFFFFF" d="M393.331,430.102c0.521-4.563,0.781-6.844,1.302-11.407c2.951,0.336,4.425,0.524,7.369,0.94
				c-0.116,0.821-0.174,1.231-0.291,2.052c-1.861-0.263-2.792-0.387-4.657-0.618c-0.116,0.937-0.175,1.406-0.291,2.343
				c1.848,0.229,2.771,0.351,4.616,0.612c-0.117,0.826-0.176,1.239-0.292,2.064c-1.831-0.259-2.747-0.38-4.581-0.608
				c-0.142,1.142-0.213,1.713-0.354,2.855c1.814,0.225,2.72,0.345,4.531,0.601c-0.117,0.826-0.176,1.239-0.293,2.065
				C397.57,430.604,396.158,430.424,393.331,430.102z"/>
			<path fill="#FFFFFF" d="M407.507,430.629c0.673-0.513,1.011-0.768,1.69-1.277c0.11,0.449,0.343,0.829,0.699,1.138
				c0.356,0.31,0.783,0.511,1.28,0.602c0.602,0.11,1.1,0.065,1.5-0.136c0.399-0.201,0.644-0.528,0.73-0.979
				c0.102-0.534-0.381-1.185-1.46-1.927c-0.349-0.24-0.625-0.433-0.827-0.58c-0.965-0.707-1.623-1.336-1.95-1.898
				c-0.328-0.563-0.435-1.186-0.32-1.866c0.158-0.932,0.69-1.633,1.605-2.092c0.915-0.459,2.028-0.572,3.328-0.33
				c0.751,0.14,1.38,0.386,1.876,0.729c0.501,0.344,0.908,0.812,1.223,1.402c-0.733,0.42-1.098,0.631-1.825,1.055
				c-0.123-0.364-0.319-0.654-0.597-0.876c-0.273-0.22-0.628-0.369-1.059-0.45c-0.525-0.098-0.972-0.056-1.335,0.125
				c-0.359,0.179-0.578,0.463-0.646,0.843c-0.107,0.597,0.427,1.253,1.593,1.982c0.231,0.143,0.41,0.257,0.532,0.338
				c0.953,0.631,1.618,1.276,2.002,1.922c0.384,0.645,0.506,1.32,0.365,2.023c-0.212,1.056-0.768,1.821-1.651,2.299
				c-0.886,0.479-1.968,0.597-3.251,0.361c-0.911-0.167-1.663-0.456-2.263-0.867C408.148,431.759,407.735,431.246,407.507,430.629z"
				/>
			<path fill="#FFFFFF" d="M430.892,431.271c-0.206,0.795-0.564,1.505-1.063,2.13c-0.497,0.624-1.115,1.135-1.843,1.522
				c-0.751,0.399-1.551,0.652-2.39,0.76c-0.84,0.108-1.67,0.066-2.494-0.125c-0.721-0.168-1.4-0.444-2.043-0.834
				c-0.639-0.386-1.203-0.859-1.689-1.419c-0.625-0.722-1.06-1.52-1.297-2.386c-0.237-0.868-0.266-1.751-0.079-2.651
				c0.168-0.81,0.486-1.535,0.957-2.176c0.471-0.642,1.08-1.172,1.825-1.59c0.735-0.413,1.545-0.684,2.431-0.803
				c0.883-0.118,1.765-0.075,2.63,0.127c0.861,0.201,1.664,0.55,2.398,1.044c0.737,0.497,1.35,1.097,1.829,1.795
				c0.481,0.701,0.79,1.45,0.929,2.235C431.135,429.686,431.098,430.477,430.892,431.271z M423.599,433.426
				c1.08,0.251,2.054,0.109,2.929-0.426c0.875-0.536,1.452-1.336,1.716-2.401c0.262-1.056,0.122-2.035-0.427-2.932
				c-0.55-0.897-1.376-1.479-2.471-1.733c-1.111-0.259-2.115-0.105-3.005,0.454c-0.891,0.56-1.447,1.379-1.68,2.445
				c-0.236,1.082-0.075,2.055,0.471,2.918C421.677,432.614,422.497,433.17,423.599,433.426z"/>
			<path fill="#FFFFFF" d="M445.05,429.313c-0.85,2.729-1.275,4.093-2.126,6.822c-0.464,1.488-1.23,2.467-2.29,2.945
				c-1.061,0.478-2.426,0.467-4.107-0.019c-1.707-0.494-2.877-1.217-3.516-2.187c-0.638-0.971-0.762-2.206-0.359-3.712
				c0.74-2.761,1.11-4.141,1.85-6.902c1.041,0.279,1.561,0.421,2.6,0.71c-0.726,2.605-1.089,3.908-1.815,6.513
				c-0.254,0.912-0.228,1.661,0.072,2.24c0.301,0.582,0.879,0.994,1.733,1.241c0.858,0.248,1.572,0.207,2.151-0.123
				c0.578-0.329,1.005-0.942,1.276-1.844c0.779-2.59,1.168-3.885,1.947-6.474C443.501,428.834,444.018,428.992,445.05,429.313z"/>
			<path fill="#FFFFFF" d="M452.573,443.948c-1.136-0.41-1.706-0.611-2.845-1.007c-0.509-2.448-0.777-3.673-1.341-6.123
				c-0.68,2.035-1.019,3.052-1.699,5.087c-0.991-0.331-1.488-0.494-2.482-0.815c1.411-4.37,2.117-6.556,3.528-10.926
				c1.484,0.479,2.224,0.724,3.703,1.224c1.471,0.498,2.481,1.139,3.026,1.905s0.633,1.664,0.266,2.689
				c-0.265,0.742-0.74,1.291-1.416,1.644c-0.677,0.354-1.411,0.441-2.215,0.262C451.715,440.312,452.01,441.525,452.573,443.948z
				 M448.775,435.656c0.152,0.051,0.228,0.076,0.38,0.127c1.028,0.345,1.739,0.477,2.138,0.385c0.402-0.092,0.689-0.392,0.866-0.902
				c0.184-0.532,0.136-0.972-0.144-1.32c-0.277-0.345-0.912-0.693-1.901-1.024c-0.153-0.052-0.23-0.077-0.384-0.128
				C449.348,433.938,449.157,434.511,448.775,435.656z"/>
			<path fill="#FFFFFF" d="M466.428,440.186c-0.34-0.62-0.742-1.134-1.199-1.54c-0.46-0.408-0.997-0.735-1.611-0.978
				c-1.262-0.499-2.406-0.543-3.412-0.147c-1.009,0.398-1.727,1.178-2.162,2.334c-0.425,1.13-0.419,2.156,0.006,3.075
				c0.428,0.923,1.221,1.605,2.39,2.066c0.665,0.262,1.321,0.406,1.973,0.429c0.653,0.023,1.306-0.072,1.961-0.282
				c-0.388,0.929-0.583,1.393-0.971,2.322c-0.636,0.072-1.265,0.064-1.888-0.023c-0.624-0.087-1.249-0.254-1.879-0.502
				c-1.815-0.715-3.107-1.816-3.886-3.316c-0.782-1.505-0.887-3.08-0.287-4.724c0.598-1.64,1.694-2.777,3.313-3.385
				c1.616-0.607,3.402-0.539,5.331,0.222c0.647,0.255,1.245,0.564,1.797,0.927c0.552,0.363,1.069,0.792,1.548,1.282
				C467.041,438.841,466.837,439.29,466.428,440.186z"/>
			<path fill="#FFFFFF" d="M465.459,448.982c1.783-4.232,2.675-6.349,4.458-10.581c2.784,1.173,4.169,1.78,6.927,3.033
				c-0.343,0.755-0.514,1.132-0.857,1.887c-1.743-0.792-2.618-1.18-4.372-1.94c-0.375,0.867-0.563,1.3-0.939,2.167
				c1.739,0.753,2.605,1.138,4.334,1.923c-0.345,0.759-0.517,1.139-0.862,1.898c-1.715-0.779-2.575-1.161-4.3-1.909
				c-0.457,1.056-0.686,1.584-1.144,2.64c1.707,0.74,2.557,1.117,4.254,1.888c-0.345,0.76-0.518,1.139-0.863,1.899
				C469.454,450.687,468.126,450.106,465.459,448.982z"/>
		</g>
	</g>
	<g>
		<path fill="#FFFFFF" d="M573.348,455.749c-1.727,1.671-3.801,2.507-6.219,2.507c-2.5,0-4.604-0.856-6.316-2.567
			c-1.711-1.712-2.566-3.817-2.566-6.316c0-2.597,0.924-4.754,2.771-6.473c1.736-1.607,3.773-2.411,6.111-2.411
			c2.451,0,4.545,0.868,6.279,2.604c1.736,1.735,2.604,3.828,2.604,6.28C576.012,451.897,575.123,454.022,573.348,455.749z
			 M561.91,444.226c-1.414,1.446-2.121,3.162-2.121,5.147c0,2.057,0.719,3.805,2.158,5.243c1.428,1.438,3.156,2.156,5.182,2.156
			c2.016,0,3.74-0.723,5.17-2.169c1.432-1.454,2.146-3.198,2.146-5.23c0-1.976-0.711-3.692-2.133-5.147
			c-1.439-1.478-3.168-2.218-5.184-2.218C565.088,442.008,563.348,442.747,561.91,444.226z M563.236,454.315v-9.848
			c0.609,0,1.523,0.003,2.74,0.006c1.219,0.004,1.897,0.011,2.031,0.019c0.781,0.056,1.428,0.225,1.941,0.506
			c0.875,0.482,1.314,1.266,1.314,2.351c0,0.827-0.232,1.426-0.693,1.793c-0.463,0.368-1.031,0.588-1.707,0.66
			c0.619,0.129,1.086,0.318,1.398,0.568c0.578,0.469,0.869,1.206,0.869,2.209v0.881c0,0.096,0.006,0.192,0.02,0.289
			c0.014,0.097,0.035,0.192,0.07,0.289l0.09,0.277h-2.459c-0.08-0.312-0.135-0.768-0.162-1.362
			c-0.027-0.595-0.082-0.996-0.162-1.205c-0.129-0.346-0.371-0.587-0.725-0.724c-0.191-0.08-0.484-0.133-0.879-0.156l-0.566-0.036
			h-0.543v3.483H563.236z M567.936,446.407c-0.354-0.136-0.852-0.205-1.494-0.205h-0.627v2.857h1.002c0.602,0,1.072-0.119,1.41-0.36
			c0.336-0.241,0.506-0.632,0.506-1.17C568.732,446.99,568.467,446.616,567.936,446.407z"/>
	</g>
</g>
</svg>
