<?xml version="1.0" encoding="utf-8"?>
<!-- Generator: Adobe Illustrator 19.2.1, SVG Export Plug-In . SVG Version: 6.00 Build 0)  -->
<svg version="1.0" id="Calque_1" xmlns="http://www.w3.org/2000/svg" xmlns:xlink="http://www.w3.org/1999/xlink" x="0px" y="0px"
	 width="708.66px" height="708.66px" viewBox="0 0 708.66 708.66" enable-background="new 0 0 708.66 708.66" xml:space="preserve">
<g>
	<g>
		<g>
			<g>
				<path fill="#FFFFFF" d="M220.063,199.384c-0.017-0.628-0.118-1.326-0.308-2.093c-0.189-0.767-0.454-1.487-0.795-2.154
					c-0.341-0.667-0.741-1.21-1.197-1.627c-0.455-0.417-0.957-0.575-1.492-0.474c-0.438,0.083-0.917,0.363-1.431,0.834
					c-0.516,0.472-1.048,1.066-1.584,1.772c-0.538,0.707-1.072,1.473-1.596,2.297c-0.522,0.821-1.009,1.639-1.458,2.448
					c-0.449,0.809-0.856,1.552-1.215,2.232c-0.358,0.677-0.667,1.22-0.89,1.529c-0.101,0.14-0.305,0.229-0.506,0.257
					c-0.202,0.028-0.347,0.06-0.512-0.036c-0.164-0.094-0.282-0.238-0.351-0.422c-0.07-0.187,0.008-0.419,0.202-0.69
					c0.278-0.388,0.614-0.959,1.018-1.66c0.404-0.701,0.861-1.463,1.361-2.283c0.501-0.82,1.045-1.657,1.633-2.506
					c0.587-0.848,1.195-1.638,1.821-2.363c0.623-0.722,1.247-1.335,1.864-1.826c0.618-0.491,1.236-0.795,1.841-0.909
					c0.745-0.141,1.401-0.024,1.967,0.343c0.566,0.367,1.052,0.859,1.448,1.474c0.396,0.614,0.735,1.307,1.008,2.07
					c0.274,0.766,0.49,1.482,0.65,2.139c2.26-3.441,3.411-5.157,5.759-8.581c0.276-0.333,0.641-0.56,1.089-0.679
					c0.446-0.119,0.869-0.127,1.262-0.022c0.392,0.104,0.712,0.317,0.957,0.632c0.244,0.314,0.322,0.738,0.23,1.27
					c-3.186,4.784-4.736,7.184-7.753,11.999c0.279,0.723,0.637,1.625,1.071,2.706c0.433,1.081,0.925,2.109,1.468,3.084
					c0.544,0.976,1.128,1.811,1.749,2.498c0.623,0.69,1.272,1.016,1.937,0.986c0.632-0.028,1.351-0.36,2.153-1
					c0.798-0.637,1.62-1.444,2.469-2.415c0.85-0.974,1.676-2.032,2.48-3.176c0.803-1.144,1.524-2.233,2.159-3.261
					c0.635-1.028,1.139-1.926,1.509-2.698c0.37-0.77,0.509-1.324,0.54-1.495c0.064-0.355,0.488-0.618,0.911-0.569
					c0.424,0.048,0.783,0.409,0.787,0.819c0.005,0.507-0.418,1.399-0.905,2.341c-0.487,0.943-1.081,1.957-1.772,3.036
					c-0.689,1.077-1.458,2.174-2.302,3.281c-0.844,1.107-1.692,2.128-2.547,3.056c-0.857,0.931-1.708,1.717-2.552,2.363
					c-0.846,0.647-1.602,1.045-2.278,1.192c-0.738,0.161-1.434,0.076-2.087-0.251c-0.652-0.326-1.249-0.799-1.788-1.417
					c-0.539-0.617-1.037-1.323-1.486-2.115c-0.447-0.789-0.851-1.565-1.207-2.314c-0.356-0.75-0.652-1.435-0.89-2.051
					c-0.237-0.615-0.421-1.042-0.545-1.276c-3.299,4.773-4.904,7.168-8.026,11.976c-0.58,0.377-1.112,0.584-1.595,0.625
					c-0.481,0.041-0.899-0.039-1.242-0.241c-0.345-0.204-0.591-0.499-0.732-0.889c-0.141-0.388-0.141-0.814,0.007-1.275
					C214.118,208.053,216.057,205.154,220.063,199.384z"/>
				<path fill="#FFFFFF" d="M245.046,210.698c-1.168,0.179-2.116,0.084-2.847-0.284c-0.731-0.368-1.317-0.949-1.753-1.732
					c-0.437-0.784-0.737-1.736-0.889-2.852c-0.152-1.113-0.219-2.325-0.18-3.607c0.042-1.368,0.176-2.812,0.377-4.313
					c0.202-1.5,0.429-2.946,0.679-4.337c0.25-1.391,0.49-2.688,0.716-3.892c0.225-1.201,0.397-2.211,0.518-3.026
					c-2.066,0.279-3.099,0.422-5.164,0.715c-0.338,0.054-0.602,0.012-0.791-0.13c-0.187-0.141-0.274-0.32-0.268-0.533
					c0.006-0.212,0.103-0.451,0.296-0.711c0.192-0.26,0.519-0.467,0.976-0.625c2.045-0.323,3.068-0.481,5.114-0.788
					c0.774-4.369,1.178-6.553,2.019-10.922c0.147-0.535,0.479-0.915,0.991-1.144c0.513-0.23,1.042-0.321,1.586-0.271
					c0.546,0.05,1.028,0.227,1.438,0.525c0.409,0.297,0.571,0.694,0.483,1.189c-0.854,3.987-1.267,5.98-2.064,9.967
					c2.272-0.328,3.408-0.487,5.681-0.797c0.232-0.059,0.445-0.015,0.625,0.129c0.18,0.144,0.296,0.339,0.337,0.57
					c0.041,0.233-0.01,0.472-0.16,0.705c-0.15,0.233-0.456,0.421-0.916,0.57c-2.301,0.348-3.45,0.527-5.749,0.894
					c-0.216,1.257-0.464,2.579-0.748,3.971c-0.283,1.392-0.555,2.786-0.815,4.175c-0.26,1.388-0.501,2.759-0.725,4.1
					c-0.224,1.342-0.396,2.621-0.536,3.796c-0.134,1.125-0.211,2.169-0.203,3.108c0.007,0.939,0.085,1.725,0.232,2.356
					c0.147,0.632,0.4,1.107,0.75,1.422c0.35,0.315,0.817,0.394,1.386,0.256c1.072-0.259,2.084-0.677,2.989-1.28
					c0.904-0.603,1.726-1.3,2.467-2.087c0.738-0.785,1.394-1.634,1.968-2.539c0.573-0.903,1.096-1.801,1.532-2.681
					c0.596-1.204,1.067-2.318,1.418-3.3c0.352-0.983,0.579-1.717,0.726-2.098c0.101-0.262,0.301-0.473,0.535-0.602
					c0.234-0.13,0.475-0.169,0.721-0.117c0.251,0.053,0.45,0.213,0.597,0.476c0.147,0.263,0.26,0.755,0.15,1.171
					c-0.064,0.24-0.367,0.885-0.726,1.84c-0.358,0.954-0.876,2.057-1.523,3.308c-0.502,0.971-1.106,1.973-1.809,2.992
					c-0.703,1.02-1.519,1.965-2.441,2.835c-0.922,0.87-1.964,1.633-3.123,2.287C247.762,210.042,246.475,210.479,245.046,210.698z"
					/>
				<path fill="#FFFFFF" d="M258.271,185.446c0.62-0.646,1.219-1.013,1.796-1.098c0.574-0.085,1.077-0.041,1.505,0.133
					c0.428,0.173,0.751,0.417,0.975,0.731c0.223,0.311,0.295,0.544,0.215,0.695c-0.429,1.853-0.64,2.779-1.057,4.632
					c0.097-0.04,0.39-0.304,0.877-0.787c0.486-0.482,1.1-1.041,1.845-1.669c0.743-0.625,1.591-1.264,2.545-1.913
					c0.95-0.647,1.937-1.161,2.952-1.543c1.012-0.381,2.031-0.558,3.056-0.526c1.022,0.032,2.005,0.397,2.863,1.099
					c0.385,0.315,0.692,0.741,0.912,1.241c0.222,0.5,0.362,1.029,0.418,1.586c0.057,0.56,0.006,1.124-0.156,1.691
					c-0.162,0.566-0.432,1.067-0.768,1.497c-0.233,0.299-0.519,0.507-0.861,0.599c-0.341,0.092-0.658,0.089-0.944-0.007
					c-0.286-0.096-0.505-0.272-0.658-0.523c-0.153-0.251-0.155-0.585-0.015-0.994c0.316-0.923,0.505-1.757,0.578-2.456
					c0.073-0.698-0.259-1.251-1.001-1.652c-0.523-0.283-1.172-0.312-1.947-0.087c-0.774,0.225-1.665,0.672-2.665,1.337
					c-1,0.664-2.137,1.546-3.403,2.645s-2.651,2.379-4.148,3.843c-0.96,5.543-1.416,8.314-2.276,13.856
					c-0.312,0.498-0.697,0.819-1.151,0.964c-0.457,0.146-0.889,0.205-1.292,0.175c-0.405-0.03-0.757-0.126-1.053-0.284
					c-0.293-0.157-0.421-0.295-0.375-0.414C256.204,199.111,256.851,194.556,258.271,185.446z"/>
				<path fill="#FFFFFF" d="M281.072,205.757c-1.19-0.095-2.29-0.663-3.015-1.364c-0.724-0.7-1.241-1.553-1.547-2.55
					c-0.306-0.996-0.421-2.103-0.339-3.311c0.082-1.209,0.338-2.42,0.737-3.614c0.675-2.025,1.536-3.856,2.608-5.429
					c1.072-1.572,2.209-2.918,3.408-4.03c1.199-1.112,2.388-1.969,3.552-2.563c1.168-0.595,2.257-0.887,3.027-1.039
					c0.533-0.105,1.101-0.155,1.601,0.016c0.497,0.17,0.921,0.449,1.268,0.828c0.347,0.379,0.623,0.817,0.828,1.306
					c0.206,0.492,0.226,1.46,0.226,1.46c0.025,0.012,0.66-0.902,0.871-1.522c0.211-0.62,0.498-1.203,0.803-1.73
					c0.147-0.254,0.352-0.433,0.618-0.509c0.268-0.077,0.553-0.069,0.852,0.02c0.3,0.09,0.582,0.254,0.843,0.488
					c0.26,0.232,0.588,0.633,0.594,0.886c0.067,2.714-2.246,7.039-3.035,9.534c-0.788,2.496-1.355,4.47-1.716,5.92
					c-0.362,1.452-0.515,2.466-0.47,3.038c0.045,0.572,0.38,0.923,0.812,0.884c0.751-0.068,1.722-0.588,2.649-1.22
					c0.927-0.633,1.846-1.372,2.761-2.212c0.914-0.839,1.788-1.737,2.618-2.693c0.829-0.956,1.575-1.867,2.239-2.722
					c0.39-0.503,0.729-0.961,1.013-1.373c0.283-0.411,0.569-1.004,0.741-1.099c0.262-0.144,0.915,0.119,1.037,0.38
					c0.121,0.259,0.128,0.622-0.034,0.867c-0.167,0.253-0.52,0.584-0.825,0.954c-0.305,0.371-0.624,0.776-0.957,1.178
					c-0.76,0.918-1.67,1.934-2.634,3.039c-0.965,1.107-2.012,2.157-3.138,3.152c-1.128,0.996-2.301,1.866-3.523,2.607
					c-1.227,0.744-2.609,1.129-3.777,1.404c-0.655,0.155-1.259,0.141-1.684-0.26c-0.423-0.399-0.733-0.937-0.927-1.609
					c-0.193-0.673-0.285-1.402-0.275-2.174c0.01-0.774,0.273-1.947,0.273-1.947c-0.007-0.004-0.753,0.984-1.291,1.762
					c-0.539,0.779-1.171,1.557-1.886,2.327c-0.717,0.771-1.495,1.452-2.326,2.038C282.823,205.46,281.887,205.822,281.072,205.757z
					 M290.27,184.158c-0.342-0.142-1.039,0.13-1.847,0.705c-0.807,0.575-1.669,1.37-2.571,2.379
					c-0.902,1.009-1.801,2.182-2.686,3.503c-0.887,1.324-1.606,2.693-2.176,4.059c-0.428,1.026-0.749,2.051-0.937,3.056
					c-0.188,1.006-0.249,1.923-0.189,2.751c0.06,0.824,0.235,1.513,0.524,2.064c0.288,0.548,0.693,0.88,1.203,1.002
					c0.407,0.097,1.027-0.235,1.856-1.005c0.831-0.771,1.718-1.792,2.662-3.061c0.946-1.271,1.859-2.692,2.733-4.259
					c0.875-1.568,1.578-3.094,2.092-4.572c0.514-1.478,0.763-2.815,0.738-4.011C291.649,185.574,291.107,184.505,290.27,184.158z"/>
				<path fill="#FFFFFF" d="M309.425,203.489c-1.869-0.278-3.397-1.04-4.515-2.193c-1.117-1.15-1.874-2.508-2.259-4.068
					c-0.386-1.562-0.419-3.215-0.085-4.951c0.334-1.738,0.996-3.35,1.991-4.831c0.995-1.481,2.306-2.721,3.935-3.714
					c1.626-0.991,3.995-1.871,5.709-1.566c0.058,0.01,0.14,0.043,0.209,0.054c0.067,0.011,0.183,0.099,0.21,0.096
					c0.508-0.047,2.473-1.815,4.223-2.084c1.312-0.202,2.507-0.054,3.445,0.346c0.939,0.4,1.681,0.993,2.224,1.774
					c0.544,0.782,0.905,1.717,1.086,2.806c0.181,1.087,0.202,2.245,0.069,3.469c-0.133,1.224-0.405,2.482-0.814,3.773
					c-0.409,1.292-1.522,3.737-1.522,3.737c0.068,0.099,1.951-0.434,2.984-1.027c1.035-0.594,1.996-1.249,2.885-1.961
					c0.89-0.712,1.656-1.411,2.301-2.101c0.644-0.689,1.031-1.276,1.206-1.501c0.152-0.195,0.455-0.313,0.67-0.331
					c0.216-0.018,0.403,0.02,0.555,0.113c0.154,0.094,0.239,0.242,0.263,0.437c0.024,0.197-0.052,0.423-0.208,0.678
					c-0.513,0.841-1.213,1.704-2.099,2.551c-0.887,0.849-1.864,1.624-2.934,2.329c-1.064,0.702-2.165,1.29-3.299,1.762
					c-1.137,0.474-2.649,0.512-3.182,0.766c-0.698,0.332-1.752,1.822-2.727,2.594c-0.975,0.771-2.011,1.413-3.109,1.928
					c-1.097,0.515-2.245,0.874-3.438,1.076C312.007,203.653,310.724,203.682,309.425,203.489z M319.073,197.191
					c-0.196-0.504-2.414-1.669-3.35-2.818c-0.936-1.148-1.65-2.372-2.137-3.666c-0.486-1.294-0.727-2.597-0.712-3.902
					c0.015-1.307,0.99-3.527,0.99-3.527c-0.025-0.025-1.961,1.421-2.833,2.505c-0.873,1.086-1.632,2.288-2.272,3.602
					c-0.641,1.316-1.125,2.68-1.448,4.09c-0.323,1.41-0.444,2.719-0.364,3.921c0.08,1.202,0.395,2.247,0.942,3.126
					c0.548,0.88,1.401,1.451,2.523,1.731c0.8,0.2,1.669,0.139,2.595-0.203c0.927-0.342,1.815-0.804,2.667-1.379
					c0.851-0.573,1.597-1.192,2.232-1.849C318.539,198.165,319.125,197.327,319.073,197.191z M318.915,181.534
					c-1.01,0.182-1.823,0.584-2.433,1.201c-0.609,0.616-1.033,1.361-1.266,2.227c-0.234,0.867-0.293,1.805-0.18,2.81
					c0.113,1.005,0.378,1.998,0.789,2.975c0.41,0.976,0.976,1.892,1.691,2.743c0.716,0.852,2.223,2.169,2.509,2.102
					c0.257-0.06,0.873-1.543,1.237-2.554c0.365-1.011,0.637-2.061,0.819-3.147c0.182-1.085,0.272-2.166,0.271-3.232
					c-0.001-1.066-0.112-2.002-0.339-2.807c-0.226-0.806-0.597-1.433-1.11-1.874C320.39,181.537,319.722,181.389,318.915,181.534z"
					/>
				<path fill="#FFFFFF" d="M336.118,179.783c0.7-0.573,1.345-0.87,1.922-0.893c0.579-0.023,1.07,0.075,1.464,0.294
					c0.392,0.218,0.679,0.498,0.853,0.831c0.175,0.336,0.211,0.573,0.112,0.715c-0.69,1.791-1.032,2.687-1.709,4.48
					c0.101-0.031,0.428-0.261,0.976-0.686c0.55-0.428,1.237-0.913,2.059-1.454c0.824-0.541,1.749-1.08,2.78-1.618
					c1.034-0.539,2.077-0.942,3.132-1.211c1.053-0.268,2.082-0.33,3.084-0.187c1.001,0.143,1.918,0.613,2.663,1.401
					c0.336,0.355,0.574,0.812,0.721,1.33c0.146,0.521,0.208,1.062,0.183,1.622c-0.025,0.559-0.157,1.116-0.398,1.657
					c-0.241,0.543-0.581,1.012-0.973,1.402c-0.272,0.271-0.582,0.446-0.937,0.5c-0.351,0.055-0.659,0.018-0.928-0.109
					c-0.267-0.127-0.458-0.326-0.572-0.59c-0.116-0.265-0.068-0.6,0.129-0.988c0.447-0.881,0.753-1.688,0.928-2.374
					c0.174-0.684-0.077-1.267-0.751-1.748c-0.472-0.337-1.108-0.437-1.905-0.298c-0.797,0.14-1.738,0.485-2.818,1.035
					c-1.08,0.55-2.326,1.302-3.733,2.253c-1.405,0.95-2.954,2.071-4.638,3.358c-1.745,5.394-2.593,8.094-4.238,13.498
					c-0.379,0.46-0.805,0.738-1.271,0.833c-0.469,0.095-0.901,0.103-1.296,0.03c-0.394-0.073-0.725-0.207-0.993-0.395
					c-0.267-0.187-0.372-0.34-0.312-0.453C332.11,193.112,333.404,188.664,336.118,179.783z"/>
				<path fill="#FFFFFF" d="M364.207,197.122c-0.041-0.007-1.035,1.733-1.771,2.487c-0.738,0.757-1.556,1.401-2.452,1.938
					c-0.9,0.538-1.835,0.945-2.802,1.219c-0.967,0.276-1.884,0.364-2.748,0.262c-0.868-0.101-1.655-0.4-2.361-0.898
					c-0.705-0.496-1.315-1.291-1.568-2.241c-0.267-0.999-0.186-2.305,0.082-3.645c0.267-1.338,0.697-2.725,1.31-4.104
					c0.529-1.19,1.196-2.372,1.954-3.53c0.757-1.157,1.597-2.224,2.526-3.202c0.924-0.975,1.892-1.833,2.902-2.569
					c1.011-0.736,2.039-1.273,3.081-1.612c1.041-0.339,2.062-0.444,3.048-0.315c0.986,0.13,1.913,0.542,2.767,1.236
					c2.193-6.478,3.321-9.712,5.641-16.172c0.208-0.447,0.503-0.769,0.888-0.966c0.382-0.196,0.779-0.27,1.178-0.227
					c0.402,0.043,0.756,0.204,1.051,0.485c0.296,0.282,0.543,0.757,0.494,1.137c-0.519,3.997-3.02,9.104-4.332,13.113
					c-1.312,4.012-2.358,7.589-3.221,10.61c-0.247,0.864-0.484,1.798-0.672,2.779c-0.19,0.984-0.323,1.946-0.395,2.885
					c-0.072,0.937-0.087,1.831-0.047,2.67c0.041,0.841,0.171,1.55,0.39,2.122c0.219,0.573,0.55,0.978,0.99,1.213
					c0.44,0.236,1.009,0.214,1.688-0.027c0.737-0.262,1.482-0.697,2.203-1.328c0.721-0.63,1.426-1.35,2.121-2.161
					c0.694-0.81,1.357-1.657,1.99-2.536c0.632-0.877,1.213-1.709,1.735-2.488c0.523-0.78,0.972-1.463,1.347-2.047
					c0.376-0.585,0.688-1.076,0.866-1.169c0.261-0.136,0.685-0.019,0.85,0.179c0.163,0.196,0.198,0.677-0.018,1.052
					c-0.401,0.695-1.374,1.735-2.184,2.96c-0.812,1.226-1.699,2.459-2.663,3.701c-0.962,1.241-1.991,2.357-3.088,3.35
					c-1.096,0.992-2.333,1.758-3.446,1.916c-2.14,0.304-4.125-0.378-5.264-1.499C365.136,200.579,364.207,197.122,364.207,197.122z
					 M363.11,182.838c-0.817,0.45-1.623,1.132-2.362,1.847c-0.736,0.713-1.424,1.493-2.052,2.332
					c-0.628,0.84-1.187,1.726-1.673,2.648c-0.485,0.922-0.909,1.843-1.229,2.742c-0.368,1.034-0.615,2.066-0.76,3.051
					c-0.144,0.984-0.145,1.876,0,2.671c0.145,0.793,0.441,1.464,0.883,1.998c0.443,0.535,1.097,0.925,1.848,1.025
					c0.524,0.07,1.193-0.243,1.912-0.861c0.719-0.617,1.454-1.447,2.198-2.482c0.745-1.035,1.467-2.204,2.154-3.502
					c0.687-1.298,1.269-2.613,1.746-3.935c0.446-1.236,0.79-2.413,1.024-3.522c0.234-1.108,0.347-2.162,0.181-2.925
					c-0.074-0.342-0.314-0.656-0.621-0.877c-0.308-0.222-0.649-0.372-1.023-0.451c-0.373-0.079-0.764-0.096-1.17-0.048
					C363.764,182.595,363.389,182.684,363.11,182.838z"/>
				<path fill="#FFFFFF" d="M382.43,203.915c-1.141-0.148-2.148-0.594-2.773-1.016c-0.626-0.423-1.002-0.995-1.121-1.713
					c-0.12-0.721-0.026-1.624,0.283-2.703c0.31-1.081,0.78-2.431,1.409-4.044c0.629-1.614,1.391-3.524,2.29-5.725
					c0.901-2.204,1.762-5.071,2.94-7.731c0.222-0.5,0.629-0.804,1.058-0.851c0.432-0.047,0.828,0.03,1.187,0.233
					c0.357,0.202,0.646,0.507,0.851,0.911c0.205,0.402,0.213,0.806,0.061,1.182c-0.885,2.189-1.775,4.475-2.754,6.656
					c-0.98,2.182-1.789,4.142-2.438,5.878c-0.649,1.738-0.998,3.175-1.057,4.309c-0.059,1.131,0.576,1.953,1.421,1.945
					c0.616-0.005,1.555-0.445,2.477-0.943c0.921-0.496,1.87-1.084,2.845-1.756c0.977-0.673,1.936-1.388,2.878-2.143
					c0.942-0.755,1.791-1.475,2.552-2.156c0.76-0.68,1.409-1.277,1.941-1.788c0.531-0.51,0.874-0.882,1.02-1.005
					c0.344-0.289,0.827-0.343,1.2-0.189c0.369,0.153,0.566,0.695,0.372,1.061c-0.186,0.352-0.964,0.958-1.764,1.688
					c-0.801,0.731-1.727,1.535-2.763,2.406c-1.038,0.873-2.143,1.751-3.301,2.632c-1.161,0.884-2.293,1.697-3.398,2.434
					c-1.106,0.738-2.131,1.335-3.075,1.79C383.827,203.733,382.992,203.988,382.43,203.915z M387.889,173.106
					c0.282-0.508,0.677-0.827,1.188-0.925c0.505-0.097,0.98-0.052,1.414,0.142c0.433,0.194,0.766,0.532,0.985,1.006
					c0.22,0.476,0.17,1.044-0.06,1.662c-0.196,0.526-0.537,0.874-1.061,0.97c-0.523,0.096-1.027,0.041-1.51-0.169
					c-0.48-0.209-0.85-0.557-1.106-1.032C387.483,174.285,387.543,173.728,387.889,173.106z"/>
				<path fill="#FFFFFF" d="M415.724,205.231c-1.751,0.585-2.981,0.747-3.699,0.469c-0.721-0.281-1.098-0.851-1.141-1.713
					c-0.042-0.863,0.171-1.936,0.643-3.221c0.472-1.281,1.015-2.64,1.627-4.077c0.613-1.436,1.224-2.856,1.823-4.25
					c0.599-1.394,0.995-2.642,1.172-3.738c0.176-1.093,0.052-1.963-0.378-2.596c-0.43-0.633-1.338-0.893-2.715-0.762
					c-0.893,0.085-1.85,0.326-2.865,0.717c-1.012,0.39-2.052,0.935-3.112,1.636c-1.058,0.699-2.103,1.537-3.133,2.513
					c-1.03,0.974-2.079,2.099-2.834,3.307c-0.171,0.274-0.457,0.889-0.878,1.771c-0.421,0.882-0.867,1.835-1.331,2.855
					c-0.464,1.021-0.895,1.979-1.291,2.861c-0.396,0.884-0.669,1.511-0.835,1.776c-0.342,0.546-0.921,0.913-1.523,1.055
					c-0.602,0.141-1.137,0.127-1.612-0.045c-0.474-0.172-0.834-0.463-1.076-0.873c-0.241-0.407-0.135-0.91,0.101-1.426
					c0.296-0.648,0.736-1.858,1.429-3.345c0.692-1.484,1.644-3.538,2.897-6.066c0.684-1.382,1.462-2.944,2.289-4.67
					c0.827-1.725,1.89-3.701,2.794-5.768c0.146-0.334,0.466-0.618,0.978-0.789c0.515-0.172,1.033-0.238,1.563-0.196
					c0.524,0.04,0.981,0.197,1.36,0.467c0.38,0.27,0.544,0.643,0.493,1.117c-1.22,2.301-1.824,3.452-3.021,5.758
					c-0.023-0.088,0.278-0.394,0.912-0.922c0.631-0.525,1.462-1.081,2.494-1.657c1.033-0.576,2.18-1.099,3.447-1.566
					c1.264-0.467,2.52-0.699,3.748-0.7c1.777-0.002,3.046,0.33,3.797,0.997c0.748,0.667,1.151,1.539,1.208,2.617
					c0.057,1.078-0.135,2.301-0.574,3.667c-0.439,1.369-0.962,2.743-1.563,4.121c-0.602,1.379-1.196,2.712-1.778,3.996
					c-0.582,1.283-0.987,2.375-1.217,3.268c-0.231,0.894-0.21,1.541,0.051,1.93c0.259,0.387,1.011,0.435,2.044,0.031
					c1.154-0.451,2.423-1.175,3.703-1.931c1.282-0.756,2.557-1.554,3.827-2.388c1.275-0.837,2.498-1.689,3.671-2.559
					c1.173-0.87,2.29-1.856,3.262-2.487c0.413-0.268,0.561-0.476,0.883-0.283c0.322,0.193-0.115,0.584-0.596,1.001
					c-0.514,0.446-0.861,1.357-2.094,2.275c-1.232,0.917-2.592,1.881-4.073,2.889c-1.483,1.009-3.004,1.974-4.571,2.897
					C418.462,204.115,417.028,204.796,415.724,205.231z"/>
				<path fill="#FFFFFF" d="M428.733,208.714c-1.163-0.171-2.201-0.809-2.862-1.556c-0.66-0.746-1.101-1.629-1.323-2.642
					c-0.222-1.014-0.251-2.124-0.076-3.324c0.175-1.199,0.52-2.391,1.002-3.556c0.818-1.976,1.797-3.747,2.968-5.248
					c1.168-1.498,2.388-2.769,3.651-3.801c1.263-1.032,2.495-1.811,3.694-2.33c1.197-0.518,2.3-0.739,3.075-0.843
					c0.531-0.071,1.102-0.083,1.587,0.118c0.484,0.202,0.887,0.506,1.208,0.906c0.322,0.403,0.567,0.854,0.739,1.358
					c0.17,0.503,0.127,1.472,0.127,1.472c0.024,0.013,0.716-0.859,0.967-1.465c0.251-0.606,0.577-1.169,0.915-1.675
					c0.162-0.243,0.379-0.41,0.647-0.469c0.27-0.059,0.554-0.034,0.847,0.077c0.292,0.11,0.565,0.29,0.809,0.539
					c0.244,0.249,0.545,0.671,0.535,0.922c-0.108,2.711-2.717,6.886-3.684,9.32c-0.969,2.438-1.688,4.374-2.16,5.799
					c-0.471,1.421-0.704,2.427-0.705,2.998c0,0.575,0.302,0.944,0.736,0.934c0.755-0.018,1.76-0.474,2.735-1.048
					c0.973-0.572,1.951-1.247,2.928-2.026c0.975-0.778,1.918-1.62,2.819-2.519c0.902-0.9,1.717-1.76,2.443-2.571
					c0.426-0.476,0.8-0.911,1.115-1.303c0.313-0.391,0.642-0.966,0.821-1.05c0.274-0.129,0.908,0.18,1.011,0.446
					c0.103,0.266,0.083,0.627-0.098,0.862c-0.189,0.245-0.564,0.551-0.896,0.9c-0.333,0.352-0.681,0.736-1.042,1.113
					c-0.833,0.87-1.817,1.826-2.867,2.867c-1.048,1.039-2.178,2.019-3.38,2.939c-1.202,0.919-2.444,1.714-3.722,2.376
					c-1.28,0.662-2.689,0.954-3.871,1.154c-0.666,0.112-1.262,0.059-1.65-0.367c-0.387-0.425-0.653-0.983-0.79-1.666
					c-0.137-0.683-0.172-1.413-0.1-2.186c0.072-0.769,0.427-1.923,0.427-1.923c-0.007-0.004-0.825,0.931-1.42,1.673
					c-0.597,0.745-1.283,1.477-2.059,2.201c-0.773,0.721-1.597,1.349-2.468,1.88C430.493,208.529,429.536,208.832,428.733,208.714z
					 M439.468,187.758c-0.332-0.163-1.043,0.065-1.882,0.587c-0.839,0.522-1.75,1.259-2.713,2.207
					c-0.964,0.95-1.935,2.058-2.909,3.323c-0.974,1.263-1.783,2.585-2.448,3.908c-0.5,0.995-0.898,1.996-1.159,2.987
					c-0.261,0.991-0.391,1.904-0.397,2.731c-0.006,0.826,0.111,1.525,0.351,2.091c0.241,0.568,0.612,0.924,1.105,1.078
					c0.401,0.125,1.038-0.166,1.924-0.882c0.883-0.715,1.842-1.678,2.88-2.883c1.037-1.205,2.05-2.564,3.038-4.07
					c0.99-1.509,1.796-2.987,2.414-4.429c0.618-1.442,0.96-2.759,1.017-3.953C440.747,189.261,440.279,188.157,439.468,187.758z"/>
				<path fill="#FFFFFF" d="M452.42,211.417c-1.132-0.195-2.116-0.689-2.716-1.135c-0.602-0.447-0.947-1.036-1.028-1.758
					c-0.081-0.726,0.061-1.623,0.431-2.689c0.369-1.065,0.911-2.394,1.627-3.979c0.716-1.587,1.579-3.462,2.592-5.625
					c1.014-2.164,2.018-4.991,3.327-7.602c0.246-0.49,0.67-0.775,1.101-0.805c0.433-0.03,0.824,0.064,1.175,0.283
					c0.35,0.219,0.621,0.535,0.808,0.948c0.186,0.411,0.177,0.811,0.005,1.184c-0.993,2.151-1.998,4.397-3.09,6.534
					c-1.093,2.138-2.007,4.063-2.748,5.771c-0.741,1.708-1.168,3.13-1.288,4.257c-0.12,1.129,0.466,1.977,1.313,2.006
					c0.616,0.021,1.582-0.38,2.531-0.838c0.951-0.457,1.935-1.001,2.949-1.631c1.014-0.63,2.015-1.303,3-2.018
					c0.983-0.714,1.876-1.396,2.674-2.044c0.797-0.648,1.481-1.214,2.042-1.704c0.556-0.486,0.922-0.843,1.076-0.961
					c0.361-0.274,0.848-0.308,1.212-0.138c0.36,0.168,0.532,0.719,0.319,1.077c-0.205,0.345-1.019,0.914-1.861,1.61
					c-0.842,0.697-1.811,1.459-2.899,2.286c-1.09,0.828-2.242,1.656-3.452,2.489c-1.212,0.833-2.394,1.595-3.542,2.285
					c-1.145,0.688-2.206,1.244-3.177,1.658C453.828,211.294,452.979,211.513,452.42,211.417z M459.462,180.857
					c0.306-0.496,0.716-0.798,1.229-0.874c0.514-0.076,0.988-0.008,1.411,0.204c0.426,0.213,0.741,0.563,0.941,1.047
					c0.2,0.485,0.119,1.053-0.138,1.66c-0.218,0.515-0.576,0.852-1.105,0.925c-0.529,0.074-1.035-0.005-1.505-0.233
					c-0.471-0.229-0.825-0.593-1.061-1.079C458.998,182.02,459.086,181.466,459.462,180.857z"/>
				<path fill="#FFFFFF" d="M472.837,191.278c0.768-0.5,1.442-0.734,2.021-0.699c0.581,0.035,1.055,0.179,1.423,0.435
					c0.368,0.256,0.62,0.564,0.756,0.912c0.135,0.347,0.144,0.59,0.023,0.721c-0.899,1.715-1.347,2.573-2.237,4.29
					c0.106-0.02,0.455-0.214,1.054-0.585c0.601-0.371,1.343-0.789,2.226-1.245c0.885-0.457,1.878-0.903,2.971-1.337
					c1.092-0.434,2.182-0.733,3.268-0.896c1.085-0.163,2.122-0.125,3.105,0.116c0.985,0.242,1.85,0.801,2.499,1.659
					c0.292,0.386,0.481,0.864,0.565,1.396c0.084,0.53,0.079,1.076-0.012,1.63c-0.092,0.557-0.292,1.096-0.598,1.612
					c-0.307,0.517-0.702,0.949-1.143,1.298c-0.304,0.241-0.636,0.386-0.995,0.405c-0.36,0.019-0.665-0.049-0.917-0.202
					c-0.251-0.153-0.418-0.37-0.502-0.643c-0.084-0.275,0.003-0.601,0.247-0.971c0.554-0.837,0.956-1.603,1.212-2.27
					c0.256-0.664,0.074-1.27-0.54-1.813c-0.434-0.384-1.056-0.544-1.871-0.485c-0.814,0.06-1.793,0.312-2.939,0.753
					c-1.145,0.44-2.479,1.066-3.994,1.873c-1.516,0.808-3.199,1.769-5.032,2.884c-2.399,5.193-3.583,7.794-5.92,13.002
					c-0.435,0.419-0.893,0.652-1.37,0.7c-0.479,0.048-0.913,0.017-1.293-0.095c-0.382-0.113-0.693-0.28-0.933-0.492
					c-0.24-0.212-0.326-0.372-0.252-0.478C467.254,204.146,469.09,199.85,472.837,191.278z"/>
				<path fill="#FFFFFF" d="M489.684,218.196c-1.571-0.188-2.866-0.675-3.758-1.282c-0.888-0.604-1.489-1.328-1.801-2.169
					c-0.312-0.839-0.388-1.761-0.223-2.761c0.164-1,0.492-2.012,0.99-3.028c0.498-1.018,1.113-2.012,1.846-2.983
					c0.733-0.969,1.598-1.861,2.333-2.665c0.543-0.594,1.226-1.356,2.064-2.089c0.836-0.732,1.744-1.436,2.719-2.111
					c0.973-0.674,1.988-1.278,3.037-1.801c1.051-0.524,2.074-0.899,3.063-1.128c0.988-0.229,1.899-0.259,2.724-0.092
					c0.823,0.166,1.53,0.595,2.04,1.268c0.447,0.591,0.549,1.268,0.325,1.963c-0.225,0.697-0.676,1.422-1.35,2.171
					s-1.54,1.502-2.583,2.258c-1.043,0.758-2.167,1.489-3.363,2.192c-1.196,0.703-2.437,1.374-3.717,2.005
					c-1.28,0.632-3.002,1.12-3.651,1.687c-0.911,0.796-1.386,2.745-1.474,3.722c-0.088,0.979,0.086,1.755,0.517,2.326
					c0.43,0.569,1.072,0.953,1.926,1.14c0.853,0.187,1.794,0.251,2.825,0.19c1.031-0.062,2.096-0.236,3.193-0.524
					c1.097-0.288,2.157-0.607,3.021-1.013c1.955-0.919,3.593-1.997,4.77-2.874c1.176-0.876,2.096-1.657,2.751-2.349
					c0.652-0.689,1.132-1.268,1.434-1.728c0.302-0.46,0.665-0.799,0.909-1.022c0.201-0.184,0.4-0.372,0.595-0.42
					c0.193-0.048,0.362-0.028,0.503,0.059c0.142,0.087,0.251,0.213,0.329,0.376c0.08,0.166,0.104,0.394,0.026,0.535
					c-0.953,1.707-3.184,3.464-4.771,4.83c-1.586,1.366-3.251,2.473-4.996,3.324c-1.743,0.85-3.618,1.446-5.627,1.791
					C494.298,218.339,492.003,218.474,489.684,218.196z M502.813,198.604c-0.183-0.37-0.721-0.532-1.368-0.414
					c-0.648,0.119-1.38,0.411-2.183,0.869c-0.806,0.459-1.652,1.046-2.527,1.752c-0.878,0.707-1.701,1.439-2.46,2.188
					c-0.759,0.749-1.422,1.487-1.99,2.212c-0.568,0.726-1.129,1.828-1.129,1.828c0.049,0.056,1.352-0.4,2.199-0.761
					c0.848-0.361,1.732-0.782,2.647-1.262c0.914-0.479,1.816-1.007,2.699-1.585c0.882-0.578,1.649-1.154,2.296-1.724
					c0.648-0.571,1.152-1.119,1.507-1.649C502.862,199.526,502.992,198.967,502.813,198.604z"/>
			</g>
		</g>
		<path fill="#FFFFFF" d="M478.268,215.799c-0.232,1.684-0.254,3.309,0.567,4.838c0.899,1.676,2.34,2.992,3.8,4.179
			c1.622,1.32,3.357,2.487,5.136,3.586c0.999,0.619,2.012,1.213,3.028,1.802c0.927,0.537,1.859,1.064,2.789,1.594
			c2.129,1.211,9.167,5.238,10.194,6.229c2.66,2.564,0.713,4.898-2.337,4.952c-4.127,0.072-8.003-1.27-11.978-2.38
			c0,0-18.042-5.559-36.887-9.913c-12.951-2.993-20.488-4.507-27.553-5.216l5.24-1.195c0,0,4.444,2.002,20.121,5.174
			c11.989,2.426,25.407,5.751,39.236,9.932c0,0,10.826,3.645,11.751,0.215c0.129-0.479,0.019-1.271-0.572-1.893
			c-1.529-1.61-2.589-2.273-4.213-3.324c-4.76-3.078-9.972-5.502-14.429-9.039c-2.025-1.61-4.307-3.699-5.062-6.262
			c-0.172-0.579-0.27-1.217-0.073-1.805c0.101-0.295,0.285-0.661,0.505-0.879C477.824,216.105,478.117,215.936,478.268,215.799z"/>
		<path fill="#FFFFFF" d="M217.473,167.178c0,0,8.763-1.861,8.749-8.967c-0.004-1.086-0.194-2.363-0.789-3.689
			c0,0-2.014-6.682-12.234-3.951c0,0-20.016,5.232-28.523,23.521c-0.32,0.691-0.424,1.416-0.639,2.105c0,0-3.05,9.986,4.006,15.023
			c0,0,3.998,3.083,8.099,1.025c0,0-17.746,15.689-18.603,33.922c0,0-0.258,12.957,13.086,16.6
			c5.203,1.421,11.161-0.546,15.548-3.182c5.138-3.085,17.591-7.789,20.123-8.803c12.462-4.984,25.671-7.789,38.856-10.069
			c3.87-0.668,7.75-1.29,11.626-1.917c10.24-1.653,20.691-2.377,31.051-2.673c15.975-0.454,31.941-0.063,47.861,1.382
			c11.174,1.016,16.944,1.614,27.984,3.614c-0.347-0.171-1.262-1.381-3.039-2.271c-0.72-0.36-2.162-0.673-2.162-0.673
			s-42.887-9.518-106.1-1.969c-1.388,0.207-2.772,0.406-4.155,0.652c-11.076,1.963-22.107,4.265-32.955,7.256
			c-2.982,0.822-5.943,1.714-8.874,2.703c-5.481,1.854-10.827,4.059-16.142,6.349c-5.159,2.226-10.546,3.772-16.074,1.738
			c-1.982-0.732-3.714-1.861-5.233-3.332c-5.04-4.883-4.107-13.47-1.82-19.386c4.033-10.443,10.662-19.213,19.613-25.852
			l6.509-4.812c0,0,0.483-0.611,0.032-1.129l-0.325-0.242c0,0-6.049,4.246-9.947,5.32c0,0-5.267,2.16-8.669-0.637
			c-4.715-3.872-2.946-11.036,0.048-15.371c5.039-7.297,12.851-13.831,21.338-16.562c0,0,5.689-1.833,8.564,2.48
			c0,0,0.382,0.814,0.507,1.262c0.572,2.048,0.479,7.948-6.899,9.863C217.89,166.508,217.027,166.793,217.473,167.178z"/>
	</g>
	<g>
		<path fill="#FFFFFF" d="M382.151,242.118c-0.011-1.759-0.258-2.247-1.905-2.243c-17.691,0.178-25.02,15.681-25.02,15.681
			c-0.033-3.183-0.075-10.437-0.083-11.964c-0.022-1.8-0.104-2.415-1.812-2.361c-10.021,0.256-15.427,0.287-26.117,0.892
			c-1.585,0.11-1.895,0.378-1.888,2.016c0,2.181,0.033,6.538,0.057,8.483c0,1.736,0.178,2.064,1.691,2.497
			c1.446,0.446,6.119,1.422,6.172,10.396c0.044,8.031,0.496,65.492,0.519,68.711c0.091,13.799-4.831,12.942-8.302,14.831
			c-1.134,0.605-1.238,0.783-1.251,2.533c0.061,2.475,0.065,6.178,0.125,8.769c-0.021,1.382,0.729,1.64,1.649,1.529
			c12.06-1.142,27.409-1.208,40.688-0.341c1.348,0.076,1.567-0.587,1.545-2.027l-0.086-8.69c-0.026-1.31-0.213-1.64-1.165-2.199
			c-5.232-2.794-10.987-1.042-11.107-14.092c-0.028-2.586-0.522-62.046-0.533-64.396c-0.02-1.425,0.332-2.132,1.693-2.155
			c15.184-0.157,14.393,23.994,14.418,26.26c0.029,1.832,0.871,2.184,2.446,1.457l7.354-4.568c1.676-0.869,1.281-1.656,1.261-3.314
			C382.5,287.82,382.185,245.697,382.151,242.118"/>
		<path fill="#FFFFFF" d="M318.203,241.81c-0.031-1.542-0.351-1.968-2.137-1.968c-15.121,0.236-25.017,19.045-25.017,19.045
			s-0.052-8.84-0.077-11.144c0.013-1.974-0.344-2.447-1.878-2.137c-10.134,1.965-19.073,4.163-27.323,6.438
			c-1.515,0.425-1.674,0.353-1.657,2.345l0.013,8.794c0,1.568,0.345,1.675,1.733,1.948c7.568,1.281,7.228,10.286,7.128,12.608
			c-0.091,2.337,0.342,63.431,0.395,66.306c0.079,12.404-4.453,15.815-7.239,17.013c-1.463,0.651-1.488,1.036-1.475,2.476
			l0.08,9.107c0.008,1.697,0.719,2.014,1.982,1.607c14.451-4.678,24.919-7.482,39.47-10.377c1.416-0.258,1.655-0.809,1.619-2.353
			l-0.06-8.534c0-1.604-0.134-2.012-1.589-2.186c-6.097-0.797-10.58,0.346-10.693-11.08c-0.027-5.483-0.397-63.143-0.392-66.342
			c-0.019-1.678,0.414-2.18,2.002-2.184c15.03-0.274,14.211,22.62,14.211,25.208c0.021,1.685,0.911,2.279,2.161,1.505l7.861-4.924
			c1.298-0.738,1.155-0.682,1.144-2.593C318.465,290.39,318.203,244.426,318.203,241.81"/>
		<path fill="#FFFFFF" d="M404.73,235.972c6.32,0.23,11.09-5.88,10.691-13.626c-0.388-7.738-5.852-14.201-12.1-14.447
			c-6.322-0.213-11.105,5.891-10.718,13.679C392.982,229.293,398.451,235.775,404.73,235.972"/>
		<path fill="#FFFFFF" d="M426.146,359.884c-2.917-1.704-7.584-2.423-7.717-15.311c-0.135-6.536-1.004-93.083-1.004-93.083
			c0.025-1.627-0.195-2.029-1.479-2.312c-11.855-2.53-16.763-3.51-26.498-4.962c-1.4-0.202-1.825,0.468-1.81,1.811
			c0,1.4,0.027,6.34,0.05,8.767c0.011,1.962,0.487,1.997,1.714,2.435c1.18,0.445,6.092,2.111,6.195,10.601
			c0,0,0.499,52.319,0.654,68.502c0.227,16.229-4.856,14.498-8.212,15.124c-1.227,0.264-1.536,0.592-1.536,2.15l0.074,8.613
			c0.017,1.332,0.58,1.809,1.907,2.07c13.675,2.158,22.468,4.504,37.293,8.699c1.85,0.531,1.893-0.702,1.856-1.944
			c-0.007-1.29-0.127-7.431-0.118-8.714C427.488,361.018,427.475,360.682,426.146,359.884"/>
		<path fill="#FFFFFF" d="M457.335,329.949c2.478,0.971,27.765,10.887,30.415,11.919c1.597,0.646,1.854-0.258,1.89-1.993
			c0.123-10.424,0.137-24.32-0.491-36.545c-1.279-23.349-8.943-37.162-25.804-42.365c-19.373-5.949-29.472,4.371-31.218,31.273
			c-0.536,8.426-0.34,38.667,0.25,49.889c2.041,34.656,17.602,44.216,29.197,47.828c20.005,6.227,28.732-8.072,28.315-33.996
			c0-1.349-0.091-1.811-1.297-2.293l-17.071-6.548c-1.163-0.485-1.882,0.046-1.882,1.447l0.152,10
			c0.046,4.423,0.358,14.5-7.675,11.795c-7.188-2.403-7.347-11.859-7.428-17.941c0,0-0.186-19.463-0.199-19.703
			C454.46,330.106,454.871,328.984,457.335,329.949 M453.985,295.135c-0.095-7.713-0.196-17.939,7.027-15.097
			c6.753,2.672,6.81,9.753,6.922,20.372c0,1.305,0.165,12.584,0.165,13.986c0,1.083-0.342,1.961-1.767,1.359l-10.969-4.305
			c-0.874-0.393-1.199-0.938-1.23-2.334C454.133,307.478,453.998,296.752,453.985,295.135"/>
		<path fill="#FFFFFF" d="M220.548,335.537l32.812-13.486c1.274-0.5,1.29-0.708,1.332-2.275c0.286-10.814,0.553-21.625-0.176-33.633
			c-1.052-18.336-7.919-32.857-28.869-25.398c-24.4,8.778-28.644,31.341-29.316,55.763c-0.155,5.911-0.124,36.583,0.644,47.378
			c1.453,20.607,9.084,38.838,31.933,29.281c21.956-9.06,26.218-20.891,26.018-57.998c-0.01-1.657-0.658-2.055-2.066-1.467
			l-17.188,7.228c-1.02,0.447-1.139,0.707-1.139,2.053l0.056,14.019c0.062,4.958,0.13,14.177-7.099,17.11
			c-7.947,3.301-8.014-6.898-8.014-11.88c-0.051-2.161-0.151-21.687-0.16-23.965C219.302,336.699,219.425,335.977,220.548,335.537
			 M219.206,297.779c-0.051-9.146,1.313-14.951,6.483-16.793c6.324-2.25,7.781,3.549,7.798,11.631
			c-0.007,4.352,0.063,12.844,0.056,17.652c0.035,1.364-0.33,2.027-1.1,2.282l-11.468,4.57c-0.903,0.349-1.737-0.022-1.743-1.386
			C219.201,309.096,219.206,303.005,219.206,297.779"/>
		<path fill="#FFFFFF" d="M182.675,387.752c-0.895-0.149-1.092-0.155-1.169-1.453c-0.106-1.288-0.311-91.539-0.311-91.539
			c-0.023-12.239,4.413-11.653,6.94-11.653c1.387,0,2.347-0.406,2.138-3.37c-0.326-6.016-2.983-13.973-7.736-18.618
			c-1.161-1.131-2.281-0.448-2.884,1.506c-2.06,6.8-5.538,7.685-8.273,5.405c-3.209-2.566-2.877-8.373,1.273-12.912
			c1.357-1.439,0.781-3.012-0.604-3.843c-10.031-5.997-28.921-0.262-39.186,14.383c-0.786,1.089-0.691,2.749-0.152,3.251
			c4.625,4.238,4.512,10.168,1.205,13.558c-3.327,3.446-7.231,0.882-7.814-5.501c-0.151-1.715-1.7-1.588-2.689-0.271
			c-4.688,5.867-10.213,14.709-13.716,22.58c-0.6,1.416-0.459,2.078,0.027,3.062c0.594,1.248,2.737,5.37,3.759,6.844
			c0.642,0.904,1.751,1.398,2.652,0.336c4.388-5.282,7.45-3.265,7.471,0.104l0.532,173.26c-0.105,11.448-7.298,10.536-8.869,4.362
			c-0.598-2.367-1.734-2.162-2.955,0.066c-5.853,10.584-0.409,25.918,10.881,25.092c0.842-0.062,0.891,0.072,0.927,0.745
			c0.186,17.337-5.385,18.199-7.539,18.142c-2.754-0.142-2.294,2.186-1.331,4.047c6.229,12.088,27.419,12.903,30.691-14.633
			c0.167-1.059,0.746-1.025,1.602-0.873c14.51,2.947,19.102-17.635,14.869-25.572c-1.469-2.751-2.512-2.415-3.194-0.318
			c-2.56,8.097-12.965,12.742-13.226-3.595l-0.264-50.403c-0.024-1.177,0.893-1.773,1.849-0.551
			c10.413,13.571,31.408,0.664,33.64-24.904c0.507-5.439,5.527-3.818,5.437,7.221c-0.009,1.167,0.654,2.211,2.477,0.545
			C197.327,414.86,199.352,390.333,182.675,387.752 M145.544,405.301c-0.053-8.676-0.27-105.461-0.27-105.461
			c-0.019-13.422,14.214-14.863,14.223-0.369c0.03,6.685,0.268,99.349,0.29,105.392
			C159.859,419.073,145.594,419.522,145.544,405.301"/>
		<path fill="#FFFFFF" d="M526.461,329.156c-0.024-1.543,0.485-1.871,1.727-1.75c12.975,1.267,13.783,33.067,13.814,35.122
			c0.035,1.433,0.79,1.73,1.758,1.112l8.32-5.204c1.059-0.748,1.509-0.917,1.474-2.542c-0.05-4.258-0.724-42.943-0.724-42.943
			c-0.104-1.516,0.018-2.104-1.302-2.756c-13.343-7.112-25.323,2.124-25.323,2.124l-0.185-16.353c0-1.631,0.014-2.119-1.394-2.954
			c-4.382-2.504-22.674-12.366-26.095-14.358c-1.103-0.623-1.604-0.04-1.575,1.323l0.149,10.464
			c0.024,1.274,0.047,1.475,0.825,2.199c2.129,1.982,6.257,5.583,6.431,16.393c0,0,0.977,64.896,1.049,71.512
			c0.276,13.682-3.795,13.586-7.85,12.807c-1.411-0.284-1.702,0.283-1.694,1.774c0.05,1.496,0.139,6.983,0.17,9.08
			c0.05,1.552,0.099,1.712,1.481,2.532c10.078,5.844,26.38,16.43,37.232,23.946c1.508,1.053,2.111,0.18,2.083-1.346l-0.227-12.284
			c-0.023-1.478-0.023-1.47-1.232-2.647c-6.482-6.292-7.605-11.576-7.796-21.089C527.512,390.787,526.461,329.156,526.461,329.156"
			/>
	</g>
	<g>
		<path fill="#FFFFFF" d="M562.816,441.682c-1.728,1.671-3.801,2.507-6.22,2.507c-2.499,0-4.604-0.857-6.315-2.567
			c-1.711-1.712-2.567-3.817-2.567-6.315c0-2.597,0.924-4.754,2.773-6.473c1.735-1.607,3.773-2.411,6.11-2.411
			c2.451,0,4.545,0.868,6.28,2.603c1.735,1.735,2.604,3.828,2.604,6.28C565.48,437.829,564.591,439.954,562.816,441.682z
			 M551.378,430.158c-1.414,1.446-2.121,3.162-2.121,5.147c0,2.057,0.719,3.805,2.158,5.243c1.429,1.438,3.157,2.156,5.182,2.156
			c2.017,0,3.741-0.723,5.171-2.169c1.431-1.454,2.146-3.198,2.146-5.23c0-1.977-0.712-3.692-2.134-5.147
			c-1.438-1.479-3.167-2.218-5.184-2.218C554.555,427.94,552.816,428.68,551.378,430.158z M552.704,440.247v-9.848
			c0.61,0,1.524,0.003,2.741,0.006c1.219,0.004,1.896,0.011,2.031,0.018c0.78,0.056,1.427,0.225,1.941,0.506
			c0.875,0.482,1.313,1.266,1.313,2.351c0,0.827-0.231,1.426-0.692,1.793c-0.463,0.368-1.031,0.588-1.707,0.66
			c0.619,0.129,1.086,0.318,1.398,0.568c0.578,0.469,0.868,1.206,0.868,2.209v0.881c0,0.096,0.007,0.192,0.019,0.289
			c0.014,0.097,0.036,0.192,0.071,0.289l0.09,0.277h-2.459c-0.08-0.312-0.135-0.768-0.162-1.362
			c-0.028-0.595-0.083-0.996-0.163-1.205c-0.129-0.346-0.37-0.587-0.724-0.724c-0.192-0.08-0.485-0.133-0.879-0.156l-0.567-0.036
			h-0.542v3.483H552.704z M557.404,432.34c-0.354-0.136-0.852-0.205-1.494-0.205h-0.627v2.856h1.001c0.602,0,1.072-0.119,1.41-0.36
			c0.337-0.241,0.506-0.632,0.506-1.17C558.2,432.923,557.935,432.549,557.404,432.34z"/>
	</g>
</g>
</svg>
