<?xml version="1.0" encoding="utf-8"?>
<!-- Generator: Adobe Illustrator 19.2.1, SVG Export Plug-In . SVG Version: 6.00 Build 0)  -->
<svg version="1.0" id="Calque_1" xmlns="http://www.w3.org/2000/svg" xmlns:xlink="http://www.w3.org/1999/xlink" x="0px" y="0px"
	 width="708.66px" height="708.66px" viewBox="0 0 708.66 708.66" enable-background="new 0 0 708.66 708.66" xml:space="preserve">
<g>
	<g>
		<g>
			<g>
				<path fill="#FFFFFF" d="M237.336,225.236c-0.017-0.627-0.118-1.323-0.308-2.09c-0.189-0.765-0.455-1.486-0.794-2.151
					c-0.34-0.666-0.741-1.209-1.196-1.626c-0.454-0.415-0.956-0.574-1.491-0.473c-0.438,0.083-0.916,0.363-1.429,0.833
					c-0.516,0.472-1.046,1.064-1.584,1.771c-0.536,0.705-1.07,1.471-1.593,2.292c-0.521,0.82-1.01,1.638-1.459,2.446
					c-0.448,0.807-0.852,1.551-1.212,2.229c-0.358,0.677-0.665,1.221-0.889,1.529c-0.1,0.138-0.307,0.227-0.508,0.255
					c-0.199,0.027-0.344,0.058-0.508-0.036c-0.166-0.095-0.286-0.236-0.354-0.421c-0.069-0.187,0.01-0.421,0.203-0.69
					c0.276-0.386,0.613-0.957,1.017-1.658c0.404-0.699,0.859-1.462,1.359-2.28c0.501-0.82,1.044-1.655,1.631-2.503
					c0.587-0.848,1.192-1.636,1.819-2.361c0.624-0.721,1.247-1.334,1.862-1.824c0.615-0.49,1.232-0.794,1.839-0.908
					c0.743-0.14,1.4-0.023,1.964,0.342c0.566,0.367,1.052,0.858,1.446,1.472c0.394,0.613,0.734,1.306,1.007,2.069
					c0.273,0.766,0.489,1.48,0.649,2.137c2.257-3.437,3.408-5.151,5.753-8.571c0.275-0.333,0.639-0.559,1.086-0.678
					c0.447-0.119,0.869-0.127,1.262-0.022c0.394,0.105,0.712,0.316,0.957,0.631c0.245,0.315,0.322,0.737,0.229,1.268
					c-3.182,4.779-4.731,7.177-7.745,11.987c0.279,0.721,0.636,1.624,1.069,2.703c0.433,1.078,0.925,2.107,1.467,3.08
					c0.542,0.974,1.127,1.808,1.749,2.495c0.622,0.688,1.268,1.015,1.934,0.985c0.631-0.028,1.35-0.359,2.151-0.998
					c0.794-0.634,1.617-1.443,2.464-2.413c0.848-0.971,1.676-2.03,2.477-3.172c0.801-1.142,1.523-2.231,2.156-3.257
					c0.634-1.027,1.138-1.926,1.508-2.695c0.369-0.769,0.51-1.322,0.541-1.494c0.064-0.355,0.489-0.617,0.911-0.569
					s0.782,0.409,0.786,0.819c0.005,0.505-0.419,1.395-0.905,2.337c-0.488,0.944-1.078,1.956-1.768,3.033
					c-0.689,1.076-1.459,2.173-2.3,3.278c-0.842,1.106-1.692,2.126-2.544,3.053c-0.854,0.929-1.708,1.716-2.55,2.36
					c-0.843,0.645-1.601,1.045-2.274,1.191c-0.736,0.16-1.433,0.075-2.084-0.251c-0.651-0.326-1.248-0.8-1.786-1.416
					c-0.539-0.617-1.037-1.322-1.485-2.112c-0.446-0.789-0.85-1.563-1.206-2.312c-0.356-0.748-0.653-1.433-0.889-2.048
					c-0.237-0.616-0.42-1.041-0.544-1.275c-3.295,4.767-4.898,7.161-8.016,11.962c-0.58,0.377-1.111,0.584-1.592,0.624
					c-0.481,0.041-0.898-0.039-1.242-0.241c-0.346-0.204-0.591-0.499-0.732-0.888c-0.14-0.387-0.138-0.813,0.008-1.275
					C231.399,233.896,233.335,231,237.336,225.236z"/>
				<path fill="#FFFFFF" d="M262.291,236.539c-1.167,0.179-2.113,0.086-2.844-0.283c-0.73-0.368-1.315-0.947-1.751-1.73
					c-0.437-0.784-0.734-1.734-0.887-2.849c-0.154-1.113-0.219-2.324-0.18-3.603c0.041-1.366,0.176-2.811,0.378-4.309
					c0.201-1.496,0.427-2.941,0.677-4.331c0.25-1.391,0.491-2.686,0.716-3.887c0.224-1.199,0.398-2.208,0.517-3.023
					c-2.063,0.278-3.095,0.421-5.157,0.714c-0.338,0.055-0.604,0.012-0.792-0.129c-0.186-0.139-0.274-0.321-0.267-0.534
					c0.007-0.211,0.107-0.451,0.298-0.709c0.189-0.256,0.518-0.467,0.974-0.625c2.043-0.322,3.065-0.48,5.109-0.788
					c0.774-4.364,1.177-6.546,2.017-10.91c0.146-0.533,0.478-0.913,0.99-1.142c0.51-0.229,1.04-0.321,1.585-0.27
					c0.543,0.05,1.023,0.227,1.434,0.525c0.409,0.297,0.572,0.692,0.483,1.187c-0.854,3.982-1.266,5.973-2.063,9.956
					c2.269-0.328,3.405-0.487,5.675-0.796c0.234-0.06,0.445-0.017,0.626,0.128c0.181,0.145,0.296,0.338,0.336,0.571
					c0.04,0.232-0.011,0.47-0.161,0.703c-0.15,0.233-0.455,0.421-0.915,0.569c-2.298,0.348-3.446,0.527-5.742,0.894
					c-0.214,1.255-0.463,2.575-0.748,3.966c-0.284,1.391-0.553,2.783-0.814,4.171c-0.261,1.388-0.501,2.754-0.724,4.095
					c-0.223,1.342-0.394,2.618-0.535,3.794c-0.135,1.123-0.209,2.164-0.203,3.103c0.006,0.939,0.087,1.724,0.233,2.354
					c0.146,0.63,0.398,1.106,0.747,1.42c0.352,0.317,0.816,0.395,1.387,0.257c1.072-0.259,2.081-0.676,2.984-1.279
					c0.902-0.602,1.723-1.3,2.463-2.086c0.739-0.785,1.395-1.631,1.968-2.535c0.573-0.903,1.095-1.799,1.531-2.679
					c0.594-1.199,1.066-2.314,1.417-3.296c0.349-0.979,0.578-1.715,0.724-2.096c0.1-0.26,0.302-0.471,0.534-0.601
					c0.233-0.13,0.474-0.169,0.72-0.116c0.248,0.053,0.449,0.212,0.596,0.475c0.146,0.262,0.262,0.756,0.151,1.17
					c-0.064,0.238-0.366,0.884-0.724,1.836c-0.36,0.955-0.877,2.056-1.521,3.305c-0.501,0.971-1.105,1.971-1.807,2.989
					c-0.704,1.02-1.518,1.963-2.44,2.832c-0.92,0.868-1.962,1.632-3.119,2.284C265.006,235.883,263.718,236.32,262.291,236.539z"/>
				<path fill="#FFFFFF" d="M275.501,211.315c0.619-0.646,1.218-1.011,1.794-1.097c0.572-0.085,1.076-0.041,1.502,0.132
					c0.429,0.174,0.749,0.417,0.976,0.731c0.223,0.311,0.293,0.543,0.214,0.693c-0.428,1.851-0.639,2.777-1.054,4.628
					c0.096-0.04,0.388-0.304,0.875-0.786c0.488-0.483,1.099-1.042,1.842-1.666c0.744-0.626,1.59-1.263,2.543-1.911
					c0.95-0.647,1.937-1.162,2.948-1.542c1.012-0.381,2.029-0.556,3.051-0.524c1.023,0.032,2.004,0.397,2.862,1.098
					c0.385,0.315,0.69,0.742,0.911,1.239c0.222,0.499,0.361,1.028,0.418,1.584c0.058,0.559,0.005,1.124-0.155,1.689
					c-0.16,0.564-0.435,1.068-0.768,1.495c-0.231,0.297-0.518,0.506-0.861,0.599c-0.339,0.092-0.656,0.089-0.943-0.007
					c-0.283-0.095-0.504-0.271-0.657-0.521c-0.154-0.25-0.153-0.586-0.014-0.995c0.316-0.924,0.505-1.755,0.577-2.453
					c0.072-0.698-0.256-1.248-1-1.65c-0.523-0.283-1.169-0.312-1.945-0.086c-0.775,0.226-1.663,0.67-2.661,1.334
					c-1,0.664-2.136,1.545-3.401,2.642c-1.263,1.095-2.648,2.376-4.143,3.838c-0.959,5.537-1.413,8.305-2.272,13.841
					c-0.312,0.497-0.698,0.818-1.15,0.963c-0.456,0.146-0.889,0.204-1.292,0.174c-0.402-0.03-0.754-0.124-1.05-0.283
					c-0.293-0.156-0.421-0.296-0.375-0.415C273.437,224.965,274.082,220.415,275.501,211.315z"/>
				<path fill="#FFFFFF" d="M298.277,231.603c-1.188-0.095-2.285-0.662-3.01-1.363c-0.724-0.7-1.241-1.55-1.547-2.547
					c-0.306-0.997-0.42-2.101-0.338-3.308c0.081-1.207,0.339-2.416,0.737-3.61c0.675-2.022,1.532-3.852,2.603-5.423
					c1.071-1.57,2.206-2.915,3.404-4.026c1.197-1.11,2.386-1.968,3.549-2.561c1.166-0.594,2.254-0.884,3.024-1.037
					c0.531-0.105,1.099-0.154,1.599,0.016c0.498,0.171,0.921,0.446,1.268,0.827c0.347,0.379,0.62,0.814,0.826,1.304
					c0.206,0.491,0.226,1.459,0.226,1.459c0.025,0.012,0.659-0.902,0.87-1.521s0.5-1.203,0.803-1.728
					c0.146-0.253,0.351-0.432,0.615-0.508c0.267-0.077,0.554-0.071,0.853,0.02c0.298,0.09,0.579,0.253,0.84,0.488
					c0.261,0.234,0.589,0.633,0.595,0.885c0.071,2.704-2.244,7.033-3.031,9.523c-0.788,2.492-1.354,4.468-1.714,5.914
					c-0.361,1.45-0.514,2.465-0.47,3.035c0.044,0.57,0.376,0.922,0.811,0.882c0.75-0.068,1.72-0.586,2.645-1.218
					c0.926-0.632,1.844-1.37,2.759-2.21c0.913-0.838,1.785-1.735,2.614-2.69c0.828-0.955,1.574-1.862,2.238-2.719
					c0.389-0.503,0.727-0.96,1.011-1.371c0.283-0.41,0.567-1.003,0.739-1.098c0.262-0.144,0.915,0.119,1.036,0.379
					c0.121,0.259,0.127,0.623-0.033,0.866c-0.166,0.252-0.522,0.585-0.824,0.953c-0.304,0.37-0.625,0.776-0.957,1.177
					c-0.758,0.917-1.669,1.932-2.632,3.037c-0.962,1.104-2.009,2.154-3.134,3.148c-1.125,0.993-2.298,1.864-3.519,2.604
					c-1.225,0.743-2.609,1.128-3.774,1.403c-0.653,0.154-1.257,0.138-1.68-0.261c-0.423-0.398-0.735-0.936-0.927-1.606
					c-0.192-0.671-0.285-1.401-0.274-2.171c0.01-0.774,0.273-1.946,0.273-1.946c-0.008-0.004-0.752,0.983-1.289,1.76
					c-0.538,0.779-1.169,1.554-1.886,2.324c-0.719,0.771-1.491,1.449-2.323,2.035C300.025,231.305,299.092,231.668,298.277,231.603z
					 M307.464,210.028c-0.342-0.141-1.039,0.129-1.844,0.704c-0.807,0.574-1.666,1.368-2.568,2.377
					c-0.903,1.01-1.8,2.179-2.684,3.499c-0.886,1.323-1.604,2.691-2.173,4.054c-0.428,1.025-0.749,2.048-0.935,3.052
					c-0.187,1.006-0.249,1.921-0.188,2.748c0.061,0.825,0.237,1.514,0.524,2.062c0.287,0.547,0.693,0.879,1.2,1
					c0.407,0.097,1.027-0.234,1.854-1.003c0.83-0.77,1.715-1.79,2.659-3.058c0.944-1.269,1.857-2.686,2.732-4.254
					c0.875-1.568,1.573-3.089,2.088-4.567c0.515-1.477,0.764-2.812,0.738-4.006C308.844,211.444,308.302,210.375,307.464,210.028z"
					/>
				<path fill="#FFFFFF" d="M326.6,229.338c-1.866-0.278-3.393-1.042-4.508-2.19c-1.115-1.149-1.872-2.506-2.258-4.064
					c-0.386-1.561-0.419-3.211-0.086-4.946c0.333-1.736,0.996-3.346,1.99-4.826c0.994-1.48,2.304-2.72,3.929-3.71
					c1.624-0.989,3.985-1.865,5.705-1.563c0.057,0.01,0.137,0.042,0.208,0.053c0.067,0.011,0.183,0.098,0.209,0.095
					c0.504-0.045,2.47-1.812,4.219-2.081c1.31-0.201,2.504-0.053,3.441,0.346c0.935,0.398,1.677,0.992,2.221,1.771
					c0.544,0.781,0.904,1.717,1.086,2.803c0.181,1.081,0.2,2.243,0.066,3.466c-0.133,1.221-0.405,2.48-0.812,3.768
					c-0.407,1.29-1.52,3.733-1.52,3.733c0.068,0.099,1.946-0.434,2.979-1.027c1.035-0.593,1.995-1.247,2.882-1.958
					c0.889-0.712,1.656-1.41,2.301-2.098c0.645-0.689,1.031-1.276,1.204-1.499c0.152-0.196,0.453-0.313,0.672-0.331
					c0.214-0.018,0.399,0.02,0.552,0.113c0.154,0.094,0.24,0.241,0.263,0.435c0.023,0.198-0.052,0.424-0.208,0.678
					c-0.515,0.838-1.212,1.701-2.098,2.548c-0.887,0.847-1.861,1.623-2.928,2.327c-1.063,0.701-2.163,1.288-3.297,1.76
					c-1.132,0.472-2.646,0.512-3.178,0.765c-0.695,0.331-1.75,1.821-2.724,2.592c-0.974,0.77-2.007,1.411-3.104,1.926
					c-1.095,0.514-2.241,0.872-3.433,1.075C329.178,229.503,327.898,229.531,326.6,229.338z M336.236,223.047
					c-0.195-0.504-2.411-1.669-3.345-2.815c-0.934-1.147-1.649-2.369-2.135-3.661c-0.487-1.293-0.725-2.594-0.711-3.898
					c0.014-1.306,0.99-3.522,0.99-3.522c-0.025-0.025-1.96,1.419-2.832,2.502c-0.872,1.084-1.628,2.285-2.268,3.598
					c-0.641,1.314-1.124,2.677-1.447,4.085c-0.323,1.409-0.443,2.715-0.364,3.917c0.08,1.202,0.396,2.246,0.941,3.122
					c0.546,0.879,1.401,1.449,2.521,1.729c0.798,0.2,1.667,0.141,2.592-0.201c0.925-0.342,1.813-0.804,2.662-1.377
					c0.852-0.573,1.597-1.191,2.231-1.848C335.704,224.018,336.289,223.183,336.236,223.047z M336.077,207.408
					c-1.009,0.181-1.821,0.584-2.428,1.198c-0.608,0.616-1.031,1.361-1.264,2.224c-0.233,0.866-0.292,1.804-0.18,2.808
					c0.112,1.002,0.377,1.995,0.787,2.971c0.41,0.975,0.976,1.891,1.69,2.74c0.714,0.849,2.222,2.168,2.507,2.1
					c0.256-0.06,0.869-1.544,1.232-2.552c0.364-1.009,0.638-2.058,0.819-3.144c0.181-1.085,0.272-2.162,0.271-3.226
					c-0.001-1.065-0.113-2.001-0.34-2.805c-0.226-0.805-0.594-1.43-1.108-1.871C337.549,207.41,336.885,207.262,336.077,207.408z"/>
				<path fill="#FFFFFF" d="M353.261,205.657c0.7-0.572,1.343-0.869,1.921-0.892c0.578-0.023,1.069,0.075,1.462,0.294
					c0.392,0.218,0.678,0.498,0.852,0.83c0.175,0.334,0.21,0.573,0.111,0.714c-0.688,1.79-1.03,2.685-1.706,4.476
					c0.1-0.031,0.427-0.259,0.974-0.686c0.548-0.427,1.234-0.912,2.056-1.452c0.824-0.54,1.747-1.08,2.778-1.617
					c1.031-0.537,2.075-0.941,3.127-1.209c1.054-0.268,2.08-0.33,3.082-0.187c1,0.143,1.913,0.612,2.659,1.399
					c0.338,0.357,0.576,0.811,0.721,1.329c0.145,0.52,0.207,1.06,0.183,1.62c-0.024,0.559-0.156,1.113-0.397,1.655
					c-0.242,0.544-0.582,1.011-0.973,1.401c-0.269,0.268-0.58,0.445-0.933,0.499c-0.353,0.054-0.662,0.019-0.93-0.109
					c-0.265-0.126-0.458-0.325-0.572-0.589c-0.116-0.266-0.067-0.6,0.13-0.988c0.447-0.881,0.75-1.686,0.925-2.371
					c0.174-0.683-0.074-1.266-0.748-1.746c-0.471-0.336-1.108-0.437-1.904-0.298c-0.793,0.139-1.736,0.485-2.816,1.035
					c-1.078,0.549-2.322,1.301-3.726,2.25c-1.404,0.95-2.952,2.068-4.632,3.354c-1.743,5.388-2.59,8.085-4.234,13.483
					c-0.379,0.459-0.804,0.735-1.27,0.831c-0.469,0.096-0.901,0.105-1.294,0.032c-0.396-0.074-0.724-0.206-0.994-0.396
					c-0.268-0.187-0.371-0.34-0.311-0.453C349.259,218.972,350.55,214.529,353.261,205.657z"/>
				<path fill="#FFFFFF" d="M381.318,222.978c-0.041-0.007-1.032,1.731-1.768,2.485c-0.736,0.756-1.553,1.4-2.449,1.935
					c-0.899,0.537-1.834,0.943-2.798,1.217c-0.966,0.275-1.882,0.364-2.744,0.262c-0.869-0.101-1.654-0.4-2.358-0.896
					c-0.705-0.496-1.314-1.291-1.567-2.239c-0.266-0.998-0.187-2.3,0.081-3.641c0.267-1.338,0.695-2.722,1.307-4.098
					c0.529-1.189,1.196-2.371,1.952-3.526c0.757-1.156,1.597-2.222,2.524-3.199c0.924-0.974,1.892-1.832,2.899-2.566
					c1.01-0.735,2.036-1.272,3.079-1.611c1.039-0.338,2.06-0.442,3.044-0.313c0.986,0.129,1.911,0.541,2.765,1.234
					c2.19-6.471,3.317-9.702,5.634-16.155c0.21-0.447,0.504-0.77,0.886-0.965c0.383-0.196,0.778-0.27,1.18-0.227
					c0.399,0.043,0.753,0.204,1.047,0.485c0.296,0.282,0.544,0.756,0.495,1.136c-0.519,3.992-3.016,9.093-4.327,13.098
					c-1.313,4.008-2.354,7.584-3.217,10.599c-0.247,0.863-0.483,1.796-0.671,2.775c-0.189,0.982-0.322,1.944-0.394,2.882
					c-0.071,0.937-0.087,1.829-0.047,2.667c0.04,0.841,0.17,1.549,0.387,2.12c0.219,0.573,0.55,0.977,0.989,1.212
					c0.442,0.236,1.009,0.214,1.689-0.027c0.732-0.261,1.479-0.697,2.198-1.325c0.721-0.63,1.425-1.352,2.116-2.16
					c0.693-0.809,1.356-1.654,1.991-2.534c0.633-0.875,1.211-1.704,1.732-2.484c0.522-0.779,0.972-1.462,1.346-2.044
					c0.374-0.583,0.686-1.076,0.862-1.168c0.261-0.136,0.686-0.018,0.85,0.179c0.164,0.198,0.198,0.677-0.016,1.05
					c-0.399,0.695-1.376,1.733-2.183,2.956c-0.809,1.225-1.698,2.457-2.66,3.698c-0.962,1.241-1.989,2.356-3.084,3.347
					c-1.096,0.992-2.332,1.756-3.443,1.914c-2.137,0.303-4.12-0.374-5.26-1.498C382.246,226.43,381.318,222.978,381.318,222.978z
					 M380.223,208.709c-0.812,0.446-1.62,1.131-2.359,1.845c-0.736,0.712-1.421,1.492-2.048,2.33
					c-0.627,0.84-1.186,1.724-1.672,2.644c-0.486,0.921-0.907,1.841-1.228,2.739c-0.369,1.033-0.615,2.065-0.76,3.048
					c-0.144,0.982-0.144,1.874,0.001,2.668c0.145,0.794,0.441,1.461,0.882,1.995c0.443,0.535,1.095,0.924,1.847,1.024
					c0.522,0.07,1.19-0.243,1.91-0.861c0.717-0.616,1.45-1.445,2.194-2.479c0.743-1.033,1.466-2.201,2.152-3.499
					c0.685-1.297,1.269-2.609,1.745-3.929c0.445-1.236,0.79-2.411,1.023-3.519c0.233-1.107,0.345-2.158,0.18-2.923
					c-0.074-0.341-0.315-0.658-0.617-0.876c-0.306-0.221-0.649-0.371-1.023-0.45c-0.374-0.08-0.765-0.096-1.168-0.049
					C380.877,208.467,380.501,208.556,380.223,208.709z"/>
				<path fill="#FFFFFF" d="M399.522,229.764c-1.138-0.147-2.145-0.596-2.769-1.016c-0.624-0.421-1.002-0.992-1.122-1.711
					c-0.12-0.719-0.026-1.621,0.284-2.699c0.31-1.08,0.778-2.426,1.408-4.04c0.63-1.612,1.389-3.52,2.288-5.717
					c0.901-2.201,1.76-5.067,2.936-7.723c0.221-0.499,0.63-0.802,1.056-0.849c0.43-0.048,0.827,0.031,1.184,0.232
					c0.36,0.203,0.647,0.508,0.853,0.91c0.205,0.401,0.213,0.804,0.061,1.181c-0.883,2.189-1.771,4.469-2.751,6.648
					c-0.979,2.179-1.79,4.137-2.437,5.87c-0.648,1.734-0.996,3.171-1.054,4.304c-0.058,1.132,0.574,1.95,1.419,1.943
					c0.615-0.005,1.553-0.444,2.475-0.941c0.918-0.495,1.867-1.082,2.841-1.754c0.974-0.672,1.933-1.386,2.875-2.141
					c0.94-0.755,1.789-1.471,2.55-2.152c0.757-0.678,1.405-1.275,1.937-1.787c0.53-0.509,0.874-0.882,1.019-1.004
					c0.342-0.288,0.827-0.342,1.199-0.188c0.368,0.153,0.564,0.694,0.372,1.059c-0.186,0.352-0.962,0.957-1.762,1.686
					c-0.803,0.732-1.724,1.531-2.761,2.403c-1.038,0.872-2.139,1.749-3.297,2.631c-1.16,0.883-2.292,1.694-3.395,2.431
					c-1.104,0.736-2.128,1.333-3.071,1.787C400.915,229.581,400.083,229.836,399.522,229.764z M404.974,198.988
					c0.283-0.508,0.678-0.825,1.188-0.923c0.504-0.097,0.98-0.051,1.413,0.142c0.433,0.194,0.762,0.531,0.981,1.006
					c0.22,0.476,0.171,1.043-0.059,1.658c-0.196,0.525-0.537,0.873-1.059,0.969c-0.523,0.096-1.026,0.041-1.508-0.168
					c-0.479-0.21-0.85-0.556-1.106-1.031C404.569,200.166,404.627,199.611,404.974,198.988z"/>
				<path fill="#FFFFFF" d="M432.779,231.078c-1.751,0.585-2.978,0.746-3.697,0.467c-0.719-0.278-1.096-0.848-1.139-1.71
					c-0.042-0.863,0.172-1.934,0.642-3.216c0.471-1.28,1.014-2.638,1.627-4.073c0.613-1.434,1.22-2.852,1.821-4.245
					c0.6-1.394,0.992-2.639,1.168-3.734c0.176-1.093,0.053-1.961-0.376-2.593c-0.429-0.632-1.338-0.891-2.71-0.761
					c-0.893,0.085-1.852,0.327-2.863,0.717c-1.01,0.389-2.049,0.934-3.107,1.632c-1.058,0.7-2.104,1.537-3.132,2.51
					c-1.028,0.973-2.075,2.097-2.83,3.302c-0.171,0.274-0.458,0.89-0.878,1.769c-0.421,0.881-0.867,1.834-1.328,2.852
					c-0.462,1.02-0.893,1.975-1.29,2.858c-0.397,0.883-0.669,1.51-0.834,1.775c-0.34,0.545-0.917,0.911-1.519,1.053
					c-0.602,0.141-1.138,0.127-1.613-0.045c-0.473-0.172-0.832-0.462-1.074-0.871c-0.241-0.408-0.136-0.91,0.1-1.426
					c0.297-0.648,0.736-1.857,1.429-3.341c0.692-1.482,1.644-3.531,2.894-6.06c0.682-1.38,1.461-2.94,2.286-4.664
					c0.825-1.724,1.886-3.696,2.79-5.763c0.146-0.334,0.465-0.618,0.975-0.788c0.514-0.172,1.033-0.237,1.56-0.195
					c0.525,0.041,0.981,0.197,1.359,0.466c0.381,0.27,0.543,0.643,0.493,1.117c-1.218,2.298-1.821,3.448-3.016,5.751
					c-0.024-0.088,0.277-0.394,0.908-0.921c0.631-0.526,1.461-1.081,2.493-1.656c1.031-0.574,2.178-1.096,3.442-1.563
					c1.264-0.466,2.518-0.696,3.745-0.697c1.774-0.001,3.042,0.329,3.789,0.994c0.75,0.666,1.151,1.538,1.209,2.614
					c0.058,1.076-0.136,2.301-0.573,3.663c-0.438,1.365-0.959,2.74-1.56,4.116c-0.601,1.379-1.194,2.709-1.776,3.992
					c-0.582,1.281-0.983,2.372-1.215,3.264c-0.232,0.894-0.213,1.538,0.048,1.928c0.262,0.391,1.013,0.434,2.043,0.031
					c1.155-0.452,2.422-1.176,3.701-1.929c1.28-0.755,2.555-1.553,3.823-2.385c1.271-0.835,2.494-1.686,3.665-2.555
					c1.172-0.87,2.289-1.855,3.259-2.484c0.413-0.268,0.559-0.475,0.881-0.282c0.324,0.194-0.115,0.583-0.596,1
					c-0.514,0.445-0.86,1.357-2.091,2.273c-1.229,0.915-2.588,1.879-4.068,2.886c-1.48,1.007-3.002,1.971-4.568,2.894
					C435.514,229.964,434.081,230.643,432.779,231.078z"/>
				<path fill="#FFFFFF" d="M445.775,234.557c-1.161-0.17-2.2-0.809-2.859-1.554c-0.658-0.745-1.099-1.628-1.322-2.639
					c-0.223-1.011-0.252-2.12-0.077-3.321c0.175-1.197,0.52-2.387,1.002-3.552c0.816-1.974,1.794-3.744,2.964-5.244
					c1.166-1.496,2.385-2.763,3.647-3.795c1.262-1.033,2.492-1.809,3.69-2.328c1.196-0.517,2.294-0.739,3.07-0.843
					c0.531-0.071,1.103-0.081,1.587,0.12c0.482,0.2,0.886,0.506,1.205,0.904c0.322,0.403,0.567,0.853,0.739,1.357
					c0.171,0.501,0.127,1.47,0.127,1.47c0.024,0.013,0.715-0.859,0.965-1.463c0.25-0.604,0.575-1.168,0.913-1.673
					c0.162-0.242,0.379-0.41,0.646-0.468c0.268-0.059,0.555-0.034,0.846,0.076c0.293,0.11,0.564,0.29,0.808,0.538
					c0.245,0.249,0.546,0.67,0.535,0.922c-0.115,2.718-2.715,6.876-3.681,9.309c-0.967,2.436-1.684,4.369-2.156,5.792
					c-0.472,1.422-0.704,2.425-0.704,2.994c0,0.574,0.3,0.944,0.734,0.933c0.756-0.018,1.758-0.473,2.732-1.046
					c0.972-0.572,1.949-1.246,2.925-2.024c0.974-0.777,1.915-1.616,2.816-2.516c0.9-0.899,1.714-1.756,2.44-2.568
					c0.427-0.475,0.798-0.91,1.114-1.303c0.314-0.389,0.64-0.963,0.82-1.047c0.275-0.128,0.907,0.179,1.01,0.445
					c0.102,0.263,0.082,0.626-0.099,0.861c-0.187,0.243-0.564,0.55-0.894,0.898c-0.333,0.352-0.68,0.733-1.043,1.112
					c-0.833,0.869-1.815,1.822-2.863,2.863c-1.048,1.039-2.175,2.018-3.376,2.936c-1.2,0.918-2.44,1.713-3.717,2.373
					c-1.277,0.661-2.687,0.952-3.866,1.151c-0.665,0.112-1.262,0.06-1.649-0.366c-0.386-0.425-0.654-0.98-0.791-1.663
					c-0.137-0.682-0.169-1.411-0.098-2.184c0.071-0.77,0.426-1.921,0.426-1.921c-0.007-0.005-0.826,0.93-1.42,1.671
					c-0.596,0.743-1.28,1.475-2.055,2.199c-0.773,0.72-1.593,1.346-2.466,1.877S446.577,234.674,445.775,234.557z M456.495,213.624
					c-0.331-0.163-1.039,0.063-1.879,0.586c-0.84,0.522-1.748,1.258-2.709,2.206c-0.962,0.949-1.934,2.059-2.905,3.32
					c-0.971,1.261-1.78,2.58-2.446,3.904c-0.5,0.995-0.896,1.993-1.157,2.984c-0.261,0.992-0.39,1.902-0.397,2.727
					c-0.007,0.825,0.112,1.525,0.352,2.09c0.24,0.563,0.61,0.922,1.103,1.076c0.397,0.124,1.036-0.166,1.921-0.881
					c0.882-0.715,1.839-1.676,2.876-2.88c1.036-1.203,2.048-2.562,3.035-4.066c0.989-1.507,1.796-2.985,2.41-4.424
					c0.615-1.44,0.96-2.756,1.016-3.949C457.772,215.126,457.305,214.023,456.495,213.624z"/>
				<path fill="#FFFFFF" d="M469.434,237.257c-1.131-0.195-2.111-0.686-2.714-1.133c-0.601-0.446-0.943-1.035-1.025-1.757
					c-0.082-0.726,0.061-1.62,0.429-2.686c0.368-1.065,0.911-2.392,1.627-3.975c0.715-1.583,1.577-3.458,2.589-5.618
					c1.013-2.161,2.014-4.987,3.323-7.594c0.245-0.489,0.668-0.774,1.099-0.803c0.436-0.029,0.825,0.064,1.175,0.282
					c0.348,0.217,0.617,0.534,0.805,0.948c0.187,0.41,0.177,0.812,0.005,1.182c-0.993,2.143-1.994,4.393-3.086,6.528
					c-1.092,2.136-2.007,4.058-2.747,5.764c-0.739,1.705-1.168,3.124-1.287,4.252c-0.12,1.13,0.47,1.976,1.313,2.005
					c0.615,0.021,1.579-0.381,2.528-0.837c0.951-0.457,1.931-1.001,2.945-1.631c1.012-0.629,2.014-1.301,2.996-2.015
					c0.982-0.714,1.875-1.394,2.672-2.041c0.797-0.647,1.478-1.213,2.038-1.702c0.557-0.486,0.92-0.841,1.076-0.959
					c0.362-0.274,0.847-0.308,1.211-0.138c0.359,0.168,0.532,0.718,0.32,1.076c-0.205,0.345-1.019,0.914-1.859,1.609
					c-0.843,0.696-1.81,1.456-2.897,2.282c-1.088,0.828-2.238,1.655-3.447,2.487c-1.209,0.831-2.39,1.593-3.538,2.282
					c-1.145,0.687-2.202,1.242-3.173,1.655C470.84,237.134,469.993,237.353,469.434,237.257z M476.469,206.732
					c0.306-0.495,0.714-0.798,1.226-0.874c0.513-0.076,0.985-0.01,1.411,0.203c0.426,0.214,0.741,0.564,0.94,1.046
					c0.199,0.483,0.12,1.051-0.138,1.658c-0.22,0.517-0.578,0.851-1.106,0.924c-0.529,0.074-1.033-0.005-1.501-0.233
					c-0.473-0.23-0.826-0.59-1.062-1.078C476.003,207.893,476.093,207.34,476.469,206.732z"/>
				<path fill="#FFFFFF" d="M489.827,217.139c0.767-0.498,1.442-0.732,2.02-0.697c0.58,0.035,1.054,0.18,1.421,0.435
					c0.369,0.257,0.622,0.563,0.756,0.912c0.133,0.346,0.143,0.589,0.023,0.72c-0.897,1.713-1.344,2.57-2.233,4.285
					c0.104-0.02,0.454-0.215,1.052-0.585c0.601-0.371,1.342-0.788,2.224-1.243c0.883-0.456,1.876-0.902,2.968-1.336
					c1.09-0.433,2.18-0.732,3.264-0.895c1.082-0.162,2.118-0.125,3.101,0.116c0.985,0.242,1.847,0.8,2.496,1.656
					c0.293,0.387,0.481,0.864,0.565,1.395c0.083,0.531,0.08,1.077-0.01,1.629c-0.09,0.554-0.292,1.092-0.599,1.609
					c-0.307,0.517-0.7,0.948-1.142,1.297c-0.304,0.24-0.637,0.386-0.994,0.405c-0.359,0.02-0.665-0.049-0.916-0.202
					c-0.252-0.153-0.419-0.368-0.502-0.642c-0.083-0.275,0.004-0.601,0.248-0.969c0.554-0.834,0.955-1.602,1.211-2.268
					c0.255-0.663,0.074-1.267-0.539-1.81c-0.433-0.383-1.057-0.545-1.869-0.485c-0.814,0.059-1.791,0.31-2.938,0.752
					c-1.144,0.44-2.475,1.064-3.99,1.871c-1.515,0.807-3.194,1.768-5.024,2.881c-2.397,5.188-3.579,7.785-5.913,12.988
					c-0.434,0.419-0.891,0.652-1.37,0.7c-0.477,0.048-0.909,0.017-1.29-0.095c-0.382-0.112-0.692-0.279-0.933-0.491
					c-0.241-0.212-0.325-0.371-0.25-0.478C484.25,229.994,486.084,225.702,489.827,217.139z"/>
				<path fill="#FFFFFF" d="M506.656,244.029c-1.568-0.188-2.863-0.674-3.754-1.28c-0.888-0.604-1.489-1.328-1.801-2.167
					c-0.311-0.837-0.386-1.76-0.222-2.757c0.164-0.998,0.492-2.01,0.989-3.025c0.498-1.016,1.112-2.012,1.843-2.98
					c0.731-0.967,1.599-1.858,2.331-2.66c0.541-0.592,1.223-1.356,2.062-2.088c0.837-0.731,1.741-1.434,2.715-2.108
					c0.974-0.674,1.986-1.276,3.034-1.799c1.048-0.523,2.071-0.896,3.06-1.126c0.987-0.229,1.897-0.26,2.72-0.093
					c0.824,0.167,1.531,0.594,2.039,1.267c0.446,0.591,0.548,1.268,0.324,1.961c-0.224,0.695-0.677,1.42-1.349,2.168
					c-0.672,0.748-1.538,1.501-2.58,2.256c-1.042,0.756-2.164,1.487-3.36,2.19c-1.193,0.702-2.433,1.372-3.711,2.002
					c-1.279,0.631-3.001,1.119-3.648,1.685c-0.908,0.794-1.383,2.742-1.471,3.718c-0.088,0.978,0.085,1.752,0.517,2.323
					c0.43,0.568,1.071,0.952,1.922,1.139c0.853,0.186,1.794,0.25,2.824,0.189c1.028-0.062,2.092-0.234,3.191-0.522
					c1.094-0.287,2.154-0.606,3.016-1.012c1.951-0.918,3.591-1.995,4.766-2.87c1.173-0.874,2.091-1.657,2.746-2.348
					c0.652-0.69,1.132-1.264,1.434-1.724c0.303-0.46,0.663-0.799,0.908-1.022c0.2-0.183,0.4-0.37,0.593-0.419
					c0.193-0.048,0.361-0.03,0.502,0.058c0.143,0.088,0.251,0.213,0.329,0.376c0.079,0.165,0.104,0.394,0.024,0.535
					c-0.961,1.708-3.179,3.46-4.765,4.824c-1.585,1.363-3.245,2.471-4.988,3.32c-1.743,0.849-3.616,1.443-5.624,1.788
					C511.266,244.171,508.971,244.307,506.656,244.029z M519.769,224.458c-0.183-0.37-0.718-0.532-1.366-0.412
					c-0.646,0.119-1.377,0.409-2.18,0.866c-0.805,0.458-1.649,1.046-2.525,1.75c-0.878,0.706-1.701,1.44-2.456,2.186
					c-0.758,0.749-1.42,1.485-1.988,2.211c-0.567,0.724-1.129,1.824-1.129,1.824c0.049,0.056,1.353-0.398,2.2-0.759
					c0.846-0.361,1.73-0.784,2.64-1.261c0.914-0.479,1.818-1.005,2.699-1.583c0.881-0.578,1.647-1.153,2.294-1.723
					c0.647-0.57,1.15-1.12,1.504-1.648C519.817,225.38,519.949,224.821,519.769,224.458z"/>
			</g>
		</g>
		<path fill="#FFFFFF" d="M495.254,241.634c-0.232,1.682-0.254,3.305,0.566,4.832c0.9,1.676,2.338,2.988,3.795,4.175
			c1.619,1.319,3.355,2.485,5.131,3.582c0.998,0.618,2.01,1.212,3.025,1.8c0.926,0.536,1.857,1.062,2.785,1.592
			c2.129,1.21,9.156,5.231,10.183,6.221c2.658,2.562,0.713,4.895-2.334,4.947c-4.123,0.072-7.994-1.27-11.967-2.377
			c0,0-18.02-5.553-36.844-9.902c-12.936-2.99-20.465-4.502-27.522-5.211l5.234-1.193c0,0,4.44,2,20.098,5.168
			c11.977,2.423,25.381,5.745,39.193,9.921c0,0,10.815,3.641,11.738,0.215c0.129-0.479,0.02-1.269-0.572-1.892
			c-1.527-1.607-2.584-2.27-4.209-3.32c-4.754-3.074-9.961-5.494-14.412-9.029c-2.023-1.607-4.301-3.694-5.057-6.254
			c-0.172-0.578-0.27-1.216-0.074-1.803c0.102-0.294,0.287-0.66,0.506-0.878C494.811,241.94,495.103,241.77,495.254,241.634z"/>
		<path fill="#FFFFFF" d="M234.75,193.066c0,0,8.752-1.858,8.738-8.956c-0.004-1.085-0.193-2.361-0.787-3.687
			c0,0-2.012-6.673-12.221-3.945c0,0-19.994,5.226-28.492,23.495c-0.32,0.689-0.422,1.414-0.637,2.103c0,0-3.047,9.976,4.002,15.007
			c0,0,3.992,3.08,8.088,1.025c0,0-17.725,15.671-18.58,33.883c0,0-0.258,12.943,13.068,16.581
			c5.197,1.419,11.15-0.546,15.533-3.178c5.131-3.081,17.57-7.78,20.1-8.792c12.449-4.979,25.641-7.781,38.812-10.059
			c3.865-0.668,7.74-1.289,11.613-1.916c10.228-1.65,20.668-2.374,31.016-2.669c15.957-0.454,31.906-0.064,47.809,1.381
			c11.16,1.014,16.926,1.611,27.953,3.609c-0.348-0.171-1.26-1.38-3.037-2.269c-0.717-0.36-2.158-0.672-2.158-0.672
			s-42.84-9.507-105.982-1.967c-1.385,0.207-2.768,0.405-4.15,0.651c-11.064,1.96-22.082,4.26-32.918,7.247
			c-2.979,0.822-5.938,1.713-8.863,2.701c-5.477,1.852-10.814,4.055-16.123,6.341c-5.156,2.224-10.535,3.769-16.057,1.736
			c-1.98-0.73-3.711-1.858-5.229-3.328c-5.035-4.877-4.102-13.455-1.818-19.364c4.029-10.432,10.65-19.191,19.592-25.824l6.5-4.806
			c0,0,0.484-0.61,0.035-1.127l-0.326-0.243c0,0-6.043,4.242-9.936,5.314c0,0-5.262,2.158-8.66-0.636
			c-4.709-3.868-2.943-11.023,0.049-15.353c5.033-7.289,12.836-13.816,21.312-16.545c0,0,5.684-1.831,8.555,2.477
			c0,0,0.383,0.814,0.508,1.261c0.572,2.046,0.477,7.94-6.893,9.853C235.166,192.398,234.305,192.683,234.75,193.066z"/>
	</g>
	<g>
		<path fill="#FFFFFF" d="M399.244,267.924c-0.012-1.757-0.26-2.244-1.904-2.24c-17.67,0.177-24.992,15.663-24.992,15.663
			c-0.031-3.179-0.074-10.425-0.08-11.951c-0.023-1.797-0.105-2.412-1.812-2.357c-10.01,0.255-15.408,0.286-26.088,0.89
			c-1.584,0.11-1.893,0.377-1.885,2.014c0,2.178,0.033,6.531,0.055,8.474c0,1.734,0.18,2.062,1.691,2.494
			c1.443,0.446,6.109,1.42,6.164,10.385c0.043,8.022,0.496,65.42,0.518,68.635c0.092,13.783-4.826,12.929-8.293,14.814
			c-1.131,0.605-1.236,0.783-1.248,2.529c0.06,2.473,0.064,6.172,0.125,8.76c-0.022,1.38,0.727,1.638,1.646,1.527
			c12.047-1.141,27.379-1.207,40.643-0.34c1.348,0.076,1.566-0.586,1.543-2.025l-0.084-8.68c-0.027-1.309-0.213-1.639-1.164-2.197
			c-5.228-2.791-10.975-1.041-11.096-14.076c-0.027-2.584-0.521-61.978-0.533-64.325c-0.02-1.423,0.334-2.129,1.691-2.153
			c15.168-0.156,14.377,23.967,14.404,26.23c0.027,1.831,0.869,2.182,2.441,1.457l7.346-4.564c1.674-0.869,1.281-1.654,1.26-3.311
			C399.592,313.575,399.277,271.499,399.244,267.924"/>
		<path fill="#FFFFFF" d="M335.367,267.616c-0.031-1.541-0.352-1.966-2.135-1.966c-15.103,0.236-24.988,19.023-24.988,19.023
			s-0.053-8.829-0.076-11.132c0.012-1.972-0.344-2.445-1.877-2.134c-10.123,1.962-19.053,4.157-27.293,6.431
			c-1.512,0.424-1.672,0.352-1.656,2.342l0.014,8.784c0,1.566,0.346,1.673,1.73,1.946c7.561,1.28,7.221,10.275,7.121,12.594
			c-0.09,2.335,0.342,63.361,0.395,66.232c0.078,12.39-4.449,15.797-7.232,16.994c-1.459,0.649-1.486,1.034-1.473,2.472l0.08,9.097
			c0.008,1.697,0.719,2.013,1.98,1.607c14.436-4.673,24.891-7.475,39.426-10.365c1.414-0.259,1.652-0.808,1.617-2.352l-0.06-8.523
			c0-1.602-0.133-2.01-1.586-2.184c-6.09-0.795-10.568,0.346-10.682-11.068c-0.027-5.475-0.397-63.072-0.391-66.268
			c-0.02-1.676,0.414-2.178,2-2.182c15.012-0.273,14.195,22.596,14.195,25.181c0.02,1.683,0.91,2.276,2.158,1.503l7.854-4.918
			c1.295-0.738,1.154-0.681,1.141-2.59C335.629,316.142,335.367,270.229,335.367,267.616"/>
		<path fill="#FFFFFF" d="M421.797,261.784c6.314,0.228,11.08-5.874,10.68-13.61c-0.387-7.729-5.844-14.186-12.086-14.431
			c-6.316-0.214-11.092,5.883-10.705,13.662C410.062,255.112,415.527,261.588,421.797,261.784"/>
		<path fill="#FFFFFF" d="M443.19,385.559c-2.914-1.702-7.576-2.42-7.707-15.294c-0.135-6.529-1.004-92.978-1.004-92.978
			c0.024-1.625-0.195-2.027-1.476-2.311c-11.844-2.527-16.746-3.506-26.471-4.957c-1.398-0.201-1.822,0.468-1.807,1.81
			c0,1.398,0.027,6.334,0.051,8.757c0.01,1.961,0.486,1.996,1.711,2.433c1.178,0.444,6.086,2.109,6.188,10.589
			c0,0,0.5,52.261,0.654,68.426c0.227,16.21-4.85,14.482-8.203,15.107c-1.227,0.262-1.533,0.59-1.533,2.148l0.074,8.604
			c0.016,1.329,0.578,1.807,1.904,2.068c13.66,2.154,22.443,4.497,37.252,8.689c1.848,0.529,1.891-0.703,1.854-1.943
			c-0.006-1.289-0.127-7.423-0.117-8.705C444.529,386.691,444.518,386.354,443.19,385.559"/>
		<path fill="#FFFFFF" d="M474.344,355.657c2.475,0.97,27.732,10.874,30.381,11.906c1.596,0.645,1.852-0.258,1.889-1.992
			c0.121-10.411,0.137-24.292-0.492-36.503c-1.277-23.323-8.934-37.12-25.775-42.318c-19.352-5.942-29.438,4.366-31.182,31.238
			c-0.537,8.416-0.34,38.624,0.25,49.833c2.037,34.618,17.582,44.166,29.164,47.774c19.983,6.22,28.699-8.062,28.285-33.958
			c0-1.348-0.092-1.809-1.297-2.289l-17.051-6.542c-1.164-0.484-1.881,0.046-1.881,1.446l0.152,9.988
			c0.045,4.418,0.355,14.484-7.668,11.782c-7.18-2.401-7.338-11.847-7.418-17.921c0,0-0.186-19.441-0.199-19.681
			C471.471,355.814,471.883,354.692,474.344,355.657 M470.998,320.881c-0.096-7.704-0.197-17.919,7.02-15.079
			c6.744,2.668,6.803,9.742,6.914,20.35c0,1.303,0.166,12.569,0.166,13.971c0,1.082-0.342,1.959-1.766,1.357l-10.957-4.301
			c-0.873-0.392-1.197-0.936-1.228-2.33C471.147,333.212,471.01,322.497,470.998,320.881"/>
		<path fill="#FFFFFF" d="M237.822,361.239l32.775-13.473c1.273-0.499,1.289-0.707,1.33-2.272
			c0.287-10.803,0.553-21.601-0.176-33.595c-1.049-18.316-7.91-32.82-28.836-25.37c-24.373,8.769-28.611,31.306-29.285,55.7
			c-0.154,5.904-0.123,36.542,0.643,47.326c1.451,20.584,9.076,38.794,31.898,29.247c21.932-9.05,26.189-20.866,25.988-57.933
			c-0.01-1.656-0.656-2.053-2.064-1.465l-17.168,7.221c-1.02,0.445-1.139,0.705-1.139,2.05l0.057,14.003
			c0.062,4.953,0.131,14.162-7.09,17.092c-7.939,3.296-8.006-6.892-8.006-11.867c-0.049-2.158-0.15-21.662-0.16-23.938
			C236.576,362.399,236.701,361.679,237.822,361.239 M236.48,323.523c-0.051-9.136,1.311-14.935,6.477-16.774
			c6.316-2.248,7.771,3.545,7.787,11.617c-0.004,4.347,0.064,12.83,0.057,17.633c0.035,1.363-0.33,2.025-1.098,2.28l-11.455,4.565
			c-0.904,0.348-1.736-0.023-1.742-1.385C236.477,334.827,236.48,328.743,236.48,323.523"/>
		<path fill="#FFFFFF" d="M199.99,413.396c-0.893-0.148-1.09-0.155-1.166-1.451c-0.107-1.287-0.311-91.438-0.311-91.438
			c-0.025-12.225,4.408-11.641,6.932-11.641c1.385,0,2.346-0.406,2.137-3.365c-0.326-6.01-2.98-13.959-7.73-18.599
			c-1.158-1.129-2.277-0.448-2.881,1.505c-2.055,6.792-5.531,7.676-8.262,5.398c-3.205-2.564-2.873-8.363,1.271-12.897
			c1.355-1.438,0.781-3.008-0.604-3.839c-10.02-5.99-28.889-0.261-39.143,14.367c-0.785,1.088-0.691,2.746-0.152,3.248
			c4.621,4.233,4.508,10.156,1.203,13.542c-3.322,3.442-7.223,0.88-7.805-5.495c-0.15-1.713-1.697-1.586-2.688-0.271
			c-4.682,5.861-10.201,14.693-13.699,22.555c-0.6,1.416-0.459,2.077,0.027,3.061c0.594,1.246,2.734,5.363,3.754,6.836
			c0.641,0.902,1.75,1.396,2.65,0.334c4.383-5.275,7.439-3.26,7.461,0.105l0.531,173.067c-0.104,11.435-7.287,10.523-8.857,4.357
			c-0.598-2.365-1.732-2.16-2.951,0.066c-5.848,10.57-0.41,25.889,10.867,25.064c0.844-0.062,0.889,0.072,0.926,0.744
			c0.188,17.316-5.377,18.178-7.529,18.121c-2.752-0.143-2.293,2.182-1.33,4.041c6.223,12.076,27.387,12.889,30.656-14.615
			c0.168-1.059,0.746-1.025,1.6-0.873c14.494,2.945,19.08-17.615,14.854-25.543c-1.467-2.748-2.51-2.412-3.191-0.318
			c-2.557,8.088-12.949,12.729-13.211-3.592l-0.264-50.346c-0.023-1.176,0.893-1.772,1.848-0.551
			c10.4,13.557,31.373,0.664,33.6-24.877c0.508-5.432,5.523-3.814,5.434,7.213c-0.01,1.166,0.652,2.209,2.473,0.545
			C214.625,440.474,216.648,415.974,199.99,413.396 M162.898,430.925c-0.051-8.666-0.268-105.344-0.268-105.344
			c-0.018-13.406,14.199-14.846,14.207-0.369c0.031,6.678,0.266,99.238,0.289,105.275
			C177.201,444.683,162.949,445.13,162.898,430.925"/>
		<path fill="#FFFFFF" d="M543.393,354.866c-0.025-1.543,0.484-1.869,1.725-1.748c12.961,1.266,13.768,33.029,13.799,35.082
			c0.035,1.432,0.789,1.728,1.756,1.111l8.311-5.199c1.059-0.746,1.508-0.916,1.473-2.539c-0.051-4.253-0.723-42.896-0.723-42.896
			c-0.104-1.513,0.018-2.101-1.301-2.752c-13.328-7.105-25.297,2.121-25.297,2.121l-0.184-16.335c0-1.628,0.014-2.117-1.391-2.95
			c-4.377-2.501-22.65-12.352-26.066-14.343c-1.1-0.621-1.602-0.039-1.572,1.322l0.147,10.453c0.025,1.271,0.049,1.472,0.824,2.195
			c2.127,1.98,6.252,5.577,6.426,16.374c0,0,0.975,64.825,1.047,71.433c0.275,13.668-3.791,13.57-7.842,12.793
			c-1.408-0.283-1.699,0.283-1.692,1.771c0.049,1.495,0.139,6.976,0.17,9.07c0.049,1.55,0.1,1.711,1.48,2.529
			c10.064,5.838,26.348,16.412,37.189,23.92c1.506,1.051,2.109,0.18,2.08-1.344l-0.227-12.271c-0.023-1.475-0.023-1.467-1.23-2.643
			c-6.477-6.286-7.598-11.564-7.787-21.065C544.443,416.427,543.393,354.866,543.393,354.866"/>
	</g>
	<g>
		<g>
			<path fill="#FFFFFF" d="M207.96,469.544c0.176-0.879,0.265-1.318,0.448-2.198c0.41,0.231,0.872,0.316,1.382,0.26
				c0.51-0.057,1-0.244,1.465-0.561c0.563-0.384,0.935-0.799,1.112-1.246c0.177-0.446,0.138-0.861-0.118-1.243
				c-0.303-0.452-1.157-0.539-2.561-0.231c-0.455,0.1-0.818,0.178-1.087,0.23c-1.29,0.249-2.271,0.312-2.939,0.172
				c-0.669-0.14-1.203-0.496-1.597-1.058c-0.544-0.775-0.617-1.677-0.211-2.699c0.406-1.024,1.223-1.958,2.438-2.781
				c0.707-0.479,1.388-0.788,2.037-0.928c0.647-0.14,1.313-0.123,1.991,0.051c-0.286,0.852-0.427,1.277-0.705,2.129
				c-0.359-0.162-0.732-0.211-1.11-0.155c-0.377,0.056-0.774,0.223-1.179,0.497c-0.493,0.334-0.822,0.705-0.984,1.108
				c-0.162,0.403-0.132,0.768,0.087,1.086c0.343,0.499,1.247,0.548,2.71,0.164c0.29-0.076,0.514-0.133,0.672-0.171
				c1.213-0.289,2.219-0.344,2.994-0.186c0.774,0.158,1.359,0.538,1.752,1.136c0.591,0.902,0.696,1.857,0.328,2.869
				c-0.368,1.013-1.154,1.922-2.36,2.742c-0.856,0.582-1.672,0.96-2.453,1.134S208.587,469.798,207.96,469.544z"/>
			<path fill="#FFFFFF" d="M218.309,464.335c-2.485-3.86-3.727-5.79-6.211-9.65c1.159-0.747,1.741-1.116,2.907-1.848
				c1.556-0.977,2.863-1.439,3.906-1.402c1.044,0.038,1.874,0.576,2.494,1.606c0.574,0.954,0.652,1.925,0.243,2.913
				c-0.41,0.989-1.257,1.882-2.55,2.691c-0.272,0.17-0.408,0.255-0.679,0.426c0.933,1.483,1.4,2.225,2.333,3.708
				C219.772,463.396,219.283,463.707,218.309,464.335z M217.399,457.452c0.143-0.09,0.215-0.135,0.359-0.226
				c0.68-0.427,1.101-0.852,1.265-1.278c0.163-0.425,0.086-0.9-0.234-1.421c-0.296-0.481-0.668-0.734-1.116-0.762
				c-0.448-0.027-1.017,0.174-1.705,0.606c-0.145,0.091-0.218,0.137-0.363,0.228C216.322,455.74,216.681,456.311,217.399,457.452z"
				/>
			<path fill="#FFFFFF" d="M225.033,460.137c-0.627-4.986-0.901-7.492-1.37-12.528c1.179-0.684,1.77-1.023,2.954-1.692
				c4.126,2.941,6.156,4.442,10.15,7.5c-1.14,0.617-1.709,0.929-2.843,1.56c-0.853-0.641-1.282-0.96-2.141-1.596
				c-1.821,1.022-2.728,1.542-4.534,2.6c0.168,1.032,0.253,1.547,0.427,2.576C226.616,459.183,226.088,459.499,225.033,460.137z
				 M230.25,452.031c-1.259-0.993-1.892-1.487-3.163-2.469c-0.091-0.075-0.235-0.211-0.427-0.406
				c-0.192-0.196-0.674-0.742-0.674-0.742c-0.007,0.004,0.213,0.691,0.293,0.985c0.08,0.291,0.13,0.491,0.145,0.597
				c0.215,1.566,0.326,2.348,0.555,3.91C228.285,453.146,228.939,452.772,230.25,452.031z"/>
			<path fill="#FFFFFF" d="M246.561,448.361c-1.175,0.578-1.761,0.87-2.931,1.462c-2.215-1.283-3.333-1.914-5.589-3.156
				c0.992,1.902,1.488,2.853,2.479,4.755c-1.01,0.527-1.513,0.793-2.519,1.331c-2.164-4.049-3.245-6.073-5.409-10.122
				c1.498-0.801,2.249-1.196,3.755-1.974c1.495-0.772,2.743-1.095,3.732-0.985c0.989,0.11,1.721,0.656,2.203,1.631
				c0.349,0.707,0.395,1.438,0.142,2.189c-0.254,0.751-0.755,1.367-1.504,1.852C243.198,446.529,244.326,447.133,246.561,448.361z
				 M237.476,445.583c0.155-0.081,0.232-0.121,0.386-0.201c1.047-0.544,1.692-0.994,1.929-1.357c0.238-0.364,0.237-0.789-0.007-1.27
				c-0.255-0.504-0.617-0.769-1.092-0.795c-0.472-0.026-1.215,0.218-2.223,0.742c-0.156,0.081-0.234,0.122-0.391,0.203
				C236.639,443.977,236.918,444.512,237.476,445.583z"/>
			<path fill="#FFFFFF" d="M248.044,447.638c-2-4.132-3-6.198-4.999-10.331c1.062-0.514,1.594-0.769,2.66-1.272
				c0.887,1.881,1.331,2.822,2.218,4.703c0.746-2.652,1.136-3.978,1.951-6.63c1.24-0.562,1.862-0.839,3.107-1.385
				c-0.963,2.707-1.425,4.061-2.313,6.771c2.866,1.434,4.283,2.168,7.08,3.671c-1.246,0.546-1.868,0.823-3.109,1.385
				c-2.61-1.456-3.93-2.169-6.6-3.566c1.025,2.173,1.537,3.259,2.562,5.432C249.576,446.899,249.065,447.144,248.044,447.638z"/>
			<path fill="#FFFFFF" d="M258.946,442.642c-1.822-4.214-2.733-6.321-4.555-10.534c1.078-0.466,1.618-0.697,2.7-1.152
				c1.457,3.463,2.185,5.195,3.641,8.658c1.673-0.704,2.512-1.049,4.194-1.725c0.311,0.773,0.466,1.16,0.777,1.934
				C262.989,440.914,261.638,441.478,258.946,442.642z"/>
			<path fill="#FFFFFF" d="M267.4,439.148c-1.684-4.271-2.526-6.406-4.211-10.677c1.089-0.43,1.635-0.642,2.728-1.06
				c1.641,4.287,2.462,6.431,4.104,10.718C268.971,438.531,268.446,438.735,267.4,439.148z"/>
			<path fill="#FFFFFF" d="M272.827,437.071c-1.596-4.305-2.394-6.457-3.99-10.761c1.138-0.422,1.708-0.63,2.849-1.039
				c3.179,1.697,4.746,2.568,7.834,4.349c0.221,0.125,0.484,0.317,0.783,0.577c0.302,0.262,0.98,0.951,0.98,0.951
				c0.002-0.002-0.321-0.607-0.455-0.914c-0.134-0.306-0.282-0.7-0.44-1.174c-0.809-2.438-1.214-3.657-2.024-6.095
				c1.058-0.351,1.588-0.524,2.648-0.865c1.405,4.37,2.108,6.556,3.513,10.926c-1.045,0.336-1.567,0.507-2.61,0.853
				c-3.122-1.831-4.707-2.726-7.924-4.47c-0.225-0.12-0.488-0.306-0.794-0.561c-0.305-0.254-1.023-0.938-1.023-0.938
				c-0.002,0.002,0.335,0.586,0.478,0.892c0.143,0.306,0.301,0.701,0.474,1.182c0.888,2.467,1.332,3.701,2.22,6.167
				C274.338,436.514,273.834,436.698,272.827,437.071z"/>
			<path fill="#FFFFFF" d="M291.867,424.477c2.339-0.666,3.512-0.987,5.862-1.603c0.028,0.063,0.056,0.133,0.078,0.208
				c0.022,0.075,0.054,0.19,0.096,0.347c0.436,1.663,0.239,3.153-0.568,4.474s-2.057,2.214-3.756,2.699
				c-1.95,0.556-3.709,0.488-5.307-0.214c-1.595-0.702-2.663-1.879-3.185-3.551c-0.517-1.656-0.298-3.231,0.68-4.713
				c0.979-1.483,2.487-2.526,4.51-3.102c1.064-0.303,2.098-0.387,3.089-0.253c0.991,0.134,1.935,0.487,2.828,1.056
				c-0.625,0.672-0.936,1.009-1.554,1.684c-0.6-0.369-1.189-0.59-1.765-0.666s-1.204-0.017-1.879,0.175
				c-1.282,0.365-2.209,1.003-2.774,1.906c-0.564,0.903-0.671,1.923-0.33,3.053c0.335,1.112,0.984,1.893,1.939,2.353
				c0.955,0.461,2.033,0.517,3.243,0.173c0.885-0.252,1.555-0.635,2.009-1.153c0.454-0.518,0.601-1.072,0.44-1.662
				c-0.013-0.048-0.02-0.072-0.033-0.121c-1.229,0.335-1.842,0.506-3.068,0.855C292.2,425.645,292.089,425.256,291.867,424.477z"/>
			<path fill="#FFFFFF" d="M306.871,426.849c-1.041-4.471-1.561-6.707-2.602-11.178c1.172-0.273,1.759-0.406,2.933-0.666
				c2.921,2.089,4.358,3.151,7.179,5.311c0.203,0.152,0.438,0.376,0.7,0.672c0.265,0.298,0.848,1.067,0.848,1.067
				c0.002-0.001-0.242-0.641-0.336-0.964c-0.093-0.322-0.192-0.73-0.288-1.22c-0.497-2.52-0.745-3.78-1.242-6.301
				c1.085-0.214,1.629-0.318,2.716-0.521c0.845,4.512,1.268,6.768,2.112,11.28c-1.072,0.2-1.608,0.303-2.679,0.514
				c-2.848-2.213-4.299-3.302-7.251-5.442c-0.207-0.148-0.443-0.366-0.712-0.657c-0.269-0.291-0.892-1.06-0.892-1.06
				c-0.002,0.001,0.258,0.624,0.361,0.945c0.103,0.321,0.21,0.734,0.321,1.232c0.57,2.559,0.856,3.839,1.426,6.398
				C308.426,426.49,307.908,426.608,306.871,426.849z"/>
			<path fill="#FFFFFF" d="M320.218,424.085c1.122-4.87,1.723-7.304,3.008-12.167c1.305-0.214,1.957-0.317,3.264-0.516
				c2.756,4.224,4.094,6.351,6.692,10.634c-1.252,0.168-1.877,0.256-3.127,0.438c-0.558-0.904-0.838-1.355-1.403-2.257
				c-2.006,0.3-3.008,0.459-5.01,0.795c-0.198,1.022-0.296,1.533-0.487,2.555C321.979,423.767,321.392,423.871,320.218,424.085z
				 M327.716,418.408c-0.807-1.378-1.214-2.066-2.036-3.439c-0.06-0.102-0.145-0.281-0.252-0.532
				c-0.108-0.252-0.36-0.934-0.36-0.934c-0.007,0.001-0.043,0.719-0.068,1.023c-0.026,0.301-0.048,0.504-0.069,0.608
				c-0.338,1.538-0.504,2.306-0.828,3.844C325.548,418.742,326.27,418.628,327.716,418.408z"/>
			<path fill="#FFFFFF" d="M337.278,412.061c0.432,3.732,0.648,5.598,1.079,9.329c-1.105,0.128-1.657,0.194-2.761,0.333
				c-0.469-3.727-0.703-5.591-1.171-9.318c-1.301,0.163-1.951,0.248-3.25,0.426c-0.113-0.826-0.17-1.239-0.283-2.066
				c3.765-0.515,5.651-0.742,9.427-1.135c0.087,0.829,0.13,1.244,0.216,2.074C339.232,411.839,338.58,411.91,337.278,412.061z"/>
			<path fill="#FFFFFF" d="M353.759,408.542c0.165,2.852,0.248,4.278,0.413,7.13c0.09,1.554-0.311,2.74-1.189,3.564
				c-0.879,0.825-2.242,1.301-4.099,1.445c-1.886,0.147-3.321-0.112-4.317-0.791c-0.996-0.679-1.576-1.788-1.727-3.337
				c-0.279-2.843-0.418-4.265-0.697-7.108c1.141-0.111,1.711-0.164,2.853-0.265c0.237,2.693,0.356,4.039,0.593,6.732
				c0.083,0.942,0.384,1.632,0.899,2.067c0.514,0.434,1.242,0.614,2.183,0.541c0.949-0.074,1.646-0.366,2.101-0.88
				c0.453-0.513,0.65-1.239,0.586-2.176c-0.183-2.697-0.274-4.045-0.457-6.742C352.044,408.644,352.616,408.608,353.759,408.542z"/>
			<path fill="#FFFFFF" d="M366.648,419.558c-1.277,0.018-1.916,0.031-3.192,0.064c-1.417-2.109-2.138-3.159-3.606-5.25
				c0.081,2.143,0.122,3.215,0.203,5.358c-1.107,0.042-1.661,0.066-2.768,0.118c-0.219-4.585-0.328-6.878-0.547-11.463
				c1.648-0.078,2.472-0.112,4.121-0.167c1.639-0.055,2.874,0.188,3.699,0.712c0.825,0.524,1.244,1.33,1.262,2.418
				c0.013,0.788-0.252,1.469-0.788,2.038c-0.536,0.569-1.235,0.911-2.097,1.028C364.447,416.462,365.189,417.491,366.648,419.558z
				 M359.803,413.15c0.169-0.006,0.254-0.01,0.424-0.016c1.147-0.042,1.903-0.171,2.263-0.397c0.361-0.227,0.537-0.611,0.523-1.15
				c-0.015-0.564-0.225-0.959-0.63-1.186c-0.405-0.226-1.161-0.324-2.265-0.284c-0.171,0.006-0.257,0.009-0.428,0.016
				C359.734,411.34,359.757,411.944,359.803,413.15z"/>
			<path fill="#FFFFFF" d="M366.721,419.557c1.905-4.618,2.897-6.919,4.963-11.503c1.318,0.004,1.977,0.01,3.295,0.029
				c2.014,4.62,2.98,6.939,4.83,11.592c-1.259-0.041-1.889-0.057-3.148-0.084c-0.401-0.984-0.603-1.475-1.011-2.457
				c-2.022-0.035-3.034-0.044-5.056-0.043c-0.364,0.975-0.545,1.463-0.902,2.439C368.503,419.535,367.909,419.54,366.721,419.557z
				 M375.027,415.196c-0.567-1.492-0.854-2.238-1.435-3.727c-0.042-0.111-0.094-0.301-0.158-0.566
				c-0.064-0.268-0.203-0.98-0.203-0.98c-0.008,0-0.161,0.702-0.236,0.998c-0.075,0.292-0.131,0.489-0.168,0.589
				c-0.585,1.461-0.874,2.192-1.445,3.655C372.841,415.168,373.569,415.174,375.027,415.196z"/>
			<path fill="#FFFFFF" d="M381.169,419.723c0.171-4.587,0.256-6.881,0.426-11.468c1.151,0.043,1.727,0.067,2.878,0.121
				c-0.176,3.753-0.265,5.629-0.441,9.382c1.781,0.084,2.671,0.132,4.45,0.244c-0.052,0.832-0.078,1.248-0.13,2.08
				C385.481,419.901,384.044,419.829,381.169,419.723z"/>
			<path fill="#FFFFFF" d="M394.522,420.535c1.175-4.507,1.778-6.759,3.016-11.255c1.203,0.11,1.805,0.169,3.007,0.291
				c0.759,2.795,1.126,4.193,1.837,6.992c0.038,0.146,0.075,0.358,0.107,0.636c0.032,0.278,0.069,0.945,0.069,0.945
				c0.004,0,0.175-0.656,0.266-0.927c0.092-0.272,0.17-0.469,0.239-0.595c1.332-2.562,2.01-3.84,3.389-6.387
				c1.182,0.145,1.773,0.22,2.953,0.377c0.214,4.659,0.305,6.988,0.454,11.645c-1.043-0.146-1.564-0.217-2.608-0.353
				c-0.017-2.794-0.031-4.191-0.067-6.987c-0.007-0.519-0.007-0.909,0.003-1.17c0.009-0.262,0.027-0.505,0.056-0.728
				c0.015-0.119,0.029-0.207,0.039-0.268c0.01-0.058,0.031-0.157,0.031-0.157c-0.001,0-0.282,0.812-0.403,1.122
				c-0.121,0.312-0.225,0.55-0.313,0.707c-1.483,2.773-2.21,4.164-3.637,6.954c-0.619-0.071-0.929-0.106-1.548-0.174
				c-0.755-3.035-1.146-4.552-1.958-7.583c-0.018-0.069-0.049-0.265-0.099-0.577c-0.05-0.313-0.122-0.773-0.209-1.375
				c-0.013,0.135-0.02,0.202-0.033,0.336c-0.052,0.531-0.173,1.174-0.356,1.935c-0.005,0.012-0.007,0.018-0.012,0.03
				c-0.652,2.718-0.974,4.078-1.608,6.798C396.092,420.67,395.569,420.624,394.522,420.535z"/>
			<path fill="#FFFFFF" d="M411.695,422.521c0.668-4.542,1.002-6.812,1.67-11.354c1.142,0.168,1.714,0.254,2.855,0.434
				c-0.713,4.535-1.069,6.802-1.782,11.337C413.341,422.766,412.793,422.682,411.695,422.521z"/>
			<path fill="#FFFFFF" d="M417.36,423.412c0.76-4.527,1.141-6.791,1.901-11.318c1.184,0.199,1.776,0.301,2.958,0.512
				c1.887,3.05,2.803,4.583,4.576,7.66c0.129,0.218,0.259,0.515,0.388,0.889c0.129,0.375,0.37,1.31,0.37,1.31
				c0.003,0,0.024-0.686,0.061-1.019c0.037-0.332,0.106-0.747,0.206-1.237c0.512-2.517,0.768-3.776,1.279-6.293
				c1.083,0.22,1.625,0.333,2.707,0.563c-0.957,4.49-1.435,6.735-2.392,11.224c-1.067-0.227-1.601-0.338-2.669-0.555
				c-1.778-3.138-2.698-4.7-4.596-7.81c-0.134-0.216-0.269-0.51-0.406-0.881c-0.137-0.371-0.414-1.321-0.414-1.321
				c-0.002,0-0.001,0.674-0.031,1.011c-0.03,0.337-0.086,0.758-0.176,1.261c-0.459,2.581-0.688,3.872-1.147,6.453
				C418.931,423.678,418.408,423.587,417.36,423.412z"/>
			<path fill="#FFFFFF" d="M432.247,426.323c1.003-4.48,1.505-6.719,2.508-11.199c3.115,0.697,4.668,1.066,7.767,1.849
				c-0.203,0.802-0.304,1.204-0.507,2.006c-1.96-0.495-2.942-0.734-4.908-1.194c-0.215,0.919-0.323,1.379-0.539,2.298
				c1.951,0.457,2.924,0.693,4.869,1.184c-0.204,0.809-0.307,1.213-0.511,2.022c-1.93-0.487-2.897-0.722-4.833-1.176
				c-0.263,1.12-0.394,1.681-0.656,2.801c1.917,0.449,2.874,0.682,4.785,1.164c-0.204,0.808-0.306,1.212-0.511,2.02
				C436.733,427.347,435.24,426.992,432.247,426.323z"/>
			<path fill="#FFFFFF" d="M451.454,431.336c-1.235-0.37-1.854-0.551-3.093-0.906c-0.73-2.441-1.109-3.661-1.893-6.099
				c-0.566,2.069-0.849,3.103-1.416,5.172c-1.076-0.294-1.614-0.439-2.692-0.722c1.168-4.44,1.752-6.659,2.92-11.099
				c1.607,0.422,2.41,0.64,4.012,1.085c1.591,0.442,2.706,1.048,3.343,1.798c0.637,0.749,0.798,1.645,0.488,2.688
				c-0.224,0.756-0.683,1.323-1.373,1.705c-0.687,0.381-1.463,0.495-2.327,0.346C450.264,427.716,450.67,428.922,451.454,431.336z
				 M446.791,423.153c0.166,0.045,0.249,0.068,0.414,0.114c1.116,0.307,1.88,0.411,2.294,0.305c0.418-0.107,0.7-0.42,0.849-0.938
				c0.155-0.543,0.074-0.984-0.248-1.322c-0.323-0.338-1.021-0.661-2.094-0.956c-0.167-0.046-0.251-0.069-0.419-0.115
				C447.269,421.406,447.11,421.988,446.791,423.153z"/>
			<path fill="#FFFFFF" d="M451.522,431.357c3.224-3.827,4.873-5.72,8.243-9.464c1.269,0.404,1.902,0.61,3.167,1.03
				c0.554,5.02,0.789,7.526,1.178,12.529c-1.204-0.423-1.807-0.631-3.015-1.04c-0.09-1.06-0.137-1.59-0.235-2.651
				c-1.942-0.65-2.915-0.966-4.866-1.579c-0.644,0.819-0.965,1.23-1.603,2.052C453.245,431.876,452.671,431.701,451.522,431.357z
				 M460.841,429.721c-0.098-1.596-0.151-2.394-0.264-3.992c-0.007-0.118,0-0.315,0.018-0.588c0.018-0.275,0.101-0.996,0.101-0.996
				c-0.007-0.002-0.367,0.621-0.53,0.88c-0.16,0.255-0.273,0.427-0.339,0.51c-1.004,1.215-1.502,1.824-2.493,3.047
				C458.74,429.028,459.441,429.256,460.841,429.721z"/>
			<path fill="#FFFFFF" d="M465.411,435.912c1.544-4.323,2.316-6.485,3.859-10.808c1.101,0.393,1.65,0.592,2.748,0.997
				c-1.298,3.525-1.948,5.288-3.246,8.814c1.696,0.625,2.543,0.944,4.231,1.597c-0.301,0.777-0.451,1.166-0.751,1.944
				C469.525,437.401,468.157,436.892,465.411,435.912z"/>
			<path fill="#FFFFFF" d="M492.322,434.459c-0.29,2.604-0.443,3.903-0.767,6.498c-0.051,0.416-0.125,0.854-0.217,1.312
				c-0.091,0.456-0.363,1.516-0.363,1.516c0.002,0.001,0.45-0.834,0.709-1.221c0.259-0.388,0.552-0.769,0.881-1.136
				c1.691-1.956,2.543-2.93,4.259-4.868c1.051,0.501,1.575,0.755,2.622,1.267c-3.314,3.489-4.947,5.25-8.165,8.805
				c-0.984-0.467-1.478-0.698-2.466-1.154c0.368-3.057,0.54-4.588,0.861-7.658c0.03-0.353,0.084-0.698,0.163-1.036
				c0.078-0.337,0.308-1.022,0.308-1.022c-0.001,0-0.381,0.654-0.581,0.942c-0.2,0.288-0.413,0.548-0.632,0.781
				c-2.091,2.272-3.126,3.415-5.175,5.715c-0.994-0.436-1.492-0.651-2.489-1.077c0.532-4.765,0.77-7.154,1.193-11.946
				c1.085,0.448,1.627,0.674,2.708,1.133c-0.33,2.63-0.502,3.943-0.862,6.564c-0.055,0.375-0.139,0.77-0.253,1.183
				c-0.113,0.414-0.426,1.333-0.426,1.333c0.004,0.002,0.899-1.252,1.593-2.061c0.043-0.052,0.064-0.079,0.107-0.131
				c1.726-1.981,2.596-2.967,4.351-4.929C490.74,433.74,491.268,433.978,492.322,434.459z"/>
			<path fill="#FFFFFF" d="M494.352,448.11c3.829-3.238,5.777-4.83,9.741-7.959c1.205,0.616,1.806,0.928,3.006,1.56
				c-0.243,5.059-0.405,7.579-0.809,12.595c-1.138-0.626-1.708-0.935-2.851-1.546c0.077-1.064,0.114-1.597,0.184-2.664
				c-1.839-0.974-2.761-1.452-4.613-2.391c-0.774,0.701-1.16,1.052-1.929,1.757C495.991,448.916,495.446,448.645,494.352,448.11z
				 M503.928,448.078c0.155-1.595,0.229-2.394,0.369-3.993c0.012-0.118,0.051-0.31,0.111-0.578c0.061-0.27,0.257-0.969,0.257-0.969
				c-0.007-0.004-0.462,0.552-0.667,0.781c-0.201,0.226-0.341,0.375-0.42,0.447c-1.197,1.031-1.792,1.548-2.976,2.588
				C501.936,447.034,502.601,447.379,503.928,448.078z"/>
			<path fill="#FFFFFF" d="M515.651,448.796c-1.871,3.257-2.806,4.886-4.677,8.144c-0.995-0.572-1.494-0.855-2.493-1.416
				c1.838-3.276,2.757-4.915,4.594-8.191c-1.177-0.661-1.767-0.988-2.95-1.634c0.4-0.732,0.599-1.098,0.999-1.83
				c3.428,1.873,5.131,2.84,8.51,4.835c-0.424,0.718-0.635,1.077-1.059,1.796C517.408,449.811,516.824,449.47,515.651,448.796z"/>
			<path fill="#FFFFFF" d="M515.419,459.55c2.359-3.938,3.538-5.907,5.897-9.845c2.82,1.691,4.222,2.558,7.005,4.334
				c-0.445,0.698-0.668,1.047-1.113,1.744c-1.761-1.124-2.645-1.677-4.42-2.766c-0.493,0.805-0.74,1.207-1.233,2.012
				c1.761,1.08,2.638,1.629,4.384,2.744c-0.449,0.703-0.673,1.055-1.122,1.759c-1.734-1.107-2.604-1.651-4.353-2.724
				c-0.601,0.981-0.902,1.472-1.503,2.453c1.731,1.062,2.593,1.601,4.309,2.696c-0.448,0.703-0.672,1.054-1.121,1.757
				C519.475,462.007,518.129,461.175,515.419,459.55z"/>
			<path fill="#FFFFFF" d="M532.628,470.736c-1.096-0.77-1.645-1.152-2.748-1.907c0.038-2.575,0.043-3.865,0.028-6.454
				c-1.19,1.785-1.785,2.677-2.975,4.461c-0.962-0.642-1.444-0.96-2.411-1.591c2.507-3.845,3.761-5.768,6.268-9.613
				c1.44,0.94,2.158,1.415,3.587,2.378c1.418,0.955,2.323,1.908,2.716,2.838s0.276,1.841-0.347,2.733
				c-0.451,0.646-1.078,1.033-1.867,1.165c-0.789,0.132-1.581-0.019-2.382-0.453C532.577,466.878,532.603,468.166,532.628,470.736z
				 M530.587,461.358c0.147,0.098,0.221,0.147,0.368,0.246c0.996,0.666,1.712,1.024,2.15,1.062c0.442,0.038,0.814-0.166,1.118-0.611
				c0.319-0.466,0.373-0.917,0.164-1.345c-0.21-0.431-0.795-0.974-1.754-1.615c-0.149-0.099-0.223-0.149-0.372-0.248
				C531.592,459.851,531.257,460.354,530.587,461.358z"/>
			<path fill="#FFFFFF" d="M267.859,450.581c-0.676-0.204-1.324-0.288-1.937-0.255c-0.612,0.033-1.226,0.178-1.834,0.437
				c-1.252,0.533-2.101,1.305-2.542,2.297c-0.442,0.994-0.406,2.056,0.095,3.181c0.492,1.104,1.219,1.828,2.173,2.182
				c0.953,0.353,2.003,0.279,3.159-0.215c0.659-0.281,1.227-0.642,1.709-1.083c0.482-0.442,0.88-0.969,1.199-1.579
				c0.376,0.933,0.564,1.4,0.94,2.333c-0.402,0.499-0.856,0.936-1.361,1.311c-0.506,0.376-1.069,0.698-1.691,0.964
				c-1.801,0.77-3.495,0.9-5.116,0.381c-1.62-0.518-2.804-1.561-3.533-3.154c-0.726-1.586-0.738-3.168-0.008-4.741
				c0.73-1.572,2.059-2.779,3.969-3.595c0.641-0.274,1.286-0.478,1.932-0.607c0.647-0.129,1.317-0.186,2.002-0.174
				C267.35,449.192,267.52,449.655,267.859,450.581z"/>
			<path fill="#FFFFFF" d="M271.991,458.062c0.002-4.957,0.043-7.443,0.207-12.427c1.167-0.45,1.752-0.672,2.923-1.108
				c3.451,3.614,5.141,5.444,8.446,9.148c-1.121,0.395-1.681,0.596-2.799,1.004c-0.707-0.78-1.063-1.169-1.777-1.944
				c-1.795,0.663-2.69,1.003-4.476,1.699c0.033,1.034,0.052,1.55,0.091,2.582C273.558,457.429,273.035,457.638,271.991,458.062z
				 M277.739,451.142c-1.04-1.196-1.563-1.792-2.616-2.98c-0.075-0.089-0.192-0.248-0.344-0.473
				c-0.153-0.225-0.532-0.845-0.532-0.845c-0.006,0.002,0.11,0.71,0.151,1.01c0.04,0.3,0.062,0.503,0.066,0.608
				c0.012,1.563,0.022,2.344,0.049,3.904C275.8,451.868,276.446,451.624,277.739,451.142z"/>
			<path fill="#FFFFFF" d="M284.78,453.251c-1.504-4.338-2.256-6.507-3.76-10.845c1.185-0.411,1.779-0.613,2.967-1.01
				c1.586-0.529,2.85-0.63,3.782-0.324c0.931,0.306,1.575,1.036,1.935,2.182c0.334,1.062,0.218,2.013-0.337,2.854
				c-0.554,0.84-1.488,1.474-2.801,1.91c-0.277,0.092-0.416,0.138-0.693,0.231c0.557,1.661,0.836,2.492,1.393,4.153
				C286.27,452.737,285.773,452.907,284.78,453.251z M285.264,446.435c0.146-0.049,0.219-0.073,0.365-0.122
				c0.69-0.23,1.152-0.528,1.379-0.894c0.227-0.366,0.247-0.839,0.057-1.42c-0.175-0.537-0.459-0.875-0.855-1.017
				c-0.397-0.142-0.95-0.1-1.649,0.134c-0.148,0.049-0.222,0.074-0.37,0.124C284.62,444.518,284.835,445.157,285.264,446.435z"/>
			<path fill="#FFFFFF" d="M295.567,439.986c1.039,3.61,1.558,5.415,2.597,9.025c-1.003,0.289-1.504,0.435-2.505,0.734
				c-1.074-3.599-1.612-5.399-2.687-8.998c-1.182,0.353-1.773,0.533-2.952,0.899c-0.248-0.798-0.372-1.196-0.62-1.994
				c3.419-1.063,5.135-1.565,8.579-2.514c0.222,0.805,0.333,1.208,0.555,2.013C297.346,439.478,296.752,439.645,295.567,439.986z"/>
			<path fill="#FFFFFF" d="M310.275,434.058c0.631,2.787,0.946,4.181,1.577,6.968c0.344,1.518,0.172,2.748-0.502,3.693
				c-0.673,0.944-1.856,1.615-3.549,2.033c-1.721,0.425-3.096,0.386-4.133-0.135c-1.038-0.521-1.765-1.53-2.169-3.033
				c-0.742-2.76-1.113-4.14-1.854-6.9c1.042-0.28,1.563-0.417,2.608-0.686c0.676,2.617,1.014,3.926,1.69,6.543
				c0.237,0.917,0.631,1.553,1.182,1.905c0.552,0.353,1.257,0.42,2.116,0.207c0.865-0.214,1.462-0.605,1.796-1.178
				c0.334-0.575,0.393-1.318,0.176-2.236c-0.623-2.63-0.934-3.946-1.556-6.576C308.702,434.416,309.226,434.295,310.275,434.058z"/>
			<path fill="#FFFFFF" d="M324.025,442.974c-1.174,0.212-1.761,0.321-2.933,0.547c-1.657-1.865-2.498-2.792-4.204-4.631
				c0.431,2.101,0.647,3.151,1.078,5.252c-1.015,0.208-1.522,0.315-2.536,0.533c-0.967-4.488-1.451-6.732-2.419-11.221
				c1.514-0.326,2.273-0.484,3.79-0.788c1.506-0.302,2.694-0.249,3.542,0.141c0.849,0.391,1.368,1.127,1.564,2.195
				c0.142,0.776,0.011,1.487-0.392,2.13c-0.402,0.642-0.991,1.084-1.768,1.332C321.484,440.254,322.339,441.156,324.025,442.974z
				 M316.642,437.69c0.157-0.032,0.235-0.048,0.391-0.08c1.054-0.214,1.728-0.455,2.025-0.734c0.297-0.279,0.396-0.684,0.293-1.211
				c-0.107-0.554-0.368-0.911-0.779-1.072c-0.411-0.161-1.128-0.144-2.141,0.062c-0.158,0.032-0.237,0.048-0.396,0.081
				C316.279,435.918,316.4,436.509,316.642,437.69z"/>
			<path fill="#FFFFFF" d="M325.508,442.711c-0.791-4.523-1.187-6.784-1.978-11.307c2.931-0.512,4.399-0.748,7.339-1.18
				c0.121,0.819,0.181,1.229,0.301,2.048c-1.859,0.273-2.787,0.417-4.643,0.723c0.154,0.932,0.23,1.398,0.384,2.33
				c1.839-0.303,2.759-0.446,4.602-0.716c0.121,0.825,0.182,1.238,0.303,2.064c-1.829,0.268-2.742,0.411-4.567,0.711
				c0.187,1.135,0.28,1.702,0.467,2.837c1.805-0.297,2.709-0.438,4.518-0.703c0.121,0.826,0.182,1.238,0.303,2.064
				C329.722,441.994,328.315,442.22,325.508,442.711z"/>
			<path fill="#FFFFFF" d="M335.049,441.225c-0.624-4.549-0.936-6.823-1.56-11.372c1.363-0.187,2.045-0.276,3.41-0.445
				c1.344-0.167,2.418-0.202,3.211-0.118c0.793,0.083,1.505,0.298,2.134,0.637c0.808,0.436,1.448,1.028,1.911,1.773
				c0.462,0.743,0.74,1.618,0.836,2.617c0.098,1.013-0.01,1.929-0.321,2.753c-0.31,0.819-0.809,1.525-1.496,2.109
				c-0.506,0.431-1.092,0.765-1.744,1.004c-0.649,0.238-1.621,0.431-2.911,0.59c-0.362,0.045-0.544,0.067-0.906,0.113
				C336.586,441.017,336.073,441.084,335.049,441.225z M337.351,438.835c0.574-0.073,0.861-0.109,1.435-0.178
				c1.354-0.164,2.306-0.565,2.863-1.216c0.558-0.651,0.774-1.606,0.639-2.869c-0.134-1.257-0.549-2.147-1.248-2.66
				c-0.698-0.513-1.747-0.693-3.138-0.524c-0.59,0.072-0.885,0.108-1.475,0.183C336.796,434.476,336.981,435.929,337.351,438.835z"
				/>
			<path fill="#FFFFFF" d="M351.431,439.502c1.494-4.714,2.281-7.066,3.937-11.757c1.23-0.069,1.845-0.1,3.076-0.155
				c2.148,4.5,3.182,6.761,5.167,11.3c-1.173,0.032-1.76,0.051-2.932,0.096c-0.429-0.959-0.646-1.439-1.083-2.396
				c-1.885,0.079-2.827,0.127-4.711,0.239c-0.28,0.993-0.419,1.49-0.693,2.485C353.088,439.383,352.535,439.421,351.431,439.502z
				 M358.904,434.69c-0.615-1.458-0.926-2.186-1.555-3.64c-0.043-0.107-0.105-0.295-0.18-0.556
				c-0.076-0.261-0.247-0.967-0.247-0.967c-0.006,0-0.109,0.71-0.161,1.008c-0.053,0.298-0.093,0.498-0.122,0.599
				c-0.46,1.491-0.686,2.237-1.131,3.729C356.866,434.784,357.545,434.75,358.904,434.69z"/>
			<path fill="#FFFFFF" d="M368.383,429.414c0.032,3.756,0.048,5.634,0.08,9.39c-1.035,0.009-1.553,0.016-2.588,0.035
				c-0.069-3.756-0.104-5.633-0.173-9.389c-1.222,0.022-1.833,0.037-3.055,0.073c-0.025-0.835-0.037-1.252-0.062-2.087
				c3.543-0.105,5.315-0.129,8.859-0.119c-0.002,0.835-0.003,1.253-0.006,2.088C370.216,429.401,369.605,429.403,368.383,429.414z"
				/>
			<path fill="#FFFFFF" d="M383.221,429.691c-0.173,3.752-0.259,5.628-0.433,9.381c-1.034-0.048-1.551-0.069-2.585-0.106
				c0.136-3.754,0.204-5.631,0.34-9.384c-1.222-0.044-1.832-0.063-3.054-0.093c0.021-0.835,0.031-1.252,0.052-2.087
				c3.542,0.088,5.313,0.161,8.851,0.363c-0.048,0.834-0.072,1.251-0.12,2.084C385.052,429.779,384.442,429.747,383.221,429.691z"/>
			<path fill="#FFFFFF" d="M387.422,439.326c0.293-4.582,0.439-6.873,0.732-11.455c1.075,0.068,1.612,0.105,2.686,0.184
				c-0.135,1.836-0.203,2.755-0.339,4.591c2.142,0.158,3.213,0.247,5.353,0.447c0.172-1.833,0.258-2.75,0.43-4.583
				c1.074,0.1,1.61,0.153,2.683,0.264c-0.474,4.567-0.711,6.85-1.185,11.417c-1.028-0.106-1.542-0.157-2.571-0.253
				c0.179-1.911,0.269-2.867,0.448-4.778c-2.123-0.199-3.186-0.288-5.312-0.444c-0.141,1.914-0.212,2.871-0.353,4.786
				C388.966,439.427,388.451,439.391,387.422,439.326z"/>
			<path fill="#FFFFFF" d="M400.457,440.482c0.521-4.562,0.781-6.843,1.302-11.404c2.95,0.336,4.424,0.524,7.366,0.94
				c-0.116,0.82-0.174,1.23-0.291,2.05c-1.86-0.263-2.791-0.387-4.655-0.617c-0.116,0.937-0.174,1.406-0.291,2.343
				c1.847,0.229,2.77,0.351,4.614,0.612c-0.117,0.826-0.176,1.239-0.293,2.065c-1.83-0.259-2.745-0.38-4.578-0.607
				c-0.142,1.141-0.213,1.712-0.354,2.853c1.813,0.225,2.719,0.345,4.529,0.601c-0.117,0.826-0.176,1.239-0.293,2.065
				C404.695,440.984,403.283,440.804,400.457,440.482z"/>
			<path fill="#FFFFFF" d="M414.629,441.009c0.674-0.512,1.012-0.768,1.692-1.276c0.108,0.449,0.341,0.828,0.697,1.138
				c0.355,0.309,0.783,0.509,1.281,0.6c0.599,0.11,1.098,0.066,1.498-0.135c0.399-0.2,0.644-0.528,0.73-0.979
				c0.102-0.533-0.382-1.184-1.46-1.925c-0.348-0.239-0.625-0.434-0.826-0.581c-0.967-0.705-1.62-1.336-1.948-1.897
				c-0.33-0.564-0.436-1.184-0.32-1.863c0.158-0.934,0.69-1.635,1.605-2.093c0.914-0.458,2.028-0.57,3.323-0.329
				c0.755,0.141,1.382,0.383,1.879,0.726c0.5,0.345,0.907,0.814,1.222,1.404c-0.733,0.42-1.098,0.631-1.825,1.055
				c-0.12-0.365-0.32-0.656-0.594-0.875c-0.275-0.22-0.63-0.372-1.061-0.452c-0.523-0.097-0.97-0.054-1.333,0.127
				c-0.362,0.181-0.579,0.461-0.648,0.842c-0.107,0.598,0.429,1.253,1.593,1.981c0.233,0.145,0.41,0.258,0.534,0.341
				c0.946,0.629,1.616,1.274,2,1.918c0.385,0.646,0.504,1.321,0.363,2.024c-0.212,1.055-0.766,1.823-1.649,2.299
				c-0.885,0.478-1.967,0.595-3.25,0.359c-0.909-0.167-1.665-0.453-2.263-0.865C415.269,442.141,414.857,441.626,414.629,441.009z"
				/>
			<path fill="#FFFFFF" d="M438.005,441.652c-0.206,0.794-0.565,1.504-1.063,2.128c-0.497,0.624-1.113,1.134-1.843,1.521
				c-0.754,0.398-1.55,0.654-2.388,0.762c-0.839,0.108-1.67,0.064-2.494-0.127c-0.719-0.168-1.401-0.445-2.041-0.833
				c-0.637-0.386-1.205-0.859-1.689-1.418c-0.625-0.723-1.058-1.519-1.297-2.385c-0.238-0.868-0.266-1.751-0.08-2.65
				c0.168-0.811,0.486-1.536,0.957-2.175c0.471-0.64,1.084-1.173,1.825-1.59c0.732-0.412,1.545-0.684,2.431-0.802
				c0.884-0.117,1.763-0.075,2.628,0.126c0.862,0.201,1.661,0.549,2.398,1.044c0.737,0.495,1.348,1.095,1.827,1.793
				c0.481,0.701,0.79,1.45,0.93,2.234C438.246,440.066,438.21,440.858,438.005,441.652z M430.715,443.805
				c1.08,0.251,2.052,0.109,2.927-0.427c0.876-0.536,1.454-1.334,1.718-2.397c0.262-1.056,0.122-2.034-0.428-2.931
				c-0.55-0.898-1.376-1.478-2.471-1.733c-1.109-0.258-2.115-0.105-3.003,0.455c-0.888,0.559-1.449,1.375-1.682,2.444
				c-0.235,1.08-0.075,2.054,0.471,2.915C428.795,442.994,429.615,443.548,430.715,443.805z"/>
			<path fill="#FFFFFF" d="M452.158,439.693c-0.85,2.729-1.275,4.093-2.125,6.821c-0.463,1.486-1.23,2.465-2.29,2.944
				c-1.06,0.478-2.424,0.467-4.105-0.02c-1.707-0.494-2.879-1.216-3.516-2.186c-0.638-0.971-0.76-2.207-0.357-3.71
				c0.74-2.76,1.11-4.141,1.85-6.901c1.041,0.279,1.56,0.421,2.598,0.71c-0.726,2.604-1.089,3.906-1.814,6.51
				c-0.254,0.912-0.227,1.66,0.074,2.242c0.3,0.579,0.878,0.992,1.729,1.239c0.858,0.248,1.575,0.21,2.152-0.119
				c0.577-0.33,1.001-0.944,1.273-1.847c0.779-2.589,1.168-3.883,1.946-6.472C450.609,439.213,451.126,439.371,452.158,439.693z"/>
			<path fill="#FFFFFF" d="M459.676,454.323c-1.136-0.409-1.704-0.611-2.844-1.006c-0.509-2.447-0.777-3.671-1.339-6.12
				c-0.679,2.034-1.019,3.051-1.698,5.085c-0.991-0.331-1.487-0.493-2.48-0.814c1.411-4.369,2.116-6.554,3.527-10.923
				c1.483,0.479,2.223,0.723,3.701,1.224c1.469,0.497,2.478,1.141,3.023,1.905c0.546,0.766,0.632,1.665,0.266,2.688
				c-0.266,0.743-0.741,1.291-1.416,1.644c-0.674,0.353-1.41,0.438-2.215,0.261C458.819,450.689,459.114,451.9,459.676,454.323z
				 M455.881,446.035c0.152,0.051,0.228,0.076,0.38,0.127c1.026,0.344,1.738,0.476,2.139,0.385c0.399-0.091,0.687-0.393,0.863-0.9
				c0.185-0.533,0.136-0.973-0.142-1.32c-0.278-0.347-0.913-0.692-1.901-1.023c-0.154-0.051-0.23-0.077-0.384-0.128
				C456.454,444.318,456.263,444.89,455.881,446.035z"/>
			<path fill="#FFFFFF" d="M473.525,450.564c-0.338-0.62-0.737-1.134-1.197-1.541c-0.458-0.406-0.997-0.735-1.611-0.978
				c-1.26-0.498-2.403-0.545-3.41-0.147c-1.01,0.399-1.728,1.179-2.162,2.333c-0.426,1.132-0.422,2.157,0.006,3.077
				c0.427,0.92,1.224,1.604,2.389,2.063c0.665,0.262,1.323,0.405,1.973,0.429c0.653,0.024,1.306-0.072,1.961-0.282
				c-0.388,0.928-0.582,1.393-0.97,2.321c-0.634,0.073-1.264,0.065-1.888-0.023c-0.623-0.088-1.249-0.254-1.877-0.501
				c-1.815-0.715-3.106-1.811-3.888-3.316c-0.781-1.504-0.886-3.077-0.285-4.722c0.598-1.639,1.696-2.775,3.312-3.383
				c1.616-0.608,3.401-0.536,5.328,0.223c0.647,0.255,1.248,0.562,1.798,0.924c0.552,0.364,1.069,0.793,1.547,1.283
				C474.14,449.219,473.935,449.667,473.525,450.564z"/>
			<path fill="#FFFFFF" d="M472.559,459.355c1.783-4.231,2.674-6.347,4.457-10.578c2.784,1.173,4.169,1.78,6.927,3.033
				c-0.342,0.754-0.514,1.131-0.856,1.885c-1.743-0.792-2.618-1.18-4.372-1.94c-0.375,0.867-0.563,1.3-0.938,2.167
				c1.739,0.753,2.605,1.138,4.334,1.923c-0.345,0.76-0.518,1.14-0.863,1.899c-1.715-0.779-2.575-1.161-4.3-1.909
				c-0.457,1.055-0.686,1.583-1.143,2.638c1.707,0.74,2.557,1.117,4.254,1.888c-0.345,0.76-0.518,1.14-0.863,1.899
				C476.553,461.06,475.226,460.479,472.559,459.355z"/>
		</g>
	</g>
	<g>
		<path fill="#FFFFFF" d="M579.938,468.159c-1.727,1.672-3.801,2.508-6.219,2.508c-2.5,0-4.604-0.857-6.316-2.568
			c-1.711-1.711-2.566-3.816-2.566-6.314c0-2.598,0.924-4.754,2.771-6.473c1.736-1.607,3.773-2.412,6.111-2.412
			c2.451,0,4.545,0.869,6.279,2.603c1.736,1.736,2.604,3.828,2.604,6.281C582.602,464.308,581.713,466.433,579.938,468.159z
			 M568.5,456.636c-1.414,1.447-2.121,3.162-2.121,5.148c0,2.057,0.719,3.805,2.158,5.242c1.428,1.438,3.156,2.156,5.182,2.156
			c2.016,0,3.74-0.723,5.17-2.168c1.432-1.455,2.147-3.199,2.147-5.23c0-1.977-0.711-3.693-2.133-5.148
			c-1.44-1.479-3.168-2.217-5.184-2.217C571.678,454.419,569.938,455.157,568.5,456.636z M569.826,466.726v-9.848
			c0.609,0,1.523,0.002,2.74,0.006c1.219,0.004,1.896,0.01,2.031,0.018c0.781,0.057,1.428,0.225,1.941,0.506
			c0.875,0.482,1.314,1.266,1.314,2.352c0,0.826-0.232,1.426-0.693,1.793c-0.463,0.367-1.031,0.588-1.707,0.66
			c0.619,0.129,1.086,0.318,1.398,0.568c0.578,0.469,0.869,1.205,0.869,2.209v0.881c0,0.096,0.006,0.191,0.019,0.289
			c0.014,0.096,0.035,0.191,0.07,0.289l0.09,0.277h-2.459c-0.08-0.312-0.135-0.768-0.162-1.363
			c-0.027-0.594-0.082-0.996-0.162-1.205c-0.129-0.346-0.371-0.586-0.725-0.723c-0.191-0.08-0.484-0.133-0.879-0.156l-0.566-0.037
			h-0.543v3.484H569.826z M574.525,458.817c-0.354-0.135-0.852-0.205-1.494-0.205h-0.627v2.857h1.002
			c0.602,0,1.072-0.119,1.41-0.361c0.336-0.24,0.506-0.631,0.506-1.17C575.322,459.401,575.057,459.026,574.525,458.817z"/>
	</g>
</g>
</svg>
