<?xml version="1.0" encoding="UTF-8" standalone="no"?>
<svg width="117px" height="60px" viewBox="0 0 117 60" version="1.1" xmlns="http://www.w3.org/2000/svg" xmlns:xlink="http://www.w3.org/1999/xlink" xmlns:sketch="http://www.bohemiancoding.com/sketch/ns">
									    <g id="Page-1" stroke="none" stroke-width="1" fill="none" fill-rule="evenodd" sketch:type="MSPage">
									        <g id="UCS" sketch:type="MSLayerGroup" fill="#FFFFFF">
									            <g id="Page-1" transform="translate(0.000000, 4.000000)" sketch:type="MSShapeGroup">
									                <path d="M41.8813947,17.5348559 C41.8778045,17.5357 41.8742121,17.5365449 41.8706173,17.5373906 C41.8501806,17.0794712 41.824516,16.7692372 41.8243576,16.458845 C41.8229318,11.9803745 41.8251497,7.50174597 41.8261002,3.02327552 C41.8262587,0.86144069 40.4408439,-0.23054522 38.3293735,0.327781199 C31.7332466,2.07170136 25.1409219,3.83174989 18.5514488,5.60160194 C16.3246461,6.19977494 14.8595442,8.13059451 14.8395828,10.436636 C14.8269089,11.8855017 14.8332459,13.3346837 14.839266,14.7835495 C14.8400581,15.0041288 14.8858425,15.2245499 14.9206957,15.5314634 C17.906823,14.7343738 20.7953613,13.963216 23.7743596,13.1680239 C23.8293326,13.480946 23.8705227,13.6064943 23.8708396,13.7323589 C23.8741582,16.4389952 23.8647081,19.1457888 23.8803861,21.8524259 L32.8503187,19.7263964 L32.8503185,29.815787 L40.9725488,27.7480728 C40.9762845,27.7469334 41.0073894,27.7320301 41.0582993,27.6958169 C41.1590904,27.6241222 41.2643242,27.5150594 41.366631,27.3591454 C41.6840031,26.8754754 41.8813947,26.0934145 41.8813947,24.9424382 L41.8813947,17.5348559 Z M42.5150893,17.3880944 C42.9436307,17.2896052 43.3459971,17.1969965 43.7455611,17.0937021 C44.791474,16.8233147 45.825822,16.5023284 46.8793393,16.2668857 C49.3974831,15.7044481 51.0232266,17.0170133 51.0249692,19.5939166 C51.0300388,27.36558 51.0328904,35.1372434 51.0262366,42.9089068 C51.0240187,45.4850196 49.1948593,47.8664849 46.726302,48.5298039 C42.3748798,49.6991111 38.0210811,50.8590892 33.6675994,52.0209648 C33.4678271,52.0742516 33.2623517,52.1063503 32.9260183,52.1759237 L32.9260183,41.4935628 C29.8274102,42.3192724 26.8932459,43.1011824 23.8497692,43.9123448 L23.8497692,33.1287863 C20.7700135,33.9456411 17.8184226,34.7283417 14.7347064,35.5463033 C14.7347064,34.8347573 14.7313795,34.2625162 14.73534,33.6902751 C14.7473802,31.8729867 14.7072991,30.0531683 14.7901546,28.2390423 C14.8833077,26.20829 16.2457511,24.5350501 18.2087785,23.9586978 C19.159381,23.6797749 20.1153356,23.4187779 21.0734452,23.1656365 L21.0739311,23.1676787 L32.2166239,20.532181 L32.2166241,30.2390581 L32.2166241,30.6487802 L32.6137386,30.5449848 L41.1454089,28.3564373 C41.2248176,28.332489 41.3176455,28.2880124 41.4260778,28.2108823 C41.5908571,28.0936715 41.7511937,27.927501 41.8967526,27.7056715 C42.2875682,27.1100748 42.5150893,26.2086414 42.5150893,24.9424382 L42.5150893,17.3880943 Z M14.8940517,55.620053 L14.8940517,51.7603113 C14.8940517,50.5500507 14.88819,49.3396319 14.8954775,48.1293712 C14.9014976,47.1090143 15.4187508,46.2995912 16.3757881,46.0360029 C18.7855701,45.3725258 21.2118283,44.7675536 23.6323832,44.1429743 C23.6754744,44.1317477 23.7306058,44.1677994 23.8799993,44.2100178 C23.8799993,44.4620632 23.8801577,44.7417798 23.8799993,45.0216546 C23.8796825,47.1265657 23.8914058,49.231635 23.8747713,51.336388 C23.8635233,52.7578988 23.3651225,53.403192 21.9945995,53.7793626 C19.8899414,54.3572961 17.7791047,54.9124601 15.6696939,55.4726839 C15.4498019,55.5311888 15.2215134,55.5587019 14.8940517,55.620053 Z M14.716649,35.7604697 C14.716649,36.7960063 14.7172827,37.7867945 14.7164906,38.7777409 C14.7152232,40.1714223 14.7242533,41.5652618 14.707302,42.9587851 C14.6957371,43.9187397 14.2496161,44.6067256 13.3469182,44.8663609 C10.921769,45.5639922 8.48077747,46.2078622 6.0448555,46.8688094 C5.97388171,46.8881002 5.89039245,46.8605871 5.70836368,46.8471468 C5.70836368,46.0440485 5.70868053,45.2387366 5.70836368,44.4334247 C5.70788841,42.9344344 5.69632348,41.4354442 5.70963107,39.9367703 C5.721196,38.6740133 6.25429156,37.9564587 7.44547895,37.6304125 C9.6527956,37.0260728 11.8664492,36.445135 14.078677,35.8591374 C14.2523093,35.8131241 14.4357639,35.8026881 14.716649,35.7604697 Z M7.14960131,25.2234223 C7.14960131,23.1654732 7.08702397,21.1684008 7.1803355,19.1787601 C7.21724821,18.3895765 7.81086161,17.780335 8.62056486,17.5559609 C10.5427189,17.0234082 12.4746953,16.5262748 14.4763781,15.9953033 C14.5218456,16.2576266 14.5842646,16.4536971 14.5852151,16.6500838 C14.5932947,18.3358153 14.6010575,20.0217049 14.5864825,21.7072783 C14.5774523,22.7268446 14.0351682,23.5122333 13.0730614,23.7884712 C11.3017266,24.2971476 9.51470791,24.7517464 7.73164978,25.2177299 C7.56688919,25.2607389 7.38105826,25.2234223 7.14960131,25.2234223 Z M0.0227586481,55.9645808 C0.0227586481,54.3207515 -0.0512251943,52.8467444 0.0675925397,51.3885495 C0.103396284,50.9475491 0.5926085,50.3223374 1.01322328,50.1735452 C2.46501756,49.6601252 3.9781218,49.3198481 5.57487372,48.8845401 C5.57487372,50.5320063 5.6296883,52.0722661 5.53526781,53.6035131 C5.51245481,53.9765213 5.06570013,54.5176125 4.69863254,54.6411053 C3.21246032,55.1412431 1.68129579,55.5085589 0.0227586481,55.9645808 Z M0.181159991,34.3593566 C0.181159991,32.7991734 0.108760386,31.4028039 0.222350139,30.0216141 C0.259738119,29.5687546 0.692076248,28.9131836 1.09526442,28.7675538 C2.49351152,28.262198 3.95861339,27.9401049 5.43575546,27.5381605 C5.51718521,27.7900477 5.62000216,27.9595538 5.61905162,28.1284274 C5.61350679,29.3369487 5.60701142,30.5459444 5.5593259,31.7532008 C5.52795802,32.5513973 5.09546147,33.0531162 4.30112531,33.2570928 C2.95896019,33.6016391 1.62344886,33.9719593 0.181159991,34.3593566 Z" id="Fill-4"></path>
									                <path d="M60.3625243,19.4540283 C60.3625243,17.5050248 60.3536526,15.5560213 60.3658512,13.6070178 C60.3734555,12.3512182 60.9729306,11.7649043 62.2089519,11.7579469 C63.6708853,11.7497246 64.2824006,12.276743 64.2879454,13.6161888 C64.3018867,16.9873356 64.2868364,20.3587986 64.3044215,23.7299454 C64.3079068,24.4104996 64.3462453,25.1008573 64.4669641,25.769078 C64.9108672,28.2270741 66.6337243,29.5282546 69.1501255,29.3554279 C72.0533972,29.1557207 73.4532286,27.490545 73.4540207,24.2272369 C73.4548128,20.8032777 73.4449905,17.3793184 73.4568723,13.9555172 C73.4584565,13.5142005 73.4863391,13.0453708 73.635891,12.6383665 C73.9023596,11.9138546 74.7567383,11.6170608 75.8924774,11.7615837 C76.6798429,11.8618326 77.229573,12.2280416 77.3355584,13.0746232 C77.3680353,13.3356816 77.416196,13.5976886 77.4158792,13.8590632 C77.4095422,17.4670757 77.4835261,21.0785669 77.340628,24.6813614 C77.284546,26.0911712 76.903854,27.5476268 76.3761448,28.8652518 C75.5723032,30.8729184 73.869249,32.0155031 71.8201976,32.5670303 C69.7988703,33.1111258 67.7445909,33.0821896 65.7223131,32.5311368 C62.6270319,31.6875595 60.5957239,29.0300142 60.4122693,25.4569465 C60.3099277,23.460981 60.3938922,21.45537 60.3938922,19.4540283 L60.3625243,19.4540283 Z M106.546333,32.9548832 C104.339491,32.8936902 102.050745,32.4800448 100.210813,30.8025356 C99.7605726,30.3920526 99.3897028,29.8342006 99.1447799,29.2735023 C98.7091149,28.2754405 99.4223381,26.8847634 100.482192,26.6354061 C100.743274,26.574055 101.182742,26.7818264 101.379029,27.0063587 C103.366928,29.2777716 105.835803,29.9882108 108.731628,29.3133489 C109.981749,29.0219313 110.729034,28.1552683 110.814899,27.0296025 C110.893002,26.0067157 110.383036,25.1756299 109.13244,24.7281466 C107.799939,24.2512526 106.398206,23.9697967 105.037823,23.5664292 C104.282776,23.3425294 103.524718,23.0987063 102.812446,22.7683908 C100.874449,21.8696292 99.7025895,20.4196566 99.5639688,18.2045348 C99.40808,15.718235 100.338185,13.7189489 102.519679,12.6117834 C105.922302,10.8849403 109.389245,11.023929 112.706636,12.9952276 C113.146262,13.256444 113.527746,13.6637646 113.843959,14.0742476 C114.773906,15.2819783 114.210393,17.026689 112.747034,17.4542491 C112.532687,17.5168652 112.142014,17.3451454 111.978046,17.1563485 C110.279269,15.2002295 108.160353,14.5242609 105.653932,15.0610828 C104.628931,15.2807133 103.788335,15.7871759 103.486855,16.900192 C103.183474,18.0201654 103.524718,18.9522906 104.606752,19.3588205 C105.807286,19.8097826 107.090676,20.0365286 108.30737,20.4506483 C109.621019,20.8978155 110.98869,21.2947 112.176234,21.982844 C116.008343,24.2031838 115.430097,29.8813207 111.766867,31.85088 C110.182947,32.7023634 108.491141,32.9570969 106.546333,32.9548832 Z M89.8436715,33.0922727 C83.435435,33.0955933 78.9512538,28.3963855 79.223584,22.0130273 C79.3514319,19.0166281 80.2416144,16.3883354 82.4535253,14.2929115 C84.6098295,12.2499839 87.2496427,11.5134547 90.1483202,11.5710109 C92.1194272,11.6100669 94.0537799,11.9085999 95.7619036,12.9711753 C96.3986082,13.366953 97.0029945,13.8770524 97.4809586,14.4518234 C98.4745917,15.6472207 97.5731612,17.1441553 96.320347,17.5982798 C96.1042571,17.6765498 95.6430859,17.3933545 95.4422047,17.154117 C93.452879,14.7876731 87.4693763,13.9833099 84.8145129,17.4039487 C82.4429109,20.4593271 82.4940817,27.3026602 87.7287158,29.0818414 C90.3601326,29.9761757 93.5105452,29.1707056 95.2950291,27.0604183 C95.7089901,26.5707166 96.0842957,26.540041 96.5842808,26.8782626 C97.7775277,27.6853138 98.0232427,28.9784301 97.1490611,30.168135 C95.9835383,31.7548825 94.2638496,32.4125091 92.4321554,32.80465 C91.587599,32.9855408 90.7075556,33.0015111 89.8436715,33.0922727 Z" id="Fill-6"></path>
									            </g>
									            <text id="UNITED-CARD" sketch:type="MSTextLayer" font-family="SF UI Display" font-size="8.57142857" font-weight="526" line-spacing="8.57142857" letter-spacing="0.114285716">
									                <tspan x="59.4285714" y="48">UNITED CARD</tspan>
									                <tspan x="59.4285714" y="56.5714286">SERVICE</tspan>
									                <tspan x="94.392913" y="56.5714286">S</tspan>
									            </text>
									            <text id="globalpayments" sketch:type="MSTextLayer" font-family="SF UI Display" font-size="7.42857143" font-weight="526" line-spacing="8.57142857" letter-spacing="0.228571432">
									                <tspan x="59.4285714" y="7">global</tspan>
									                <tspan x="81.5513951" y="7.24665179" font-weight="260">payment</tspan>
									                <tspan x="110.776395" y="7.24665179" font-weight="260">s</tspan>
									            </text>
									        </g>
									    </g>
									</svg>
