<?xml version="1.0" encoding="UTF-8" standalone="no"?>
<svg width="140px" height="62px" viewBox="0 0 140 62" version="1.1" xmlns="http://www.w3.org/2000/svg" xmlns:xlink="http://www.w3.org/1999/xlink" xmlns:sketch="http://www.bohemiancoding.com/sketch/ns">
									    <g id="Page-1" stroke="none" stroke-width="1" fill="none" fill-rule="evenodd" sketch:type="MSPage">
									        <g id="Mini" sketch:type="MSLayerGroup" fill="#FFFFFF">
									            <path d="M70,57.2311047 C55.5026744,57.2311047 43.75,45.4784302 43.75,30.9811047 C43.75,16.4837791 55.5026744,4.73110465 70,4.73110465 C84.4973256,4.73110465 96.25,16.4837791 96.25,30.9811047 C96.25,45.4784302 84.4973256,57.2311047 70,57.2311047 L70,57.2311047 Z M139.961744,14.4505233 L95.829186,14.4505233 C90.3736628,5.87837209 80.7950581,0.186395349 69.8811628,0.186395349 C58.9676744,0.186395349 49.3890698,5.87837209 43.9331395,14.4505233 L0.038255814,14.4505233 L4.50401163,18.9252326 L41.5706395,18.9252326 C40.8861047,20.5380814 40.3431977,22.224186 39.9398837,23.9636047 L9.5322093,23.9636047 L13.9979651,28.438314 L39.2468023,28.438314 C39.1808721,29.2612209 39.1377326,30.0906395 39.1377326,30.9302326 C39.1377326,31.7885465 39.182093,32.6362791 39.2508721,33.476686 L19.0261628,33.476686 L23.4923256,37.9513953 L39.9525,37.9513953 C40.3594767,39.6916279 40.9072674,41.3773256 41.5954651,42.9897674 L28.5201163,42.9897674 L32.9862791,47.4644767 L43.9685465,47.4644767 C49.4301744,56.0061047 58.9908721,61.6740698 69.8811628,61.6740698 C80.7718605,61.6740698 90.3325581,56.0061047 95.794186,47.4644767 L107.013721,47.4644767 L111.479884,42.9897674 L98.1672674,42.9897674 C98.8554651,41.3773256 99.4032558,39.6916279 99.8098256,37.9513953 L116.507674,37.9513953 L120.973837,33.476686 L100.511453,33.476686 C100.58064,32.6362791 100.625,31.7885465 100.625,30.9302326 C100.625,30.0906395 100.58186,29.2612209 100.51593,28.438314 L126.002035,28.438314 L130.467791,23.9636047 L99.8224419,23.9636047 C99.4191279,22.224186 98.8766279,20.5380814 98.191686,18.9252326 L135.495988,18.9252326 L139.961744,14.4505233 Z" id="Fill-1" sketch:type="MSShapeGroup"></path>
									            <path d="M56.5029826,34.7969186 L52.9378663,24.0173256 L48.8982151,24.0173256 L48.8982151,37.8651163 L51.8479826,37.8651163 L51.8479826,27.596686 L54.9585058,37.8651163 L58.0153081,37.8651163 L61.1368198,27.596686 L61.1368198,37.8651163 L64.0861802,37.8651163 L64.0861802,24.0173256 L60.0363547,24.0173256 L56.5029826,34.7969186 Z M67.3037791,37.8541279 L70.1123256,37.8541279 L70.1123256,24.0063372 L67.3037791,24.0063372 L67.3037791,37.8541279 Z M88.1739535,37.8541279 L90.982093,37.8541279 L90.982093,24.0063372 L88.1739535,24.0063372 L88.1739535,37.8541279 Z M82.1997791,34.1594302 L76.6490233,24.0171628 L73.3866977,24.0171628 L73.3866977,37.8649535 L76.1268721,37.8649535 L76.1268721,28.1589651 L81.6747791,37.9471628 L84.9745465,37.8649535 L84.9745465,24.0171628 L82.2347791,24.0171628 L82.1997791,34.1594302 Z" id="Fill-3" sketch:type="MSShapeGroup"></path>
									        </g>
									    </g>
									</svg>
