<?xml version="1.0" encoding="UTF-8" standalone="no"?>
<svg width="92px" height="21px" viewBox="0 0 92 21" version="1.1" xmlns="http://www.w3.org/2000/svg" xmlns:xlink="http://www.w3.org/1999/xlink" xmlns:sketch="http://www.bohemiancoding.com/sketch/ns">
									    <g id="Page-1" stroke="none" stroke-width="1" fill="none" fill-rule="evenodd" sketch:type="MSPage">
									        <path d="M58.5,2.0004 L58.5,18.3304 C58.5,19.4349695 59.3954305,20.3304 60.5,20.3304 C61.6045695,20.3304 62.5,19.4349695 62.5,18.3304 L62.5,2.0004 C62.5,0.8958305 61.6045695,0.0004 60.5,0.0004 C59.3954305,0.0004 58.5,0.8958305 58.5,2.0004 Z M29.4576973,19.4644343 L42.0836973,11.5804343 C43.3622744,10.7820577 43.3316382,8.909928 42.0276229,8.15381393 L29.4016229,0.832813931 C28.4460675,0.278749228 27.2222786,0.60422173 26.6682139,1.55977711 C26.1141492,2.51533249 26.4396217,3.73912137 27.3951771,4.29318607 L40.0211771,11.6141861 L39.9651027,8.18756573 L27.3391027,16.0715657 C26.4021879,16.6565995 26.116932,17.8903825 26.7019657,18.8272973 C27.2869995,19.7642121 28.5207825,20.049468 29.4576973,19.4644343 Z M49.9274,2 L49.9274,18.33 C49.9274,19.4345695 50.8228305,20.33 51.9274,20.33 C53.0319695,20.33 53.9274,19.4345695 53.9274,18.33 L53.9274,2 C53.9274,0.8954305 53.0319695,0 51.9274,0 C50.8228305,0 49.9274,0.8954305 49.9274,2 Z M72.4988577,19.4643966 L85.1238577,11.5803966 C86.4023542,10.7820072 86.3717185,8.90997643 85.0677824,8.15384841 L72.4427824,0.832848414 C71.487246,0.278750868 70.263446,0.604181307 69.7093484,1.55971764 C69.1552509,2.51525398 69.4806813,3.73905404 70.4362176,4.29315159 L83.0612176,11.6141516 L83.0051423,8.18760343 L70.3801423,16.0716034 C69.4432484,16.6566705 69.1580363,17.8904637 69.7431034,18.8273577 C70.3281705,19.7642516 71.5619637,20.0494637 72.4988577,19.4643966 Z M87.2305,2 L87.2305,18.33 C87.2305,19.4345695 88.1259305,20.33 89.2305,20.33 C90.3350695,20.33 91.2305,19.4345695 91.2305,18.33 L91.2305,2 C91.2305,0.8954305 90.3350695,0 89.2305,0 C88.1259305,0 87.2305,0.8954305 87.2305,2 Z M20.8503577,16.0716034 L8.22535767,8.18760343 L8.16928236,11.6141516 L20.7942824,4.29315159 C21.7498187,3.73905404 22.0752491,2.51525398 21.5211516,1.55971764 C20.967054,0.604181307 19.743254,0.278750868 18.7877176,0.832848414 L6.16271764,8.15384841 C4.85878153,8.90997643 4.82814583,10.7820072 6.10664233,11.5803966 L18.7316423,19.4643966 C19.6685363,20.0494637 20.9023295,19.7642516 21.4873966,18.8273577 C22.0724637,17.8904637 21.7872516,16.6566705 20.8503577,16.0716034 Z M0,2 L0,18.33 C0,19.4345695 0.8954305,20.33 2,20.33 C3.1045695,20.33 4,19.4345695 4,18.33 L4,2 C4,0.8954305 3.1045695,0 2,0 C0.8954305,0 0,0.8954305 0,2 L0,2 Z" id="k_player" fill="#FFFFFF" sketch:type="MSShapeGroup"></path>
									    </g>
									</svg>
