<?xml version="1.0" encoding="UTF-8" standalone="no"?>
<svg width="160px" height="29px" viewBox="0 0 160 29" version="1.1" xmlns="http://www.w3.org/2000/svg" xmlns:xlink="http://www.w3.org/1999/xlink" xmlns:sketch="http://www.bohemiancoding.com/sketch/ns">
									    <g id="Page-1" stroke="none" stroke-width="1" fill="none" fill-rule="evenodd" sketch:type="MSPage">
									        <path d="M0.0136834735,9.40738801 L11.1922261,9.40738801 L11.1965022,11.6395046 C11.1965022,11.6395046 13.1130437,8.79248692 17.5943812,8.79248692 C22.9728415,8.79248692 23.6518839,11.6574642 24.1855393,12.0089584 C24.7311679,11.428266 25.8908422,8.68644 31.3573899,8.68644 C37.9134841,8.68644 37.6321177,13.5380866 37.6321177,14.5395458 C37.6321177,15.1553021 37.6321177,20.9553844 37.6278416,22.6606873 C37.6321177,24.1188324 38.4385874,24.3480306 39.0560541,24.3480306 L40.9324004,24.3480306 L40.9324004,27.9681645 L28.013491,27.9681645 L28.0177671,24.3129667 C28.0177671,24.3129667 30.0215408,24.1898154 30.0172647,22.6606873 C30.0129886,21.3770064 30.0395003,14.6977609 30.0395003,14.6977609 C30.0395003,14.6977609 30.0873925,12.6084656 27.402866,12.6238595 C24.396778,12.641819 24.3086906,15.6641562 24.3086906,15.6641562 C24.3086906,15.6641562 24.3009937,20.973344 24.3044145,22.6606873 C24.3086906,24.5053905 26.149973,24.3480306 26.149973,24.3480306 L26.1542491,28.021188 L14.8482791,27.9681645 L14.8525552,24.3480306 C14.8525552,24.3480306 16.6981137,24.3651349 16.6981137,22.6076638 L16.6981137,14.5395458 C16.6981137,14.5395458 16.5398985,12.641819 14.1495668,12.641819 C11.5300368,12.641819 11.1571622,15.2254299 11.1571622,15.2254299 C11.1571622,15.2254299 11.1614383,20.973344 11.1614383,22.6606873 C11.1614383,24.3480306 13.0249563,24.3830945 13.0249563,24.3830945 L13.0420606,28.021188 L0,27.9681645 L0,24.3480306 L1.56504728,24.3480306 C1.56504728,24.3480306 3.462774,24.4711819 3.462774,22.6256234 L3.462774,14.5395458 C3.462774,13.2729693 1.84555848,13.1250167 1.84555848,13.1250167 L0,13.1070571 L0.0136834735,9.40738801 Z M52.1160743,8.6513761 C61.8527209,8.6513761 62.1674408,16.860605 62.1315217,19.7597909 L49.0552524,19.7597909 C49.0201885,22.6606873 50.0413177,24.5413097 52.7480798,24.5413097 C55.7712722,24.5413097 56.4725502,21.5531811 56.4725502,21.5531811 L61.7458188,21.5531811 C61.7458188,21.5531811 59.8489473,28.4787291 51.6585332,28.4787291 C42.0972061,28.4787291 41.0794978,21.2718147 41.0777873,18.8806277 C41.0752217,16.4911512 42.3777173,8.6513761 52.1160743,8.6513761 Z M54.8202708,15.2254299 L54.8553347,16.4911512 L48.9500607,16.4911512 L49.0552524,15.2254299 C49.0552524,15.2254299 49.5495678,12.5537317 52.0450913,12.5537317 C54.54147,12.5537317 54.8202708,15.2254299 54.8202708,15.2254299 Z M62.7712241,9.35436455 L73.9506219,9.35436455 L73.9540428,11.5873364 C73.9540428,11.5873364 75.4352788,8.72406955 80.3527771,8.73946346 C87.1765542,8.72406955 87.2116181,12.239867 87.2116181,13.0831111 C87.2116181,14.0683212 87.207342,20.9921587 87.2116181,22.6803573 C87.2158942,24.5250605 90.7624795,24.3480306 90.7624795,24.3480306 L90.7624795,27.9681645 L77.6152271,27.9681645 L77.6109511,24.2950071 C77.6109511,24.2950071 79.6891286,24.4378284 79.6891286,22.6803573 C79.6891286,20.9220309 79.6874182,14.682367 79.6874182,14.682367 C79.6874182,14.682367 79.5480178,12.5870852 76.9079626,12.5887956 C74.3457322,12.590506 73.6427438,14.8055183 73.5366968,15.4734428 L73.5366968,22.6803573 C73.5366968,24.3685558 75.9629477,24.3480306 75.9629477,24.3480306 L75.9646582,27.9707302 L62.7447124,27.9681645 L62.7583958,24.2950071 L64.3225879,24.2950071 C64.3225879,24.2950071 66.2211698,24.4181584 66.2211698,22.5725999 L66.2211698,14.4873775 C66.2211698,13.220801 64.6039543,13.0719932 64.6039543,13.0719932 L62.7583958,13.0548889 L62.7712241,9.35436455 Z M95.4772913,2.04311363 L100.487153,2.04311363 L100.487153,9.31331413 L105.759566,9.31502456 L105.759566,12.8983842 L100.487153,12.9009498 L100.487153,22.1595301 C100.487153,22.8428485 100.671025,24.3480306 102.136867,24.3480306 C103.296541,24.3480306 103.610406,23.0994136 103.648035,22.6606873 C103.685665,22.2202505 103.663429,18.4949248 103.663429,18.4949248 L107.472566,18.4949248 C107.472566,18.4949248 107.477698,18.6702443 107.480263,22.6606873 C107.480263,26.2277978 104.493845,28.2982783 100.487153,28.300844 C96.4796057,28.3025544 92.8577614,26.5425177 92.8577614,22.6606873 L92.8577614,13.0437711 L89.0973718,13.0437711 L89.0973718,9.40738801 C91.5578314,9.24917284 95.0727736,7.52676562 95.4772913,2.04311363 Z M120.137476,8.29817144 C130.191408,8.29988187 131.738496,15.0843191 131.738496,17.9672559 C131.738496,20.8501927 130.510404,27.9681645 120.137476,27.9681645 C109.764548,27.9681645 108.431265,21.09564 108.466328,17.9672559 C108.502248,14.8388718 110.083544,8.29560579 120.137476,8.29817144 Z M120.137476,11.8481776 C123.828593,11.8507432 123.507887,16.9127732 123.509597,18.4949248 C123.511308,20.0770764 123.584856,24.3480306 120.137476,24.3480306 C116.690096,24.3480306 116.72345,20.8151288 116.690096,18.4949248 C116.657598,16.1747209 116.446359,11.8464672 120.137476,11.8481776 Z M142.600608,8.05443457 C146.678283,8.05443457 149.103679,9.49547537 149.103679,9.49547537 L149.456028,8.59920786 L153.006035,8.57697221 L153.006035,15.080043 L149.385045,15.0843191 C149.385045,15.0843191 148.576865,11.7096324 143.620027,11.7096324 C143.620027,11.7096324 140.878201,11.7096324 140.878201,12.9753537 C140.878201,15.5067963 153.850134,14.3813306 153.850134,21.2718147 C153.850134,25.3494898 150.191515,27.9681645 144.918247,27.9681645 C139.644978,27.9681645 137.537723,25.8591992 137.537723,25.8591992 L136.905718,27.4764147 L133.249665,27.4567447 L133.249665,20.4610689 L136.905718,20.4636346 C139.647544,25.4906006 146.362708,24.7166292 146.362708,22.959158 C146.362708,20.3225237 132.968298,21.3770064 132.966588,14.5395458 C132.964877,9.65283531 138.522933,8.05443457 142.600608,8.05443457 Z M154.022033,2.94194679 C154.022033,1.24861695 155.395511,0 157.018713,0 C158.626521,0 160,1.24861695 160,2.94194679 C160,4.65152576 158.626521,5.90014271 157.018713,5.90014271 C155.395511,5.90014271 154.022033,4.65152576 154.022033,2.94194679 Z M157.018713,5.40839289 C158.353707,5.40839289 159.407335,4.36246238 159.407335,2.94194679 C159.407335,1.54452207 158.353707,0.490894611 157.018713,0.490894611 C155.668325,0.490894611 154.614698,1.54452207 154.614698,2.94194679 C154.614698,4.36246238 155.668325,5.40839289 157.018713,5.40839289 L157.018713,5.40839289 Z M156.394405,4.65152576 L155.878709,4.65152576 L155.878709,1.24861695 L157.175218,1.24861695 C157.979122,1.24861695 158.376798,1.54452207 158.376798,2.21586748 C158.376798,2.82478205 157.994516,3.08989935 157.494214,3.1523302 L158.46232,4.65152576 L157.885048,4.65152576 L156.98707,3.17627628 L156.394405,3.17627628 L156.394405,4.65152576 L156.394405,4.65152576 Z M157.010161,2.73840513 C157.448032,2.73840513 157.838011,2.70761731 157.838011,2.18507967 C157.838011,1.76345764 157.455729,1.68477767 157.097393,1.68477767 L156.394405,1.68477767 L156.394405,2.73840513 L157.010161,2.73840513 L157.010161,2.73840513 Z" id="Mentos" fill="#FFFFFF" sketch:type="MSShapeGroup"></path>
									    </g>
									</svg>
