<?xml version="1.0" encoding="UTF-8" standalone="no"?>
<svg width="100px" height="61px" viewBox="0 0 100 61" version="1.1" xmlns="http://www.w3.org/2000/svg" xmlns:xlink="http://www.w3.org/1999/xlink" xmlns:sketch="http://www.bohemiancoding.com/sketch/ns">
									    <g id="Page-1" stroke="none" stroke-width="1" fill="none" fill-rule="evenodd" sketch:type="MSPage">
									        <path d="M98.7145018,42.2610871 C99.2901698,42.2610871 99.7445039,42.7148867 99.7445039,43.3172802 C99.7445039,43.9298294 99.2901698,44.3804219 98.7145018,44.3804219 C98.1329542,44.3804219 97.6786201,43.9298294 97.6786201,43.3172802 C97.6786201,42.7148867 98.1329542,42.2610871 98.7145018,42.2610871 L98.7145018,42.0488863 C98.0148273,42.0488863 97.4225895,42.5871386 97.4225895,43.3172802 C97.4225895,44.0543704 98.0148273,44.5926227 98.7145018,44.5926227 C99.4082967,44.5926227 100,44.0543704 100,43.3172802 C100,42.5871386 99.4082967,42.0488863 98.7145018,42.0488863 L98.7145018,42.2610871 Z M98.4456429,42.7758209 L98.748176,42.7758209 C98.9031841,42.7758209 99.0683479,42.809495 99.0683479,42.9906942 C99.0683479,43.2162577 98.899977,43.230155 98.7112947,43.230155 L98.4456429,43.230155 L98.4456429,43.4183027 L98.7016736,43.4183027 L99.0881248,44.0543704 L99.3372068,44.0543704 L98.9197539,43.408147 C99.1351617,43.3814215 99.3003255,43.2670362 99.3003255,43.0045914 C99.3003255,42.7148867 99.1287476,42.5871386 98.7823847,42.5871386 L98.2232865,42.5871386 L98.2232865,44.0543704 L98.4456429,44.0543704 L98.4456429,42.7758209 Z M98.6781551,30.1111248 C98.6781551,13.4814284 85.1967267,0 68.5675648,0 C61.2698905,0 54.5783512,2.59665289 49.3668721,6.91603372 C44.1495133,2.57741051 37.426438,0 30.1105903,0 C13.4814284,0 0,13.4814284 0,30.1111248 C0,46.7402866 13.4814284,60.2211805 30.1105903,60.2211805 C37.426438,60.2211805 44.1495133,57.64377 49.3668721,53.3056813 C54.5783512,57.6250621 61.2698905,60.2211805 68.5675648,60.2211805 C85.1967267,60.2211805 98.6781551,46.7402866 98.6781551,30.1111248 Z M96.4658154,30.1111248 C96.4658154,14.7033198 83.9748352,2.21233971 68.5675648,2.21233971 C61.8813707,2.21233971 55.7981046,4.55189297 50.9933881,8.47413236 C54.6579933,12.0120586 57.4561568,16.4431521 58.9570628,21.4509827 L56.6388899,21.4515172 C55.1866244,16.9985087 52.6348704,13.0703897 49.3176971,9.91784571 C46.0203007,13.0618375 43.4920652,17.0054574 42.0435412,21.4376199 L39.7253684,21.4381544 C41.2203948,16.4581184 43.9699177,12.0211452 47.6067284,8.49390925 C42.8143056,4.61175817 36.7593686,2.21233971 30.1105903,2.21233971 C14.7033198,2.21233971 2.21233971,14.7033198 2.21233971,30.1111248 C2.21233971,45.5183952 14.7033198,58.0093753 30.1105903,58.0093753 C36.7593686,58.0093753 42.8143056,55.6099569 47.6067284,51.7278058 C43.9699177,48.2005698 41.2203948,43.7635966 39.7253684,38.7840951 L42.0435412,38.7840951 C43.4920652,43.2157232 46.0203007,47.159343 49.3176971,50.3038693 C52.6348704,47.1513253 55.1866244,43.2232063 56.6388899,38.7701978 L58.9570628,38.7707323 C57.4561568,43.7785629 54.6579933,48.2096565 50.9933881,51.7475827 C55.7981046,55.6692876 61.8813707,58.0093753 68.5675648,58.0093753 C83.9748352,58.0093753 96.4658154,45.5183952 96.4658154,30.1111248 Z M75.9619856,36.6471214 L77.8883621,26.3235821 L80.3241273,26.3235821 L80.5780199,27.3412904 C81.0141806,26.8319017 81.8506898,26.3235821 83.2682121,26.3235821 L82.5049309,29.0132398 C81.8143431,29.0132398 80.5058609,28.8320407 79.6698862,31.9209779 L78.7975648,36.6471214 L75.9619856,36.6471214 Z M38.6328286,23.7002036 L41.4400787,23.7002036 L40.8644107,26.4352948 L42.3754724,26.4352948 L41.8719633,28.6658079 L40.432526,28.6658079 L39.6409157,32.8398018 C39.4965978,33.6319466 39.5692913,34.3519325 41.1888587,34.100178 L41.008194,36.1869077 C40.3967138,36.5824456 39.5692913,36.6909513 38.9209298,36.6909513 C38.2736374,36.6909513 36.1494919,36.2948789 36.6904168,33.4881633 L38.6328286,23.7002036 Z M50.7966882,32.048726 C51.1206016,30.3933464 51.8763997,26.2909769 46.9466077,26.2909769 C42.4118191,26.2909769 41.8361511,30.7894188 41.7281799,31.4367113 C41.6202088,32.0850727 41.5480498,36.6551391 46.4062174,36.6551391 C47.5939002,36.6909513 49.3214387,36.5471679 50.0056124,36.1869077 L50.437497,34.0643658 C50.0056124,34.1718024 48.3855105,34.3155858 47.2694522,34.3155858 C46.1544629,34.3155858 44.3552999,34.3882792 44.6786789,32.048726 L50.7966882,32.048726 Z M44.858809,30.1774041 L48.3496983,30.1774041 C48.5298284,29.1698515 48.2059149,28.3060822 47.0903911,28.3060822 C45.9743328,28.3060822 45.1827225,28.8822847 44.858809,30.1774041 C44.858809,30.1774041 45.1827225,28.8822847 44.858809,30.1774041 Z M35.9704309,28.7379668 L36.6177233,26.6507026 C35.2857227,26.1471936 34.2428923,26.2546302 33.8462854,26.2546302 C33.4507475,26.2546302 30.0811922,26.2134729 29.5643203,28.7021546 C29.1687824,30.6092887 29.8673879,31.398761 30.5360608,31.6884658 C31.6157723,32.1561626 32.2277871,32.5885818 32.8034551,32.8761485 C33.5159578,33.2326672 33.3850027,34.423557 32.4431949,34.423557 C32.0113102,34.423557 30.1399883,34.6400338 28.7368978,34.1718024 L28.3413599,36.2948789 C29.6370138,36.6551391 30.6798441,36.6551391 31.6521191,36.6551391 C32.3352237,36.6551391 35.6823296,36.8352692 36.1494919,33.7399178 C36.3782625,32.2304596 35.7181418,31.5446824 35.178286,31.2213035 C34.6389648,30.8610433 33.7388488,30.3575342 33.1631808,30.1052452 C32.5875128,29.8534906 32.1550936,28.8822847 33.1995275,28.5941835 C33.8462854,28.52149 35.178286,28.52149 35.9704309,28.7379668 C35.9704309,28.7379668 35.178286,28.52149 35.9704309,28.7379668 Z M17.7607209,36.6551391 L20.1002742,24.2031782 L15.4938611,24.2031782 L12.0745963,31.7611592 L11.5347405,24.2031782 L7.03629862,24.2031782 L4.62565544,36.6551391 L7.43237104,36.6551391 L9.15937505,27.6582553 L9.91517315,36.6551391 L12.5786399,36.6551391 L16.5014138,27.8741976 L14.8460342,36.6551391 L17.7607209,36.6551391 Z M20.8555378,26.6148904 L20.4236532,28.845938 C21.1078268,28.7743136 22.942802,28.4862123 23.9145424,28.52149 C24.8862829,28.5578367 25.9659944,28.4140534 25.642081,29.9609273 C24.9220951,30.0336207 19.8837974,29.2414759 19.0927216,33.5597877 C18.7682736,35.6833986 20.6032488,36.7631102 22.042686,36.6909513 C23.4826578,36.6187923 23.8781957,36.4386622 24.3822393,36.079471 L24.743034,36.6551391 L27.369085,36.6551391 L28.4851433,31.0411734 C28.7732445,29.6380828 29.2404069,26.2546302 24.5260227,26.2546302 C23.6627879,26.2909769 22.6910475,26.2546302 20.8555378,26.6148904 C20.8555378,26.6148904 22.6910475,26.2546302 20.8555378,26.6148904 Z M25.1743841,32.048726 C24.7061528,31.9765671 23.6627879,31.6884658 22.7626719,32.3004805 C21.8625559,32.9124953 21.6113359,33.9916723 22.5472641,34.3519325 C23.4479146,34.6982954 24.7772427,34.1007125 24.9579073,33.1642498 L25.1743841,32.048726 Z M66.3429314,27.0820527 C65.6229455,26.6507026 65.1194364,26.5790782 64.1835082,26.5790782 C63.2481145,26.5790782 61.1608503,27.4733146 60.7647779,29.997274 C60.297081,32.9841197 62.3479985,34.4593692 65.2268731,33.4881633 L66.0548301,36.0067776 C65.1194364,36.4386622 64.1835082,36.6551391 62.6360998,36.6551391 C59.721413,36.6551391 56.5544372,34.0643658 57.9938745,28.8095913 C59.0548782,24.9375959 62.3848798,23.5200735 64.3272916,23.591698 C66.6304981,23.6766852 67.4589897,24.4549327 68.178441,25.2470776 L66.3429314,27.0820527 Z M90.2745781,27.5139374 C89.7341878,27.1183995 89.4108089,26.2909769 88.0788083,26.2909769 C86.5319343,26.2909769 84.1202221,26.0028757 82.7529438,30.6809132 C81.8394651,33.8083352 83.6883375,36.6551391 85.7034428,36.6551391 C86.6399055,36.6187923 87.5752992,36.2232544 88.1504327,35.8277165 L88.5112274,36.6551391 L91.5338853,36.6551391 L93.9808752,23.5558858 L91.0298417,23.5558858 L90.2745781,27.5139374 Z M89.2670255,31.7248125 C89.5551268,30.7894188 89.3974461,29.6209785 89.0868954,29.2061982 C88.2231261,28.0548622 86.237419,28.9651339 85.6318184,31.2213035 C85.236815,32.6960184 86.1000497,33.8120767 87.0717901,33.8120767 C88.1156895,33.8120767 88.7624474,32.9841197 89.2670255,31.7248125 Z M68.3580366,26.6148904 L67.926152,28.845938 C68.6103257,28.7743136 70.4453008,28.4862123 71.4170413,28.52149 C72.3893162,28.5578367 73.4684933,28.4140534 73.1440453,29.9609273 C72.4245939,30.0336207 67.3862962,29.2414759 66.5952204,33.5597877 C66.2707724,35.6833986 68.1062821,36.7631102 69.5457194,36.6909513 C70.9851566,36.6187923 71.3806945,36.4386622 71.8852726,36.079471 L72.2449983,36.6551391 L74.8715838,36.6551391 L75.9876421,31.0411734 C76.2757434,29.6380828 76.7429057,26.2546302 72.0285215,26.2546302 C71.1652867,26.2909769 70.1935463,26.2546302 68.3580366,26.6148904 C68.3580366,26.6148904 70.1935463,26.2546302 68.3580366,26.6148904 Z M72.6768829,32.048726 C72.2091861,31.9765671 71.1652867,31.6884658 70.2651707,32.3004805 C69.3655893,32.9124953 69.1138347,33.9916723 70.0497629,34.3519325 C70.950948,34.6982954 72.2797415,34.1007125 72.4609406,33.1642498 L72.6768829,32.048726 Z M50.8779338,36.6551391 L52.7845334,26.4352948 L55.1962456,26.4352948 L55.4474656,27.4428474 C55.8793502,26.9382694 56.7073073,26.4352948 58.1103978,26.4352948 L57.3904119,29.1335047 C56.7073073,29.1335047 55.3753067,28.9180969 54.5478841,31.9765671 L53.6841149,36.6551391 L50.8779338,36.6551391 Z" id="MasterCard" fill="#FFFFFF" sketch:type="MSShapeGroup"></path>
									    </g>
									</svg>
