<?xml version="1.0" encoding="UTF-8" standalone="no"?>
<svg width="156px" height="47px" viewBox="0 0 156 47" version="1.1" xmlns="http://www.w3.org/2000/svg" xmlns:xlink="http://www.w3.org/1999/xlink" xmlns:sketch="http://www.bohemiancoding.com/sketch/ns">
									    <g id="Page-1" stroke="none" stroke-width="1" fill="none" fill-rule="evenodd" sketch:type="MSPage">
									        <g id="pepsi-max" sketch:type="MSLayerGroup" fill="#FFFFFF">
									            <path d="M46.368,23.786 C46.368,36.574 36,46.939 23.213,46.939 C10.427,46.939 0.061,36.574 0.061,23.786 C0.061,10.999 10.427,0.633 23.213,0.633 C36,0.633 46.368,10.999 46.368,23.786 Z M36.349,6.313 L36.399,6.108 C32.721,3.361 28.157,1.735 23.213,1.735 C11.035,1.735 1.163,11.607 1.163,23.786 C1.163,28.79 2.833,33.404 5.641,37.105 L6.112,36.926 C21.14,31.653 31.755,22.002 36.349,6.313 Z M42.485,13.078 C42.485,13.078 42.466,13.068 42.44,13.083 C42.414,13.097 42.409,13.263 42.403,13.283 C42.505,14.229 42.555,15.132 42.555,15.991 C42.534,33.856 21.155,33.479 6.938,37.871 L6.395,38.038 C10.438,42.808 16.47,45.836 23.213,45.836 C35.393,45.836 45.265,35.964 45.265,23.786 C45.265,19.887 44.259,16.255 42.485,13.078 Z" id="Fill-1" sketch:type="MSShapeGroup"></path>
									            <path d="M153.02,10.265 C154.354,10.265 155.436,9.204 155.436,7.895 C155.436,6.587 154.354,5.526 153.02,5.526 C151.685,5.526 150.604,6.587 150.604,7.895 C150.604,9.204 151.685,10.265 153.02,10.265 L153.02,10.265 Z M154.822,12.001 L151.218,12.001 C151.106,12.001 151.018,12.09 151.018,12.199 L151.018,34.455 C151.018,34.566 151.106,34.653 151.218,34.653 L154.822,34.653 C154.932,34.653 155.021,34.566 155.021,34.455 L155.021,12.199 C155.021,12.09 154.932,12.001 154.822,12.001 L154.822,12.001 Z M145.31,23.516 C144.75,23.031 144.111,22.62 143.389,22.277 C142.665,21.937 141.932,21.627 141.192,21.351 C140.451,21.075 139.724,20.808 139.008,20.547 C138.294,20.29 137.657,19.996 137.1,19.67 C136.542,19.346 136.091,18.969 135.74,18.538 C135.393,18.108 135.218,17.576 135.218,16.944 C135.218,16.489 135.311,16.067 135.492,15.677 C135.675,15.286 135.945,14.951 136.303,14.666 C136.659,14.383 137.117,14.163 137.675,14.009 C138.232,13.854 138.878,13.777 139.61,13.777 C140.43,13.777 141.157,13.866 141.793,14.043 C142.429,14.224 142.982,14.415 143.454,14.617 C143.924,14.82 144.307,15.011 144.604,15.19 C144.899,15.369 145.126,15.457 145.284,15.457 C145.388,15.457 145.484,15.429 145.571,15.374 C145.657,15.315 146.444,13.028 146.418,12.848 C146.392,12.67 145.532,12.227 145.349,12.097 C145.165,11.966 144.895,11.815 144.537,11.646 C144.181,11.476 143.749,11.317 143.243,11.171 C142.738,11.024 142.173,10.904 141.545,10.805 C140.918,10.708 140.289,10.66 139.662,10.66 C138.232,10.66 136.983,10.838 135.91,11.196 C134.839,11.552 133.945,12.027 133.231,12.619 C132.516,13.213 131.98,13.903 131.624,14.689 C131.267,15.477 131.086,16.302 131.086,17.161 C131.086,18.137 131.258,18.972 131.599,19.67 C131.937,20.368 132.386,20.971 132.943,21.473 C133.502,21.977 134.134,22.405 134.839,22.752 C135.546,23.102 136.268,23.413 137.009,23.689 C137.749,23.966 138.47,24.229 139.166,24.48 C139.862,24.733 140.49,25.02 141.049,25.347 C141.606,25.672 142.055,26.043 142.395,26.465 C142.734,26.889 142.904,27.408 142.904,28.024 C142.904,28.627 142.786,29.145 142.551,29.583 C142.315,30.021 141.979,30.383 141.545,30.666 C141.108,30.951 140.595,31.166 140.003,31.312 C139.409,31.459 138.748,31.532 138.017,31.532 C137.039,31.532 136.177,31.422 135.426,31.201 C134.678,30.984 134.028,30.744 133.48,30.483 C132.932,30.227 132.469,29.985 132.095,29.766 C131.72,29.546 131.436,29.437 131.245,29.437 C131.123,29.437 131.013,29.466 130.918,29.521 C130.822,29.578 130.747,29.672 130.696,29.801 C130.644,29.934 130.556,31.994 130.644,32.286 C130.73,32.579 130.869,32.803 131.061,32.967 C131.254,33.129 131.558,33.314 131.976,33.516 C132.396,33.72 132.905,33.914 133.506,34.101 C134.107,34.288 134.787,34.441 135.546,34.563 C136.303,34.687 137.1,34.748 137.938,34.748 C139.296,34.748 140.542,34.592 141.677,34.284 C142.809,33.976 143.783,33.522 144.604,32.92 C145.422,32.318 146.055,31.58 146.498,30.703 C146.943,29.827 147.166,28.828 147.166,27.709 C147.166,26.766 146.995,25.955 146.656,25.271 C146.315,24.589 145.866,24.005 145.31,23.516 L145.31,23.516 Z M82.681,20.179 C83.625,16.928 86.528,14.47 90.101,14.274 C93.98,14.063 97.366,16.587 98.409,20.162 C93.192,20.655 87.869,19.195 82.681,20.179 L82.681,20.179 Z M102.474,21.743 L102.486,21.743 C102.469,21.45 102.437,21.164 102.399,20.879 C102.399,20.875 102.398,20.87 102.398,20.865 C102.377,20.725 102.36,20.584 102.336,20.444 C102.313,20.31 102.29,20.192 102.267,20.083 C101.111,14.354 95.902,10.189 89.894,10.517 C83.299,10.878 78.244,16.518 78.603,23.116 C78.964,29.709 84.604,34.764 91.2,34.405 C96.383,34.122 100.603,30.578 102.005,25.875 L97.883,26.1 C96.613,28.657 94.051,30.48 90.996,30.647 C86.863,30.874 83.289,27.994 82.514,24.048 C89.104,22.709 95.923,25.501 102.472,23.365 C102.472,23.365 102.517,22.732 102.486,21.948 C102.484,21.877 102.478,21.813 102.474,21.743 L102.474,21.743 Z M116.99,30.658 C112.575,30.658 108.984,27.165 108.81,22.794 L108.81,22.65 L108.802,22.65 C108.8,22.586 108.793,22.524 108.793,22.461 C108.793,17.933 112.462,14.262 116.99,14.262 C121.52,14.262 125.188,17.933 125.188,22.461 C125.188,26.989 121.52,30.658 116.99,30.658 L116.99,30.658 Z M116.99,10.5 C110.386,10.5 105.029,15.854 105.029,22.461 C105.029,22.524 105.033,22.588 105.034,22.65 L105.029,22.65 L105.029,44.465 L108.81,44.465 L108.81,31.183 C110.949,33.191 113.826,34.421 116.99,34.421 C123.598,34.421 128.952,29.066 128.952,22.461 C128.952,15.854 123.598,10.5 116.99,10.5 L116.99,10.5 Z M64.105,30.658 C59.69,30.658 56.1,27.165 55.923,22.794 L55.923,22.65 L55.916,22.65 C55.915,22.586 55.907,22.524 55.907,22.461 C55.907,17.933 59.577,14.262 64.105,14.262 C68.633,14.262 72.304,17.933 72.304,22.461 C72.304,26.989 68.633,30.658 64.105,30.658 L64.105,30.658 Z M64.105,10.5 C57.499,10.5 52.143,15.854 52.143,22.461 C52.143,22.524 52.147,22.588 52.147,22.65 L52.143,22.65 L52.143,44.465 L55.923,44.465 L55.923,31.183 C58.063,33.191 60.94,34.421 64.105,34.421 C70.711,34.421 76.066,29.066 76.066,22.461 C76.066,15.854 70.711,10.5 64.105,10.5 L64.105,10.5 Z" id="Fill-6" sketch:type="MSShapeGroup"></path>
									        </g>
									    </g>
									</svg>
