<?xml version="1.0" encoding="UTF-8" standalone="no"?>
<svg width="140px" height="37px" viewBox="0 0 140 37" version="1.1" xmlns="http://www.w3.org/2000/svg" xmlns:xlink="http://www.w3.org/1999/xlink" xmlns:sketch="http://www.bohemiancoding.com/sketch/ns">
									    <g id="Page-1" stroke="none" stroke-width="1" fill="none" fill-rule="evenodd" sketch:type="MSPage">
									        <g id="Gopro-" sketch:type="MSLayerGroup" fill="#FFFFFF">
									            <path d="M29.8133405,14.399589 L29.8133405,12.6035888 L29.8133405,10.5870272 C29.8133405,9.96315349 29.3028984,9.45271133 28.6790246,9.45271133 L19.4700599,9.45271133 C18.6027809,9.45271133 17.8998726,10.1579827 17.8998726,11.0281501 C17.8998726,11.8983174 18.6027809,12.6035888 19.4700599,12.6035888 L25.4808839,12.6035888 L25.4808839,14.194782 C25.4808839,15.4425295 23.8831265,16.4634138 21.9301075,16.4634138 L7.81522654,16.4634138 C5.86220762,16.4634138 4.26445015,15.4425295 4.26445015,14.194782 L4.26445015,5.18327229 C4.26445015,3.93552479 5.86220762,2.91464048 7.81522654,2.91464048 L14.6024793,2.91464048 C15.3959753,2.91464048 16.0392794,2.26923573 16.0392794,1.47311401 C16.0392794,0.676992292 15.3959753,0.0315875471 14.6024793,0.0315875471 L7.37935515,0.0315875471 C3.32076233,0.0315875471 0,2.15842987 0,4.75790383 L0,14.399589 C0,16.999063 3.32076233,19.1259053 7.37935515,19.1259053 L22.4337228,19.1259053 C26.4925782,19.1259053 29.8133405,16.999063 29.8133405,14.399589 Z M38.2918268,14.2813786 L38.2918268,9.05092193 C38.2918268,7.80317443 40.1547831,6.78229012 42.4320798,6.78229012 L51.9886914,6.78229012 C54.2657255,6.78229012 56.1289444,7.80317443 56.1289444,9.05092193 L56.1289444,14.2813786 C56.1289444,15.5291261 54.2657255,16.5500104 51.9886914,16.5500104 L42.4320798,16.5500104 C40.1547831,16.5500104 38.2918268,15.5291261 38.2918268,14.2813786 Z M34.2012,9.01941316 L34.2012,14.3128874 C34.2012,17.0163403 38.0064098,19.2282563 42.657105,19.2282563 L51.7636662,19.2282563 C56.4143614,19.2282563 60.2195712,17.0163403 60.2195712,14.3128874 L60.2195712,9.01941316 C60.2195712,6.31596024 56.4143614,4.10404423 51.7636662,4.10404423 L42.657105,4.10404423 C38.0064098,4.10404423 34.2012,6.31596024 34.2012,9.01941316 Z M68.9236602,9.45263256 L68.9236602,2.67824589 L78.5272723,2.67824589 L86.7757445,2.67824589 C88.8272284,2.67824589 90.5050707,3.6269226 90.5050707,4.78644553 L90.5050707,7.34443292 C90.5050707,8.50395585 88.8272284,9.45263256 86.7757445,9.45263256 L78.5272723,9.45263256 L68.9236602,9.45263256 Z M64.5124317,2.99333364 L64.5124317,17.9757562 C64.5124317,18.703609 65.1079476,19.2991248 65.8358003,19.2991248 L67.6002917,19.2991248 C68.3278818,19.2991248 68.9236602,18.703609 68.9236602,17.9757562 L68.9236602,12.4459662 L72.7832226,12.4459662 L78.5272723,12.4459662 L86.0941047,12.4459662 C90.8763491,12.4459662 94.7892138,10.2343128 94.7892138,7.53059727 L94.7892138,4.91536893 C94.7892138,2.21191602 90.8763491,0 86.0941047,0 L72.7832226,0 L65.8358003,0 C65.107685,0 64.5124317,0.595515851 64.5124317,1.32336856 L64.5124317,2.99333364 Z M98.4790227,9.01941316 L98.4790227,12.6823083 L98.4790227,14.3128874 L98.4790227,17.8972731 C98.4790227,18.6248633 99.0748011,19.2203791 99.8023912,19.2203791 L101.246281,19.2203791 C101.974396,19.2203791 102.569649,18.6248633 102.569649,17.8972731 L102.569649,14.2813786 L102.569649,12.6823083 L102.569649,9.05092193 C102.569649,7.80317443 104.432868,6.78229012 106.709902,6.78229012 L109.741572,6.78202754 C110.482816,6.78202754 111.083583,6.1825731 111.083583,5.4429046 C111.083583,4.70349867 110.482816,4.10404423 109.741572,4.10404423 L106.93519,4.10404423 C102.284232,4.10404423 98.4790227,6.31596024 98.4790227,9.01941316 Z M118.071993,14.2813786 L118.071993,9.05092193 C118.071993,7.80317443 119.935212,6.78229012 122.212246,6.78229012 L131.768858,6.78229012 C134.046154,6.78229012 135.909111,7.80317443 135.909111,9.05092193 L135.909111,14.2813786 C135.909111,15.5291261 134.046154,16.5500104 131.768858,16.5500104 L122.212246,16.5500104 C119.935212,16.5500104 118.071993,15.5291261 118.071993,14.2813786 Z M113.981366,9.01941316 L113.981366,14.3128874 C113.981366,17.0163403 117.786576,19.2282563 122.437534,19.2282563 L131.543832,19.2282563 C136.19479,19.2282563 140,17.0163403 140,14.3128874 L140,9.01941316 C140,6.31596024 136.19479,4.10404423 131.543832,4.10404423 L122.437534,4.10404423 C117.786576,4.10404423 113.981366,6.31596024 113.981366,9.01941316 M122.610753,36.9656224 L139.783036,36.9656224 L139.783036,24.3621123 L122.610753,24.3621123 L122.610753,36.9656224 Z M101.437119,36.9656224 L118.609139,36.9656224 L118.609139,24.3621123 L101.437119,24.3621123 L101.437119,36.9656224 Z M80.6413274,36.9656224 L97.8136098,36.9656224 L97.8136098,24.3621123 L80.6413274,24.3621123 L80.6413274,36.9656224 Z M76.6394503,24.3621123 L59.4671679,24.3621123 L59.4671679,36.9656224 L76.6394503,36.9656224 L76.6394503,24.3621123 Z" id="Gopro" sketch:type="MSShapeGroup"></path>
									            <text id="Be-a-HERO." sketch:type="MSTextLayer" font-family="Helvetica" font-size="9" font-weight="bold" line-spacing="15" letter-spacing="0.11999999">
									                <tspan x="0" y="30">Be a </tspan>
									                <tspan x="22.1112304" y="30" font-style="italic">HERO.</tspan>
									            </text>
									        </g>
									    </g>
									</svg>
