<?xml version="1.0" encoding="UTF-8" standalone="no"?>
<svg width="90px" height="53px" viewBox="0 0 90 53" version="1.1" xmlns="http://www.w3.org/2000/svg" xmlns:xlink="http://www.w3.org/1999/xlink" xmlns:sketch="http://www.bohemiancoding.com/sketch/ns">
									    <g id="Page-1" stroke="none" stroke-width="1" fill="none" fill-rule="evenodd" sketch:type="MSPage">
									        <path d="M36.0107222,52.5855053 L36.0107222,45.4589349 L32.123502,42.2195848 L32.123502,52.5855053 L36.0107222,52.5855053 Z M42.4894226,45.6748376 L46.4846752,42.2195848 L46.4846752,44.8110649 L45.8368051,45.6748376 L42.4894226,45.6748376 Z M32.123502,0 L39.3851533,7.3424731 L41.9495849,4.42705793 L41.3017149,3.67131753 L32.123502,0 Z M80.8219491,0 L85.4649097,2.80738284 L85.4649097,13.6052708 L80.8219491,19.3280688 L80.8219491,0 Z M85.4649097,23.4313537 L85.4649097,52.5855053 L80.8219491,52.5855053 L80.8219491,30.9897295 L85.4649097,23.4313537 Z M86.8307817,52.6873829 L86.8307817,51.0328848 L86.2397623,51.0328848 L86.2397623,50.6958304 L87.8225088,50.6958304 L87.8225088,51.0328848 L87.2327851,51.0328848 L87.2327851,52.6873829 L86.8307817,52.6873829 Z M88.0764739,52.6873829 L88.0764739,50.6958304 L88.6781832,50.6958304 L89.0395327,52.0542519 L89.396833,50.6958304 L90,50.6958304 L90,52.6873829 L89.626341,52.6873829 L89.626341,51.1198614 L89.2311402,52.6873829 L88.8438759,52.6873829 L88.4501329,51.1198614 L88.4501329,52.6873829 L88.0764739,52.6873829 Z M48.6443499,52.5855053 L48.6443499,37.7923649 L39.4661371,45.1889351 L30.1798919,37.7923649 L30.1798919,52.5855053 L0,52.5855053 L0,0 L29.2080869,0 L39.2500724,10.5818233 L49.5081227,0 L78.7703067,0 L78.7703067,22.567419 L72.183574,35.7408844 C71.7516066,36.6046571 70.6717692,36.7126894 70.4558666,35.7408844 C70.2399639,34.7690793 69.3761911,25.2669315 68.0804511,24.7270937 C66.784711,24.1870941 64.2578559,23.3076105 63.1133935,25.0510288 C61.9525723,26.8190661 61.495338,26.5685024 62.4655234,30.1259567 C63.4373285,33.6892419 69.2681588,47.7264801 69.2681588,47.7264801 C69.2681588,47.7264801 69.3374809,48.3681953 70.6163764,48.5763236 C72.278001,48.8466474 74.0193137,48.9141878 74.5591514,47.7264801 C75.0989891,46.5386104 78.7703067,35.7408844 78.7703067,35.7408844 L78.7703067,52.5855053 L60.413881,52.5855053 L59.4420759,23.8631591 C59.4420759,23.8631591 68.5122564,19.0041338 68.8361915,17.6005233 C69.1601265,16.1967509 67.3247107,13.8211735 65.8129059,14.6851082 C64.3011012,15.5488809 57.6064981,19.5441334 57.6064981,19.5441334 C57.6064981,19.5441334 56.8507577,19.6520038 56.0948554,19.5441334 C55.338953,19.4361011 52.7476348,19.0041338 52.5315702,20.6238089 C52.3155055,22.243484 52.3155055,23.1074187 52.3155055,23.1074187 C52.3155055,23.1074187 48.3204149,25.9148015 45.5128701,27.4264443 C42.7054873,28.938249 39.9520396,29.6939894 39.3851533,30.3418594 C38.8182671,30.9897295 38.3323645,32.3935019 39.3851533,33.5812096 C40.4379421,34.7690793 41.3017149,35.5248197 43.0294223,34.5530147 C44.7569678,33.5812096 50.7189918,28.8938699 51.3437005,28.7221843 C52.0362735,28.5320345 53.2873106,27.5344766 53.6112456,29.6939894 C53.9351806,31.8536642 53.3953429,52.5855053 53.3953429,52.5855053 L48.6443499,52.5855053 Z" id="MTV" fill="#FFFFFF" sketch:type="MSShapeGroup"></path>
									    </g>
									</svg>
