<?xml version="1.0" encoding="UTF-8" standalone="no"?>
<svg version="1.1" xmlns="http://www.w3.org/2000/svg" xmlns:xlink="http://www.w3.org/1999/xlink" xmlns:sketch="http://www.bohemiancoding.com/sketch/ns">

    <!-- Generator: Sketch 3.4.4 (17249) - http://www.bohemiancoding.com/sketch -->
    <title>Untitled 3</title>
    <desc>Created with Sketch.</desc>
    <defs></defs>
    <g id="Page-1" stroke="none" stroke-width="1" fill="none" fill-rule="evenodd" sketch:type="MSPage">
        <path d="M0,19.6551724 C0,8.79992043 8.79525333,0 19.6500778,0 C30.502516,0 39.3001555,8.79753366 39.3001555,19.6551724 C39.3001555,30.5104244 30.5049022,39.3103448 19.6500778,39.3103448 C8.79763948,39.3103448 0,30.5128112 0,19.6551724 Z M25.9935956,27.7887192 C25.3441089,28.3272414 24.6021337,28.8945813 23.9139378,29.5208867 C18.6898243,34.2749261 9.94701711,32.6940887 6.74730482,26.389064 C4.68936547,22.3340394 4.53644946,18.1700985 6.25309798,13.9712808 C8.37973872,8.76990148 14.2376781,5.86300493 19.4411073,7.40423645 C21.8697387,8.12364532 23.5064572,9.81310345 24.7386501,11.9513793 C24.834832,12.1183744 24.9336734,12.2838916 25.151154,12.6540887 C25.3169238,11.963202 25.4482691,11.4625123 25.5561229,10.956798 C25.7614883,9.99399015 25.925042,9.021133 26.1708896,8.06926108 C26.2322037,7.83147783 26.5368538,7.48551724 26.736014,7.48123153 C28.6549253,7.43970443 30.5751664,7.45995074 32.495112,7.4673399 C32.561154,7.46763547 32.6270482,7.51921182 32.7891244,7.58719212 C32.5624837,8.42541872 32.3450031,9.27192118 32.1044743,10.1117734 C30.9058196,14.2984729 29.6991866,18.4828079 28.4994977,22.6692118 C28.210804,23.6770936 29.2295054,25.600197 30.2282613,25.9544335 C31.0285956,26.2381773 31.6303608,25.9659606 31.8788678,25.0933005 C32.0178958,24.6053202 32.2601975,24.4668473 32.7148087,24.4856158 C33.255703,24.5076355 33.8026547,24.4557635 34.3369005,24.5196059 C34.5269005,24.5423645 34.8485412,24.8233005 34.8370171,24.9642857 C34.716014,26.4527586 34.6846921,27.9715271 34.3383779,29.4121182 C33.9831991,30.8895074 32.8463017,31.7442857 31.3127092,31.9718719 C29.7367138,32.2058128 28.403168,31.6853202 27.475182,30.4285714 C26.8280591,29.5523645 26.3942799,28.5184729 25.9935956,27.7887192 Z M12.0280047,19.6061084 C12.1423593,20.804335 12.207958,22.0100985 12.3879114,23.1984236 C12.5121649,24.0196552 12.7382146,24.8371921 13.019521,25.6201478 C13.415182,26.7212808 14.0113328,27.7204433 15.0182146,28.3844335 C17.1385023,29.7827586 19.8605552,29.1774384 21.1550964,26.79 C22.0105397,25.2125616 22.5124292,23.4319212 23.0709051,21.7092118 C23.3708274,20.7842365 23.7274837,19.7472414 23.5844666,18.8349754 C23.2340156,16.5975369 22.5412395,14.4240887 21.2301509,12.5218227 C19.1391166,9.48783251 15.4079658,9.63916256 13.5712006,12.8265517 C12.3623515,14.9240394 12.1153219,17.2368473 12.0280047,19.6061084 Z M190,34.441803 C189.585428,34.4154975 189.171151,34.367468 188.756579,34.3661379 C185.977644,34.3581576 183.198857,34.3661379 180.42007,34.3553498 C179.421314,34.3513596 179.2093,34.1357438 179.206788,33.1330345 C179.199253,29.9107685 179.19881,26.6885025 179.206345,23.4660887 C179.208857,22.4589458 179.467115,22.2044631 180.483896,22.1998818 C183.65598,22.1855468 186.827916,22.1828867 190,22.1757931 L190,22.7669261 C189.90958,22.99067 189.794635,23.2079113 189.732729,23.4391921 C189.437092,24.5429852 189.25832,24.6888473 188.088476,24.6916552 C186.66126,24.6950542 185.233748,24.6799803 183.80668,24.6938719 C181.73633,24.7136749 182.123274,24.4294877 182.05147,26.457665 C182.029456,27.0810148 182.301897,27.2004236 182.841462,27.1927389 C184.41598,27.1705714 185.991236,27.1847586 187.566198,27.1847586 C189.142488,27.1847586 189.122838,27.1846108 189.11161,28.7568768 C189.107916,29.2670246 188.952193,29.4459901 188.435677,29.4374187 C186.861159,29.4112611 185.285754,29.4124433 183.711089,29.4300296 C181.82276,29.4510148 182.105249,29.1227882 182.05339,31.1384039 C182.037286,31.7602759 182.259642,31.9398325 182.863624,31.9293399 C184.70881,31.8969754 186.555031,31.93067 188.400365,31.9110148 C189.069059,31.904069 189.46472,32.1734778 189.634922,32.8219507 C189.726967,33.1726404 189.876485,33.5082562 190,33.85067 L190,34.441803 Z M99.2616586,14.4660148 C101.990656,14.9096601 103.448898,13.6768522 103.43826,11.0386256 C103.437965,10.9648818 103.434715,10.8909901 103.432351,10.8172463 C103.360842,8.53606404 101.984155,7.33177833 99.7189292,7.60192611 C99.5525684,7.62172906 99.2832294,7.86823153 99.281161,8.0123202 C99.2527939,10.1497094 99.2616586,12.2878374 99.2616586,14.4660148 Z M96.3339448,11.1132562 C96.3339448,10.1291675 96.3507877,9.14448768 96.319318,8.1614335 C96.3131128,7.97064532 96.1554689,7.66296059 96.0046213,7.61744335 C94.4259666,7.13980788 92.6056011,8.15980788 92.3000645,9.79621182 C91.7256322,12.8711379 92.7824518,14.7197586 95.7803445,14.5650296 C96.1857566,14.5440443 96.3496058,14.4043892 96.3417753,13.9914828 C96.3236026,13.0323695 96.3360132,12.072665 96.3339448,11.1132562 M99.3408499,17.1476897 C99.1187893,18.5232562 98.9834549,18.6354236 97.686993,18.6370493 C97.5147224,18.637197 97.3396446,18.6163596 97.1709199,18.6400049 C96.5446291,18.7274926 96.2306711,18.5114335 96.334388,17.8379852 C96.4214098,17.2721232 96.14557,17.1210887 95.6123585,17.1466552 C93.8497613,17.2308916 92.2439215,16.8139951 90.9416975,15.5443892 C89.3018764,13.9459655 88.7401501,10.8778374 89.6610443,8.59074384 C90.5829728,6.30099015 92.4831205,5.04808374 95.084318,5.01512808 C95.3057877,5.0123202 95.5279961,4.99709852 95.7484316,5.01025123 C96.1343414,5.03330542 96.3172496,4.90281281 96.3556633,4.47837931 C96.4129883,3.84438916 96.7959432,3.53138424 97.4587271,3.56123645 C98.0189759,3.58650739 98.5814409,3.56655665 99.2025607,3.56655665 C99.2408266,4.05764039 99.2743647,4.48517734 99.3148468,5.0016798 C101.553921,4.90931527 103.639785,5.24049754 105.099652,7.12931527 C106.074474,8.39064532 106.423595,9.87261576 106.335982,11.4363103 C106.236107,13.2200542 105.643649,14.808133 104.179645,15.9506453 C102.761293,17.0575419 101.088525,17.2453744 99.3408499,17.1476897 Z M129.468719,24.645532 L129.468719,24.6399163 C129.124473,24.6399163 128.780079,24.6325271 128.436129,24.6412463 C126.304465,24.695335 126.630981,24.2194729 126.601137,26.6107537 C126.595375,27.0727241 126.809162,27.2024778 127.231565,27.1984877 C128.706798,27.1845961 130.182327,27.2021823 131.657264,27.1840049 C132.457747,27.1739557 132.972047,26.6383892 132.954317,25.8940049 C132.936883,25.1683892 132.445779,24.6709507 131.681495,24.6499655 C130.944395,24.6295714 130.206261,24.645532 129.468719,24.645532 Z M129.538454,31.9359754 C130.301705,31.9359754 131.065103,31.9420345 131.828353,31.9343498 C132.727677,31.925335 133.136782,31.5468621 133.156728,30.7241527 C133.176969,29.8890296 132.719255,29.4280936 131.822148,29.4181921 C130.689683,29.4054828 129.556922,29.4147931 128.424309,29.4147931 C126.454722,29.4146453 126.465359,29.4140542 126.594636,31.3869606 C126.621526,31.7982414 126.769271,31.9513448 127.17483,31.9420345 C127.962311,31.9240049 128.75053,31.9367143 129.538454,31.9359754 M123.791767,28.2783399 C123.791914,26.6550887 123.784379,25.0318374 123.795017,23.408734 C123.800779,22.5159754 124.09819,22.2091773 124.995002,22.2041527 C127.281502,22.1912956 129.56889,22.1657291 131.854652,22.2088818 C134.209558,22.2533645 135.845981,23.8166158 135.741821,25.9343498 C135.713306,26.5182414 135.440569,27.1101133 135.188073,27.6557291 C135.030429,27.9963695 134.988026,28.1844975 135.279232,28.4768128 C136.355997,29.5581429 136.36693,30.8757783 135.86046,32.1793744 C135.358275,33.4715911 134.322731,34.2660739 132.924916,34.3039064 C130.197988,34.3779458 127.468104,34.3485369 124.739403,34.3500148 C124.000087,34.3504581 123.787334,33.8756305 123.789698,33.2216897 C123.795608,31.5739064 123.791471,29.9261232 123.791767,28.2783399 Z M168.1906,22.1973547 L168.1906,30.0303103 C168.25546,30.054399 168.320616,30.0784877 168.385624,30.1025764 C168.865056,29.4428719 169.352023,28.7886355 169.822443,28.1224286 C170.900538,26.595532 172.003011,25.0845961 173.031611,23.5248916 C173.666323,22.5626749 174.473011,22.0939064 175.623353,22.1902611 C176.036743,22.2248424 176.4556,22.1957291 176.942715,22.1957291 L176.942715,34.3424778 C176.135437,34.3424778 175.310281,34.3783892 174.494138,34.3083399 C174.352747,34.2962217 174.148711,33.8370591 174.144869,33.5818374 C174.1134,31.4902611 174.123594,29.3979458 174.117832,27.3059261 C174.117093,27.065335 174.095227,26.8247438 174.072031,26.357601 C173.788065,26.7093251 173.620079,26.8953842 173.476471,27.0984384 C172.013501,29.1663695 170.536495,31.2248424 169.104255,33.3140542 C168.608866,34.0364187 167.991145,34.3596207 167.129348,34.3674532 C165.282537,34.3838571 165.284162,34.4008522 165.285048,32.5894729 C165.286378,29.4143498 165.301005,26.2392266 165.273524,23.064399 C165.26791,22.4061724 165.43102,22.1179951 166.137537,22.1849409 C166.766191,22.2443498 167.404893,22.1973547 168.1906,22.1973547 Z M115.728882,24.3700197 C113.436767,24.3389852 112.071603,25.7509064 112.024916,28.2010049 C111.977638,30.672532 113.305865,32.2057833 115.525142,32.2416946 C117.903687,32.2801182 119.271362,30.8676059 119.310072,28.332532 C119.347303,25.9031232 117.989379,24.4006108 115.728882,24.3700197 Z M115.835701,21.9672118 C117.868524,21.8588867 119.777832,22.4554877 121.101922,24.2463251 C122.662257,26.3562266 122.837334,28.7056847 121.842272,31.0978522 C120.923742,33.305734 119.134403,34.3943054 116.80476,34.6298719 C115.118104,34.8004138 113.441495,34.7330246 111.936712,33.8467685 C109.604558,32.4732709 108.776152,30.3067685 108.945173,27.7131724 C109.156152,24.4746502 111.485647,21.7544039 115.835701,21.9672118 Z M56.9539479,11.8933005 C56.6781081,10.6637438 56.4650599,9.55980296 56.1750365,8.47669951 C55.9882869,7.77990148 55.4804876,7.34334975 54.7392512,7.29206897 C54.1172449,7.24906404 53.4614051,7.4135468 53.2514596,8.02300493 C52.8262496,9.25729064 52.5405109,10.5396059 52.1724782,11.8933005 L56.9539479,11.8933005 Z M60.9952154,17.1391626 C60.2594456,17.1391626 59.5239712,17.2542857 58.8542434,17.0940887 C58.47971,17.0043842 58.0568639,16.5090148 57.9275871,16.10867 C57.3892045,14.4410837 57.427175,14.4291133 55.6591112,14.4292611 C54.5513196,14.4292611 53.4430848,14.4428571 52.3357364,14.4202463 C51.8693056,14.4107882 51.6237535,14.5405419 51.5336291,15.0444828 C51.0949743,17.4997537 50.726203,17.1311823 48.7196788,17.1533498 C48.5545,17.1552709 48.3888779,17.1150739 48.151304,17.0853695 C48.3676026,16.0870936 48.5692745,15.1284236 48.7833569,14.1724138 C49.2564362,12.0602956 49.7043989,9.94197044 50.2222449,7.84093596 C50.6687302,6.0291133 51.98957,4.93300493 53.8415529,4.76674877 C55.4626104,4.62133005 57.1018406,4.7144335 58.1202465,6.15871921 C58.7045778,6.9873399 59.0006586,8.06453202 59.2527115,9.07330049 C59.8784114,11.577931 60.4054176,14.1070936 60.9672916,16.6275369 C60.998318,16.7667488 60.9842823,16.9158621 60.9952154,17.1391626 Z M110.669194,11.8660936 L115.418603,11.8660936 C115.145865,10.6721527 114.924987,9.570133 114.635407,8.48658621 C114.439349,7.75269458 113.911604,7.32323645 113.135057,7.28865517 C112.467988,7.25909852 111.849233,7.50663547 111.642981,8.14757143 C111.257071,9.34624138 110.996744,10.5854039 110.669194,11.8660936 Z M119.456915,17.1449113 C118.703416,17.1449113 118.041223,17.1771281 117.38361,17.1357488 C116.740181,17.0952562 116.481628,16.6086059 116.33078,16.055601 C115.887545,14.4298374 115.88917,14.4293941 114.208276,14.4292463 C113.075663,14.4292463 111.942903,14.4419557 110.810733,14.4224483 C110.354497,14.4147635 110.099637,14.5208719 110.001386,15.0348621 C109.530376,17.5040246 109.243455,17.1329409 107.194085,17.1559951 C107.026542,17.1579163 106.858556,17.1302808 106.601184,17.109 C106.944248,15.559936 107.273276,14.0550591 107.611907,12.5522512 C107.979349,10.9210197 108.316355,9.2816601 108.740531,7.6652069 C109.112257,6.249 110.062405,5.34471429 111.475438,4.92486207 C113.767405,4.24372906 116.238587,5.02860591 117.064777,6.85816256 C117.503875,7.83028079 117.688851,8.92402463 117.932187,9.97579803 C118.436884,12.1561921 118.90494,14.3451576 119.384077,16.5313153 C119.419979,16.6952069 119.424855,16.8658966 119.456915,17.1449113 Z M145.869855,29.1214581 C145.534327,27.8125419 145.273114,26.553133 144.874054,25.3390936 C144.679031,24.746335 144.084653,24.5066305 143.433246,24.5203744 C142.778588,24.5339704 142.225135,24.8104729 142.036613,25.4126897 C141.666807,26.5928867 141.413129,27.8094384 141.083658,29.1214581 L145.869855,29.1214581 Z M137.022888,34.3046601 C137.599241,31.7115074 138.151659,29.2170739 138.709692,26.7239704 C138.854925,26.0759409 138.97977,25.4196355 139.180998,24.7884532 C139.596457,23.4841182 140.449832,22.5136256 141.786481,22.2111133 C142.7254,21.9987488 143.749568,21.954266 144.705477,22.0745616 C146.320625,22.2777635 147.398129,23.281803 147.787437,24.8664828 C148.420967,27.4447094 148.973533,30.0430345 149.559933,32.632936 C149.678868,33.158601 149.79603,33.6847094 149.934614,34.3025911 C149.10414,34.3025911 148.313261,34.3970246 147.566263,34.2570739 C147.257033,34.1991429 146.920174,33.6770246 146.804194,33.3015074 C146.2961,31.6556453 146.323728,31.6470739 144.595851,31.6467783 C143.463238,31.6466305 142.329886,31.6686502 141.19816,31.6370246 C140.703362,31.623133 140.470073,31.8176158 140.402554,32.2825419 C140.064365,34.6136749 139.648168,34.3526897 137.656566,34.3617044 C137.489762,34.3624433 137.32281,34.3327389 137.022888,34.3046601 Z M91.9883966,29.188197 C91.6895086,27.9271626 91.4622768,26.8238128 91.1604339,25.7415961 C90.9224168,24.8890345 90.3439953,24.5005123 89.5324323,24.519133 C88.7730233,24.5364236 88.2008072,24.9564236 87.9846563,25.7606601 C87.7296485,26.7101675 87.5189642,27.6734187 87.3431477,28.6406601 C87.314633,28.7970148 87.5624012,29.1605616 87.6899051,29.1642562 C89.0597963,29.2028276 90.4311649,29.188197 91.9883966,29.188197 Z M83.1192675,34.3091823 C83.3920047,33.1053399 83.6504106,31.9855862 83.8992131,30.8637635 C84.3087621,29.0167685 84.6881711,27.1628276 85.1241664,25.3221872 C85.6220669,23.2204138 86.9825023,22.1152906 89.1487387,21.9805123 C91.6018958,21.8278522 93.0799362,22.6548473 93.8298896,24.5998227 C93.8564837,24.6685419 93.8951928,24.7343054 93.911297,24.8052414 C94.6189953,27.941202 95.3246252,31.0774581 96.0484277,34.2929261 C95.2036221,34.2929261 94.4127434,34.3968177 93.6744619,34.2451921 C93.3504572,34.1786897 93.0062115,33.6287882 92.890084,33.2339113 C92.4263126,31.6561773 92.4582255,31.6467192 90.7873779,31.6467192 C89.6312737,31.6467192 88.4745785,31.6674089 87.3192131,31.6369655 C86.8368258,31.6242562 86.6017636,31.7828276 86.5123779,32.2632709 C86.1041586,34.4571133 86.0678134,34.3740591 83.7836765,34.3558818 C83.6146563,34.3545517 83.4457838,34.3328276 83.1192675,34.3091823 Z M76.8247714,24.8661872 L76.8247714,24.8576158 C76.2346781,24.8576158 75.6436983,24.876532 75.0546392,24.8517044 C74.5626485,24.8310148 74.3309844,24.9949064 74.350339,25.522936 C74.3807745,26.3582069 74.3819565,27.1956946 74.3587605,28.0312611 C74.3457589,28.4955961 74.5596936,28.6337734 74.9773686,28.6302266 C76.1820809,28.6200296 77.3881229,28.6529852 78.5915054,28.6114581 C79.6879207,28.5737734 80.3564666,27.830867 80.3583872,26.7476158 C80.3604557,25.6714581 79.6823064,24.9325419 78.5947558,24.8720985 C78.0065832,24.8392906 77.4148647,24.8661872 76.8247714,24.8661872 Z M71.4960544,28.4879113 C71.4960544,26.765202 71.507874,25.0423448 71.4899969,23.3197833 C71.4832006,22.6655468 71.7588927,22.2216059 72.4037994,22.2219015 C74.8121897,22.222936 77.230479,22.1558424 79.6254246,22.3523941 C81.6864666,22.5214581 83.3075241,24.6582562 83.2490171,26.7349064 C83.1782473,29.2506207 81.8145614,30.950867 79.5076719,31.1862857 C78.0455879,31.3355468 76.5613421,31.2925419 75.0871431,31.2864828 C74.5463966,31.284266 74.3255179,31.4382562 74.3605334,31.9948079 C74.3959922,32.5584532 74.3408834,33.1275665 74.3707278,33.6919507 C74.3983561,34.2152512 74.1746703,34.3569754 73.6767698,34.3683547 C71.4914743,34.4181576 71.4917698,34.4314581 71.4917698,32.253133 L71.4917698,28.4879113 L71.4960544,28.4879113 Z M81.764993,10.7851478 L81.764993,10.7818966 C81.1025047,10.7818966 80.4395731,10.7920936 79.7773802,10.7779064 C79.4035855,10.7697783 79.2415093,10.9242118 79.2459417,11.2978079 C79.2568748,12.205936 79.2292465,13.1155419 79.2797753,14.0210099 C79.2893787,14.1962808 79.579993,14.4953941 79.747388,14.4998276 C81.0711827,14.5351478 82.3995575,14.5655911 83.7203974,14.490665 C84.6913771,14.4355419 85.3395342,13.5161823 85.2630023,12.5053448 C85.1821858,11.4373153 84.5589977,10.8114532 83.5318748,10.7876601 C82.9432589,10.7739163 82.3539044,10.7851478 81.764993,10.7851478 Z M76.399783,10.8704187 C76.3988966,9.19573892 76.4215016,7.52046798 76.387077,5.84637931 C76.3742232,5.22761084 76.5175358,4.89761084 77.2005607,5.00830049 C77.3685467,5.03549261 77.5446586,5.01288177 77.717077,5.01302956 C79.2537722,5.01465517 79.2525902,5.01465517 79.2525902,6.58884236 C79.2524425,8.33238916 79.0726369,8.10096059 80.7926835,8.11810345 C81.8759495,8.12889163 82.9608406,8.09697044 84.0420381,8.14721675 C86.5458717,8.26366995 88.0943865,9.99214286 88.1153663,12.6430788 C88.1344253,15.0430788 86.3583834,17.057069 84.0288888,17.1334729 C81.815374,17.2058867 79.5974269,17.1597783 77.3815482,17.1452956 C76.6745886,17.1405665 76.4087955,16.8080542 76.4036244,15.9686453 C76.3931345,14.2692857 76.400374,12.5699261 76.399783,10.8704187 Z M61.9065801,14.6294631 C63.4103281,14.4432562 63.591168,13.4659655 63.5514246,12.2557685 C63.4939518,10.5095616 63.5282286,8.75995567 63.5403437,7.01197537 C63.5495039,5.68044828 64.2116967,5.02177833 65.5532208,5.01660591 C68.2359736,5.0061133 70.9190218,5.01764039 73.6017745,5.00685222 C74.0240295,5.00507882 74.2941073,5.045867 74.2911524,5.58719704 C74.2715023,9.30483251 74.2778554,13.022468 74.273423,16.7402512 C74.2732753,16.8352759 74.2447605,16.9303005 74.2190529,17.0894631 L71.4421866,17.0894631 C71.4272644,16.8175419 71.3986019,16.5320246 71.3981586,16.2465074 C71.3943173,13.6614828 71.3734852,11.0760148 71.409535,8.49128571 C71.4194339,7.79759113 71.183042,7.587 70.5171555,7.61212315 C69.4111369,7.65394581 68.3015723,7.6505468 67.1951104,7.61478325 C66.5991073,7.59557143 66.4426454,7.82182759 66.4560902,8.3925665 C66.4919922,9.91828079 66.5083919,11.4465074 66.4578631,12.971335 C66.4052659,14.5514335 66.0413701,16.0118276 64.4562146,16.811335 C64.3250171,16.8775419 64.188944,16.9376897 64.0494728,16.9833547 C62.7518289,17.407936 62.4894339,17.2651773 62.1909891,15.9689704 C62.0977621,15.5640443 62.017832,15.1560148 61.9065801,14.6294631 Z M151.42053,34.3583054 C151.42053,32.2745616 151.420677,30.3326897 151.42053,28.3909655 C151.420382,26.5451527 151.435452,24.6993399 151.410335,22.8539704 C151.403243,22.3351034 151.575809,22.15067 152.089075,22.1890936 C152.578407,22.2257438 153.075716,22.2307685 153.564013,22.1870246 C154.174052,22.1323448 154.318399,22.4125419 154.305102,22.9625911 C154.277326,24.1184039 154.312637,25.2758424 154.290475,26.4320985 C154.280576,26.9416552 154.471019,27.1257931 154.982069,27.117665 C156.50724,27.0938719 158.033002,27.091064 159.558026,27.114266 C160.116354,27.1228374 160.284044,26.8958424 160.271929,26.3657438 C160.244892,25.1851034 160.276657,24.003133 160.254052,22.8223448 C160.24504,22.3416059 160.420265,22.160867 160.90147,22.1895369 C161.44074,22.2216059 161.984884,22.2205714 162.524301,22.1899803 C162.990141,22.1636749 163.115428,22.3699803 163.114542,22.7989951 C163.106416,26.4411133 163.105825,30.0833793 163.119861,33.7254975 C163.121634,34.212 162.926906,34.351803 162.464021,34.3704236 C160.256268,34.4589458 160.256121,34.469734 160.256712,32.255202 C160.256859,31.6399803 160.236914,31.0234286 160.271929,30.4099803 C160.305615,29.8225419 160.114285,29.5664335 159.483119,29.5807685 C157.983212,29.615202 156.48168,29.6091429 154.98133,29.5837241 C154.467326,29.5751527 154.278212,29.7591429 154.28752,30.2654483 C154.308795,31.3970246 154.280872,32.5296355 154.304659,33.6612118 C154.315001,34.1524433 154.167847,34.3880099 153.638033,34.3656946 C152.931369,34.3358424 152.222489,34.3583054 151.42053,34.3583054 Z M96.3745747,34.3510936 C97.4179495,32.8292217 98.3446058,31.4727192 99.2762854,30.1199113 C100.47952,28.3723744 100.480998,28.3737044 99.287514,26.6447882 C98.4217286,25.3906995 97.5546135,24.1377931 96.6942947,22.8800099 C96.5762465,22.707399 96.4942481,22.5101084 96.3654145,22.2677438 C97.4197224,22.2677438 98.4003056,22.1880887 99.3563631,22.3067586 C99.7385793,22.3543448 100.146799,22.7808473 100.403284,23.1358227 C101.021005,23.9917833 101.561456,24.904197 102.123478,25.7997635 C102.702934,26.7231133 102.879046,26.72267 103.478447,25.7786305 C104.058198,24.8651823 104.647405,23.9576453 105.219769,23.0396158 C105.578494,22.4644433 106.085998,22.1934089 106.757055,22.1976946 C107.532864,22.2027192 108.30882,22.1988768 109.251876,22.1988768 C108.326402,23.5506502 107.499326,24.758335 106.672545,25.9661675 C106.270088,26.5544926 105.895259,27.1643941 105.456456,27.724197 C105.154318,28.1096158 105.205142,28.3957241 105.466946,28.7693202 C106.582125,30.3597635 107.673222,31.9670542 108.77141,33.5693202 C108.907778,33.7682365 109.034544,33.973803 109.310827,34.3995665 C108.074497,34.3423744 107.017382,34.3373498 105.973859,34.2155764 C105.702009,34.1839507 105.418338,33.8258719 105.233657,33.5540985 C104.639722,32.6802562 104.085974,31.7789261 103.523509,30.8839507 C102.891752,29.8788768 102.701456,29.877399 102.084326,30.8625222 C101.523338,31.7583842 100.935904,32.6381379 100.383781,33.539468 C100.05889,34.0697143 99.6215653,34.354936 98.9963087,34.3519803 C98.191542,34.3482857 97.3866275,34.3510936 96.3745747,34.3510936 Z M58.6586439,22.2258621 C58.5005568,22.88867 58.3897481,23.4874877 58.2106812,24.0650246 C58.0472753,24.5921675 57.6332939,24.8401478 57.0820575,24.8439901 C56.2459689,24.8499015 55.4095848,24.8447291 54.5736439,24.8566995 C53.3209145,24.8745813 52.2070653,25.2166995 51.6443048,26.4472906 C51.0008756,27.8546305 51.0208212,29.2836946 51.9090638,30.5896552 C52.4712333,31.4160591 53.3488383,31.7494581 54.3422753,31.7534483 C55.547283,31.7581773 56.7525863,31.7564039 57.9577418,31.7583251 C59.3091649,31.7603941 59.4710933,31.8852709 59.8119409,33.229803 C59.8948258,33.5569951 59.9459456,33.8923153 60.0277963,34.3044828 C59.6853235,34.3262069 59.4230762,34.3565025 59.1605334,34.3572414 C57.5372597,34.3610837 55.9136905,34.3798522 54.29086,34.3532512 C50.7440949,34.2950246 48.4558212,32.0287685 48.3336361,28.4838916 C48.2148491,25.0361084 50.3869953,22.5239409 53.8570809,22.2469951 C55.4154946,22.1225616 56.9922286,22.2258621 58.6586439,22.2258621 Z M59.3040086,22.2418079 L70.6212714,22.2418079 C70.4425,22.9499852 70.3616835,23.642202 70.0777177,24.2373251 C69.9372123,24.5317094 69.4399028,24.7619557 69.0730521,24.8182611 C68.448091,24.9140246 67.7965358,24.88033 67.1596073,24.8432365 C66.5949261,24.8102808 66.4541252,25.0387537 66.4585575,25.5747635 C66.4817535,28.3294433 66.4700816,31.0844187 66.4691952,33.8392463 C66.4690474,33.9614631 66.4547162,34.083532 66.4423056,34.2839261 L63.5374922,34.2839261 L63.5374922,33.476734 C63.5374922,30.9432857 63.5373445,28.4096897 63.5371967,25.8762414 C63.537049,24.8575714 63.5369012,24.8572759 62.4843663,24.8529901 C61.9679977,24.8507734 61.4514813,24.8424975 60.9352605,24.8500345 C60.2058437,24.8609704 59.7872823,24.4956502 59.634514,23.8000345 C59.525035,23.3014138 59.4225,22.8013153 59.3040086,22.2418079 Z" id="Alfastrahovanie" fill="#FFFFFF" sketch:type="MSShapeGroup"></path>
    </g>
</svg>
