<svg version="1.1" xmlns="http://www.w3.org/2000/svg" xmlns:xlink="http://www.w3.org/1999/xlink" xmlns:sketch="http://www.bohemiancoding.com/sketch/ns">

									    <g id="Page-1" stroke="none" stroke-width="1" fill="none" fill-rule="evenodd" sketch:type="MSPage">
									        <g id="appstore" sketch:type="MSLayerGroup" transform="translate(1.000000, 1.000000)">
									            <rect id="Rectangle-20" stroke="#FFFFFF" sketch:type="MSShapeGroup" x="0" y="0" width="160" height="50" rx="4"></rect>
									            <path d="M140.242,16.034 C140.259,15.785 140.321,15.547 140.429,15.317 C140.538,15.088 140.683,14.885 140.866,14.706 C141.05,14.527 141.262,14.386 141.503,14.281 C141.744,14.178 142.006,14.126 142.289,14.126 C142.896,14.126 143.364,14.306 143.693,14.668 C144.021,15.03 144.198,15.485 144.223,16.034 L140.242,16.034 Z M144.903,15.186 C144.783,14.837 144.606,14.531 144.373,14.268 C144.14,14.007 143.848,13.799 143.5,13.645 C143.15,13.491 142.747,13.414 142.289,13.414 C141.873,13.414 141.486,13.491 141.129,13.645 C140.77,13.799 140.459,14.013 140.192,14.288 C139.926,14.562 139.718,14.887 139.568,15.262 C139.419,15.636 139.344,16.043 139.344,16.484 C139.344,16.925 139.421,17.333 139.575,17.708 C139.728,18.081 139.938,18.406 140.205,18.68 C140.471,18.955 140.789,19.17 141.159,19.323 C141.53,19.477 141.931,19.555 142.364,19.555 C142.846,19.555 143.298,19.459 143.718,19.267 C144.138,19.076 144.523,18.76 144.873,18.318 L144.236,17.819 C144.069,18.086 143.826,18.32 143.506,18.524 C143.185,18.728 142.805,18.83 142.364,18.83 C142.064,18.83 141.786,18.774 141.528,18.662 C141.269,18.55 141.045,18.398 140.854,18.206 C140.662,18.015 140.513,17.791 140.404,17.533 C140.297,17.274 140.238,17 140.229,16.709 L145.072,16.709 C145.08,16.634 145.085,16.563 145.085,16.497 L145.085,16.309 C145.085,15.91 145.024,15.536 144.903,15.186 L144.903,15.186 Z M135.905,14.275 C136.109,14.375 136.271,14.514 136.392,14.693 C136.513,14.872 136.598,15.086 136.648,15.336 C136.698,15.586 136.723,15.864 136.723,16.172 L136.723,19.405 L137.571,19.405 L137.571,15.823 C137.571,15.098 137.387,14.516 137.016,14.075 C136.646,13.635 136.091,13.414 135.35,13.414 C134.934,13.414 134.543,13.513 134.178,13.714 C133.811,13.913 133.549,14.183 133.391,14.525 L133.366,14.525 L133.366,9.97 L132.517,9.97 L132.517,19.405 L133.366,19.405 L133.366,16.409 C133.366,16.018 133.416,15.68 133.515,15.392 C133.615,15.104 133.749,14.868 133.915,14.68 C134.081,14.494 134.27,14.354 134.483,14.263 C134.695,14.172 134.913,14.126 135.138,14.126 C135.446,14.126 135.702,14.176 135.905,14.275 L135.905,14.275 Z M128.674,17.92 C128.674,18.244 128.721,18.506 128.817,18.706 C128.913,18.905 129.036,19.063 129.185,19.18 C129.335,19.296 129.497,19.375 129.672,19.417 C129.846,19.459 130.013,19.479 130.171,19.479 C130.362,19.479 130.539,19.465 130.702,19.435 C130.864,19.406 131.02,19.363 131.17,19.305 L131.132,18.568 C131.015,18.627 130.892,18.673 130.764,18.706 C130.635,18.739 130.513,18.756 130.396,18.756 C130.271,18.756 130.154,18.741 130.047,18.712 C129.938,18.682 129.845,18.629 129.765,18.55 C129.686,18.471 129.626,18.36 129.585,18.219 C129.543,18.077 129.522,17.898 129.522,17.682 L129.522,14.275 L131.17,14.275 L131.17,13.563 L129.522,13.563 L129.522,11.916 L128.674,11.916 L128.674,13.563 L127.463,13.563 L127.463,14.275 L128.674,14.275 L128.674,17.92 Z M118.166,14.849 L118.166,19.405 L119.014,19.405 L119.014,16.409 C119.014,16.018 119.064,15.68 119.164,15.392 C119.263,15.104 119.397,14.868 119.563,14.68 C119.729,14.494 119.919,14.354 120.131,14.263 C120.344,14.172 120.561,14.126 120.786,14.126 C121.095,14.126 121.349,14.176 121.554,14.275 C121.758,14.375 121.92,14.514 122.041,14.693 C122.161,14.872 122.247,15.086 122.297,15.336 C122.346,15.586 122.371,15.864 122.371,16.172 L122.371,19.405 L123.22,19.405 L123.22,15.823 C123.22,15.098 123.035,14.516 122.665,14.075 C122.294,13.635 121.739,13.414 120.999,13.414 C120.583,13.414 120.187,13.52 119.813,13.732 C119.438,13.944 119.168,14.221 119.002,14.562 L118.976,14.562 C118.976,14.437 118.972,14.279 118.965,14.088 C118.956,13.896 118.943,13.722 118.927,13.563 L118.116,13.563 C118.133,13.763 118.144,13.988 118.153,14.237 C118.161,14.487 118.166,14.691 118.166,14.849 L118.166,14.849 Z M113.223,18.83 C112.883,18.83 112.577,18.77 112.306,18.649 C112.036,18.529 111.805,18.362 111.614,18.15 C111.422,17.937 111.274,17.688 111.171,17.401 C111.066,17.114 111.014,16.808 111.014,16.484 C111.014,16.16 111.066,15.854 111.171,15.567 C111.274,15.279 111.422,15.03 111.614,14.818 C111.805,14.605 112.036,14.437 112.306,14.313 C112.577,14.188 112.883,14.126 113.223,14.126 C113.564,14.126 113.873,14.188 114.147,14.313 C114.422,14.437 114.654,14.605 114.846,14.818 C115.037,15.03 115.184,15.279 115.289,15.567 C115.393,15.854 115.445,16.16 115.445,16.484 C115.445,16.808 115.393,17.114 115.289,17.401 C115.184,17.688 115.037,17.937 114.846,18.15 C114.654,18.362 114.422,18.529 114.147,18.649 C113.873,18.77 113.564,18.83 113.223,18.83 L113.223,18.83 Z M115.47,18.68 C115.745,18.406 115.959,18.081 116.112,17.708 C116.266,17.333 116.344,16.925 116.344,16.484 C116.344,16.043 116.266,15.636 116.112,15.262 C115.959,14.887 115.745,14.562 115.47,14.288 C115.195,14.013 114.867,13.799 114.484,13.645 C114.101,13.491 113.681,13.414 113.223,13.414 C112.774,13.414 112.358,13.491 111.975,13.645 C111.593,13.799 111.264,14.013 110.99,14.288 C110.715,14.562 110.501,14.887 110.346,15.262 C110.193,15.636 110.116,16.043 110.116,16.484 C110.116,16.925 110.193,17.333 110.346,17.708 C110.501,18.081 110.715,18.406 110.99,18.68 C111.264,18.955 111.593,19.17 111.975,19.323 C112.358,19.477 112.774,19.555 113.223,19.555 C113.681,19.555 114.101,19.477 114.484,19.323 C114.867,19.17 115.195,18.955 115.47,18.68 L115.47,18.68 Z M100.095,15.567 C100.194,15.279 100.338,15.03 100.525,14.818 C100.713,14.605 100.943,14.437 101.218,14.313 C101.492,14.188 101.804,14.126 102.154,14.126 C102.478,14.126 102.778,14.185 103.053,14.306 C103.327,14.427 103.564,14.594 103.763,14.805 C103.964,15.018 104.119,15.266 104.232,15.555 C104.345,15.842 104.4,16.151 104.4,16.484 C104.4,16.817 104.345,17.127 104.232,17.414 C104.119,17.701 103.964,17.949 103.763,18.156 C103.564,18.364 103.327,18.529 103.053,18.649 C102.778,18.77 102.478,18.83 102.154,18.83 C101.804,18.83 101.492,18.77 101.218,18.649 C100.943,18.529 100.713,18.362 100.525,18.15 C100.338,17.937 100.194,17.688 100.095,17.401 C99.995,17.114 99.945,16.808 99.945,16.484 C99.945,16.16 99.995,15.854 100.095,15.567 L100.095,15.567 Z M99.876,18.668 C100.138,18.943 100.454,19.159 100.825,19.317 C101.195,19.474 101.609,19.555 102.066,19.555 C102.491,19.555 102.902,19.459 103.302,19.267 C103.701,19.076 104.026,18.793 104.275,18.419 L104.301,18.419 L104.301,19.405 L105.149,19.405 L105.149,9.97 L104.301,9.97 L104.301,14.574 L104.275,14.574 C104.026,14.192 103.701,13.903 103.302,13.707 C102.902,13.512 102.491,13.414 102.066,13.414 C101.609,13.414 101.195,13.493 100.825,13.651 C100.454,13.809 100.138,14.025 99.876,14.3 C99.614,14.574 99.41,14.899 99.264,15.273 C99.119,15.648 99.047,16.052 99.047,16.484 C99.047,16.917 99.119,17.32 99.264,17.695 C99.41,18.069 99.614,18.393 99.876,18.668 L99.876,18.668 Z M94.616,18.855 C94.449,18.855 94.285,18.837 94.123,18.799 C93.961,18.762 93.813,18.699 93.679,18.612 C93.547,18.524 93.44,18.41 93.362,18.268 C93.283,18.128 93.243,17.953 93.243,17.745 C93.243,17.47 93.335,17.249 93.517,17.084 C93.701,16.917 93.935,16.79 94.222,16.702 C94.51,16.615 94.83,16.557 95.183,16.528 C95.537,16.499 95.888,16.484 96.238,16.484 L96.488,16.484 L96.488,16.921 C96.488,17.179 96.446,17.425 96.363,17.657 C96.28,17.89 96.159,18.097 96.001,18.275 C95.844,18.454 95.647,18.596 95.415,18.699 C95.181,18.804 94.916,18.855 94.616,18.855 L94.616,18.855 Z M96.513,18.456 L96.538,18.456 C96.538,18.614 96.546,18.776 96.563,18.943 C96.58,19.109 96.6,19.263 96.625,19.405 L97.387,19.405 C97.353,19.238 97.328,19.034 97.311,18.793 C97.295,18.552 97.287,18.318 97.287,18.094 L97.287,15.536 C97.287,15.178 97.228,14.866 97.112,14.599 C96.995,14.334 96.833,14.113 96.625,13.938 C96.417,13.763 96.176,13.633 95.901,13.545 C95.627,13.458 95.332,13.414 95.015,13.414 C94.516,13.414 94.069,13.493 93.674,13.651 C93.278,13.809 92.96,14.009 92.719,14.25 L93.193,14.812 C93.401,14.603 93.655,14.437 93.955,14.313 C94.254,14.188 94.579,14.126 94.929,14.126 C95.435,14.126 95.822,14.25 96.089,14.497 C96.354,14.745 96.488,15.121 96.488,15.624 L96.488,15.81 C95.956,15.81 95.441,15.829 94.947,15.867 C94.452,15.904 94.013,15.987 93.63,16.117 C93.247,16.246 92.941,16.442 92.713,16.706 C92.484,16.969 92.37,17.325 92.37,17.776 C92.37,18.101 92.434,18.377 92.563,18.602 C92.692,18.828 92.854,19.012 93.05,19.154 C93.245,19.296 93.462,19.397 93.699,19.461 C93.935,19.522 94.167,19.555 94.391,19.555 C94.866,19.555 95.271,19.469 95.608,19.299 C95.945,19.129 96.247,18.847 96.513,18.456 L96.513,18.456 Z M89.929,17.401 C89.826,17.688 89.679,17.937 89.487,18.15 C89.296,18.362 89.062,18.529 88.788,18.649 C88.513,18.77 88.206,18.83 87.864,18.83 C87.523,18.83 87.218,18.77 86.947,18.649 C86.677,18.529 86.446,18.362 86.255,18.15 C86.063,17.937 85.916,17.688 85.811,17.401 C85.708,17.114 85.655,16.808 85.655,16.484 C85.655,16.16 85.708,15.854 85.811,15.567 C85.916,15.279 86.063,15.03 86.255,14.818 C86.446,14.605 86.677,14.437 86.947,14.313 C87.218,14.188 87.523,14.126 87.864,14.126 C88.206,14.126 88.513,14.188 88.788,14.313 C89.062,14.437 89.296,14.605 89.487,14.818 C89.679,15.03 89.826,15.279 89.929,15.567 C90.034,15.854 90.086,16.16 90.086,16.484 C90.086,16.808 90.034,17.114 89.929,17.401 L89.929,17.401 Z M90.111,14.288 C89.836,14.013 89.508,13.799 89.125,13.645 C88.742,13.491 88.322,13.414 87.864,13.414 C87.415,13.414 86.999,13.491 86.616,13.645 C86.233,13.799 85.905,14.013 85.631,14.288 C85.356,14.562 85.141,14.887 84.988,15.262 C84.834,15.636 84.757,16.043 84.757,16.484 C84.757,16.925 84.834,17.333 84.988,17.708 C85.141,18.081 85.356,18.406 85.631,18.68 C85.905,18.955 86.233,19.17 86.616,19.323 C86.999,19.477 87.415,19.555 87.864,19.555 C88.322,19.555 88.742,19.477 89.125,19.323 C89.508,19.17 89.836,18.955 90.111,18.68 C90.386,18.406 90.599,18.081 90.754,17.708 C90.907,17.333 90.984,16.925 90.984,16.484 C90.984,16.043 90.907,15.636 90.754,15.262 C90.599,14.887 90.386,14.562 90.111,14.288 L90.111,14.288 Z M82.91,9.97 L82.061,9.97 L82.061,19.406 L82.91,19.406 L82.91,9.97 Z M78.174,14.275 C78.378,14.375 78.54,14.514 78.661,14.693 C78.781,14.872 78.866,15.086 78.917,15.336 C78.967,15.586 78.991,15.864 78.991,16.172 L78.991,19.405 L79.84,19.405 L79.84,15.823 C79.84,15.098 79.655,14.516 79.284,14.075 C78.914,13.635 78.359,13.414 77.618,13.414 C77.202,13.414 76.807,13.52 76.432,13.732 C76.058,13.944 75.788,14.221 75.622,14.562 L75.596,14.562 C75.596,14.437 75.593,14.279 75.584,14.088 C75.576,13.896 75.563,13.722 75.547,13.563 L74.735,13.563 C74.752,13.763 74.764,13.988 74.773,14.237 C74.781,14.487 74.785,14.691 74.785,14.849 L74.785,19.405 L75.634,19.405 L75.634,16.409 C75.634,16.018 75.684,15.68 75.784,15.392 C75.884,15.104 76.016,14.868 76.183,14.68 C76.349,14.494 76.539,14.354 76.751,14.263 C76.964,14.172 77.181,14.126 77.406,14.126 C77.714,14.126 77.97,14.176 78.174,14.275 L78.174,14.275 Z M67.447,19.405 L68.982,14.675 L69.008,14.675 L70.567,19.405 L71.491,19.405 L73.338,13.563 L72.439,13.563 L71.042,18.306 L71.016,18.306 L69.419,13.563 L68.596,13.563 L67.023,18.306 L66.998,18.306 L65.588,13.563 L64.677,13.563 L66.524,19.405 L67.447,19.405 Z M62.598,17.401 C62.495,17.688 62.347,17.937 62.156,18.15 C61.965,18.362 61.731,18.529 61.457,18.649 C61.182,18.77 60.875,18.83 60.534,18.83 C60.192,18.83 59.887,18.77 59.616,18.649 C59.346,18.529 59.115,18.362 58.924,18.15 C58.732,17.937 58.585,17.688 58.48,17.401 C58.377,17.114 58.325,16.808 58.325,16.484 C58.325,16.16 58.377,15.854 58.48,15.567 C58.585,15.279 58.732,15.03 58.924,14.818 C59.115,14.605 59.346,14.437 59.616,14.313 C59.887,14.188 60.192,14.126 60.534,14.126 C60.875,14.126 61.182,14.188 61.457,14.313 C61.731,14.437 61.965,14.605 62.156,14.818 C62.347,15.03 62.495,15.279 62.598,15.567 C62.703,15.854 62.755,16.16 62.755,16.484 C62.755,16.808 62.703,17.114 62.598,17.401 L62.598,17.401 Z M62.78,14.288 C62.506,14.013 62.177,13.799 61.794,13.645 C61.411,13.491 60.991,13.414 60.534,13.414 C60.084,13.414 59.668,13.491 59.286,13.645 C58.903,13.799 58.574,14.013 58.3,14.288 C58.025,14.562 57.81,14.887 57.657,15.262 C57.503,15.636 57.426,16.043 57.426,16.484 C57.426,16.925 57.503,17.333 57.657,17.708 C57.81,18.081 58.025,18.406 58.3,18.68 C58.574,18.955 58.903,19.17 59.286,19.323 C59.668,19.477 60.084,19.555 60.534,19.555 C60.991,19.555 61.411,19.477 61.794,19.323 C62.177,19.17 62.506,18.955 62.78,18.68 C63.054,18.406 63.268,18.081 63.423,17.708 C63.577,17.333 63.653,16.925 63.653,16.484 C63.653,16.043 63.577,15.636 63.423,15.262 C63.268,14.887 63.054,14.562 62.78,14.288 L62.78,14.288 Z M49.351,18.605 L49.351,11.367 L51.137,11.367 C51.802,11.367 52.382,11.472 52.877,11.68 C53.372,11.888 53.782,12.16 54.106,12.497 C54.43,12.834 54.675,13.219 54.837,13.651 C54.999,14.084 55.08,14.529 55.08,14.987 C55.08,15.444 54.999,15.889 54.837,16.322 C54.675,16.755 54.43,17.139 54.106,17.476 C53.782,17.813 53.372,18.086 52.877,18.294 C52.382,18.501 51.802,18.605 51.137,18.605 L49.351,18.605 Z M53.04,19.13 C53.593,18.947 54.092,18.67 54.537,18.3 C54.982,17.93 55.342,17.47 55.617,16.921 C55.891,16.372 56.028,15.726 56.028,14.987 C56.028,14.255 55.891,13.612 55.617,13.058 C55.342,12.505 54.982,12.044 54.537,11.673 C54.092,11.304 53.593,11.026 53.04,10.843 C52.486,10.66 51.935,10.569 51.386,10.569 L48.453,10.569 L48.453,19.405 L51.386,19.405 C51.935,19.405 52.486,19.313 53.04,19.13 L53.04,19.13 Z M136.74,32.321 C136.767,31.933 136.868,31.569 137.042,31.229 C137.215,30.889 137.436,30.595 137.707,30.346 C137.977,30.096 138.296,29.897 138.664,29.752 C139.031,29.606 139.423,29.534 139.839,29.534 C140.297,29.534 140.695,29.606 141.035,29.752 C141.375,29.897 141.659,30.096 141.888,30.346 C142.116,30.595 142.29,30.889 142.408,31.229 C142.525,31.569 142.592,31.933 142.605,32.321 L136.74,32.321 Z M143.32,29.368 C142.91,28.924 142.41,28.584 141.819,28.348 C141.228,28.112 140.572,27.995 139.849,27.995 C139.127,27.995 138.453,28.123 137.828,28.38 C137.203,28.637 136.66,28.993 136.202,29.451 C135.743,29.908 135.386,30.46 135.129,31.104 C134.871,31.749 134.743,32.453 134.743,33.216 C134.743,33.992 134.875,34.699 135.138,35.337 C135.401,35.974 135.763,36.519 136.22,36.971 C136.678,37.421 137.225,37.77 137.863,38.02 C138.501,38.27 139.194,38.394 139.943,38.394 C140.816,38.394 141.61,38.229 142.325,37.9 C143.039,37.57 143.659,37.055 144.186,36.356 L142.813,35.254 C142.536,35.67 142.154,36.023 141.67,36.314 C141.183,36.606 140.608,36.752 139.943,36.752 C139.513,36.752 139.107,36.676 138.726,36.524 C138.345,36.373 138.009,36.163 137.718,35.894 C137.427,35.626 137.194,35.309 137.02,34.944 C136.846,34.58 136.754,34.19 136.74,33.777 L144.581,33.777 C144.595,33.667 144.602,33.555 144.602,33.444 L144.602,33.112 C144.602,32.321 144.491,31.611 144.268,30.979 C144.047,30.348 143.73,29.811 143.32,29.368 L143.32,29.368 Z M131.155,28.525 C130.621,28.879 130.215,29.347 129.938,29.93 L129.876,29.93 C129.876,29.721 129.868,29.454 129.854,29.129 C129.841,28.803 129.82,28.514 129.792,28.265 L127.941,28.265 C127.969,28.584 127.989,28.952 128.004,29.368 C128.017,29.783 128.024,30.123 128.024,30.387 L128.024,38.124 L129.979,38.124 L129.979,32.945 C129.979,32.529 130.035,32.131 130.146,31.749 C130.257,31.368 130.427,31.031 130.655,30.74 C130.885,30.449 131.172,30.218 131.518,30.043 C131.865,29.87 132.274,29.783 132.746,29.783 C133.064,29.783 133.363,29.818 133.64,29.888 L133.723,28.078 C133.515,28.022 133.259,27.995 132.954,27.995 C132.288,27.995 131.688,28.172 131.155,28.525 L131.155,28.525 Z M122.855,34.533 C122.709,34.962 122.497,35.342 122.219,35.674 C121.94,36.005 121.596,36.267 121.186,36.462 C120.775,36.655 120.305,36.752 119.777,36.752 C119.249,36.752 118.779,36.655 118.369,36.462 C117.958,36.267 117.614,36.005 117.336,35.674 C117.057,35.342 116.846,34.962 116.7,34.533 C116.554,34.104 116.48,33.655 116.48,33.184 C116.48,32.715 116.554,32.264 116.7,31.837 C116.846,31.408 117.057,31.031 117.336,30.706 C117.614,30.382 117.958,30.122 118.369,29.929 C118.779,29.735 119.249,29.638 119.777,29.638 C120.305,29.638 120.775,29.735 121.186,29.929 C121.596,30.122 121.94,30.382 122.219,30.706 C122.497,31.031 122.709,31.408 122.855,31.837 C123.001,32.264 123.074,32.715 123.074,33.184 C123.074,33.655 123.001,34.104 122.855,34.533 L122.855,34.533 Z M123.584,29.451 C123.105,28.993 122.54,28.637 121.888,28.38 C121.237,28.123 120.537,27.995 119.788,27.995 C119.039,27.995 118.339,28.123 117.687,28.38 C117.035,28.637 116.473,28.993 116.002,29.451 C115.531,29.908 115.16,30.453 114.889,31.084 C114.619,31.715 114.484,32.411 114.484,33.175 C114.484,33.936 114.619,34.638 114.889,35.275 C115.16,35.913 115.531,36.464 116.002,36.929 C116.473,37.393 117.035,37.754 117.687,38.01 C118.339,38.266 119.039,38.394 119.788,38.394 C120.537,38.394 121.237,38.266 121.888,38.01 C122.54,37.754 123.105,37.393 123.584,36.929 C124.062,36.464 124.436,35.913 124.707,35.275 C124.977,34.638 125.112,33.936 125.112,33.175 C125.112,32.411 124.977,31.715 124.707,31.084 C124.436,30.453 124.062,29.908 123.584,29.451 L123.584,29.451 Z M110.282,25.436 L108.347,25.436 L108.347,28.265 L106.455,28.265 L106.455,29.867 L108.347,29.867 L108.347,35.213 C108.347,36.239 108.594,37.009 109.087,37.521 C109.578,38.034 110.289,38.291 111.219,38.291 C111.523,38.291 111.818,38.266 112.102,38.218 C112.387,38.17 112.646,38.103 112.883,38.02 L112.82,36.419 C112.653,36.495 112.467,36.553 112.259,36.591 C112.051,36.629 111.856,36.647 111.676,36.647 C111.19,36.647 110.837,36.519 110.615,36.264 C110.393,36.009 110.282,35.583 110.282,34.989 L110.282,29.867 L112.903,29.867 L112.903,28.265 L110.282,28.265 L110.282,25.436 Z M103.772,31.011 C103.356,30.692 102.891,30.435 102.379,30.241 C101.865,30.047 101.359,29.874 100.86,29.721 C100.444,29.583 100.053,29.448 99.685,29.315 C99.317,29.183 98.999,29.024 98.728,28.837 C98.458,28.649 98.243,28.422 98.084,28.151 C97.924,27.881 97.845,27.545 97.845,27.142 C97.845,26.726 97.93,26.369 98.104,26.071 C98.277,25.772 98.503,25.523 98.78,25.322 C99.057,25.121 99.366,24.975 99.706,24.886 C100.046,24.796 100.382,24.75 100.715,24.75 C101.339,24.75 101.9,24.878 102.399,25.135 C102.898,25.391 103.294,25.721 103.585,26.123 L105.041,24.709 C104.584,24.195 103.98,23.787 103.231,23.481 C102.482,23.177 101.679,23.023 100.818,23.023 C100.208,23.023 99.601,23.103 98.999,23.263 C98.395,23.423 97.854,23.676 97.376,24.022 C96.897,24.368 96.51,24.805 96.212,25.332 C95.913,25.859 95.764,26.491 95.764,27.225 C95.764,27.905 95.875,28.473 96.096,28.93 C96.318,29.388 96.61,29.773 96.971,30.085 C97.331,30.397 97.74,30.654 98.198,30.854 C98.655,31.055 99.12,31.226 99.592,31.364 C100.062,31.517 100.51,31.666 100.933,31.811 C101.356,31.957 101.726,32.134 102.046,32.343 C102.365,32.551 102.618,32.804 102.804,33.101 C102.992,33.399 103.086,33.77 103.086,34.215 C103.086,34.658 102.995,35.035 102.815,35.347 C102.635,35.659 102.402,35.92 102.119,36.128 C101.834,36.336 101.518,36.488 101.173,36.586 C100.825,36.682 100.478,36.73 100.132,36.73 C99.453,36.73 98.822,36.571 98.239,36.253 C97.657,35.933 97.192,35.517 96.846,35.005 L95.244,36.356 C95.812,37.063 96.53,37.597 97.397,37.958 C98.263,38.318 99.161,38.499 100.091,38.499 C100.742,38.499 101.377,38.408 101.994,38.228 C102.61,38.049 103.155,37.774 103.627,37.406 C104.097,37.04 104.475,36.575 104.761,36.013 C105.044,35.452 105.186,34.79 105.186,34.027 C105.186,33.292 105.054,32.685 104.792,32.207 C104.528,31.728 104.188,31.33 103.772,31.011 L103.772,31.011 Z M85.594,34.505 C85.455,34.935 85.247,35.317 84.97,35.649 C84.692,35.982 84.348,36.249 83.939,36.45 C83.53,36.651 83.055,36.752 82.514,36.752 C82.015,36.752 81.561,36.655 81.152,36.461 C80.743,36.266 80.393,36.007 80.102,35.68 C79.81,35.355 79.586,34.976 79.426,34.547 C79.266,34.117 79.186,33.667 79.186,33.194 C79.186,32.723 79.266,32.272 79.426,31.843 C79.586,31.413 79.81,31.031 80.102,30.699 C80.393,30.366 80.743,30.103 81.152,29.908 C81.561,29.715 82.015,29.618 82.514,29.618 C83.055,29.618 83.53,29.715 83.939,29.908 C84.348,30.103 84.692,30.366 84.97,30.699 C85.247,31.031 85.455,31.413 85.594,31.843 C85.731,32.272 85.802,32.716 85.802,33.175 C85.802,33.632 85.731,34.076 85.594,34.505 L85.594,34.505 Z M86.439,29.493 C86.003,29.021 85.484,28.654 84.883,28.389 C84.281,28.127 83.614,27.995 82.881,27.995 C82.064,27.995 81.348,28.165 80.733,28.505 C80.117,28.845 79.65,29.278 79.333,29.805 L79.27,29.805 L79.27,28.265 L77.356,28.265 L77.356,43.116 L79.311,43.116 L79.311,36.647 L79.374,36.647 C79.733,37.202 80.224,37.633 80.847,37.937 C81.47,38.242 82.134,38.394 82.839,38.394 C83.599,38.394 84.284,38.26 84.893,37.989 C85.502,37.719 86.02,37.347 86.449,36.876 C86.878,36.404 87.21,35.85 87.445,35.213 C87.68,34.575 87.798,33.894 87.798,33.175 C87.798,32.453 87.68,31.777 87.445,31.146 C87.21,30.515 86.874,29.964 86.439,29.493 L86.439,29.493 Z M72.198,34.505 C72.059,34.935 71.851,35.317 71.574,35.649 C71.297,35.982 70.954,36.249 70.545,36.45 C70.136,36.651 69.661,36.752 69.12,36.752 C68.621,36.752 68.167,36.655 67.758,36.461 C67.348,36.266 66.998,36.007 66.707,35.68 C66.416,35.355 66.19,34.976 66.031,34.547 C65.872,34.117 65.792,33.667 65.792,33.194 C65.792,32.723 65.872,32.272 66.031,31.843 C66.19,31.413 66.416,31.031 66.707,30.699 C66.998,30.366 67.348,30.103 67.758,29.908 C68.167,29.715 68.621,29.618 69.12,29.618 C69.661,29.618 70.136,29.715 70.545,29.908 C70.954,30.103 71.297,30.366 71.574,30.699 C71.851,31.031 72.059,31.413 72.198,31.843 C72.337,32.272 72.406,32.716 72.406,33.175 C72.406,33.632 72.337,34.076 72.198,34.505 L72.198,34.505 Z M73.044,29.493 C72.608,29.021 72.09,28.654 71.488,28.389 C70.886,28.127 70.219,27.995 69.485,27.995 C68.669,27.995 67.954,28.165 67.338,28.505 C66.722,28.845 66.256,29.278 65.937,29.805 L65.875,29.805 L65.875,28.265 L63.962,28.265 L63.962,43.116 L65.917,43.116 L65.917,36.647 L65.979,36.647 C66.339,37.202 66.83,37.633 67.452,37.937 C68.075,38.242 68.739,38.394 69.444,38.394 C70.205,38.394 70.889,38.26 71.498,37.989 C72.106,37.719 72.626,37.347 73.054,36.876 C73.483,36.404 73.815,35.85 74.05,35.213 C74.285,34.575 74.403,33.894 74.403,33.175 C74.403,32.453 74.285,31.777 74.05,31.146 C73.815,30.515 73.479,29.964 73.044,29.493 L73.044,29.493 Z M51.877,32.695 L54.643,25.79 L57.388,32.695 L51.877,32.695 Z M53.769,23.398 L47.384,38.124 L49.672,38.124 L51.148,34.505 L58.138,34.505 L59.636,38.124 L61.965,38.124 L55.641,23.398 L53.769,23.398 Z M31.48,9 C25.532,9 25.96,15.498 25.96,15.498 C25.96,15.498 31.48,14.069 31.48,9 L31.48,9 Z M33.32,24.204 C33.32,19.899 37,18.634 37,18.634 C37,18.634 33.94,16.316 31.48,16.316 C29.02,16.316 28.419,17.747 26.469,17.747 C24.518,17.747 24.285,16.316 22.25,16.316 C19.368,16.316 14,18.089 14,25.53 C14,33.683 20.225,38.132 22.28,38.132 C24.335,38.132 23.861,37.202 26.404,37.202 C28.946,37.202 28.265,38.132 31.48,38.132 C34.336,38.132 36.837,33.15 37.92,30.702 C36.52,30.702 33.32,28.508 33.32,24.204 L33.32,24.204 Z" id="Fill-1" fill="#FFFFFF" sketch:type="MSShapeGroup"></path>
									        </g>
									    </g>
									</svg>
