<?xml version="1.0" encoding="UTF-8" standalone="no"?>
<svg width="120px" height="26px" viewBox="0 0 120 26" version="1.1" xmlns="http://www.w3.org/2000/svg" xmlns:xlink="http://www.w3.org/1999/xlink" xmlns:sketch="http://www.bohemiancoding.com/sketch/ns">
    <!-- Generator: Sketch 3.4.4 (17249) - http://www.bohemiancoding.com/sketch -->
    <title>Untitled</title>
    <desc>Created with Sketch.</desc>
    <defs></defs>
    <g id="Page-1" stroke="none" stroke-width="1" fill="none" fill-rule="evenodd" sketch:type="MSPage">
        <path d="M108.344083,11.2407392 C108.1981,13.7224608 106.008345,14.1604117 106.008345,14.1604117 L82.35929,14.1604117 L82.35929,19.3428304 C82.7972409,21.824552 85.2789625,22.0181263 85.2789625,22.0181263 L110.095887,22.0181263 L110.164207,25.328159 L82.3143271,25.328159 C82.3143271,25.328159 77.9044537,25.328159 77.2738045,21.4937531 L77.2738045,3.83469787 C77.9044537,0 82.3143271,0 82.3143271,0 L110.164207,0 L110.095887,3.31032469 L85.2789625,3.31032469 C85.2789625,3.31032469 82.7972409,3.50360701 82.35929,5.98532865 L82.35929,11.1677474 L108.344083,11.2407392 Z M29.4886924,0 L3.50360701,0 C0,0.487001375 0,3.89309132 0,3.89309132 L0,25.4011508 L5.23088527,25.4256761 L5.15789346,17.2260678 L28.3208233,17.2260678 L28.3208233,25.4011508 L33.1870415,25.4011508 L33.1870415,4.67147602 C32.9922994,0.291967251 29.4886924,0 29.4886924,0 Z M28.1260812,4.86651014 L28.1260812,13.8199779 L5.06066836,13.8199779 L5.06066836,4.86651014 C5.06066836,4.86651014 4.86592621,3.21163976 7.49363146,3.21163976 L25.6931181,3.21163976 C28.3208233,3.21163976 28.1260812,4.86651014 28.1260812,4.86651014 Z M72.5053953,25.328159 L58.6924247,11.9400007 L71.0455591,0 L65.5711731,0 L55.9727497,9.30382842 L46.3743263,0 L40.8999404,0 L53.2527828,11.9400007 L39.4401041,25.328159 L44.8414983,25.328159 L55.9727497,14.5691658 L67.1040012,25.328159 L72.5053953,25.328159 Z M116.72004,18.320945 C117.281785,18.320945 117.82134,18.4619652 118.338414,18.7425457 C118.854904,19.0240021 119.261615,19.4277928 119.556794,19.952458 C119.851973,20.478291 120,21.0277734 120,21.6011971 C120,22.172577 119.854892,22.7168039 119.565845,23.2350458 C119.275629,23.7524118 118.871255,24.1570784 118.353597,24.4470019 C117.835647,24.7360494 117.290544,24.8811572 116.72004,24.8811572 C116.148368,24.8811572 115.604141,24.7360494 115.086191,24.4470019 C114.568533,24.1570784 114.164159,23.7524118 113.874235,23.2350458 C113.584896,22.7168039 113.439788,22.172577 113.439788,21.6011971 C113.439788,21.0277734 113.587815,20.478291 113.882994,19.952458 C114.178465,19.4277928 114.584299,19.0240021 115.101665,18.7425457 C115.617864,18.4619652 116.157419,18.320945 116.72004,18.320945 Z M116.717996,18.9726159 C116.267783,18.9726159 115.835963,19.0847313 115.423121,19.3095461 C115.010572,19.5340689 114.685904,19.8566927 114.447659,20.2780015 C114.209997,20.6981424 114.091459,21.138137 114.091459,21.5991533 C114.091459,22.056666 114.206786,22.4925731 114.439192,22.9080425 C114.671306,23.322636 114.995389,23.6467196 115.411151,23.8800015 C115.826912,24.1135753 116.261943,24.2297782 116.717996,24.2297782 C117.175509,24.2297782 117.612876,24.1135753 118.027177,23.8800015 C118.441479,23.6467196 118.764687,23.322636 118.998552,22.9080425 C119.23125,22.4925731 119.348621,22.056666 119.348621,21.5991533 C119.348621,21.138137 119.22979,20.6981424 118.992129,20.2780015 C118.753884,19.8566927 118.42834,19.5340689 118.014039,19.3095461 C117.599737,19.0847313 117.16821,18.9726159 116.717996,18.9726159 L116.717996,18.9726159 Z M115.245605,23.3384022 L115.245605,19.8870573 L115.946911,19.8870573 C116.604421,19.8870573 116.9723,19.889977 117.051131,19.8955244 C117.283537,19.9153782 117.464264,19.961217 117.593022,20.0333329 C117.722072,20.1054488 117.829807,20.2161044 117.915646,20.3647158 C118.002944,20.5133271 118.045863,20.6782886 118.045863,20.8593083 C118.045863,21.1080644 117.964696,21.3212005 117.802946,21.4981326 C117.641197,21.6747728 117.414046,21.7848445 117.121495,21.8265958 C117.227187,21.8668873 117.308646,21.9098065 117.365579,21.9571051 C117.422805,22.003236 117.501344,22.091994 117.601197,22.2219194 C117.62689,22.2554957 117.713021,22.3962239 117.858712,22.6420603 L118.251408,23.3384022 L117.371419,23.3384022 L117.091714,22.7781171 C116.902811,22.4017713 116.744857,22.1655698 116.618727,22.0677607 C116.491138,21.9696597 116.330556,21.9214851 116.135813,21.9214851 L115.95421,21.9214851 L115.95421,23.3384022 L115.245605,23.3384022 L115.245605,23.3384022 Z M115.95421,21.3725867 L116.23479,21.3725867 C116.634493,21.3725867 116.882958,21.3568205 116.979015,21.3258719 C117.075656,21.2955074 117.151567,21.2412014 117.207333,21.1638301 C117.263683,21.0864588 117.291712,20.9979927 117.291712,20.8998917 C117.291712,20.8038345 117.264267,20.718872 117.209669,20.6444204 C117.155071,20.5699687 117.077992,20.5168307 116.977263,20.4838384 C116.876534,20.451722 116.629238,20.4353718 116.23479,20.4353718 L115.95421,20.4353718 L115.95421,21.3725867 L115.95421,21.3725867 Z" id="AXE" fill="#FFFFFF" sketch:type="MSShapeGroup"></path>
    </g>
</svg>