<?xml version="1.0" encoding="UTF-8" standalone="no"?>
<svg width="97px" height="71px" viewBox="0 0 97 71" version="1.1" xmlns="http://www.w3.org/2000/svg" xmlns:xlink="http://www.w3.org/1999/xlink" xmlns:sketch="http://www.bohemiancoding.com/sketch/ns">
    <!-- Generator: Sketch 3.4.4 (17249) - http://www.bohemiancoding.com/sketch -->
    <title>Untitled</title>
    <desc>Created with Sketch.</desc>
    <defs></defs>
    <g id="Page-1" stroke="none" stroke-width="1" fill="none" fill-rule="evenodd" sketch:type="MSPage">
        <g id="Beeline" sketch:type="MSLayerGroup" transform="translate(0.000000, 1.000000)">
            <path d="M65.0173,22.1221 C65.0173,33.8671 55.4963,43.3891 43.7523,43.3891 C32.0043,43.3891 22.4833,33.8671 22.4833,22.1221 C22.4833,10.3761 32.0043,0.8531 43.7523,0.8531 C55.4963,0.8531 65.0173,10.3761 65.0173,22.1221" id="Fill-1" stroke="#FFFFFF" stroke-width="2" sketch:type="MSShapeGroup"></path>
            <path d="M27.6328,35.9971 C31.5328,40.5221 37.3088,43.3891 43.7528,43.3891 C50.1918,43.3891 55.9618,40.5251 59.8618,36.0071 C58.5128,36.1941 54.2168,36.6411 43.7638,36.6411 C33.0168,36.6411 28.8618,36.1781 27.6328,35.9971" id="Fill-3" fill="#FFFFFF" sketch:type="MSShapeGroup"></path>
            <path d="M64.4883,26.8613 C64.8373,25.3383 65.0173,23.7513 65.0173,22.1223 C65.0173,20.2643 64.7813,18.4643 64.3353,16.7463 C62.2263,16.6983 55.6053,16.5643 43.8513,16.5643 C31.9733,16.5643 25.2353,16.6983 23.1693,16.7513 C22.7203,18.4643 22.4833,20.2643 22.4833,22.1223 C22.4833,23.7723 22.6733,25.3783 23.0283,26.9213 C25.5523,26.9623 35.4893,27.1143 44.0343,27.1143 C52.7033,27.1143 62.2683,26.9103 64.4883,26.8613" id="Fill-5" fill="#FFFFFF" sketch:type="MSShapeGroup"></path>
            <path d="M59.6816,8.0332 C55.7856,3.6312 50.0946,0.8532 43.7526,0.8532 C37.4046,0.8532 31.7056,3.6372 27.8106,8.0442 C29.2446,7.8492 33.5286,7.4272 43.7156,7.4272 C53.8316,7.4272 58.1606,7.8332 59.6816,8.0332" id="Fill-7" fill="#FFFFFF" sketch:type="MSShapeGroup"></path>
            <path d="M91.1348,55.4961 C91.1108,55.4961 91.0878,55.5171 91.0878,55.5461 L91.0878,55.9731 C91.0878,56.0011 91.1108,56.0221 91.1348,56.0221 L91.9348,56.0221 L91.9348,58.7581 C91.9348,58.7831 91.9558,58.8051 91.9848,58.8051 L92.4338,58.8051 C92.4608,58.8051 92.4808,58.7831 92.4808,58.7581 L92.4808,56.0221 L93.2808,56.0221 C93.3078,56.0221 93.3298,56.0011 93.3298,55.9731 L93.3298,55.5461 C93.3298,55.5171 93.3078,55.4961 93.2808,55.4961 L91.1348,55.4961 Z" id="Fill-11" fill="#FFFFFF" sketch:type="MSShapeGroup"></path>
            <path d="M96.252,55.4961 C96.233,55.4961 96.214,55.5101 96.208,55.5261 C96.208,55.5261 95.393,57.4341 95.31,57.6251 C95.23,57.4341 94.413,55.5261 94.413,55.5261 C94.405,55.5101 94.389,55.4961 94.369,55.4961 L93.826,55.4961 C93.799,55.4961 93.776,55.5171 93.776,55.5461 L93.776,58.7581 C93.776,58.7831 93.799,58.8051 93.826,58.8051 L94.265,58.8051 C94.278,58.8051 94.289,58.7991 94.3,58.7911 C94.309,58.7831 94.315,58.7681 94.315,58.7581 C94.315,58.7581 94.298,56.8921 94.295,56.5001 C94.446,56.8501 95.095,58.3471 95.095,58.3471 C95.103,58.3661 95.119,58.3771 95.139,58.3771 L95.481,58.3771 C95.5,58.3771 95.519,58.3661 95.524,58.3471 C95.524,58.3471 96.175,56.8501 96.327,56.5001 C96.321,56.8921 96.308,58.7581 96.308,58.7581 C96.308,58.7681 96.311,58.7831 96.321,58.7911 C96.33,58.7991 96.341,58.8051 96.355,58.8051 L96.796,58.8051 C96.823,58.8051 96.846,58.7831 96.846,58.7581 L96.846,55.5461 C96.846,55.5171 96.823,55.4961 96.796,55.4961 L96.252,55.4961 Z" id="Fill-13" fill="#FFFFFF" sketch:type="MSShapeGroup"></path>
            <path d="M32.5303,64.7549 C32.3483,66.6739 31.8433,67.1429 30.2143,67.3219 C29.9633,67.3609 29.7093,67.6139 29.7093,67.9009 L29.7093,69.3489 C29.7093,69.6389 29.9633,69.8929 30.2143,69.8929 C33.3983,69.8929 34.9903,68.3729 35.3153,64.6109 L35.6403,61.2479 C35.8583,58.8959 36.3273,58.1739 38.4613,58.1739 L40.8133,58.1739 L40.8133,69.2379 C40.8133,69.5309 41.0673,69.7819 41.3533,69.7819 L43.0913,69.7819 C43.3443,69.7819 43.6343,69.5309 43.6343,69.2379 L43.6343,56.0389 C43.6343,55.7499 43.3443,55.4959 43.0913,55.4959 L38.3183,55.4959 C34.3753,55.4959 33.2173,57.7759 32.8913,60.9939 L32.5303,64.7549 Z M70.3913,69.4589 C70.4633,69.6389 70.6443,69.7819 70.8603,69.7819 L72.1293,69.7819 C72.3793,69.7819 72.6333,69.5669 72.6333,69.2769 L72.6333,56.0389 C72.6333,55.7499 72.4153,55.4959 72.0933,55.4959 L70.3553,55.4959 C70.0303,55.4959 69.8123,55.7499 69.8123,56.0389 L69.8123,65.3339 C68.8723,66.3459 67.1743,67.2149 65.9083,67.2149 C64.1343,67.2149 63.2663,66.2379 63.2663,63.7429 L63.2663,56.0389 C63.2663,55.7499 63.0123,55.4959 62.7223,55.4959 L60.9883,55.4959 C60.6993,55.4959 60.4453,55.7499 60.4453,56.0389 L60.4453,64.6479 C60.4453,67.7939 62.1443,69.9999 65.4363,69.9999 C67.4603,69.9999 69.2333,68.9159 70.1013,68.1549 L70.3913,69.4589 Z M25.8073,69.4589 C25.8803,69.6389 26.0613,69.7819 26.2763,69.7819 L27.5423,69.7819 C27.7963,69.7819 28.0503,69.5669 28.0503,69.2769 L28.0503,56.0389 C28.0503,55.7499 27.8343,55.4959 27.5093,55.4959 L25.7713,55.4959 C25.4463,55.4959 25.2283,55.7499 25.2283,56.0389 L25.2283,65.3339 C24.2883,66.3459 22.5903,67.2149 21.3243,67.2149 C19.5513,67.2149 18.6823,66.2379 18.6823,63.7429 L18.6823,56.0389 C18.6823,55.7499 18.4283,55.4959 18.1393,55.4959 L16.4053,55.4959 C16.1163,55.4959 15.8623,55.7499 15.8623,56.0389 L15.8623,64.6479 C15.8623,67.7939 17.5633,69.9999 20.8523,69.9999 C22.8803,69.9999 24.6493,68.9159 25.5183,68.1549 L25.8073,69.4589 Z M49.1683,65.1549 C49.1683,64.1409 49.3473,63.0929 51.4453,62.9099 L54.5923,62.6239 L54.6283,66.4209 C53.6153,67.0349 52.8183,67.3609 51.5893,67.3609 C50.3953,67.3609 49.1683,66.8899 49.1683,65.1549 L49.1683,65.1549 Z M47.6843,55.7499 C47.5033,55.8239 47.3593,56.0389 47.3593,56.2209 L47.3593,57.8479 C47.3593,57.9909 47.4673,58.1739 47.5743,58.2449 C47.7203,58.3169 47.8643,58.3559 48.0093,58.3169 C48.9863,57.9909 50.1053,57.6659 51.9503,57.6659 C54.2303,57.6659 54.6283,58.3559 54.6283,59.9829 L54.6283,60.2719 L51.4813,60.4889 C46.4193,60.8509 46.1653,64.1409 46.1653,65.1549 C46.1653,68.1549 47.7563,69.9999 51.5523,69.9999 C52.7473,69.9999 54.0843,69.6389 55.2423,68.9159 L55.4963,69.4589 C55.5673,69.6389 55.7503,69.7819 55.9653,69.7819 L57.0153,69.7819 C57.2663,69.7819 57.5203,69.5669 57.5203,69.2769 L57.5203,60.0179 C57.5203,56.6179 55.7143,54.9909 51.9503,54.9909 C50.3593,54.9909 48.8033,55.2809 47.6843,55.7499 L47.6843,55.7499 Z M6.6523,59.4029 C9.2943,59.4029 10.7773,60.8509 10.7773,63.3109 C10.7773,65.7699 9.2943,67.1079 6.6523,67.1079 L5.7153,67.1079 C3.7243,67.1079 2.9293,66.2749 2.9293,64.0329 L2.9293,59.4029 L6.6523,59.4029 Z M0.5423,49.6039 C0.2523,49.6039 0.0003,49.8549 0.0003,50.1439 L0.0003,63.7429 C0.0003,67.3969 1.1563,69.8169 5.7153,69.8169 L6.2563,69.8169 C12.7653,69.8169 13.7413,65.5169 13.7413,63.3109 C13.7413,61.3559 13.0193,56.7259 6.5453,56.7259 L2.9293,56.7259 L2.9293,52.3149 L11.2853,52.3149 C11.5713,52.3149 11.8253,52.0639 11.8253,51.7739 L11.8253,50.1439 C11.8253,49.8549 11.5713,49.6039 11.2853,49.6039 L0.5423,49.6039 Z M72.0183,49.6039 C72.3433,49.6039 72.5973,49.8549 72.5973,50.1439 L72.5973,51.7739 C72.5973,52.0639 72.3433,52.3149 72.0183,52.3149 L60.9883,52.3149 C60.6993,52.3149 60.4453,52.0639 60.4453,51.7739 L60.4453,50.1439 C60.4453,49.8549 60.6993,49.6039 60.9883,49.6039 L72.0183,49.6039 Z M85.7603,55.4959 C85.4713,55.4959 85.2203,55.7499 85.2203,56.0389 L85.2203,61.1759 L78.7463,61.1759 L78.7463,56.0389 C78.7463,55.7499 78.4923,55.4959 78.2033,55.4959 L76.4293,55.4959 C76.1403,55.4959 75.9233,55.7499 75.9233,56.0389 L75.9233,69.2379 C75.9233,69.5309 76.1403,69.7819 76.4293,69.7819 L78.2033,69.7819 C78.4923,69.7819 78.7463,69.5309 78.7463,69.2379 L78.7463,63.7429 L85.2203,63.7429 L85.2203,69.2379 C85.2203,69.5309 85.4713,69.7819 85.7603,69.7819 L87.5343,69.7819 C87.7873,69.7819 88.0413,69.5309 88.0413,69.2379 L88.0413,56.0389 C88.0413,55.7499 87.7873,55.4959 87.5343,55.4959 L85.7603,55.4959 Z" id="Fill-15" fill="#FFFFFF" sketch:type="MSShapeGroup"></path>
        </g>
    </g>
</svg>