<?xml version="1.0" encoding="UTF-8" standalone="no"?>
<svg width="130px" height="62px" viewBox="0 0 130 62" version="1.1" xmlns="http://www.w3.org/2000/svg" xmlns:xlink="http://www.w3.org/1999/xlink" xmlns:sketch="http://www.bohemiancoding.com/sketch/ns">
    <!-- Generator: Sketch 3.4.4 (17249) - http://www.bohemiancoding.com/sketch -->
    <title>Untitled</title>
    <desc>Created with Sketch.</desc>
    <defs></defs>
    <g id="Page-1" stroke="none" stroke-width="1" fill="none" fill-rule="evenodd" sketch:type="MSPage">
        <path d="M112.691943,28.5880906 L130,15.2656889 L111.552874,17.7600683 L110.115117,-6.03961325e-14 L107.327111,4.85062419 L99.0788076,19.6831054 L83.6569036,21.9221888 L93.0912845,28.7660023 C77.2209852,46.0082464 56.391579,53.2932229 39.730079,59.8477491 C61.0874345,55.6234318 84.566712,47.3744055 103.076034,35.7219145 L115.000455,44.4887651 L112.691943,28.5880906 Z M27.0159038,1.44715954 C23.6760823,1.3900253 18.03932,1.40521288 13.275482,2.41699509 C10.0455897,3.1026059 7.28795886,4.61847116 6.13587233,6.62395512 C5.63540537,7.49470978 5.14072415,8.84061878 5.35913603,10.107697 C5.59345871,11.4709632 6.36296284,11.917912 7.0586987,12.7047734 C4.95051777,13.900253 2.90236394,14.4535149 1.10227395,17.5105581 C-0.629110326,20.4504399 -0.285581701,23.427929 1.88479599,25.3386714 C6.2580962,29.1876385 13.7484667,26.5862227 19.5428906,25.9172459 L21.003068,20.6825929 C17.1902619,21.2951587 6.82148315,23.0583646 7.0543594,19.8559546 C7.37763791,15.3965914 15.218046,15.0393216 19.2709605,15.0154554 L20.7217362,10.3290017 L14.0789774,10.7781202 C13.1264991,10.7282182 11.8586976,10.5987621 11.7126076,9.65062311 C11.117399,5.77634344 22.9760072,6.10251483 25.5542799,6.07430932 L27.0159038,1.44715954 Z M44.2595944,6.86406355 L38.1664814,7.27123537 L33.9624142,19.9412943 C32.9238729,20.0201251 30.2226531,20.7932453 29.4517026,19.5579887 C28.9505124,18.7544933 30.0534201,16.4018646 30.3354752,15.5354493 L32.9585874,7.65960352 L26.5573835,8.10438269 L24.1360491,15.309082 C23.4620098,17.3333696 21.9092604,20.7860131 23.0830435,22.9216763 C24.2857553,25.1101345 27.5706121,25.0378127 30.4953064,24.6501677 C32.0097252,24.4498363 37.8909353,23.9095923 38.8267796,23.5082063 L44.2595944,6.86406355 Z M24.0492629,34.5553636 C27.1084757,34.0375394 29.811142,34.1286649 27.7883008,37.5943263 C26.8510101,39.2013171 24.5374352,39.9151334 22.110315,40.218885 L24.0492629,34.5553636 Z M19.6434179,48.5915817 L20.8830138,44.6977751 C24.4426936,44.1148613 27.9437927,43.4617953 30.8764423,41.2111404 C33.0974453,39.5072384 35.1860993,35.2243404 33.9421641,32.5404778 C32.655559,29.7618737 28.1050704,29.9332764 24.2640587,30.47569 C23.0027662,30.6536017 19.8133742,30.9175763 18.9281551,31.321132 L12.8690334,50.0589913 L19.6434179,48.5915817 Z M5.34250201,61.5328474 C32.5948087,59.3747644 71.4403024,47.6781571 88.3050267,31.8179829 C69.4442203,41.6768929 31.4680348,55.8816207 5.34250201,61.5328474 Z M63.9723517,24.7456325 L58.1381508,25.6004764 L54.4475686,37.0171983 C52.5245315,38.0557395 50.9023532,38.170008 50.6513965,36.8609831 C50.5183243,36.1630776 50.951532,35.0478752 51.5445709,33.4770454 C52.0161091,32.2280476 53.9471016,27.1054934 54.1929958,26.176158 L48.1917315,27.0252162 L45.1874833,36.3959539 C44.5879354,38.266196 43.3902861,43.3323392 51.0202377,41.650857 L58.7970026,39.9375532 L63.9723517,24.7456325 Z M64.0519057,8.72562709 C67.742488,7.43323624 65.7948615,16.2796408 61.8974388,17.1981278 C58.9517713,17.8924173 60.0185181,14.1707366 60.6166195,12.6881394 C61.2378639,11.1498544 62.5772639,9.24200485 64.0519057,8.72562709 Z M71.4128202,10.379627 C72.0839666,4.31761241 65.7623167,4.08545938 61.4425346,6.26017638 C55.6285838,9.18559384 51.0614612,18.9772445 57.6398535,20.845317 C61.6638394,21.9872785 70.5384494,18.279339 71.4128202,10.379627 Z M93.2373745,13.4446256 C87.4747722,13.6963055 90.8659422,6.37661451 95.407029,6.35419475 L93.2373745,13.4446256 Z M101.068381,2.81259542 L95.6261641,3.16335623 C90.0653397,3.52207243 87.5333529,6.17917595 86.4029629,9.16462051 C84.6122748,13.8915744 87.2382799,17.3312 91.9080996,16.7367146 L96.5265707,16.051827 L101.068381,2.81259542 Z M78.4432239,7.3840574 C80.7951293,7.27340503 81.9522784,7.71963063 80.9433891,10.157599 C80.2324656,11.874519 79.0456646,12.1045023 76.878903,12.1146274 L78.4432239,7.3840574 Z M75.6602804,15.5622083 C78.4511793,15.5781191 80.2700729,15.1441883 82.1453776,13.7982793 C85.203144,11.6033121 88.0909541,5.07771469 82.2025119,4.37040734 C80.3886807,4.15199545 76.5006599,4.43694341 74.631141,4.70308769 L69.7038556,19.5775156 L74.5544798,18.9772445 L75.6602804,15.5622083 Z M77.2441282,22.8782832 L71.0866488,23.759163 C68.44184,24.1374061 67.2203245,24.3348446 65.7145843,25.8434777 C64.8062223,26.7540094 63.1167846,29.202826 64.4258095,30.8640582 C65.7225397,32.5093795 68.5966086,32.3423161 69.2330406,33.1646151 C69.8694726,33.9869142 68.0165877,34.5524708 67.2897534,34.6732482 L61.6869823,35.6076461 L60.5283869,39.5462922 L69.6337035,37.4822275 C72.7319701,36.7792595 75.8852012,32.9989982 73.7683417,30.7751023 C72.2184852,29.146415 69.4514525,29.6447123 68.9748517,28.4911794 C68.7788596,28.0167483 69.8137848,27.3390928 71.9740374,26.9695284 L76.5411601,26.1877295 L77.2441282,22.8782832 Z M57.283307,5.94702292 C51.4353649,6.14373826 48.6430196,6.25728351 45.4196363,11.0608985 C44.0505843,13.1018202 41.7804025,20.4822615 40.8134598,23.2608656 L46.9882965,22.5318617 L49.5839265,14.8888922 C50.0858399,13.4120808 50.8980139,9.90230303 55.7804596,10.0831076 L57.283307,5.94702292 Z M40.6709859,36.9557247 L43.6701716,27.6659875 L37.7737739,28.5280635 L34.0831917,39.737945 C33.365036,41.9951088 34.3312555,43.9817891 35.9989966,44.4728543 C37.6667376,44.9639194 41.569946,43.7648237 42.3965844,43.4299737 L43.6954842,39.6410337 C41.1352919,40.0937683 39.3670235,40.9948981 40.6709859,36.9557247 Z" id="europa-plus" fill="#FFFFFF" sketch:type="MSShapeGroup"></path>
    </g>
</svg>