<?xml version="1.0" encoding="UTF-8" standalone="no"?>
<svg width="36px" height="36px" viewBox="0 0 36 36" version="1.1" xmlns="http://www.w3.org/2000/svg" xmlns:xlink="http://www.w3.org/1999/xlink" xmlns:sketch="http://www.bohemiancoding.com/sketch/ns">
    <!-- Generator: Sketch 3.4.4 (17249) - http://www.bohemiancoding.com/sketch -->
    <title>Untitled 2</title>
    <desc>Created with Sketch.</desc>
    <defs></defs>
    <g id="Page-1" stroke="none" stroke-width="1" fill="none" fill-rule="evenodd" sketch:type="MSPage">
        <g id="Oval-81-+-Shape" sketch:type="MSLayerGroup">
            <circle id="Oval-81" fill="#DE4938" sketch:type="MSShapeGroup" cx="18" cy="18" r="18"></circle>
            <path d="M20.2295086,20.2761779 L19.3854341,19.6207116 C19.128376,19.4075208 18.7768019,19.126092 18.7768019,18.6109162 C18.7768019,18.0936212 19.128376,17.7647225 19.4335398,17.4601945 C20.4168452,16.6862653 21.399303,15.862535 21.399303,14.1267042 C21.399303,12.3417081 20.2761308,11.4026937 19.7378558,10.9572394 L21.189291,10.9572394 L22.7127787,10 L18.0973887,10 C16.8309591,10 15.0059102,10.2996539 13.6697591,11.4026937 C12.6627187,12.2715628 12.1714898,13.4695425 12.1714898,14.5479997 C12.1714898,16.3787704 13.5771504,18.2345476 16.0593609,18.2345476 C16.2937437,18.2345476 16.550166,18.2114484 16.8082837,18.1875015 C16.6923638,18.469566 16.5751725,18.7043726 16.5751725,19.1029928 C16.5751725,19.8300878 16.9487862,20.275966 17.2781087,20.6983211 C16.2233865,20.7707975 14.2544444,20.887565 12.8030093,21.7797452 C11.4206598,22.6017801 11,23.7982764 11,24.6427747 C11,26.3809367 12.638348,28 16.035626,28 C20.0642115,28 22.1969672,25.7708211 22.1969672,23.5641056 C22.1971791,21.9427112 21.2604959,21.1446231 20.2295086,20.2761779 L20.2295086,20.2761779 Z M17.1611293,17.5767501 C15.1457769,17.5767501 14.2328287,14.9714144 14.2328287,13.3993972 C14.2328287,12.7873743 14.3487485,12.155431 14.7473687,11.661871 C15.1231016,11.191834 15.7775083,10.8868822 16.3884716,10.8868822 C18.3313476,10.8868822 19.3390238,13.515529 19.3390238,15.206221 C19.3390238,15.6292119 19.2924015,16.3787704 18.7537027,16.920648 C18.3769102,17.2965928 17.7464504,17.5767501 17.1611293,17.5767501 L17.1611293,17.5767501 Z M17.1842285,27.0162707 C14.6780711,27.0162707 13.0619746,25.8174433 13.0619746,24.1504862 C13.0619746,22.483953 14.5604559,21.9202477 15.0760555,21.7335468 C16.0593609,21.4027408 17.324731,21.3565424 17.5358026,21.3565424 C17.7699734,21.3565424 17.8871648,21.3565424 18.0736537,21.3800655 C19.8552591,22.6479785 20.6285526,23.2799218 20.6285526,24.4802326 C20.6285526,25.933787 19.4335398,27.0162707 17.1842285,27.0162707 Z M26.1450234,17.5409357 L26.1450234,15.1939297 L24.985825,15.1939297 L24.985825,17.5409357 L22.6426335,17.5409357 L22.6426335,18.7130613 L24.985825,18.7130613 L24.985825,21.0744779 L26.1450234,21.0744779 L26.1450234,18.7130613 L28.5000824,18.7130613 L28.5000824,17.5409357 L26.1450234,17.5409357 Z" id="Shape" fill="#FFFFFF" sketch:type="MSShapeGroup"></path>
        </g>
    </g>
</svg>