<?xml version="1.0" encoding="UTF-8" standalone="no"?>
<svg width="83px" height="67px" viewBox="0 0 83 67" version="1.1" xmlns="http://www.w3.org/2000/svg" xmlns:xlink="http://www.w3.org/1999/xlink" xmlns:sketch="http://www.bohemiancoding.com/sketch/ns">
    <!-- Generator: Sketch 3.4.4 (17249) - http://www.bohemiancoding.com/sketch -->
    <title>Slice 1</title>
    <desc>Created with Sketch.</desc>
    <defs></defs>
    <g id="Page-1" stroke="none" stroke-width="1" fill="none" fill-rule="evenodd" sketch:type="MSPage">
        <g id="Icon-02" sketch:type="MSLayerGroup" transform="translate(1.000000, 1.000000)" stroke="#126BEE">
            <path d="M4.5,0.5 L76.5,0.5 C78.709,0.5 80.5,2.291 80.5,4.5 L80.5,60.5 C80.5,62.709 78.709,64.5 76.5,64.5 L4.5,64.5 C2.291,64.5 0.5,62.709 0.5,60.5 L0.5,4.5 C0.5,2.291 2.291,0.5 4.5,0.5 L4.5,0.5 Z" id="Stroke-9" stroke-width="2" sketch:type="MSShapeGroup"></path>
            <path d="M67.5,7.5 C70.813,7.5 73.5,10.187 73.5,13.5 C73.5,16.814 70.813,19.5 67.5,19.5 C64.187,19.5 61.5,16.814 61.5,13.5 C61.5,10.187 64.187,7.5 67.5,7.5 L67.5,7.5 Z" id="Stroke-3" sketch:type="MSShapeGroup"></path>
            <path d="M33.5,23.5 C37.918,23.5 41.5,27.082 41.5,31.5 C41.5,35.918 37.918,39.5 33.5,39.5 C29.082,39.5 25.5,35.918 25.5,31.5 C25.5,27.082 29.082,23.5 33.5,23.5 L33.5,23.5 Z" id="Stroke-5" sketch:type="MSShapeGroup"></path>
            <path d="M33.5,6.5 C47.307,6.5 58.5,17.693 58.5,31.5 C58.5,45.307 47.307,56.5 33.5,56.5 C19.693,56.5 8.5,45.307 8.5,31.5 C8.5,17.693 19.693,6.5 33.5,6.5 L33.5,6.5 Z" id="Stroke-7" sketch:type="MSShapeGroup"></path>
            <path d="M7.5,57.5 L11.5,57.5" id="Stroke-1" sketch:type="MSShapeGroup"></path>
            <path d="M67.5,19.5 L67.5,45.5 L58.5,56.5" id="Stroke-2" sketch:type="MSShapeGroup"></path>
        </g>
    </g>
</svg>