<?xml version="1.0" encoding="UTF-8" standalone="no"?>
<svg version="1.1" xmlns="http://www.w3.org/2000/svg" xmlns:xlink="http://www.w3.org/1999/xlink" xmlns:sketch="http://www.bohemiancoding.com/sketch/ns">

    <!-- Generator: Sketch 3.4.4 (17249) - http://www.bohemiancoding.com/sketch -->
    <title>backpack</title>
    <desc>Created with Sketch.</desc>
    <defs></defs>
    <g id="Page-1" stroke="none" stroke-width="1" fill="none" fill-rule="evenodd" sketch:type="MSPage">
        <g id="05-About" sketch:type="MSArtboardGroup" transform="translate(-1294.000000, -5730.000000)" stroke="#126BEE" stroke-width="2" stroke-linecap="round" stroke-linejoin="round">
            <g id="Content" sketch:type="MSLayerGroup" transform="translate(481.000000, 5640.000000)">
                <g id="backpack" transform="translate(814.000000, 91.000000)" sketch:type="MSShapeGroup">
                    <rect id="Rectangle-289" x="7" y="23" width="39" height="45" rx="4"></rect>
                    <path d="M12.691949,8.81982592 C13.1444871,7.81476382 14.4050168,7 15.5117168,7 L36.210879,7 C37.3156557,7 38.619545,7.79344249 39.1238195,8.7734127 L44.6173213,19.4490814 C45.6264764,21.4101996 44.6550621,23 42.4492955,23 L10.3024634,23 C8.09594063,23 7.04431437,21.3629108 7.950946,19.349332 L12.691949,8.81982592 Z" id="Rectangle-290"></path>
                    <path d="M16,18 L16,29" id="Path-4793"></path>
                    <path d="M36,18 L36,29" id="Path-4793"></path>
                    <path d="M18,7 C18,7 18.5405242,9.52706758e-16 22.9718578,0 L29.1468645,0 C29.1468645,0 34,0.258735503 34,6.89577254" id="Path-4795"></path>
                    <path d="M6.83143089,37 L1.41900825,40.7004427 C1.41900825,40.7004427 0.00134668904,41.3817019 0.00134668904,45.3989179 L0.00134668904,54.2405757 C0.00134668904,54.2405757 -0.272753224,59 7,59" id="Path-4796"></path>
                    <path d="M0,45 L7,45" id="Path-4797"></path>
                    <path d="M52.8314309,37 L47.4190082,40.7004427 C47.4190082,40.7004427 46.0013467,41.3817019 46.0013467,45.3989179 L46.0013467,54.2405757 C46.0013467,54.2405757 45.7272468,59 53,59" id="Path-4796" transform="translate(49.500000, 48.000000) scale(-1, 1) translate(-49.500000, -48.000000) "></path>
                    <path d="M46,44 L53,44" id="Path-4797" transform="translate(49.500000, 44.000000) scale(-1, 1) translate(-49.500000, -44.000000) "></path>
                    <rect id="Rectangle-291" x="15" y="39" width="23" height="19"></rect>
                    <path d="M17,45 L37,45" id="Path-4800"></path>
                    <path d="M31,46 L31,49" id="Path-4801"></path>
                </g>
            </g>
        </g>
    </g>
</svg>
