<?xml version="1.0" encoding="utf-8"?>
<!-- Generator: Adobe Illustrator 19.0.0, SVG Export Plug-In . SVG Version: 6.00 Build 0)  -->
<svg width="68px" height="100px" version="1.1" id="Слой_1" xmlns:sketch="http://www.bohemiancoding.com/sketch/ns"
	 xmlns="http://www.w3.org/2000/svg" xmlns:xlink="http://www.w3.org/1999/xlink" x="0px" y="0px" viewBox="-263 370.9 68 100"
	 style="enable-background:new -263 370.9 68 100;" xml:space="preserve">
<style type="text/css">
	.st0{fill:none;stroke:#126BEE;stroke-width:2;stroke-linejoin:round;}
	.st1{fill:none;stroke:#126BEE;stroke-linejoin:round;}
</style>
<title>Slice 1</title>
<desc>Created with Sketch.</desc>
<g id="Page-1" sketch:type="MSPage">
	<g id="Icon-01" transform="translate(1.000000, 1.000000)" sketch:type="MSLayerGroup">
		<path id="Stroke-1" sketch:type="MSShapeGroup" class="st0" d="M-197.5,413.3l-6-3.8v-5.8c0,0-0.8-4.1-2.4-4.7c0,0,0-0.1,0-0.1
			l0,0.1c-0.2-0.1-0.4-0.1-0.6-0.1c0,0-4.2-10.6-17-13.6c-4.5-1-9.5-1-13.8,0c-12.9,2.9-17.2,13.7-17.2,13.7c-0.2,0-0.4,0-0.6,0.1
			l0-0.1c0,0,0,0,0,0.1c-1.6,0.6-2.4,4.7-2.4,4.7v5.8l-5.4,3.2l2.4,15.6l4.6,2.5c0.1,0.1,0.1,0.3,0.2,0.5c1.5,2.6,4.8,12.3,9,18.6
			c2.5,3.8,7.9,4.8,11.8,4.9c3.1,0.1,5.9,0.2,9.5,0c3.8-0.2,8.8-1.3,11.2-4.9c4.2-6.3,7.5-16,9-18.6c0.1-0.1,0.1-0.3,0.2-0.4
			l5.2-2.6L-197.5,413.3L-197.5,413.3z"/>
		<path id="Stroke-3" sketch:type="MSShapeGroup" class="st1" d="M-217.9,413.3c-0.1-6.2-1.2-15.6-1.2-15.6 M-242.5,412.6
			c0,0,0.2-12.6,1.2-15"/>
		<path id="Stroke-5" sketch:type="MSShapeGroup" class="st1" d="M-213.1,421.1c0,0-2.6-3.6-6.6-3.6c-4,0-5.4,3.6-5.4,3.6s1.5,3,6,3
			S-213.1,421.1-213.1,421.1L-213.1,421.1z"/>
		<path id="Stroke-7" sketch:type="MSShapeGroup" class="st1" d="M-247.9,421.1c0,0,2.6-3.6,6.6-3.6c4,0,5.4,3.6,5.4,3.6s-1.5,3-6,3
			C-246.4,424.1-247.9,421.1-247.9,421.1L-247.9,421.1z"/>
		<path id="Stroke-9" sketch:type="MSShapeGroup" class="st1" d="M-235.9,430.6c0,0-1.1,3.5,1.2,3c2.3-0.5,2.3,0.1,4.2,0
			c1.9-0.1,1.6-0.3,3.6,0c2,0.3,2.7-0.2,2.4-3"/>
		<path id="Stroke-11" sketch:type="MSShapeGroup" class="st1" d="M-226.3,443.9h-7.2 M-244.9,442.7c0,0,6-1.3,8.4-3
			c1.9-1.3,4.5-0.6,6-0.6c1.5,0,3.4-0.5,4.8,0c1.4,0.5,5.7,3.3,9.6,3.6"/>
		<path id="Stroke-13" sketch:type="MSShapeGroup" class="st1" d="M-210.1,432.4c0,0-2.4-1.9-8.4-3c-6-1.1-6.6-4.5-8.4-6
			c-1.8-1.5-6.3-0.8-7.8,0.6c-1.5,1.4-3.8,4.4-7.8,5.4c-4,1-6.9,1.6-8.4,3 M-253.3,419.3c0,0,4.5-6,11.4-6c6.9,0,5.4,2.4,11.4,2.4
			s6.4-2.4,12-2.4c5.6,0,10.8,6,10.8,6"/>
		<path id="Stroke-15" sketch:type="MSShapeGroup" class="st1" d="M-205.9,398.9c0,0-0.7,2.8-3,4.2l1.8,22.8c0,0,0.1,3.1-3,6.6
			c-3.1,3.5-6,6.6-6,10.2c0,3.6-4,5.8-5.4,7.2c-1.4,1.4-5.4,4.8-5.4,4.8"/>
		<path id="Stroke-17" sketch:type="MSShapeGroup" class="st1" d="M-255.1,398.9c0,0,0.7,2.8,3,4.2l-1.8,22.8c0,0-0.1,3.1,3,6.6
			c3.1,3.5,6,6.6,6,10.2c0,3.6,4,5.8,5.4,7.2c1.4,1.4,5.4,4.8,5.4,4.8"/>
		<path id="Stroke-19" sketch:type="MSShapeGroup" class="st1" d="M-248.5,391.1v3c0,0,2.1,4.2,18,4.2s18-4.2,18-4.2v-3"/>
	</g>
</g>
</svg>
