<?xml version="1.0" encoding="UTF-8" standalone="no"?>
<svg width="78px" height="54px" viewBox="0 0 78 54" version="1.1" xmlns="http://www.w3.org/2000/svg" xmlns:xlink="http://www.w3.org/1999/xlink" xmlns:sketch="http://www.bohemiancoding.com/sketch/ns">
    <!-- Generator: Sketch 3.4.4 (17249) - http://www.bohemiancoding.com/sketch -->
    <title>Book</title>
    <desc>Created with Sketch.</desc>
    <defs></defs>
    <g id="Page-1" stroke="none" stroke-width="1" fill="none" fill-rule="evenodd" sketch:type="MSPage">
        <g id="05-About" sketch:type="MSArtboardGroup" transform="translate(-686.000000, -6195.000000)" stroke-linecap="round" stroke="#FFFFFF">
            <g id="Dop" sketch:type="MSLayerGroup" transform="translate(250.000000, 6150.000000)">
                <g id="Book" transform="translate(437.000000, 46.000000)" sketch:type="MSShapeGroup">
                    <path d="M7.17471666,0.952148438 L32.7423936,0.952148438 C32.7423936,0.952148438 37.1132812,1.43554688 37.1132812,6.51074219 C37.1132813,11.5859375 37.1132812,45.1212806 37.1132812,45.1212806 C37.1132812,45.1212806 37.0664062,41.0361328 31.4902344,41.0361328 L7.17471666,41.0361328 L7.17471666,0.952148438 Z" id="Path-5100" stroke-width="2" stroke-linejoin="round"></path>
                    <path d="M37.1747167,0.952148438 L62.7423936,0.952148438 C62.7423936,0.952148438 67.1132812,1.43554688 67.1132812,6.51074219 C67.1132813,11.5859375 67.1132812,45.1212806 67.1132812,45.1212806 C67.1132812,45.1212806 67.0664062,41.0361328 61.4902344,41.0361328 L37.1747167,41.0361328 L37.1747167,0.952148438 Z" id="Path-5100" stroke-width="2" stroke-linejoin="round" transform="translate(52.143999, 23.036715) scale(-1, 1) translate(-52.143999, -23.036715) "></path>
                    <path d="M7.16601563,3.95214844 C7.16601563,3.95214844 0.103773299,3.94284469 0.10377297,11.0143911 C0.10377264,18.0859375 0.10377297,40.571494 0.10377297,40.571494 C0.10377297,40.571494 -0.344726269,47.4326173 7.63964844,47.4326172 C15.6240231,47.4326171 31.1523273,47.4326172 31.1523273,47.4326172 C31.1523273,47.4326172 31.8457025,51.5644532 37.1894531,51.5644531 C42.5332038,51.5644531 43.4033203,47.5361328 43.4033203,47.5361328 L69.7058684,47.5361328 C69.7058684,47.5361328 75.0761712,47.2949219 75.0761719,40.9130859 C75.0761725,34.5312499 75.0761719,11.0143911 75.0761719,11.0143911 C75.0761719,11.0143911 75.0761725,3.73730468 67.6474609,3.95214844" id="Path-5110" stroke-width="2" stroke-linejoin="round"></path>
                    <path d="M14,9 L29.1466324,9" id="Path-5101"></path>
                    <path d="M14,17 L29.1466324,17" id="Path-5101-Copy"></path>
                    <path d="M14,25 L29.1466324,25" id="Path-5101-Copy-2"></path>
                    <path d="M14,33 L29.1466324,33" id="Path-5101-Copy-3"></path>
                    <path d="M45,9 L60.1466324,9" id="Path-5101" transform="translate(52.573316, 9.000000) scale(-1, 1) translate(-52.573316, -9.000000) "></path>
                    <path d="M45,17 L60.1466324,17" id="Path-5101-Copy" transform="translate(52.573316, 17.000000) scale(-1, 1) translate(-52.573316, -17.000000) "></path>
                    <path d="M45,25 L60.1466324,25" id="Path-5101-Copy-2" transform="translate(52.573316, 25.000000) scale(-1, 1) translate(-52.573316, -25.000000) "></path>
                    <path d="M45,33 L60.1466324,33" id="Path-5101-Copy-3" transform="translate(52.573316, 33.000000) scale(-1, 1) translate(-52.573316, -33.000000) "></path>
                </g>
            </g>
        </g>
    </g>
</svg>