<?xml version="1.0" encoding="UTF-8" standalone="no"?>
<svg version="1.1" xmlns="http://www.w3.org/2000/svg" xmlns:xlink="http://www.w3.org/1999/xlink" xmlns:sketch="http://www.bohemiancoding.com/sketch/ns">

    <!-- Generator: Sketch 3.4.4 (17249) - http://www.bohemiancoding.com/sketch -->
    <title>Car</title>
    <desc>Created with Sketch.</desc>
    <defs></defs>
    <g id="Page-1" stroke="none" stroke-width="1" fill="none" fill-rule="evenodd" sketch:type="MSPage">
        <g id="05-About" sketch:type="MSArtboardGroup" transform="translate(-951.000000, -1630.000000)" stroke="#126BEE">
            <g id="How" sketch:type="MSLayerGroup" transform="translate(481.000000, 1304.000000)">
                <g id="Group" transform="translate(4.000000, 316.000000)" sketch:type="MSShapeGroup">
                    <g id="Car" transform="translate(467.000000, 11.000000)">
                        <path d="M34,8 L15,8 C13.603796,8 12.0984579,8.54982818 11,10 C9.64531435,11.5738832 6,16 6,16 C6,16 5.26953125,17 4,17 L1,17 C0.557532622,17.0171821 0,17.5670103 0,18 L0,20 C0,20.4810997 0.557532622,21.0309278 1,21 L4,21 C3.40094899,22.8453608 3.06642942,24.9347079 3,27 L3,39 C3.06642942,39.4501718 3.62396204,40 4,40 L9,40 C9.81257414,40 10.3701068,39.4501718 10,39 L10,35 C14.8303677,35.8213058 19.7924081,36.0412371 25,36 C30.2740214,36.0412371 35.2360617,35.8213058 40,35 L40,39 C39.6963227,39.4501718 40.2538553,40 41,40 L46,40 C46.4424674,40 47,39.4501718 47,39 L47,27 C47,24.9347079 46.6654804,22.8453608 46,21" id="Shape" stroke-width="2" stroke-linejoin="round"></path>
                        <path d="M35,28 C34.5862224,28 32,25 32,25 C31.8323905,24.4 32.004505,24 33,24 L43,24 C43.3640614,24 43.8230334,24.4666667 44,25 L44,27 C44.0525193,27.4666667 43.5935474,28 43,28 L35,28 Z" id="Path"></path>
                        <path d="M38,20 L9,20 C8.55674025,20 8,19.4339623 8,19 L8,18 C8,18 11.3961155,13.7735849 12,13 C13.2333583,11.4528302 14.4581868,11 16,11 L21,11 C21.3617659,11.9622642 23,13 23,13 L26,13 C26,13 27.8756268,11.9622642 28,11 L34,11" id="Path"></path>
                        <path d="M15,28 L7,28 C6.40361028,28 6,27.4586276 6,27 L6,25 C6.17297584,24.4810796 6.69190334,24.0073788 7,24 L17,24 C17.9929913,23.9397073 18.1659671,24.3457365 18,25 C18,25 15.3983538,28 15,28 Z" id="Path"></path>
                        <g id="clock" transform="translate(34.000000, 0.000000)" stroke-linecap="round" stroke-linejoin="round">
                            <circle id="Oval-217" stroke-width="2" cx="10.5" cy="10.5" r="10.5"></circle>
                            <path d="M10.5812217,3.40402704 L10.5812217,10.4971577 L14.5564003,14.4723362" id="Path-7717"></path>
                        </g>
                    </g>
                </g>
            </g>
        </g>
    </g>
</svg>
