<?xml version="1.0" encoding="utf-8"?>
<!-- Generator: Adobe Illustrator 19.0.0, SVG Export Plug-In . SVG Version: 6.00 Build 0)  -->
<svg width="95px" height="100px" version="1.1" id="Слой_1" xmlns:sketch="http://www.bohemiancoding.com/sketch/ns"
	 xmlns="http://www.w3.org/2000/svg" xmlns:xlink="http://www.w3.org/1999/xlink" x="0px" y="0px" viewBox="-250 371.4 95 100"
	 style="enable-background:new -250 371.4 95 100;" xml:space="preserve">
<style type="text/css">
	.st0{fill:none;stroke:#126BEE;}
	.st1{fill:none;stroke:#126BEE;stroke-width:2;}
</style>
<title>Slice 1</title>
<desc>Created with Sketch.</desc>
<g id="Page-1" sketch:type="MSPage">
	<g id="icon-4" sketch:type="MSLayerGroup">
		<path id="Stroke-1" sketch:type="MSShapeGroup" class="st0" d="M-249.5,437.7c0-9.4,7.4-17,16.4-17h8.8c5.2,0,9.9,2.5,12.9,6.5"/>
		<path id="Stroke-3" sketch:type="MSShapeGroup" class="st0" d="M-230,395.9c5,0,9.1,4.1,9.1,9.2c0,5.1-4.1,9.2-9.1,9.2
			c-5,0-9.1-4.1-9.1-9.2C-239.1,400-235,395.9-230,395.9L-230,395.9z"/>
		<path id="Stroke-5" sketch:type="MSShapeGroup" class="st0" d="M-155.8,437.7c0-9.4-7.4-17-16.4-17h-8.8c-5.2,0-9.9,2.5-12.9,6.5"
			/>
		<path id="Stroke-7" sketch:type="MSShapeGroup" class="st0" d="M-175.3,395.9c-5,0-9.1,4.1-9.1,9.2c0,5.1,4.1,9.2,9.1,9.2
			c5,0,9.1-4.1,9.1-9.2C-166.2,400-170.3,395.9-175.3,395.9L-175.3,395.9z"/>
		<path id="Stroke-9" sketch:type="MSShapeGroup" class="st1" d="M-227.4,446.9c0-10.8,8.7-19.6,19.5-19.6h10.4
			c10.8,0,19.5,8.8,19.5,19.6"/>
		<path id="Stroke-11" sketch:type="MSShapeGroup" class="st1" d="M-202.7,398.5c6.5,0,11.7,5.3,11.7,11.8s-5.2,11.8-11.7,11.8
			s-11.7-5.3-11.7-11.8S-209.1,398.5-202.7,398.5L-202.7,398.5z"/>
	</g>
</g>
</svg>
