<?xml version="1.0" encoding="utf-8"?>
<!-- Generator: Adobe Illustrator 19.0.0, SVG Export Plug-In . SVG Version: 6.00 Build 0)  -->
<svg width="83px" height="100px" version="1.1" id="Слой_1" xmlns:sketch="http://www.bohemiancoding.com/sketch/ns"
	 xmlns="http://www.w3.org/2000/svg" xmlns:xlink="http://www.w3.org/1999/xlink" x="0px" y="0px" viewBox="-256 371.4 83 100"
	 style="enable-background:new -256 371.4 83 100;" xml:space="preserve">
<style type="text/css">
	.st0{fill:none;stroke:#126BEE;stroke-width:2;}
	.st1{fill:none;stroke:#126BEE;}
</style>
<title>Slice 1</title>
<desc>Created with Sketch.</desc>
<g id="Page-1" sketch:type="MSPage">
	<g id="Icon-02" transform="translate(1.000000, 1.000000)" sketch:type="MSLayerGroup">
		<path id="Stroke-9" sketch:type="MSShapeGroup" class="st0" d="M-251.5,388.4h72c2.2,0,4,1.8,4,4v56c0,2.2-1.8,4-4,4h-72
			c-2.2,0-4-1.8-4-4v-56C-255.5,390.2-253.7,388.4-251.5,388.4L-251.5,388.4z"/>
		<path id="Stroke-3" sketch:type="MSShapeGroup" class="st1" d="M-188.5,395.4c3.3,0,6,2.7,6,6c0,3.3-2.7,6-6,6s-6-2.7-6-6
			C-194.5,398.1-191.8,395.4-188.5,395.4L-188.5,395.4z"/>
		<path id="Stroke-5" sketch:type="MSShapeGroup" class="st1" d="M-222.5,411.4c4.4,0,8,3.6,8,8s-3.6,8-8,8s-8-3.6-8-8
			S-226.9,411.4-222.5,411.4L-222.5,411.4z"/>
		<path id="Stroke-7" sketch:type="MSShapeGroup" class="st1" d="M-222.5,394.4c13.8,0,25,11.2,25,25c0,13.8-11.2,25-25,25
			s-25-11.2-25-25C-247.5,405.6-236.3,394.4-222.5,394.4L-222.5,394.4z"/>
		<path id="Stroke-1" sketch:type="MSShapeGroup" class="st1" d="M-248.5,445.4h4"/>
		<path id="Stroke-2" sketch:type="MSShapeGroup" class="st1" d="M-188.5,407.4v26l-9,11"/>
	</g>
</g>
</svg>
