<?xml version="1.0" encoding="UTF-8" standalone="no"?>
<svg width="68px" height="74px" viewBox="0 0 68 74" version="1.1" xmlns="http://www.w3.org/2000/svg" xmlns:xlink="http://www.w3.org/1999/xlink" xmlns:sketch="http://www.bohemiancoding.com/sketch/ns">
    <!-- Generator: Sketch 3.4.4 (17249) - http://www.bohemiancoding.com/sketch -->
    <title>Slice 1</title>
    <desc>Created with Sketch.</desc>
    <defs></defs>
    <g id="Page-1" stroke="none" stroke-width="1" fill="none" fill-rule="evenodd" sketch:type="MSPage">
        <g id="Icon-01" sketch:type="MSLayerGroup" transform="translate(1.000000, 1.000000)" stroke="#126BEE" stroke-linejoin="round">
            <path d="M65.4902,29.3604 L59.4902,25.5424 L59.4902,19.7594 C59.4902,19.7594 58.7072,15.6594 57.0702,15.0384 C57.0802,15.0004 57.0912,14.9604 57.0912,14.9604 L57.0622,15.0364 C56.8812,14.9684 56.6922,14.9314 56.4902,14.9604 C56.4902,14.9604 52.2572,4.3184 39.4602,1.3314 C34.9972,0.2894 29.9302,0.3294 25.6812,1.2944 C12.7592,4.2294 8.4902,14.9604 8.4902,14.9604 C8.2882,14.9314 8.0992,14.9684 7.9192,15.0354 L7.8902,14.9604 C7.8902,14.9604 7.9012,15.0004 7.9112,15.0384 C6.2732,15.6584 5.4902,19.7594 5.4902,19.7594 L5.4902,25.5204 L0.0912,28.7594 L2.4902,44.3604 L7.0722,46.9054 C7.1452,47.0554 7.2102,47.2204 7.2902,47.3604 C8.7992,49.9774 12.1062,59.6824 16.2902,65.9604 C18.8192,69.7544 24.2092,70.7154 28.0772,70.8814 C31.1942,71.0164 34.0262,71.0724 37.5282,70.8484 C41.3332,70.6064 46.2962,69.5534 48.6902,65.9604 C52.8742,59.6824 56.1822,49.9774 57.6902,47.3604 C57.7602,47.2394 57.8142,47.0944 57.8792,46.9654 L63.0912,44.3604 L65.4902,29.3604 L65.4902,29.3604 Z" id="Stroke-1" stroke-width="2" sketch:type="MSShapeGroup"></path>
            <path d="M45.0908,29.3604 C44.9778,23.2054 43.8908,13.7604 43.8908,13.7604 M20.4898,28.7594 C20.4898,28.7594 20.7288,16.1714 21.6908,13.7604" id="Stroke-3" sketch:type="MSShapeGroup"></path>
            <path d="M49.8896,37.1602 C49.8896,37.1602 47.2676,33.5602 43.2896,33.5602 C39.3136,33.5602 37.8896,37.1602 37.8896,37.1602 C37.8896,37.1602 39.4166,40.1602 43.8906,40.1602 C48.3646,40.1602 49.8896,37.1602 49.8896,37.1602 L49.8896,37.1602 Z" id="Stroke-5" sketch:type="MSShapeGroup"></path>
            <path d="M15.0908,37.1602 C15.0908,37.1602 17.7138,33.5602 21.6908,33.5602 C25.6668,33.5602 27.0908,37.1602 27.0908,37.1602 C27.0908,37.1602 25.5638,40.1602 21.0908,40.1602 C16.6168,40.1602 15.0908,37.1602 15.0908,37.1602 L15.0908,37.1602 Z" id="Stroke-7" sketch:type="MSShapeGroup"></path>
            <path d="M27.0908,46.7598 C27.0908,46.7598 26.0068,50.3058 28.2898,49.7608 C30.5748,49.2138 30.5898,49.8698 32.4898,49.7608 C34.3918,49.6498 34.0818,49.4338 36.0908,49.7608 C38.0988,50.0868 38.7728,49.5398 38.4898,46.7598" id="Stroke-9" sketch:type="MSShapeGroup"></path>
            <path d="M36.6904,59.96 L29.4904,59.96 M18.0904,58.761 C18.0904,58.761 24.0424,57.508 26.4904,55.76 C28.3934,54.448 31.0264,55.16 32.4904,55.16 C33.9554,55.16 35.9364,54.618 37.2904,55.16 C38.6434,55.702 42.9784,58.492 46.8894,58.761" id="Stroke-11" sketch:type="MSShapeGroup"></path>
            <path d="M52.8906,48.5596 C52.8906,48.5596 50.4466,46.7046 44.4906,45.5606 C38.5346,44.4156 37.8996,41.0296 36.0906,39.5596 C34.2826,38.0906 29.8236,38.7396 28.2896,40.1606 C26.7576,41.5806 24.4726,44.5236 20.4906,45.5606 C16.5076,46.5966 13.5616,47.1426 12.0906,48.5596 M9.6906,35.3606 C9.6906,35.3606 14.2236,29.3606 21.0906,29.3606 C27.9576,29.3606 26.4466,31.7606 32.4906,31.7606 C38.5346,31.7606 38.8876,29.3606 44.4906,29.3606 C50.0926,29.3606 55.2896,35.3606 55.2896,35.3606" id="Stroke-13" sketch:type="MSShapeGroup"></path>
            <path d="M57.0908,14.96 C57.0908,14.96 56.4368,17.785 54.0908,19.16 L55.8908,41.96 C55.8908,41.96 55.9988,45.071 52.8908,48.56 C49.7808,52.05 46.8898,55.111 46.8898,58.761 C46.8898,62.409 42.9038,64.605 41.4898,65.96 C40.0768,67.315 36.0908,70.76 36.0908,70.76" id="Stroke-15" sketch:type="MSShapeGroup"></path>
            <path d="M7.8906,14.96 C7.8906,14.96 8.5436,17.785 10.8896,19.16 L9.0906,41.96 C9.0906,41.96 8.9816,45.071 12.0906,48.56 C15.1996,52.05 18.0906,55.111 18.0906,58.761 C18.0906,62.409 22.0776,64.605 23.4906,65.96 C24.9046,67.315 28.8906,70.76 28.8906,70.76" id="Stroke-17" sketch:type="MSShapeGroup"></path>
            <path d="M14.4902,7.1602 L14.4902,10.1602 C14.4902,10.1602 16.6322,14.3602 32.4902,14.3602 C48.3482,14.3602 50.4902,10.1602 50.4902,10.1602 L50.4902,7.1602" id="Stroke-19" sketch:type="MSShapeGroup"></path>
        </g>
    </g>
</svg>