<?xml version="1.0" encoding="utf-8"?>
<!-- Generator: Adobe Illustrator 19.0.0, SVG Export Plug-In . SVG Version: 6.00 Build 0)  -->
<svg width="69px" height="100px" version="1.1" id="Слой_1" xmlns:sketch="http://www.bohemiancoding.com/sketch/ns"
	 xmlns="http://www.w3.org/2000/svg" xmlns:xlink="http://www.w3.org/1999/xlink" x="0px" y="0px" viewBox="-263 370.9 69 100"
	 style="enable-background:new -263 370.9 69 100;" xml:space="preserve">
<style type="text/css">
	.st0{fill:none;stroke:#126BEE;stroke-width:2;}
</style>
<title>Slice 1</title>
<desc>Created with Sketch.</desc>
<g id="Page-1_2_" sketch:type="MSPage">
	<g id="icon-3" transform="translate(1.000000, 1.000000)" sketch:type="MSLayerGroup">
		<path id="Page-1" sketch:type="MSShapeGroup" class="st0" d="M-197,429.9v-8 M-203,421.9v11 M-209,434.9v-13 M-215,421.9v19
			 M-221,445.9v-24 M-227,421.9v22 M-233,433.9v-12 M-239,421.9v21 M-245,454.9v-33 M-251,421.9v25 M-257,437.9v-16 M-263,421.9v7"
			/>
		<path id="Page-1_1_" sketch:type="MSShapeGroup" class="st0" d="M-197,409.9v8 M-203,417.9v-11 M-209,404.9v13 M-215,417.9v-19
			 M-221,393.9v24 M-227,417.9v-22 M-233,405.9v12 M-239,417.9v-21 M-245,384.9v33 M-251,417.9v-25 M-257,401.9v16 M-263,417.9v-7"
			/>
	</g>
</g>
</svg>
