<?xml version="1.0" encoding="UTF-8" standalone="no"?>
<svg preserveAspectRatio="none" version="1.1" xmlns="http://www.w3.org/2000/svg" xmlns:xlink="http://www.w3.org/1999/xlink" xmlns:sketch="http://www.bohemiancoding.com/sketch/ns">

    <!-- Generator: Sketch 3.4.4 (17249) - http://www.bohemiancoding.com/sketch -->
    <title>Slice 1</title>
    <desc>Created with Sketch.</desc>
    <defs></defs>
    <g id="Page-1" stroke="none" stroke-width="1" fill="none" fill-rule="evenodd" sketch:type="MSPage">
        <g id="icon-5" sketch:type="MSLayerGroup" transform="translate(1.000000, 1.000000)" stroke="#126BEE">
            <path d="M0,0 L8,0 L8,8 L0,8 L0,0 Z" id="Stroke-1" sketch:type="MSShapeGroup"></path>
            <path d="M0,0 L13,0 L13,13 L0,13 L0,0 Z" id="Stroke-3" sketch:type="MSShapeGroup"></path>
            <path d="M0,0 L23,0 L23,23 L0,23 L0,0 Z" id="Stroke-4" sketch:type="MSShapeGroup"></path>
            <path d="M0,0 L40,0 L40,40 L0,40 L0,0 Z" id="Stroke-5" sketch:type="MSShapeGroup"></path>
            <path d="M0,0 L54,0 L54,54 L0,54 L0,0 Z" id="Stroke-6" sketch:type="MSShapeGroup"></path>
            <path d="M0,0 L66,0 L66,66 L0,66 L0,0 Z" id="Stroke-7" stroke-width="2" sketch:type="MSShapeGroup"></path>
        </g>
    </g>
</svg>
