<?xml version="1.0" encoding="UTF-8" standalone="no"?>
<svg width="69px" height="72px" viewBox="0 0 69 72" version="1.1" xmlns="http://www.w3.org/2000/svg" xmlns:xlink="http://www.w3.org/1999/xlink" xmlns:sketch="http://www.bohemiancoding.com/sketch/ns">
    <!-- Generator: Sketch 3.4.4 (17249) - http://www.bohemiancoding.com/sketch -->
    <title>Slice 1</title>
    <desc>Created with Sketch.</desc>
    <defs></defs>
    <g id="Page-1" stroke="none" stroke-width="1" fill="none" fill-rule="evenodd" sketch:type="MSPage">
        <g id="icon-3" sketch:type="MSLayerGroup" transform="translate(1.000000, 1.000000)" stroke="#126BEE" stroke-width="2">
            <path d="M66,45 L66,37 M60,37 L60,48 M54,50 L54,37 M48,37 L48,56 M42,61 L42,37 M36,37 L36,59 M30,49 L30,37 M24,37 L24,58 M18,70 L18,37 M12,37 L12,62 M6,53 L6,37 M0,37 L0,44" id="Page-1" sketch:type="MSShapeGroup"></path>
            <path d="M66,8 L66,0 M60,0 L60,11 M54,13 L54,0 M48,0 L48,19 M42,24 L42,0 M36,0 L36,22 M30,12 L30,0 M24,0 L24,21 M18,33 L18,0 M12,0 L12,25 M6,16 L6,0 M0,0 L0,7" id="Page-1" sketch:type="MSShapeGroup" transform="translate(33.500000, 16.500000) scale(1, -1) translate(-33.500000, -16.500000) "></path>
        </g>
    </g>
</svg>