<?xml version="1.0" encoding="UTF-8" standalone="no"?>
<svg version="1.1" xmlns="http://www.w3.org/2000/svg" xmlns:xlink="http://www.w3.org/1999/xlink" xmlns:sketch="http://www.bohemiancoding.com/sketch/ns">

    <!-- Generator: Sketch 3.4.4 (17249) - http://www.bohemiancoding.com/sketch -->
    <title>Group</title>
    <desc>Created with Sketch.</desc>
    <defs></defs>
    <g id="Page-1" stroke="none" stroke-width="1" fill="none" fill-rule="evenodd" sketch:type="MSPage">
        <g id="05-About" sketch:type="MSArtboardGroup" transform="translate(-290.000000, -6189.000000)" stroke-linecap="round" stroke="#FFFFFF" stroke-linejoin="round">
            <g id="Dop" sketch:type="MSLayerGroup" transform="translate(250.000000, 6150.000000)">
                <g id="Group" transform="translate(40.000000, 40.000000)" sketch:type="MSShapeGroup">
                    <path d="M1,-2.48689958e-14 L7.72297404,-2.48689958e-14 C7.72297404,-2.48689958e-14 11.3778688,0.522648084 12.7066354,5.78484321 C14.035402,11.0470383 23.5574996,42.5383275 23.5574996,42.5383275 C23.5574996,42.5383275 24.7540027,47 30.2626469,47 L61,47" id="Path-5104" stroke-width="2"></path>
                    <path d="M15,15 L63,15 L61.359555,27.2462606 C61.359555,27.2462606 60.7044612,30.3730761 56.2121424,31.4170822 C51.7198235,32.4610882 22.141214,39 22.141214,39" id="Path-5105" stroke-width="2"></path>
                    <path d="M29.5,15 L29.5,36" id="Path-5106"></path>
                    <path d="M39.5,15 L39.5,35" id="Path-5107"></path>
                    <path d="M50.5,15 L50.5,32" id="Path-5108"></path>
                    <circle id="Oval-145" stroke-width="2" cx="22" cy="60" r="6"></circle>
                    <circle id="Oval-145" stroke-width="2" cx="60" cy="60" r="6"></circle>
                </g>
            </g>
        </g>
    </g>
</svg>
