<?xml version="1.0" encoding="UTF-8" standalone="no"?>
<svg width="90px" height="90px" viewBox="0 0 90 90" version="1.1" xmlns="http://www.w3.org/2000/svg" xmlns:xlink="http://www.w3.org/1999/xlink" xmlns:sketch="http://www.bohemiancoding.com/sketch/ns">
    <!-- Generator: Sketch 3.4.4 (17249) - http://www.bohemiancoding.com/sketch -->
    <title>Untitled 4</title>
    <desc>Created with Sketch.</desc>
    <defs></defs>
    <g id="Page-1" stroke="none" stroke-width="1" fill="none" fill-rule="evenodd" sketch:type="MSPage">
        <path d="M21.4007764,0 C23.8061119,0.755193207 26.2067839,1.52618229 28.6176855,2.26317263 C49.0104595,8.49848101 69.4051892,14.727471 89.7988659,20.9599211 C89.8695712,20.981584 89.933206,21.0268655 90,21.0611651 L90,21.3620389 C89.4492505,23.0649846 88.8807495,24.762364 88.3515125,26.4717785 C87.1911928,30.2199137 86.051182,33.9743672 84.9018441,37.725812 C84.8589696,37.8661697 84.8076706,38.0038194 84.7383192,38.2064579 C83.7224189,37.896257 82.7317919,37.5937285 81.7034053,37.2799171 C83.146396,32.5546943 84.5672725,27.9024333 86.0156789,23.1594589 C65.0711023,16.7559621 44.1912136,10.3720221 23.2045148,3.95543725 C21.9587469,8.01738382 20.7251643,12.0397655 19.4721754,16.1254811 C18.4425853,15.8124219 17.4715152,15.5171143 16.4199613,15.1974359 C16.9344555,13.5158523 17.4327025,11.8757893 17.9375687,10.2379828 C18.9900252,6.82472012 20.0456409,3.41266094 21.0999026,0 L21.4007764,0 Z M68.9359013,89.9730116 C45.9171009,82.9354233 22.9927749,75.9265684 0,68.8968028 C1.93401671,62.5700288 3.84576875,56.3163671 5.77948459,49.9906462 C6.80862338,50.3028027 7.77683523,50.5963051 8.83621183,50.9176383 C7.22292658,56.2012829 5.6266407,61.4295667 3.99485172,66.7732356 C24.9255881,73.1726706 45.8296971,79.5641325 66.8100776,85.9786112 C69.1463626,78.342284 71.4620377,70.7732022 73.8038888,63.1180704 C74.8312223,63.4287226 75.7994342,63.7214728 76.86197,64.042806 C74.2168381,72.6956352 71.588856,81.2937055 68.9359013,89.9730116 Z M26.4077976,51.052174 C27.2487399,48.509941 28.0514711,46.196372 28.7660464,43.8558748 C28.9852329,43.1379899 29.3268751,42.9293339 30.032725,42.9762703 C30.925568,43.0356928 31.8256319,42.9907122 32.7687208,42.9907122 L32.7687208,54.8850052 L30.3235196,54.8850052 L30.3235196,47.0493492 C30.2681588,47.0367125 30.212798,47.0239253 30.1575877,47.0111382 C29.8451302,47.8946541 29.5296641,48.7771169 29.2209676,49.6619867 C28.6778904,51.2190085 28.116159,52.7701633 27.6123459,54.3398219 C27.4617585,54.8087337 27.2467842,54.9573653 26.7685453,54.954507 C25.3248024,54.9457817 25.3251033,54.9648872 24.8528819,53.6342729 C24.0951313,51.499122 23.3366285,49.3641216 22.4341575,47.2438641 L22.4341575,54.880793 L19.9232153,54.880793 L19.9232153,42.9956766 C21.0878978,42.9956766 22.2337756,42.9726598 23.3764942,43.0218526 C23.5383643,43.0289232 23.751383,43.3643974 23.828858,43.5868936 C24.5858564,45.7573971 25.3183337,47.9363251 26.0598371,50.1120939 C26.1460375,50.3654296 26.2451754,50.6141018 26.4077976,51.052174 Z M53.7586691,50.4317723 L51.1482882,50.4317723 L51.1482882,48.4932425 L56.1295546,48.4932425 L56.1295546,54.9357024 C55.664855,54.9357024 55.1324588,55.0741044 54.7544109,54.8919253 C54.4518823,54.7463024 54.3372494,54.2108975 54.1108419,53.7968951 C53.068916,54.9480383 51.7273198,55.3274401 50.19858,55.2123559 C48.3084909,55.0700426 46.8609871,54.2139062 45.9117303,52.5762502 C44.3381604,49.8616164 44.8327969,46.1414625 47.0073622,44.1299708 C49.6151858,41.7178656 54.2554118,42.445228 55.6373251,45.494283 C55.8291321,45.917462 55.9245091,46.3842676 56.0851757,46.8963548 C55.1545731,46.8963548 54.3357451,46.8963548 53.5166162,46.8972575 C52.7794754,45.3543767 51.963957,44.8332633 50.512241,44.9784349 C49.1757596,45.1120228 48.198672,46.0498464 47.8677108,47.5700112 C47.5672883,48.9502697 47.600234,50.3150332 48.2914915,51.5881807 C48.873231,52.6595922 50.0695052,53.24073 51.2617176,53.0884878 C52.5456965,52.924662 53.4295132,52.1723271 53.7145911,50.990194 C53.7485899,50.8493851 53.7391123,50.698196 53.7586691,50.4317723 Z M68.7523984,50.6789401 C68.6463404,50.1157044 68.6102356,49.6615354 68.4712319,49.2413651 C68.1816408,48.3653711 67.4745874,47.857797 66.6289817,47.8454612 C65.8045875,47.8334262 65.0949767,48.3561944 64.7944037,49.2424182 C64.444638,50.273964 64.4631417,51.3079167 64.9210716,52.3039594 C65.2569972,53.0343305 65.8713815,53.3758223 66.6655378,53.3658934 C67.4318634,53.3564159 68.0376727,53.0107119 68.3251576,52.3011011 C68.5453973,51.7575726 68.630695,51.1594355 68.7523984,50.6789401 Z M62.5871936,48.2208012 C64.3870206,45.9421336 67.0350108,45.3664116 69.1333046,46.6379042 C71.0110579,47.7756585 71.7145009,50.6350125 70.6655044,52.8646377 C69.7478394,54.815052 67.3771043,55.7196291 65.0719598,54.9990364 C62.6132192,54.2304543 61.7807015,52.0865781 62.5003916,48.3769547 C60.6760433,47.9746865 59.5330238,48.7974259 59.4663803,50.6320038 C59.4158335,52.0286599 59.4564514,53.4284752 59.4564514,54.8850052 L57.0661596,54.8850052 L57.0661596,46.285581 L59.2873604,46.285581 L59.2873604,47.6775736 C60.1543282,46.4646009 61.1615032,45.8980556 62.5871936,46.0970836 L62.5871936,48.2208012 Z M10.9947706,43.058815 C10.1187766,43.0586645 9.24097734,43.0887519 8.36799204,43.0376034 C8.14669937,43.0246658 7.81769389,42.7961522 7.74683811,42.5936641 C7.16991262,40.9450262 6.62442844,39.2846542 6.12166835,37.6119464 C6.05442305,37.3874945 6.19583373,36.9641651 6.38387985,36.8206483 C7.77542112,35.7584134 9.19419146,34.7310798 10.6310142,33.7305241 C10.8077776,33.6074667 11.2147094,33.600697 11.3887649,33.7216483 C12.8258885,34.7203988 14.2249516,35.7736075 15.6553056,36.7822869 C16.0137967,37.0351713 16.046592,37.2775251 15.9160128,37.664148 C15.3727851,39.2720175 14.8349732,40.8827453 14.3457525,42.5074638 C14.2072001,42.9681015 13.9803412,43.079124 13.5475343,43.0663368 C12.6971145,43.0413643 11.8456417,43.0589654 10.9947706,43.058815 Z M86.7629591,50.6248129 C86.6796171,50.1993774 86.6405035,49.7450579 86.4981902,49.3256399 C86.1949094,48.4306908 85.5143329,47.9697522 84.6302153,47.9870524 C83.7695658,48.0040518 83.0076029,48.5083162 82.8466354,49.4175568 C82.70703,50.2058461 82.7076317,51.0616816 82.857166,51.8472631 C83.0339294,52.7753083 83.8292892,53.2693431 84.7352202,53.2567064 C85.5931618,53.2448218 86.2693756,52.7288233 86.5385072,51.829662 C86.6516358,51.4514636 86.6863867,51.0496467 86.7629591,50.6248129 Z M80.3943636,46.2813989 L82.5427529,46.2813989 C82.5779551,46.5234519 82.6124052,46.7608413 82.6324133,46.8986415 C83.3525547,46.617174 84.0722448,46.1581911 84.8342077,46.0721412 C86.9559696,45.8329465 88.4443923,46.9523474 88.9546742,49.040562 C89.2569019,50.2765515 89.2540436,51.5251777 88.8064939,52.7337877 C87.9004124,55.1807942 85.1836726,55.9534381 83.1077939,54.3690367 C83.0339294,54.3126229 82.9629232,54.2522977 82.7939825,54.115701 L82.7939825,57.9856901 L80.3943636,57.9856901 L80.3943636,46.2813989 Z M33.9537423,43.0265011 L42.406641,43.0265011 C42.406641,43.6539734 42.4511703,44.2530131 42.376704,44.8370091 C42.3569968,44.9918087 41.9742853,45.2073848 41.7538953,45.2126501 C40.3276031,45.2466488 38.9002578,45.2301008 37.4733639,45.2302512 L36.6313686,45.2302512 L36.6313686,47.9296908 L41.6042106,47.9296908 L41.6042106,50.0537093 L36.6122631,50.0537093 L36.6122631,54.9024408 L33.9537423,54.9024408 L33.9537423,43.0265011 Z M79.5449368,54.9182818 L77.3432928,54.9182818 C77.2963565,54.6286908 77.2512254,54.3508339 77.1904489,53.9757947 C76.094817,55.149052 74.8219705,55.4442092 73.3804842,55.0556307 C72.3254702,54.7711546 71.6041253,54.0401817 71.5552333,52.9988575 C71.451131,50.7799133 71.5234911,48.5528456 71.5234911,46.2823015 L73.9006949,46.2823015 C73.9006949,47.9711061 73.8996419,49.6191423 73.9009958,51.2673289 C73.9021993,52.5854569 74.218869,53.0635454 75.1290122,53.1303394 C76.2833145,53.2148849 76.9938279,52.7003907 77.0968772,51.4705691 C77.2134658,50.0769217 77.1596094,48.6688324 77.1781131,47.2670614 C77.1821749,46.9493387 77.1787149,46.631616 77.1787149,46.2761336 L79.5449368,46.2761336 L79.5449368,54.9182818 Z M8.46746092,31.5734546 C8.01524761,32.9606332 7.61237761,34.2713898 7.14481975,35.5586783 C7.06584038,35.7757588 6.71216324,36.0221744 6.47687994,36.0312006 C5.2526245,36.0784378 4.02475857,36.0748273 2.79990138,36.0331563 C2.57996264,36.0256344 2.24764754,35.8008817 2.1740839,35.6006502 C1.74458657,34.4299503 1.35089322,33.2439058 1.01105628,32.0444725 C0.948173654,31.8228789 1.10673414,31.4159471 1.297789,31.2655103 C2.25968249,30.5083614 3.25632692,29.7933348 4.26681153,29.101626 C4.43785828,28.9845861 4.80943741,28.9468264 4.96408653,29.0530349 C6.13674212,29.8587749 7.27855815,30.7094955 8.46746092,31.5734546 Z M17.3062151,36.0851623 C16.5601986,36.0522166 15.6249324,36.2790755 15.121721,35.9126112 C14.6240758,35.5502087 14.5479547,34.5935805 14.3143262,33.8886332 C14.0639992,33.13344 13.5090375,32.2603043 13.7082159,31.6370442 C13.9067926,31.0151381 14.8635713,30.6227987 15.5093969,30.1600548 C16.1326569,29.7132573 16.7802878,28.9803287 17.423255,28.9738599 C18.0311705,28.9675416 18.6581915,29.7272479 19.256479,30.1773551 C19.8872609,30.651833 20.8101913,31.0530482 21.0202012,31.6818744 C21.2196805,32.278808 20.6744972,33.1328383 20.4337982,33.8662181 C20.200621,34.575829 20.133827,35.5596863 19.63558,35.9031337 C19.1030334,36.2700493 18.1513696,36.0291998 17.3824866,36.0535706 C17.3575141,36.0543228 17.3325416,36.0535706 17.3075691,36.0535706 C17.3071178,36.0641012 17.3066664,36.0746317 17.3062151,36.0851623 Z M14.9552024,21.3084834 C16.1377868,22.1686815 17.2805055,22.9787842 18.3911811,23.8307083 C18.5503433,23.9528631 18.669038,24.3089472 18.6135268,24.5009047 C18.2583453,25.7239567 17.8702181,26.938885 17.4368094,28.1362122 C17.3662545,28.3308776 17.0205505,28.5387814 16.7957978,28.5460023 C15.570038,28.5860186 14.3418712,28.5478076 13.1153592,28.5750367 C12.7124892,28.5839124 12.538885,28.4259537 12.4271104,28.067613 C12.0562835,26.8754006 11.6478473,25.6946215 11.2991346,24.4960907 C11.2439242,24.3059385 11.3514866,23.9536153 11.5056844,23.8355223 C12.6169618,22.9854034 13.7596804,22.1763538 14.9552024,21.3084834 Z M7.86851147,23.7618233 C8.61904113,24.3052014 9.34324434,24.7981831 10.0236704,25.3454725 C10.1801248,25.4712377 10.2937046,25.810172 10.2455648,26.0063418 C9.59778356,28.6456066 9.52602516,28.7002152 6.79755122,28.5464687 C6.57896641,28.5341329 6.26966816,28.3030618 6.18376869,28.0978659 C5.90515957,27.4317313 5.67484068,26.7389694 5.50559918,26.0371813 C5.45369845,25.8226583 5.58487942,25.4567958 5.75863403,25.3141816 C6.41468933,24.7762193 7.12279579,24.3014404 7.86851147,23.7618233 Z" id="MF-Group" fill="#FFFFFF" sketch:type="MSShapeGroup"></path>
    </g>
</svg>