<?xml version="1.0" encoding="UTF-8" standalone="no"?>
<svg width="36px" height="36px" viewBox="0 0 36 36" version="1.1" xmlns="http://www.w3.org/2000/svg" xmlns:xlink="http://www.w3.org/1999/xlink" xmlns:sketch="http://www.bohemiancoding.com/sketch/ns">
    <!-- Generator: Sketch 3.4.4 (17249) - http://www.bohemiancoding.com/sketch -->
    <title>Untitled 2</title>
    <desc>Created with Sketch.</desc>
    <defs></defs>
    <g id="Page-1" stroke="none" stroke-width="1" fill="none" fill-rule="evenodd" sketch:type="MSPage">
        <g id="Oval-81-+-Fill-10" sketch:type="MSLayerGroup">
            <circle id="Oval-81" fill="#F4960F" sketch:type="MSShapeGroup" cx="18" cy="18" r="18"></circle>
            <path d="M20.1363522,20.5423879 C18.4213522,20.1673879 17.7053522,19.2783879 17.7053522,19.2783879 C16.9653522,18.5383879 16.6863522,17.7113879 16.4623522,16.9103879 C16.2393522,16.1103879 15.5693522,16.0893879 15.1863522,16.1533879 C14.8033522,16.2183879 14.1473522,16.5423879 14.3503522,17.6533879 C14.5533522,18.7653879 15.1763522,19.6903879 15.1763522,19.6903879 L12.1673522,19.7533879 C12.1673522,19.7533879 11.0233522,19.7903879 11.0003522,20.8783879 C10.9783522,21.9663879 11.9943522,22.0013879 11.9943522,22.0013879 L15.0663522,21.9593879 L15.0043522,24.9253879 C15.0043522,24.9253879 14.9823522,26.0273879 16.0833522,26.0053879 C17.1863522,25.9813879 17.2303522,24.8583879 17.2303522,24.8583879 L17.3143522,21.8283879 C17.8023522,22.1143879 18.7113522,22.5333879 19.4553522,22.7163879 C20.1993522,22.8973879 20.6573522,22.3313879 20.8273522,21.9253879 C20.9983522,21.5193879 20.8523522,20.7103879 20.1363522,20.5423879 M22.3703522,16.8583879 C21.7073522,17.5223879 20.6683522,17.5573879 20.0493522,16.9373879 C19.4293522,16.3173879 19.4643522,15.2783879 20.1263522,14.6163879 C20.7893522,13.9533879 21.8283522,13.9193879 22.4483522,14.5383879 C23.0683522,15.1573879 23.0323522,16.1963879 22.3703522,16.8583879 M23.9773522,13.0073879 C22.5683522,11.5973879 20.2013522,11.6773879 18.6943522,13.1853879 C17.1873522,14.6923879 17.1083522,17.0583879 18.5183522,18.4683879 C19.9273522,19.8783879 22.2933522,19.7983879 23.8013522,18.2913879 C25.3083522,16.7833879 25.3873522,14.4173879 23.9773522,13.0073879" id="Fill-10" fill="#FFFFFF" sketch:type="MSShapeGroup"></path>
        </g>
    </g>
</svg>