<?xml version="1.0" encoding="UTF-8" standalone="no"?>
<svg width="28px" height="26px" viewBox="0 0 28 26" version="1.1" xmlns="http://www.w3.org/2000/svg" xmlns:xlink="http://www.w3.org/1999/xlink" xmlns:sketch="http://www.bohemiancoding.com/sketch/ns">
    <!-- Generator: Sketch 3.4.4 (17249) - http://www.bohemiancoding.com/sketch -->
    <title>Untitled</title>
    <desc>Created with Sketch.</desc>
    <defs></defs>
    <g id="Page-1" stroke="none" stroke-width="1" fill="none" fill-rule="evenodd" sketch:type="MSPage">
        <path d="M21.054852,4.70663197 C20.1204555,4.71618776 19.3494393,3.41306065 19.3372727,2.13789308 C19.3251061,0.862371595 20.0749176,0.0957845973 21.0096617,0.0858748854 C21.945101,0.0759651736 22.715422,1.3794462 22.7289791,2.65461377 C22.7397552,3.93084309 21.990639,4.69672225 21.054852,4.70663197 Z M18.5777279,20.7985884 C18.1505057,21.7463815 17.6019649,23.6791293 17.3002327,25.0887858 C16.9957196,26.5118912 15.3101211,26.1721296 15.5475441,24.7338058 C15.7168339,23.7060271 16.1298038,20.7083392 17.208114,18.2811676 C18.3333527,15.7492363 19.6682048,13.8826712 19.6682048,13.8826712 C19.4836198,12.2125309 18.5582614,7.72095397 18.5582614,7.72095397 C18.5582614,7.72095397 15.2805736,6.95542873 13.7350651,2.62488464 C13.1472435,0.977748954 14.4504625,0.424928599 15.079303,1.40634399 C15.8666572,2.63408651 16.3644458,4.33218642 18.1831818,5.18052854 C19.6028527,5.84270965 23.2225963,5.48631394 23.970322,5.60381481 C27.7621364,6.19910536 28.1278303,10.9529357 27.9710547,13.2912738 C27.8733741,14.7515406 26.3959987,14.758619 26.2871943,13.2622525 C26.1471044,11.3280891 26.0042335,8.98302656 24.576915,8.27837526 C24.7462048,10.2719969 25.4689021,13.454784 25.4689021,13.454784 C25.6430586,16.3360328 23.7294229,16.5451985 23.6112329,19.4045043 C23.5611759,20.6064108 24.2873494,22.8987395 24.8772567,24.0004871 C25.5669303,25.2891035 24.0850359,25.8971351 23.2604866,24.8743113 C22.4359373,23.8514875 21.7956254,22.3126508 21.3656223,20.5851757 C20.8476718,18.5051979 21.540474,16.3257691 21.540474,16.3257691 C20.1934552,17.5988132 19.3563917,19.0711133 18.5777279,20.7985884 Z M7.81409208,4.55338535 C8.73388864,4.6510668 9.6126663,3.44031236 9.74093725,2.18567205 C9.86955581,0.929969986 9.20039165,0.104278636 8.2805951,0.00553543557 C7.36010331,-0.0921460101 6.4823685,1.11896235 6.35235946,2.37360266 C6.22513137,3.62965864 6.89360029,4.45499607 7.81409208,4.55338535 Z M8.78568368,20.6403869 C9.11974433,21.61437 9.48370011,23.5697685 9.6519471,24.9875652 C9.8222798,26.4184568 11.5134401,26.2429133 11.4115881,24.8035277 C11.3382408,23.7750411 11.2054508,20.783016 10.3645635,18.2900156 C9.48717629,15.6887162 8.34247106,13.7244698 8.34247106,13.7244698 C8.67687933,12.0964457 9.35056252,8.89383915 9.35056252,8.89383915 C9.35056252,8.89383915 10.5209915,11.562383 13.1879148,13.0683053 C14.6934473,13.8791321 15.4029351,12.6535131 14.5439716,11.8925888 C10.7490287,9.57654752 11.0789179,5.92729612 9.11800625,5.65477904 C7.64932127,5.45092211 5.83162808,4.68752038 5.08424993,4.732468 C1.29417365,4.95968354 0.0590878017,9.68803178 0.000688020464,12.0065504 C-0.0361594605,13.4540762 1.41827319,13.6013062 1.66195323,12.1371463 C1.97654729,10.2450992 2.59843543,7.9945328 4.06851088,7.43534192 C3.71985028,9.38330814 2.66691613,12.753318 2.66691613,12.753318 C2.23239395,15.5754624 4.098406,15.9622951 3.95379702,18.7904561 C3.89331153,19.9785597 2.96864833,22.16896 2.28731755,23.1985082 C1.48988244,24.4025382 2.87548677,25.3453765 3.80049759,24.2117763 C4.62226594,23.2045249 5.4774056,21.8270749 6.05862247,20.1657825 C6.75872461,18.1657903 6.27518832,15.9534471 6.27518832,15.9534471 C7.48559331,17.335498 8.17596216,18.8647789 8.78568368,20.6403869 Z" id="Dance" fill="#FFFFFF" sketch:type="MSShapeGroup"></path>
    </g>
</svg>