<?xml version="1.0" encoding="UTF-8" standalone="no"?>
<svg width="26px" height="26px" viewBox="0 0 26 26" version="1.1" xmlns="http://www.w3.org/2000/svg" xmlns:xlink="http://www.w3.org/1999/xlink" xmlns:sketch="http://www.bohemiancoding.com/sketch/ns">
    <!-- Generator: Sketch 3.4.4 (17249) - http://www.bohemiancoding.com/sketch -->
    <title>Untitled</title>
    <desc>Created with Sketch.</desc>
    <defs></defs>
    <g id="Page-1" stroke="none" stroke-width="1" fill="none" fill-rule="evenodd" sketch:type="MSPage">
        <path d="M2.84579341,10.7654219 C3.59730903,10.7489687 4.27906285,11.0067344 4.88556342,11.5381094 C5.40603121,10.9277187 5.98426096,10.3282969 6.62737122,9.75507812 C6.39612,8.99640625 6.23605429,8.28689062 6.12927602,7.63364062 C5.72006102,5.1260625 6.01293855,3.12710937 6.37944225,1.7980625 C2.7839637,3.91685937 0.298775766,7.71184375 0,12.1076719 C0.755990144,11.4424375 1.76133297,10.7975156 2.84579341,10.7654219 Z M14.4620487,3.50634375 C13.9643603,4.10251563 13.8160911,4.8839375 14.0048344,5.87742188 C16.9185591,5.15409375 20.1764149,5.09295313 23.7515547,5.69664063 C22.7559745,4.23535938 21.4685337,2.98979688 19.9754684,2.03754688 C18.4687762,1.96625 15.6122032,2.12753125 14.4620487,3.50634375 Z M7.3843783,7.5278125 C7.45698752,7.95478125 7.55644385,8.40876563 7.68437439,8.88529687 C8.0093871,8.63870312 8.34538272,8.398 8.69886964,8.16765625 C9.96678531,7.34215625 11.3321234,6.6941875 12.7904095,6.2229375 C12.496515,4.80085937 12.7336645,3.61867188 13.4992138,2.70217188 C14.483201,1.52445313 16.1719247,1.04751563 17.6603121,0.868765625 C16.2083311,0.3095625 14.6320804,0 12.9826104,0 C11.2125318,0 9.52543513,0.354453125 7.98681112,0.9936875 C7.60444323,1.89170313 6.82547033,4.24125 7.3843783,7.5278125 Z M14.362389,7.08235937 C16.288669,11.8198437 23.513185,14.2782656 25.8637306,14.8709844 C25.9520006,14.2597812 26,13.6355781 26,13 C26,10.8868906 25.4919388,8.89342187 24.5958149,7.12948437 C20.8002034,6.35984375 17.3774006,6.34460937 14.362389,7.08235937 Z M7.07848398,11.0512188 C6.58506669,11.5222656 6.13375054,12.0101719 5.72270505,12.5053906 C7.97867564,15.7163906 7.54851175,20.0490469 6.6245238,24.3425 C8.50483827,25.3965156 10.6727422,26 12.9826104,26 C14.9841436,26 16.8797121,25.5476406 18.5739273,24.7418438 C11.7730668,19.6029844 8.54510893,14.8283281 7.07848398,11.0512188 Z M13.1483709,7.42564063 C11.8043885,7.86195313 10.548676,8.45975 9.38448782,9.2178125 C8.92483279,9.51701563 8.49466891,9.83571875 8.08586068,10.1657969 C9.41784331,13.8864375 12.5965815,18.760625 19.7871318,24.0831094 C22.6632299,22.3183594 24.7979818,19.4687188 25.6233269,16.1047656 C22.77672,15.4242969 15.1732937,12.5994375 13.1483709,7.42564063 Z M0,13.892125 C0.104947784,15.4381094 0.480197129,16.9095469 1.07978253,18.2605312 C1.58458951,16.8006719 2.51142488,14.6536406 4.10313294,12.5187969 C3.72340908,12.1694219 3.32090586,12.0012344 2.88321665,12.0187031 C1.79041733,12.051 0.626432511,13.1529531 0,13.892125 Z M4.91220714,13.5561563 C3.04124848,16.176875 2.19841202,18.7772813 1.910009,19.8339375 C2.8364376,21.3277188 4.05798099,22.6187813 5.49226738,23.629125 C6.25659639,19.9259531 6.57835491,16.2556875 4.91220714,13.5561563 Z" id="Sport" fill="#FFFFFF" sketch:type="MSShapeGroup"></path>
    </g>
</svg>