<?xml version="1.0" encoding="UTF-8" standalone="no"?>
<svg width="50px" height="50px" viewBox="0 0 50 50" version="1.1" xmlns="http://www.w3.org/2000/svg" xmlns:xlink="http://www.w3.org/1999/xlink" xmlns:sketch="http://www.bohemiancoding.com/sketch/ns">
    <!-- Generator: Sketch 3.4.4 (17249) - http://www.bohemiancoding.com/sketch -->
    <title>Untitled</title>
    <desc>Created with Sketch.</desc>
    <defs></defs>
    <g id="Page-1" stroke="none" stroke-width="1" fill="none" fill-rule="evenodd" sketch:type="MSPage">
        <g id="Vk" sketch:type="MSLayerGroup">
            <ellipse id="Oval-276-Copy" fill="#54789E" sketch:type="MSShapeGroup" cx="25" cy="25" rx="24.3137255" ry="25"></ellipse>
            <path d="M29.0682941,26.041875 C28.8251569,25.7575 28.5376471,25.524375 28.2069804,25.34125 C27.8763137,25.15875 27.5237647,25.03375 27.1493333,24.965625 L27.1493333,24.925625 C27.797902,24.695625 28.3230784,24.319375 28.7224314,23.79875 C29.1217843,23.2775 29.3211569,22.618125 29.3211569,21.819375 C29.3211569,21.08875 29.1837843,20.48625 28.9090392,20.0125 C28.634902,19.53875 28.2787059,19.16375 27.8416667,18.885625 C27.4046275,18.60875 26.9177451,18.411875 26.3816275,18.2975 C25.8455098,18.183125 25.3209412,18.125 24.8091373,18.125 L19.5294118,18.125 L19.5294118,32.496875 L24.8097451,32.496875 C25.4461569,32.496875 26.0667647,32.42625 26.6721765,32.28375 C27.2775882,32.14125 27.8173529,31.908125 28.2914706,31.583125 C28.7655882,31.258125 29.1467059,30.829375 29.4336078,30.294375 C29.7211176,29.760625 29.8645686,29.100625 29.8645686,28.315625 C29.8645686,27.841875 29.7928431,27.415625 29.6493922,27.03625 C29.5053333,26.6575 29.3120392,26.325625 29.0682941,26.041875 L29.0682941,26.041875 Z M22.5291176,20.9825 L24.1915686,20.9825 C24.8656667,20.9825 25.3744314,21.094375 25.7172549,21.316875 C26.0600784,21.54 26.1938039,21.79875 26.1938039,22.28625 C26.1938039,22.800625 26.0667647,23.20375 25.736098,23.4675 C25.4048235,23.73125 24.9398235,23.86375 24.341098,23.86375 L22.5291176,23.86375 L22.5291176,20.9825 L22.5291176,20.9825 Z M26.4563922,28.784375 C26.3190196,29.0075 26.1409216,29.18 25.9227059,29.301875 C25.7044902,29.423125 25.4607451,29.508125 25.1926863,29.555625 C24.9246275,29.603125 24.6650784,29.62625 24.4158627,29.62625 L22.5291176,29.62625 L22.5291176,26.393125 L24.3976275,26.393125 C25.0838824,26.393125 25.6333725,26.508125 26.0448824,26.738125 C26.4563922,26.968125 26.6630588,27.395 26.6630588,27.990625 C26.662451,28.3425 26.5937647,28.560625 26.4563922,28.784375 L26.4563922,28.784375 Z" id="VK" fill="#FFFFFF" sketch:type="MSShapeGroup"></path>
        </g>
    </g>
</svg>