<?xml version="1.0" encoding="UTF-8" standalone="no"?>
<svg width="120px" height="33px" viewBox="0 0 120 33" version="1.1" xmlns="http://www.w3.org/2000/svg" xmlns:xlink="http://www.w3.org/1999/xlink" xmlns:sketch="http://www.bohemiancoding.com/sketch/ns">
    <!-- Generator: Sketch 3.4.4 (17249) - http://www.bohemiancoding.com/sketch -->
    <title>Slice 1</title>
    <desc>Created with Sketch.</desc>
    <defs></defs>
    <g id="Page-1" stroke="none" stroke-width="1" fill="none" fill-rule="evenodd" sketch:type="MSPage">
        <path d="M0,9.6969697 L18.1818182,9.6969697 L18.1818182,14.5454545 L12.1212121,14.5454545 L12.1212121,32.7272727 L7.27272727,32.7272727 L7.27272727,14.5454545 L0,14.5454545 L0,9.6969697 Z M24.2424242,9.6969697 L24.2424242,32.7272727 L29.0909091,32.7272727 L40,18.1818182 L40,32.7272727 L44.8484848,32.7272727 L60.6060606,9.6969697 L53.3333333,9.6969697 L44.8484848,23.030303 L44.8484848,9.6969697 L37.5757576,9.6969697 L30.3030303,23.030303 L30.3030303,9.6969697 L24.2424242,9.6969697 Z M55.7575758,32.7272727 L70.3030303,9.6969697 L77.5757576,9.6969697 L63.030303,32.7272727 L55.7575758,32.7272727 Z M71.5151515,0 L77.5757576,8.48484848 L83.6363636,0 L71.5151515,0 Z M81.2121212,9.6969697 L81.2121212,14.5454545 L89.6969697,14.5454545 L77.5757576,32.7272727 L98.1818182,32.7272727 L98.1818182,27.8787879 L87.2727273,27.8787879 L98.1818182,9.6969697 L81.2121212,9.6969697 Z M105.454545,9.6969697 L105.454545,32.7272727 L120,32.7272727 L120,27.8787879 L110.30303,27.8787879 L110.30303,23.030303 L116.363636,23.030303 L116.363636,18.1818182 L110.30303,18.1818182 L110.30303,14.5454545 L120,14.5454545 L120,9.6969697 L105.454545,9.6969697 Z" id="Twize" fill="#FFFFFF" sketch:type="MSShapeGroup"></path>
    </g>
</svg>