<?xml version="1.0" encoding="UTF-8" standalone="no"?>
<svg width="100px" height="61px" viewBox="0 0 100 61" version="1.1" xmlns="http://www.w3.org/2000/svg" xmlns:xlink="http://www.w3.org/1999/xlink" xmlns:sketch="http://www.bohemiancoding.com/sketch/ns">
    <!-- Generator: Sketch 3.4.4 (17249) - http://www.bohemiancoding.com/sketch -->
    <title>MIMODA</title>
    <desc>Created with Sketch.</desc>
    <defs></defs>
    <g id="Page-1" stroke="none" stroke-width="1" fill="none" fill-rule="evenodd" sketch:type="MSPage">
        <g id="05-Shop" sketch:type="MSArtboardGroup" transform="translate(-485.000000, -702.000000)" fill="#FFFFFF">
            <path d="M493.306583,755.137221 L492.195138,755.137221 L489.546817,761.590381 L489.504274,761.590381 L486.855952,755.137221 L485.744508,755.137221 L485.744508,762.871366 L486.637918,762.871366 L486.637918,756.911304 L486.675143,756.911304 L489.121384,762.817768 L489.929707,762.817768 L492.375948,756.911304 L492.413173,756.911304 L492.413173,762.871366 L493.306583,762.871366 L493.306583,755.137221 Z M508.129061,762.871366 L508.129061,755.137221 L507.171836,755.137221 L507.171836,762.871366 L508.129061,762.871366 Z M529.06134,755.137221 L527.949896,755.137221 L525.301574,761.590381 L525.259031,761.590381 L522.610709,755.137221 L521.499265,755.137221 L521.499265,762.871366 L522.392675,762.871366 L522.392675,756.911304 L522.4299,756.911304 L524.876141,762.817768 L525.684464,762.817768 L528.130705,756.911304 L528.16793,756.911304 L528.16793,762.871366 L529.06134,762.871366 L529.06134,755.137221 Z M544.185005,755.008587 C542.009978,755.008587 540.648592,756.5522 540.648592,759.006973 C540.648592,761.461747 542.009978,763 544.185005,763 C546.360032,763 547.721419,761.461747 547.721419,759.006973 C547.721419,756.5522 546.360032,755.008587 544.185005,755.008587 L544.185005,755.008587 Z M544.185005,755.898308 C545.75379,755.898308 546.737604,757.098896 546.737604,759.006973 C546.737604,760.909691 545.75379,762.110279 544.185005,762.110279 C542.616221,762.110279 541.632406,760.909691 541.632406,759.006973 C541.632406,757.098896 542.616221,755.898308 544.185005,755.898308 L544.185005,755.898308 Z M559.308671,755.137221 L559.308671,762.871366 L561.941039,762.871366 C564.222424,762.871366 565.562539,761.440308 565.562539,759.001614 C565.562539,756.568279 564.217106,755.137221 561.941039,755.137221 L559.308671,755.137221 Z M560.265896,756.005504 L561.877224,756.005504 C563.6215,756.005504 564.584042,757.077457 564.584042,759.012333 C564.584042,760.93113 563.616182,762.003083 561.877224,762.003083 L560.265896,762.003083 L560.265896,756.005504 Z M582.627727,762.871366 L583.632813,762.871366 L580.803682,755.137221 L579.857093,755.137221 L577.027963,762.871366 L578.033048,762.871366 L578.804146,760.657782 L581.856629,760.657782 L582.627727,762.871366 Z M580.314434,756.31101 L580.346341,756.31101 L581.57478,759.837737 L579.085996,759.837737 L580.314434,756.31101 Z M485,723.874304 C485,718.406901 489.429137,713.974695 494.910565,713.974695 L520.633989,713.974695 C526.107443,713.974695 530.544554,718.415723 530.544554,723.874304 L530.544554,749.898779 L521.138614,749.898779 L521.138614,723.953607 L512.722772,723.953607 L512.722772,749.898779 L503.316832,749.898779 L503.316832,723.953607 L494.405941,723.953607 L494.405941,749.898779 L485,749.898779 L485,723.874304 Z M539.455446,723.874304 C539.455446,718.406901 543.884583,713.974695 549.366011,713.974695 L575.089435,713.974695 C580.562889,713.974695 585,718.415723 585,723.874304 L585,749.898779 L575.594059,749.898779 L575.594059,723.953607 L567.178218,723.953607 L567.178218,749.898779 L557.772277,749.898779 L557.772277,723.953607 L548.861386,723.953607 L548.861386,749.898779 L539.455446,749.898779 L539.455446,723.874304 Z M535.742574,714.47364 C539.160178,714.47364 541.930693,711.681321 541.930693,708.23682 C541.930693,704.79232 539.160178,702 535.742574,702 C532.324971,702 529.554455,704.79232 529.554455,708.23682 C529.554455,711.681321 532.324971,714.47364 535.742574,714.47364 Z" id="MIMODA" sketch:type="MSShapeGroup"></path>
        </g>
    </g>
</svg>