<?xml version="1.0" encoding="UTF-8" standalone="no"?>
<svg width="100px" height="51px" viewBox="0 0 100 51" version="1.1" xmlns="http://www.w3.org/2000/svg" xmlns:xlink="http://www.w3.org/1999/xlink" xmlns:sketch="http://www.bohemiancoding.com/sketch/ns">
    <!-- Generator: Sketch 3.4.4 (17249) - http://www.bohemiancoding.com/sketch -->
    <title>Path 8239</title>
    <desc>Created with Sketch.</desc>
    <defs></defs>
    <g id="Page-1" stroke="none" stroke-width="1" fill="none" fill-rule="evenodd" sketch:type="MSPage">
        <g id="05-Shop" sketch:type="MSArtboardGroup" transform="translate(-485.000000, -976.000000)" fill="#FFFFFF">
            <path d="M502.894737,1000.21053 L502.894737,976 L526.052632,976 L526.052632,1000.21053 L518.684211,1000.21053 L518.684211,996 L521.842105,994.947368 L507.105263,994.947368 L510.263158,996 L510.263158,1000.21053 L502.894737,1000.21053 Z M507.105263,983.368421 L521.842105,983.368421 L518.684211,984.421053 L518.684211,987.578947 L521.842105,988.631579 L507.105263,988.631579 L510.263158,987.578947 L510.263158,984.421053 L507.105263,983.368421 Z M536.889488,1026.52632 L536.889488,1002.31579 L560.047383,1002.31579 L560.047383,1026.52632 L552.678962,1026.52632 L552.678962,1022.31579 L555.836857,1021.26316 L541.100015,1021.26316 L544.257909,1022.31579 L544.257909,1026.52632 L536.889488,1026.52632 Z M541.100015,1009.68421 L555.836857,1009.68421 L552.678962,1010.73684 L552.678962,1013.89474 L555.836857,1014.94737 L541.100015,1014.94737 L544.257909,1013.89474 L544.257909,1010.73684 L541.100015,1009.68421 Z M550.263158,976 L550.263158,983.368421 L536.578947,983.368421 L535.526316,980.210526 L535.526316,996 L536.578947,992.842105 L550.263158,992.842105 L550.263158,1000.21053 L528.157895,1000.21053 L528.157895,976 L550.263158,976 Z M552.368421,976 L559.736842,976 L559.736842,1000.21053 L552.368421,1000.21053 L552.368421,976 Z M561.842105,976 L585,976 L585,1000.21053 L561.842105,1000.21053 L561.842105,976 Z M569.210526,980.210526 L569.210526,997.052632 L570.263158,993.894737 L577.631579,993.894737 L577.631579,983.368421 L570.263158,983.368421 L569.210526,980.210526 Z M485,1002.31579 L489.210526,1026.52632 L495.526316,1026.52632 L498.684211,1022.31579 L501.842105,1026.52632 L507.105263,1026.52632 L512.368421,1002.31579 L503.947368,1002.31579 L502.894737,1011.78947 L503.947368,1016 L500.789474,1011.78947 L496.578947,1011.78947 L493.421053,1016 L494.473684,1011.78947 L492.368421,1002.31579 L485,1002.31579 Z M513.421053,1002.31579 L513.421053,1026.52632 L534.473684,1026.52632 L534.473684,1019.15789 L521.842105,1019.15789 L520.789474,1022.31579 L520.789474,1017.05263 L532.368421,1017.05263 L532.368421,1011.78947 L520.789474,1011.78947 L520.789474,1006.52632 L521.842105,1009.68421 L534.473684,1009.68421 L534.473684,1002.31579 L513.421053,1002.31579 Z M561.842105,1002.31579 L561.842105,1026.52632 L570.263158,1026.52632 L570.263158,1022.31579 L567.105263,1021.26316 L576.578947,1021.26316 L573.421053,1022.31579 L575.526316,1026.52632 L585,1026.52632 L580.789474,1021.26316 L585,1021.26316 L585,1002.31579 L561.842105,1002.31579 Z M567.105263,1009.68421 L577.631579,1009.68421 L577.631579,1014.94737 L567.105263,1014.94737 L570.263158,1013.89474 L570.263158,1010.73684 L567.105263,1009.68421 Z" id="Path-8239" sketch:type="MSShapeGroup"></path>
        </g>
    </g>
</svg>